<svg width="771" height="1047" viewBox="0 0 771 1047" fill="none" xmlns="http://www.w3.org/2000/svg">
<mask id="mask0_257_399" style="mask-type:alpha" maskUnits="userSpaceOnUse" x="-691" y="0" width="1462" height="1047">
<path d="M-494.65 666.918C-510.921 652.781 -526.326 638.729 -540.777 624.827C-620.136 548.49 -668.64 479.403 -684.942 419.485C-701.621 358.183 -683.818 307.967 -632.025 270.232C-474.78 155.668 -360.687 99.1284 -285.191 61.7141C-251.21 44.8746 -224.371 31.5737 -205.844 18.8774L-205.233 19.9544L-205.844 18.8774C-175.022 -2.24591 -105.529 -5.46919 -24.4853 10.467C62.7307 27.6164 144.044 62.768 198.607 106.908C273.864 167.79 370.133 213.765 437.641 241.613C516.278 274.051 602.614 300.932 668.589 313.52C711.18 321.645 742.133 347.556 758.1 388.453C785.747 459.267 764.997 565.737 703.946 666.315C675.009 713.988 645.087 763.284 613.686 808.667C578.97 858.841 546.117 898.671 513.25 930.432C474.004 968.36 433.716 996.096 390.084 1015.22C341.367 1036.58 289.584 1046.83 231.776 1046.56C133.042 1046.09 -75.9183 956.254 -276.376 828.095C-358.375 775.67 -432.769 720.687 -494.65 666.918ZM723.422 342.008C708.376 328.935 689.816 320.145 668.194 316.02C602.085 303.407 515.594 276.48 436.83 243.989C369.185 216.085 272.708 170.006 197.238 108.952C142.95 65.0351 61.9867 30.0484 -24.8923 12.966C-105.396 -2.86353 -174.265 0.226776 -204.622 21.0313C-223.28 33.8178 -250.182 47.1494 -284.241 64.0285C-359.67 101.409 -473.659 157.898 -630.748 272.348C-681.595 309.392 -699.083 358.652 -682.73 418.759C-666.554 478.212 -618.282 546.901 -539.256 622.918C-469.954 689.581 -378.649 759.772 -275.214 825.902C-75.0713 953.859 133.416 1043.55 231.787 1044.02C289.293 1044.29 340.792 1034.1 389.228 1012.87C432.61 993.847 472.679 966.259 511.725 928.526C584.977 857.737 644.481 759.707 702.025 664.906C762.647 565.034 783.321 459.488 755.978 389.453C748.429 370.119 737.454 354.2 723.422 342.008Z" fill="url(#paint0_linear_257_399)"/>
</mask>
<g mask="url(#mask0_257_399)">
<path d="M-494.65 666.918C-510.921 652.781 -526.326 638.729 -540.777 624.827C-620.136 548.49 -668.64 479.403 -684.942 419.485C-701.621 358.183 -683.818 307.967 -632.025 270.232C-474.78 155.668 -360.687 99.1284 -285.191 61.7141C-251.21 44.8746 -224.371 31.5737 -205.844 18.8774L-205.233 19.9544L-205.844 18.8774C-175.022 -2.24591 -105.529 -5.46919 -24.4853 10.467C62.7307 27.6164 144.044 62.768 198.607 106.908C273.864 167.79 370.133 213.765 437.641 241.613C516.278 274.051 602.614 300.932 668.589 313.52C711.18 321.645 742.133 347.556 758.1 388.453C785.747 459.267 764.997 565.737 703.946 666.315C675.009 713.988 645.087 763.284 613.686 808.667C578.97 858.841 546.117 898.671 513.25 930.432C474.004 968.36 433.716 996.096 390.084 1015.22C341.367 1036.58 289.584 1046.83 231.776 1046.56C133.042 1046.09 -75.9183 956.254 -276.376 828.095C-358.375 775.67 -432.769 720.687 -494.65 666.918ZM723.422 342.008C708.376 328.935 689.816 320.145 668.194 316.02C602.085 303.407 515.594 276.48 436.83 243.989C369.185 216.085 272.708 170.006 197.238 108.952C142.95 65.0351 61.9867 30.0484 -24.8923 12.966C-105.396 -2.86353 -174.265 0.226776 -204.622 21.0313C-223.28 33.8178 -250.182 47.1494 -284.241 64.0285C-359.67 101.409 -473.659 157.898 -630.748 272.348C-681.595 309.392 -699.083 358.652 -682.73 418.759C-666.554 478.212 -618.282 546.901 -539.256 622.918C-469.954 689.581 -378.649 759.772 -275.214 825.902C-75.0713 953.859 133.416 1043.55 231.787 1044.02C289.293 1044.29 340.792 1034.1 389.228 1012.87C432.61 993.847 472.679 966.259 511.725 928.526C584.977 857.737 644.481 759.707 702.025 664.906C762.647 565.034 783.321 459.488 755.978 389.453C748.429 370.119 737.454 354.2 723.422 342.008Z" fill="url(#paint1_linear_257_399)"/>
</g>
<mask id="mask1_257_399" style="mask-type:alpha" maskUnits="userSpaceOnUse" x="-637" y="26" width="1349" height="966">
<path d="M-460.462 642.158C-473.329 630.979 -485.587 619.86 -497.188 608.842C-570.354 539.347 -615.184 476.441 -630.43 421.869C-645.845 366.698 -630.29 321.422 -584.198 287.302C-445.671 183.114 -338.859 126.909 -268.18 89.718C-235 72.2587 -208.793 58.4689 -190.133 45.5252C-159.963 24.6239 -94.5223 20.2314 -19.3463 34.0608C61.1487 48.8694 137.206 81.012 189.324 122.246C259.004 178.042 347.319 220.866 409.137 246.966C481.758 277.628 558.536 302.617 619.784 315.523C658.431 323.676 686.476 347.969 700.888 385.775C725.905 451.404 706.783 549.345 650.985 641.377L650.986 641.376C598.418 728.263 544.059 818.11 475.359 884.33C439.173 919.211 402.022 944.769 361.783 962.469C316.895 982.213 269.217 991.803 216.028 991.788C124.713 992.09 -68.3352 910.722 -253.426 793.916C-331.524 744.631 -402.206 692.777 -460.462 642.158ZM668.186 341.509C654.784 329.863 638.39 321.875 619.374 317.863C558.006 304.931 481.094 279.901 408.358 249.19C346.418 223.038 257.917 180.12 188.051 124.175C136.199 83.1517 60.4728 51.1607 -19.7042 36.4104C-94.3762 22.6733 -159.237 26.9373 -188.975 47.5396C-207.741 60.5569 -233.999 74.3742 -267.242 91.8665C-337.862 129.027 -444.582 185.183 -582.979 289.273C-628.192 322.743 -643.457 367.117 -628.356 421.169C-613.231 475.305 -568.622 537.841 -495.768 607.039C-431.75 667.849 -347.574 731.754 -252.347 791.849C-67.5532 908.467 125.048 989.705 216.024 989.404C268.936 989.419 316.349 979.885 360.976 960.256C400.983 942.659 437.93 917.238 473.927 882.538C542.411 816.525 596.688 726.814 649.178 640.056V640.055C704.578 548.679 723.625 451.596 698.885 386.696C691.851 368.244 681.494 353.073 668.186 341.509Z" fill="url(#paint2_linear_257_399)"/>
</mask>
<g mask="url(#mask1_257_399)">
<path d="M-460.462 642.158C-473.329 630.979 -485.587 619.86 -497.188 608.842C-570.354 539.347 -615.184 476.441 -630.43 421.869C-645.845 366.698 -630.29 321.422 -584.198 287.302C-445.671 183.114 -338.859 126.909 -268.18 89.718C-235 72.2587 -208.793 58.4689 -190.133 45.5252C-159.963 24.6239 -94.5223 20.2314 -19.3463 34.0608C61.1487 48.8694 137.206 81.012 189.324 122.246C259.004 178.042 347.319 220.866 409.137 246.966C481.758 277.628 558.536 302.617 619.784 315.523C658.431 323.676 686.476 347.969 700.888 385.775C725.905 451.404 706.783 549.345 650.985 641.377L650.986 641.376C598.418 728.263 544.059 818.11 475.359 884.33C439.173 919.211 402.022 944.769 361.783 962.469C316.895 982.213 269.217 991.803 216.028 991.788C124.713 992.09 -68.3352 910.722 -253.426 793.916C-331.524 744.631 -402.206 692.777 -460.462 642.158ZM668.186 341.509C654.784 329.863 638.39 321.875 619.374 317.863C558.006 304.931 481.094 279.901 408.358 249.19C346.418 223.038 257.917 180.12 188.051 124.175C136.199 83.1517 60.4728 51.1607 -19.7042 36.4104C-94.3762 22.6733 -159.237 26.9373 -188.975 47.5396C-207.741 60.5569 -233.999 74.3742 -267.242 91.8665C-337.862 129.027 -444.582 185.183 -582.979 289.273C-628.192 322.743 -643.457 367.117 -628.356 421.169C-613.231 475.305 -568.622 537.841 -495.768 607.039C-431.75 667.849 -347.574 731.754 -252.347 791.849C-67.5532 908.467 125.048 989.705 216.024 989.404C268.936 989.419 316.349 979.885 360.976 960.256C400.983 942.659 437.93 917.238 473.927 882.538C542.411 816.525 596.688 726.814 649.178 640.056V640.055C704.578 548.679 723.625 451.596 698.885 386.696C691.851 368.244 681.494 353.073 668.186 341.509Z" fill="url(#paint3_linear_257_399)"/>
</g>
<mask id="mask2_257_399" style="mask-type:alpha" maskUnits="userSpaceOnUse" x="-582" y="51" width="1236" height="887">
<path d="M-426.217 617.558C-435.748 609.277 -444.889 601.045 -453.637 592.862C-520.613 530.208 -561.767 473.48 -575.956 424.256C-590.093 375.212 -576.775 334.877 -536.372 304.371C-415.67 209.894 -319.811 156.217 -249.817 117.024C-218.053 99.2373 -192.965 85.1892 -174.42 72.1697C-144.443 51.1717 -84.551 45.745 -14.208 57.6523C59.582 70.1432 130.382 99.2769 180.04 137.583C296.222 229.494 477.485 295.549 570.978 317.525C605.689 325.705 630.831 348.385 643.685 383.117C666.055 443.563 648.557 532.967 598.02 616.441C552.716 691.614 501.365 776.82 437.464 838.23C404.34 870.061 370.326 893.445 333.479 909.714C292.42 927.844 248.849 936.775 200.276 937.018C158.177 937.553 93.736 920.306 13.926 887.143C-62.741 855.284 -149.549 810.039 -230.509 759.741C-304.688 713.656 -371.647 664.972 -426.217 617.558ZM612.938 340.949C601.191 330.742 586.966 323.572 570.552 319.706C476.893 297.689 295.29 231.504 178.864 139.4C129.463 101.293 58.974 72.2983 -14.518 59.8569C-84.387 48.0287 -143.756 53.3356 -173.33 74.0501C-191.956 87.1267 -217.084 101.198 -248.896 119.011C-318.833 158.173 -414.615 211.807 -535.21 306.197C-574.804 336.092 -587.857 375.584 -574.022 423.582C-559.95 472.402 -519.004 528.783 -452.322 591.163C-393.581 646.109 -316.535 703.735 -229.511 757.798C-148.639 808.042 -61.93 853.235 14.643 885.055C94.219 918.121 158.404 935.318 200.259 934.786C248.578 934.543 291.904 925.665 332.721 907.643C369.353 891.469 403.177 868.214 436.127 836.549C499.823 775.337 551.093 690.264 596.328 615.206L596.329 615.205C646.499 532.337 663.923 443.728 641.803 383.957C635.288 366.349 625.541 351.9 612.938 340.949Z" fill="url(#paint4_linear_257_399)"/>
</mask>
<g mask="url(#mask2_257_399)">
<path d="M-426.217 617.558C-435.748 609.277 -444.889 601.045 -453.637 592.862C-520.613 530.208 -561.767 473.48 -575.956 424.256C-590.093 375.212 -576.775 334.877 -536.372 304.371C-415.67 209.894 -319.811 156.217 -249.817 117.024C-218.053 99.2373 -192.965 85.1892 -174.42 72.1697C-144.443 51.1717 -84.551 45.745 -14.208 57.6523C59.582 70.1432 130.382 99.2769 180.04 137.583C296.222 229.494 477.485 295.549 570.978 317.525C605.689 325.705 630.831 348.385 643.685 383.117C666.055 443.563 648.557 532.967 598.02 616.441C552.716 691.614 501.365 776.82 437.464 838.23C404.34 870.061 370.326 893.445 333.479 909.714C292.42 927.844 248.849 936.775 200.276 937.018C158.177 937.553 93.736 920.306 13.926 887.143C-62.741 855.284 -149.549 810.039 -230.509 759.741C-304.688 713.656 -371.647 664.972 -426.217 617.558ZM612.938 340.949C601.191 330.742 586.966 323.572 570.552 319.706C476.893 297.689 295.29 231.504 178.864 139.4C129.463 101.293 58.974 72.2983 -14.518 59.8569C-84.387 48.0287 -143.756 53.3356 -173.33 74.0501C-191.956 87.1267 -217.084 101.198 -248.896 119.011C-318.833 158.173 -414.615 211.807 -535.21 306.197C-574.804 336.092 -587.857 375.584 -574.022 423.582C-559.95 472.402 -519.004 528.783 -452.322 591.163C-393.581 646.109 -316.535 703.735 -229.511 757.798C-148.639 808.042 -61.93 853.235 14.643 885.055C94.219 918.121 158.404 935.318 200.259 934.786C248.578 934.543 291.904 925.665 332.721 907.643C369.353 891.469 403.177 868.214 436.127 836.549C499.823 775.337 551.093 690.264 596.328 615.206L596.329 615.205C646.499 532.337 663.923 443.728 641.803 383.957C635.288 366.349 625.541 351.9 612.938 340.949Z" fill="url(#paint5_linear_257_399)"/>
</g>
<mask id="mask3_257_399" style="mask-type:alpha" maskUnits="userSpaceOnUse" x="-527" y="76" width="1122" height="807">
<path d="M-391.904 593.16C-398.176 587.711 -404.252 582.287 -410.136 576.884C-470.924 521.071 -508.402 470.523 -521.532 426.647C-534.375 383.726 -523.278 348.328 -488.547 321.439C-384.58 235.756 -294.833 182.153 -229.303 143.014C-201.066 126.15 -176.68 111.584 -158.707 98.8139C-129.362 78.0269 -73.4228 71.4584 -9.06976 81.2436C58.0363 91.4464 123.58 117.571 170.756 152.918C217.043 189.006 279.755 225.225 352.126 257.671C410.216 283.714 472.195 306.261 522.173 319.528C552.963 327.728 575.209 348.807 586.5 380.486C606.2 435.749 590.32 516.605 545.057 591.501C497.783 670.315 454.204 739.813 399.571 792.125C369.51 820.911 338.633 842.116 305.177 856.956C267.948 873.469 228.482 881.742 184.527 882.245C145.907 883.165 87.0812 868.13 14.4193 838.762C-55.0938 810.667 -133.952 770.468 -207.628 725.57C-277.884 682.756 -341.093 637.31 -391.904 593.16ZM557.676 340.304C547.6 331.549 535.544 325.227 521.728 321.546C471.663 308.255 409.585 285.674 351.412 259.594C278.909 227.089 216.066 190.791 169.676 154.623C122.747 119.461 57.4973 93.4608 -9.32977 83.3009C-73.2488 73.5816 -128.708 80.0336 -157.684 100.559C-175.716 113.371 -200.132 127.954 -228.402 144.839C-293.881 183.948 -383.558 237.509 -487.437 323.118C-521.431 349.438 -532.291 384.046 -519.738 425.998C-506.72 469.5 -469.438 519.729 -408.926 575.289C-355.455 624.376 -285.537 675.717 -206.714 723.753C-133.12 768.602 -54.3557 808.754 15.0703 836.813C87.5112 866.092 146.098 881.084 184.495 880.168C228.221 879.667 267.46 871.445 304.468 855.03C337.726 840.278 368.428 819.19 398.329 790.559C452.782 738.42 496.282 669.043 543.481 590.355L543.483 590.353C588.41 516.012 604.219 435.886 584.74 381.243C578.747 364.431 569.6 350.666 557.676 340.304Z" fill="url(#paint6_linear_257_399)"/>
</mask>
<g mask="url(#mask3_257_399)">
<path d="M-391.904 593.16C-398.176 587.711 -404.252 582.287 -410.136 576.884C-470.924 521.071 -508.402 470.523 -521.532 426.647C-534.375 383.726 -523.278 348.328 -488.547 321.439C-384.58 235.756 -294.833 182.153 -229.303 143.014C-201.066 126.15 -176.68 111.584 -158.707 98.8139C-129.362 78.0269 -73.4228 71.4584 -9.06976 81.2436C58.0363 91.4464 123.58 117.571 170.756 152.918C217.043 189.006 279.755 225.225 352.126 257.671C410.216 283.714 472.195 306.261 522.173 319.528C552.963 327.728 575.209 348.807 586.5 380.486C606.2 435.749 590.32 516.605 545.057 591.501C497.783 670.315 454.204 739.813 399.571 792.125C369.51 820.911 338.633 842.116 305.177 856.956C267.948 873.469 228.482 881.742 184.527 882.245C145.907 883.165 87.0812 868.13 14.4193 838.762C-55.0938 810.667 -133.952 770.468 -207.628 725.57C-277.884 682.756 -341.093 637.31 -391.904 593.16ZM557.676 340.304C547.6 331.549 535.544 325.227 521.728 321.546C471.663 308.255 409.585 285.674 351.412 259.594C278.909 227.089 216.066 190.791 169.676 154.623C122.747 119.461 57.4973 93.4608 -9.32977 83.3009C-73.2488 73.5816 -128.708 80.0336 -157.684 100.559C-175.716 113.371 -200.132 127.954 -228.402 144.839C-293.881 183.948 -383.558 237.509 -487.437 323.118C-521.431 349.438 -532.291 384.046 -519.738 425.998C-506.72 469.5 -469.438 519.729 -408.926 575.289C-355.455 624.376 -285.537 675.717 -206.714 723.753C-133.12 768.602 -54.3557 808.754 15.0703 836.813C87.5112 866.092 146.098 881.084 184.495 880.168C228.221 879.667 267.46 871.445 304.468 855.03C337.726 840.278 368.428 819.19 398.329 790.559C452.782 738.42 496.282 669.043 543.481 590.355L543.483 590.353C588.41 516.012 604.219 435.886 584.74 381.243C578.747 364.431 569.6 350.666 557.676 340.304Z" fill="url(#paint7_linear_257_399)"/>
</g>
<mask id="mask4_257_399" style="mask-type:alpha" maskUnits="userSpaceOnUse" x="-473" y="101" width="1010" height="727">
<path d="M-357.509 569.037C-360.63 566.326 -363.694 563.622 -366.702 560.923C-421.303 511.95 -455.108 467.585 -467.178 429.056C-478.709 392.247 -469.809 361.783 -440.725 338.511C-352.233 260.348 -267.352 206.171 -205.374 166.612C-180.797 150.925 -159.572 137.378 -142.996 125.459C-113.833 104.565 -63.1469 97.0493 -3.9339 104.837C56.5201 112.788 116.808 135.903 161.471 168.257C248.288 234.749 384.005 294.318 473.37 321.534C500.259 329.758 519.612 349.25 529.338 377.904C546.338 427.983 532.067 500.275 492.094 566.566L492.096 566.561C451.943 633.896 411.754 698.29 361.677 746.025C334.678 771.761 306.939 790.791 276.873 804.201C243.474 819.098 208.115 826.711 168.776 827.475C133.624 828.782 80.4051 815.96 14.8851 790.395C-47.4859 766.058 -118.402 730.906 -184.799 691.414C-251.114 651.971 -310.553 609.837 -357.509 569.037ZM502.394 339.544C494.01 332.259 484.127 326.82 472.901 323.387C383.398 296.13 247.455 236.456 160.489 169.847C116.063 137.667 56.0511 114.662 -4.14191 106.745C-62.9529 99.0109 -113.215 106.419 -142.039 127.07C-158.653 139.014 -179.896 152.574 -204.495 168.275C-266.424 207.803 -351.24 261.938 -439.662 340.038C-468.086 362.783 -476.776 392.513 -465.524 428.431C-453.561 466.616 -419.941 510.691 -365.597 559.434C-317.392 602.646 -254.594 647.716 -183.967 689.723C-117.647 729.169 -46.8189 764.278 15.4701 788.583C80.7851 814.068 133.782 826.852 168.73 825.554C207.864 824.794 243.018 817.227 276.214 802.421C306.098 789.092 333.678 770.169 360.529 744.573C410.437 697 450.548 632.726 490.631 565.509L490.633 565.504C530.302 499.717 544.504 428.09 527.696 378.576C522.236 362.485 513.672 349.344 502.394 339.544Z" fill="url(#paint8_linear_257_399)"/>
</mask>
<g mask="url(#mask4_257_399)">
<path d="M-357.509 569.037C-360.63 566.326 -363.694 563.622 -366.702 560.923C-421.303 511.95 -455.108 467.585 -467.178 429.056C-478.709 392.247 -469.809 361.783 -440.725 338.511C-352.233 260.348 -267.352 206.171 -205.374 166.612C-180.797 150.925 -159.572 137.378 -142.996 125.459C-113.833 104.565 -63.1469 97.0493 -3.9339 104.837C56.5201 112.788 116.808 135.903 161.471 168.257C248.288 234.749 384.005 294.318 473.37 321.534C500.259 329.758 519.612 349.25 529.338 377.904C546.338 427.983 532.067 500.275 492.094 566.566L492.096 566.561C451.943 633.896 411.754 698.29 361.677 746.025C334.678 771.761 306.939 790.791 276.873 804.201C243.474 819.098 208.115 826.711 168.776 827.475C133.624 828.782 80.4051 815.96 14.8851 790.395C-47.4859 766.058 -118.402 730.906 -184.799 691.414C-251.114 651.971 -310.553 609.837 -357.509 569.037ZM502.394 339.544C494.01 332.259 484.127 326.82 472.901 323.387C383.398 296.13 247.455 236.456 160.489 169.847C116.063 137.667 56.0511 114.662 -4.14191 106.745C-62.9529 99.0109 -113.215 106.419 -142.039 127.07C-158.653 139.014 -179.896 152.574 -204.495 168.275C-266.424 207.803 -351.24 261.938 -439.662 340.038C-468.086 362.783 -476.776 392.513 -465.524 428.431C-453.561 466.616 -419.941 510.691 -365.597 559.434C-317.392 602.646 -254.594 647.716 -183.967 689.723C-117.647 729.169 -46.8189 764.278 15.4701 788.583C80.7851 814.068 133.782 826.852 168.73 825.554C207.864 824.794 243.018 817.227 276.214 802.421C306.098 789.092 333.678 770.169 360.529 744.573C410.437 697 450.548 632.726 490.631 565.509L490.633 565.504C530.302 499.717 544.504 428.09 527.696 378.576C522.236 362.485 513.672 349.344 502.394 339.544Z" fill="url(#paint9_linear_257_399)"/>
</g>
<mask id="mask5_257_399" style="mask-type:alpha" maskUnits="userSpaceOnUse" x="-418" y="126" width="896" height="647">
<path d="M-323.009 545.287C-323.125 545.187 -323.238 545.089 -323.354 544.987C-371.773 502.858 -401.907 464.674 -412.921 431.496C-423.117 400.781 -416.382 375.24 -392.903 355.584C-318.648 283.209 -236.252 227.028 -176.09 186.008C-157.251 173.164 -140.98 162.07 -127.282 152.104C-98.71 131.396 -51.879 122.768 1.202 128.43C55.046 134.173 110.078 154.28 152.187 183.595C190.001 211.918 238.083 240.438 295.118 268.382C338.023 289.401 385.206 309.507 424.571 323.543C447.583 331.793 464.055 349.72 472.207 375.391C486.464 420.282 473.79 483.981 439.131 541.629C405.728 598.064 369.303 656.779 323.784 699.924C299.849 722.611 275.247 739.464 248.571 751.446C219.003 764.727 187.751 771.68 153.027 772.705C90.2129 776.063 -36.406 729.677 -162.032 657.278C-224.385 621.343 -280.04 582.624 -323.009 545.287ZM447.086 338.61C440.424 332.821 432.721 328.325 424.074 325.223C384.659 311.17 337.418 291.04 294.463 269.996C237.34 242.01 189.174 213.437 151.303 185.072C109.423 155.916 54.648 135.906 1.04697 130.19C-51.674 124.566 -98.1251 133.091 -126.395 153.58C-140.112 163.56 -156.392 174.659 -175.242 187.512C-235.355 228.499 -317.682 284.632 -391.882 356.95C-414.781 376.123 -421.336 400.986 -411.409 430.889C-400.499 463.756 -370.537 501.677 -322.356 543.601C-322.243 543.698 -322.125 543.802 -322.012 543.899C-279.119 581.171 -223.556 619.824 -161.285 655.711C-35.892 727.976 90.3959 774.282 152.966 770.935C187.509 769.917 218.576 763.005 247.961 749.806C274.473 737.899 298.931 721.143 322.732 698.583C368.091 655.589 404.441 596.991 437.784 540.658L437.787 540.652C472.174 483.455 484.781 420.352 470.686 375.973C465.773 360.496 457.768 347.892 447.086 338.61Z" fill="url(#paint10_linear_257_399)"/>
</mask>
<g mask="url(#mask5_257_399)">
<path d="M-323.009 545.287C-323.125 545.187 -323.238 545.089 -323.354 544.987C-371.773 502.858 -401.907 464.674 -412.921 431.496C-423.117 400.781 -416.382 375.24 -392.903 355.584C-318.648 283.209 -236.252 227.028 -176.09 186.008C-157.251 173.164 -140.98 162.07 -127.282 152.104C-98.71 131.396 -51.879 122.768 1.202 128.43C55.046 134.173 110.078 154.28 152.187 183.595C190.001 211.918 238.083 240.438 295.118 268.382C338.023 289.401 385.206 309.507 424.571 323.543C447.583 331.793 464.055 349.72 472.207 375.391C486.464 420.282 473.79 483.981 439.131 541.629C405.728 598.064 369.303 656.779 323.784 699.924C299.849 722.611 275.247 739.464 248.571 751.446C219.003 764.727 187.751 771.68 153.027 772.705C90.2129 776.063 -36.406 729.677 -162.032 657.278C-224.385 621.343 -280.04 582.624 -323.009 545.287ZM447.086 338.61C440.424 332.821 432.721 328.325 424.074 325.223C384.659 311.17 337.418 291.04 294.463 269.996C237.34 242.01 189.174 213.437 151.303 185.072C109.423 155.916 54.648 135.906 1.04697 130.19C-51.674 124.566 -98.1251 133.091 -126.395 153.58C-140.112 163.56 -156.392 174.659 -175.242 187.512C-235.355 228.499 -317.682 284.632 -391.882 356.95C-414.781 376.123 -421.336 400.986 -411.409 430.889C-400.499 463.756 -370.537 501.677 -322.356 543.601C-322.243 543.698 -322.125 543.802 -322.012 543.899C-279.119 581.171 -223.556 619.824 -161.285 655.711C-35.892 727.976 90.3959 774.282 152.966 770.935C187.509 769.917 218.576 763.005 247.961 749.806C274.473 737.899 298.931 721.143 322.732 698.583C368.091 655.589 404.441 596.991 437.784 540.658L437.787 540.652C472.174 483.455 484.781 420.352 470.686 375.973C465.773 360.496 457.768 347.892 447.086 338.61Z" fill="url(#paint11_linear_257_399)"/>
</g>
<mask id="mask6_257_399" style="mask-type:alpha" maskUnits="userSpaceOnUse" x="-364" y="151" width="784" height="568">
<path d="M-288.568 521.92C-325.913 489.472 -349.523 459.929 -358.81 434.004C-367.639 409.359 -363.033 388.733 -345.117 372.691C-284.355 303.771 -200.05 242.823 -138.493 198.321C-128.834 191.338 -119.709 184.741 -111.566 178.747C-83.131 157.898 -41.258 148.407 6.34003 152.023C54.333 155.669 102.833 172.328 142.905 198.932C169.771 218.484 246.19 269.923 375.778 325.553C394.95 333.838 408.555 350.242 415.12 372.996C426.572 412.681 415.479 467.74 386.173 516.685C359.125 562.832 326.839 615.294 285.891 653.823C242.618 694.541 194.007 715.511 137.28 717.934C109.023 720.02 66.978 711.643 15.71 693.706C-33.121 676.621 -86.74 652.236 -139.348 623.186C-193.674 593.187 -242.354 560.658 -280.124 529.112C-283.012 526.701 -285.828 524.302 -288.568 521.92ZM391.738 337.41C386.846 333.159 381.33 329.689 375.24 327.057C354.51 318.158 312.747 299.586 265.987 275.194C216.901 249.591 175.225 224.392 142.117 200.296C102.266 173.839 54.001 157.262 6.237 153.633C-41.038 150.041 -82.585 159.437 -110.75 180.089C-118.897 186.086 -128.024 192.683 -137.686 199.67C-199.197 244.137 -283.44 305.04 -344.092 373.848L-344.156 373.913C-361.545 389.464 -366.015 409.483 -357.443 433.413C-347.713 460.571 -320.671 493.217 -279.234 527.826C-241.535 559.313 -192.935 591.788 -138.688 621.742C-86.147 650.755 -32.603 675.105 16.156 692.166C67.249 710.042 109.107 718.395 137.202 716.32C193.606 713.911 241.923 693.067 284.935 652.595C325.732 614.208 357.946 561.861 384.938 515.808L384.942 515.801C414.014 467.25 425.041 412.717 413.719 373.483C409.379 358.446 401.905 346.243 391.738 337.41Z" fill="url(#paint12_linear_257_399)"/>
</mask>
<g mask="url(#mask6_257_399)">
<path d="M-288.568 521.92C-325.913 489.472 -349.523 459.929 -358.81 434.004C-367.639 409.359 -363.033 388.733 -345.117 372.691C-284.355 303.771 -200.05 242.823 -138.493 198.321C-128.834 191.338 -119.709 184.741 -111.566 178.747C-83.131 157.898 -41.258 148.407 6.34003 152.023C54.333 155.669 102.833 172.328 142.905 198.932C169.771 218.484 246.19 269.923 375.778 325.553C394.95 333.838 408.555 350.242 415.12 372.996C426.572 412.681 415.479 467.74 386.173 516.685C359.125 562.832 326.839 615.294 285.891 653.823C242.618 694.541 194.007 715.511 137.28 717.934C109.023 720.02 66.978 711.643 15.71 693.706C-33.121 676.621 -86.74 652.236 -139.348 623.186C-193.674 593.187 -242.354 560.658 -280.124 529.112C-283.012 526.701 -285.828 524.302 -288.568 521.92ZM391.738 337.41C386.846 333.159 381.33 329.689 375.24 327.057C354.51 318.158 312.747 299.586 265.987 275.194C216.901 249.591 175.225 224.392 142.117 200.296C102.266 173.839 54.001 157.262 6.237 153.633C-41.038 150.041 -82.585 159.437 -110.75 180.089C-118.897 186.086 -128.024 192.683 -137.686 199.67C-199.197 244.137 -283.44 305.04 -344.092 373.848L-344.156 373.913C-361.545 389.464 -366.015 409.483 -357.443 433.413C-347.713 460.571 -320.671 493.217 -279.234 527.826C-241.535 559.313 -192.935 591.788 -138.688 621.742C-86.147 650.755 -32.603 675.105 16.156 692.166C67.249 710.042 109.107 718.395 137.202 716.32C193.606 713.911 241.923 693.067 284.935 652.595C325.732 614.208 357.946 561.861 384.938 515.808L384.942 515.801C414.014 467.25 425.041 412.717 413.719 373.483C409.379 358.446 401.905 346.243 391.738 337.41Z" fill="url(#paint13_linear_257_399)"/>
</g>
<mask id="mask7_257_399" style="mask-type:alpha" maskUnits="userSpaceOnUse" x="-310" y="175" width="672" height="489">
<path d="M-253.295 499.948C-279.811 476.908 -297.519 455.254 -304.929 436.668C-312.368 418.01 -309.808 402.241 -297.321 389.796C-250.885 320.847 -142.249 239.944 -95.8524 205.392C-37.8105 162.324 56.5516 165.977 133.619 214.273C192.726 255.666 268.351 296.163 313.534 320.359C318.332 322.928 322.833 325.338 326.987 327.573C342.377 335.913 353.13 350.869 358.087 370.818C366.645 405.255 357.111 451.595 333.209 491.749C309.387 532.944 282.574 575.508 247.997 607.722C211.097 642.1 169.73 660.235 121.533 663.163C72.7206 668.045 -20.8255 639.008 -116.765 589.187C-162.895 565.232 -204.488 539.015 -237.045 513.37C-242.778 508.854 -248.201 504.372 -253.295 499.948ZM336.337 335.771C333.29 333.123 329.974 330.821 326.401 328.884C322.249 326.65 317.75 324.241 312.952 321.672C267.743 297.462 192.076 256.942 132.932 215.523C56.3156 167.51 -37.4695 163.834 -95.1075 206.602C-141.461 241.121 -250.014 321.96 -296.292 390.722L-296.332 390.781L-296.381 390.83C-308.439 402.814 -310.906 418.038 -303.712 436.08C-294.974 457.996 -271.652 484.314 -236.271 512.181C-203.778 537.775 -162.257 563.947 -116.197 587.865C-20.4565 637.582 72.8195 666.567 121.436 661.705C228.473 655.202 284.191 573.791 332.089 490.96L332.094 490.951C355.797 451.135 365.266 405.248 356.805 371.2C353.104 356.31 346.113 344.266 336.337 335.771Z" fill="url(#paint14_linear_257_399)"/>
</mask>
<g mask="url(#mask7_257_399)">
<path d="M-253.295 499.948C-279.811 476.908 -297.519 455.254 -304.929 436.668C-312.368 418.01 -309.808 402.241 -297.321 389.796C-250.885 320.847 -142.249 239.944 -95.8524 205.392C-37.8105 162.324 56.5516 165.977 133.619 214.273C192.726 255.666 268.351 296.163 313.534 320.359C318.332 322.928 322.833 325.338 326.987 327.573C342.377 335.913 353.13 350.869 358.087 370.818C366.645 405.255 357.111 451.595 333.209 491.749C309.387 532.944 282.574 575.508 247.997 607.722C211.097 642.1 169.73 660.235 121.533 663.163C72.7206 668.045 -20.8255 639.008 -116.765 589.187C-162.895 565.232 -204.488 539.015 -237.045 513.37C-242.778 508.854 -248.201 504.372 -253.295 499.948ZM336.337 335.771C333.29 333.123 329.974 330.821 326.401 328.884C322.249 326.65 317.75 324.241 312.952 321.672C267.743 297.462 192.076 256.942 132.932 215.523C56.3156 167.51 -37.4695 163.834 -95.1075 206.602C-141.461 241.121 -250.014 321.96 -296.292 390.722L-296.332 390.781L-296.381 390.83C-308.439 402.814 -310.906 418.038 -303.712 436.08C-294.974 457.996 -271.652 484.314 -236.271 512.181C-203.778 537.775 -162.257 563.947 -116.197 587.865C-20.4565 637.582 72.8195 666.567 121.436 661.705C228.473 655.202 284.191 573.791 332.089 490.96L332.094 490.951C355.797 451.135 365.266 405.248 356.805 371.2C353.104 356.31 346.113 344.266 336.337 335.771Z" fill="url(#paint15_linear_257_399)"/>
</g>
<mask id="mask8_257_399" style="mask-type:alpha" maskUnits="userSpaceOnUse" x="-256" y="199" width="559" height="411">
<path d="M-218.105 479.149C-234.315 465.066 -245.785 451.652 -251.41 439.722C-257.468 426.874 -256.842 415.844 -249.55 406.939C-241.6 384.105 -218.176 353.735 -179.925 316.667C-152.061 289.664 -115.69 258.816 -80.1377 232.034C-23.0327 189.148 53.4054 188.243 124.334 229.611C148.226 245.459 173.44 261.473 197.825 276.96C229.361 296.989 259.148 315.906 278.206 329.603C294.205 341.191 302.96 362.263 302.868 388.922C302.781 414.19 294.537 442.577 280.246 466.806C248.384 522.998 226.023 546.993 210.102 561.618C179.593 589.643 145.472 604.942 105.787 608.388C63.7414 614.059 -12.9136 593.76 -94.2356 555.41C-146.185 530.914 -189.513 503.992 -218.105 479.149ZM280.875 333.336C279.806 332.406 278.699 331.528 277.554 330.696C258.525 317.021 228.752 298.112 197.231 278.093C172.841 262.603 147.622 246.586 123.749 230.748C53.2454 189.629 -22.7326 190.508 -79.4646 233.113C-114.978 259.866 -151.307 290.677 -179.137 317.647C-217.305 354.635 -240.634 384.872 -248.477 407.52L-248.517 407.635L-248.592 407.726C-255.587 416.2 -256.18 426.764 -250.353 439.121C-234.927 471.837 -174.927 515.936 -93.7666 554.21C-12.6256 592.474 63.7934 612.737 105.668 607.09C145.124 603.664 179.027 588.463 209.34 560.617C239.52 532.893 262.549 495.549 279.24 466.112L279.246 466.102C293.417 442.078 301.594 413.945 301.68 388.918C301.762 364.635 294.408 345.095 280.875 333.336Z" fill="url(#paint16_linear_257_399)"/>
</mask>
<g mask="url(#mask8_257_399)">
<path d="M-218.105 479.149C-234.315 465.066 -245.785 451.652 -251.41 439.722C-257.468 426.874 -256.842 415.844 -249.55 406.939C-241.6 384.105 -218.176 353.735 -179.925 316.667C-152.061 289.664 -115.69 258.816 -80.1377 232.034C-23.0327 189.148 53.4054 188.243 124.334 229.611C148.226 245.459 173.44 261.473 197.825 276.96C229.361 296.989 259.148 315.906 278.206 329.603C294.205 341.191 302.96 362.263 302.868 388.922C302.781 414.19 294.537 442.577 280.246 466.806C248.384 522.998 226.023 546.993 210.102 561.618C179.593 589.643 145.472 604.942 105.787 608.388C63.7414 614.059 -12.9136 593.76 -94.2356 555.41C-146.185 530.914 -189.513 503.992 -218.105 479.149ZM280.875 333.336C279.806 332.406 278.699 331.528 277.554 330.696C258.525 317.021 228.752 298.112 197.231 278.093C172.841 262.603 147.622 246.586 123.749 230.748C53.2454 189.629 -22.7326 190.508 -79.4646 233.113C-114.978 259.866 -151.307 290.677 -179.137 317.647C-217.305 354.635 -240.634 384.872 -248.477 407.52L-248.517 407.635L-248.592 407.726C-255.587 416.2 -256.18 426.764 -250.353 439.121C-234.927 471.837 -174.927 515.936 -93.7666 554.21C-12.6256 592.474 63.7934 612.737 105.668 607.09C145.124 603.664 179.027 588.463 209.34 560.617C239.52 532.893 262.549 495.549 279.24 466.112L279.246 466.102C293.417 442.078 301.594 413.945 301.68 388.918C301.762 364.635 294.408 345.095 280.875 333.336Z" fill="url(#paint17_linear_257_399)"/>
</g>
<mask id="mask9_257_399" style="mask-type:alpha" maskUnits="userSpaceOnUse" x="-204" y="222" width="449" height="334">
<path d="M-182.963 460.718C-189.666 454.893 -194.844 449.307 -198.243 444.113C-203.215 436.517 -204.41 429.825 -201.796 424.217C-206.54 403.391 -180.638 369.19 -158.027 344.123C-132.532 315.858 -97.5388 283.917 -64.4198 258.679C-35.8938 236.992 -7.71184 225.259 21.7362 222.811C51.8102 220.311 82.3342 227.554 115.052 244.954C162.643 274.037 207.533 308.067 229.434 331.665C240.056 343.216 245.43 361.361 244.568 382.759C243.762 402.777 237.463 424.322 227.285 441.869C201.366 489.039 162.343 544.367 90.0451 553.62C55.0371 560.049 -5.21085 548.363 -71.0918 522.356C-119.234 503.349 -160.015 480.655 -182.963 460.718ZM208.693 313.437C184.634 292.533 150.366 267.852 114.569 245.976C82.0491 228.682 51.7001 221.476 21.8161 223.96C-7.44188 226.393 -35.4539 238.06 -63.8219 259.626C-125.725 306.798 -209.127 389.026 -200.729 424.141L-200.677 424.359L-200.774 424.558C-203.307 429.787 -202.169 436.139 -197.391 443.44C-182.47 466.237 -132.756 496.786 -70.7348 521.268C-5.01485 547.212 55.0352 558.879 89.9002 552.476C161.775 543.277 200.597 488.211 226.391 441.266L226.398 441.254C236.482 423.87 242.723 402.531 243.521 382.706C244.369 361.638 239.105 343.803 228.699 332.485C223.321 326.692 216.551 320.265 208.693 313.437Z" fill="url(#paint18_linear_257_399)"/>
</mask>
<g mask="url(#mask9_257_399)">
<path d="M-182.963 460.718C-189.666 454.893 -194.844 449.307 -198.243 444.113C-203.215 436.517 -204.41 429.825 -201.796 424.217C-206.54 403.391 -180.638 369.19 -158.027 344.123C-132.532 315.858 -97.5388 283.917 -64.4198 258.679C-35.8938 236.992 -7.71184 225.259 21.7362 222.811C51.8102 220.311 82.3342 227.554 115.052 244.954C162.643 274.037 207.533 308.067 229.434 331.665C240.056 343.216 245.43 361.361 244.568 382.759C243.762 402.777 237.463 424.322 227.285 441.869C201.366 489.039 162.343 544.367 90.0451 553.62C55.0371 560.049 -5.21085 548.363 -71.0918 522.356C-119.234 503.349 -160.015 480.655 -182.963 460.718ZM208.693 313.437C184.634 292.533 150.366 267.852 114.569 245.976C82.0491 228.682 51.7001 221.476 21.8161 223.96C-7.44188 226.393 -35.4539 238.06 -63.8219 259.626C-125.725 306.798 -209.127 389.026 -200.729 424.141L-200.677 424.359L-200.774 424.558C-203.307 429.787 -202.169 436.139 -197.391 443.44C-182.47 466.237 -132.756 496.786 -70.7348 521.268C-5.01485 547.212 55.0352 558.879 89.9002 552.476C161.775 543.277 200.597 488.211 226.391 441.266L226.398 441.254C236.482 423.87 242.723 402.531 243.521 382.706C244.369 361.638 239.105 343.803 228.699 332.485C223.321 326.692 216.551 320.265 208.693 313.437Z" fill="url(#paint19_linear_257_399)"/>
</g>
<mask id="mask10_257_399" style="mask-type:alpha" maskUnits="userSpaceOnUse" x="-163" y="244" width="350" height="259">
<path d="M-148.044 448.665C-150.934 446.154 -152.897 443.79 -153.799 441.639C-159.175 438.214 -162.042 433.069 -162.324 426.352C-163.151 406.699 -142.081 377.78 -124.26 356.98C-103.055 332.231 -74.8091 305.442 -48.7041 285.321C-19.1571 262.577 4.14795 250.576 26.8629 246.411C51.0959 241.968 76.1679 246.379 105.768 260.295C138.494 277.684 167.88 306.519 180.657 333.769C192.037 358.292 186.374 395.305 174.325 416.926C150.625 462.645 116.975 490.207 74.3119 498.844C57.6989 503.109 36.083 503.833 10.089 500.993C-12.417 498.532 -37.5791 493.404 -62.6771 486.163C-101.969 474.824 -134.774 460.194 -148.044 448.665ZM-153.088 440.935L-153.028 441.087C-152.196 443.177 -150.297 445.481 -147.48 447.929C-118.275 473.311 9.79895 514.378 74.1259 497.866C116.537 489.28 149.977 461.88 173.539 416.424L173.546 416.409C185.466 395.025 191.083 358.435 179.847 334.225C167.156 307.159 137.931 278.494 105.391 261.205C75.977 247.377 51.0659 242.987 27.0129 247.397C4.4389 251.537 -18.7521 263.485 -48.1821 286.139C-74.2391 306.223 -102.433 332.962 -123.598 357.665C-141.299 378.324 -162.228 407.002 -161.416 426.306C-161.147 432.711 -158.387 437.608 -153.219 440.854L-153.088 440.935Z" fill="url(#paint20_linear_257_399)"/>
</mask>
<g mask="url(#mask10_257_399)">
<path d="M-148.044 448.665C-150.934 446.154 -152.897 443.79 -153.799 441.639C-159.175 438.214 -162.042 433.069 -162.324 426.352C-163.151 406.699 -142.081 377.78 -124.26 356.98C-103.055 332.231 -74.8091 305.442 -48.7041 285.321C-19.1571 262.577 4.14795 250.576 26.8629 246.411C51.0959 241.968 76.1679 246.379 105.768 260.295C138.494 277.684 167.88 306.519 180.657 333.769C192.037 358.292 186.374 395.305 174.325 416.926C150.625 462.645 116.975 490.207 74.3119 498.844C57.6989 503.109 36.083 503.833 10.089 500.993C-12.417 498.532 -37.5791 493.404 -62.6771 486.163C-101.969 474.824 -134.774 460.194 -148.044 448.665ZM-153.088 440.935L-153.028 441.087C-152.196 443.177 -150.297 445.481 -147.48 447.929C-118.275 473.311 9.79895 514.378 74.1259 497.866C116.537 489.28 149.977 461.88 173.539 416.424L173.546 416.409C185.466 395.025 191.083 358.435 179.847 334.225C167.156 307.159 137.931 278.494 105.391 261.205C75.977 247.377 51.0659 242.987 27.0129 247.397C4.4389 251.537 -18.7521 263.485 -48.1821 286.139C-74.2391 306.223 -102.433 332.962 -123.598 357.665C-141.299 378.324 -162.228 407.002 -161.416 426.306C-161.147 432.711 -158.387 437.608 -153.219 440.854L-153.088 440.935Z" fill="url(#paint21_linear_257_399)"/>
</g>
<mask id="mask11_257_399" style="mask-type:alpha" maskUnits="userSpaceOnUse" x="-129" y="266" width="261" height="196">
<path d="M-122.456 452.315C-125.349 449.801 -127.258 446.606 -128.166 442.74C-130.442 433.046 -127.427 414.13 -100.139 379.07C-81.8471 355.568 -56.7432 330.481 -32.9862 311.961C-4.91017 290.075 13.4728 276.331 31.9868 270.018C51.1398 263.488 69.8269 265.117 96.4859 275.638C111.181 281.436 121.446 292.029 126.999 307.116C139.004 339.741 125.388 383.002 121.375 391.963C113.877 408.7 100.28 422.738 80.9588 433.689C64.3288 443.113 43.4258 450.294 18.8318 455.031C-25.6242 463.593 -74.6421 462.543 -105.693 458.707C-113.001 457.804 -118.602 455.664 -122.456 452.315ZM111.618 285.649C107.212 281.82 102.076 278.743 96.2268 276.435C69.7388 265.982 51.1938 264.356 32.2159 270.827C13.8109 277.102 -4.52613 290.814 -32.5401 312.653C-75.8541 346.418 -134.565 412.097 -127.42 442.53C-125.392 451.168 -118.053 456.329 -105.605 457.867C-74.6081 461.697 -25.6751 462.744 18.6999 454.198C43.2179 449.476 64.0458 442.323 80.6068 432.937C99.7768 422.072 113.261 408.162 120.684 391.59C124.668 382.698 138.185 339.771 126.286 307.434C123.028 298.58 118.118 291.296 111.618 285.649Z" fill="url(#paint22_linear_257_399)"/>
</mask>
<g mask="url(#mask11_257_399)">
<path d="M-122.456 452.315C-125.349 449.801 -127.258 446.606 -128.166 442.74C-130.442 433.046 -127.427 414.13 -100.139 379.07C-81.8471 355.568 -56.7432 330.481 -32.9862 311.961C-4.91017 290.075 13.4728 276.331 31.9868 270.018C51.1398 263.488 69.8269 265.117 96.4859 275.638C111.181 281.436 121.446 292.029 126.999 307.116C139.004 339.741 125.388 383.002 121.375 391.963C113.877 408.7 100.28 422.738 80.9588 433.689C64.3288 443.113 43.4258 450.294 18.8318 455.031C-25.6242 463.593 -74.6421 462.543 -105.693 458.707C-113.001 457.804 -118.602 455.664 -122.456 452.315ZM111.618 285.649C107.212 281.82 102.076 278.743 96.2268 276.435C69.7388 265.982 51.1938 264.356 32.2159 270.827C13.8109 277.102 -4.52613 290.814 -32.5401 312.653C-75.8541 346.418 -134.565 412.097 -127.42 442.53C-125.392 451.168 -118.053 456.329 -105.605 457.867C-74.6081 461.697 -25.6751 462.744 18.6999 454.198C43.2179 449.476 64.0458 442.323 80.6068 432.937C99.7768 422.072 113.261 408.162 120.684 391.59C124.668 382.698 138.185 339.771 126.286 307.434C123.028 298.58 118.118 291.296 111.618 285.649Z" fill="url(#paint23_linear_257_399)"/>
</g>
<defs>
<linearGradient id="paint0_linear_257_399" x1="39.5701" y1="0.433264" x2="39.5701" y2="1046.56" gradientUnits="userSpaceOnUse">
<stop stop-color="white"/>
<stop offset="0.0436" stop-color="#B4B4B4"/>
<stop offset="0.1507"/>
<stop offset="0.1714" stop-color="#171717"/>
<stop offset="0.3859" stop-color="white"/>
<stop offset="0.6326" stop-color="#E6E6E6"/>
<stop offset="0.8567" stop-color="#1A1A1A"/>
<stop offset="0.9987"/>
</linearGradient>
<linearGradient id="paint1_linear_257_399" x1="39.5703" y1="0.433105" x2="39.5703" y2="1046.56" gradientUnits="userSpaceOnUse">
<stop stop-color="#0522AC"/>
<stop offset="1" stop-color="#34384C" stop-opacity="0"/>
</linearGradient>
<linearGradient id="paint2_linear_257_399" x1="37.7524" y1="26.0912" x2="37.7524" y2="991.788" gradientUnits="userSpaceOnUse">
<stop stop-color="white"/>
<stop offset="0.0436" stop-color="#B4B4B4"/>
<stop offset="0.1507"/>
<stop offset="0.1714" stop-color="#171717"/>
<stop offset="0.3859" stop-color="white"/>
<stop offset="0.6326" stop-color="#E6E6E6"/>
<stop offset="0.8567" stop-color="#1A1A1A"/>
<stop offset="0.9987"/>
</linearGradient>
<linearGradient id="paint3_linear_257_399" x1="37.7534" y1="26.0928" x2="37.7534" y2="991.788" gradientUnits="userSpaceOnUse">
<stop stop-color="#0522AC"/>
<stop offset="1" stop-color="#34384C" stop-opacity="0"/>
</linearGradient>
<linearGradient id="paint4_linear_257_399" x1="35.9164" y1="51.4435" x2="35.9164" y2="937.029" gradientUnits="userSpaceOnUse">
<stop stop-color="white"/>
<stop offset="0.0436" stop-color="#B4B4B4"/>
<stop offset="0.1507"/>
<stop offset="0.1714" stop-color="#171717"/>
<stop offset="0.3859" stop-color="white"/>
<stop offset="0.6326" stop-color="#E6E6E6"/>
<stop offset="0.8567" stop-color="#1A1A1A"/>
<stop offset="0.9987"/>
</linearGradient>
<linearGradient id="paint5_linear_257_399" x1="35.9167" y1="51.4443" x2="35.9167" y2="937.03" gradientUnits="userSpaceOnUse">
<stop stop-color="#0522AC"/>
<stop offset="1" stop-color="#34384C" stop-opacity="0"/>
</linearGradient>
<linearGradient id="paint6_linear_257_399" x1="34.0559" y1="76.7942" x2="34.0559" y2="882.286" gradientUnits="userSpaceOnUse">
<stop stop-color="white"/>
<stop offset="0.0436" stop-color="#B4B4B4"/>
<stop offset="0.1507"/>
<stop offset="0.1714" stop-color="#171717"/>
<stop offset="0.3859" stop-color="white"/>
<stop offset="0.6326" stop-color="#E6E6E6"/>
<stop offset="0.8567" stop-color="#1A1A1A"/>
<stop offset="0.9987"/>
</linearGradient>
<linearGradient id="paint7_linear_257_399" x1="34.0562" y1="76.7935" x2="34.0562" y2="882.285" gradientUnits="userSpaceOnUse">
<stop stop-color="#0522AC"/>
<stop offset="1" stop-color="#34384C" stop-opacity="0"/>
</linearGradient>
<linearGradient id="paint8_linear_257_399" x1="32.1599" y1="101.833" x2="32.1599" y2="827.566" gradientUnits="userSpaceOnUse">
<stop stop-color="white"/>
<stop offset="0.0436" stop-color="#B4B4B4"/>
<stop offset="0.1507"/>
<stop offset="0.1714" stop-color="#171717"/>
<stop offset="0.3859" stop-color="white"/>
<stop offset="0.6326" stop-color="#E6E6E6"/>
<stop offset="0.8567" stop-color="#1A1A1A"/>
<stop offset="0.9987"/>
</linearGradient>
<linearGradient id="paint9_linear_257_399" x1="32.1605" y1="101.832" x2="32.1605" y2="827.566" gradientUnits="userSpaceOnUse">
<stop stop-color="#0522AC"/>
<stop offset="1" stop-color="#34384C" stop-opacity="0"/>
</linearGradient>
<linearGradient id="paint10_linear_257_399" x1="30.216" y1="126.73" x2="30.216" y2="772.875" gradientUnits="userSpaceOnUse">
<stop stop-color="white"/>
<stop offset="0.0436" stop-color="#B4B4B4"/>
<stop offset="0.1507"/>
<stop offset="0.1714" stop-color="#171717"/>
<stop offset="0.3859" stop-color="white"/>
<stop offset="0.6326" stop-color="#E6E6E6"/>
<stop offset="0.8567" stop-color="#1A1A1A"/>
<stop offset="0.9987"/>
</linearGradient>
<linearGradient id="paint11_linear_257_399" x1="30.2158" y1="126.73" x2="30.2158" y2="772.876" gradientUnits="userSpaceOnUse">
<stop stop-color="#0522AC"/>
<stop offset="1" stop-color="#34384C" stop-opacity="0"/>
</linearGradient>
<linearGradient id="paint12_linear_257_399" x1="28.1943" y1="151.27" x2="28.1943" y2="718.247" gradientUnits="userSpaceOnUse">
<stop stop-color="white"/>
<stop offset="0.0436" stop-color="#B4B4B4"/>
<stop offset="0.1507"/>
<stop offset="0.1714" stop-color="#171717"/>
<stop offset="0.3859" stop-color="white"/>
<stop offset="0.6326" stop-color="#E6E6E6"/>
<stop offset="0.8567" stop-color="#1A1A1A"/>
<stop offset="0.9987"/>
</linearGradient>
<linearGradient id="paint13_linear_257_399" x1="28.1953" y1="151.27" x2="28.1953" y2="718.247" gradientUnits="userSpaceOnUse">
<stop stop-color="#0522AC"/>
<stop offset="1" stop-color="#34384C" stop-opacity="0"/>
</linearGradient>
<linearGradient id="paint14_linear_257_399" x1="26.0444" y1="175.409" x2="26.0444" y2="663.694" gradientUnits="userSpaceOnUse">
<stop stop-color="white"/>
<stop offset="0.0436" stop-color="#B4B4B4"/>
<stop offset="0.1507"/>
<stop offset="0.1714" stop-color="#171717"/>
<stop offset="0.3859" stop-color="white"/>
<stop offset="0.6326" stop-color="#E6E6E6"/>
<stop offset="0.8567" stop-color="#1A1A1A"/>
<stop offset="0.9987"/>
</linearGradient>
<linearGradient id="paint15_linear_257_399" x1="26.0449" y1="175.41" x2="26.0449" y2="663.695" gradientUnits="userSpaceOnUse">
<stop stop-color="#0522AC"/>
<stop offset="1" stop-color="#34384C" stop-opacity="0"/>
</linearGradient>
<linearGradient id="paint16_linear_257_399" x1="23.6702" y1="199.216" x2="23.6702" y2="609.33" gradientUnits="userSpaceOnUse">
<stop stop-color="white"/>
<stop offset="0.0436" stop-color="#B4B4B4"/>
<stop offset="0.1507"/>
<stop offset="0.1714" stop-color="#171717"/>
<stop offset="0.3859" stop-color="white"/>
<stop offset="0.6326" stop-color="#E6E6E6"/>
<stop offset="0.8567" stop-color="#1A1A1A"/>
<stop offset="0.9987"/>
</linearGradient>
<linearGradient id="paint17_linear_257_399" x1="23.6699" y1="199.215" x2="23.6699" y2="609.327" gradientUnits="userSpaceOnUse">
<stop stop-color="#0522AC"/>
<stop offset="1" stop-color="#34384C" stop-opacity="0"/>
</linearGradient>
<linearGradient id="paint18_linear_257_399" x1="20.7581" y1="222.329" x2="20.7581" y2="555.351" gradientUnits="userSpaceOnUse">
<stop stop-color="white"/>
<stop offset="0.0436" stop-color="#B4B4B4"/>
<stop offset="0.1507"/>
<stop offset="0.1714" stop-color="#171717"/>
<stop offset="0.3859" stop-color="white"/>
<stop offset="0.6326" stop-color="#E6E6E6"/>
<stop offset="0.8567" stop-color="#1A1A1A"/>
<stop offset="0.9987"/>
</linearGradient>
<linearGradient id="paint19_linear_257_399" x1="20.7576" y1="222.331" x2="20.7576" y2="555.353" gradientUnits="userSpaceOnUse">
<stop stop-color="#0522AC"/>
<stop offset="1" stop-color="#34384C" stop-opacity="0"/>
</linearGradient>
<linearGradient id="paint20_linear_257_399" x1="12.2419" y1="244.748" x2="12.2419" y2="502.691" gradientUnits="userSpaceOnUse">
<stop stop-color="white"/>
<stop offset="0.0436" stop-color="#B4B4B4"/>
<stop offset="0.1507"/>
<stop offset="0.1714" stop-color="#171717"/>
<stop offset="0.3859" stop-color="white"/>
<stop offset="0.6326" stop-color="#E6E6E6"/>
<stop offset="0.8567" stop-color="#1A1A1A"/>
<stop offset="0.9987"/>
</linearGradient>
<linearGradient id="paint21_linear_257_399" x1="12.2422" y1="244.749" x2="12.2422" y2="502.692" gradientUnits="userSpaceOnUse">
<stop stop-color="#0522AC"/>
<stop offset="1" stop-color="#34384C" stop-opacity="0"/>
</linearGradient>
<linearGradient id="paint22_linear_257_399" x1="1.53206" y1="266.144" x2="1.53206" y2="461.571" gradientUnits="userSpaceOnUse">
<stop stop-color="white"/>
<stop offset="0.0436" stop-color="#B4B4B4"/>
<stop offset="0.1507"/>
<stop offset="0.1714" stop-color="#171717"/>
<stop offset="0.3859" stop-color="white"/>
<stop offset="0.6326" stop-color="#E6E6E6"/>
<stop offset="0.8567" stop-color="#1A1A1A"/>
<stop offset="0.9987"/>
</linearGradient>
<linearGradient id="paint23_linear_257_399" x1="1.53165" y1="266.144" x2="1.53165" y2="461.571" gradientUnits="userSpaceOnUse">
<stop stop-color="#0522AC"/>
<stop offset="1" stop-color="#34384C" stop-opacity="0"/>
</linearGradient>
</defs>
</svg>
