<svg width="20" height="21" viewBox="0 0 20 21" fill="none" xmlns="http://www.w3.org/2000/svg">
<path d="M14.5078 10.6179C14.4026 10.4229 14.2025 10.3013 13.985 10.3013H10.5971V3.61191C10.5971 3.27414 10.3293 3 9.99937 3C9.66943 3 9.40165 3.27414 9.40165 3.61191V10.3013H6.01378C5.79541 10.3013 5.59537 10.4229 5.49097 10.6179C5.38498 10.8129 5.39215 11.0511 5.50771 11.2396L9.4933 17.7144C9.60328 17.8923 9.79376 18 9.99937 18C10.205 18 10.3955 17.8923 10.5054 17.7144L14.491 11.2396C14.5516 11.1401 14.5827 11.0267 14.5827 10.9132C14.5827 10.8121 14.5572 10.7101 14.5078 10.6179Z" fill="#FA2256"/>
</svg>
