<svg width="32" height="32" viewBox="0 0 32 32" fill="none" xmlns="http://www.w3.org/2000/svg">
<g clip-path="url(#clip0_288_13117)">
<ellipse cx="16" cy="16.0001" rx="16" ry="16.0001" fill="#F3BA2F"/>
<path d="M11.8569 14.298L16 10.1548L20.1451 14.2998L22.5557 11.8891L16 5.3335L9.44641 11.8871L11.857 14.2978L11.8569 14.298ZM5.33334 16.0002L7.7441 13.5891L10.1547 15.9997L7.74392 18.4105L5.33334 16.0002ZM11.8569 17.7027L16 21.8456L20.145 17.7007L22.5569 20.1101L22.5557 20.1114L16 26.6669L9.44641 20.1133L9.443 20.1099L11.8572 17.7024L11.8569 17.7027ZM21.8453 16.0012L24.2561 13.5905L26.6667 16.0011L24.256 18.4118L21.8453 16.0012Z" fill="white"/>
<path d="M18.4449 15.999H18.446L16 13.5527L14.192 15.3602L13.9843 15.568L13.5559 15.9965L13.5525 15.9998L13.5559 16.0033L16 18.4478L18.4461 16.0015L18.4473 16.0002L18.4451 15.999" fill="white"/>
</g>
<defs>
<clipPath id="clip0_288_13117">
<rect width="32" height="32" fill="white"/>
</clipPath>
</defs>
</svg>
