<svg width="50" height="44" viewBox="0 0 50 44" fill="none" xmlns="http://www.w3.org/2000/svg">
<g filter="url(#filter0_f_2070_12688)">
<path d="M34.1668 5.5H15.8335C12.7168 5.5 10.3335 7.88333 10.3335 11V12.4667C10.3335 13.9333 10.1502 15.2167 9.60016 16.6833C9.05016 18.7 7.0335 20.1667 4.8335 20.1667V23.8333C7.0335 23.8333 9.05016 25.3 9.60016 27.3167C10.1502 28.6 10.3335 30.0667 10.3335 31.5333V33C10.3335 36.1167 12.7168 38.5 15.8335 38.5H34.1668C37.2835 38.5 39.6668 36.1167 39.6668 33V31.5333C39.6668 30.0667 39.8502 28.7833 40.4002 27.3167C41.1335 25.3 42.9668 23.8333 45.1668 23.8333V20.1667C42.9668 20.1667 40.9502 18.7 40.4002 16.6833C39.8502 15.4 39.6668 13.9333 39.6668 12.4667V11C39.6668 7.88333 37.2835 5.5 34.1668 5.5Z" stroke="#BD47FB" stroke-width="1.5" stroke-miterlimit="10" stroke-linejoin="round"/>
<path d="M20.9668 21.9998H26.2835C28.4835 21.9998 30.1335 23.6498 30.1335 25.8498C30.1335 28.0498 28.4835 29.6998 26.2835 29.6998H20.9668V14.2998H26.2835C28.4835 14.2998 30.1335 15.9498 30.1335 18.1498C30.1335 20.3498 28.4835 21.9998 26.2835 21.9998H20.9668Z" stroke="#BD47FB" stroke-width="1.5" stroke-miterlimit="10" stroke-linecap="round" stroke-linejoin="round"/>
</g>
<path d="M34.1668 5.5H15.8335C12.7168 5.5 10.3335 7.88333 10.3335 11V12.4667C10.3335 13.9333 10.1502 15.2167 9.60016 16.6833C9.05016 18.7 7.0335 20.1667 4.8335 20.1667V23.8333C7.0335 23.8333 9.05016 25.3 9.60016 27.3167C10.1502 28.6 10.3335 30.0667 10.3335 31.5333V33C10.3335 36.1167 12.7168 38.5 15.8335 38.5H34.1668C37.2835 38.5 39.6668 36.1167 39.6668 33V31.5333C39.6668 30.0667 39.8502 28.7833 40.4002 27.3167C41.1335 25.3 42.9668 23.8333 45.1668 23.8333V20.1667C42.9668 20.1667 40.9502 18.7 40.4002 16.6833C39.8502 15.4 39.6668 13.9333 39.6668 12.4667V11C39.6668 7.88333 37.2835 5.5 34.1668 5.5Z" stroke="#BD47FB" stroke-width="1.5" stroke-miterlimit="10" stroke-linejoin="round"/>
<path d="M20.9668 21.9998H26.2835C28.4835 21.9998 30.1335 23.6498 30.1335 25.8498C30.1335 28.0498 28.4835 29.6998 26.2835 29.6998H20.9668V14.2998H26.2835C28.4835 14.2998 30.1335 15.9498 30.1335 18.1498C30.1335 20.3498 28.4835 21.9998 26.2835 21.9998H20.9668Z" stroke="#BD47FB" stroke-width="1.5" stroke-miterlimit="10" stroke-linecap="round" stroke-linejoin="round"/>
<defs>
<filter id="filter0_f_2070_12688" x="-1" y="-4" width="52" height="52" filterUnits="userSpaceOnUse" color-interpolation-filters="sRGB">
<feFlood flood-opacity="0" result="BackgroundImageFix"/>
<feBlend mode="normal" in="SourceGraphic" in2="BackgroundImageFix" result="shape"/>
<feGaussianBlur stdDeviation="2" result="effect1_foregroundBlur_2070_12688"/>
</filter>
</defs>
</svg>
