<svg width="28" height="28" viewBox="0 0 28 28" fill="none" xmlns="http://www.w3.org/2000/svg">
<g clip-path="url(#clip0_1167_4243)">
<path d="M14 28C21.732 28 28 21.732 28 14C28 6.26801 21.732 0 14 0C6.26801 0 0 6.26801 0 14C0 21.732 6.26801 28 14 28Z" fill="#102044"/>
<path d="M21.217 16.9313C21.6108 17.0826 21.8715 17.4571 21.875 17.8763C21.8752 18.0519 21.8294 18.2245 21.7422 18.3769C21.655 18.5293 21.5295 18.6563 21.378 18.7451C21.226 18.8345 21.0535 18.883 20.8772 18.8861C20.7009 18.8891 20.5268 18.8466 20.3718 18.7626L15.0955 21.6414C15.1086 21.7805 15.0927 21.9209 15.0489 22.0536C15.0052 22.1863 14.9344 22.3086 14.8412 22.4127C14.7479 22.5168 14.6342 22.6005 14.507 22.6585C14.3799 22.7166 14.2421 22.7477 14.1024 22.75C13.8333 22.7566 13.5727 22.656 13.3777 22.4704C13.1828 22.2849 13.0695 22.0295 13.0629 21.7604L10.4904 20.2878H10.4318V20.2571L7.72102 18.7075C7.55175 18.8242 7.35089 18.8865 7.14527 18.886C6.90048 18.8873 6.66347 18.8001 6.47791 18.6404C6.29236 18.4807 6.17076 18.2594 6.13552 18.0171C6.1017 17.775 6.15684 17.5289 6.29072 17.3244C6.4246 17.1199 6.62812 16.9709 6.86352 16.905V11.116C6.66546 11.0604 6.48904 10.9458 6.35773 10.7875C6.22643 10.6291 6.14647 10.4346 6.12852 10.2296C6.09352 9.81138 6.3219 9.41501 6.70427 9.23388C6.8908 9.14531 7.09975 9.1152 7.30369 9.14753C7.50763 9.17985 7.69703 9.27309 7.84702 9.41501L13.0708 6.42251C13.048 6.27738 13.057 6.12903 13.0971 5.9877C13.1372 5.84638 13.2076 5.71546 13.3032 5.60397C13.3989 5.49249 13.5177 5.4031 13.6512 5.34199C13.7848 5.28088 13.9301 5.24949 14.077 5.25001C14.2282 5.24976 14.3775 5.28329 14.5141 5.34814C14.6506 5.41299 14.771 5.50753 14.8663 5.62485C14.9617 5.74217 15.0296 5.8793 15.0652 6.02624C15.1008 6.17317 15.103 6.3262 15.0719 6.47413L20.1714 9.39488C20.3578 9.22688 20.6001 9.13413 20.853 9.13501C20.9909 9.08348 21.1385 9.06275 21.2852 9.07429C21.432 9.08583 21.5745 9.12936 21.7026 9.20181C21.8308 9.27426 21.9415 9.37388 22.0271 9.49368C22.1127 9.61348 22.171 9.75056 22.198 9.8953C22.2249 10.04 22.2199 10.1889 22.1832 10.3315C22.1465 10.4741 22.079 10.6069 21.9856 10.7206C21.8921 10.8344 21.7749 10.9263 21.6421 10.9899C21.5093 11.0535 21.3642 11.0873 21.217 11.0889V16.9321V16.9313ZM17.6138 14.6519V19.6245L19.9518 18.3496C19.8789 18.2102 19.8394 18.0557 19.8365 17.8984C19.8336 17.7411 19.8673 17.5853 19.9349 17.4432C20.0025 17.3012 20.1023 17.1768 20.2262 17.0799C20.3502 16.983 20.495 16.9162 20.6491 16.8849V11.1361C20.4193 11.0907 20.2123 10.9671 20.0632 10.7864C19.914 10.6058 19.832 10.379 19.831 10.1448C19.831 10.052 19.8441 9.95926 19.8695 9.86913L17.6531 8.59863V13.2221H17.6496L17.6409 13.5249L17.5158 13.5835L16.7169 14.0613L17.4808 14.5163L17.6024 14.574L17.6059 14.6283L17.6103 14.6519H17.6138ZM14.0788 7.27038C13.7883 7.27038 13.5118 7.14788 13.3184 6.93176L10.9996 8.26088V13.1714L11.9516 13.7384L13.1539 13.0314C13.1291 12.9013 13.1334 12.7674 13.1665 12.6392C13.1996 12.511 13.2606 12.3917 13.3453 12.2899C13.4299 12.1881 13.5361 12.1063 13.6561 12.0504C13.7761 11.9945 13.907 11.9658 14.0394 11.9665C14.1686 11.9662 14.2963 11.9938 14.4139 12.0475C14.5314 12.1011 14.6359 12.1795 14.7204 12.2773C14.8048 12.3751 14.8671 12.49 14.903 12.6141C14.9389 12.7382 14.9476 12.8686 14.9284 12.9964L16.17 13.7349L17.0905 13.1836V8.27576L14.8033 6.96588C14.7088 7.06221 14.5961 7.13869 14.4717 7.19083C14.3473 7.24297 14.2137 7.26972 14.0788 7.26951V7.27038ZM14.6738 14.6396L15.6214 14.0691L14.6694 13.5013C14.504 13.6619 14.2836 13.7535 14.053 13.7572C13.8225 13.761 13.5992 13.6766 13.4286 13.5214L12.4924 14.0648L13.4243 14.6204C13.5951 14.4625 13.8202 14.3764 14.0529 14.38C14.2855 14.3835 14.5078 14.4765 14.6738 14.6396ZM8.08677 18.2683L10.4318 19.6123V14.8068L10.4361 14.6519L10.4755 14.6125L10.6715 14.4961L11.3995 14.0691L10.7415 13.6806L10.4361 13.5249V13.3385H10.4326V8.58288L8.13315 9.90063C8.26877 10.4256 7.95815 10.9629 7.43315 11.1125V16.9085C7.71052 16.989 7.94065 17.1841 8.06577 17.4431C8.1909 17.703 8.19877 18.0031 8.08677 18.2683ZM14.0788 20.7121C14.3981 20.7121 14.6983 20.8609 14.889 21.1164L17.0503 19.9351V14.9161L16.17 14.3911L14.9275 15.1375C14.9363 15.1813 14.9398 15.225 14.9398 15.2688C14.9398 15.7631 14.5373 16.163 14.0385 16.163C13.9075 16.1631 13.7781 16.1345 13.6593 16.0791C13.5406 16.0238 13.4354 15.9432 13.3511 15.8428C13.2669 15.7425 13.2057 15.6249 13.1717 15.4984C13.1378 15.3718 13.132 15.2394 13.1548 15.1104L11.9359 14.3876L10.9961 14.9354V19.9351L13.2055 21.2013C13.3893 20.8968 13.7209 20.7113 14.0788 20.7121Z" fill="white"/>
</g>
<defs>
<clipPath id="clip0_1167_4243">
<rect width="28" height="28" fill="white"/>
</clipPath>
</defs>
</svg>
