<svg width="44" height="44" viewBox="0 0 44 44" fill="none" xmlns="http://www.w3.org/2000/svg">
<g clip-path="url(#clip0_1123_2010)">
<ellipse cx="22" cy="22.0001" rx="22" ry="22.0001" fill="#F3BA2F"/>
<path d="M16.3039 19.6596L22.0006 13.9629L27.7001 19.6621L31.0148 16.3474L22.0006 7.3335L12.9895 16.3447L16.304 19.6594L16.3039 19.6596ZM7.33398 22.0002L10.6488 18.685L13.9633 21.9995L10.6485 25.3143L7.33398 22.0002ZM16.3039 24.3411L22.0006 30.0376L27.7 24.3384L31.0164 27.6514L31.0148 27.6531L22.0006 36.6669L12.9895 27.6557L12.9848 27.651L16.3042 24.3408L16.3039 24.3411ZM30.038 22.0016L33.3528 18.6868L36.6673 22.0014L33.3526 25.3162L30.038 22.0016Z" fill="white"/>
<path d="M25.3618 21.9983H25.3632L22 18.6348L19.5141 21.1201L19.2285 21.4058L18.6395 21.9949L18.6348 21.9995L18.6395 22.0043L22 25.3654L25.3635 22.0019L25.3651 22L25.3621 21.9983" fill="white"/>
</g>
<defs>
<clipPath id="clip0_1123_2010">
<rect width="44" height="44" fill="white"/>
</clipPath>
</defs>
</svg>
