<svg width="44" height="44" viewBox="0 0 44 44" fill="none" xmlns="http://www.w3.org/2000/svg">
<g clip-path="url(#clip0_1123_2089)">
<path d="M22 44C34.1503 44 44 34.1503 44 22C44 9.84974 34.1503 0 22 0C9.84974 0 0 9.84974 0 22C0 34.1503 9.84974 44 22 44Z" fill="#767DFF"/>
<path fill-rule="evenodd" clip-rule="evenodd" d="M18.934 8.9375H25.0665C25.279 8.93739 25.4877 8.9939 25.6711 9.1012C25.8546 9.20849 26.0061 9.36272 26.1101 9.548L35.6059 26.4866C35.7058 26.6652 35.7583 26.8664 35.7583 27.071C35.7583 27.2756 35.7058 27.4768 35.6059 27.6554L32.5671 33.0756C32.4634 33.261 32.3121 33.4153 32.129 33.5229C31.9458 33.6304 31.7373 33.6872 31.5249 33.6875H12.4756C12.263 33.6875 12.0542 33.6308 11.8708 33.5232C11.6873 33.4157 11.5359 33.2612 11.432 33.0756L8.39464 27.6554C8.29468 27.4768 8.24219 27.2756 8.24219 27.071C8.24219 26.8664 8.29468 26.6652 8.39464 26.4866L17.8904 9.548C17.9944 9.36272 18.146 9.20849 18.3294 9.1012C18.5128 8.9939 18.7215 8.93739 18.934 8.9375ZM22.0003 15.6764L15.6024 27.071H28.3981L22.0003 15.6764Z" fill="white"/>
</g>
<defs>
<clipPath id="clip0_1123_2089">
<rect width="44" height="44" fill="white"/>
</clipPath>
</defs>
</svg>
