<svg width="91" height="19" viewBox="0 0 91 19" fill="none" xmlns="http://www.w3.org/2000/svg">
<path d="M7.006 14.842C5.818 14.842 4.798 14.638 3.946 14.23C3.094 13.81 2.398 13.264 1.858 12.592C1.318 11.908 0.916 11.176 0.652 10.396C0.4 9.604 0.274 8.836 0.274 8.092V7.696C0.274 6.88 0.406 6.076 0.67 5.284C0.934 4.48 1.336 3.754 1.876 3.106C2.428 2.458 3.118 1.942 3.946 1.558C4.786 1.162 5.776 0.963999 6.916 0.963999C8.104 0.963999 9.154 1.186 10.066 1.63C10.978 2.074 11.704 2.692 12.244 3.484C12.796 4.264 13.12 5.182 13.216 6.238H10.246C10.162 5.71 9.97 5.26 9.67 4.888C9.37 4.516 8.98 4.228 8.5 4.024C8.032 3.82 7.504 3.718 6.916 3.718C6.328 3.718 5.806 3.82 5.35 4.024C4.894 4.228 4.51 4.516 4.198 4.888C3.898 5.26 3.664 5.704 3.496 6.22C3.34 6.724 3.262 7.288 3.262 7.912C3.262 8.524 3.34 9.088 3.496 9.604C3.664 10.108 3.904 10.552 4.216 10.936C4.54 11.308 4.936 11.596 5.404 11.8C5.872 11.992 6.406 12.088 7.006 12.088C7.918 12.088 8.686 11.866 9.31 11.422C9.946 10.978 10.33 10.366 10.462 9.586H13.414C13.306 10.546 12.982 11.428 12.442 12.232C11.914 13.024 11.188 13.66 10.264 14.14C9.352 14.608 8.266 14.842 7.006 14.842ZM15.2105 14.5V4.636H17.4965V8.866H17.4425C17.4425 7.474 17.7365 6.4 18.3245 5.644C18.9245 4.888 19.7885 4.51 20.9165 4.51H21.2945V6.994H20.5745C19.7825 6.994 19.1705 7.21 18.7385 7.642C18.3065 8.062 18.0905 8.674 18.0905 9.478V14.5H15.2105ZM22.9775 18.406V15.958H25.0295C25.3415 15.958 25.6055 15.916 25.8215 15.832C26.0375 15.76 26.2115 15.634 26.3435 15.454C26.4755 15.274 26.5835 15.028 26.6675 14.716L29.0975 4.636H31.8335L29.0795 15.292C28.8875 16.06 28.6175 16.672 28.2695 17.128C27.9335 17.584 27.4775 17.908 26.9015 18.1C26.3375 18.304 25.6175 18.406 24.7415 18.406H22.9775ZM26.0735 14.284V12.034H28.1615V14.284H26.0735ZM24.8855 14.284L21.8615 4.636H24.7595L27.6215 14.284H24.8855ZM33.3511 18.1V4.636H35.6371V8.902L35.3311 8.884C35.3791 7.9 35.5831 7.072 35.9431 6.4C36.3031 5.716 36.7891 5.206 37.4011 4.87C38.0131 4.522 38.7031 4.348 39.4711 4.348C40.1551 4.348 40.7731 4.474 41.3251 4.726C41.8891 4.978 42.3691 5.332 42.7651 5.788C43.1731 6.232 43.4791 6.76 43.6831 7.372C43.8991 7.972 44.0071 8.632 44.0071 9.352V9.766C44.0071 10.474 43.9051 11.14 43.7011 11.764C43.4971 12.376 43.1971 12.91 42.8011 13.366C42.4171 13.822 41.9431 14.182 41.3791 14.446C40.8271 14.698 40.1911 14.824 39.4711 14.824C38.7271 14.824 38.0551 14.674 37.4551 14.374C36.8671 14.062 36.3931 13.594 36.0331 12.97C35.6731 12.334 35.4751 11.53 35.4391 10.558L36.2311 11.638V18.1H33.3511ZM38.6611 12.412C39.1531 12.412 39.5791 12.292 39.9391 12.052C40.3111 11.812 40.5991 11.476 40.8031 11.044C41.0071 10.612 41.1091 10.114 41.1091 9.55C41.1091 8.986 41.0071 8.494 40.8031 8.074C40.5991 7.654 40.3171 7.33 39.9571 7.102C39.5971 6.862 39.1651 6.742 38.6611 6.742C38.2291 6.742 37.8211 6.844 37.4371 7.048C37.0531 7.252 36.7411 7.546 36.5011 7.93C36.2731 8.302 36.1591 8.758 36.1591 9.298V9.964C36.1591 10.48 36.2791 10.924 36.5191 11.296C36.7711 11.656 37.0891 11.932 37.4731 12.124C37.8571 12.316 38.2531 12.412 38.6611 12.412ZM50.4894 14.626C49.4934 14.626 48.6894 14.506 48.0774 14.266C47.4654 14.014 47.0154 13.6 46.7274 13.024C46.4514 12.436 46.3134 11.644 46.3134 10.648V1.972H48.9954V10.756C48.9954 11.224 49.1154 11.584 49.3554 11.836C49.6074 12.076 49.9614 12.196 50.4174 12.196H51.8754V14.626H50.4894ZM44.8194 6.742V4.636H51.8754V6.742H44.8194ZM58.5829 14.842C57.7189 14.842 56.9509 14.71 56.2789 14.446C55.6069 14.17 55.0369 13.798 54.5689 13.33C54.1129 12.862 53.7649 12.328 53.5249 11.728C53.2849 11.116 53.1649 10.474 53.1649 9.802V9.388C53.1649 8.704 53.2849 8.056 53.5249 7.444C53.7769 6.82 54.1369 6.274 54.6049 5.806C55.0849 5.338 55.6609 4.972 56.3329 4.708C57.0049 4.432 57.7549 4.294 58.5829 4.294C59.4349 4.294 60.1909 4.432 60.8509 4.708C61.5229 4.972 62.0929 5.338 62.5609 5.806C63.0289 6.274 63.3889 6.82 63.6409 7.444C63.8929 8.056 64.0189 8.704 64.0189 9.388V9.802C64.0189 10.474 63.8989 11.116 63.6589 11.728C63.4189 12.328 63.0649 12.862 62.5969 13.33C62.1409 13.798 61.5769 14.17 60.9049 14.446C60.2329 14.71 59.4589 14.842 58.5829 14.842ZM58.5829 12.412C59.1469 12.412 59.6149 12.292 59.9869 12.052C60.3589 11.812 60.6409 11.476 60.8329 11.044C61.0369 10.612 61.1389 10.132 61.1389 9.604C61.1389 9.04 61.0369 8.548 60.8329 8.128C60.6289 7.696 60.3349 7.354 59.9509 7.102C59.5789 6.85 59.1229 6.724 58.5829 6.724C58.0549 6.724 57.5989 6.85 57.2149 7.102C56.8309 7.354 56.5369 7.696 56.3329 8.128C56.1409 8.548 56.0449 9.04 56.0449 9.604C56.0449 10.132 56.1409 10.612 56.3329 11.044C56.5249 11.476 56.8129 11.812 57.1969 12.052C57.5809 12.292 58.0429 12.412 58.5829 12.412ZM66.1548 14.5V1.36H69.0528V14.5H66.1548ZM64.9848 3.484V1.36H69.0528V3.484H64.9848ZM71.8326 14.5V1.36H74.7306V14.5H71.8326ZM70.6626 3.484V1.36H74.7306V3.484H70.6626ZM77.2763 18.406V15.958H79.3283C79.6403 15.958 79.9043 15.916 80.1203 15.832C80.3363 15.76 80.5103 15.634 80.6423 15.454C80.7743 15.274 80.8823 15.028 80.9663 14.716L83.3963 4.636H86.1323L83.3783 15.292C83.1863 16.06 82.9163 16.672 82.5683 17.128C82.2323 17.584 81.7763 17.908 81.2003 18.1C80.6363 18.304 79.9163 18.406 79.0403 18.406H77.2763ZM80.3723 14.284V12.034H82.4603V14.284H80.3723ZM79.1843 14.284L76.1603 4.636H79.0583L81.9203 14.284H79.1843Z" fill="white"/>
<path d="M87.1999 14.5V11.278H90.3679V14.5H87.1999Z" fill="url(#paint0_linear_1051_1183)"/>
<defs>
<linearGradient id="paint0_linear_1051_1183" x1="93.6467" y1="2.54237" x2="4.25654" y2="30.3224" gradientUnits="userSpaceOnUse">
<stop stop-color="#246CF9"/>
<stop offset="0.0001" stop-color="#1E68F6"/>
<stop offset="1" stop-color="#0047D0"/>
</linearGradient>
</defs>
</svg>
