<svg width="44" height="44" viewBox="0 0 44 44" fill="none" xmlns="http://www.w3.org/2000/svg">
<g clip-path="url(#clip0_1123_1987)">
<circle cx="22" cy="22" r="22" fill="#7F6EE9"/>
<path d="M22.4889 5.54686V5.56248C22.5045 5.64058 22.5045 5.7343 22.5045 5.82801V17.0898C22.4889 17.1523 22.4421 17.1679 22.3952 17.1992C22.0672 17.3553 21.7548 17.4959 21.4268 17.6365C20.9738 17.8396 20.5052 18.0582 20.0522 18.2613L18.4122 19.011C17.9592 19.2141 17.5062 19.4171 17.0689 19.6202C16.5378 19.8701 15.9911 20.1044 15.4601 20.3543C15.0071 20.5574 14.5541 20.7761 14.0855 20.9791C13.7106 21.1509 13.3358 21.3071 12.9765 21.4789C12.9453 21.4946 12.914 21.5102 12.8828 21.5102C12.8672 21.5102 12.8672 21.5102 12.8516 21.4946L13.2733 20.7917C14.0855 19.4484 14.8821 18.1207 15.6943 16.7774C16.5534 15.3404 17.4281 13.9034 18.2872 12.4664C19.0838 11.1387 19.896 9.81104 20.6927 8.48336C21.2706 7.51494 21.8641 6.54652 22.4421 5.5781C22.4577 5.54686 22.4733 5.53124 22.4733 5.5H22.4889C22.4733 5.51562 22.4889 5.53124 22.4889 5.54686Z" fill="#F3F3F3"/>
<path d="M32.0768 21.4944L32.0924 21.51L29.7963 22.869L22.58 27.1331C22.5488 27.1488 22.5176 27.1644 22.5019 27.18C22.4551 27.18 22.4551 27.1331 22.4551 27.1175V26.9769V17.324C22.4551 17.2771 22.4551 17.2146 22.4707 17.1678C22.4863 17.1053 22.5332 17.1209 22.58 17.1365C22.7831 17.2302 23.0018 17.324 23.2048 17.4177C23.814 17.6988 24.4232 17.98 25.0323 18.2455C25.5634 18.4798 26.0788 18.7297 26.6099 18.964C27.141 19.1983 27.6721 19.4482 28.2031 19.6825C28.6561 19.8856 29.1247 20.1043 29.5777 20.3073C30.0306 20.5104 30.4992 20.7291 30.9522 20.9321C31.3114 21.0883 31.6707 21.2601 32.03 21.4163C32.03 21.4632 32.0456 21.4788 32.0768 21.4944Z" fill="#8A8DA7"/>
<path d="M22.487 36.8802C22.487 36.8958 22.4713 36.9114 22.4713 36.927H22.4557C22.4557 36.8958 22.4245 36.8802 22.4089 36.8489C21.4404 35.49 20.472 34.1155 19.5036 32.7566C18.5196 31.3664 17.5199 29.9607 16.5359 28.5705C15.5831 27.2272 14.6146 25.8683 13.6618 24.525C13.4119 24.1657 13.162 23.8221 12.9121 23.4629C12.8965 23.4316 12.8808 23.416 12.8496 23.3691C12.8965 23.3691 12.9277 23.4004 12.9433 23.416C14.3022 24.2126 15.6455 25.0092 17.0044 25.8058C18.5664 26.7274 20.1128 27.6489 21.6747 28.5705L22.4713 29.0391C22.5026 29.0703 22.5026 29.1016 22.5026 29.1328V36.6615C22.5026 36.7396 22.5026 36.8177 22.487 36.8802Z" fill="#F3F3F3"/>
<path d="M12.834 21.5258V21.5102C13.3338 21.2916 13.818 21.0573 14.3179 20.8386C14.9583 20.5418 15.5987 20.2607 16.2391 19.9639C16.7233 19.7452 17.2231 19.5109 17.7073 19.2922C18.4258 18.9642 19.1287 18.6518 19.8472 18.3238C20.3314 18.1051 20.8156 17.8865 21.3155 17.6522C21.6591 17.496 22.0184 17.3398 22.362 17.1836C22.3932 17.168 22.4401 17.1523 22.4557 17.1211C22.4713 17.1211 22.4713 17.1367 22.4557 17.1523V27.0708C22.4557 27.1177 22.4401 27.1646 22.4713 27.1958C22.4401 27.2427 22.4089 27.1958 22.3932 27.1802C22.2527 27.1021 22.1121 27.024 21.9715 26.9303C18.9569 25.1496 15.9267 23.3534 12.9121 21.5727C12.8965 21.5571 12.8652 21.5415 12.834 21.5258Z" fill="#C5C8D9"/>
<path d="M32.0456 23.3691H32.0612C32.0612 23.4004 32.03 23.4316 32.0143 23.4629C29.1403 27.5084 26.2663 31.5695 23.3923 35.615C23.0955 36.0367 22.7831 36.4584 22.4863 36.8802C22.4707 36.8646 22.4707 36.8489 22.4707 36.8333V36.7396V29.164V29.0235C23.1267 28.633 23.7671 28.2581 24.4232 27.8676C26.9536 26.3681 29.4839 24.8843 31.9987 23.3848C32.0143 23.4004 32.03 23.3848 32.0456 23.3691Z" fill="#C5C8D9"/>
<path d="M22.4707 17.1523V17.1211V17.0274V5.68746C22.4707 5.6406 22.4551 5.60936 22.4863 5.5625C25.6571 10.8263 28.8279 16.0746 31.9831 21.3384C32.0143 21.3853 32.0612 21.4477 32.0768 21.5102C31.8581 21.4321 31.6551 21.3228 31.452 21.2291C31.2021 21.1197 30.9366 20.9948 30.6867 20.8854C30.5305 20.8073 30.3586 20.7448 30.2024 20.6667C29.9369 20.5418 29.6714 20.4325 29.4058 20.3075C29.2496 20.245 29.0934 20.1669 28.9372 20.0888L27.9063 19.6202C27.7345 19.5421 27.5627 19.464 27.3753 19.3859L26.6255 19.0579C26.4693 18.9954 26.3131 18.9173 26.1569 18.8392L25.126 18.3707C24.9542 18.2926 24.7824 18.2145 24.595 18.1364L23.8452 17.8083C23.6734 17.7302 23.5172 17.6521 23.3454 17.574C23.0486 17.4335 22.7518 17.2929 22.4395 17.1679C22.4863 17.1523 22.4707 17.1523 22.4707 17.1523Z" fill="#C5C8D9"/>
</g>
<defs>
<clipPath id="clip0_1123_1987">
<rect width="44" height="44" fill="white"/>
</clipPath>
</defs>
</svg>
