<svg width="45" height="44" viewBox="0 0 45 44" fill="none" xmlns="http://www.w3.org/2000/svg">
<path fill-rule="evenodd" clip-rule="evenodd" d="M35.0852 9.39329C35.8863 9.67379 36.4217 10.4291 36.4217 11.278V23.6951C36.4217 27.1656 35.1603 30.4785 32.9328 33.0451C31.8127 34.3376 30.3955 35.3441 28.8903 36.1581L22.3673 39.6818L15.8333 36.1563C14.3263 35.3423 12.9073 34.3376 11.7853 33.0433C9.55602 30.4766 8.29102 27.162 8.29102 23.6878V11.278C8.29102 10.4291 8.82635 9.67379 9.62752 9.39329L21.6945 5.15279C22.1235 5.00246 22.591 5.00246 23.0182 5.15279L35.0852 9.39329Z" stroke="#11CABE" stroke-width="1.5" stroke-linecap="round" stroke-linejoin="round"/>
<path d="M17.5898 21.8487L21.0585 25.3192L28.2048 18.1729" stroke="#11CABE" stroke-width="1.5" stroke-linecap="round" stroke-linejoin="round"/>
</svg>
