<svg width="44" height="48" viewBox="0 0 44 48" fill="none" xmlns="http://www.w3.org/2000/svg">
<g filter="url(#filter0_f_2071_12793)">
<path d="M33 36.5767H31.6067C30.14 36.5767 28.7467 37.145 27.72 38.1717L24.585 41.2701C23.155 42.6818 20.8267 42.6818 19.3967 41.2701L16.2617 38.1717C15.235 37.145 13.8233 36.5767 12.375 36.5767H11C7.95667 36.5767 5.5 34.1384 5.5 31.1317V11.13C5.5 8.12334 7.95667 5.68506 11 5.68506H33C36.0433 5.68506 38.5 8.12334 38.5 11.13V31.1317C38.5 34.1201 36.0433 36.5767 33 36.5767Z" stroke="#246CF9" stroke-width="1.5" stroke-miterlimit="10" stroke-linecap="round" stroke-linejoin="round"/>
<path d="M12.8335 18.7933C12.8335 17.0883 14.2268 15.6948 15.9318 15.6948C17.6368 15.6948 19.0302 17.0883 19.0302 18.7933C19.0302 22.2399 14.1352 22.6066 13.0535 25.8883C12.8335 26.5666 13.4018 27.2449 14.1168 27.2449H19.0302" stroke="#246CF9" stroke-width="1.5" stroke-linecap="round" stroke-linejoin="round"/>
<path d="M29.4067 27.2264V16.7582C29.4067 16.2815 29.0951 15.8597 28.6367 15.7314C28.1784 15.6031 27.6834 15.7864 27.4267 16.1897C26.1067 18.3164 24.6767 20.7364 23.4301 22.8631C23.2284 23.2114 23.2284 23.6698 23.4301 24.0181C23.6317 24.3664 24.0167 24.5863 24.4384 24.5863H31.1667" stroke="#246CF9" stroke-width="1.5" stroke-linecap="round" stroke-linejoin="round"/>
</g>
<path d="M33 36.5767H31.6067C30.14 36.5767 28.7467 37.145 27.72 38.1717L24.585 41.2701C23.155 42.6818 20.8267 42.6818 19.3967 41.2701L16.2617 38.1717C15.235 37.145 13.8233 36.5767 12.375 36.5767H11C7.95667 36.5767 5.5 34.1384 5.5 31.1317V11.13C5.5 8.12334 7.95667 5.68506 11 5.68506H33C36.0433 5.68506 38.5 8.12334 38.5 11.13V31.1317C38.5 34.1201 36.0433 36.5767 33 36.5767Z" stroke="#246CF9" stroke-width="1.5" stroke-miterlimit="10" stroke-linecap="round" stroke-linejoin="round"/>
<path d="M12.8335 18.7933C12.8335 17.0883 14.2268 15.6948 15.9318 15.6948C17.6368 15.6948 19.0302 17.0883 19.0302 18.7933C19.0302 22.2399 14.1352 22.6066 13.0535 25.8883C12.8335 26.5666 13.4018 27.2449 14.1168 27.2449H19.0302" stroke="#246CF9" stroke-width="1.5" stroke-linecap="round" stroke-linejoin="round"/>
<path d="M29.4067 27.2264V16.7582C29.4067 16.2815 29.0951 15.8597 28.6367 15.7314C28.1784 15.6031 27.6834 15.7864 27.4267 16.1897C26.1067 18.3164 24.6767 20.7364 23.4301 22.8631C23.2284 23.2114 23.2284 23.6698 23.4301 24.0181C23.6317 24.3664 24.0167 24.5863 24.4384 24.5863H31.1667" stroke="#246CF9" stroke-width="1.5" stroke-linecap="round" stroke-linejoin="round"/>
<defs>
<filter id="filter0_f_2071_12793" x="-4" y="-2" width="52" height="52" filterUnits="userSpaceOnUse" color-interpolation-filters="sRGB">
<feFlood flood-opacity="0" result="BackgroundImageFix"/>
<feBlend mode="normal" in="SourceGraphic" in2="BackgroundImageFix" result="shape"/>
<feGaussianBlur stdDeviation="2" result="effect1_foregroundBlur_2071_12793"/>
</filter>
</defs>
</svg>
