<svg width="44" height="44" viewBox="0 0 44 44" fill="none" xmlns="http://www.w3.org/2000/svg">
<g clip-path="url(#clip0_1259_3244)">
<path d="M43.9608 21.9921C43.9608 34.0823 34.1604 43.8827 22.0702 43.8827C9.98053 43.8827 0.179695 34.0823 0.179695 21.9921C0.179695 9.90218 9.98053 0.101562 22.0702 0.101562C34.1604 0.101562 43.9608 9.90218 43.9608 21.9921Z" fill="#1BA27A"/>
<path d="M32.344 11.1401H11.6158V16.1443H19.4778V23.4995H24.482V16.1443H32.344V11.1401Z" fill="white"/>
<path d="M22.0277 24.2828C15.5241 24.2828 10.2513 23.2535 10.2513 21.9837C10.2513 20.714 15.5238 19.6845 22.0277 19.6845C28.5314 19.6845 33.804 20.714 33.804 21.9837C33.804 23.2535 28.5314 24.2828 22.0277 24.2828ZM35.2507 22.367C35.2507 20.7296 29.3307 19.4023 22.0277 19.4023C14.7251 19.4023 8.80454 20.7296 8.80454 22.367C8.80454 23.8089 13.3952 25.0103 19.4784 25.2765V35.8351H24.4821V25.2806C30.6121 25.0227 35.2507 23.8164 35.2507 22.367Z" fill="white"/>
</g>
<defs>
<clipPath id="clip0_1259_3244">
<rect width="44" height="44" fill="white"/>
</clipPath>
</defs>
</svg>
