<svg width="76" height="391" viewBox="0 0 76 391" fill="none" xmlns="http://www.w3.org/2000/svg">
<g opacity="0.24">
<mask id="mask0_2192_13273" style="mask-type:alpha" maskUnits="userSpaceOnUse" x="-795" y="-331" width="871" height="851">
<path d="M-677.284 210.74C-686.965 199.249 -696.131 187.827 -704.729 176.527C-751.946 114.478 -780.806 58.3221 -790.505 9.6189C-800.429 -40.2098 -789.836 -81.0272 -759.02 -111.699C-665.462 -204.82 -597.578 -250.777 -552.659 -281.189C-532.44 -294.877 -516.471 -305.688 -505.448 -316.008L-505.085 -315.133L-505.448 -316.008C-487.109 -333.178 -445.762 -335.798 -397.542 -322.844C-345.65 -308.905 -297.269 -280.332 -264.805 -244.454C-220.028 -194.967 -162.749 -157.597 -122.583 -134.961C-75.7951 -108.595 -24.4263 -86.745 14.8279 -76.5135C40.1689 -69.9086 58.5856 -48.8478 68.0858 -15.6055C84.5353 41.9546 72.1894 128.497 35.8649 210.25C18.6478 249 0.844543 289.069 -17.8386 325.957C-38.4942 366.741 -58.0413 399.116 -77.5967 424.932C-100.948 455.761 -124.918 478.306 -150.879 493.854C-179.865 511.216 -210.675 519.547 -245.07 519.323C-303.815 518.941 -428.144 445.921 -547.414 341.75C-596.202 299.137 -640.466 254.445 -677.284 210.74ZM47.4528 -53.3571C38.5006 -63.9835 27.4576 -71.1279 14.5928 -74.4813C-24.7411 -84.7334 -76.2021 -106.62 -123.066 -133.03C-163.314 -155.711 -220.716 -193.166 -265.62 -242.792C-297.92 -278.489 -346.092 -306.928 -397.784 -320.813C-445.683 -333.68 -486.659 -331.168 -504.721 -314.257C-515.822 -303.864 -531.829 -293.028 -552.093 -279.308C-596.973 -248.924 -664.795 -203.008 -758.26 -109.979C-788.514 -79.8686 -798.919 -39.8284 -789.189 9.02844C-779.564 57.3538 -750.843 113.186 -703.824 174.975C-662.59 229.161 -608.265 286.215 -546.722 339.967C-427.64 443.974 -303.593 516.88 -245.064 517.26C-210.848 517.483 -180.207 509.2 -151.388 491.938C-125.576 476.478 -101.736 454.053 -78.5041 423.383C-34.9202 365.843 0.483948 286.162 34.7219 209.104C70.7912 127.925 83.0919 42.1342 66.8232 -14.7925C62.3317 -30.508 55.8016 -43.4471 47.4528 -53.3571Z" fill="url(#paint0_linear_2192_13273)"/>
</mask>
<g mask="url(#mask0_2192_13273)">
<path d="M-677.284 210.74C-686.965 199.249 -696.131 187.827 -704.729 176.527C-751.946 114.478 -780.806 58.3221 -790.505 9.6189C-800.429 -40.2098 -789.836 -81.0272 -759.02 -111.699C-665.462 -204.82 -597.578 -250.777 -552.659 -281.189C-532.44 -294.877 -516.471 -305.688 -505.448 -316.008L-505.085 -315.133L-505.448 -316.008C-487.109 -333.178 -445.762 -335.798 -397.542 -322.844C-345.65 -308.905 -297.269 -280.332 -264.805 -244.454C-220.028 -194.967 -162.749 -157.597 -122.583 -134.961C-75.7951 -108.595 -24.4263 -86.745 14.8279 -76.5135C40.1689 -69.9086 58.5856 -48.8478 68.0858 -15.6055C84.5353 41.9546 72.1894 128.497 35.8649 210.25C18.6478 249 0.844543 289.069 -17.8386 325.957C-38.4942 366.741 -58.0413 399.116 -77.5967 424.932C-100.948 455.761 -124.918 478.306 -150.879 493.854C-179.865 511.216 -210.675 519.547 -245.07 519.323C-303.815 518.941 -428.144 445.921 -547.414 341.75C-596.202 299.137 -640.466 254.445 -677.284 210.74ZM47.4528 -53.3571C38.5006 -63.9835 27.4576 -71.1279 14.5928 -74.4813C-24.7411 -84.7334 -76.2021 -106.62 -123.066 -133.03C-163.314 -155.711 -220.716 -193.166 -265.62 -242.792C-297.92 -278.489 -346.092 -306.928 -397.784 -320.813C-445.683 -333.68 -486.659 -331.168 -504.721 -314.257C-515.822 -303.864 -531.829 -293.028 -552.093 -279.308C-596.973 -248.924 -664.795 -203.008 -758.26 -109.979C-788.514 -79.8686 -798.919 -39.8284 -789.189 9.02844C-779.564 57.3538 -750.843 113.186 -703.824 174.975C-662.59 229.161 -608.265 286.215 -546.722 339.967C-427.64 443.974 -303.593 516.88 -245.064 517.26C-210.848 517.483 -180.207 509.2 -151.388 491.938C-125.576 476.478 -101.736 454.053 -78.5041 423.383C-34.9202 365.843 0.483948 286.162 34.7219 209.104C70.7912 127.925 83.0919 42.1342 66.8232 -14.7925C62.3317 -30.508 55.8016 -43.4471 47.4528 -53.3571Z" fill="white"/>
</g>
<mask id="mask1_2192_13273" style="mask-type:alpha" maskUnits="userSpaceOnUse" x="-762" y="-311" width="803" height="786">
<path d="M-656.942 190.614C-664.598 181.527 -671.892 172.49 -678.794 163.534C-722.327 107.046 -749 55.9138 -758.071 11.5564C-767.243 -33.2888 -757.988 -70.09 -730.564 -97.8244C-648.142 -182.511 -584.59 -228.196 -542.537 -258.426C-522.796 -272.618 -507.203 -283.827 -496.1 -294.348C-478.15 -311.337 -439.213 -314.907 -394.484 -303.666C-346.591 -291.63 -301.338 -265.503 -270.328 -231.986C-228.87 -186.634 -176.324 -151.826 -139.543 -130.61C-96.3341 -105.687 -50.6522 -85.3757 -14.2104 -74.8851C8.784 -68.2578 25.4703 -48.512 34.0453 -17.7824C48.9301 35.5632 37.5528 115.173 4.3537 189.979L4.35431 189.978C-26.923 260.603 -59.2658 333.633 -100.141 387.459C-121.672 415.811 -143.776 436.586 -167.718 450.973C-194.425 467.022 -222.793 474.816 -254.44 474.804C-308.771 475.05 -423.632 408.911 -533.759 313.968C-580.226 273.907 -622.281 231.759 -656.942 190.614ZM14.5881 -53.7627C6.61407 -63.2287 -3.14014 -69.7219 -14.4544 -72.9833C-50.9675 -83.4944 -96.7291 -103.84 -140.006 -128.802C-176.86 -150.06 -229.517 -184.945 -271.086 -230.419C-301.937 -263.764 -346.993 -289.767 -394.697 -301.757C-439.126 -312.923 -477.718 -309.457 -495.411 -292.71C-506.577 -282.13 -522.2 -270.898 -541.979 -256.68C-583.997 -226.475 -647.494 -180.829 -729.838 -96.2219C-756.74 -69.0163 -765.822 -32.9475 -756.837 10.9873C-747.838 54.991 -721.296 105.822 -677.949 162.068C-639.859 211.497 -589.776 263.44 -533.117 312.287C-423.167 407.078 -308.572 473.111 -254.442 472.866C-222.96 472.879 -194.75 465.129 -168.198 449.174C-144.394 434.871 -122.411 414.208 -100.993 386.002C-60.2463 332.345 -27.9523 259.425 3.27856 188.906V188.905C36.2408 114.631 47.5735 35.7195 32.8536 -17.0338C28.6685 -32.032 22.5062 -44.3636 14.5881 -53.7627Z" fill="url(#paint1_linear_2192_13273)"/>
</mask>
<g mask="url(#mask1_2192_13273)">
<path d="M-656.942 190.614C-664.598 181.527 -671.892 172.49 -678.794 163.534C-722.327 107.046 -749 55.9138 -758.071 11.5564C-767.243 -33.2888 -757.988 -70.09 -730.564 -97.8244C-648.142 -182.511 -584.59 -228.196 -542.537 -258.426C-522.796 -272.618 -507.203 -283.827 -496.1 -294.348C-478.15 -311.337 -439.213 -314.907 -394.484 -303.666C-346.591 -291.63 -301.338 -265.503 -270.328 -231.986C-228.87 -186.634 -176.324 -151.826 -139.543 -130.61C-96.3341 -105.687 -50.6522 -85.3757 -14.2104 -74.8851C8.784 -68.2578 25.4703 -48.512 34.0453 -17.7824C48.9301 35.5632 37.5528 115.173 4.3537 189.979L4.35431 189.978C-26.923 260.603 -59.2658 333.633 -100.141 387.459C-121.672 415.811 -143.776 436.586 -167.718 450.973C-194.425 467.022 -222.793 474.816 -254.44 474.804C-308.771 475.05 -423.632 408.911 -533.759 313.968C-580.226 273.907 -622.281 231.759 -656.942 190.614ZM14.5881 -53.7627C6.61407 -63.2287 -3.14014 -69.7219 -14.4544 -72.9833C-50.9675 -83.4944 -96.7291 -103.84 -140.006 -128.802C-176.86 -150.06 -229.517 -184.945 -271.086 -230.419C-301.937 -263.764 -346.993 -289.767 -394.697 -301.757C-439.126 -312.923 -477.718 -309.457 -495.411 -292.71C-506.577 -282.13 -522.2 -270.898 -541.979 -256.68C-583.997 -226.475 -647.494 -180.829 -729.838 -96.2219C-756.74 -69.0163 -765.822 -32.9475 -756.837 10.9873C-747.838 54.991 -721.296 105.822 -677.949 162.068C-639.859 211.497 -589.776 263.44 -533.117 312.287C-423.167 407.078 -308.572 473.111 -254.442 472.866C-222.96 472.879 -194.75 465.129 -168.198 449.174C-144.394 434.871 -122.411 414.208 -100.993 386.002C-60.2463 332.345 -27.9523 259.425 3.27856 188.906V188.905C36.2408 114.631 47.5735 35.7195 32.8536 -17.0338C28.6685 -32.032 22.5062 -44.3636 14.5881 -53.7627Z" fill="white"/>
</g>
<mask id="mask2_2192_13273" style="mask-type:alpha" maskUnits="userSpaceOnUse" x="-729" y="-290" width="735" height="721">
<path d="M-636.565 170.619C-642.236 163.888 -647.675 157.197 -652.88 150.545C-692.73 99.6177 -717.216 53.5077 -725.658 13.497C-734.069 -26.3672 -726.145 -59.1532 -702.106 -83.9496C-630.29 -160.744 -573.255 -204.374 -531.61 -236.231C-512.71 -250.689 -497.783 -262.107 -486.749 -272.69C-468.914 -289.758 -433.279 -294.169 -391.425 -284.49C-347.521 -274.337 -305.396 -250.656 -275.85 -219.52C-206.724 -144.812 -98.8745 -91.1199 -43.2474 -73.2571C-22.5948 -66.6085 -7.63568 -48.173 0.0122681 -19.9419C13.3221 29.19 2.91107 101.861 -27.1578 169.711C-54.1131 230.814 -84.6663 300.072 -122.687 349.988C-142.395 375.862 -162.633 394.869 -184.556 408.093C-208.986 422.829 -234.91 430.089 -263.81 430.286C-288.859 430.721 -327.2 416.702 -374.686 389.746C-420.302 363.85 -471.952 327.073 -520.122 286.19C-564.257 248.73 -604.097 209.158 -636.565 170.619ZM-18.2818 -54.2178C-25.2711 -62.5146 -33.7348 -68.3423 -43.5009 -71.4848C-99.2267 -89.3807 -207.278 -143.178 -276.55 -218.043C-305.943 -249.017 -347.883 -272.585 -391.61 -282.698C-433.181 -292.312 -468.505 -287.999 -486.101 -271.161C-497.183 -260.532 -512.134 -249.095 -531.062 -234.616C-572.673 -202.784 -629.662 -159.188 -701.415 -82.465C-724.973 -58.1652 -732.739 -26.0653 -724.507 12.9494C-716.135 52.6314 -691.772 98.46 -652.097 149.164C-617.147 193.826 -571.306 240.666 -519.528 284.611C-471.41 325.45 -419.819 362.185 -374.259 388.048C-326.913 414.926 -288.724 428.904 -263.82 428.472C-235.071 428.274 -209.293 421.058 -185.007 406.409C-163.212 393.263 -143.087 374.36 -123.482 348.622C-85.5837 298.866 -55.0787 229.716 -28.1646 168.707L-28.1639 168.706C1.68652 101.349 12.0536 29.324 -1.10754 -19.2595C-4.98389 -33.5715 -10.7832 -45.3163 -18.2818 -54.2178Z" fill="url(#paint2_linear_2192_13273)"/>
</mask>
<g mask="url(#mask2_2192_13273)">
<path d="M-636.566 170.619C-642.237 163.888 -647.676 157.197 -652.881 150.545C-692.731 99.6177 -717.217 53.5077 -725.659 13.497C-734.07 -26.3672 -726.146 -59.1532 -702.107 -83.9496C-630.291 -160.744 -573.256 -204.374 -531.611 -236.231C-512.711 -250.689 -497.784 -262.107 -486.75 -272.69C-468.914 -289.758 -433.28 -294.169 -391.426 -284.49C-347.522 -274.337 -305.397 -250.656 -275.851 -219.52C-206.725 -144.812 -98.8755 -91.1199 -43.2484 -73.2571C-22.5958 -66.6085 -7.63666 -48.173 0.0112915 -19.9419C13.3212 29.19 2.9101 101.861 -27.1588 169.711C-54.1141 230.814 -84.6672 300.072 -122.688 349.988C-142.396 375.862 -162.634 394.869 -184.557 408.093C-208.987 422.829 -234.911 430.089 -263.811 430.286C-288.86 430.721 -327.201 416.702 -374.687 389.746C-420.303 363.85 -471.952 327.073 -520.123 286.19C-564.258 248.73 -604.098 209.158 -636.566 170.619ZM-18.2828 -54.2178C-25.2721 -62.5146 -33.7358 -68.3423 -43.5019 -71.4848C-99.2277 -89.3807 -207.279 -143.178 -276.551 -218.043C-305.944 -249.017 -347.884 -272.585 -391.611 -282.698C-433.182 -292.312 -468.506 -287.999 -486.102 -271.161C-497.184 -260.532 -512.135 -249.095 -531.063 -234.616C-572.674 -202.784 -629.663 -159.188 -701.416 -82.465C-724.974 -58.1652 -732.74 -26.0653 -724.508 12.9494C-716.136 52.6314 -691.773 98.46 -652.098 149.164C-617.148 193.826 -571.307 240.666 -519.529 284.611C-471.411 325.45 -419.82 362.185 -374.26 388.048C-326.914 414.926 -288.725 428.904 -263.821 428.472C-235.072 428.274 -209.294 421.058 -185.008 406.409C-163.213 393.263 -143.088 374.36 -123.483 348.622C-85.5847 298.866 -55.0797 229.716 -28.1655 168.707L-28.1649 168.706C1.68555 101.349 12.0526 29.324 -1.10852 -19.2595C-4.98486 -33.5715 -10.7842 -45.3163 -18.2828 -54.2178Z" fill="white"/>
</g>
</g>
<defs>
<linearGradient id="paint0_linear_2192_13273" x1="-359.43" y1="-331" x2="-359.43" y2="519.327" gradientUnits="userSpaceOnUse">
<stop stop-color="white"/>
<stop offset="0.0436" stop-color="#B4B4B4"/>
<stop offset="0.1507"/>
<stop offset="0.1714" stop-color="#171717"/>
<stop offset="0.3859" stop-color="white"/>
<stop offset="0.6326" stop-color="#E6E6E6"/>
<stop offset="0.8567" stop-color="#1A1A1A"/>
<stop offset="0.9987"/>
</linearGradient>
<linearGradient id="paint1_linear_2192_13273" x1="-360.511" y1="-310.144" x2="-360.511" y2="474.804" gradientUnits="userSpaceOnUse">
<stop stop-color="white"/>
<stop offset="0.0436" stop-color="#B4B4B4"/>
<stop offset="0.1507"/>
<stop offset="0.1714" stop-color="#171717"/>
<stop offset="0.3859" stop-color="white"/>
<stop offset="0.6326" stop-color="#E6E6E6"/>
<stop offset="0.8567" stop-color="#1A1A1A"/>
<stop offset="0.9987"/>
</linearGradient>
<linearGradient id="paint2_linear_2192_13273" x1="-361.602" y1="-289.537" x2="-361.602" y2="430.295" gradientUnits="userSpaceOnUse">
<stop stop-color="white"/>
<stop offset="0.0436" stop-color="#B4B4B4"/>
<stop offset="0.1507"/>
<stop offset="0.1714" stop-color="#171717"/>
<stop offset="0.3859" stop-color="white"/>
<stop offset="0.6326" stop-color="#E6E6E6"/>
<stop offset="0.8567" stop-color="#1A1A1A"/>
<stop offset="0.9987"/>
</linearGradient>
</defs>
</svg>
