<svg width="860" height="2036" viewBox="0 0 860 2036" fill="none" xmlns="http://www.w3.org/2000/svg">
<mask id="mask0_2010_15064" style="mask-type:alpha" maskUnits="userSpaceOnUse" x="-416" y="575" width="1126" height="1114">
<path d="M-160.925 1677.59C-182.763 1673.62 -204.52 1668.55 -226.147 1662.37C-347.818 1627.59 -409.738 1553.59 -415.446 1436.15C-420.392 1334.38 -382.626 1215.75 -349.306 1111.08C-327.064 1041.22 -306.056 975.225 -301.614 925.336C-286.821 759.255 -314.501 716.643 -331.04 691.183C-340.617 676.44 -346.942 666.701 -338.262 641.781C-329.754 617.359 -259.931 596.916 -118.526 577.446C-57.3685 569.023 -19.3805 592.826 11.1445 611.952C26.4361 621.533 39.664 629.821 52.817 632.144L52.2949 633.822L52.817 632.144C89.0236 638.563 100.754 634.443 126.455 625.416C147.886 617.888 180.275 606.511 245.58 595.155C302.969 585.175 384.414 595.69 458.134 622.602C500.081 637.914 538.236 657.777 571.543 681.642C608.827 708.356 639.135 739.537 661.625 774.322C703.287 838.76 717.66 914.339 704.348 998.959C691.232 1082.32 663.664 1165.04 622.411 1244.8C581.433 1324.03 529.053 1396.31 466.728 1459.64C376.004 1551.83 268.14 1619.85 154.797 1656.35C94.3738 1675.82 32.2606 1686.44 -29.8183 1687.92C-73.438 1688.97 -117.329 1685.5 -160.925 1677.59ZM-66.6575 581.559C-82.0625 578.765 -99.3537 578.092 -119.064 580.807C-183.375 589.663 -231.975 598.576 -267.644 608.055C-319.092 621.729 -333.255 634.253 -336.076 642.352C-344.069 665.296 -338.707 673.55 -328.974 688.533C-312.25 714.281 -284.257 757.374 -299.157 924.67C-303.649 975.105 -324.743 1041.36 -347.074 1111.51C-380.265 1215.77 -417.884 1333.95 -412.978 1434.9C-407.326 1551.18 -345.825 1624.5 -224.957 1659.05C-160.298 1677.53 -94.3971 1686.11 -29.0852 1684.54C32.8203 1683.06 94.7538 1672.47 154.996 1653.07C267.921 1616.7 375.361 1548.95 465.703 1457.16C527.701 1394.16 579.794 1322.28 620.535 1243.51C661.518 1164.27 688.903 1082.11 701.93 999.304C715.095 915.622 700.839 840.816 659.558 776.965C637.188 742.367 607.025 711.341 569.908 684.745C536.709 660.959 498.67 641.156 456.846 625.889C383.362 599.062 302.228 588.572 245.108 598.505C179.967 609.832 147.678 621.173 126.313 628.678C100.288 637.818 88.4096 641.991 51.7745 635.497C51.7126 635.485 51.6484 635.473 51.5867 635.463C38.1956 633.033 24.934 624.724 9.58655 615.108C-10.8729 602.289 -34.7084 587.356 -66.6575 581.559Z" fill="url(#paint0_linear_2010_15064)"/>
</mask>
<g mask="url(#mask0_2010_15064)">
<path d="M-160.287 1677.57C-182.123 1673.54 -203.877 1668.39 -225.504 1662.14C-347.168 1626.96 -409.132 1552.69 -414.938 1435.09C-419.968 1333.19 -382.313 1214.52 -349.091 1109.83C-326.915 1039.95 -305.969 973.935 -301.57 923.999C-286.922 757.761 -314.63 715.016 -331.185 689.477C-340.771 674.688 -347.103 664.919 -338.446 639.994C-329.962 615.568 -260.177 595.307 -118.83 576.229C-57.697 567.976 -19.7 591.919 10.8322 611.158C26.1274 620.795 39.3584 629.132 52.5095 631.497L51.9889 633.175L52.5095 631.497C88.7109 638.03 100.434 633.94 126.12 624.977C147.539 617.504 179.908 606.208 245.185 595.031C302.549 585.207 383.978 595.975 457.7 623.136C499.647 638.59 537.808 658.589 571.125 682.58C608.421 709.436 638.746 740.744 661.259 775.637C702.963 840.276 717.396 915.988 704.159 1000.67C691.117 1084.1 663.627 1166.83 622.454 1246.57C581.555 1325.77 529.251 1397.99 466.997 1461.21C376.378 1553.24 268.603 1621.02 155.324 1657.24C94.9349 1676.55 32.8489 1687 -29.2105 1688.3C-72.8166 1689.22 -116.697 1685.62 -160.287 1677.57ZM-66.9727 580.499C-82.3755 577.657 -99.6622 576.932 -119.364 579.592C-183.649 588.27 -232.228 597.051 -267.878 606.436C-319.3 619.975 -333.447 632.472 -336.261 640.573C-344.232 663.521 -338.865 671.801 -329.122 686.831C-312.381 712.659 -284.36 755.886 -299.115 923.339C-303.563 973.822 -324.594 1040.1 -346.859 1110.27C-379.953 1214.56 -417.461 1332.76 -412.471 1433.85C-406.723 1550.28 -345.178 1623.87 -224.316 1658.82C-159.661 1677.51 -93.772 1686.3 -28.4806 1684.92C33.4056 1683.62 95.3121 1673.2 155.52 1653.95C268.381 1617.87 375.733 1550.36 465.971 1458.72C527.897 1395.83 579.914 1324.01 620.577 1245.27C661.481 1166.05 688.789 1083.87 701.742 1001.01C714.833 917.265 700.518 842.327 659.195 778.278C636.803 743.572 606.622 712.42 569.493 685.683C536.285 661.77 498.239 641.832 456.415 626.423C382.93 599.348 301.81 588.606 244.716 598.383C179.603 609.532 147.334 620.792 125.981 628.243C99.9713 637.318 88.1 641.46 51.4702 634.851C51.4082 634.839 51.344 634.827 51.2823 634.816C37.8932 632.344 24.6284 623.986 9.27734 614.313C-11.187 601.419 -35.028 586.398 -66.9727 580.499Z" fill="url(#paint1_linear_2010_15064)"/>
</g>
<mask id="mask1_2010_15064" style="mask-type:alpha" maskUnits="userSpaceOnUse" x="-362" y="606" width="1025" height="1024">
<path d="M-131.63 1620.27C-149.3 1617.06 -166.913 1613.06 -184.439 1608.27C-294.893 1578.43 -352.49 1513.54 -360.518 1409.91C-367.493 1319.88 -336.17 1213.68 -308.535 1119.99C-289.285 1054.72 -271.102 993.071 -268.622 946.144C-259.201 796.161 -285.522 754.455 -301.248 729.536C-310.752 714.476 -317.033 704.526 -308.819 680.269C-304.334 666.539 -282.634 652.962 -244.334 639.945C-209.877 628.235 -163.337 617.465 -109.743 608.8C-53.6896 599.438 -18.4095 619.159 9.93779 635.003C23.6422 642.662 35.4774 649.277 47.3596 651.456L47.3606 651.455C85.0045 658.453 95.748 655.68 127.592 647.533C148.989 642.06 178.291 634.562 230.637 626.019C284.262 617.249 360.25 627.197 428.944 651.982C468.233 666.158 503.922 684.503 535.017 706.511C569.905 731.203 598.208 760.03 619.14 792.187C656.904 850.202 670.332 918.148 659.053 994.137C647.576 1070.59 622.838 1146.55 585.526 1219.93C548.45 1292.85 500.88 1359.46 444.141 1417.9C362.156 1502.34 264.508 1565.02 161.756 1599.17C106.97 1617.38 50.5869 1627.59 -5.82381 1629.53C-47.6475 1630.97 -89.7814 1627.86 -131.63 1620.27ZM-56.1094 611.887C-71.7813 609.045 -89.5757 608.508 -110.203 611.952C-223.562 630.28 -298.868 656.635 -306.74 680.737C-314.35 703.21 -308.682 712.189 -299.293 727.066C-283.406 752.238 -256.816 794.371 -266.302 945.386C-268.81 992.825 -287.071 1054.74 -306.403 1120.29C-333.925 1213.6 -365.119 1319.36 -358.203 1408.63C-350.254 1511.22 -293.056 1575.5 -183.335 1605.14C-124.433 1621.26 -64.4825 1628.4 -5.14887 1626.36C51.0996 1624.42 107.311 1614.24 161.926 1596.09C264.286 1562.07 361.535 1499.65 443.164 1415.58C499.593 1357.46 546.893 1291.23 583.751 1218.75C620.812 1145.86 645.382 1070.41 656.778 994.494C667.928 919.377 654.614 852.147 617.202 794.674C589.552 752.197 534.238 693.496 427.739 655.073C359.26 630.367 283.556 620.442 230.176 629.17C177.909 637.701 148.652 645.187 127.29 650.652C96.048 658.645 84.3407 661.62 46.3703 654.606C34.2676 652.385 22.3418 645.721 8.53272 638.003C-9.16543 628.111 -29.592 616.696 -56.1094 611.887Z" fill="url(#paint2_linear_2010_15064)"/>
</mask>
<g mask="url(#mask1_2010_15064)">
<path d="M-131.04 1620.25C-148.707 1616.99 -166.318 1612.93 -183.843 1608.08C-294.29 1577.88 -351.924 1512.74 -360.038 1408.96C-367.087 1318.81 -335.863 1212.57 -308.315 1118.85C-289.126 1053.56 -271.001 991.888 -268.561 944.912C-259.27 794.777 -285.619 752.943 -301.361 727.947C-310.876 712.841 -317.162 702.861 -308.971 678.599C-304.5 664.866 -282.818 651.337 -244.54 638.417C-210.104 626.795 -163.586 616.149 -110.016 607.633C-53.9871 598.425 -18.7008 618.273 9.65135 634.22C23.3582 641.929 35.1954 648.587 47.0759 650.803L47.0769 650.803C84.7155 657.921 95.4535 655.176 127.281 647.113C148.667 641.697 177.954 634.276 230.277 625.878C283.879 617.255 359.852 627.44 428.546 652.458C467.836 666.766 503.529 685.239 534.634 707.366C569.532 732.19 597.851 761.135 618.804 793.393C656.606 851.589 670.088 919.656 658.877 995.703C647.468 1072.21 622.802 1148.2 585.563 1221.55C548.559 1294.45 501.06 1360.99 444.388 1419.34C362.499 1503.64 264.933 1566.11 162.24 1599.99C107.487 1618.06 51.1289 1628.12 -5.26333 1629.9C-47.0733 1631.21 -89.1972 1627.97 -131.04 1620.25ZM-56.3956 610.882C-72.0652 607.99 -89.8548 607.399 -110.473 610.787C-223.782 628.802 -299.043 654.966 -306.893 679.074C-314.481 701.551 -308.808 710.558 -299.409 725.48C-283.505 750.73 -256.888 792.992 -266.243 944.16C-268.71 991.649 -286.913 1053.58 -306.184 1119.15C-333.618 1212.5 -364.713 1318.29 -357.724 1407.69C-349.691 1510.42 -292.455 1574.95 -182.742 1604.95C-123.844 1621.26 -63.9054 1628.59 -4.5913 1626.72C51.6387 1624.95 107.825 1614.92 162.408 1596.91C264.708 1563.15 361.876 1500.94 443.409 1417.01C499.772 1358.99 547.002 1292.82 583.787 1220.36C620.775 1147.49 645.274 1072.03 656.603 996.054C667.686 920.88 654.318 853.529 616.869 795.877C589.192 753.267 533.845 694.333 427.345 655.548C358.865 630.61 283.175 620.45 229.819 629.031C177.575 637.417 148.333 644.826 126.982 650.235C95.7559 658.145 84.0545 661.089 46.0896 653.954C33.9887 651.695 22.0608 644.988 8.24925 637.22C-9.45195 627.264 -29.8821 615.775 -56.3956 610.882Z" fill="url(#paint3_linear_2010_15064)"/>
</g>
<mask id="mask2_2010_15064" style="mask-type:alpha" maskUnits="userSpaceOnUse" x="-308" y="636" width="925" height="936">
<path d="M-101.811 1563.15C-115.463 1560.67 -129.1 1557.67 -142.754 1554.13C-242.067 1529.18 -295.305 1473.31 -305.51 1383.34C-314.403 1304.93 -289.429 1211.13 -267.394 1128.37C-251.297 1067.91 -236.093 1010.81 -235.677 966.92C-231.507 833.081 -256.491 792.383 -271.419 768.067C-280.919 752.59 -287.194 742.367 -279.438 718.702C-269.53 686.267 -180.001 655.197 -101.018 640.076C-49.767 629.647 -17.0592 645.375 9.22208 658.013C21.1406 663.745 31.4343 668.695 41.8547 670.68L41.8571 670.679C84.548 678.974 93.3362 677.425 142.106 668.889C160.47 665.675 183.324 661.675 215.664 656.806C248.735 651.804 291.552 654.168 336.225 663.463C386.496 673.923 434.681 692.265 475.573 716.508C523.967 745.199 560.639 780.938 584.57 822.73C612.447 871.415 622.27 927.438 613.762 989.245C603.931 1058.79 582.024 1128.02 548.652 1195.04C515.474 1261.66 472.711 1322.6 421.551 1376.17C348.295 1452.86 260.858 1510.2 168.691 1541.99C80.0155 1572.57 -10.8025 1579.64 -101.811 1563.15ZM-44.6264 641.862C-60.7526 638.939 -79.348 638.532 -101.396 643.02C-195.463 661.029 -269.509 693.015 -277.469 719.075C-284.7 741.136 -279.008 750.41 -269.576 765.774C-254.513 790.311 -229.303 831.378 -233.499 966.068C-233.92 1010.43 -249.193 1067.8 -265.365 1128.53C-287.302 1210.93 -312.167 1304.32 -303.353 1382.03C-293.253 1471.08 -240.388 1526.42 -141.74 1551.2C-37.3205 1578.24 67.1619 1574.17 168.83 1539.11C260.627 1507.45 347.692 1450.36 420.613 1374.02C471.484 1320.76 513.997 1260.18 546.971 1193.97C580.113 1127.42 601.866 1058.67 611.626 989.624C620.031 928.568 610.3 873.169 582.703 824.975C558.909 783.423 522.413 747.87 474.228 719.303C433.456 695.131 385.405 676.839 335.269 666.408C290.749 657.154 248.117 654.786 215.212 659.761C182.892 664.627 160.048 668.626 141.693 671.837C92.6912 680.412 83.8683 681.95 40.9187 673.627C30.3345 671.611 19.9733 666.628 7.97592 660.859C-6.79519 653.758 -23.613 645.672 -44.6264 641.862Z" fill="url(#paint4_linear_2010_15064)"/>
</mask>
<g mask="url(#mask2_2010_15064)">
<path d="M-101.269 1563.13C-114.919 1560.61 -128.555 1557.57 -142.208 1553.99C-241.511 1528.71 -294.781 1472.62 -305.059 1382.5C-314.015 1303.98 -289.129 1210.14 -267.172 1127.35C-251.13 1066.86 -235.98 1009.73 -235.602 965.793C-231.547 831.805 -256.557 790.985 -271.501 766.595C-281.011 751.072 -287.294 740.818 -279.56 717.148C-269.682 684.703 -180.207 653.862 -101.261 638.957C-50.0352 628.668 -17.3241 644.512 8.95984 657.243C20.8796 663.017 31.1743 668.003 41.5932 670.022L41.5956 670.021C84.2804 678.453 93.0647 676.927 141.812 668.527C160.167 665.363 183.012 661.426 215.337 656.647C248.394 651.738 291.2 654.231 335.867 663.67C386.131 674.292 434.317 692.799 475.217 717.193C523.621 746.061 560.312 781.952 584.271 823.865C612.181 872.691 622.048 928.811 613.596 990.666C603.827 1060.26 581.986 1129.52 548.681 1196.51C515.57 1263.12 472.871 1324.01 421.773 1377.48C348.605 1454.05 261.243 1511.2 169.132 1542.75C80.5093 1573.1 -10.2747 1579.92 -101.269 1563.13ZM-44.8858 640.913C-61.0095 637.939 -79.5996 637.475 -101.637 641.903C-195.66 659.655 -269.656 691.459 -277.592 717.527C-284.801 739.593 -279.103 748.895 -269.661 764.305C-254.581 788.916 -229.344 830.107 -233.425 964.946C-233.807 1009.36 -249.027 1066.75 -265.143 1127.51C-287.003 1209.94 -311.781 1303.37 -302.903 1381.2C-292.731 1470.39 -239.835 1525.95 -141.196 1551.05C-36.7858 1578.43 67.6611 1574.67 169.268 1539.87C261.01 1508.45 348 1451.55 420.834 1375.33C471.643 1322.16 514.091 1261.63 547 1195.43C580.074 1128.9 601.762 1060.13 611.461 991.039C619.811 929.935 610.036 874.441 582.406 826.108C558.584 784.434 522.069 748.731 473.875 719.987C433.095 695.664 385.043 677.209 334.914 666.616C290.4 657.218 247.778 654.721 214.888 659.605C182.582 664.38 159.748 668.316 141.402 671.477C92.4223 679.917 83.6035 681.431 40.6601 672.97C30.0774 670.919 19.7151 665.9 7.71651 660.088C-7.0561 652.935 -23.8756 644.789 -44.8858 640.913Z" fill="url(#paint5_linear_2010_15064)"/>
</g>
<mask id="mask3_2010_15064" style="mask-type:alpha" maskUnits="userSpaceOnUse" x="-254" y="666" width="825" height="848">
<path d="M-72.8131 1505.95C-82.2393 1504.24 -91.6656 1502.25 -101.099 1499.98C-189.367 1479.86 -238.213 1432.88 -250.42 1356.36C-261.096 1289.43 -243.157 1211.49 -225.81 1136.1C-213.064 1080.72 -201.026 1028.41 -202.8 987.668C-203.711 870.045 -226.468 832.026 -241.527 806.869C-251.464 790.268 -257.461 780.249 -250.144 757.076C-241.674 727.329 -172.366 689.606 -92.3758 671.258C-45.3616 659.493 -14.956 671.395 9.47611 680.958C18.8223 684.617 27.6506 688.074 36.2809 689.789L36.2836 689.79L40.6451 690.683C90.806 700.962 94.9016 701.797 200.647 687.498C230.367 683.446 270.407 685.809 310.493 693.947C356.599 703.322 400.816 719.612 438.366 741.055C482.981 766.535 516.976 798.312 539.406 835.5C565.571 878.881 575.35 928.935 568.47 984.271C560.291 1046.92 541.221 1109.45 511.787 1170.12C482.507 1230.47 444.544 1285.77 398.953 1334.47C334.416 1403.41 257.18 1455.4 175.595 1484.81C94.4531 1514.05 11.0214 1521.13 -72.8131 1505.95ZM-31.4749 671.278C-48.3802 668.215 -68.2751 667.884 -92.6641 673.987C-170.475 691.836 -240.281 729.235 -248.29 757.359C-255.154 779.096 -249.376 788.752 -239.801 804.747C-225.546 828.562 -201.687 868.421 -200.772 986.716C-198.977 1027.89 -211.076 1080.46 -223.883 1136.11C-241.149 1211.14 -259.002 1288.71 -248.426 1355.01C-236.346 1430.73 -187.853 1477.25 -100.176 1497.24C-7.091 1519.64 85.7248 1514.56 175.703 1482.13C256.941 1452.85 333.83 1401.11 398.057 1332.5C443.378 1284.08 481.109 1229.13 510.202 1169.16C539.424 1108.92 558.356 1046.85 566.475 984.671C573.267 930.037 563.581 880.56 537.686 837.627C515.384 800.653 481.552 769.04 437.13 743.673C399.689 722.289 355.593 706.045 309.608 696.696C269.661 688.571 229.78 686.226 200.205 690.257C94.2274 704.589 90.1103 703.748 39.76 693.43L35.401 692.538C26.6675 690.802 17.7925 687.327 8.39599 683.649C-3.1696 679.122 -16.0831 674.066 -31.4749 671.278Z" fill="url(#paint6_linear_2010_15064)"/>
</mask>
<g mask="url(#mask3_2010_15064)">
<path d="M-72.3178 1505.93C-81.7425 1504.19 -91.1675 1502.17 -100.6 1499.87C-188.857 1479.46 -237.727 1432.28 -249.996 1355.63C-260.726 1288.6 -242.86 1210.61 -225.582 1135.19C-212.888 1079.78 -200.898 1027.44 -202.707 986.647C-203.718 868.881 -226.501 830.749 -241.576 805.516C-251.524 788.866 -257.528 778.818 -250.232 755.638C-241.791 725.881 -172.537 688.321 -92.588 670.189C-45.5988 658.551 -15.1928 670.558 9.23978 680.206C18.5861 683.897 27.4146 687.384 36.0436 689.127L36.0463 689.128L40.4072 690.035C90.5609 700.476 94.656 701.325 200.355 687.325C230.063 683.356 270.092 685.842 310.173 694.109C356.272 703.633 400.489 720.074 438.045 741.655C482.667 767.299 516.679 799.215 539.133 836.514C565.327 880.025 575.146 930.168 568.316 985.549C560.193 1048.25 541.182 1110.79 511.809 1171.45C482.59 1231.79 444.686 1287.04 399.152 1335.66C334.694 1404.49 257.527 1456.31 175.993 1485.51C94.9021 1514.55 11.503 1521.39 -72.3178 1505.93ZM-31.7065 670.391C-48.6091 667.274 -68.4978 666.883 -92.8739 672.921C-170.645 690.559 -240.397 727.794 -248.379 755.928C-255.223 777.67 -249.437 787.354 -239.853 803.397C-225.581 827.283 -201.695 867.261 -200.68 985.7C-198.851 1026.93 -210.9 1079.52 -223.656 1135.2C-240.852 1210.27 -258.633 1287.88 -248.004 1354.29C-235.863 1430.13 -187.346 1476.86 -99.6793 1497.13C-6.60488 1519.84 86.177 1515.03 176.099 1482.83C257.286 1453.76 334.107 1402.18 398.255 1333.68C443.52 1285.34 481.191 1230.44 510.223 1170.48C539.385 1110.26 558.258 1048.18 566.321 985.944C573.065 931.265 563.34 881.7 537.416 838.639C515.089 801.554 481.241 769.803 436.811 744.272C399.364 722.751 355.268 706.356 309.29 696.858C269.348 688.604 229.478 686.137 199.916 690.086C93.9843 704.118 89.8678 703.263 39.5247 692.782L35.1664 691.876C26.4341 690.113 17.559 686.607 8.1623 682.897C-3.40347 678.329 -16.3172 673.229 -31.7065 670.391Z" fill="url(#paint7_linear_2010_15064)"/>
</g>
<mask id="mask4_2010_15064" style="mask-type:alpha" maskUnits="userSpaceOnUse" x="-224" y="694" width="749" height="762">
<path d="M-44.0425 1448.85C-49.2064 1447.92 -54.3672 1446.89 -59.5363 1445.76C-232.903 1411.33 -206.791 1268.73 -183.755 1142.91C-174.608 1092.96 -165.969 1045.78 -170.079 1008.32C-175.824 907.013 -197.35 870.299 -211.594 846.005C-221.792 828.614 -227.947 818.115 -221.042 795.287C-217.199 780.758 -200.737 762.429 -175.894 745.069C-149.515 726.637 -116.847 711.417 -83.9058 702.214C-39.8264 688.454 -12.306 696.551 11.9758 703.695C18.4177 705.591 24.5035 707.38 30.5629 708.645L30.5678 708.645C39.6702 710.615 47.5181 712.592 54.4426 714.336C86.4255 722.391 105.729 727.251 185.539 717.963C236.462 711.955 325.647 724.232 401.12 765.382C441.971 787.655 473.297 815.473 494.228 848.062C518.69 886.145 528.43 930.238 523.179 979.112C516.664 1034.9 500.433 1090.74 474.937 1145.1C449.553 1199.22 416.379 1248.91 376.34 1292.78C320.501 1353.97 253.449 1400.59 182.432 1427.61C108.814 1455.62 32.6995 1462.74 -44.0425 1448.85ZM-15.6069 699.464C-33.8809 696.155 -55.4771 695.791 -84.0972 704.725C-154.869 724.498 -212.148 768.426 -219.307 795.489C-225.824 817.04 -219.863 827.207 -209.987 844.049C-195.649 868.504 -173.98 905.461 -168.209 1007.27C-164.054 1045.1 -172.739 1092.53 -181.933 1142.75C-193.601 1206.47 -205.666 1272.36 -193.493 1327.43C-179.645 1390.08 -135.558 1427.95 -58.7101 1443.22C23.0417 1461.01 104.196 1454.93 182.497 1425.14C253.193 1398.25 319.923 1351.86 375.475 1290.98C415.264 1247.38 448.223 1198.02 473.438 1144.26C498.745 1090.31 514.853 1034.89 521.317 979.538C528.056 916.815 512.479 829.152 399.99 767.82C324.73 726.786 235.84 714.539 185.099 720.525C105.061 729.839 85.6766 724.959 53.5678 716.873C46.6522 715.131 38.8145 713.158 29.7321 711.192C23.6287 709.917 17.5225 708.121 11.0591 706.22C2.7358 703.771 -5.97523 701.208 -15.6069 699.464Z" fill="url(#paint8_linear_2010_15064)"/>
</mask>
<g mask="url(#mask4_2010_15064)">
<path d="M-43.5934 1448.83C-48.7564 1447.88 -53.9164 1446.84 -59.0847 1445.69C-232.424 1410.7 -206.443 1268.01 -183.523 1142.12C-174.422 1092.13 -165.826 1044.92 -169.967 1007.4C-175.798 905.959 -197.348 869.137 -211.608 844.771C-221.818 827.329 -227.98 816.799 -221.097 793.964C-217.268 779.43 -200.827 761.129 -176.007 743.823C-149.653 725.449 -117.009 710.309 -84.0866 701.195C-40.0338 687.551 -12.5156 695.74 11.7642 702.966C18.2056 704.884 24.2909 706.694 30.3494 707.978L30.3544 707.978C39.4554 709.978 47.3024 711.981 54.2261 713.748C86.2053 721.909 105.506 726.832 185.282 717.774C236.183 711.912 325.349 724.473 400.832 765.899C441.688 788.321 473.028 816.266 493.98 848.957C518.467 887.159 528.242 931.333 523.035 980.249C516.569 1036.08 500.392 1091.94 474.952 1146.29C449.622 1200.4 416.502 1250.04 376.514 1293.85C320.747 1354.94 253.757 1401.42 182.787 1428.25C109.218 1456.07 33.135 1462.98 -43.5934 1448.83ZM-15.8129 698.648C-34.0836 695.279 -55.673 694.849 -84.2758 703.708C-155.007 723.292 -212.229 767.099 -219.362 794.172C-225.859 815.729 -219.891 825.926 -210.004 842.818C-195.649 867.344 -173.956 904.411 -168.099 1006.35C-163.913 1044.25 -172.554 1091.71 -181.702 1141.95C-193.311 1205.71 -205.315 1271.64 -193.099 1326.82C-179.202 1389.58 -135.096 1427.64 -58.2609 1443.15C23.479 1461.21 104.601 1455.37 182.85 1425.78C253.499 1399.07 320.167 1352.82 375.648 1292.04C415.387 1248.51 448.292 1199.19 473.452 1145.44C498.704 1091.5 514.759 1036.06 521.173 980.67C527.856 917.893 512.209 830.079 399.704 768.336C324.434 727.027 235.563 714.498 184.844 720.338C104.841 729.421 85.4588 724.478 53.3538 716.285C46.4389 714.521 38.6022 712.521 29.5212 710.526C23.4187 709.231 17.3129 707.414 10.8501 705.491C2.52742 703.015 -6.18291 700.423 -15.8129 698.648Z" fill="url(#paint9_linear_2010_15064)"/>
</g>
<mask id="mask5_2010_15064" style="mask-type:alpha" maskUnits="userSpaceOnUse" x="-195" y="720" width="674" height="678">
<path d="M-23.7365 1390.45C-87.0237 1379.01 -125.168 1349.55 -140.25 1300.52C-153.97 1255.92 -147.465 1201.26 -141.176 1148.41C-135.935 1104.36 -130.984 1062.76 -137.602 1028.79C-147.798 943.979 -168.119 908.882 -181.566 885.658C-192.295 867.127 -198.771 855.943 -192.241 833.222C-184.695 802.378 -133.247 752.831 -75.7181 732.793C-30.533 714.801 -3.98289 720.71 21.6934 726.427L24.6108 727.075C36.9561 729.924 46.9702 733.345 56.6563 736.654C82.6197 745.521 107.144 753.896 170.277 748.054C216.3 743.694 296.492 754.756 363.802 789.346C420.53 818.5 486.373 874.137 477.881 973.634C468.218 1071.51 422.957 1172.62 353.702 1251.07C306.534 1304.49 249.639 1345.74 189.169 1370.35C123.059 1397.25 54.1695 1404.49 -15.6198 1391.87C-16.4472 1391.72 -17.2714 1391.57 -18.0986 1391.41C-20.0006 1391.11 -21.879 1390.79 -23.7365 1390.45ZM5.40297 725.542C-15.8513 721.698 -39.9065 720.787 -75.7929 735.075C-137.294 756.498 -184.117 806.748 -190.626 833.348C-196.828 854.935 -190.525 865.822 -180.08 883.86C-166.562 907.207 -146.133 942.491 -135.899 1027.64C-129.217 1061.93 -134.194 1103.75 -139.463 1148.03C-145.718 1200.6 -152.185 1254.95 -138.613 1299.06C-123.254 1348.99 -83.6035 1378.41 -17.3701 1389.05C-16.5492 1389.21 -15.7175 1389.36 -14.8965 1389.51C54.6876 1402.09 123.328 1394.89 189.198 1368.08C249.369 1343.59 305.968 1302.57 352.875 1249.43C387.156 1210.6 415.357 1166.78 436.695 1119.18C458.089 1071.46 471.366 1022.64 476.159 974.089C484.554 875.733 419.139 820.561 362.784 791.6C295.657 757.103 215.716 746.069 169.844 750.416C106.47 756.281 81.8437 747.869 55.7722 738.965C46.1106 735.665 36.1198 732.253 23.8258 729.415L20.915 728.769C15.8262 727.64 10.7005 726.499 5.40297 725.542Z" fill="url(#paint10_linear_2010_15064)"/>
</mask>
<g mask="url(#mask5_2010_15064)">
<path d="M-23.3282 1390.41C-86.6028 1378.76 -124.759 1349.15 -139.879 1300.02C-153.632 1255.32 -147.178 1200.63 -140.937 1147.73C-135.736 1103.65 -130.823 1062.01 -137.468 1027.98C-147.734 943.039 -168.078 907.839 -181.541 884.547C-192.282 865.961 -198.766 854.744 -192.258 832.016C-184.741 801.16 -133.355 751.711 -75.8637 731.826C-30.7103 713.951 -4.16458 719.947 21.5075 725.749L24.4244 726.407C36.7678 729.297 46.7813 732.752 56.4669 736.095C82.4287 745.051 106.951 753.511 170.057 747.854C216.06 743.629 296.233 754.949 363.548 789.784C420.282 819.145 486.149 875.048 477.747 974.635C468.173 1072.59 423.016 1173.69 353.854 1252.01C306.749 1305.36 249.911 1346.48 189.484 1370.93C123.42 1397.67 54.5622 1404.7 -15.2131 1391.86C-16.0404 1391.7 -16.8645 1391.55 -17.6914 1391.39C-19.593 1391.08 -21.4711 1390.75 -23.3282 1390.41ZM5.22215 724.813C-16.0279 720.9 -40.0753 719.914 -75.9364 734.11C-137.397 755.37 -184.159 805.536 -190.643 832.148C-196.824 853.741 -190.513 864.66 -180.057 882.751C-166.523 906.167 -146.071 941.554 -135.766 1026.83C-129.057 1061.18 -133.996 1103.04 -139.224 1147.36C-145.432 1199.96 -151.848 1254.36 -138.244 1298.57C-122.846 1348.6 -83.1842 1378.17 -16.9653 1389.03C-16.1446 1389.19 -15.313 1389.34 -14.4922 1389.49C55.078 1402.31 123.688 1395.3 189.511 1368.66C249.639 1344.33 306.182 1303.43 353.026 1250.38C387.261 1211.61 415.414 1167.82 436.703 1120.22C458.047 1072.51 471.277 1023.68 476.026 975.086C484.333 876.641 418.893 821.204 362.533 792.038C295.4 757.296 215.478 746.006 169.626 750.217C106.28 755.896 81.655 747.399 55.5851 738.405C45.9241 735.072 35.9339 731.625 23.6418 728.747L20.7314 728.091C15.6435 726.946 10.5186 725.788 5.22215 724.813Z" fill="url(#paint11_linear_2010_15064)"/>
</g>
<mask id="mask6_2010_15064" style="mask-type:alpha" maskUnits="userSpaceOnUse" x="-166" y="742" width="599" height="598">
<path d="M6.33953 1333.95C-40.0921 1325.56 -70.061 1304.78 -85.0264 1270.74C-99.9248 1236.84 -98.8143 1193.54 -97.7386 1151.66C-96.8205 1115.89 -95.8702 1078.89 -105.157 1048.75C-119.15 980.804 -138.257 947.884 -150.9 926.1C-162.662 905.835 -169.763 893.603 -163.545 870.606C-156.929 841.242 -116.274 784.552 -67.666 762.717C-32.4359 744.2 -6.64715 738.83 18.5313 744.764L18.5365 744.766C31.8553 748.072 42.7348 752.999 54.2545 758.214C78.5991 769.235 103.774 780.633 154.958 777.491C196.316 774.83 267.625 784.699 326.458 812.658C377.441 836.886 437.242 883.413 432.603 967.477C426.357 1051.95 389.381 1139.95 331.151 1208.93C292.632 1254.57 245.884 1290.4 195.961 1312.55C140.739 1337.06 82.6983 1345.08 23.4492 1336.4C17.5181 1335.75 11.8106 1334.94 6.33953 1333.95ZM13.2985 745.97C-10.2009 741.725 -34.7355 747.476 -67.594 764.744C-115.555 786.291 -155.56 841.862 -162.05 870.664C-167.995 892.656 -161.44 903.95 -149.539 924.451C-136.846 946.321 -117.663 979.369 -103.636 1047.51C-94.2709 1077.89 -95.2266 1115.08 -96.15 1151.05C-97.2182 1192.68 -98.3231 1235.72 -83.5927 1269.23C-67.0419 1306.89 -31.8247 1328.14 24.0743 1334.24C83.1319 1342.89 140.95 1334.9 195.942 1310.5C245.591 1288.46 292.069 1252.85 330.35 1207.49C388.134 1139.04 424.827 1051.74 431.02 967.977C435.6 884.933 376.192 838.806 325.549 814.739C266.868 786.853 195.76 777.008 154.527 779.66C103.092 782.82 77.8107 771.374 53.362 760.301C41.882 755.105 31.0383 750.194 17.8015 746.908C16.3032 746.554 14.8024 746.242 13.2985 745.97Z" fill="url(#paint12_linear_2010_15064)"/>
</mask>
<g mask="url(#mask6_2010_15064)">
<path d="M6.7051 1333.92C-39.7159 1325.38 -69.6914 1304.49 -84.6809 1270.35C-99.6034 1236.37 -98.5315 1193.02 -97.4931 1151.1C-96.6069 1115.29 -95.6896 1078.26 -105 1048.05C-119.047 979.984 -138.176 946.967 -150.833 925.119C-162.608 904.794 -169.717 892.526 -163.522 869.523C-156.934 840.145 -116.345 783.516 -67.775 761.806C-32.5749 743.377 -6.80092 738.08 18.3729 744.099L18.3782 744.101C31.6947 747.452 42.5743 752.418 54.0941 757.675C78.439 768.784 103.614 780.273 154.775 777.286C196.115 774.749 267.405 784.85 326.24 813.023C377.224 837.436 437.042 884.201 432.48 968.347C426.311 1052.9 389.426 1140.89 331.28 1209.77C292.816 1255.33 246.118 1291.06 196.234 1313.08C141.055 1337.45 83.044 1345.3 23.8103 1336.43C17.8809 1335.76 12.1749 1334.93 6.7051 1333.92ZM13.1433 745.291C-10.3507 740.968 -34.8707 746.649 -67.7012 763.836C-115.624 785.26 -155.565 840.77 -162.027 869.585C-167.95 891.584 -161.388 902.911 -149.474 923.473C-136.766 945.406 -117.562 978.552 -103.48 1046.81C-94.0918 1077.26 -95.0143 1114.49 -95.9056 1150.5C-96.9367 1192.17 -98.0034 1235.25 -83.2491 1268.85C-66.6716 1306.6 -31.4494 1327.99 24.4333 1334.26C83.4754 1343.11 141.264 1335.29 196.213 1311.03C245.823 1289.12 292.252 1253.61 330.478 1208.32C388.179 1139.97 424.781 1052.68 430.897 968.843C435.403 885.717 375.977 839.354 325.332 815.103C266.65 787.004 195.561 776.928 154.346 779.456C102.934 782.46 77.6527 770.923 53.2038 759.762C41.7236 754.524 30.8798 749.574 17.6453 746.243C16.1473 745.884 14.6468 745.568 13.1433 745.291Z" fill="url(#paint13_linear_2010_15064)"/>
</g>
<mask id="mask7_2010_15064" style="mask-type:alpha" maskUnits="userSpaceOnUse" x="-135" y="759" width="523" height="519">
<path d="M37.6117 1273.37C-37.0995 1259.87 -43.8725 1205.42 -51.0022 1148.13C-54.5186 1119.88 -58.154 1090.66 -70.0648 1065.14C-86.5012 1015.05 -103.453 986.758 -115.83 966.098C-130.108 942.268 -137.972 929.139 -131.983 905.274C-128.664 889.193 -118.825 866.185 -106.319 845.292C-91.2045 820.04 -73.7707 800.569 -57.23 790.467C-29.5016 770.138 -6.5775 754.985 14.4628 760.355L14.468 760.357C27.6807 763.925 39.4508 770.706 51.9127 777.881C74.4048 790.836 99.8995 805.517 141.045 804.75C169.571 804.106 232.993 809.477 289.742 833.678C319.266 846.27 342.529 862.129 358.884 880.816C378.206 902.893 387.834 928.955 387.499 958.28C384.83 1029.06 356.353 1103.65 309.37 1162.98C279.633 1200.53 243.213 1230.68 204.047 1250.18C160.736 1271.74 114.67 1280.55 67.1318 1276.39C56.2652 1276 46.4602 1274.97 37.6117 1273.37ZM11.4474 761.779C-8.52307 758.17 -30.5094 772.789 -56.966 792.183C-94.7826 815.282 -125.005 878.076 -130.619 905.271C-136.384 928.247 -128.65 941.156 -114.609 964.593C-102.2 985.304 -85.2051 1013.67 -68.751 1063.83C-56.7704 1089.49 -53.1159 1118.85 -49.5833 1147.24C-45.5553 1179.61 -41.7502 1210.19 -26.198 1233.5C-8.67264 1259.77 21.1451 1272.77 67.6399 1274.43C115.007 1278.58 160.868 1269.8 203.971 1248.35C242.889 1228.98 279.066 1199.03 308.593 1161.75C355.181 1102.92 383.419 1028.96 386.064 958.836C386.393 930.002 376.875 904.301 357.777 882.48C341.512 863.897 318.355 848.116 288.951 835.577C232.335 811.434 169.07 806.076 140.614 806.716C99.2233 807.491 73.6199 792.745 51.0327 779.735C38.6206 772.587 26.8955 765.834 13.7879 762.292C13.0114 762.091 12.2314 761.92 11.4474 761.779Z" fill="url(#paint14_linear_2010_15064)"/>
</mask>
<g mask="url(#mask7_2010_15064)">
<path d="M37.9078 1273.42C-36.7871 1259.67 -43.6053 1205.13 -50.7825 1147.75C-54.3224 1119.46 -57.9821 1090.19 -69.9107 1064.61C-86.3849 1014.41 -103.355 986.035 -115.746 965.313C-130.039 941.411 -137.911 928.243 -131.945 904.369C-128.642 888.279 -118.827 865.275 -106.344 844.396C-91.2574 819.162 -73.8472 799.722 -57.3216 789.659C-29.6215 769.392 -6.71933 754.291 14.3178 759.732L14.323 759.734C27.5338 763.347 39.3054 770.172 51.7689 777.394C74.2639 790.432 99.7619 805.209 140.892 804.568C169.406 804.011 232.809 809.583 289.557 833.987C319.082 846.683 342.35 862.633 358.715 881.392C378.049 903.553 387.696 929.675 387.387 959.032C384.781 1029.88 356.38 1104.48 309.467 1163.73C279.774 1201.23 243.394 1231.3 204.261 1250.7C160.984 1272.16 114.944 1280.84 67.4195 1276.52C56.5566 1276.1 46.7544 1275.04 37.9078 1273.42ZM11.3048 761.149C-8.66137 757.474 -30.6266 772.042 -57.0562 791.377C-94.8384 814.387 -124.994 877.161 -130.582 904.37C-136.325 927.354 -128.582 940.302 -114.526 963.81C-102.104 984.583 -85.0905 1013.03 -68.5985 1063.3C-56.6 1089.03 -52.9211 1118.43 -49.3649 1146.87C-45.31 1179.29 -41.4796 1209.91 -25.9128 1233.3C-8.37101 1259.65 21.4469 1272.76 67.9257 1274.56C115.279 1278.87 161.115 1270.22 204.183 1248.87C243.069 1229.6 279.206 1199.73 308.69 1162.49C355.208 1103.74 383.37 1029.78 385.953 959.585C386.256 930.719 376.72 904.959 357.61 883.054C341.334 864.399 318.173 848.529 288.768 835.885C232.153 811.54 168.907 805.981 140.462 806.535C99.0876 807.183 73.481 792.342 50.8909 779.248C38.4772 772.053 26.7505 765.256 13.6448 761.67C12.8684 761.465 12.0885 761.293 11.3048 761.149Z" fill="url(#paint15_linear_2010_15064)"/>
</g>
<mask id="mask8_2010_15064" style="mask-type:alpha" maskUnits="userSpaceOnUse" x="-104" y="774" width="447" height="444">
<path d="M66.1963 1214.88C21.0398 1206.72 8.58391 1176.08 -6.35362 1139.34C-14.1526 1120.16 -22.2154 1100.34 -35.8643 1080.95C-51.7674 1050.13 -65.897 1028.65 -77.251 1011.39C-96.73 981.766 -107.46 965.45 -101.428 939.058C-95.8581 909.411 -73.6909 840.952 -47.726 817.184C-46.0326 815.265 -44.3386 813.323 -42.6454 811.384C-24.9531 791.118 -6.65146 770.167 9.68953 774.757L9.69476 774.759C22.3504 778.524 34.9626 787.45 48.3163 796.9C69.9231 812.191 94.4102 829.52 126.674 830.887C161.646 832.199 336.405 844.023 342.411 948.246C343.556 1005.67 323.613 1067.32 287.7 1117.45C266.273 1147.35 240.724 1171.13 211.764 1188.12C180.203 1206.63 146.023 1216.11 110.175 1216.27C92.7237 1217.63 78.285 1217.06 66.1963 1214.88ZM7.57519 776.143C-7.79086 773.368 -25.1835 793.29 -42.0238 812.58C-43.7326 814.538 -45.4426 816.495 -47.1517 818.433L-47.2328 818.517C-72.783 841.853 -94.6691 909.597 -100.195 939.005C-106.044 964.593 -95.4366 980.722 -76.1805 1010C-64.8139 1027.29 -50.6669 1048.8 -34.7757 1079.6C-21.093 1099.03 -13.0046 1118.92 -5.18178 1138.15C13.6151 1184.38 28.4656 1220.89 110.54 1214.52C146.241 1214.35 180.234 1204.94 211.608 1186.53C240.343 1169.67 265.686 1146.09 286.932 1116.44C322.506 1066.79 342.259 1005.71 341.127 948.879C338.734 907.354 308.81 875.866 252.188 855.329C202.348 837.25 147.505 833.442 126.238 832.644C93.7506 831.264 69.1618 813.869 47.4698 798.519C34.1692 789.106 21.6047 780.215 9.06784 776.484C8.57292 776.347 8.07533 776.233 7.57519 776.143Z" fill="url(#paint16_linear_2010_15064)"/>
</mask>
<g mask="url(#mask8_2010_15064)">
<path d="M66.4354 1214.98C21.289 1206.68 8.81096 1175.96 -6.15313 1139.14C-13.966 1119.92 -22.0431 1100.04 -35.7039 1080.59C-51.6279 1049.69 -65.7709 1028.14 -77.1358 1010.82C-96.6334 981.104 -107.374 964.737 -101.367 938.333C-95.8255 908.669 -73.7269 840.2 -47.7928 816.485C-46.1017 814.568 -44.4101 812.63 -42.7193 810.693C-25.0515 790.459 -6.77533 769.54 9.56344 774.185L9.56865 774.187C22.2228 777.996 34.8379 786.971 48.1949 796.473C69.8068 811.848 94.2998 829.273 126.552 830.741C161.512 832.162 336.215 844.538 342.31 948.899C343.505 1006.39 323.624 1068.06 287.769 1118.13C266.376 1148 240.857 1171.73 211.923 1188.65C180.391 1207.08 146.233 1216.46 110.399 1216.52C92.955 1217.83 78.5214 1217.21 66.4354 1214.98ZM7.45112 775.567C-7.91149 772.741 -25.2799 792.632 -42.0968 811.892C-43.8032 813.847 -45.5109 815.802 -47.2176 817.737L-47.2986 817.821C-72.8185 841.105 -94.6367 908.859 -100.135 938.283C-105.959 963.883 -95.3414 980.063 -76.0669 1009.44C-64.6895 1026.78 -50.529 1048.36 -34.6169 1079.25C-20.9223 1098.73 -12.8195 1118.67 -4.98278 1137.95C13.8475 1184.29 28.7244 1220.89 110.762 1214.77C146.449 1214.71 180.42 1205.38 211.766 1187.06C240.476 1170.27 265.788 1146.74 287 1117.12C322.517 1067.52 342.208 1006.43 341.027 949.53C338.599 907.949 308.658 876.333 252.04 855.597C202.203 837.345 147.377 833.363 126.118 832.499C93.642 831.017 69.0473 813.526 47.3502 798.091C34.0463 788.627 21.4788 779.686 8.9435 775.913C8.44865 775.774 7.95114 775.659 7.45112 775.567Z" fill="url(#paint17_linear_2010_15064)"/>
</g>
<mask id="mask9_2010_15064" style="mask-type:alpha" maskUnits="userSpaceOnUse" x="-73" y="788" width="372" height="376">
<path d="M88.2572 1162.58C61.4842 1157.74 44.0516 1140.91 19.9525 1117.65C13.1034 1111.04 6.02187 1104.2 -2.07159 1096.83C-7.50952 1090.38 -12.6178 1084.37 -17.428 1078.72C-59.2811 1029.5 -78.3838 1007.03 -71.4315 972.69C-67.0832 947.081 -53.8365 869.085 -38.7282 843.564C-26.1678 815.547 -9.89296 784.021 4.47917 788.564L4.4844 788.566C16.4048 792.541 30.0706 804.125 44.5401 816.388C64.9464 833.684 88.0728 853.281 112.085 856.585C116.662 857.187 122.177 857.785 128.564 858.477C154.728 861.313 194.264 865.603 228.429 876.906C269.306 890.43 292.525 910.939 297.441 937.863C302.958 981.621 291.58 1032.26 267.014 1073.37C239.772 1118.95 199.343 1148.38 153.171 1156.26C125.304 1163.94 104.962 1165.59 88.2572 1162.58ZM2.83096 789.821C-10.5357 787.407 -25.8731 817.41 -37.8346 844.098L-37.9011 844.226C-52.7844 869.282 -65.9918 947.042 -70.3304 972.595C-77.1264 1006.16 -58.1409 1028.49 -16.5423 1077.41C-11.7319 1083.07 -6.62231 1089.08 -1.21903 1095.49C6.84702 1102.83 13.9326 1109.67 20.7862 1116.29C59.7392 1153.89 81.1955 1174.6 153.348 1154.73C199.189 1146.91 239.261 1117.76 266.226 1072.64C290.526 1031.98 301.776 981.88 296.323 938.617C291.484 912.124 268.447 891.86 227.855 878.429C193.756 867.15 154.264 862.864 128.128 860.031C121.738 859.338 116.219 858.74 111.631 858.138C87.4167 854.806 64.2171 835.142 43.7414 817.787C29.3263 805.568 15.7087 794.026 3.91181 790.091C3.55367 789.975 3.19229 789.886 2.83096 789.821Z" fill="url(#paint18_linear_2010_15064)"/>
</mask>
<g mask="url(#mask9_2010_15064)">
<path d="M88.4495 1162.74C61.6833 1157.82 44.2429 1140.91 20.1332 1117.55C13.2811 1110.91 6.19634 1104.04 -1.90031 1096.64C-7.34173 1090.16 -12.4533 1084.13 -17.2664 1078.45C-59.146 1029.05 -78.2607 1006.5 -71.3418 972.141C-67.018 946.517 -53.846 868.474 -38.7666 842.971C-26.2362 814.962 -9.99608 783.451 4.37416 788.043L4.37939 788.045C16.2984 792.062 29.9689 803.702 44.4433 816.024C64.8566 833.403 87.9907 853.095 111.996 856.477C116.572 857.094 122.085 857.71 128.47 858.422C154.625 861.344 194.149 865.761 228.311 877.183C269.182 890.85 292.41 911.455 297.347 938.424C302.901 982.249 291.573 1032.91 267.053 1073.99C239.863 1119.53 199.477 1148.88 153.331 1156.62C125.483 1164.22 105.15 1165.81 88.4495 1162.74ZM2.72775 789.297C-10.6355 786.839 -25.94 816.828 -37.8729 843.509L-37.9392 843.637C-52.7942 868.674 -65.9271 946.481 -70.2413 972.05C-77.0047 1005.63 -58.0072 1028.05 -16.3823 1077.15C-11.5689 1082.83 -6.45605 1088.86 -1.0493 1095.3C7.01994 1102.67 14.1087 1109.54 20.9653 1116.19C59.9356 1153.95 81.4015 1174.76 153.506 1155.09C199.321 1147.4 239.351 1118.34 266.265 1073.26C290.519 1032.63 301.72 982.504 296.231 939.176C291.37 912.638 268.325 892.28 227.738 878.707C193.643 867.308 154.163 862.895 128.036 859.977C121.648 859.263 116.131 858.647 111.544 858.03C87.3363 854.619 64.1288 834.861 43.6461 817.423C29.2262 805.145 15.6039 793.547 3.80839 789.571C3.45029 789.453 3.08899 789.363 2.72775 789.297Z" fill="url(#paint19_linear_2010_15064)"/>
</g>
<mask id="mask10_2010_15064" style="mask-type:alpha" maskUnits="userSpaceOnUse" x="-43" y="802" width="305" height="332">
<path d="M80.5922 1131.71C64.9317 1128.89 48.7961 1123.02 31.9154 1114.07C-25.9389 1076.67 -47.8809 1044.8 -41.4766 1007.49C-38.8637 990.314 -36.5044 956.897 -34.424 927.414C-32.7749 904.068 -31.2195 882.018 -29.7457 870.714C-29.2013 860.975 -26.5907 847.69 -22.7678 835.25C-18.581 821.623 -13.6959 811.3 -9.01312 806.181C-6.122 803.02 -3.37412 801.893 -0.846535 802.821L-0.843828 802.822C10.4118 807.125 25.8128 822.504 42.1175 838.787C61.4913 858.133 81.5246 878.138 97.6245 883.053C106.4 885.676 121.139 887.085 138.205 888.715C180.566 892.764 238.587 898.306 252.855 928.143C264.559 958.392 263.727 998.414 250.697 1032.62C239.752 1061.37 221.177 1083.65 196.981 1097.07C167.707 1117.81 142.73 1129.1 118.437 1132.54C106.045 1134.3 93.4789 1134.03 80.5922 1131.71ZM-2.11872 803.936C-4.12385 803.575 -6.28666 804.646 -8.56208 807.134C-18.1146 817.576 -27.654 850.678 -28.7636 870.455C-30.2362 881.771 -31.791 903.794 -33.4371 927.112C-35.5202 956.63 -37.8823 990.088 -40.5095 1007.36C-46.8155 1044.1 -24.9725 1075.63 32.5252 1112.79C63.1586 1129.05 91.3367 1135.07 118.65 1131.2C142.799 1127.77 167.641 1116.54 196.827 1095.86C220.751 1082.59 239.064 1060.64 249.842 1032.34C262.713 998.542 263.523 958.977 251.958 929.081C237.872 899.63 180.053 894.106 137.832 890.071C120.735 888.437 105.969 887.029 97.1363 884.385C80.8977 879.425 60.8093 859.367 41.3829 839.969C25.125 823.734 9.76795 808.4 -1.37088 804.142C-1.61611 804.049 -1.8661 803.981 -2.11872 803.936Z" fill="url(#paint20_linear_2010_15064)"/>
</mask>
<g mask="url(#mask10_2010_15064)">
<path d="M80.7676 1131.85C65.1119 1128.97 48.9787 1123.05 32.0979 1114.03C-25.7628 1076.41 -47.7231 1044.44 -41.3555 1007.11C-38.7593 989.919 -36.4312 956.474 -34.3783 926.966C-32.7511 903.6 -31.2163 881.531 -29.7534 870.22C-29.218 860.472 -26.6206 847.181 -22.8107 834.739C-18.6382 821.112 -13.7646 810.792 -9.08875 805.683C-6.20185 802.527 -3.45627 801.408 -0.929046 802.346L-0.926343 802.347C10.3279 806.69 25.7354 822.134 42.0471 838.486C61.4292 857.914 81.471 878.005 97.5678 882.976C106.341 885.63 121.074 887.087 138.134 888.773C180.479 892.96 238.478 898.692 252.766 928.607C264.491 958.925 263.695 998.988 250.703 1033.19C239.788 1061.93 221.242 1084.18 197.071 1097.53C167.828 1118.21 142.873 1129.43 118.595 1132.8C106.21 1134.52 93.6503 1134.21 80.7676 1131.85ZM-2.19963 803.457C-4.20413 803.089 -6.36496 804.155 -8.63706 806.638C-18.1756 817.061 -27.6807 850.169 -28.772 869.964C-30.2337 881.287 -31.7679 903.329 -33.3921 926.667C-35.4477 956.21 -37.7786 989.697 -40.3889 1006.98C-46.6589 1043.74 -24.7977 1075.37 32.7063 1112.76C63.3398 1129.12 91.51 1135.24 118.807 1131.45C142.941 1128.1 167.762 1116.94 196.916 1096.33C220.816 1083.12 239.101 1061.2 249.848 1032.9C262.682 999.113 263.456 959.508 251.869 929.543C237.764 900.015 179.967 894.303 137.763 890.129C120.672 888.439 105.912 886.982 97.081 884.308C80.8456 879.291 60.7486 859.148 41.3139 839.667C25.0491 823.363 9.68544 807.964 -1.45195 803.666C-1.69715 803.572 -1.94708 803.503 -2.19963 803.457Z" fill="url(#paint21_linear_2010_15064)"/>
</g>
<mask id="mask11_2010_15064" style="mask-type:alpha" maskUnits="userSpaceOnUse" x="-24" y="821" width="274" height="320">
<path d="M72.3615 1138.17C70.3798 1137.81 68.4156 1137.4 66.4649 1136.94C34.7259 1129.41 12.251 1116.42 -0.336414 1098.32C-10.218 1084.11 -13.9114 1067.12 -11.3115 1047.82C-7.0546 1016.21 -12.6731 929.37 -20.705 902.631C-23.6983 892.667 -24.0727 876.999 -21.7308 859.644C-19.6122 843.941 -15.6347 830.083 -11.5966 824.336C-9.80029 821.78 -7.99194 820.82 -6.37825 821.551C4.92796 826.67 25.3987 850.686 45.1949 873.91C60.5449 891.919 75.044 908.929 83.2311 914.53C92.5152 920.883 116.378 919.817 141.639 918.691C167.662 917.529 194.573 916.327 208.395 923.079C222.854 930.143 236.434 947.46 243.835 968.273C252.485 992.598 251.949 1018.78 242.328 1041.99C231.068 1069.16 205.348 1096.78 173.529 1115.89C139.868 1136.1 104.197 1143.91 72.3615 1138.17ZM-7.37871 822.5C-8.54363 822.29 -9.76047 823.11 -11.0812 824.99C-18.9046 836.123 -26.4882 880.011 -19.9037 901.929C-11.8418 928.765 -6.20455 1015.93 -10.4779 1047.66C-13.035 1066.65 -9.38838 1083.38 0.360914 1097.39C12.867 1115.37 35.239 1128.29 66.8535 1135.79C99.9785 1143.65 137.831 1136.21 173.418 1114.85C204.525 1096.17 230.658 1068.14 241.618 1041.69C251.085 1018.86 251.593 993.047 243.049 969.02C235.706 948.368 222.239 931.191 207.906 924.188C194.199 917.492 167.358 918.69 141.399 919.85C116.048 920.982 92.1042 922.052 82.679 915.605C74.4352 909.964 59.9124 892.926 44.5372 874.889C24.7792 851.71 4.34952 827.74 -6.85305 822.668C-7.02698 822.587 -7.20211 822.532 -7.37871 822.5Z" fill="url(#paint22_linear_2010_15064)"/>
</mask>
<g mask="url(#mask11_2010_15064)">
<path d="M72.548 1138.25C70.5671 1137.88 68.6037 1137.47 66.6537 1137C34.926 1129.36 12.4522 1116.28 -0.144579 1098.13C-10.0334 1083.88 -13.7403 1066.86 -11.1594 1047.54C-6.9338 1015.92 -12.6283 928.973 -20.68 902.182C-23.6807 892.198 -24.0691 876.514 -21.7444 859.149C-19.6413 843.437 -15.6787 829.579 -11.6482 823.839C-9.85524 821.287 -8.04881 820.331 -6.43537 821.068C4.86903 826.229 25.3499 850.334 45.156 873.645C60.5136 891.72 75.0199 908.794 83.2075 914.427C92.492 920.816 116.34 919.825 141.586 918.779C167.593 917.7 194.487 916.583 208.308 923.386C222.765 930.503 236.352 947.881 243.768 968.738C252.436 993.115 251.924 1019.32 242.329 1042.53C231.1 1069.68 205.421 1097.25 173.637 1116.27C140.014 1136.4 104.37 1144.1 72.548 1138.25ZM-7.4344 822.015C-8.59884 821.801 -9.81423 822.618 -11.1325 824.496C-18.9413 835.614 -26.4805 879.521 -19.8797 901.482C-11.798 928.37 -6.0845 1015.64 -10.3265 1047.39C-12.8648 1066.38 -9.20498 1083.14 0.551503 1097.2C13.0668 1115.24 35.4378 1128.24 67.041 1135.85C100.154 1143.83 137.979 1136.5 173.525 1115.23C204.598 1096.63 230.69 1068.66 241.62 1042.22C251.06 1019.39 251.544 993.561 242.983 969.484C235.626 948.788 222.151 931.55 207.82 924.494C194.114 917.748 167.29 918.861 141.347 919.939C116.012 920.99 92.0823 921.984 82.6567 915.5C74.4124 909.828 59.8824 892.726 44.4996 874.622C24.7318 851.357 4.2919 827.298 -6.90888 822.185C-7.08279 822.103 -7.25786 822.048 -7.4344 822.015Z" fill="url(#paint23_linear_2010_15064)"/>
</g>
<defs>
<linearGradient id="paint0_linear_2010_15064" x1="-7.36815" y1="394.763" x2="671.712" y2="1323.46" gradientUnits="userSpaceOnUse">
<stop stop-color="white"/>
<stop offset="0.0436" stop-color="#B4B4B4"/>
<stop offset="0.1507"/>
<stop offset="0.1714" stop-color="#171717"/>
<stop offset="0.3859" stop-color="white"/>
<stop offset="0.6326" stop-color="#E6E6E6"/>
<stop offset="0.8567" stop-color="#1A1A1A"/>
<stop offset="0.9987"/>
</linearGradient>
<linearGradient id="paint1_linear_2010_15064" x1="-7.85811" y1="393.653" x2="672.063" y2="1325.28" gradientUnits="userSpaceOnUse">
<stop stop-color="#0522AC"/>
<stop offset="1" stop-color="#34384C" stop-opacity="0"/>
</linearGradient>
<linearGradient id="paint2_linear_2010_15064" x1="8.8399" y1="441.517" x2="632.241" y2="1293.91" gradientUnits="userSpaceOnUse">
<stop stop-color="white"/>
<stop offset="0.0436" stop-color="#B4B4B4"/>
<stop offset="0.1507"/>
<stop offset="0.1714" stop-color="#171717"/>
<stop offset="0.3859" stop-color="white"/>
<stop offset="0.6326" stop-color="#E6E6E6"/>
<stop offset="0.8567" stop-color="#1A1A1A"/>
<stop offset="0.9987"/>
</linearGradient>
<linearGradient id="paint3_linear_2010_15064" x1="8.38933" y1="440.5" x2="632.56" y2="1295.59" gradientUnits="userSpaceOnUse">
<stop stop-color="#0522AC"/>
<stop offset="1" stop-color="#34384C" stop-opacity="0"/>
</linearGradient>
<linearGradient id="paint4_linear_2010_15064" x1="24.8413" y1="487.569" x2="593.005" y2="1264.26" gradientUnits="userSpaceOnUse">
<stop stop-color="white"/>
<stop offset="0.0436" stop-color="#B4B4B4"/>
<stop offset="0.1507"/>
<stop offset="0.1714" stop-color="#171717"/>
<stop offset="0.3859" stop-color="white"/>
<stop offset="0.6326" stop-color="#E6E6E6"/>
<stop offset="0.8567" stop-color="#1A1A1A"/>
<stop offset="0.9987"/>
</linearGradient>
<linearGradient id="paint5_linear_2010_15064" x1="24.429" y1="486.641" x2="593.291" y2="1265.79" gradientUnits="userSpaceOnUse">
<stop stop-color="#0522AC"/>
<stop offset="1" stop-color="#34384C" stop-opacity="0"/>
</linearGradient>
<linearGradient id="paint6_linear_2010_15064" x1="40.5663" y1="532.64" x2="554.104" y2="1234.46" gradientUnits="userSpaceOnUse">
<stop stop-color="white"/>
<stop offset="0.0436" stop-color="#B4B4B4"/>
<stop offset="0.1507"/>
<stop offset="0.1714" stop-color="#171717"/>
<stop offset="0.3859" stop-color="white"/>
<stop offset="0.6326" stop-color="#E6E6E6"/>
<stop offset="0.8567" stop-color="#1A1A1A"/>
<stop offset="0.9987"/>
</linearGradient>
<linearGradient id="paint7_linear_2010_15064" x1="40.1927" y1="531.803" x2="554.358" y2="1235.85" gradientUnits="userSpaceOnUse">
<stop stop-color="#0522AC"/>
<stop offset="1" stop-color="#34384C" stop-opacity="0"/>
</linearGradient>
<linearGradient id="paint8_linear_2010_15064" x1="55.7118" y1="575.463" x2="515.951" y2="1204.2" gradientUnits="userSpaceOnUse">
<stop stop-color="white"/>
<stop offset="0.0436" stop-color="#B4B4B4"/>
<stop offset="0.1507"/>
<stop offset="0.1714" stop-color="#171717"/>
<stop offset="0.3859" stop-color="white"/>
<stop offset="0.6326" stop-color="#E6E6E6"/>
<stop offset="0.8567" stop-color="#1A1A1A"/>
<stop offset="0.9987"/>
</linearGradient>
<linearGradient id="paint9_linear_2010_15064" x1="55.3753" y1="574.713" x2="516.172" y2="1205.46" gradientUnits="userSpaceOnUse">
<stop stop-color="#0522AC"/>
<stop offset="1" stop-color="#34384C" stop-opacity="0"/>
</linearGradient>
<linearGradient id="paint10_linear_2010_15064" x1="69.7959" y1="614.606" x2="478.911" y2="1173.22" gradientUnits="userSpaceOnUse">
<stop stop-color="white"/>
<stop offset="0.0436" stop-color="#B4B4B4"/>
<stop offset="0.1507"/>
<stop offset="0.1714" stop-color="#171717"/>
<stop offset="0.3859" stop-color="white"/>
<stop offset="0.6326" stop-color="#E6E6E6"/>
<stop offset="0.8567" stop-color="#1A1A1A"/>
<stop offset="0.9987"/>
</linearGradient>
<linearGradient id="paint11_linear_2010_15064" x1="69.4955" y1="613.944" x2="479.101" y2="1174.35" gradientUnits="userSpaceOnUse">
<stop stop-color="#0522AC"/>
<stop offset="1" stop-color="#34384C" stop-opacity="0"/>
</linearGradient>
<linearGradient id="paint12_linear_2010_15064" x1="81.162" y1="649.911" x2="441.853" y2="1142.14" gradientUnits="userSpaceOnUse">
<stop stop-color="white"/>
<stop offset="0.0436" stop-color="#B4B4B4"/>
<stop offset="0.1507"/>
<stop offset="0.1714" stop-color="#171717"/>
<stop offset="0.3859" stop-color="white"/>
<stop offset="0.6326" stop-color="#E6E6E6"/>
<stop offset="0.8567" stop-color="#1A1A1A"/>
<stop offset="0.9987"/>
</linearGradient>
<linearGradient id="paint13_linear_2010_15064" x1="80.896" y1="649.332" x2="442.01" y2="1143.14" gradientUnits="userSpaceOnUse">
<stop stop-color="#0522AC"/>
<stop offset="1" stop-color="#34384C" stop-opacity="0"/>
</linearGradient>
<linearGradient id="paint14_linear_2010_15064" x1="78.8512" y1="690.417" x2="391.835" y2="1117.63" gradientUnits="userSpaceOnUse">
<stop stop-color="white"/>
<stop offset="0.0436" stop-color="#B4B4B4"/>
<stop offset="0.1507"/>
<stop offset="0.1714" stop-color="#171717"/>
<stop offset="0.3859" stop-color="white"/>
<stop offset="0.6326" stop-color="#E6E6E6"/>
<stop offset="0.8567" stop-color="#1A1A1A"/>
<stop offset="0.9987"/>
</linearGradient>
<linearGradient id="paint15_linear_2010_15064" x1="78.6208" y1="689.913" x2="391.974" y2="1118.49" gradientUnits="userSpaceOnUse">
<stop stop-color="#0522AC"/>
<stop offset="1" stop-color="#34384C" stop-opacity="0"/>
</linearGradient>
<linearGradient id="paint16_linear_2010_15064" x1="73.9626" y1="717.728" x2="347.053" y2="1090.44" gradientUnits="userSpaceOnUse">
<stop stop-color="white"/>
<stop offset="0.0436" stop-color="#B4B4B4"/>
<stop offset="0.1507"/>
<stop offset="0.1714" stop-color="#171717"/>
<stop offset="0.3859" stop-color="white"/>
<stop offset="0.6326" stop-color="#E6E6E6"/>
<stop offset="0.8567" stop-color="#1A1A1A"/>
<stop offset="0.9987"/>
</linearGradient>
<linearGradient id="paint17_linear_2010_15064" x1="73.7612" y1="717.288" x2="347.173" y2="1091.2" gradientUnits="userSpaceOnUse">
<stop stop-color="#0522AC"/>
<stop offset="1" stop-color="#34384C" stop-opacity="0"/>
</linearGradient>
<linearGradient id="paint18_linear_2010_15064" x1="67.6976" y1="736.864" x2="306.901" y2="1063.2" gradientUnits="userSpaceOnUse">
<stop stop-color="white"/>
<stop offset="0.0436" stop-color="#B4B4B4"/>
<stop offset="0.1507"/>
<stop offset="0.1714" stop-color="#171717"/>
<stop offset="0.3859" stop-color="white"/>
<stop offset="0.6326" stop-color="#E6E6E6"/>
<stop offset="0.8567" stop-color="#1A1A1A"/>
<stop offset="0.9987"/>
</linearGradient>
<linearGradient id="paint19_linear_2010_15064" x1="67.5211" y1="736.482" x2="307" y2="1063.87" gradientUnits="userSpaceOnUse">
<stop stop-color="#0522AC"/>
<stop offset="1" stop-color="#34384C" stop-opacity="0"/>
</linearGradient>
<linearGradient id="paint20_linear_2010_15064" x1="62.2699" y1="753.482" x2="273.751" y2="1041.85" gradientUnits="userSpaceOnUse">
<stop stop-color="white"/>
<stop offset="0.0436" stop-color="#B4B4B4"/>
<stop offset="0.1507"/>
<stop offset="0.1714" stop-color="#171717"/>
<stop offset="0.3859" stop-color="white"/>
<stop offset="0.6326" stop-color="#E6E6E6"/>
<stop offset="0.8567" stop-color="#1A1A1A"/>
<stop offset="0.9987"/>
</linearGradient>
<linearGradient id="paint21_linear_2010_15064" x1="62.1141" y1="753.152" x2="273.827" y2="1042.45" gradientUnits="userSpaceOnUse">
<stop stop-color="#0522AC"/>
<stop offset="1" stop-color="#34384C" stop-opacity="0"/>
</linearGradient>
<linearGradient id="paint22_linear_2010_15064" x1="67.1886" y1="765.847" x2="271.789" y2="1044.88" gradientUnits="userSpaceOnUse">
<stop stop-color="white"/>
<stop offset="0.0436" stop-color="#B4B4B4"/>
<stop offset="0.1507"/>
<stop offset="0.1714" stop-color="#171717"/>
<stop offset="0.3859" stop-color="white"/>
<stop offset="0.6326" stop-color="#E6E6E6"/>
<stop offset="0.8567" stop-color="#1A1A1A"/>
<stop offset="0.9987"/>
</linearGradient>
<linearGradient id="paint23_linear_2010_15064" x1="67.0386" y1="765.546" x2="271.843" y2="1045.46" gradientUnits="userSpaceOnUse">
<stop stop-color="#0522AC"/>
<stop offset="1" stop-color="#34384C" stop-opacity="0"/>
</linearGradient>
</defs>
</svg>
