<svg width="771" height="1488" viewBox="0 0 771 1488" fill="none" xmlns="http://www.w3.org/2000/svg">
<mask id="mask0_2010_15149" style="mask-type:alpha" maskUnits="userSpaceOnUse" x="-691" y="0" width="1462" height="1488">
<path d="M-494.65 948.019C-510.921 927.922 -526.326 907.945 -540.777 888.182C-620.136 779.662 -668.64 681.449 -684.942 596.271C-701.621 509.123 -683.818 437.736 -632.025 384.093C-474.78 221.23 -360.687 140.853 -285.191 87.6654C-251.21 63.7265 -224.371 44.8181 -205.844 26.769L-205.233 28.3001L-205.844 26.769C-175.022 -3.25964 -105.529 -7.84183 -24.4853 14.8129C62.7307 39.1923 144.044 89.1636 198.607 151.913C273.864 238.462 370.133 303.82 437.641 343.408C516.278 389.522 602.614 427.736 668.589 445.63C711.18 457.182 742.133 494.016 758.1 552.155C785.747 652.824 764.997 804.181 703.946 947.161C675.009 1014.93 645.087 1085.01 613.686 1149.53C578.97 1220.85 546.117 1277.48 513.25 1322.63C474.004 1376.55 433.716 1415.97 390.084 1443.17C341.367 1473.53 289.584 1488.1 231.776 1487.71C133.042 1487.04 -75.9183 1359.34 -276.376 1177.15C-358.375 1102.62 -432.769 1024.46 -494.65 948.019ZM723.422 486.129C708.376 467.544 689.816 455.049 668.194 449.184C602.085 431.254 515.594 392.975 436.83 346.786C369.185 307.118 272.708 241.613 197.238 154.819C142.95 92.3866 61.9867 42.6497 -24.8923 18.3655C-105.396 -4.13764 -174.265 0.255512 -204.622 29.8311C-223.28 48.0083 -250.182 66.9604 -284.241 90.9556C-359.67 144.095 -473.659 224.4 -630.748 387.101C-681.595 439.762 -699.083 509.79 -682.73 595.238C-666.554 679.756 -618.282 777.403 -539.256 885.468C-469.954 980.237 -378.649 1080.02 -275.214 1174.03C-75.0713 1355.93 133.416 1483.44 231.787 1484.1C289.293 1484.49 340.792 1470.01 389.228 1439.82C432.61 1412.78 472.679 1373.56 511.725 1319.92C584.977 1219.28 644.481 1079.93 702.025 945.158C762.647 803.181 783.321 653.138 755.978 553.576C748.429 526.091 737.454 503.461 723.422 486.129Z" fill="url(#paint0_linear_2010_15149)"/>
</mask>
<g mask="url(#mask0_2010_15149)">
<path d="M-494.65 948.019C-510.921 927.922 -526.326 907.945 -540.777 888.182C-620.136 779.662 -668.64 681.449 -684.942 596.271C-701.621 509.123 -683.818 437.736 -632.025 384.093C-474.78 221.23 -360.687 140.853 -285.191 87.6654C-251.21 63.7265 -224.371 44.8181 -205.844 26.769L-205.233 28.3001L-205.844 26.769C-175.022 -3.25964 -105.529 -7.84183 -24.4853 14.8129C62.7307 39.1923 144.044 89.1636 198.607 151.913C273.864 238.462 370.133 303.82 437.641 343.408C516.278 389.522 602.614 427.736 668.589 445.63C711.18 457.182 742.133 494.016 758.1 552.155C785.747 652.824 764.997 804.181 703.946 947.161C675.009 1014.93 645.087 1085.01 613.686 1149.53C578.97 1220.85 546.117 1277.48 513.25 1322.63C474.004 1376.55 433.716 1415.97 390.084 1443.17C341.367 1473.53 289.584 1488.1 231.776 1487.71C133.042 1487.04 -75.9183 1359.34 -276.376 1177.15C-358.375 1102.62 -432.769 1024.46 -494.65 948.019ZM723.422 486.129C708.376 467.544 689.816 455.049 668.194 449.184C602.085 431.254 515.594 392.975 436.83 346.786C369.185 307.118 272.708 241.613 197.238 154.819C142.95 92.3866 61.9867 42.6497 -24.8923 18.3655C-105.396 -4.13764 -174.265 0.255512 -204.622 29.8311C-223.28 48.0083 -250.182 66.9604 -284.241 90.9556C-359.67 144.095 -473.659 224.4 -630.748 387.101C-681.595 439.762 -699.083 509.79 -682.73 595.238C-666.554 679.756 -618.282 777.403 -539.256 885.468C-469.954 980.237 -378.649 1080.02 -275.214 1174.03C-75.0713 1355.93 133.416 1483.44 231.787 1484.1C289.293 1484.49 340.792 1470.01 389.228 1439.82C432.61 1412.78 472.679 1373.56 511.725 1319.92C584.977 1219.28 644.481 1079.93 702.025 945.158C762.647 803.181 783.321 653.138 755.978 553.576C748.429 526.091 737.454 503.461 723.422 486.129Z" fill="url(#paint1_linear_2010_15149)"/>
</g>
<mask id="mask1_2010_15149" style="mask-type:alpha" maskUnits="userSpaceOnUse" x="-637" y="37" width="1349" height="1373">
<path d="M-460.462 912.821C-473.329 896.928 -485.587 881.122 -497.188 865.458C-570.354 766.664 -615.184 677.237 -630.43 599.659C-645.845 521.228 -630.29 456.865 -584.198 408.359C-445.671 260.246 -338.859 180.346 -268.18 127.476C-235 102.656 -208.793 83.052 -190.133 64.6514C-159.963 34.9383 -94.5223 28.6938 -19.3463 48.3536C61.1487 69.4054 137.206 115.099 189.324 173.718C259.004 253.036 347.319 313.914 409.137 351.018C481.758 394.608 558.536 430.131 619.784 448.478C658.431 460.069 686.476 494.603 700.888 548.347C725.905 641.646 706.783 780.878 650.985 911.71L650.986 911.708C598.418 1035.23 544.059 1162.95 475.359 1257.09C439.173 1306.68 402.022 1343.01 361.783 1368.17C316.895 1396.24 269.217 1409.87 216.028 1409.85C124.713 1410.28 -68.3352 1294.61 -253.426 1128.56C-331.524 1058.49 -402.206 984.78 -460.462 912.821ZM668.186 485.42C654.784 468.865 638.39 457.508 619.374 451.804C558.006 433.421 481.094 397.838 408.358 354.18C346.418 317.003 257.917 255.991 188.051 176.459C136.199 118.141 60.4728 72.6628 -19.7042 51.6938C-94.3762 32.1652 -159.237 38.2269 -188.975 67.5151C-207.741 86.0203 -233.999 105.663 -267.242 130.53C-337.862 183.357 -444.582 263.188 -582.979 411.162C-628.192 458.742 -643.457 521.824 -628.356 598.664C-613.231 675.624 -568.622 764.524 -495.768 862.895C-431.75 949.342 -347.574 1040.19 -252.347 1125.62C-67.5532 1291.4 125.048 1406.89 216.024 1406.46C268.936 1406.48 316.349 1392.93 360.976 1365.03C400.983 1340.01 437.93 1303.87 473.927 1254.54C542.411 1160.7 596.688 1033.17 649.178 909.832V909.831C704.578 779.931 723.625 641.919 698.885 549.657C691.851 523.426 681.494 501.858 668.186 485.42Z" fill="url(#paint2_linear_2010_15149)"/>
</mask>
<g mask="url(#mask1_2010_15149)">
<path d="M-460.462 912.821C-473.329 896.928 -485.587 881.122 -497.188 865.458C-570.354 766.664 -615.184 677.237 -630.43 599.659C-645.845 521.228 -630.29 456.865 -584.198 408.359C-445.671 260.246 -338.859 180.346 -268.18 127.476C-235 102.656 -208.793 83.052 -190.133 64.6514C-159.963 34.9383 -94.5223 28.6938 -19.3463 48.3536C61.1487 69.4054 137.206 115.099 189.324 173.718C259.004 253.036 347.319 313.914 409.137 351.018C481.758 394.608 558.536 430.131 619.784 448.478C658.431 460.069 686.476 494.603 700.888 548.347C725.905 641.646 706.783 780.878 650.985 911.71L650.986 911.708C598.418 1035.23 544.059 1162.95 475.359 1257.09C439.173 1306.68 402.022 1343.01 361.783 1368.17C316.895 1396.24 269.217 1409.87 216.028 1409.85C124.713 1410.28 -68.3352 1294.61 -253.426 1128.56C-331.524 1058.49 -402.206 984.78 -460.462 912.821ZM668.186 485.42C654.784 468.865 638.39 457.508 619.374 451.804C558.006 433.421 481.094 397.838 408.358 354.18C346.418 317.003 257.917 255.991 188.051 176.459C136.199 118.141 60.4728 72.6628 -19.7042 51.6938C-94.3762 32.1652 -159.237 38.2269 -188.975 67.5151C-207.741 86.0203 -233.999 105.663 -267.242 130.53C-337.862 183.357 -444.582 263.188 -582.979 411.162C-628.192 458.742 -643.457 521.824 -628.356 598.664C-613.231 675.624 -568.622 764.524 -495.768 862.895C-431.75 949.342 -347.574 1040.19 -252.347 1125.62C-67.5532 1291.4 125.048 1406.89 216.024 1406.46C268.936 1406.48 316.349 1392.93 360.976 1365.03C400.983 1340.01 437.93 1303.87 473.927 1254.54C542.411 1160.7 596.688 1033.17 649.178 909.832V909.831C704.578 779.931 723.625 641.919 698.885 549.657C691.851 523.426 681.494 501.858 668.186 485.42Z" fill="url(#paint3_linear_2010_15149)"/>
</g>
<mask id="mask2_2010_15149" style="mask-type:alpha" maskUnits="userSpaceOnUse" x="-582" y="73" width="1236" height="1260">
<path d="M-426.217 877.849C-435.748 866.077 -444.889 854.374 -453.637 842.741C-520.613 753.672 -561.767 673.029 -575.956 603.052C-590.093 533.332 -576.775 475.992 -536.372 432.624C-415.67 298.316 -319.811 222.009 -249.817 166.294C-218.053 141.008 -192.965 121.037 -174.42 102.529C-144.443 72.6784 -84.551 64.9638 -14.208 81.8912C59.582 99.6481 130.382 141.064 180.04 195.519C296.222 326.179 477.485 420.084 570.978 451.325C605.689 462.953 630.831 495.195 643.685 544.57C666.055 630.499 648.557 757.595 598.02 876.262C552.716 983.127 501.365 1104.26 437.464 1191.55C404.34 1236.81 370.326 1270.05 333.479 1293.18C292.42 1318.95 248.849 1331.65 200.276 1331.99C158.177 1332.75 93.736 1308.23 13.926 1261.09C-62.741 1215.8 -149.549 1151.48 -230.509 1079.98C-304.688 1014.46 -371.647 945.252 -426.217 877.849ZM612.938 484.623C601.191 470.113 586.966 459.92 570.552 454.424C476.893 423.125 295.29 329.037 178.864 198.103C129.463 143.931 58.974 102.712 -14.518 85.0251C-84.387 68.2102 -143.756 75.7545 -173.33 105.202C-191.956 123.792 -217.084 143.795 -248.896 169.118C-318.833 224.79 -414.615 301.036 -535.21 435.221C-574.804 477.72 -587.857 533.86 -574.022 602.095C-559.95 671.496 -519.004 751.647 -452.322 840.326C-393.581 918.437 -316.535 1000.36 -229.511 1077.21C-148.639 1148.64 -61.93 1212.89 14.643 1258.12C94.219 1305.13 158.404 1329.57 200.259 1328.82C248.578 1328.47 291.904 1315.85 332.721 1290.23C369.353 1267.24 403.177 1234.18 436.127 1189.17C499.823 1102.15 551.093 981.206 596.328 874.506L596.329 874.504C646.499 756.7 663.923 630.733 641.803 545.763C635.288 520.732 625.541 500.191 612.938 484.623Z" fill="url(#paint4_linear_2010_15149)"/>
</mask>
<g mask="url(#mask2_2010_15149)">
<path d="M-426.217 877.849C-435.748 866.077 -444.889 854.374 -453.637 842.741C-520.613 753.672 -561.767 673.029 -575.956 603.052C-590.093 533.332 -576.775 475.992 -536.372 432.624C-415.67 298.316 -319.811 222.009 -249.817 166.294C-218.053 141.008 -192.965 121.037 -174.42 102.529C-144.443 72.6784 -84.551 64.9638 -14.208 81.8912C59.582 99.6481 130.382 141.064 180.04 195.519C296.222 326.179 477.485 420.084 570.978 451.325C605.689 462.953 630.831 495.195 643.685 544.57C666.055 630.499 648.557 757.595 598.02 876.262C552.716 983.127 501.365 1104.26 437.464 1191.55C404.34 1236.81 370.326 1270.05 333.479 1293.18C292.42 1318.95 248.849 1331.65 200.276 1331.99C158.177 1332.75 93.736 1308.23 13.926 1261.09C-62.741 1215.8 -149.549 1151.48 -230.509 1079.98C-304.688 1014.46 -371.647 945.252 -426.217 877.849ZM612.938 484.623C601.191 470.113 586.966 459.92 570.552 454.424C476.893 423.125 295.29 329.037 178.864 198.103C129.463 143.931 58.974 102.712 -14.518 85.0251C-84.387 68.2102 -143.756 75.7545 -173.33 105.202C-191.956 123.792 -217.084 143.795 -248.896 169.118C-318.833 224.79 -414.615 301.036 -535.21 435.221C-574.804 477.72 -587.857 533.86 -574.022 602.095C-559.95 671.496 -519.004 751.647 -452.322 840.326C-393.581 918.437 -316.535 1000.36 -229.511 1077.21C-148.639 1148.64 -61.93 1212.89 14.643 1258.12C94.219 1305.13 158.404 1329.57 200.259 1328.82C248.578 1328.47 291.904 1315.85 332.721 1290.23C369.353 1267.24 403.177 1234.18 436.127 1189.17C499.823 1102.15 551.093 981.206 596.328 874.506L596.329 874.504C646.499 756.7 663.923 630.733 641.803 545.763C635.288 520.732 625.541 500.191 612.938 484.623Z" fill="url(#paint5_linear_2010_15149)"/>
</g>
<mask id="mask3_2010_15149" style="mask-type:alpha" maskUnits="userSpaceOnUse" x="-527" y="109" width="1122" height="1146">
<path d="M-391.904 843.165C-398.176 835.419 -404.252 827.709 -410.136 820.027C-470.924 740.683 -508.402 668.826 -521.532 606.452C-534.375 545.435 -523.278 495.114 -488.547 456.888C-384.58 335.083 -294.833 258.881 -229.303 203.242C-201.066 179.267 -176.68 158.56 -158.707 140.407C-129.362 110.856 -73.4228 101.518 -9.06976 115.429C58.0363 129.933 123.58 167.072 170.756 217.321C217.043 268.623 279.755 320.112 352.126 366.237C410.216 403.26 472.195 435.311 522.173 454.173C552.963 465.829 575.209 495.795 586.5 540.83C606.2 619.391 590.32 734.336 545.057 840.807C497.783 952.848 454.204 1051.65 399.571 1126.01C369.51 1166.93 338.633 1197.08 305.177 1218.18C267.948 1241.65 228.482 1253.41 184.527 1254.13C145.907 1255.43 87.0812 1234.06 14.4193 1192.31C-55.0938 1152.37 -133.952 1095.23 -207.628 1031.4C-277.884 970.535 -341.093 905.928 -391.904 843.165ZM557.676 483.708C547.6 471.261 535.544 462.273 521.728 457.041C471.663 438.147 409.585 406.045 351.412 368.971C278.909 322.761 216.066 271.161 169.676 219.744C122.747 169.759 57.4973 132.797 -9.32977 118.353C-73.2488 104.537 -128.708 113.709 -157.684 142.888C-175.716 161.101 -200.132 181.832 -228.402 205.835C-293.881 261.432 -383.558 337.575 -487.437 459.275C-521.431 496.692 -532.291 545.89 -519.738 605.529C-506.72 667.372 -469.438 738.776 -408.926 817.76C-355.455 887.541 -285.537 960.528 -206.714 1028.82C-133.12 1092.57 -54.3557 1149.65 15.0703 1189.54C87.5112 1231.16 146.098 1252.48 184.495 1251.17C228.221 1250.46 267.46 1238.77 304.468 1215.44C337.726 1194.47 368.428 1164.49 398.329 1123.79C452.782 1049.67 496.282 951.04 543.481 839.178L543.483 839.175C588.41 733.492 604.219 619.586 584.74 541.906C578.747 518.006 569.6 498.437 557.676 483.708Z" fill="url(#paint6_linear_2010_15149)"/>
</mask>
<g mask="url(#mask3_2010_15149)">
<path d="M-391.904 843.165C-398.176 835.419 -404.252 827.709 -410.136 820.027C-470.924 740.683 -508.402 668.826 -521.532 606.452C-534.375 545.435 -523.278 495.114 -488.547 456.888C-384.58 335.083 -294.833 258.881 -229.303 203.242C-201.066 179.267 -176.68 158.56 -158.707 140.407C-129.362 110.856 -73.4228 101.518 -9.06976 115.429C58.0363 129.933 123.58 167.072 170.756 217.321C217.043 268.623 279.755 320.112 352.126 366.237C410.216 403.26 472.195 435.311 522.173 454.173C552.963 465.829 575.209 495.795 586.5 540.83C606.2 619.391 590.32 734.336 545.057 840.807C497.783 952.848 454.204 1051.65 399.571 1126.01C369.51 1166.93 338.633 1197.08 305.177 1218.18C267.948 1241.65 228.482 1253.41 184.527 1254.13C145.907 1255.43 87.0812 1234.06 14.4193 1192.31C-55.0938 1152.37 -133.952 1095.23 -207.628 1031.4C-277.884 970.535 -341.093 905.928 -391.904 843.165ZM557.676 483.708C547.6 471.261 535.544 462.273 521.728 457.041C471.663 438.147 409.585 406.045 351.412 368.971C278.909 322.761 216.066 271.161 169.676 219.744C122.747 169.759 57.4973 132.797 -9.32977 118.353C-73.2488 104.537 -128.708 113.709 -157.684 142.888C-175.716 161.101 -200.132 181.832 -228.402 205.835C-293.881 261.432 -383.558 337.575 -487.437 459.275C-521.431 496.692 -532.291 545.89 -519.738 605.529C-506.72 667.372 -469.438 738.776 -408.926 817.76C-355.455 887.541 -285.537 960.528 -206.714 1028.82C-133.12 1092.57 -54.3557 1149.65 15.0703 1189.54C87.5112 1231.16 146.098 1252.48 184.495 1251.17C228.221 1250.46 267.46 1238.77 304.468 1215.44C337.726 1194.47 368.428 1164.49 398.329 1123.79C452.782 1049.67 496.282 951.04 543.481 839.178L543.483 839.175C588.41 733.492 604.219 619.586 584.74 541.906C578.747 518.006 569.6 498.437 557.676 483.708Z" fill="url(#paint7_linear_2010_15149)"/>
</g>
<mask id="mask4_2010_15149" style="mask-type:alpha" maskUnits="userSpaceOnUse" x="-473" y="144" width="1010" height="1033">
<path d="M-357.508 808.872C-360.629 805.018 -363.693 801.173 -366.701 797.336C-421.302 727.718 -455.107 664.648 -467.177 609.876C-478.708 557.549 -469.808 514.241 -440.724 481.158C-352.232 370.042 -267.351 293.025 -205.373 236.787C-180.796 214.487 -159.571 195.229 -142.995 178.284C-113.832 148.582 -63.1459 137.898 -3.93292 148.968C56.5211 160.271 116.809 193.132 161.472 239.126C248.289 333.65 384.006 418.334 473.371 457.024C500.26 468.715 519.613 496.425 529.339 537.158C546.339 608.35 532.068 711.12 492.095 805.359L492.097 805.353C451.944 901.075 411.755 992.617 361.678 1060.48C334.679 1097.06 306.94 1124.11 276.874 1143.18C243.475 1164.36 208.116 1175.18 168.777 1176.27C133.625 1178.12 80.4061 1159.9 14.886 1123.55C-47.485 1088.96 -118.401 1038.98 -184.798 982.842C-251.113 926.77 -310.552 866.872 -357.508 808.872ZM502.395 482.627C494.011 472.27 484.128 464.539 472.902 459.658C383.399 420.909 247.456 336.077 160.49 241.387C116.064 195.64 56.0521 162.936 -4.14093 151.682C-62.9519 140.686 -113.214 151.218 -142.038 180.575C-158.652 197.555 -179.895 216.831 -204.494 239.151C-266.423 295.345 -351.239 372.303 -439.661 483.328C-468.085 515.663 -476.775 557.927 -465.523 608.987C-453.56 663.271 -419.94 725.927 -365.596 795.22C-317.391 856.65 -254.593 920.721 -183.966 980.438C-117.646 1036.51 -46.8179 1086.42 15.4711 1120.98C80.7861 1157.21 133.783 1175.38 168.731 1173.53C207.865 1172.45 243.019 1161.7 276.215 1140.65C306.099 1121.7 333.679 1094.8 360.53 1058.41C410.438 990.783 450.549 899.411 490.632 803.856L490.634 803.85C530.303 710.327 544.505 608.503 527.697 538.114C522.237 515.239 513.673 496.558 502.395 482.627Z" fill="url(#paint8_linear_2010_15149)"/>
</mask>
<g mask="url(#mask4_2010_15149)">
<path d="M-357.508 808.872C-360.629 805.018 -363.693 801.173 -366.701 797.336C-421.302 727.718 -455.107 664.648 -467.177 609.876C-478.708 557.549 -469.808 514.241 -440.724 481.158C-352.232 370.042 -267.351 293.025 -205.373 236.787C-180.796 214.487 -159.571 195.229 -142.995 178.284C-113.832 148.582 -63.1459 137.898 -3.93292 148.968C56.5211 160.271 116.809 193.132 161.472 239.126C248.289 333.65 384.006 418.334 473.371 457.024C500.26 468.715 519.613 496.425 529.339 537.158C546.339 608.35 532.068 711.12 492.095 805.359L492.097 805.353C451.944 901.075 411.755 992.617 361.678 1060.48C334.679 1097.06 306.94 1124.11 276.874 1143.18C243.475 1164.36 208.116 1175.18 168.777 1176.27C133.625 1178.12 80.4061 1159.9 14.886 1123.55C-47.485 1088.96 -118.401 1038.98 -184.798 982.842C-251.113 926.77 -310.552 866.872 -357.508 808.872ZM502.395 482.627C494.011 472.27 484.128 464.539 472.902 459.658C383.399 420.909 247.456 336.077 160.49 241.387C116.064 195.64 56.0521 162.936 -4.14093 151.682C-62.9519 140.686 -113.214 151.218 -142.038 180.575C-158.652 197.555 -179.895 216.831 -204.494 239.151C-266.423 295.345 -351.239 372.303 -439.661 483.328C-468.085 515.663 -476.775 557.927 -465.523 608.987C-453.56 663.271 -419.94 725.927 -365.596 795.22C-317.391 856.65 -254.593 920.721 -183.966 980.438C-117.646 1036.51 -46.8179 1086.42 15.4711 1120.98C80.7861 1157.21 133.783 1175.38 168.731 1173.53C207.865 1172.45 243.019 1161.7 276.215 1140.65C306.099 1121.7 333.679 1094.8 360.53 1058.41C410.438 990.783 450.549 899.411 490.632 803.856L490.634 803.85C530.303 710.327 544.505 608.503 527.697 538.114C522.237 515.239 513.673 496.558 502.395 482.627Z" fill="url(#paint9_linear_2010_15149)"/>
</g>
<mask id="mask5_2010_15149" style="mask-type:alpha" maskUnits="userSpaceOnUse" x="-418" y="180" width="896" height="919">
<path d="M-323.009 775.11C-323.125 774.968 -323.238 774.827 -323.354 774.683C-371.773 714.793 -401.907 660.51 -412.921 613.345C-423.117 569.68 -416.382 533.371 -392.903 505.428C-318.648 402.541 -236.252 322.675 -176.09 264.361C-157.251 246.101 -140.98 230.33 -127.282 216.163C-98.71 186.725 -51.879 174.46 1.202 182.509C55.046 190.673 110.078 219.257 152.187 260.931C190.001 301.194 238.083 341.738 295.118 381.463C338.023 411.344 385.206 439.926 424.571 459.88C447.583 471.608 464.055 497.093 472.207 533.587C486.464 597.403 473.79 687.958 439.131 769.909C405.728 850.137 369.303 933.605 323.784 994.941C299.849 1027.19 275.247 1051.15 248.571 1068.18C219.003 1087.06 187.751 1096.95 153.027 1098.4C90.2129 1103.18 -36.406 1037.24 -162.032 934.315C-224.385 883.229 -280.04 828.187 -323.009 775.11ZM447.086 481.299C440.424 473.069 432.721 466.677 424.074 462.269C384.659 442.29 337.418 413.674 294.463 383.758C237.34 343.972 189.174 303.355 151.303 263.03C109.423 221.583 54.648 193.137 1.04697 185.01C-51.674 177.016 -98.1251 189.134 -126.395 218.262C-140.112 232.449 -156.392 248.228 -175.242 266.499C-235.355 324.766 -317.682 404.564 -391.882 507.37C-414.781 534.627 -421.336 569.973 -411.409 612.482C-400.499 659.206 -370.537 713.114 -322.356 772.712C-322.243 772.851 -322.125 772.998 -322.012 773.137C-279.119 826.122 -223.556 881.07 -161.285 932.087C-35.892 1034.82 90.3959 1100.65 152.966 1095.89C187.509 1094.44 218.576 1084.62 247.961 1065.85C274.473 1048.93 298.931 1025.11 322.732 993.033C368.091 931.913 404.441 848.611 437.784 768.528L437.787 768.52C472.174 687.21 484.781 597.503 470.686 534.413C465.773 512.412 457.768 494.494 447.086 481.299Z" fill="url(#paint10_linear_2010_15149)"/>
</mask>
<g mask="url(#mask5_2010_15149)">
<path d="M-323.009 775.11C-323.125 774.968 -323.238 774.827 -323.354 774.683C-371.773 714.793 -401.907 660.51 -412.921 613.345C-423.117 569.68 -416.382 533.371 -392.903 505.428C-318.648 402.541 -236.252 322.675 -176.09 264.361C-157.251 246.101 -140.98 230.33 -127.282 216.163C-98.71 186.725 -51.879 174.46 1.202 182.509C55.046 190.673 110.078 219.257 152.187 260.931C190.001 301.194 238.083 341.738 295.118 381.463C338.023 411.344 385.206 439.926 424.571 459.88C447.583 471.608 464.055 497.093 472.207 533.587C486.464 597.403 473.79 687.958 439.131 769.909C405.728 850.137 369.303 933.605 323.784 994.941C299.849 1027.19 275.247 1051.15 248.571 1068.18C219.003 1087.06 187.751 1096.95 153.027 1098.4C90.2129 1103.18 -36.406 1037.24 -162.032 934.315C-224.385 883.229 -280.04 828.187 -323.009 775.11ZM447.086 481.299C440.424 473.069 432.721 466.677 424.074 462.269C384.659 442.29 337.418 413.674 294.463 383.758C237.34 343.972 189.174 303.355 151.303 263.03C109.423 221.583 54.648 193.137 1.04697 185.01C-51.674 177.016 -98.1251 189.134 -126.395 218.262C-140.112 232.449 -156.392 248.228 -175.242 266.499C-235.355 324.766 -317.682 404.564 -391.882 507.37C-414.781 534.627 -421.336 569.973 -411.409 612.482C-400.499 659.206 -370.537 713.114 -322.356 772.712C-322.243 772.851 -322.125 772.998 -322.012 773.137C-279.119 826.122 -223.556 881.07 -161.285 932.087C-35.892 1034.82 90.3959 1100.65 152.966 1095.89C187.509 1094.44 218.576 1084.62 247.961 1065.85C274.473 1048.93 298.931 1025.11 322.732 993.033C368.091 931.913 404.441 848.611 437.784 768.528L437.787 768.52C472.174 687.21 484.781 597.503 470.686 534.413C465.773 512.412 457.768 494.494 447.086 481.299Z" fill="url(#paint11_linear_2010_15149)"/>
</g>
<mask id="mask6_2010_15149" style="mask-type:alpha" maskUnits="userSpaceOnUse" x="-364" y="214" width="784" height="807">
<path d="M-288.568 741.891C-325.913 695.763 -349.523 653.764 -358.81 616.91C-367.639 581.876 -363.033 552.553 -345.117 529.748C-284.355 431.771 -200.05 345.128 -138.493 281.865C-128.834 271.938 -119.709 262.56 -111.566 254.039C-83.1315 224.4 -41.2585 210.908 6.33954 216.048C54.3326 221.231 102.833 244.914 142.905 282.734C169.771 310.528 246.189 383.654 375.777 462.737C394.949 474.515 408.555 497.834 415.12 530.181C426.572 586.597 415.479 664.869 386.172 734.448C359.125 800.05 326.839 874.631 285.891 929.403C242.617 987.287 194.007 1017.1 137.28 1020.54C109.023 1023.51 66.9775 1011.6 15.7095 986.1C-33.1215 961.812 -86.7405 927.147 -139.349 885.849C-193.675 843.204 -242.354 796.96 -280.124 752.115C-283.012 748.687 -285.828 745.276 -288.568 741.891ZM391.738 479.593C386.846 473.55 381.33 468.616 375.24 464.874C354.51 452.225 312.747 425.822 265.987 391.147C216.901 354.75 175.224 318.927 142.117 284.673C102.266 247.062 54.0005 223.495 6.23651 218.336C-41.0385 213.231 -82.5855 226.588 -110.75 255.947C-118.897 264.472 -128.024 273.851 -137.686 283.782C-199.197 346.997 -283.44 433.576 -344.092 531.393L-344.156 531.486C-361.545 553.592 -366.015 582.05 -357.443 616.069C-347.713 654.678 -320.671 701.087 -279.234 750.287C-241.535 795.048 -192.935 841.215 -138.688 883.797C-86.1475 925.041 -32.6035 959.658 16.1555 983.911C67.2485 1009.32 109.107 1021.2 137.202 1018.25C193.606 1014.82 241.922 985.192 284.935 927.658C325.732 873.087 357.945 798.671 384.938 733.202L384.942 733.192C414.014 664.172 425.041 586.648 413.719 530.873C409.378 509.498 401.905 492.15 391.738 479.593Z" fill="url(#paint12_linear_2010_15149)"/>
</mask>
<g mask="url(#mask6_2010_15149)">
<path d="M-288.568 741.891C-325.913 695.763 -349.523 653.764 -358.81 616.91C-367.639 581.876 -363.033 552.553 -345.117 529.748C-284.355 431.771 -200.05 345.128 -138.493 281.865C-128.834 271.938 -119.709 262.56 -111.566 254.039C-83.1315 224.4 -41.2585 210.908 6.33954 216.048C54.3326 221.231 102.833 244.914 142.905 282.734C169.771 310.528 246.189 383.654 375.777 462.737C394.949 474.515 408.555 497.834 415.12 530.181C426.572 586.597 415.479 664.869 386.172 734.448C359.125 800.05 326.839 874.631 285.891 929.403C242.617 987.287 194.007 1017.1 137.28 1020.54C109.023 1023.51 66.9775 1011.6 15.7095 986.1C-33.1215 961.812 -86.7405 927.147 -139.349 885.849C-193.675 843.204 -242.354 796.96 -280.124 752.115C-283.012 748.687 -285.828 745.276 -288.568 741.891ZM391.738 479.593C386.846 473.55 381.33 468.616 375.24 464.874C354.51 452.225 312.747 425.822 265.987 391.147C216.901 354.75 175.224 318.927 142.117 284.673C102.266 247.062 54.0005 223.495 6.23651 218.336C-41.0385 213.231 -82.5855 226.588 -110.75 255.947C-118.897 264.472 -128.024 273.851 -137.686 283.782C-199.197 346.997 -283.44 433.576 -344.092 531.393L-344.156 531.486C-361.545 553.592 -366.015 582.05 -357.443 616.069C-347.713 654.678 -320.671 701.087 -279.234 750.287C-241.535 795.048 -192.935 841.215 -138.688 883.797C-86.1475 925.041 -32.6035 959.658 16.1555 983.911C67.2485 1009.32 109.107 1021.2 137.202 1018.25C193.606 1014.82 241.922 985.192 284.935 927.658C325.732 873.087 357.945 798.671 384.938 733.202L384.942 733.192C414.014 664.172 425.041 586.648 413.719 530.873C409.378 509.498 401.905 492.15 391.738 479.593Z" fill="url(#paint13_linear_2010_15149)"/>
</g>
<mask id="mask7_2010_15149" style="mask-type:alpha" maskUnits="userSpaceOnUse" x="-310" y="249" width="672" height="695">
<path d="M-253.295 710.655C-279.811 677.901 -297.519 647.118 -304.929 620.697C-312.368 594.172 -309.808 571.755 -297.321 554.064C-250.885 456.046 -142.249 341.035 -95.8524 291.917C-37.8105 230.691 56.5516 235.884 133.619 304.542C192.726 363.385 268.351 420.955 313.534 455.352C318.332 459.005 322.833 462.431 326.987 465.609C342.377 477.465 353.13 498.726 358.087 527.085C366.645 576.04 357.111 641.917 333.209 699C309.387 757.562 282.574 818.071 247.997 863.866C211.097 912.738 169.73 938.519 121.533 942.681C72.7206 949.62 -20.8255 908.342 -116.765 837.517C-162.895 803.462 -204.488 766.192 -237.045 729.736C-242.778 723.315 -248.201 716.944 -253.295 710.655ZM336.337 477.262C333.29 473.498 329.974 470.225 326.401 467.473C322.249 464.296 317.75 460.872 312.952 457.219C267.743 422.802 192.076 365.199 132.932 306.318C56.3156 238.063 -37.4695 232.838 -95.1075 293.637C-141.461 342.708 -250.014 457.629 -296.292 555.381L-296.332 555.464L-296.381 555.534C-308.439 572.571 -310.906 594.213 -303.712 619.861C-294.974 651.016 -271.652 688.43 -236.271 728.046C-203.778 764.43 -162.257 801.636 -116.197 835.638C-20.4565 906.315 72.8195 947.519 121.436 940.607C228.473 931.363 284.191 815.629 332.089 697.878L332.094 697.866C355.797 641.263 365.266 576.031 356.805 527.628C353.104 506.461 346.113 489.338 336.337 477.262Z" fill="url(#paint14_linear_2010_15149)"/>
</mask>
<g mask="url(#mask7_2010_15149)">
<path d="M-253.295 710.655C-279.811 677.901 -297.519 647.118 -304.929 620.697C-312.368 594.172 -309.808 571.755 -297.321 554.064C-250.885 456.046 -142.249 341.035 -95.8524 291.917C-37.8105 230.691 56.5516 235.884 133.619 304.542C192.726 363.385 268.351 420.955 313.534 455.352C318.332 459.005 322.833 462.431 326.987 465.609C342.377 477.465 353.13 498.726 358.087 527.085C366.645 576.04 357.111 641.917 333.209 699C309.387 757.562 282.574 818.071 247.997 863.866C211.097 912.738 169.73 938.519 121.533 942.681C72.7206 949.62 -20.8255 908.342 -116.765 837.517C-162.895 803.462 -204.488 766.192 -237.045 729.736C-242.778 723.315 -248.201 716.944 -253.295 710.655ZM336.337 477.262C333.29 473.498 329.974 470.225 326.401 467.473C322.249 464.296 317.75 460.872 312.952 457.219C267.743 422.802 192.076 365.199 132.932 306.318C56.3156 238.063 -37.4695 232.838 -95.1075 293.637C-141.461 342.708 -250.014 457.629 -296.292 555.381L-296.332 555.464L-296.381 555.534C-308.439 572.571 -310.906 594.213 -303.712 619.861C-294.974 651.016 -271.652 688.43 -236.271 728.046C-203.778 764.43 -162.257 801.636 -116.197 835.638C-20.4565 906.315 72.8195 947.519 121.436 940.607C228.473 931.363 284.191 815.629 332.089 697.878L332.094 697.866C355.797 641.263 365.266 576.031 356.805 527.628C353.104 506.461 346.113 489.338 336.337 477.262Z" fill="url(#paint15_linear_2010_15149)"/>
</g>
<mask id="mask8_2010_15149" style="mask-type:alpha" maskUnits="userSpaceOnUse" x="-256" y="283" width="559" height="584">
<path d="M-218.104 681.089C-234.314 661.068 -245.784 641.999 -251.409 625.038C-257.467 606.774 -256.841 591.095 -249.549 578.435C-241.599 545.974 -218.175 502.801 -179.924 450.105C-152.06 411.718 -115.689 367.864 -80.1372 329.792C-23.0322 268.825 53.4059 267.538 124.335 326.347C148.227 348.876 173.441 371.642 197.826 393.658C229.362 422.13 259.149 449.024 278.207 468.494C294.206 484.969 302.961 514.924 302.869 552.822C302.782 588.743 294.538 629.097 280.247 663.541C248.385 743.424 226.024 777.535 210.103 798.326C179.594 838.165 145.473 859.914 105.788 864.813C63.7419 872.875 -12.9131 844.018 -94.2351 789.5C-146.184 754.677 -189.512 716.404 -218.104 681.089ZM280.876 473.801C279.807 472.48 278.7 471.231 277.555 470.049C258.526 450.608 228.753 423.727 197.232 395.268C172.842 373.248 147.623 350.478 123.75 327.964C53.2458 269.509 -22.7321 270.758 -79.4641 331.326C-114.977 369.356 -151.306 413.158 -179.136 451.498C-217.304 504.08 -240.633 547.065 -248.476 579.26L-248.516 579.424L-248.591 579.554C-255.586 591.601 -256.179 606.618 -250.352 624.184C-234.926 670.693 -174.926 733.384 -93.7661 787.794C-12.6252 842.19 63.7939 870.995 105.669 862.968C145.125 858.097 179.028 836.488 209.341 796.902C239.521 757.491 262.55 704.403 279.241 662.555L279.247 662.541C293.418 628.388 301.595 588.395 301.681 552.816C301.763 518.295 294.409 490.518 280.876 473.801Z" fill="url(#paint16_linear_2010_15149)"/>
</mask>
<g mask="url(#mask8_2010_15149)">
<path d="M-218.104 681.089C-234.314 661.068 -245.784 641.999 -251.409 625.038C-257.467 606.774 -256.841 591.095 -249.549 578.435C-241.599 545.974 -218.175 502.801 -179.924 450.105C-152.06 411.718 -115.689 367.864 -80.1372 329.792C-23.0322 268.825 53.4059 267.538 124.335 326.347C148.227 348.876 173.441 371.642 197.826 393.658C229.362 422.13 259.149 449.024 278.207 468.494C294.206 484.969 302.961 514.924 302.869 552.822C302.782 588.743 294.538 629.097 280.247 663.541C248.385 743.424 226.024 777.535 210.103 798.326C179.594 838.165 145.473 859.914 105.788 864.813C63.7419 872.875 -12.9131 844.018 -94.2351 789.5C-146.184 754.677 -189.512 716.404 -218.104 681.089ZM280.876 473.801C279.807 472.48 278.7 471.231 277.555 470.049C258.526 450.608 228.753 423.727 197.232 395.268C172.842 373.248 147.623 350.478 123.75 327.964C53.2458 269.509 -22.7321 270.758 -79.4641 331.326C-114.977 369.356 -151.306 413.158 -179.136 451.498C-217.304 504.08 -240.633 547.065 -248.476 579.26L-248.516 579.424L-248.591 579.554C-255.586 591.601 -256.179 606.618 -250.352 624.184C-234.926 670.693 -174.926 733.384 -93.7661 787.794C-12.6252 842.19 63.7939 870.995 105.669 862.968C145.125 858.097 179.028 836.488 209.341 796.902C239.521 757.491 262.55 704.403 279.241 662.555L279.247 662.541C293.418 628.388 301.595 588.395 301.681 552.816C301.763 518.295 294.409 490.518 280.876 473.801Z" fill="url(#paint17_linear_2010_15149)"/>
</g>
<mask id="mask9_2010_15149" style="mask-type:alpha" maskUnits="userSpaceOnUse" x="-204" y="315" width="449" height="475">
<path d="M-182.963 654.885C-189.666 646.605 -194.844 638.664 -198.243 631.281C-203.215 620.482 -204.41 610.968 -201.796 602.996C-206.54 573.39 -180.638 524.771 -158.027 489.135C-132.532 448.954 -97.5393 403.547 -64.4203 367.669C-35.8943 336.839 -7.71233 320.16 21.7357 316.679C51.8097 313.125 82.3337 323.422 115.052 348.157C162.643 389.502 207.533 437.878 229.434 471.425C240.056 487.846 245.43 513.641 244.568 544.06C243.762 572.517 237.463 603.146 227.285 628.091C201.366 695.147 162.343 773.8 90.0446 786.955C55.0367 796.094 -5.21133 779.481 -71.0923 742.509C-119.234 715.49 -160.015 683.228 -182.963 654.885ZM208.693 445.513C184.634 415.795 150.366 380.709 114.569 349.61C82.0486 325.025 51.6996 314.781 21.8156 318.313C-7.44237 321.772 -35.4544 338.357 -63.8224 369.015C-125.725 436.075 -209.127 552.97 -200.729 602.888L-200.677 603.199L-200.774 603.482C-203.307 610.915 -202.169 619.945 -197.391 630.323C-182.47 662.731 -132.756 706.16 -70.7353 740.963C-5.01534 777.845 55.0347 794.43 89.8997 785.328C161.775 772.251 200.597 693.969 226.391 627.233L226.398 627.216C236.482 602.504 242.723 572.167 243.521 543.985C244.369 514.034 239.105 488.68 228.699 472.59C223.321 464.355 216.551 455.219 208.693 445.513Z" fill="url(#paint18_linear_2010_15149)"/>
</mask>
<g mask="url(#mask9_2010_15149)">
<path d="M-182.963 654.885C-189.666 646.605 -194.844 638.664 -198.243 631.281C-203.215 620.482 -204.41 610.968 -201.796 602.996C-206.54 573.39 -180.638 524.771 -158.027 489.135C-132.532 448.954 -97.5393 403.547 -64.4203 367.669C-35.8943 336.839 -7.71233 320.16 21.7357 316.679C51.8097 313.125 82.3337 323.422 115.052 348.157C162.643 389.502 207.533 437.878 229.434 471.425C240.056 487.846 245.43 513.641 244.568 544.06C243.762 572.517 237.463 603.146 227.285 628.091C201.366 695.147 162.343 773.8 90.0446 786.955C55.0367 796.094 -5.21133 779.481 -71.0923 742.509C-119.234 715.49 -160.015 683.228 -182.963 654.885ZM208.693 445.513C184.634 415.795 150.366 380.709 114.569 349.61C82.0486 325.025 51.6996 314.781 21.8156 318.313C-7.44237 321.772 -35.4544 338.357 -63.8224 369.015C-125.725 436.075 -209.127 552.97 -200.729 602.888L-200.677 603.199L-200.774 603.482C-203.307 610.915 -202.169 619.945 -197.391 630.323C-182.47 662.731 -132.756 706.16 -70.7353 740.963C-5.01534 777.845 55.0347 794.43 89.8997 785.328C161.775 772.251 200.597 693.969 226.391 627.233L226.398 627.216C236.482 602.504 242.723 572.167 243.521 543.985C244.369 514.034 239.105 488.68 228.699 472.59C223.321 464.355 216.551 455.219 208.693 445.513Z" fill="url(#paint19_linear_2010_15149)"/>
</g>
<mask id="mask10_2010_15149" style="mask-type:alpha" maskUnits="userSpaceOnUse" x="-163" y="347" width="350" height="368">
<path d="M-148.043 637.752C-150.933 634.183 -152.896 630.822 -153.798 627.765C-159.174 622.895 -162.041 615.58 -162.323 606.032C-163.15 578.093 -142.08 536.982 -124.259 507.414C-103.054 472.23 -74.8081 434.148 -48.7031 405.544C-19.1561 373.211 4.14893 356.15 26.8639 350.229C51.0969 343.913 76.1689 350.184 105.769 369.967C138.495 394.687 167.881 435.679 180.658 474.417C192.038 509.278 186.375 561.896 174.326 592.632C150.626 657.626 116.976 696.808 74.3129 709.086C57.6999 715.15 36.0839 716.179 10.0899 712.141C-12.4161 708.643 -37.5781 701.353 -62.6761 691.059C-101.968 674.939 -134.773 654.142 -148.043 637.752ZM-153.087 626.763L-153.027 626.979C-152.195 629.95 -150.296 633.226 -147.479 636.706C-118.274 672.788 9.79993 731.169 74.1269 707.696C116.538 695.49 149.978 656.539 173.54 591.918L173.547 591.898C185.467 561.497 191.084 509.482 179.848 475.065C167.157 436.588 137.932 395.839 105.392 371.261C75.9779 351.603 51.0669 345.361 27.0139 351.631C4.43988 357.516 -18.7511 374.501 -48.1811 406.706C-74.2381 435.258 -102.432 473.27 -123.597 508.387C-141.298 537.755 -162.227 578.525 -161.415 605.966C-161.146 615.073 -158.386 622.034 -153.218 626.648L-153.087 626.763Z" fill="url(#paint20_linear_2010_15149)"/>
</mask>
<g mask="url(#mask10_2010_15149)">
<path d="M-148.043 637.752C-150.933 634.183 -152.896 630.822 -153.798 627.765C-159.174 622.895 -162.041 615.58 -162.323 606.032C-163.15 578.093 -142.08 536.982 -124.259 507.414C-103.054 472.23 -74.8081 434.148 -48.7031 405.544C-19.1561 373.211 4.14893 356.15 26.8639 350.229C51.0969 343.913 76.1689 350.184 105.769 369.967C138.495 394.687 167.881 435.679 180.658 474.417C192.038 509.278 186.375 561.896 174.326 592.632C150.626 657.626 116.976 696.808 74.3129 709.086C57.6999 715.15 36.0839 716.179 10.0899 712.141C-12.4161 708.643 -37.5781 701.353 -62.6761 691.059C-101.968 674.939 -134.773 654.142 -148.043 637.752ZM-153.087 626.763L-153.027 626.979C-152.195 629.95 -150.296 633.226 -147.479 636.706C-118.274 672.788 9.79993 731.169 74.1269 707.696C116.538 695.49 149.978 656.539 173.54 591.918L173.547 591.898C185.467 561.497 191.084 509.482 179.848 475.065C167.157 436.588 137.932 395.839 105.392 371.261C75.9779 351.603 51.0669 345.361 27.0139 351.631C4.43988 357.516 -18.7511 374.501 -48.1811 406.706C-74.2381 435.258 -102.432 473.27 -123.597 508.387C-141.298 537.755 -162.227 578.525 -161.415 605.966C-161.146 615.073 -158.386 622.034 -153.218 626.648L-153.087 626.763Z" fill="url(#paint21_linear_2010_15149)"/>
</g>
<mask id="mask11_2010_15149" style="mask-type:alpha" maskUnits="userSpaceOnUse" x="-129" y="378" width="261" height="279">
<path d="M-122.456 642.94C-125.349 639.366 -127.258 634.824 -128.166 629.328C-130.442 615.547 -127.427 588.657 -100.139 538.816C-81.8471 505.406 -56.7432 469.742 -32.9862 443.415C-4.91017 412.302 13.4728 392.762 31.9868 383.789C51.1398 374.505 69.8269 376.821 96.4859 391.778C111.181 400.021 121.446 415.08 126.999 436.527C139.004 482.906 125.388 544.406 121.375 557.144C113.877 580.938 100.28 600.895 80.9588 616.461C64.3288 629.859 43.4258 640.067 18.8318 646.801C-25.6242 658.973 -74.6421 657.481 -105.693 652.027C-113.001 650.744 -118.602 647.701 -122.456 642.94ZM111.618 406.009C107.212 400.566 102.076 396.192 96.2268 392.911C69.7388 378.05 51.1938 375.74 32.2159 384.938C13.8109 393.859 -4.52613 413.352 -32.5401 444.397C-75.8541 492.399 -134.565 585.767 -127.42 629.03C-125.392 641.309 -118.053 648.647 -105.605 650.833C-74.6081 656.278 -25.6751 657.767 18.6999 645.617C43.2179 638.905 64.0458 628.736 80.6068 615.393C99.7768 599.948 113.261 580.173 120.684 556.615C124.668 543.973 138.185 482.948 126.286 436.978C123.028 424.392 118.118 414.038 111.618 406.009Z" fill="url(#paint22_linear_2010_15149)"/>
</mask>
<g mask="url(#mask11_2010_15149)">
<path d="M-122.456 642.94C-125.349 639.366 -127.258 634.824 -128.166 629.328C-130.442 615.547 -127.427 588.657 -100.139 538.816C-81.8471 505.406 -56.7432 469.742 -32.9862 443.415C-4.91017 412.302 13.4728 392.762 31.9868 383.789C51.1398 374.505 69.8269 376.821 96.4859 391.778C111.181 400.021 121.446 415.08 126.999 436.527C139.004 482.906 125.388 544.406 121.375 557.144C113.877 580.938 100.28 600.895 80.9588 616.461C64.3288 629.859 43.4258 640.067 18.8318 646.801C-25.6242 658.973 -74.6421 657.481 -105.693 652.027C-113.001 650.744 -118.602 647.701 -122.456 642.94ZM111.618 406.009C107.212 400.566 102.076 396.192 96.2268 392.911C69.7388 378.05 51.1938 375.74 32.2159 384.938C13.8109 393.859 -4.52613 413.352 -32.5401 444.397C-75.8541 492.399 -134.565 585.767 -127.42 629.03C-125.392 641.309 -118.053 648.647 -105.605 650.833C-74.6081 656.278 -25.6751 657.767 18.6999 645.617C43.2179 638.905 64.0458 628.736 80.6068 615.393C99.7768 599.948 113.261 580.173 120.684 556.615C124.668 543.973 138.185 482.948 126.286 436.978C123.028 424.392 118.118 414.038 111.618 406.009Z" fill="url(#paint23_linear_2010_15149)"/>
</g>
<defs>
<linearGradient id="paint0_linear_2010_15149" x1="39.5701" y1="0.549053" x2="39.5701" y2="1487.72" gradientUnits="userSpaceOnUse">
<stop stop-color="white"/>
<stop offset="0.0436" stop-color="#B4B4B4"/>
<stop offset="0.1507"/>
<stop offset="0.1714" stop-color="#171717"/>
<stop offset="0.3859" stop-color="white"/>
<stop offset="0.6326" stop-color="#E6E6E6"/>
<stop offset="0.8567" stop-color="#1A1A1A"/>
<stop offset="0.9987"/>
</linearGradient>
<linearGradient id="paint1_linear_2010_15149" x1="39.5703" y1="0.548828" x2="39.5703" y2="1487.72" gradientUnits="userSpaceOnUse">
<stop stop-color="#0522AC"/>
<stop offset="1" stop-color="#34384C" stop-opacity="0"/>
</linearGradient>
<linearGradient id="paint2_linear_2010_15149" x1="37.7524" y1="37.0241" x2="37.7524" y2="1409.85" gradientUnits="userSpaceOnUse">
<stop stop-color="white"/>
<stop offset="0.0436" stop-color="#B4B4B4"/>
<stop offset="0.1507"/>
<stop offset="0.1714" stop-color="#171717"/>
<stop offset="0.3859" stop-color="white"/>
<stop offset="0.6326" stop-color="#E6E6E6"/>
<stop offset="0.8567" stop-color="#1A1A1A"/>
<stop offset="0.9987"/>
</linearGradient>
<linearGradient id="paint3_linear_2010_15149" x1="37.7534" y1="37.0264" x2="37.7534" y2="1409.85" gradientUnits="userSpaceOnUse">
<stop stop-color="#0522AC"/>
<stop offset="1" stop-color="#34384C" stop-opacity="0"/>
</linearGradient>
<linearGradient id="paint4_linear_2010_15149" x1="35.9164" y1="73.0647" x2="35.9164" y2="1332.01" gradientUnits="userSpaceOnUse">
<stop stop-color="white"/>
<stop offset="0.0436" stop-color="#B4B4B4"/>
<stop offset="0.1507"/>
<stop offset="0.1714" stop-color="#171717"/>
<stop offset="0.3859" stop-color="white"/>
<stop offset="0.6326" stop-color="#E6E6E6"/>
<stop offset="0.8567" stop-color="#1A1A1A"/>
<stop offset="0.9987"/>
</linearGradient>
<linearGradient id="paint5_linear_2010_15149" x1="35.9167" y1="73.0659" x2="35.9167" y2="1332.01" gradientUnits="userSpaceOnUse">
<stop stop-color="#0522AC"/>
<stop offset="1" stop-color="#34384C" stop-opacity="0"/>
</linearGradient>
<linearGradient id="paint6_linear_2010_15149" x1="34.0559" y1="109.104" x2="34.0559" y2="1254.18" gradientUnits="userSpaceOnUse">
<stop stop-color="white"/>
<stop offset="0.0436" stop-color="#B4B4B4"/>
<stop offset="0.1507"/>
<stop offset="0.1714" stop-color="#171717"/>
<stop offset="0.3859" stop-color="white"/>
<stop offset="0.6326" stop-color="#E6E6E6"/>
<stop offset="0.8567" stop-color="#1A1A1A"/>
<stop offset="0.9987"/>
</linearGradient>
<linearGradient id="paint7_linear_2010_15149" x1="34.0562" y1="109.103" x2="34.0562" y2="1254.18" gradientUnits="userSpaceOnUse">
<stop stop-color="#0522AC"/>
<stop offset="1" stop-color="#34384C" stop-opacity="0"/>
</linearGradient>
<linearGradient id="paint8_linear_2010_15149" x1="32.1609" y1="144.697" x2="32.1609" y2="1176.39" gradientUnits="userSpaceOnUse">
<stop stop-color="white"/>
<stop offset="0.0436" stop-color="#B4B4B4"/>
<stop offset="0.1507"/>
<stop offset="0.1714" stop-color="#171717"/>
<stop offset="0.3859" stop-color="white"/>
<stop offset="0.6326" stop-color="#E6E6E6"/>
<stop offset="0.8567" stop-color="#1A1A1A"/>
<stop offset="0.9987"/>
</linearGradient>
<linearGradient id="paint9_linear_2010_15149" x1="32.1615" y1="144.697" x2="32.1615" y2="1176.39" gradientUnits="userSpaceOnUse">
<stop stop-color="#0522AC"/>
<stop offset="1" stop-color="#34384C" stop-opacity="0"/>
</linearGradient>
<linearGradient id="paint10_linear_2010_15149" x1="30.216" y1="180.092" x2="30.216" y2="1098.65" gradientUnits="userSpaceOnUse">
<stop stop-color="white"/>
<stop offset="0.0436" stop-color="#B4B4B4"/>
<stop offset="0.1507"/>
<stop offset="0.1714" stop-color="#171717"/>
<stop offset="0.3859" stop-color="white"/>
<stop offset="0.6326" stop-color="#E6E6E6"/>
<stop offset="0.8567" stop-color="#1A1A1A"/>
<stop offset="0.9987"/>
</linearGradient>
<linearGradient id="paint11_linear_2010_15149" x1="30.2158" y1="180.092" x2="30.2158" y2="1098.65" gradientUnits="userSpaceOnUse">
<stop stop-color="#0522AC"/>
<stop offset="1" stop-color="#34384C" stop-opacity="0"/>
</linearGradient>
<linearGradient id="paint12_linear_2010_15149" x1="28.1938" y1="214.978" x2="28.1938" y2="1020.99" gradientUnits="userSpaceOnUse">
<stop stop-color="white"/>
<stop offset="0.0436" stop-color="#B4B4B4"/>
<stop offset="0.1507"/>
<stop offset="0.1714" stop-color="#171717"/>
<stop offset="0.3859" stop-color="white"/>
<stop offset="0.6326" stop-color="#E6E6E6"/>
<stop offset="0.8567" stop-color="#1A1A1A"/>
<stop offset="0.9987"/>
</linearGradient>
<linearGradient id="paint13_linear_2010_15149" x1="28.1948" y1="214.978" x2="28.1948" y2="1020.99" gradientUnits="userSpaceOnUse">
<stop stop-color="#0522AC"/>
<stop offset="1" stop-color="#34384C" stop-opacity="0"/>
</linearGradient>
<linearGradient id="paint14_linear_2010_15149" x1="26.0444" y1="249.293" x2="26.0444" y2="943.436" gradientUnits="userSpaceOnUse">
<stop stop-color="white"/>
<stop offset="0.0436" stop-color="#B4B4B4"/>
<stop offset="0.1507"/>
<stop offset="0.1714" stop-color="#171717"/>
<stop offset="0.3859" stop-color="white"/>
<stop offset="0.6326" stop-color="#E6E6E6"/>
<stop offset="0.8567" stop-color="#1A1A1A"/>
<stop offset="0.9987"/>
</linearGradient>
<linearGradient id="paint15_linear_2010_15149" x1="26.0449" y1="249.294" x2="26.0449" y2="943.437" gradientUnits="userSpaceOnUse">
<stop stop-color="#0522AC"/>
<stop offset="1" stop-color="#34384C" stop-opacity="0"/>
</linearGradient>
<linearGradient id="paint16_linear_2010_15149" x1="23.6707" y1="283.137" x2="23.6707" y2="866.152" gradientUnits="userSpaceOnUse">
<stop stop-color="white"/>
<stop offset="0.0436" stop-color="#B4B4B4"/>
<stop offset="0.1507"/>
<stop offset="0.1714" stop-color="#171717"/>
<stop offset="0.3859" stop-color="white"/>
<stop offset="0.6326" stop-color="#E6E6E6"/>
<stop offset="0.8567" stop-color="#1A1A1A"/>
<stop offset="0.9987"/>
</linearGradient>
<linearGradient id="paint17_linear_2010_15149" x1="23.6704" y1="283.136" x2="23.6704" y2="866.148" gradientUnits="userSpaceOnUse">
<stop stop-color="#0522AC"/>
<stop offset="1" stop-color="#34384C" stop-opacity="0"/>
</linearGradient>
<linearGradient id="paint18_linear_2010_15149" x1="20.7576" y1="315.994" x2="20.7576" y2="789.416" gradientUnits="userSpaceOnUse">
<stop stop-color="white"/>
<stop offset="0.0436" stop-color="#B4B4B4"/>
<stop offset="0.1507"/>
<stop offset="0.1714" stop-color="#171717"/>
<stop offset="0.3859" stop-color="white"/>
<stop offset="0.6326" stop-color="#E6E6E6"/>
<stop offset="0.8567" stop-color="#1A1A1A"/>
<stop offset="0.9987"/>
</linearGradient>
<linearGradient id="paint19_linear_2010_15149" x1="20.7571" y1="315.996" x2="20.7571" y2="789.418" gradientUnits="userSpaceOnUse">
<stop stop-color="#0522AC"/>
<stop offset="1" stop-color="#34384C" stop-opacity="0"/>
</linearGradient>
<linearGradient id="paint20_linear_2010_15149" x1="12.2428" y1="347.865" x2="12.2428" y2="714.555" gradientUnits="userSpaceOnUse">
<stop stop-color="white"/>
<stop offset="0.0436" stop-color="#B4B4B4"/>
<stop offset="0.1507"/>
<stop offset="0.1714" stop-color="#171717"/>
<stop offset="0.3859" stop-color="white"/>
<stop offset="0.6326" stop-color="#E6E6E6"/>
<stop offset="0.8567" stop-color="#1A1A1A"/>
<stop offset="0.9987"/>
</linearGradient>
<linearGradient id="paint21_linear_2010_15149" x1="12.2431" y1="347.867" x2="12.2431" y2="714.556" gradientUnits="userSpaceOnUse">
<stop stop-color="#0522AC"/>
<stop offset="1" stop-color="#34384C" stop-opacity="0"/>
</linearGradient>
<linearGradient id="paint22_linear_2010_15149" x1="1.53206" y1="378.282" x2="1.53206" y2="656.099" gradientUnits="userSpaceOnUse">
<stop stop-color="white"/>
<stop offset="0.0436" stop-color="#B4B4B4"/>
<stop offset="0.1507"/>
<stop offset="0.1714" stop-color="#171717"/>
<stop offset="0.3859" stop-color="white"/>
<stop offset="0.6326" stop-color="#E6E6E6"/>
<stop offset="0.8567" stop-color="#1A1A1A"/>
<stop offset="0.9987"/>
</linearGradient>
<linearGradient id="paint23_linear_2010_15149" x1="1.53165" y1="378.281" x2="1.53165" y2="656.099" gradientUnits="userSpaceOnUse">
<stop stop-color="#0522AC"/>
<stop offset="1" stop-color="#34384C" stop-opacity="0"/>
</linearGradient>
</defs>
</svg>
