<svg width="1130" height="1816" viewBox="0 0 1130 1816" fill="none" xmlns="http://www.w3.org/2000/svg">
<mask id="mask0_2010_15319" style="mask-type:alpha" maskUnits="userSpaceOnUse" x="144" y="296" width="1534" height="1411">
<path d="M1497.14 823.035C1512.95 798.586 1527.86 774.726 1541.78 751.579C1618.23 624.47 1662.86 522.912 1674.43 449.726C1686.28 374.849 1662.84 331.703 1604.78 321.488C1428.49 290.473 1303.06 296.26 1220.07 300.087C1182.71 301.811 1153.21 303.172 1132.51 300.371L1131.97 301.87L1132.51 300.371C1098.08 295.71 1024.6 332.451 940.741 396.259C850.496 464.926 768.149 549.338 714.81 627.851C641.242 736.142 544.154 840.718 475.663 909.377C395.88 989.354 307.47 1067.87 239.169 1119.4C195.075 1152.67 164.898 1198.13 151.901 1250.89C129.397 1342.22 161.187 1443.53 234.867 1515.27C269.79 1549.27 305.901 1584.43 343.205 1614.58C384.448 1647.9 422.762 1671.29 460.339 1686.09C505.208 1703.77 550.223 1709.99 597.957 1705.13C651.254 1699.69 706.742 1680.67 767.592 1646.96C871.523 1589.38 1083.19 1372.99 1282.32 1120.73C1363.78 1017.54 1436.99 916.026 1497.14 823.035ZM184.084 1181.41C198.709 1158.8 217.433 1138.72 239.818 1121.83C308.259 1070.2 396.827 991.543 476.739 911.436C545.369 842.638 642.666 737.833 716.442 629.235C769.512 551.118 851.507 467.084 941.403 398.683C1024.7 335.301 1097.51 298.778 1131.43 303.369C1152.27 306.19 1181.84 304.826 1219.28 303.099C1302.21 299.274 1427.52 293.494 1603.63 324.477C1660.63 334.505 1683.65 376.816 1672.04 450.232C1660.55 522.85 1616.13 623.85 1540 750.427C1473.25 861.428 1383.65 988.903 1280.89 1119.07C1082.07 1370.93 870.893 1586.9 767.344 1644.26C706.811 1677.8 651.627 1696.72 598.638 1702.12C551.178 1706.96 506.407 1700.77 461.767 1683.18C378.019 1650.2 306.206 1580.28 236.758 1512.66C163.596 1441.42 131.972 1341.06 154.229 1250.72C160.374 1225.78 170.446 1202.5 184.084 1181.41Z" fill="url(#paint0_linear_2010_15319)"/>
</mask>
<g mask="url(#mask0_2010_15319)">
<path d="M1496.22 831.609C1511.94 807.119 1526.75 783.21 1540.58 760.005C1616.51 632.577 1660.74 530.459 1672.04 456.487C1683.6 380.805 1660.02 336.632 1601.96 325.198C1425.66 290.48 1300.33 294.013 1217.4 296.35C1180.07 297.402 1150.59 298.233 1129.9 295.009L1129.36 296.518L1129.9 295.009C1095.47 289.643 1022.17 325.522 938.594 388.643C848.655 456.572 766.666 540.607 713.647 619.203C640.519 727.609 543.874 831.81 475.675 900.135C396.232 979.723 308.164 1057.67 240.092 1108.64C196.147 1141.54 166.154 1187.07 153.358 1240.3C131.202 1332.47 163.344 1435.75 237.242 1509.84C272.269 1544.96 308.488 1581.27 345.879 1612.52C387.219 1647.07 425.596 1671.5 463.204 1687.2C508.111 1705.95 553.122 1713.1 600.809 1709.05C654.054 1704.54 709.439 1686.28 770.13 1653.24C873.787 1596.81 1084.53 1381.39 1282.62 1129.38C1363.66 1026.3 1436.45 924.754 1496.22 831.609ZM185.268 1170.47C199.801 1147.83 218.44 1127.82 240.75 1111.11C308.96 1060.04 397.187 981.96 476.757 902.243C545.095 833.78 641.949 729.349 715.284 620.636C768.036 542.437 849.673 458.778 939.264 391.113C1022.28 328.412 1094.92 292.744 1128.82 298.028C1149.66 301.275 1179.21 300.442 1216.63 299.388C1299.49 297.053 1424.7 293.524 1600.82 328.207C1657.83 339.432 1680.98 382.75 1669.65 456.955C1658.44 530.354 1614.41 631.91 1538.79 758.804C1472.48 870.083 1383.4 997.637 1281.19 1127.67C1083.41 1379.29 873.148 1594.28 769.872 1650.51C709.498 1683.37 654.417 1701.53 601.479 1706.02C554.066 1710.04 509.299 1702.93 464.621 1684.28C380.802 1649.28 308.776 1577.07 239.123 1507.23C165.744 1433.66 133.772 1331.33 155.684 1240.18C161.734 1215.01 171.715 1191.59 185.268 1170.47Z" fill="url(#paint1_linear_2010_15319)"/>
</g>
<mask id="mask1_2010_15319" style="mask-type:alpha" maskUnits="userSpaceOnUse" x="203" y="333" width="1416" height="1297">
<path d="M1457.12 812.146C1469.63 792.808 1481.5 773.889 1492.69 755.455C1563.25 639.193 1604.6 546.327 1615.56 479.436C1626.64 411.808 1606.03 372.618 1554.31 362.954C1398.7 332.167 1280.96 334.107 1203.06 335.392C1166.48 335.995 1137.6 336.471 1116.74 333.485C1083.01 328.684 1013.69 361.846 935.806 420.028C852.416 482.328 775.318 560.509 724.28 634.525C656.105 734.192 567.095 830.827 504.428 894.346C430.811 968.965 352.285 1039.95 288.988 1089.1C249.048 1120.12 221.781 1162.19 210.132 1210.75C189.911 1295.06 219.191 1388.24 286.544 1453.92L286.543 1453.92C350.014 1515.99 415.647 1580.18 494.179 1610.94C535.543 1627.14 577.054 1632.86 621.083 1628.43C670.199 1623.49 721.305 1606.13 777.319 1575.36C873.514 1522.89 1069.23 1324.68 1253.25 1093.35C1330.9 995.748 1400.49 899.697 1457.12 812.146ZM240.439 1144.74C253.467 1124.59 269.986 1106.61 289.638 1091.35C353.06 1042.11 431.722 971 505.456 896.262C568.246 832.618 657.444 735.775 725.801 635.842C776.579 562.204 853.342 484.375 936.403 422.322C1013.76 364.529 1082.47 331.566 1115.71 336.298C1136.68 339.302 1165.63 338.825 1202.27 338.221C1280.11 336.938 1397.74 334.999 1553.21 365.757C1603.95 375.237 1624.17 413.635 1613.31 479.89C1602.43 546.248 1561.29 638.593 1491.02 754.357C1429.28 856.087 1346.6 972.765 1251.92 1091.78C1068.19 1322.73 872.939 1520.54 777.101 1572.82C721.379 1603.43 670.557 1620.69 621.726 1625.61C577.951 1630.01 536.668 1624.32 495.52 1608.2C417.235 1577.54 351.701 1513.45 288.324 1451.47L288.324 1451.47C221.451 1386.25 192.33 1293.95 212.327 1210.57C218.012 1186.87 227.504 1164.74 240.439 1144.74Z" fill="url(#paint2_linear_2010_15319)"/>
</mask>
<g mask="url(#mask1_2010_15319)">
<path d="M1456.26 820.14C1468.69 800.771 1480.48 781.813 1491.6 763.335C1561.7 646.795 1602.67 553.427 1613.38 485.823C1624.21 417.476 1603.47 377.366 1551.74 366.607C1396.11 332.501 1278.46 332.277 1200.6 332.129C1164.05 332.06 1135.19 332.005 1114.33 328.59C1080.61 323.096 1011.44 355.421 933.824 412.95C850.713 474.551 773.947 552.368 723.211 626.447C655.443 726.21 566.84 822.511 504.444 885.733C431.144 960.004 352.926 1030.5 289.847 1079.14C250.045 1109.84 222.948 1151.98 211.484 1200.99C191.585 1286.08 221.188 1381.08 288.741 1448.91L288.74 1448.91C352.4 1513.02 418.23 1579.31 496.826 1611.95C538.225 1629.14 579.732 1635.71 623.718 1632.04C672.787 1627.95 723.798 1611.3 779.666 1581.15C875.611 1529.75 1070.48 1332.47 1253.54 1101.4C1330.78 1003.91 1399.99 907.837 1456.26 820.14ZM241.532 1134.64C254.477 1114.46 270.921 1096.54 290.505 1081.44C353.708 1032.7 432.062 962.084 505.478 887.695C567.998 824.349 656.786 727.839 724.735 627.81C775.213 554.109 851.645 476.644 934.428 415.286C1011.53 358.142 1080.07 326.007 1113.31 331.422C1134.29 334.857 1163.21 334.913 1199.83 334.982C1277.62 335.13 1395.17 335.354 1550.66 369.428C1601.4 379.981 1621.75 419.282 1611.14 486.242C1600.51 553.307 1559.73 646.149 1489.93 762.191C1428.6 864.165 1346.39 980.901 1252.21 1099.78C1069.44 1330.48 875.027 1527.36 779.438 1578.57C723.862 1608.56 673.134 1625.12 624.351 1629.19C580.618 1632.84 539.339 1626.3 498.156 1609.2C419.807 1576.66 354.077 1510.47 290.511 1446.46L290.511 1446.46C223.44 1379.11 193.998 1285 213.677 1200.86C219.273 1176.93 228.677 1154.67 241.532 1134.64Z" fill="url(#paint3_linear_2010_15319)"/>
</g>
<mask id="mask2_2010_15319" style="mask-type:alpha" maskUnits="userSpaceOnUse" x="262" y="365" width="1298" height="1189">
<path d="M1417.05 801.397C1426.32 787.071 1435.18 773.022 1443.63 759.254C1508.32 653.832 1546.37 569.652 1556.72 509.053C1567.04 448.677 1549.24 413.448 1503.84 404.344C1367.9 373.592 1261.93 371.899 1184.55 370.664C1149.43 370.103 1121.7 369.66 1100.95 366.528C1067.42 361.515 1003.83 390.377 930.858 443.732C854.306 499.703 782.456 571.658 733.73 641.148C619.941 806.168 435.194 981.306 338.776 1058.77C302.98 1087.55 278.617 1126.23 268.32 1170.63C250.4 1247.9 277.174 1332.94 338.192 1392.56C392.923 1446.37 454.96 1507.37 527.993 1535.77C565.851 1550.5 603.858 1555.71 644.185 1551.72C689.122 1547.27 735.846 1531.58 787.027 1503.74C831.417 1479.97 897.678 1424.34 978.641 1342.88C1056.42 1264.64 1143.62 1166.27 1224.2 1065.92C1298.02 973.965 1364 883.423 1417.05 801.397ZM296.768 1107.97C308.188 1090.31 322.501 1074.45 339.428 1060.84C436.018 983.241 621.11 807.768 735.138 642.403C783.612 573.273 855.147 501.645 931.39 445.9C1003.87 392.902 1066.9 364.215 1099.98 369.159C1120.82 372.306 1148.6 372.75 1183.77 373.312C1261.08 374.547 1366.97 376.239 1502.79 406.96C1547.28 415.881 1564.71 450.366 1554.62 509.455C1544.36 569.555 1506.49 653.246 1442.08 758.206C1385.35 850.661 1309.58 956.554 1222.97 1064.43C1142.48 1164.68 1055.37 1262.92 977.691 1341.08C896.966 1422.29 830.969 1477.72 786.836 1501.36C735.923 1529.04 689.462 1544.65 644.79 1549.08C604.699 1553.05 566.904 1547.86 529.245 1533.21C456.445 1504.89 394.506 1444 339.858 1390.27L339.857 1390.27C279.283 1331.08 252.661 1246.85 270.381 1170.44C275.599 1147.93 284.516 1126.91 296.768 1107.97Z" fill="url(#paint4_linear_2010_15319)"/>
</mask>
<g mask="url(#mask2_2010_15319)">
<path d="M1416.25 808.82C1425.46 794.471 1434.26 780.395 1442.66 766.595C1506.92 660.934 1544.64 576.31 1554.76 515.074C1564.85 454.063 1546.94 418.019 1501.53 407.945C1365.56 374.238 1259.65 370.547 1182.31 367.853C1147.21 366.629 1119.49 365.663 1098.75 362.101C1065.22 356.395 1001.78 384.467 929.04 437.193C852.739 492.504 781.197 564.105 732.755 633.64C619.641 798.799 435.648 972.894 339.572 1049.62C303.904 1078.13 279.697 1116.88 269.57 1161.7C251.944 1239.7 279.014 1326.4 340.213 1387.98C395.108 1443.54 457.331 1506.53 530.425 1536.69C568.314 1552.32 606.317 1558.31 646.605 1555.02C691.498 1551.34 738.136 1536.31 789.184 1509.05C833.46 1485.77 899.477 1430.62 980.092 1349.56C1057.53 1271.68 1144.33 1173.6 1224.48 1073.37C1297.93 981.534 1363.54 890.981 1416.25 808.82ZM297.771 1098.71C309.119 1081.02 323.365 1065.21 340.232 1051.73C436.478 974.871 620.815 800.443 734.167 634.938C782.358 565.764 853.587 494.488 929.58 439.4C1001.83 387.028 1064.71 359.122 1097.79 364.751C1118.62 368.328 1146.39 369.297 1181.54 370.522C1258.81 373.215 1364.64 376.904 1500.49 410.577C1544.99 420.45 1562.54 455.731 1552.67 515.442C1542.63 576.175 1505.1 660.307 1441.11 765.504C1384.74 858.168 1309.41 964.099 1223.25 1071.84C1143.18 1171.96 1056.48 1269.93 979.136 1347.71C898.757 1428.53 833.004 1483.48 788.985 1506.63C738.204 1533.74 691.828 1548.7 647.2 1552.35C607.147 1555.63 569.356 1549.66 531.666 1534.11C458.807 1504.05 396.682 1441.17 341.87 1385.68L341.869 1385.68C281.114 1324.56 254.2 1238.67 271.628 1161.54C276.761 1138.82 285.596 1117.68 297.771 1098.71Z" fill="url(#paint5_linear_2010_15319)"/>
</g>
<mask id="mask3_2010_15319" style="mask-type:alpha" maskUnits="userSpaceOnUse" x="321" y="398" width="1180" height="1079">
<path d="M1376.93 790.911C1383.03 781.482 1388.93 772.194 1394.62 763.037C1453.44 668.455 1488.2 592.964 1497.94 538.661C1507.46 485.54 1492.47 454.278 1453.38 445.747C1335.87 414.685 1236.33 409.544 1163.65 405.791C1132.34 404.174 1105.29 402.777 1085.17 399.581C1052.32 394.43 992.78 419.8 925.908 467.447C856.174 517.131 789.572 582.86 743.178 647.781C697.789 712.976 635.112 787.812 561.908 864.221C503.15 925.551 439.968 985.409 388.562 1028.45C356.895 1054.99 335.429 1090.3 326.492 1130.55C310.898 1200.78 335.171 1277.66 389.837 1331.21C446.988 1387.76 499.377 1436.53 561.805 1460.61C596.156 1473.86 630.659 1478.57 667.284 1475.01C708.04 1471.05 750.384 1457.03 796.73 1432.13C837.496 1410.77 898.057 1360.73 971.855 1287.43C1042.45 1217.31 1121.77 1128.89 1195.18 1038.47C1265.19 952.253 1327.53 867.305 1376.93 790.911ZM353.104 1071.1C362.901 1055.95 375.01 1042.25 389.219 1030.34C440.715 987.225 503.997 927.272 562.839 865.855C636.177 789.307 698.985 714.311 744.474 648.971C790.626 584.391 856.93 518.963 926.374 469.486C992.795 422.161 1051.81 396.944 1084.25 402.031C1104.44 405.237 1131.52 406.636 1162.87 408.255C1235.5 412.005 1334.95 417.142 1452.36 448.177C1490.63 456.529 1505.3 487.086 1495.99 539.007C1486.33 592.848 1451.75 667.886 1393.2 762.04C1341.45 845.228 1272.6 940.332 1194.05 1037.07C1120.72 1127.39 1041.5 1215.7 970.987 1285.73C897.414 1358.81 837.101 1408.66 796.57 1429.9C750.465 1454.67 708.365 1468.61 667.852 1472.55C631.443 1476.09 597.135 1471.4 562.968 1458.22C500.744 1434.22 448.45 1385.53 391.39 1329.07L391.388 1329.07C337.127 1275.93 312.998 1199.78 328.417 1130.34C333.161 1108.98 341.511 1089.03 353.104 1071.1Z" fill="url(#paint6_linear_2010_15319)"/>
</mask>
<g mask="url(#mask3_2010_15319)">
<path d="M1376.19 797.765C1382.25 788.32 1388.11 779.015 1393.77 769.839C1452.2 675.058 1486.67 599.182 1496.2 544.316C1505.52 490.644 1490.42 458.674 1451.32 449.296C1333.77 415.614 1234.28 408.545 1161.63 403.384C1130.32 401.16 1103.29 399.239 1083.17 395.623C1050.32 389.788 990.911 414.395 924.254 461.446C854.746 510.51 788.425 575.897 742.298 640.841C697.176 706.083 634.812 780.775 561.933 856.864C503.436 917.939 440.513 977.438 389.297 1020.11C357.746 1046.42 336.423 1081.81 327.639 1122.45C312.313 1193.35 336.853 1271.74 391.682 1327.04C449.006 1385.43 501.542 1435.85 564.021 1461.43C598.399 1475.5 632.899 1480.92 669.489 1478C710.205 1474.74 752.471 1461.32 798.698 1436.95C839.361 1416.05 899.701 1366.46 973.184 1293.53C1043.48 1223.76 1122.42 1135.62 1195.46 1045.33C1265.11 959.232 1327.1 874.284 1376.19 797.765ZM354.017 1062.68C363.752 1047.51 375.803 1033.84 389.96 1022.03C441.266 979.292 504.289 919.699 562.87 858.538C635.882 782.31 698.376 707.458 743.598 642.072C789.484 577.468 855.508 512.381 924.727 463.522C990.935 416.788 1049.83 392.328 1082.26 398.089C1102.45 401.716 1129.52 403.64 1160.86 405.866C1233.45 411.024 1332.87 418.088 1450.32 451.74C1488.59 460.921 1503.36 492.171 1494.25 544.63C1484.8 599.029 1450.51 674.45 1392.34 768.801C1340.93 852.164 1272.47 947.287 1194.33 1043.88C1121.37 1134.07 1042.52 1222.11 972.311 1291.79C899.051 1364.5 838.958 1413.91 798.53 1434.68C752.544 1458.92 710.521 1472.28 670.046 1475.51C633.673 1478.42 599.369 1473.03 565.174 1459.03C502.9 1433.54 450.459 1383.21 393.227 1324.91L393.224 1324.91C338.802 1270.02 314.407 1192.38 329.562 1122.27C334.224 1100.71 342.496 1080.64 354.017 1062.68Z" fill="url(#paint7_linear_2010_15319)"/>
</g>
<mask id="mask4_2010_15319" style="mask-type:alpha" maskUnits="userSpaceOnUse" x="380" y="431" width="1062" height="969">
<path d="M1336.75 780.709C1339.78 776.016 1342.76 771.363 1345.68 766.748C1398.63 683 1430.1 616.194 1439.23 568.184C1447.94 522.317 1435.72 495.032 1402.91 487.087C1302.39 455.084 1207.91 446.53 1138.93 440.283C1111.57 437.806 1087.94 435.668 1069.37 432.571C1036.7 427.205 982.597 448.541 920.942 491.106C857.995 534.564 796.637 594.073 752.603 654.374C667.343 775.424 529.921 917.407 438.313 998.112C410.753 1022.43 392.183 1054.39 384.609 1090.53C371.372 1153.69 393.151 1222.4 441.448 1269.85L441.446 1269.85C490.03 1318.3 538.377 1363.6 595.588 1385.44C626.433 1397.22 657.431 1401.42 690.358 1398.3C726.934 1394.83 764.895 1382.47 806.411 1360.51C843.566 1341.55 898.436 1297.1 965.077 1231.95C1028.52 1169.94 1099.95 1091.46 1166.21 1010.98C1232.4 930.598 1291.09 851.33 1336.75 780.709ZM409.416 1034.09C417.569 1021.48 427.474 1009.97 438.98 999.813C530.73 918.984 668.38 776.759 753.786 655.499C797.587 595.52 858.664 536.289 921.339 493.018C982.576 450.742 1036.22 429.536 1068.51 434.84C1087.13 437.942 1110.77 440.083 1138.15 442.562C1207.09 448.805 1301.49 457.352 1401.93 489.328C1434 497.094 1445.93 523.719 1437.42 568.476C1428.38 616.058 1397.08 682.447 1344.37 765.802C1297.62 839.715 1235.67 924.052 1165.18 1009.66C1098.99 1090.05 1027.65 1168.43 964.292 1230.36C897.86 1295.3 843.219 1339.59 806.28 1358.44C764.981 1380.28 727.24 1392.57 690.886 1396.02C658.159 1399.13 627.338 1394.94 596.662 1383.23C539.644 1361.46 491.39 1316.25 442.891 1267.88L442.888 1267.87C394.959 1220.79 373.314 1152.74 386.402 1090.29C390.653 1070 398.449 1051.05 409.416 1034.09Z" fill="url(#paint8_linear_2010_15319)"/>
</mask>
<g mask="url(#mask4_2010_15319)">
<path d="M1336.07 787.003C1339.08 782.302 1342.04 777.641 1344.94 773.017C1397.55 689.111 1428.76 621.978 1437.7 573.479C1446.24 527.146 1433.93 499.257 1401.11 490.59C1300.53 456.266 1206.08 445.827 1137.12 438.203C1109.77 435.181 1086.15 432.571 1067.57 429.084C1034.9 423.032 980.914 443.649 919.453 485.644C856.704 528.521 795.603 587.698 751.818 648.003C667.056 769.118 530.241 910.478 438.986 990.576C411.532 1014.71 393.091 1046.76 385.655 1083.25C372.658 1147.04 394.677 1217.1 443.119 1266.1L443.116 1266.1C491.849 1316.13 540.333 1362.95 597.589 1386.16C628.458 1398.68 659.453 1403.52 692.347 1400.97C728.888 1398.14 766.781 1386.32 808.19 1364.84C845.253 1346.32 899.926 1302.28 966.286 1237.48C1029.46 1175.8 1100.56 1097.59 1166.48 1017.24C1232.33 936.996 1290.69 857.738 1336.07 787.003ZM410.239 1026.51C418.341 1013.88 428.197 1002.39 439.659 992.313C531.055 912.092 668.097 770.491 753.004 649.165C796.558 589.183 857.379 530.282 919.857 487.59C980.9 445.879 1034.43 425.387 1066.73 431.368C1085.34 434.861 1108.98 437.474 1136.35 440.499C1205.26 448.118 1299.64 458.549 1400.14 492.843C1432.22 501.316 1444.24 528.53 1435.9 573.741C1427.04 621.807 1396 688.522 1343.63 772.034C1297.18 846.086 1235.58 930.422 1165.45 1015.89C1099.59 1096.14 1028.58 1174.26 965.496 1235.86C899.343 1300.45 844.899 1344.32 808.052 1362.73C766.858 1384.1 729.186 1395.86 692.867 1398.67C660.172 1401.21 629.354 1396.39 598.654 1383.94C541.591 1360.81 493.201 1314.07 444.553 1264.13L444.551 1264.12C396.477 1215.5 374.596 1146.11 387.446 1083.05C391.62 1062.56 399.341 1043.49 410.239 1026.51Z" fill="url(#paint9_linear_2010_15319)"/>
</g>
<mask id="mask5_2010_15319" style="mask-type:alpha" maskUnits="userSpaceOnUse" x="439" y="464" width="945" height="859">
<path d="M1296.48 770.949C1296.6 770.775 1296.71 770.605 1296.82 770.43C1343.91 697.515 1372.1 639.391 1380.61 597.675C1388.49 559.056 1379.01 535.754 1352.44 528.418C1267.44 494.344 1175.38 482.233 1108.16 473.39C1087.11 470.621 1068.93 468.23 1053.56 465.55C1021.53 460.044 971.373 477.979 915.968 514.755C859.766 552.059 803.652 605.349 762.015 660.961C724.81 713.029 676.805 771.255 619.311 834.052C576.061 881.29 528.218 930.033 488.047 967.783C464.568 989.899 448.883 1018.53 442.687 1050.6C431.851 1106.67 451.148 1167.17 493.046 1208.49C533.508 1249.25 577.367 1290.69 629.357 1310.28C656.694 1320.58 684.19 1324.28 713.417 1321.59C745.813 1318.61 779.393 1307.91 816.079 1288.89C882.581 1256.08 1011.68 1133.34 1137.3 983.466C1199.65 909.077 1254.69 835.603 1296.48 770.949ZM465.727 996.871C472.207 986.846 479.905 977.596 488.727 969.285C528.95 931.487 576.852 882.685 620.152 835.392C677.734 772.498 725.824 714.169 763.084 662.022C804.495 606.712 860.347 553.674 916.295 516.539C971.325 480.013 1021.07 462.187 1052.77 467.635C1068.15 470.319 1086.34 472.712 1107.4 475.482C1174.57 484.318 1266.56 496.419 1351.49 530.465C1377.41 537.623 1386.63 560.307 1378.96 597.905C1370.53 639.23 1342.5 696.972 1295.64 769.531C1295.53 769.7 1295.41 769.879 1295.3 770.048C1253.58 834.589 1198.64 907.939 1136.37 982.229C1010.98 1131.83 882.222 1254.29 815.978 1286.97C779.483 1305.89 746.102 1316.52 713.907 1319.49C684.86 1322.16 657.525 1318.48 630.34 1308.24C578.533 1288.72 534.764 1247.36 494.375 1206.68L494.371 1206.67C452.802 1165.67 433.631 1105.77 444.344 1050.33C448.078 1031 455.337 1012.94 465.727 996.871Z" fill="url(#paint10_linear_2010_15319)"/>
</mask>
<g mask="url(#mask5_2010_15319)">
<path d="M1295.87 776.69C1295.98 776.516 1296.09 776.345 1296.2 776.17C1342.99 703.137 1370.95 644.744 1379.31 602.615C1387.04 563.613 1377.48 539.813 1350.89 531.877C1265.82 495.739 1173.77 481.733 1106.56 471.507C1085.51 468.305 1067.34 465.539 1051.97 462.534C1019.93 456.351 969.879 473.591 914.644 509.832C858.614 546.593 802.732 599.562 761.325 655.157C724.336 707.242 676.575 765.366 619.349 827.947C576.3 875.023 528.666 923.537 488.659 961.052C465.276 983.03 449.707 1011.76 443.633 1044.15C433.01 1100.79 452.518 1162.48 494.543 1205.16C535.13 1247.24 579.114 1290.07 631.144 1310.9C658.502 1321.86 685.995 1326.13 715.194 1323.95C747.558 1321.53 781.078 1311.32 817.67 1292.73C884.011 1260.72 1012.57 1138.71 1137.57 989.139C1199.61 914.898 1254.34 841.447 1295.87 776.69ZM466.461 990.121C472.9 980.08 480.559 970.847 489.345 962.587C529.403 925.025 577.095 876.452 620.194 829.321C677.509 766.644 725.353 708.416 762.398 656.253C803.579 600.96 859.201 548.242 914.977 511.647C969.838 475.652 1019.48 458.515 1051.18 464.633C1066.57 467.643 1084.76 470.41 1105.82 473.614C1172.97 483.832 1264.95 497.826 1349.95 533.934C1375.88 541.677 1385.19 564.846 1377.66 602.817C1369.38 644.551 1341.58 702.561 1295.02 775.236C1294.91 775.406 1294.79 775.585 1294.68 775.755C1253.23 840.399 1198.59 913.726 1136.63 987.868C1011.87 1137.17 883.645 1258.9 817.563 1290.78C781.161 1309.28 747.84 1319.43 715.675 1321.83C686.656 1323.99 659.324 1319.75 632.119 1308.86C580.273 1288.1 536.378 1245.35 495.864 1203.35L495.86 1203.34C454.165 1161 434.786 1099.91 445.288 1043.92C448.948 1024.39 456.136 1006.22 466.461 990.121Z" fill="url(#paint11_linear_2010_15319)"/>
</g>
<mask id="mask6_2010_15319" style="mask-type:alpha" maskUnits="userSpaceOnUse" x="498" y="497" width="827" height="749">
<path d="M1256.31 761.509C1292.65 705.283 1314.78 660.115 1322.15 627.107C1329.16 595.729 1322.38 576.421 1302 569.716C1231.53 531.508 1136.98 515.445 1067.95 503.717C1057.12 501.876 1046.88 500.138 1037.74 498.472C1005.83 492.742 960.803 506.907 910.969 538.356C860.721 570.067 811.152 615.937 771.393 667.517C744.898 703.926 669.143 803.043 537.735 937.45C518.299 957.394 505.488 982.76 500.689 1010.81C492.318 1059.74 509.145 1111.97 544.599 1147.13C577.412 1180.62 616.335 1217.8 663.09 1235.11C712.499 1253.41 765.694 1247.57 825.714 1217.27C855.693 1203.11 899.231 1169.8 951.598 1120.97C1001.48 1074.45 1055.72 1017.38 1108.47 955.925C1162.93 892.463 1211.21 829.579 1248.08 774.067C1250.9 769.824 1253.65 765.635 1256.31 761.509ZM522.017 959.337C526.778 951.972 532.268 945.076 538.442 938.74C559.463 917.24 601.753 873.237 648.767 820.137C698.12 764.397 739.7 713.384 772.351 668.513C811.89 617.218 861.219 571.571 911.228 540.012C960.724 508.776 1005.39 494.7 1037.01 500.375C1046.15 502.042 1056.39 503.779 1067.23 505.621C1136.21 517.34 1230.68 533.391 1301.03 571.543L1301.11 571.575C1320.88 578.062 1327.46 596.801 1320.66 627.269C1312.93 661.849 1287.47 712.312 1247.02 773.213C1210.22 828.62 1162.02 891.401 1107.64 954.769C1054.96 1016.14 1000.79 1073.14 950.985 1119.58C898.796 1168.25 855.453 1201.42 825.646 1215.5C765.967 1245.64 713.094 1251.44 663.983 1233.25C617.401 1216 578.564 1178.9 545.819 1145.48L545.814 1145.48C510.643 1110.6 493.935 1058.89 502.211 1010.52C505.384 991.98 512.124 974.644 522.017 959.337Z" fill="url(#paint12_linear_2010_15319)"/>
</mask>
<g mask="url(#mask6_2010_15319)">
<path d="M1255.76 766.71C1291.87 710.395 1313.82 665.023 1321.06 631.7C1327.95 600.022 1321.11 580.32 1300.71 573.138C1230.14 533.075 1135.6 515.008 1066.56 501.816C1055.73 499.746 1045.5 497.79 1036.36 495.93C1004.44 489.519 959.496 503.03 909.81 533.971C859.711 565.171 810.343 610.738 770.801 662.278C744.456 698.689 669.116 797.741 538.288 931.52C518.938 951.372 506.229 976.845 501.537 1005.19C493.353 1054.63 510.362 1107.91 545.924 1144.22C578.84 1178.79 617.876 1217.21 664.665 1235.65C714.111 1255.13 767.25 1250.21 827.12 1220.62C857.028 1206.83 900.415 1173.89 952.569 1125.37C1002.24 1079.15 1056.24 1022.32 1108.73 961.014C1162.92 897.706 1210.94 834.866 1247.58 779.286C1250.38 775.037 1253.11 770.843 1255.76 766.71ZM522.662 953.412C527.392 946.035 532.853 939.147 539 932.841C559.928 911.442 602.028 867.63 648.816 814.686C697.932 759.11 739.297 708.178 771.761 663.306C811.086 612.051 860.215 566.705 910.074 535.655C959.424 504.923 1004.01 491.495 1035.63 497.845C1044.77 499.707 1055.01 501.662 1065.85 503.733C1134.83 516.914 1229.3 534.968 1299.75 574.972L1299.82 575.006C1319.61 581.956 1326.26 601.077 1319.57 631.836C1311.98 666.746 1286.72 717.424 1246.52 778.4C1209.95 833.876 1162.01 896.612 1107.89 959.826C1055.48 1021.05 1001.55 1077.81 951.95 1123.95C899.974 1172.31 856.782 1205.12 827.045 1218.83C767.516 1248.25 714.698 1253.14 665.551 1233.78C618.934 1215.41 579.985 1177.07 547.137 1142.57L547.132 1142.56C511.854 1106.54 494.966 1053.8 503.058 1004.92C506.16 986.191 512.832 968.743 522.662 953.412Z" fill="url(#paint13_linear_2010_15319)"/>
</g>
<mask id="mask7_2010_15319" style="mask-type:alpha" maskUnits="userSpaceOnUse" x="557" y="529" width="710" height="640">
<path d="M1215.38 753.995C1241.2 714.034 1257.86 680.665 1263.94 656.546C1270.04 632.334 1265.87 617.007 1251.55 610.989C1196.15 564.437 1074.05 541.254 1021.9 531.354C956.679 519.135 857.509 577.818 780.738 674.058C722.263 752.509 646.286 839.596 600.893 891.628C596.072 897.153 591.55 902.336 587.378 907.131C571.925 924.959 561.979 947.148 558.611 971.295C552.795 1012.98 567.168 1056.85 596.116 1085.79C625.076 1115.88 657.319 1145.69 696.784 1159.96C738.901 1175.19 784.215 1170.51 835.315 1145.65C887.245 1122.51 983.189 1037.24 1079.72 928.413C1126.14 876.088 1167.55 823.986 1199.5 777.741C1205.12 769.597 1210.42 761.67 1215.38 753.995ZM578.282 921.3C581.248 916.708 584.531 912.328 588.118 908.189C592.288 903.396 596.808 898.215 601.629 892.69C647.048 840.628 723.068 753.492 781.579 674.991C857.901 579.315 956.46 520.943 1021.23 533.077C1073.33 542.967 1195.34 566.129 1250.55 612.574L1250.6 612.613L1250.65 612.637C1264.48 618.414 1268.5 633.213 1262.6 656.626C1255.43 685.066 1233.29 726.667 1198.57 776.923C1166.69 823.077 1125.34 875.089 1079 927.333C982.667 1035.93 887.003 1120.99 835.281 1144.03C721.798 1199.25 655.454 1144.8 597.223 1084.3L597.217 1084.29C568.511 1055.6 554.249 1012.17 559.999 970.959C562.514 952.934 568.764 936.033 578.282 921.3Z" fill="url(#paint14_linear_2010_15319)"/>
</mask>
<g mask="url(#mask7_2010_15319)">
<path d="M1214.9 758.676C1240.55 718.653 1257.08 685.14 1263.06 660.804C1269.08 636.373 1264.85 620.756 1250.51 614.382C1194.98 566.136 1072.87 540.314 1020.72 529.287C955.494 515.661 856.606 573.27 780.243 669.381C722.098 747.805 646.494 834.651 601.323 886.539C596.526 892.049 592.027 897.217 587.875 902C572.499 919.78 562.642 942.087 559.365 966.503C553.708 1008.65 568.234 1053.41 597.271 1083.29C626.325 1114.34 658.657 1145.18 698.15 1160.4C740.296 1176.64 785.563 1172.75 836.537 1148.52C888.347 1126.05 983.912 1041.42 1079.98 932.926C1126.17 880.76 1167.37 828.725 1199.12 782.448C1204.71 774.298 1209.98 766.362 1214.9 758.676ZM578.837 916.191C581.785 911.592 585.049 907.214 588.618 903.086C592.768 898.306 597.266 893.14 602.063 887.63C647.259 835.712 722.905 748.816 781.087 670.343C857.003 574.796 955.282 517.489 1020.05 531.021C1072.16 542.037 1194.17 567.836 1249.52 615.97L1249.57 616.011L1249.62 616.036C1263.47 622.155 1267.54 637.235 1261.73 660.86C1254.66 689.556 1232.69 731.311 1198.19 781.601C1166.5 827.787 1125.37 879.732 1079.25 931.817C983.386 1040.08 888.1 1124.5 836.498 1146.88C723.294 1200.7 656.79 1144.24 598.372 1081.8L598.366 1081.79C569.572 1052.16 555.158 1007.86 560.75 966.188C563.197 947.963 569.38 930.947 578.837 916.191Z" fill="url(#paint15_linear_2010_15319)"/>
</g>
<mask id="mask8_2010_15319" style="mask-type:alpha" maskUnits="userSpaceOnUse" x="615" y="562" width="595" height="530">
<path d="M1174.64 747.704C1190.43 723.244 1201.29 702.255 1206.11 686.251C1211.31 669.016 1209.62 657.61 1201.1 652.349C1190.58 632.607 1163.04 613.825 1119.22 596.522C1087.3 583.917 1046.05 572.158 1006.04 564.262C941.783 551.72 861.037 595.226 790.04 680.64C766.304 711.453 741.188 743.212 716.897 773.927C685.483 813.648 655.812 851.167 636.976 876.871C621.172 898.546 613.895 926.127 616.475 954.523C618.92 981.438 630.263 1006.93 647.599 1024.48C686.455 1065.9 712.286 1078.5 730.448 1084.85C765.253 1097 802.684 1093.48 844.883 1074.07C889.781 1055.65 968.782 989.393 1051.03 901.154C1103.57 844.789 1146.78 790.85 1174.64 747.704ZM634.507 882.408C635.549 880.794 636.635 879.213 637.766 877.659C656.573 851.993 686.231 814.493 717.629 774.79C741.925 744.069 767.046 712.304 790.764 681.513C861.335 596.613 941.593 553.345 1005.43 565.805C1045.39 573.693 1086.6 585.437 1118.48 598.027C1162.2 615.292 1189.63 633.987 1200.02 653.593L1200.07 653.693L1200.16 653.746C1208.33 658.72 1209.94 669.648 1204.94 686.225C1191.71 730.113 1132.5 812.083 1050.42 900.147C968.358 988.189 889.603 1054.27 844.888 1072.61C802.932 1091.91 765.74 1095.41 731.159 1083.33C696.73 1071.31 668.951 1044.85 648.596 1023.15L648.589 1023.14C631.398 1005.75 620.149 980.486 617.728 953.827C615.38 927.961 621.321 902.83 634.507 882.408Z" fill="url(#paint16_linear_2010_15319)"/>
</mask>
<g mask="url(#mask8_2010_15319)">
<path d="M1174.24 751.888C1189.93 727.391 1200.7 706.321 1205.46 690.187C1210.59 672.812 1208.86 661.216 1200.32 655.719C1189.74 635.501 1162.14 615.931 1118.29 597.548C1086.34 584.157 1045.07 571.444 1005.06 562.671C940.803 548.723 860.273 591.284 789.644 676.52C766.039 707.305 741.058 739.023 716.899 769.697C685.655 809.367 656.144 846.836 637.417 872.535C621.705 894.208 614.536 922.031 617.22 950.87C619.764 978.205 631.195 1004.27 648.586 1022.39C687.57 1065.14 713.431 1078.4 731.605 1085.18C766.432 1098.18 803.824 1095.32 845.922 1076.45C890.721 1058.64 969.421 992.979 1051.28 905.095C1103.57 848.955 1146.56 795.097 1174.24 751.888ZM634.971 878.102C636.006 876.485 637.085 874.903 638.21 873.349C656.908 847.689 686.405 810.237 717.634 770.586C741.798 739.906 766.784 708.181 790.37 677.419C860.576 592.695 940.619 550.367 1004.46 564.224C1044.43 572.987 1085.65 585.685 1117.55 599.06C1161.31 617.403 1188.8 636.883 1199.25 656.959L1199.3 657.062L1199.39 657.118C1207.57 662.317 1209.22 673.427 1204.29 690.138C1191.23 734.381 1132.37 816.351 1050.67 904.061C968.993 991.75 890.538 1057.24 845.922 1074.97C804.067 1093.74 766.913 1096.58 732.31 1083.67C697.859 1070.81 669.999 1043.46 649.577 1021.06L649.57 1021.06C632.325 1003.09 620.99 977.263 618.47 950.188C616.027 923.919 621.87 898.554 634.971 878.102Z" fill="url(#paint17_linear_2010_15319)"/>
</g>
<mask id="mask9_2010_15319" style="mask-type:alpha" maskUnits="userSpaceOnUse" x="674" y="594" width="479" height="422">
<path d="M1134.13 743.976C1140.67 733.839 1145.62 724.848 1148.73 717.313C1153.27 706.294 1153.91 698.444 1150.63 693.977C1153.71 668.953 1123.16 647.521 1096.95 633.93C1067.39 618.605 1027.45 604.894 990.118 597.253C957.967 590.726 927.106 594.636 895.77 609.206C863.769 624.087 832.199 649.643 799.255 687.333C751.688 746.189 707.433 808.755 686.493 846.755C676.347 865.299 672.358 887.826 675.258 910.19C677.972 931.112 686.63 950.46 699.013 963.272C730.78 998.553 777.148 1034.9 854.381 1002.6C891.96 989.034 954.516 941.382 1021.69 875.138C1070.78 826.729 1111.75 778.676 1134.13 743.976ZM706.707 815.171C730.178 778.789 764.081 732.414 799.861 688.143C832.605 650.681 863.994 625.268 895.793 610.482C926.926 596.005 957.602 592.124 989.574 598.614C1059.35 612.896 1155.1 652.092 1149.5 694.519L1149.46 694.783L1149.58 694.939C1152.75 699.048 1152.13 706.501 1147.77 717.091C1134.13 750.162 1084.45 811.823 1021.21 874.184C954.202 940.267 891.853 987.782 854.428 1001.29C777.647 1033.41 731.515 997.218 699.902 962.105L699.893 962.096C687.624 949.405 679.046 930.242 676.36 909.523C673.504 887.503 677.406 865.371 687.346 847.202C692.488 837.873 699.042 827.054 706.707 815.171Z" fill="url(#paint18_linear_2010_15319)"/>
</mask>
<g mask="url(#mask9_2010_15319)">
<path d="M1133.82 747.707C1140.31 737.556 1145.22 728.536 1148.3 720.957C1152.8 709.872 1153.41 701.926 1150.11 697.332C1153.09 672.019 1122.49 649.695 1096.24 635.403C1066.64 619.29 1026.68 604.611 989.349 596.137C957.196 588.893 926.371 592.257 895.113 606.421C863.191 620.886 831.74 646.184 798.962 683.758C751.651 742.509 707.664 805.085 686.883 843.208C676.814 861.813 672.913 884.576 675.896 907.309C678.686 928.575 687.411 948.361 699.835 961.592C731.713 997.983 778.185 1035.74 855.241 1004.49C892.742 991.468 955.073 944.369 1021.95 878.509C1070.82 830.38 1111.58 782.455 1133.82 747.707ZM706.963 811.577C730.28 775.145 763.984 728.783 799.57 684.592C832.149 647.245 863.42 622.088 895.141 607.714C926.197 593.642 956.836 590.304 988.811 597.506C1058.59 613.345 1154.42 654.951 1148.98 697.859L1148.95 698.127L1149.07 698.287C1152.25 702.515 1151.66 710.06 1147.34 720.713C1133.83 753.979 1084.43 815.533 1021.47 877.532C954.755 943.232 892.63 990.196 855.283 1003.16C778.678 1034.23 732.442 996.644 700.718 960.426L700.709 960.417C688.401 947.31 679.757 927.714 676.994 906.653C674.057 884.271 677.873 861.906 687.736 843.678C692.84 834.319 699.348 823.476 706.963 811.577Z" fill="url(#paint19_linear_2010_15319)"/>
</g>
<mask id="mask10_2010_15319" style="mask-type:alpha" maskUnits="userSpaceOnUse" x="731" y="627" width="376" height="313">
<path d="M1093.69 748.786C1096.5 744.421 1098.36 740.753 1099.11 737.93C1104.46 731.14 1107.01 723.975 1106.68 716.638C1105.73 695.17 1080.79 676.565 1060.04 664.738C1035.35 650.664 1003.04 638.516 973.604 632.24C940.292 625.168 914.571 625.932 890.201 634.719C864.203 644.094 838.144 663.413 808.188 695.521C775.256 733.158 746.914 781.071 735.961 817.615C726.229 850.432 735.652 886.657 750.385 902.725C779.662 937.737 817.754 947.563 863.599 931.928C881.536 926.802 904.425 914.981 931.604 896.802C955.136 881.061 981.224 860.924 1007.05 838.568C1047.48 803.566 1080.75 768.829 1093.69 748.786ZM1098.29 737.592L1098.24 737.789C1097.56 740.506 1095.77 744.073 1093.02 748.328C1064.55 792.449 933.156 910.926 863.705 930.775C818.13 946.317 780.275 936.543 751.168 901.73L751.16 901.719C736.585 885.829 727.249 850.03 736.859 817.63C747.738 781.332 775.925 733.695 808.671 696.273C838.438 664.368 864.33 645.165 890.135 635.86C914.353 627.127 939.949 626.373 973.129 633.417C1002.51 639.682 1034.76 651.808 1059.41 665.855C1080.02 677.601 1104.78 696.032 1105.72 717.118C1106.03 724.115 1103.58 730.953 1098.42 737.429L1098.29 737.592Z" fill="url(#paint20_linear_2010_15319)"/>
</mask>
<g mask="url(#mask10_2010_15319)">
<path d="M1093.51 752.002C1096.31 747.631 1098.15 743.947 1098.89 741.1C1104.22 734.319 1106.74 727.104 1106.38 719.659C1105.35 697.874 1080.36 678.529 1059.58 666.137C1034.85 651.391 1002.51 638.45 973.077 631.518C939.761 623.705 914.061 623.983 889.741 632.422C863.796 641.425 837.827 660.51 808.013 692.485C775.245 730.009 747.103 778.041 736.295 814.881C726.693 847.966 736.246 884.876 751.029 901.452C780.417 937.516 818.52 948.214 864.275 933.246C882.18 928.396 905.009 916.852 932.101 898.945C955.557 883.44 981.552 863.527 1007.27 841.359C1047.54 806.651 1080.66 772.074 1093.51 752.002ZM1098.07 740.742L1098.03 740.941C1097.35 743.682 1095.58 747.264 1092.85 751.525C1064.56 795.709 933.705 913.296 864.376 932.079C818.891 946.958 781.025 936.317 751.808 900.459L751.799 900.447C737.175 884.054 727.711 847.578 737.192 814.913C747.928 778.321 775.916 730.566 808.498 693.257C838.125 661.483 863.927 642.513 889.679 633.577C913.847 625.191 939.423 624.921 972.606 632.703C1001.99 639.622 1034.27 652.539 1058.95 667.257C1079.59 679.565 1104.41 698.729 1105.42 720.126C1105.76 727.227 1103.33 734.112 1098.2 740.579L1098.07 740.742Z" fill="url(#paint21_linear_2010_15319)"/>
</g>
<mask id="mask11_2010_15319" style="mask-type:alpha" maskUnits="userSpaceOnUse" x="785" y="660" width="286" height="206">
<path d="M1065.22 766.857C1068.04 762.476 1069.76 757.942 1070.36 753.275C1071.87 741.575 1066.92 723.106 1034.82 701.563C1013.3 687.123 984.43 674.97 957.596 669.055C925.883 662.065 905.173 658.115 885.016 662.191C864.162 666.407 844.56 679.079 817.357 705.925C802.362 720.721 792.496 738.056 788.028 757.441C778.37 799.36 796.784 837.67 801.859 844.908C811.341 858.426 827.019 865.49 848.46 865.903C866.915 866.258 889.679 861.713 916.117 852.396C963.906 835.553 1015.62 805.762 1048.09 783.498C1055.73 778.259 1061.45 772.693 1065.22 766.857ZM802.292 725.483C806.594 718.81 811.737 712.515 817.705 706.626C844.733 679.952 864.186 667.368 884.849 663.19C904.887 659.137 925.546 663.08 957.188 670.055C1006.11 680.84 1074.28 716.756 1069.56 753.487C1068.21 763.913 1060.94 773.727 1047.92 782.651C1015.51 804.877 963.881 834.616 916.179 851.427C889.823 860.717 867.141 865.247 848.762 864.893C827.488 864.483 811.942 857.49 802.555 844.106C797.517 836.924 779.239 798.912 788.811 757.364C791.432 745.988 795.946 735.325 802.292 725.483Z" fill="url(#paint22_linear_2010_15319)"/>
</mask>
<g mask="url(#mask11_2010_15319)">
<path d="M1065.2 769.903C1068 765.516 1069.71 760.952 1070.29 756.232C1071.75 744.398 1066.74 725.573 1034.57 703.098C1013.01 688.033 984.121 675.144 957.284 668.618C925.568 660.908 904.858 656.495 884.731 660.232C863.909 664.098 844.37 676.562 817.289 703.249C802.361 717.958 792.568 735.34 788.177 754.909C778.686 797.224 797.232 836.433 802.331 843.872C811.857 857.765 827.551 865.235 848.978 866.075C867.421 866.798 890.151 862.637 916.534 853.708C964.224 837.57 1015.79 808.378 1048.15 786.44C1055.77 781.278 1061.46 775.747 1065.2 769.903ZM802.309 722.784C806.582 716.103 811.698 709.821 817.639 703.966C844.546 677.451 863.936 665.072 884.568 661.242C904.577 657.527 925.235 661.93 956.881 669.625C1005.81 681.522 1074.06 719.279 1069.48 756.431C1068.18 766.976 1060.95 776.784 1047.98 785.578C1015.67 807.478 964.195 836.619 916.592 852.728C890.291 861.629 867.643 865.777 849.276 865.057C828.016 864.224 812.454 856.827 803.023 843.071C797.962 835.69 779.552 796.788 788.96 754.846C791.536 743.363 796.005 732.64 802.309 722.784Z" fill="url(#paint23_linear_2010_15319)"/>
</g>
<defs>
<linearGradient id="paint0_linear_2010_15319" x1="872.349" y1="422.611" x2="1364.56" y2="1319.27" gradientUnits="userSpaceOnUse">
<stop stop-color="white"/>
<stop offset="0.0436" stop-color="#B4B4B4"/>
<stop offset="0.1507"/>
<stop offset="0.1714" stop-color="#171717"/>
<stop offset="0.3859" stop-color="white"/>
<stop offset="0.6326" stop-color="#E6E6E6"/>
<stop offset="0.8567" stop-color="#1A1A1A"/>
<stop offset="0.9987"/>
</linearGradient>
<linearGradient id="paint1_linear_2010_15319" x1="870.34" y1="414.083" x2="1365.45" y2="1332.21" gradientUnits="userSpaceOnUse">
<stop stop-color="#0522AC"/>
<stop offset="1" stop-color="#34384C" stop-opacity="0"/>
</linearGradient>
<linearGradient id="paint2_linear_2010_15319" x1="874.93" y1="444.559" x2="1329.36" y2="1272.29" gradientUnits="userSpaceOnUse">
<stop stop-color="white"/>
<stop offset="0.0436" stop-color="#B4B4B4"/>
<stop offset="0.1507"/>
<stop offset="0.1714" stop-color="#171717"/>
<stop offset="0.3859" stop-color="white"/>
<stop offset="0.6326" stop-color="#E6E6E6"/>
<stop offset="0.8567" stop-color="#1A1A1A"/>
<stop offset="0.9987"/>
</linearGradient>
<linearGradient id="paint3_linear_2010_15319" x1="873.073" y1="436.687" x2="1330.18" y2="1284.25" gradientUnits="userSpaceOnUse">
<stop stop-color="#0522AC"/>
<stop offset="1" stop-color="#34384C" stop-opacity="0"/>
</linearGradient>
<linearGradient id="paint4_linear_2010_15319" x1="877.486" y1="466.113" x2="1294.31" y2="1225.2" gradientUnits="userSpaceOnUse">
<stop stop-color="white"/>
<stop offset="0.0436" stop-color="#B4B4B4"/>
<stop offset="0.1507"/>
<stop offset="0.1714" stop-color="#171717"/>
<stop offset="0.3859" stop-color="white"/>
<stop offset="0.6326" stop-color="#E6E6E6"/>
<stop offset="0.8567" stop-color="#1A1A1A"/>
<stop offset="0.9987"/>
</linearGradient>
<linearGradient id="paint5_linear_2010_15319" x1="875.782" y1="458.887" x2="1295.06" y2="1236.19" gradientUnits="userSpaceOnUse">
<stop stop-color="#0522AC"/>
<stop offset="1" stop-color="#34384C" stop-opacity="0"/>
</linearGradient>
<linearGradient id="paint6_linear_2010_15319" x1="880.066" y1="487.66" x2="1259.29" y2="1178.12" gradientUnits="userSpaceOnUse">
<stop stop-color="white"/>
<stop offset="0.0436" stop-color="#B4B4B4"/>
<stop offset="0.1507"/>
<stop offset="0.1714" stop-color="#171717"/>
<stop offset="0.3859" stop-color="white"/>
<stop offset="0.6326" stop-color="#E6E6E6"/>
<stop offset="0.8567" stop-color="#1A1A1A"/>
<stop offset="0.9987"/>
</linearGradient>
<linearGradient id="paint7_linear_2010_15319" x1="878.515" y1="481.08" x2="1259.97" y2="1188.13" gradientUnits="userSpaceOnUse">
<stop stop-color="#0522AC"/>
<stop offset="1" stop-color="#34384C" stop-opacity="0"/>
</linearGradient>
<linearGradient id="paint8_linear_2010_15319" x1="882.636" y1="508.8" x2="1224.45" y2="1130.93" gradientUnits="userSpaceOnUse">
<stop stop-color="white"/>
<stop offset="0.0436" stop-color="#B4B4B4"/>
<stop offset="0.1507"/>
<stop offset="0.1714" stop-color="#171717"/>
<stop offset="0.3859" stop-color="white"/>
<stop offset="0.6326" stop-color="#E6E6E6"/>
<stop offset="0.8567" stop-color="#1A1A1A"/>
<stop offset="0.9987"/>
</linearGradient>
<linearGradient id="paint9_linear_2010_15319" x1="881.235" y1="502.864" x2="1225.06" y2="1139.96" gradientUnits="userSpaceOnUse">
<stop stop-color="#0522AC"/>
<stop offset="1" stop-color="#34384C" stop-opacity="0"/>
</linearGradient>
<linearGradient id="paint10_linear_2010_15319" x1="885.236" y1="529.749" x2="1189.73" y2="1083.7" gradientUnits="userSpaceOnUse">
<stop stop-color="white"/>
<stop offset="0.0436" stop-color="#B4B4B4"/>
<stop offset="0.1507"/>
<stop offset="0.1714" stop-color="#171717"/>
<stop offset="0.3859" stop-color="white"/>
<stop offset="0.6326" stop-color="#E6E6E6"/>
<stop offset="0.8567" stop-color="#1A1A1A"/>
<stop offset="0.9987"/>
</linearGradient>
<linearGradient id="paint11_linear_2010_15319" x1="883.987" y1="524.455" x2="1190.27" y2="1091.76" gradientUnits="userSpaceOnUse">
<stop stop-color="#0522AC"/>
<stop offset="1" stop-color="#34384C" stop-opacity="0"/>
</linearGradient>
<linearGradient id="paint12_linear_2010_15319" x1="887.863" y1="550.225" x2="1155.25" y2="1036.35" gradientUnits="userSpaceOnUse">
<stop stop-color="white"/>
<stop offset="0.0436" stop-color="#B4B4B4"/>
<stop offset="0.1507"/>
<stop offset="0.1714" stop-color="#171717"/>
<stop offset="0.3859" stop-color="white"/>
<stop offset="0.6326" stop-color="#E6E6E6"/>
<stop offset="0.8567" stop-color="#1A1A1A"/>
<stop offset="0.9987"/>
</linearGradient>
<linearGradient id="paint13_linear_2010_15319" x1="886.761" y1="545.568" x2="1155.72" y2="1043.47" gradientUnits="userSpaceOnUse">
<stop stop-color="#0522AC"/>
<stop offset="1" stop-color="#34384C" stop-opacity="0"/>
</linearGradient>
<linearGradient id="paint14_linear_2010_15319" x1="890.56" y1="570.162" x2="1121.1" y2="988.891" gradientUnits="userSpaceOnUse">
<stop stop-color="white"/>
<stop offset="0.0436" stop-color="#B4B4B4"/>
<stop offset="0.1507"/>
<stop offset="0.1714" stop-color="#171717"/>
<stop offset="0.3859" stop-color="white"/>
<stop offset="0.6326" stop-color="#E6E6E6"/>
<stop offset="0.8567" stop-color="#1A1A1A"/>
<stop offset="0.9987"/>
</linearGradient>
<linearGradient id="paint15_linear_2010_15319" x1="889.607" y1="566.137" x2="1121.5" y2="995.056" gradientUnits="userSpaceOnUse">
<stop stop-color="#0522AC"/>
<stop offset="1" stop-color="#34384C" stop-opacity="0"/>
</linearGradient>
<linearGradient id="paint16_linear_2010_15319" x1="893.437" y1="589.636" x2="1087.39" y2="941.416" gradientUnits="userSpaceOnUse">
<stop stop-color="white"/>
<stop offset="0.0436" stop-color="#B4B4B4"/>
<stop offset="0.1507"/>
<stop offset="0.1714" stop-color="#171717"/>
<stop offset="0.3859" stop-color="white"/>
<stop offset="0.6326" stop-color="#E6E6E6"/>
<stop offset="0.8567" stop-color="#1A1A1A"/>
<stop offset="0.9987"/>
</linearGradient>
<linearGradient id="paint17_linear_2010_15319" x1="892.631" y1="586.236" x2="1087.71" y2="946.639" gradientUnits="userSpaceOnUse">
<stop stop-color="#0522AC"/>
<stop offset="1" stop-color="#34384C" stop-opacity="0"/>
</linearGradient>
<linearGradient id="paint18_linear_2010_15319" x1="896.759" y1="608.121" x2="1054.65" y2="893.886" gradientUnits="userSpaceOnUse">
<stop stop-color="white"/>
<stop offset="0.0436" stop-color="#B4B4B4"/>
<stop offset="0.1507"/>
<stop offset="0.1714" stop-color="#171717"/>
<stop offset="0.3859" stop-color="white"/>
<stop offset="0.6326" stop-color="#E6E6E6"/>
<stop offset="0.8567" stop-color="#1A1A1A"/>
<stop offset="0.9987"/>
</linearGradient>
<linearGradient id="paint19_linear_2010_15319" x1="896.098" y1="605.341" x2="1054.9" y2="898.191" gradientUnits="userSpaceOnUse">
<stop stop-color="#0522AC"/>
<stop offset="1" stop-color="#34384C" stop-opacity="0"/>
</linearGradient>
<linearGradient id="paint20_linear_2010_15319" x1="905.483" y1="624.424" x2="1027.61" y2="845.718" gradientUnits="userSpaceOnUse">
<stop stop-color="white"/>
<stop offset="0.0436" stop-color="#B4B4B4"/>
<stop offset="0.1507"/>
<stop offset="0.1714" stop-color="#171717"/>
<stop offset="0.3859" stop-color="white"/>
<stop offset="0.6326" stop-color="#E6E6E6"/>
<stop offset="0.8567" stop-color="#1A1A1A"/>
<stop offset="0.9987"/>
</linearGradient>
<linearGradient id="paint21_linear_2010_15319" x1="904.973" y1="622.28" x2="1027.81" y2="849.027" gradientUnits="userSpaceOnUse">
<stop stop-color="#0522AC"/>
<stop offset="1" stop-color="#34384C" stop-opacity="0"/>
</linearGradient>
<linearGradient id="paint22_linear_2010_15319" x1="916.849" y1="640.235" x2="1009.66" y2="807.976" gradientUnits="userSpaceOnUse">
<stop stop-color="white"/>
<stop offset="0.0436" stop-color="#B4B4B4"/>
<stop offset="0.1507"/>
<stop offset="0.1714" stop-color="#171717"/>
<stop offset="0.3859" stop-color="white"/>
<stop offset="0.6326" stop-color="#E6E6E6"/>
<stop offset="0.8567" stop-color="#1A1A1A"/>
<stop offset="0.9987"/>
</linearGradient>
<linearGradient id="paint23_linear_2010_15319" x1="916.458" y1="638.594" x2="1009.8" y2="810.523" gradientUnits="userSpaceOnUse">
<stop stop-color="#0522AC"/>
<stop offset="1" stop-color="#34384C" stop-opacity="0"/>
</linearGradient>
</defs>
</svg>
