<svg width="286" height="270" viewBox="0 0 286 270" fill="none" xmlns="http://www.w3.org/2000/svg">
<g opacity="0.24">
<mask id="mask0_2046_12459" style="mask-type:alpha" maskUnits="userSpaceOnUse" x="-585" y="-331" width="871" height="851">
<path d="M-467.284 210.74C-476.965 199.249 -486.131 187.827 -494.729 176.527C-541.946 114.478 -570.806 58.3221 -580.505 9.6189C-590.429 -40.2098 -579.836 -81.0272 -549.02 -111.699C-455.462 -204.82 -387.578 -250.777 -342.659 -281.189C-322.44 -294.877 -306.471 -305.688 -295.448 -316.008L-295.085 -315.133L-295.448 -316.008C-277.109 -333.178 -235.762 -335.798 -187.542 -322.844C-135.65 -308.905 -87.2695 -280.332 -54.8052 -244.454C-10.0283 -194.967 47.2505 -157.597 87.4169 -134.961C134.205 -108.595 185.574 -86.745 224.828 -76.5135C250.169 -69.9086 268.586 -48.8478 278.086 -15.6055C294.535 41.9546 282.189 128.497 245.865 210.25C228.648 249 210.845 289.069 192.161 325.957C171.506 366.741 151.959 399.116 132.403 424.932C109.052 455.761 85.0816 478.306 59.1211 493.854C30.1351 511.216 -0.675083 519.547 -35.0701 519.323C-93.8155 518.941 -218.144 445.921 -337.414 341.75C-386.202 299.137 -430.466 254.445 -467.284 210.74ZM257.453 -53.3571C248.501 -63.9835 237.458 -71.1279 224.593 -74.4813C185.259 -84.7334 133.798 -106.62 86.9343 -133.03C46.6865 -155.711 -10.7161 -193.166 -55.6197 -242.792C-87.9204 -278.489 -136.092 -306.928 -187.784 -320.813C-235.683 -333.68 -276.659 -331.168 -294.721 -314.257C-305.822 -303.864 -321.829 -293.028 -342.093 -279.308C-386.973 -248.924 -454.795 -203.008 -548.26 -109.979C-578.514 -79.8686 -588.919 -39.8284 -579.189 9.02843C-569.564 57.3538 -540.843 113.186 -493.824 174.975C-452.59 229.161 -398.265 286.215 -336.722 339.967C-217.64 443.974 -93.593 516.88 -35.0635 517.26C-0.848231 517.483 29.7931 509.2 58.6118 491.938C84.4235 476.478 108.264 454.053 131.496 423.383C175.08 365.843 210.484 286.162 244.722 209.104C280.791 127.925 293.092 42.1341 276.823 -14.7926C272.332 -30.508 265.802 -43.4471 257.453 -53.3571Z" fill="url(#paint0_linear_2046_12459)"/>
</mask>
<g mask="url(#mask0_2046_12459)">
<path d="M-467.284 210.74C-476.965 199.249 -486.131 187.827 -494.729 176.527C-541.946 114.478 -570.806 58.3221 -580.505 9.6189C-590.429 -40.2098 -579.836 -81.0272 -549.02 -111.699C-455.462 -204.82 -387.578 -250.777 -342.659 -281.189C-322.44 -294.877 -306.471 -305.688 -295.448 -316.008L-295.085 -315.133L-295.448 -316.008C-277.109 -333.178 -235.762 -335.798 -187.542 -322.844C-135.65 -308.905 -87.2695 -280.332 -54.8052 -244.454C-10.0283 -194.967 47.2505 -157.597 87.4169 -134.961C134.205 -108.595 185.574 -86.745 224.828 -76.5135C250.169 -69.9086 268.586 -48.8478 278.086 -15.6055C294.535 41.9546 282.189 128.497 245.865 210.25C228.648 249 210.845 289.069 192.161 325.957C171.506 366.741 151.959 399.116 132.403 424.932C109.052 455.761 85.0816 478.306 59.1211 493.854C30.1351 511.216 -0.675083 519.547 -35.0701 519.323C-93.8155 518.941 -218.144 445.921 -337.414 341.75C-386.202 299.137 -430.466 254.445 -467.284 210.74ZM257.453 -53.3571C248.501 -63.9835 237.458 -71.1279 224.593 -74.4813C185.259 -84.7334 133.798 -106.62 86.9343 -133.03C46.6865 -155.711 -10.7161 -193.166 -55.6197 -242.792C-87.9204 -278.489 -136.092 -306.928 -187.784 -320.813C-235.683 -333.68 -276.659 -331.168 -294.721 -314.257C-305.822 -303.864 -321.829 -293.028 -342.093 -279.308C-386.973 -248.924 -454.795 -203.008 -548.26 -109.979C-578.514 -79.8686 -588.919 -39.8284 -579.189 9.02843C-569.564 57.3538 -540.843 113.186 -493.824 174.975C-452.59 229.161 -398.265 286.215 -336.722 339.967C-217.64 443.974 -93.593 516.88 -35.0635 517.26C-0.848231 517.483 29.7931 509.2 58.6118 491.938C84.4235 476.478 108.264 454.053 131.496 423.383C175.08 365.843 210.484 286.162 244.722 209.104C280.791 127.925 293.092 42.1341 276.823 -14.7926C272.332 -30.508 265.802 -43.4471 257.453 -53.3571Z" fill="white"/>
</g>
<mask id="mask1_2046_12459" style="mask-type:alpha" maskUnits="userSpaceOnUse" x="-552" y="-311" width="803" height="786">
<path d="M-446.942 190.614C-454.598 181.527 -461.892 172.49 -468.794 163.534C-512.327 107.046 -539 55.9138 -548.071 11.5564C-557.243 -33.2888 -547.988 -70.09 -520.564 -97.8244C-438.142 -182.511 -374.59 -228.196 -332.537 -258.426C-312.796 -272.618 -297.203 -283.827 -286.1 -294.348C-268.15 -311.337 -229.213 -314.907 -184.484 -303.666C-136.591 -291.63 -91.338 -265.503 -60.3285 -231.986C-18.8698 -186.634 33.6765 -151.826 70.4573 -130.61C113.666 -105.687 159.348 -85.3757 195.79 -74.8851C218.784 -68.2578 235.47 -48.512 244.045 -17.7824C258.93 35.5632 247.553 115.173 214.354 189.979L214.354 189.978C183.077 260.603 150.734 333.633 109.859 387.459C88.3284 415.811 66.224 436.586 42.2823 450.973C15.5746 467.022 -12.7932 474.816 -44.4399 474.804C-98.7711 475.05 -213.632 408.911 -323.759 313.968C-370.226 273.907 -412.281 231.759 -446.942 190.614ZM224.588 -53.7627C216.614 -63.2287 206.86 -69.7219 195.546 -72.9833C159.032 -83.4944 113.271 -103.84 69.9939 -128.802C33.1404 -150.06 -19.5165 -184.945 -61.0858 -230.419C-91.9371 -263.764 -136.993 -289.767 -184.697 -301.757C-229.126 -312.923 -267.718 -309.457 -285.411 -292.71C-296.577 -282.13 -312.2 -270.898 -331.979 -256.68C-373.997 -226.475 -437.494 -180.829 -519.838 -96.2219C-546.74 -69.0163 -555.822 -32.9475 -546.837 10.9873C-537.838 54.991 -511.296 105.822 -467.949 162.068C-429.859 211.497 -379.776 263.44 -323.117 312.287C-213.167 407.078 -98.5718 473.111 -44.4423 472.866C-12.9604 472.879 15.2497 465.129 41.8022 449.174C65.6058 434.871 87.5888 414.208 109.007 386.002C149.754 332.345 182.048 259.425 213.279 188.906V188.905C246.241 114.631 257.574 35.7195 242.854 -17.0338C238.668 -32.032 232.506 -44.3636 224.588 -53.7627Z" fill="url(#paint1_linear_2046_12459)"/>
</mask>
<g mask="url(#mask1_2046_12459)">
<path d="M-446.942 190.614C-454.598 181.527 -461.892 172.49 -468.794 163.534C-512.327 107.046 -539 55.9138 -548.071 11.5564C-557.243 -33.2888 -547.988 -70.09 -520.564 -97.8244C-438.142 -182.511 -374.59 -228.196 -332.537 -258.426C-312.796 -272.618 -297.203 -283.827 -286.1 -294.348C-268.15 -311.337 -229.213 -314.907 -184.484 -303.666C-136.591 -291.63 -91.338 -265.503 -60.3285 -231.986C-18.8698 -186.634 33.6765 -151.826 70.4573 -130.61C113.666 -105.687 159.348 -85.3757 195.79 -74.8851C218.784 -68.2578 235.47 -48.512 244.045 -17.7824C258.93 35.5632 247.553 115.173 214.354 189.979L214.354 189.978C183.077 260.603 150.734 333.633 109.859 387.459C88.3284 415.811 66.224 436.586 42.2823 450.973C15.5746 467.022 -12.7932 474.816 -44.4399 474.804C-98.7711 475.05 -213.632 408.911 -323.759 313.968C-370.226 273.907 -412.281 231.759 -446.942 190.614ZM224.588 -53.7627C216.614 -63.2287 206.86 -69.7219 195.546 -72.9833C159.032 -83.4944 113.271 -103.84 69.9939 -128.802C33.1404 -150.06 -19.5165 -184.945 -61.0858 -230.419C-91.9371 -263.764 -136.993 -289.767 -184.697 -301.757C-229.126 -312.923 -267.718 -309.457 -285.411 -292.71C-296.577 -282.13 -312.2 -270.898 -331.979 -256.68C-373.997 -226.475 -437.494 -180.829 -519.838 -96.2219C-546.74 -69.0163 -555.822 -32.9475 -546.837 10.9873C-537.838 54.991 -511.296 105.822 -467.949 162.068C-429.859 211.497 -379.776 263.44 -323.117 312.287C-213.167 407.078 -98.5718 473.111 -44.4423 472.866C-12.9604 472.879 15.2497 465.129 41.8022 449.174C65.6058 434.871 87.5888 414.208 109.007 386.002C149.754 332.345 182.048 259.425 213.279 188.906V188.905C246.241 114.631 257.574 35.7195 242.854 -17.0338C238.668 -32.032 232.506 -44.3636 224.588 -53.7627Z" fill="white"/>
</g>
<mask id="mask2_2046_12459" style="mask-type:alpha" maskUnits="userSpaceOnUse" x="-519" y="-290" width="735" height="721">
<path d="M-426.565 170.619C-432.236 163.888 -437.675 157.197 -442.88 150.545C-482.73 99.6177 -507.216 53.5077 -515.658 13.497C-524.069 -26.3672 -516.145 -59.1532 -492.106 -83.9496C-420.29 -160.744 -363.255 -204.374 -321.61 -236.231C-302.71 -250.689 -287.783 -262.107 -276.749 -272.69C-258.914 -289.758 -223.279 -294.169 -181.425 -284.49C-137.521 -274.337 -95.3963 -250.656 -65.8504 -219.52C3.27637 -144.812 111.125 -91.1199 166.753 -73.2571C187.405 -66.6085 202.364 -48.173 210.012 -19.9419C223.322 29.19 212.911 101.861 182.842 169.711C155.887 230.814 125.334 300.072 87.3135 349.988C67.6052 375.862 47.3672 394.869 25.4438 408.093C1.01422 422.829 -24.9099 430.089 -53.8102 430.286C-78.8586 430.721 -117.2 416.702 -164.686 389.746C-210.302 363.85 -261.952 327.073 -310.122 286.19C-354.257 248.73 -394.097 209.158 -426.565 170.619ZM191.718 -54.2178C184.729 -62.5146 176.265 -68.3423 166.499 -71.4848C110.773 -89.3807 2.72186 -143.178 -66.5501 -218.043C-95.943 -249.017 -137.883 -272.585 -181.61 -282.698C-223.181 -292.312 -258.505 -287.999 -276.101 -271.161C-287.183 -260.532 -302.134 -249.095 -321.062 -234.616C-362.673 -202.784 -419.662 -159.188 -491.415 -82.465C-514.973 -58.1652 -522.739 -26.0653 -514.507 12.9494C-506.135 52.6314 -481.772 98.46 -442.097 149.164C-407.147 193.826 -361.306 240.666 -309.528 284.611C-261.41 325.45 -209.819 362.185 -164.259 388.048C-116.913 414.926 -78.7235 428.904 -53.8204 428.472C-25.0712 428.274 0.707214 421.058 24.9928 406.409C46.7883 393.263 66.9131 374.36 86.5179 348.622C124.416 298.866 154.921 229.716 181.835 168.707L181.836 168.706C211.687 101.349 222.054 29.324 208.892 -19.2595C205.016 -33.5715 199.217 -45.3163 191.718 -54.2178Z" fill="url(#paint2_linear_2046_12459)"/>
</mask>
<g mask="url(#mask2_2046_12459)">
<path d="M-426.566 170.619C-432.237 163.888 -437.676 157.197 -442.881 150.545C-482.731 99.6177 -507.217 53.5077 -515.659 13.497C-524.07 -26.3672 -516.146 -59.1532 -492.107 -83.9496C-420.291 -160.744 -363.256 -204.374 -321.611 -236.231C-302.711 -250.689 -287.784 -262.107 -276.75 -272.69C-258.914 -289.758 -223.28 -294.169 -181.426 -284.49C-137.522 -274.337 -95.3972 -250.656 -65.8514 -219.52C3.27539 -144.812 111.125 -91.1199 166.752 -73.2571C187.404 -66.6085 202.363 -48.173 210.011 -19.9419C223.321 29.19 212.91 101.861 182.841 169.711C155.886 230.814 125.333 300.072 87.3125 349.988C67.6042 375.862 47.3663 394.869 25.4428 408.093C1.01324 422.829 -24.9109 430.089 -53.8112 430.286C-78.8596 430.721 -117.201 416.702 -164.687 389.746C-210.303 363.85 -261.952 327.073 -310.123 286.19C-354.258 248.73 -394.098 209.158 -426.566 170.619ZM191.717 -54.2178C184.728 -62.5146 176.264 -68.3423 166.498 -71.4848C110.772 -89.3807 2.72089 -143.178 -66.5511 -218.043C-95.944 -249.017 -137.884 -272.585 -181.611 -282.698C-223.182 -292.312 -258.506 -287.999 -276.102 -271.161C-287.184 -260.532 -302.135 -249.095 -321.063 -234.616C-362.674 -202.784 -419.663 -159.188 -491.416 -82.465C-514.974 -58.1652 -522.74 -26.0653 -514.508 12.9494C-506.136 52.6314 -481.773 98.46 -442.098 149.164C-407.148 193.826 -361.307 240.666 -309.529 284.611C-261.411 325.45 -209.82 362.185 -164.26 388.048C-116.914 414.926 -78.7245 428.904 -53.8214 428.472C-25.0722 428.274 0.706238 421.058 24.9918 406.409C46.7874 393.263 66.9122 374.36 86.517 348.622C124.415 298.866 154.92 229.716 181.834 168.707L181.835 168.706C211.686 101.349 222.053 29.324 208.891 -19.2595C205.015 -33.5715 199.216 -45.3163 191.717 -54.2178Z" fill="white"/>
</g>
<mask id="mask3_2046_12459" style="mask-type:alpha" maskUnits="userSpaceOnUse" x="-487" y="-269" width="668" height="655">
<path d="M-406.15 150.787C-409.881 146.358 -413.496 141.95 -416.997 137.557C-453.165 92.1907 -475.464 51.1044 -483.276 15.4404C-490.918 -19.4474 -484.315 -48.2198 -463.651 -70.0765C-401.792 -139.722 -348.394 -183.292 -309.404 -215.105C-292.603 -228.813 -278.094 -240.653 -267.4 -251.033C-249.94 -267.929 -216.658 -273.268 -178.368 -265.314C-138.441 -257.021 -99.4434 -235.786 -71.3743 -207.055C-43.8341 -177.722 -6.5213 -148.282 36.5385 -121.909C71.1013 -100.74 107.978 -82.4135 137.714 -71.629C156.034 -64.9643 169.27 -47.8303 175.988 -22.0807C187.709 22.8385 178.261 88.5613 151.33 149.439C123.202 213.501 97.2736 269.992 64.7676 312.513C46.8818 335.91 28.5103 353.147 8.60446 365.209C-13.5463 378.631 -37.0281 385.356 -63.1807 385.765C-86.1591 386.513 -121.16 374.292 -164.393 350.421C-205.752 327.584 -252.671 294.909 -296.508 258.414C-338.309 223.614 -375.918 186.673 -406.15 150.787ZM158.838 -54.7416C152.843 -61.8583 145.67 -66.9974 137.449 -69.9889C107.661 -80.7922 70.7258 -99.1472 36.1136 -120.346C-7.02466 -146.767 -44.4154 -176.271 -72.0168 -205.669C-99.939 -234.25 -138.762 -255.384 -178.523 -263.642C-216.554 -271.542 -249.551 -266.298 -266.792 -249.614C-277.521 -239.2 -292.048 -227.347 -308.868 -213.622C-347.827 -181.833 -401.184 -138.297 -462.99 -68.7116C-483.216 -47.3176 -489.678 -19.1875 -482.209 14.9125C-474.464 50.2728 -452.281 91.1 -416.277 136.261C-384.463 176.16 -342.863 217.892 -295.964 256.938C-252.176 293.392 -205.313 326.029 -164.005 348.836C-120.904 372.635 -86.0454 384.821 -63.1997 384.077C-37.1833 383.669 -13.8366 376.986 8.18262 363.644C27.9707 351.652 46.238 334.511 64.0286 311.24C96.4275 268.859 122.309 212.468 150.392 148.507L150.393 148.505C177.124 88.0789 186.53 22.9502 174.941 -21.4653C171.375 -35.1306 165.933 -46.3198 158.838 -54.7416Z" fill="url(#paint3_linear_2046_12459)"/>
</mask>
<g mask="url(#mask3_2046_12459)">
<path d="M-406.15 150.787C-409.882 146.358 -413.497 141.95 -416.998 137.557C-453.166 92.1907 -475.465 51.1044 -483.277 15.4404C-490.919 -19.4474 -484.316 -48.2198 -463.652 -70.0765C-401.793 -139.722 -348.395 -183.292 -309.405 -215.105C-292.604 -228.813 -278.095 -240.653 -267.401 -251.033C-249.941 -267.929 -216.659 -273.268 -178.369 -265.314C-138.442 -257.021 -99.4443 -235.786 -71.3752 -207.055C-43.8351 -177.722 -6.52228 -148.282 36.5375 -121.909C71.1003 -100.74 107.977 -82.4135 137.713 -71.629C156.033 -64.9643 169.269 -47.8303 175.987 -22.0807C187.708 22.8385 178.26 88.5613 151.329 149.439C123.201 213.501 97.2726 269.992 64.7667 312.513C46.8808 335.91 28.5093 353.147 8.60349 365.209C-13.5473 378.631 -37.0291 385.356 -63.1817 385.765C-86.1601 386.513 -121.161 374.292 -164.394 350.421C-205.753 327.584 -252.672 294.909 -296.509 258.414C-338.31 223.614 -375.919 186.673 -406.15 150.787ZM158.837 -54.7416C152.842 -61.8583 145.669 -66.9974 137.448 -69.9889C107.66 -80.7922 70.7249 -99.1472 36.1127 -120.346C-7.02563 -146.767 -44.4164 -176.271 -72.0178 -205.669C-99.9399 -234.25 -138.763 -255.384 -178.524 -263.642C-216.555 -271.542 -249.552 -266.298 -266.793 -249.614C-277.522 -239.2 -292.049 -227.347 -308.869 -213.622C-347.828 -181.833 -401.185 -138.297 -462.991 -68.7116C-483.217 -47.3176 -489.679 -19.1875 -482.21 14.9125C-474.464 50.2728 -452.282 91.1 -416.278 136.261C-384.464 176.16 -342.864 217.892 -295.965 256.938C-252.177 293.392 -205.314 326.029 -164.006 348.836C-120.905 372.635 -86.0464 384.821 -63.2007 384.077C-37.1843 383.669 -13.8376 376.986 8.18164 363.644C27.9697 351.652 46.237 334.511 64.0276 311.24C96.4265 268.859 122.308 212.468 150.391 148.507L150.392 148.505C177.123 88.0789 186.529 22.9502 174.94 -21.4653C171.374 -35.1306 165.932 -46.3198 158.837 -54.7416Z" fill="white"/>
</g>
<mask id="mask4_2046_12459" style="mask-type:alpha" maskUnits="userSpaceOnUse" x="-454" y="-249" width="601" height="591">
<path d="M-385.688 131.178C-387.545 128.974 -389.368 126.776 -391.157 124.582C-423.644 84.776 -443.758 48.7144 -450.939 17.3971C-457.8 -12.5223 -452.505 -37.2848 -435.2 -56.2008C-382.549 -119.734 -332.045 -163.771 -295.169 -195.926C-280.546 -208.677 -267.918 -219.688 -258.055 -229.377C-240.704 -246.36 -210.546 -252.469 -175.315 -246.139C-139.346 -239.676 -103.475 -220.887 -76.9015 -194.589C-25.2465 -140.542 55.5033 -92.1221 108.674 -70.0001C124.673 -63.3157 136.188 -47.4717 141.975 -24.1813C152.089 16.5244 143.598 75.2858 119.815 129.169L119.816 129.166C95.9256 183.897 72.0136 236.239 42.2185 275.039C26.1544 295.958 9.65012 311.426 -8.23877 322.327C-28.1107 334.435 -49.1489 340.624 -72.5551 341.244C-93.47 342.307 -125.135 331.885 -164.118 311.104C-201.228 291.323 -243.422 262.75 -282.927 230.65C-322.384 198.589 -357.749 164.341 -385.688 131.178ZM125.943 -55.3611C120.955 -61.2826 115.075 -65.7035 108.395 -68.494C55.1422 -90.65 -25.7421 -139.155 -77.4857 -193.296C-103.919 -219.453 -139.625 -238.152 -175.439 -244.587C-210.431 -250.874 -240.336 -244.853 -257.486 -228.067C-267.371 -218.358 -280.01 -207.337 -294.646 -194.575C-331.493 -162.444 -381.958 -118.442 -434.568 -54.96C-451.48 -36.4719 -456.65 -12.3061 -449.955 16.8888C-442.837 47.9265 -422.834 83.7523 -390.5 123.372C-361.819 158.496 -324.455 195.13 -282.432 229.275C-242.973 261.338 -200.831 289.876 -163.77 309.631C-124.909 330.346 -93.376 340.738 -72.5824 339.683C-49.2982 339.065 -28.382 332.915 -8.63086 320.88C9.14972 310.045 25.5594 294.665 41.5355 273.859C71.23 235.19 95.0955 182.946 118.944 128.31L118.946 128.306C142.548 74.832 150.998 16.6119 140.998 -23.6346C137.749 -36.714 132.654 -47.3958 125.943 -55.3611Z" fill="url(#paint4_linear_2046_12459)"/>
</mask>
<g mask="url(#mask4_2046_12459)">
<path d="M-385.687 131.179C-387.544 128.975 -389.367 126.777 -391.156 124.583C-423.643 84.7765 -443.757 48.7149 -450.938 17.3976C-457.799 -12.5218 -452.504 -37.2843 -435.199 -56.2003C-382.548 -119.734 -332.044 -163.77 -295.168 -195.926C-280.545 -208.676 -267.917 -219.688 -258.054 -229.376C-240.703 -246.359 -210.545 -252.468 -175.314 -246.138C-139.345 -239.676 -103.474 -220.886 -76.9005 -194.588C-25.2455 -140.542 55.5043 -92.1216 108.675 -69.9996C124.674 -63.3152 136.189 -47.4712 141.976 -24.1808C152.09 16.5248 143.599 75.2863 119.816 129.17L119.817 129.166C95.9266 183.898 72.0146 236.239 42.2195 275.04C26.1554 295.958 9.65109 311.426 -8.23779 322.327C-28.1097 334.435 -49.1479 340.624 -72.5541 341.245C-93.4691 342.307 -125.134 331.885 -164.117 311.105C-201.227 291.323 -243.421 262.75 -282.927 230.65C-322.383 198.59 -357.748 164.341 -385.687 131.179ZM125.944 -55.3606C120.956 -61.2821 115.076 -65.703 108.396 -68.4936C55.1432 -90.6495 -25.7411 -139.154 -77.4847 -193.296C-103.918 -219.453 -139.624 -238.152 -175.438 -244.587C-210.43 -250.874 -240.335 -244.852 -257.485 -228.067C-267.37 -218.358 -280.009 -207.336 -294.645 -194.574C-331.492 -162.444 -381.957 -118.441 -434.567 -54.9595C-451.479 -36.4714 -456.649 -12.3056 -449.954 16.8893C-442.836 47.927 -422.833 83.7528 -390.499 123.372C-361.818 158.497 -324.454 195.131 -282.431 229.275C-242.972 261.339 -200.83 289.876 -163.769 309.632C-124.908 330.347 -93.375 340.738 -72.5815 339.683C-49.2972 339.065 -28.3811 332.915 -8.62988 320.88C9.1507 310.045 25.5604 294.665 41.5364 273.86C71.231 235.191 95.0965 182.947 118.945 128.31L118.947 128.307C142.549 74.8325 150.999 16.6124 140.999 -23.6342C137.75 -36.7135 132.654 -47.3953 125.944 -55.3606Z" fill="white"/>
</g>
<mask id="mask5_2046_12459" style="mask-type:alpha" maskUnits="userSpaceOnUse" x="-422" y="-229" width="534" height="526">
<path d="M-365.158 111.875C-365.227 111.794 -365.294 111.713 -365.363 111.631C-394.172 77.3873 -412.101 46.3495 -418.654 19.3814C-424.721 -5.58472 -420.714 -26.3453 -406.744 -42.3225C-362.563 -101.151 -313.539 -146.816 -277.743 -180.159C-266.534 -190.599 -256.853 -199.617 -248.703 -207.717C-231.703 -224.549 -203.839 -231.562 -172.257 -226.96C-140.22 -222.292 -107.477 -205.948 -82.4227 -182.12C-59.9238 -159.099 -31.3157 -135.916 2.61938 -113.203C28.1473 -96.1173 56.2206 -79.7748 79.6422 -68.3659C93.3341 -61.6601 103.135 -47.0881 107.985 -26.2221C116.468 10.2664 108.927 62.0434 88.3052 108.901C68.4309 154.773 46.7585 202.499 19.6753 237.569C5.43427 256.009 -9.20358 269.708 -25.0755 279.447C-42.668 290.242 -61.2626 295.894 -81.9229 296.727C-119.296 299.456 -194.633 261.752 -269.379 202.904C-306.478 173.695 -339.592 142.223 -365.158 111.875ZM93.0384 -56.1191C89.0746 -60.8249 84.4914 -64.4793 79.3465 -67.0001C55.8951 -78.4233 27.7874 -94.7854 2.22968 -111.891C-31.7578 -134.639 -60.4159 -157.863 -82.9486 -180.92C-107.867 -204.618 -140.457 -220.883 -172.349 -225.53C-203.717 -230.101 -231.355 -223.172 -248.175 -206.517C-256.337 -198.405 -266.023 -189.383 -277.239 -178.936C-313.005 -145.621 -361.988 -99.9942 -406.137 -41.2121C-419.761 -25.6272 -423.661 -5.41768 -417.755 18.8884C-411.264 45.6035 -393.437 76.427 -364.769 110.504C-364.702 110.583 -364.632 110.667 -364.565 110.747C-339.044 141.042 -305.985 172.46 -268.934 201.63C-194.327 260.369 -119.188 298.008 -81.9592 295.288C-61.4065 294.46 -42.9221 288.843 -25.4384 278.114C-9.66409 268.436 4.88809 254.816 19.0493 236.478C46.0374 201.531 67.6652 153.901 87.5038 108.111L87.5056 108.107C107.965 61.6156 115.466 10.3237 107.08 -25.7495C104.157 -38.3295 99.394 -48.5745 93.0384 -56.1191Z" fill="url(#paint5_linear_2046_12459)"/>
</mask>
<g mask="url(#mask5_2046_12459)">
<path d="M-365.158 111.875C-365.228 111.794 -365.295 111.713 -365.364 111.631C-394.172 77.3873 -412.102 46.3495 -418.655 19.3814C-424.721 -5.58472 -420.714 -26.3453 -406.745 -42.3225C-362.564 -101.151 -313.539 -146.816 -277.744 -180.159C-266.535 -190.599 -256.854 -199.617 -248.703 -207.717C-231.704 -224.549 -203.84 -231.562 -172.257 -226.96C-140.221 -222.292 -107.477 -205.948 -82.4232 -182.12C-59.9243 -159.099 -31.3162 -135.916 2.6189 -113.203C28.1468 -96.1173 56.2201 -79.7748 79.6418 -68.3659C93.3336 -61.6601 103.134 -47.0881 107.985 -26.2221C116.467 10.2664 108.926 62.0434 88.3047 108.901C68.4304 154.773 46.758 202.499 19.6748 237.569C5.43378 256.009 -9.20407 269.708 -25.076 279.447C-42.6685 290.242 -61.2631 295.894 -81.9234 296.727C-119.297 299.456 -194.633 261.752 -269.379 202.904C-306.479 173.695 -339.592 142.223 -365.158 111.875ZM93.0379 -56.1191C89.0741 -60.8249 84.4909 -64.4793 79.346 -67.0001C55.8946 -78.4233 27.7869 -94.7854 2.22919 -111.891C-31.7582 -134.639 -60.4164 -157.863 -82.9491 -180.92C-107.867 -204.618 -140.458 -220.883 -172.349 -225.53C-203.718 -230.101 -231.355 -223.172 -248.176 -206.517C-256.337 -198.405 -266.024 -189.383 -277.239 -178.936C-313.006 -145.621 -361.989 -99.9942 -406.137 -41.2121C-419.762 -25.6272 -423.662 -5.41768 -417.755 18.8884C-411.264 45.6035 -393.437 76.427 -364.77 110.504C-364.703 110.583 -364.633 110.667 -364.565 110.747C-339.045 141.042 -305.985 172.46 -268.935 201.63C-194.328 260.369 -119.188 298.008 -81.9597 295.288C-61.407 294.46 -42.9226 288.843 -25.4389 278.114C-9.66458 268.436 4.8876 254.816 19.0489 236.478C46.0369 201.531 67.6647 153.901 87.5033 108.111L87.5051 108.107C107.965 61.6156 115.466 10.3237 107.08 -25.7495C104.156 -38.3295 99.3936 -48.5745 93.0379 -56.1191Z" fill="white"/>
</g>
<mask id="mask6_2046_12459" style="mask-type:alpha" maskUnits="userSpaceOnUse" x="-390" y="-209" width="467" height="462">
<path d="M-344.666 92.8815C-366.886 66.5067 -380.934 42.4928 -386.459 21.4204C-391.713 1.38866 -388.972 -15.3773 -378.312 -28.4164C-342.16 -84.4373 -291.999 -133.978 -255.374 -170.15C-249.627 -175.826 -244.198 -181.188 -239.353 -186.06C-222.434 -203.007 -197.52 -210.722 -169.2 -207.783C-140.645 -204.819 -111.788 -191.278 -87.9457 -169.653C-71.9608 -153.761 -26.4926 -111.949 50.6106 -66.7317C62.0177 -59.9973 70.1125 -46.6642 74.0186 -28.169C80.8324 4.08813 74.2322 48.8422 56.7955 88.626C40.7023 126.136 21.4926 168.779 -2.87097 200.096C-28.6178 233.193 -57.5407 250.238 -91.2925 252.208C-108.105 253.904 -133.121 247.094 -163.625 232.514C-192.679 218.627 -224.581 198.806 -255.883 175.193C-288.206 150.81 -317.17 124.369 -339.642 98.7271C-341.361 96.7673 -343.036 94.8173 -344.666 92.8815ZM60.1066 -57.0942C57.196 -60.5493 53.914 -63.3703 50.2905 -65.5097C37.9564 -72.7426 13.108 -87.8389 -14.7136 -107.665C-43.9191 -128.476 -68.7158 -148.959 -88.4146 -168.545C-112.125 -190.049 -140.842 -203.524 -169.261 -206.474C-197.389 -209.393 -222.109 -201.756 -238.867 -184.969C-243.714 -180.095 -249.145 -174.732 -254.894 -169.054C-291.492 -132.909 -341.615 -83.4056 -377.702 -27.4758L-377.741 -27.4231C-388.087 -14.7832 -390.746 1.48868 -385.646 20.9398C-379.857 43.0153 -363.767 69.551 -339.113 97.682C-316.682 123.275 -287.766 149.673 -255.49 174.02C-224.229 197.602 -192.371 217.395 -163.36 231.263C-132.96 245.793 -108.055 252.582 -91.3389 250.896C-57.7793 248.938 -29.0313 231.995 -3.43976 199.098C20.8339 167.896 40.0008 125.347 56.0607 87.9132L56.0631 87.9078C73.3605 48.4437 79.9214 4.1176 73.185 -27.7733C70.6028 -39.9951 66.1559 -49.914 60.1066 -57.0942Z" fill="url(#paint6_linear_2046_12459)"/>
</mask>
<g mask="url(#mask6_2046_12459)">
<path d="M-344.667 92.8815C-366.887 66.5067 -380.934 42.4928 -386.46 21.4204C-391.713 1.38866 -388.973 -15.3773 -378.313 -28.4164C-342.16 -84.4373 -292 -133.978 -255.374 -170.15C-249.627 -175.826 -244.198 -181.188 -239.353 -186.06C-222.435 -203.007 -197.521 -210.722 -169.201 -207.783C-140.645 -204.819 -111.789 -191.278 -87.9462 -169.653C-71.9613 -153.761 -26.493 -111.949 50.6101 -66.7317C62.0172 -59.9973 70.112 -46.6642 74.0181 -28.169C80.8319 4.08813 74.2317 48.8422 56.795 88.626C40.7018 126.136 21.4921 168.779 -2.87146 200.096C-28.6183 233.193 -57.5412 250.238 -91.293 252.208C-108.106 253.904 -133.122 247.094 -163.626 232.514C-192.679 218.627 -224.582 198.806 -255.883 175.193C-288.206 150.81 -317.17 124.369 -339.643 98.7271C-341.361 96.7673 -343.037 94.8173 -344.667 92.8815ZM60.1061 -57.0942C57.1955 -60.5493 53.9135 -63.3703 50.29 -65.5097C37.9559 -72.7426 13.1075 -87.8389 -14.7141 -107.665C-43.9196 -128.476 -68.7162 -148.959 -88.4151 -168.545C-112.126 -190.049 -140.843 -203.524 -169.262 -206.474C-197.39 -209.393 -222.11 -201.756 -238.868 -184.969C-243.715 -180.095 -249.145 -174.732 -254.894 -169.054C-291.492 -132.909 -341.616 -83.4056 -377.703 -27.4758L-377.741 -27.4231C-388.087 -14.7832 -390.747 1.48868 -385.647 20.9398C-379.857 43.0153 -363.768 69.551 -339.113 97.682C-316.683 123.275 -287.767 149.673 -255.49 174.02C-224.229 197.602 -192.371 217.395 -163.36 231.263C-132.961 245.793 -108.056 252.582 -91.3394 250.896C-57.7798 248.938 -29.0318 231.995 -3.44025 199.098C20.8334 167.896 40.0003 125.347 56.0602 87.9132L56.0626 87.9078C73.36 48.4437 79.921 4.1176 73.1845 -27.7733C70.6023 -39.9951 66.1554 -49.914 60.1061 -57.0942Z" fill="white"/>
</g>
<mask id="mask7_2046_12459" style="mask-type:alpha" maskUnits="userSpaceOnUse" x="-357" y="-189" width="399" height="398">
<path d="M-323.683 75.0217C-339.459 56.2942 -349.995 38.6931 -354.404 23.586C-358.83 8.41995 -357.307 -4.39766 -349.877 -14.5131C-322.249 -70.5573 -257.612 -136.318 -230.006 -164.402C-195.472 -199.41 -139.328 -196.44 -93.4738 -157.184C-58.3059 -123.538 -13.3101 -90.6211 13.5732 -70.9539C16.4279 -68.8654 19.106 -66.9064 21.5776 -65.0895C30.7344 -58.3105 37.1323 -46.1539 40.0817 -29.9391C45.1736 -1.94742 39.5009 35.7193 25.2796 68.3578C11.1058 101.842 -4.84756 136.44 -25.4204 162.624C-47.3754 190.568 -71.9883 205.309 -100.665 207.688C-129.707 211.656 -185.366 188.054 -242.449 147.558C-269.896 128.087 -294.643 106.777 -314.014 85.9322C-317.425 82.2608 -320.652 78.618 -323.683 75.0217ZM27.1407 -58.4266C25.3278 -60.5785 23.3548 -62.4499 21.2289 -64.0238C18.7585 -65.8399 16.0817 -67.7979 13.227 -69.8864C-13.6718 -89.5653 -58.6927 -122.501 -93.8826 -156.168C-139.468 -195.194 -195.269 -198.182 -229.563 -163.419C-257.143 -135.361 -321.73 -69.6524 -349.265 -13.7601L-349.289 -13.7128L-349.318 -13.6726C-356.492 -3.9314 -357.96 8.44315 -353.68 23.1081C-348.481 40.9218 -334.605 62.3139 -313.553 84.9656C-294.221 105.769 -269.516 127.043 -242.111 146.484C-185.146 186.896 -129.648 210.455 -100.723 206.503C-37.037 201.217 -3.8855 135.044 24.6132 67.7165L24.6161 67.7093C38.7191 35.345 44.3531 -1.95279 39.3189 -29.6283C37.1169 -41.7312 32.9573 -51.5216 27.1407 -58.4266Z" fill="url(#paint7_linear_2046_12459)"/>
</mask>
<g mask="url(#mask7_2046_12459)">
<path d="M-323.682 75.0212C-339.459 56.2937 -349.995 38.6926 -354.404 23.5855C-358.83 8.41946 -357.307 -4.39815 -349.877 -14.5136C-322.248 -70.5577 -257.611 -136.318 -230.006 -164.403C-195.471 -199.41 -139.327 -196.441 -93.4734 -157.184C-58.3055 -123.539 -13.3096 -90.6216 13.5737 -70.9544C16.4284 -68.8659 19.1065 -66.9069 21.5781 -65.09C30.7349 -58.3109 37.1328 -46.1543 40.0822 -29.9396C45.1741 -1.94791 39.5014 35.7188 25.2801 68.3574C11.1063 101.842 -4.84708 136.439 -25.42 162.624C-47.3749 190.567 -71.9878 205.308 -100.664 207.688C-129.707 211.656 -185.365 188.054 -242.449 147.558C-269.895 128.086 -294.643 106.776 -314.014 85.9317C-317.425 82.2603 -320.651 78.6175 -323.682 75.0212ZM27.1412 -58.4271C25.3283 -60.579 23.3553 -62.4504 21.2294 -64.0243C18.759 -65.8404 16.0822 -67.7984 13.2274 -69.8869C-13.6713 -89.5658 -58.6922 -122.502 -93.8821 -156.168C-139.468 -195.195 -195.268 -198.183 -229.562 -163.419C-257.142 -135.361 -321.73 -69.6529 -349.265 -13.7606L-349.288 -13.7132L-349.318 -13.673C-356.492 -3.93188 -357.96 8.44266 -353.68 23.1076C-348.481 40.9213 -334.604 62.3134 -313.553 84.9651C-294.22 105.769 -269.516 127.042 -242.111 146.483C-185.146 186.895 -129.648 210.454 -100.722 206.503C-37.0365 201.217 -3.88501 135.043 24.6137 67.716L24.6166 67.7088C38.7196 35.3445 44.3536 -1.95328 39.3194 -29.6288C37.1174 -41.7317 32.9578 -51.5221 27.1412 -58.4271Z" fill="white"/>
</g>
<mask id="mask8_2046_12459" style="mask-type:alpha" maskUnits="userSpaceOnUse" x="-326" y="-170" width="334" height="334">
<path d="M-302.745 58.1152C-312.389 46.6679 -319.214 35.7646 -322.561 26.0672C-326.165 15.6239 -325.793 6.65898 -321.454 -0.579239C-316.724 -19.1397 -302.787 -43.8254 -280.028 -73.9556C-263.449 -95.9043 -241.809 -120.979 -220.656 -142.748C-186.679 -177.607 -141.2 -178.343 -98.9979 -144.717C-84.7824 -131.835 -69.7805 -118.819 -55.2717 -106.231C-36.5082 -89.9506 -18.7854 -74.5737 -7.44611 -63.4408C2.07306 -54.0213 7.28223 -36.8936 7.22748 -15.2245C7.17572 5.31458 2.27063 28.3879 -6.23233 48.082C-25.1898 93.7569 -38.4943 113.261 -47.967 125.148C-66.1195 147.928 -86.421 160.363 -110.033 163.165C-135.05 167.774 -180.659 151.274 -229.044 120.102C-259.953 100.191 -285.733 78.3077 -302.745 58.1152ZM-5.85809 -60.4064C-6.49414 -61.1621 -7.15277 -61.8758 -7.83405 -62.552C-19.156 -73.668 -36.8706 -89.0377 -55.6251 -105.31C-70.1369 -117.9 -85.1418 -130.92 -99.3459 -143.793C-141.295 -177.216 -186.501 -176.502 -220.256 -141.87C-241.385 -120.125 -263.001 -95.0807 -279.559 -73.1588C-302.269 -43.0938 -316.149 -18.5162 -320.815 -0.107574L-320.839 -0.0137939L-320.884 0.0603485C-325.046 6.94841 -325.399 15.5346 -321.932 25.5786C-312.753 52.1714 -277.054 88.0168 -228.765 119.127C-180.487 150.229 -135.019 166.699 -110.104 162.11C-86.6281 159.324 -66.4563 146.969 -48.4204 124.335C-30.4637 101.8 -16.7618 71.4456 -6.83087 47.5183L-6.8273 47.5103C1.60425 27.9824 6.46948 5.11542 6.52063 -15.2281C6.56943 -34.9659 2.19385 -50.8483 -5.85809 -60.4064Z" fill="url(#paint8_linear_2046_12459)"/>
</mask>
<g mask="url(#mask8_2046_12459)">
<path d="M-302.744 58.1152C-312.389 46.6679 -319.213 35.7646 -322.56 26.0672C-326.165 15.6239 -325.792 6.65898 -321.453 -0.579239C-316.723 -19.1397 -302.786 -43.8254 -280.027 -73.9556C-263.449 -95.9043 -241.809 -120.979 -220.656 -142.748C-186.679 -177.607 -141.199 -178.343 -98.9974 -144.717C-84.782 -131.835 -69.78 -118.819 -55.2712 -106.231C-36.5077 -89.9506 -18.7849 -74.5737 -7.44562 -63.4408C2.07355 -54.0213 7.28271 -36.8936 7.22797 -15.2245C7.17621 5.31458 2.27112 28.3879 -6.23184 48.082C-25.1893 93.7569 -38.4938 113.261 -47.9666 125.148C-66.119 147.928 -86.4205 160.363 -110.033 163.165C-135.049 167.774 -180.658 151.274 -229.044 120.102C-259.953 100.191 -285.732 78.3077 -302.744 58.1152ZM-5.8576 -60.4064C-6.49365 -61.1621 -7.15228 -61.8758 -7.83356 -62.552C-19.1555 -73.668 -36.8701 -89.0377 -55.6246 -105.31C-70.1364 -117.9 -85.1413 -130.92 -99.3455 -143.793C-141.294 -177.216 -186.5 -176.502 -220.255 -141.87C-241.385 -120.125 -263 -95.0807 -279.559 -73.1588C-302.268 -43.0938 -316.149 -18.5162 -320.815 -0.107574L-320.839 -0.0137939L-320.883 0.0603485C-325.045 6.94841 -325.398 15.5346 -321.931 25.5786C-312.753 52.1714 -277.054 88.0168 -228.765 119.127C-180.487 150.229 -135.018 166.699 -110.103 162.11C-86.6276 159.324 -66.4558 146.969 -48.42 124.335C-30.4633 101.8 -16.7613 71.4456 -6.83038 47.5183L-6.82681 47.5103C1.60474 27.9824 6.46997 5.11542 6.52112 -15.2281C6.56992 -34.9659 2.19434 -50.8483 -5.8576 -60.4064Z" fill="white"/>
</g>
</g>
<defs>
<linearGradient id="paint0_linear_2046_12459" x1="-149.43" y1="-331" x2="-149.43" y2="519.327" gradientUnits="userSpaceOnUse">
<stop stop-color="white"/>
<stop offset="0.0436" stop-color="#B4B4B4"/>
<stop offset="0.1507"/>
<stop offset="0.1714" stop-color="#171717"/>
<stop offset="0.3859" stop-color="white"/>
<stop offset="0.6326" stop-color="#E6E6E6"/>
<stop offset="0.8567" stop-color="#1A1A1A"/>
<stop offset="0.9987"/>
</linearGradient>
<linearGradient id="paint1_linear_2046_12459" x1="-150.511" y1="-310.144" x2="-150.511" y2="474.804" gradientUnits="userSpaceOnUse">
<stop stop-color="white"/>
<stop offset="0.0436" stop-color="#B4B4B4"/>
<stop offset="0.1507"/>
<stop offset="0.1714" stop-color="#171717"/>
<stop offset="0.3859" stop-color="white"/>
<stop offset="0.6326" stop-color="#E6E6E6"/>
<stop offset="0.8567" stop-color="#1A1A1A"/>
<stop offset="0.9987"/>
</linearGradient>
<linearGradient id="paint2_linear_2046_12459" x1="-151.602" y1="-289.537" x2="-151.602" y2="430.295" gradientUnits="userSpaceOnUse">
<stop stop-color="white"/>
<stop offset="0.0436" stop-color="#B4B4B4"/>
<stop offset="0.1507"/>
<stop offset="0.1714" stop-color="#171717"/>
<stop offset="0.3859" stop-color="white"/>
<stop offset="0.6326" stop-color="#E6E6E6"/>
<stop offset="0.8567" stop-color="#1A1A1A"/>
<stop offset="0.9987"/>
</linearGradient>
<linearGradient id="paint3_linear_2046_12459" x1="-152.709" y1="-268.931" x2="-152.709" y2="385.798" gradientUnits="userSpaceOnUse">
<stop stop-color="white"/>
<stop offset="0.0436" stop-color="#B4B4B4"/>
<stop offset="0.1507"/>
<stop offset="0.1714" stop-color="#171717"/>
<stop offset="0.3859" stop-color="white"/>
<stop offset="0.6326" stop-color="#E6E6E6"/>
<stop offset="0.8567" stop-color="#1A1A1A"/>
<stop offset="0.9987"/>
</linearGradient>
<linearGradient id="paint4_linear_2046_12459" x1="-153.84" y1="-248.581" x2="-153.84" y2="341.318" gradientUnits="userSpaceOnUse">
<stop stop-color="white"/>
<stop offset="0.0436" stop-color="#B4B4B4"/>
<stop offset="0.1507"/>
<stop offset="0.1714" stop-color="#171717"/>
<stop offset="0.3859" stop-color="white"/>
<stop offset="0.6326" stop-color="#E6E6E6"/>
<stop offset="0.8567" stop-color="#1A1A1A"/>
<stop offset="0.9987"/>
</linearGradient>
<linearGradient id="paint5_linear_2046_12459" x1="-154.994" y1="-228.342" x2="-154.994" y2="296.865" gradientUnits="userSpaceOnUse">
<stop stop-color="white"/>
<stop offset="0.0436" stop-color="#B4B4B4"/>
<stop offset="0.1507"/>
<stop offset="0.1714" stop-color="#171717"/>
<stop offset="0.3859" stop-color="white"/>
<stop offset="0.6326" stop-color="#E6E6E6"/>
<stop offset="0.8567" stop-color="#1A1A1A"/>
<stop offset="0.9987"/>
</linearGradient>
<linearGradient id="paint6_linear_2046_12459" x1="-156.197" y1="-208.394" x2="-156.197" y2="252.462" gradientUnits="userSpaceOnUse">
<stop stop-color="white"/>
<stop offset="0.0436" stop-color="#B4B4B4"/>
<stop offset="0.1507"/>
<stop offset="0.1714" stop-color="#171717"/>
<stop offset="0.3859" stop-color="white"/>
<stop offset="0.6326" stop-color="#E6E6E6"/>
<stop offset="0.8567" stop-color="#1A1A1A"/>
<stop offset="0.9987"/>
</linearGradient>
<linearGradient id="paint7_linear_2046_12459" x1="-157.479" y1="-188.773" x2="-157.479" y2="208.12" gradientUnits="userSpaceOnUse">
<stop stop-color="white"/>
<stop offset="0.0436" stop-color="#B4B4B4"/>
<stop offset="0.1507"/>
<stop offset="0.1714" stop-color="#171717"/>
<stop offset="0.3859" stop-color="white"/>
<stop offset="0.6326" stop-color="#E6E6E6"/>
<stop offset="0.8567" stop-color="#1A1A1A"/>
<stop offset="0.9987"/>
</linearGradient>
<linearGradient id="paint8_linear_2046_12459" x1="-158.892" y1="-169.423" x2="-158.892" y2="163.93" gradientUnits="userSpaceOnUse">
<stop stop-color="white"/>
<stop offset="0.0436" stop-color="#B4B4B4"/>
<stop offset="0.1507"/>
<stop offset="0.1714" stop-color="#171717"/>
<stop offset="0.3859" stop-color="white"/>
<stop offset="0.6326" stop-color="#E6E6E6"/>
<stop offset="0.8567" stop-color="#1A1A1A"/>
<stop offset="0.9987"/>
</linearGradient>
</defs>
</svg>
