<svg width="33" height="33" viewBox="0 0 33 33" fill="none" xmlns="http://www.w3.org/2000/svg">
<g clip-path="url(#clip0_1166_319)">
<path d="M7.758 0.5H25.742C29.6125 0.5 32.75 3.6375 32.75 7.508V25.492C32.75 29.3625 29.6125 32.5 25.742 32.5H7.758C3.8875 32.5 0.75 29.3625 0.75 25.492V7.508C0.75 3.6375 3.8875 0.5 7.758 0.5Z" fill="url(#paint0_linear_1166_319)"/>
<path d="M11.0045 23.7266L11.0075 23.7276L9.91333 25.6226C9.51395 26.3143 8.62945 26.5513 7.9377 26.152C7.24608 25.7526 7.00895 24.8681 7.40833 24.1763L8.21433 22.7803L8.2917 22.6463C8.42983 22.4478 8.7707 22.1051 9.45258 22.1696C9.45258 22.1696 11.0572 22.3437 11.1733 23.1777C11.1733 23.1777 11.1891 23.4521 11.0045 23.7266ZM26.5223 18.8866H23.1106C22.8782 18.871 22.7768 18.788 22.7368 18.7397L22.7343 18.7353L19.0822 12.4096L19.0775 12.4127L18.8585 12.0987C18.4995 11.5497 17.9295 12.9537 17.9295 12.9537C17.2488 14.5182 18.0261 16.2968 18.297 16.8345L23.3697 25.6207C23.769 26.3123 24.6535 26.5495 25.3453 26.15C26.037 25.7506 26.2741 24.8661 25.8746 24.1743L24.6062 21.9773C24.5816 21.9241 24.5388 21.7796 24.799 21.779H26.5223C27.3211 21.779 27.9686 21.1315 27.9686 20.3327C27.9686 19.534 27.3211 18.8865 26.5223 18.8865V18.8866ZM19.8956 20.8526C19.8956 20.8526 20.0777 21.779 19.3731 21.779H6.7607C5.96195 21.779 5.31445 21.1315 5.31445 20.3327C5.31445 19.534 5.96195 18.8865 6.7607 18.8865H10.0032C10.5267 18.8562 10.6507 18.554 10.6507 18.554L10.6537 18.5555L14.8862 11.2245L14.885 11.2242C14.9621 11.0826 14.8978 10.9487 14.8867 10.9276L13.4888 8.50645C13.0895 7.81483 13.3265 6.9302 14.0182 6.53095C14.71 6.13158 15.5945 6.36845 15.9938 7.0602L16.6421 8.18308L17.2892 7.0622C17.6886 6.37058 18.5731 6.13345 19.2648 6.53295C19.9566 6.93233 20.1936 7.8167 19.7942 8.50845L13.9045 18.7097C13.8787 18.7718 13.8708 18.8693 14.0625 18.8865H17.583L17.5837 18.9208C17.5837 18.9208 19.6185 18.9525 19.8956 20.8526Z" fill="white"/>
</g>
<defs>
<linearGradient id="paint0_linear_1166_319" x1="16.75" y1="0.5" x2="16.75" y2="32.5" gradientUnits="userSpaceOnUse">
<stop stop-color="#17C9FB"/>
<stop offset="1" stop-color="#1A74E8"/>
</linearGradient>
<clipPath id="clip0_1166_319">
<rect width="32" height="32" fill="white" transform="translate(0.75 0.5)"/>
</clipPath>
</defs>
</svg>
