<svg width="48" height="48" viewBox="0 0 48 48" fill="none" xmlns="http://www.w3.org/2000/svg">
<path fill-rule="evenodd" clip-rule="evenodd" d="M44 24C44 12.9542 35.0451 4 24 4C12.9549 4 4 12.9542 4 24C4 35.0444 12.9556 44 24 44C35.0444 44 44 35.0444 44 24ZM41 24C41 33.3876 33.3876 41 24 41C14.6124 41 7 33.3876 7 24C7 14.6111 14.6117 7 24 7C33.3883 7 41 14.6111 41 24ZM28.0887 17.9526C28.5256 17.3663 28.479 16.5329 27.9476 15.9992C27.3631 15.4122 26.4134 15.4101 25.8263 15.9947L18.8543 22.9367L18.7083 23.1051C18.2703 23.6933 18.319 24.5296 18.8543 25.0626L25.8263 32.0046L25.9949 32.1494C26.583 32.5839 27.4162 32.5337 27.9476 32L28.0925 31.8314C28.5269 31.2433 28.4767 30.41 27.9431 29.8787L22.0401 23.9976L27.9431 18.1206L28.0887 17.9526Z" fill="white"/>
</svg>
