<svg width="21" height="21" viewBox="0 0 21 21" fill="none" xmlns="http://www.w3.org/2000/svg">
<path d="M5.99093 10.3821C6.09613 10.5771 6.29617 10.6987 6.51373 10.6987H9.90161V17.3881C9.90161 17.7259 10.1694 18 10.4993 18C10.8293 18 11.097 17.7259 11.097 17.3881V10.6987H14.4849C14.7033 10.6987 14.9033 10.5771 15.0077 10.3821C15.1137 10.1871 15.1065 9.94887 14.991 9.7604L11.0054 3.28556C10.8954 3.1077 10.7049 3 10.4993 3C10.2937 3 10.1032 3.1077 9.99326 3.28556L6.00767 9.7604C5.9471 9.85994 5.91602 9.97335 5.91602 10.0868C5.91602 10.1879 5.94152 10.2899 5.99093 10.3821Z" fill="#11CABE"/>
</svg>
