<svg width="44" height="44" viewBox="0 0 44 44" fill="none" xmlns="http://www.w3.org/2000/svg">
<g clip-path="url(#clip0_183_445)">
<path d="M43.3422 27.3202C40.4028 39.1122 28.4556 46.2804 16.6805 43.3408C4.88812 40.4014 -2.28009 28.4547 0.659483 16.6798C3.59889 4.88776 15.5287 -2.28046 27.3211 0.659118C39.0962 3.58134 46.2818 15.528 43.3422 27.3202Z" fill="url(#paint0_linear_183_445)"/>
<path d="M32.4749 19.2584C32.9046 16.3365 30.6874 14.7553 27.6281 13.7068L28.6249 9.73652L26.2187 9.13496L25.2562 13.0021C24.6202 12.8475 23.9671 12.6928 23.314 12.5553L24.2765 8.6709L21.8702 8.06934L20.8906 12.0225C20.3577 11.9021 19.8421 11.7818 19.3437 11.6615V11.6443L16.0093 10.8193L15.3734 13.3975C15.3734 13.3975 17.1609 13.81 17.1265 13.8271C18.1062 14.0678 18.2781 14.7209 18.2437 15.2365L17.1093 19.7568C17.1781 19.774 17.264 19.7912 17.3671 19.8428C17.2812 19.8256 17.1952 19.8084 17.1093 19.774L15.5281 26.099C15.4077 26.3912 15.0984 26.8381 14.4281 26.6662C14.4452 26.7006 12.6749 26.2365 12.6749 26.2365L11.4718 29.0037L14.6171 29.7943C15.2015 29.949 15.7687 30.0865 16.3359 30.2412L15.339 34.2459L17.7452 34.8475L18.7421 30.8772C19.3952 31.049 20.0484 31.2209 20.6671 31.3756L19.6874 35.3287L22.0937 35.9303L23.0906 31.9256C27.2156 32.699 30.3093 32.3897 31.5984 28.66C32.6468 25.6693 31.5468 23.9334 29.3812 22.799C30.9796 22.4381 32.1656 21.3897 32.4749 19.2584ZM26.9577 26.9928C26.2187 29.9834 21.1656 28.3678 19.5327 27.9553L20.8562 22.6443C22.489 23.0568 27.7484 23.8647 26.9577 26.9928ZM27.714 19.2068C27.0265 21.9397 22.8327 20.5475 21.4749 20.2037L22.6781 15.3912C24.0359 15.735 28.4187 16.3709 27.714 19.2068Z" fill="white"/>
</g>
<defs>
<linearGradient id="paint0_linear_183_445" x1="21.9885" y1="-0.01056" x2="21.9885" y2="43.9956" gradientUnits="userSpaceOnUse">
<stop stop-color="#F9AA4B"/>
<stop offset="1" stop-color="#F7931A"/>
</linearGradient>
<clipPath id="clip0_183_445">
<rect width="44" height="44" fill="white"/>
</clipPath>
</defs>
</svg>
