<svg width="96" height="96" viewBox="0 0 96 96" fill="none" xmlns="http://www.w3.org/2000/svg">
<g filter="url(#filter0_d_1525_1374)">
<path d="M70.3789 43.7276C76.7882 43.7276 81.9876 38.5319 81.9876 32.1226C81.9876 25.7132 76.7882 20.5176 70.3789 20.5176" stroke="#BD47FB" stroke-width="3" stroke-linecap="round" stroke-linejoin="round"/>
<path d="M75.7148 56.3389C77.6288 56.4709 79.5318 56.7422 81.4055 57.1639C84.0088 57.6735 87.1402 58.7405 88.2548 61.0762C88.9662 62.5722 88.9662 64.3139 88.2548 65.8135C87.1438 68.1492 84.0088 69.2125 81.4055 69.7479" stroke="#BD47FB" stroke-width="3" stroke-linecap="round" stroke-linejoin="round"/>
<path d="M25.1594 43.7276C18.7501 43.7276 13.5508 38.5319 13.5508 32.1226C13.5508 25.7132 18.7501 20.5176 25.1594 20.5176" stroke="#BD47FB" stroke-width="3" stroke-linecap="round" stroke-linejoin="round"/>
<path d="M19.8226 56.3389C17.9086 56.4709 16.0056 56.7422 14.1319 57.1639C11.5286 57.6735 8.39725 58.7405 7.28625 61.0762C6.57125 62.5722 6.57125 64.3139 7.28625 65.8135C8.39358 68.1492 11.5286 69.2125 14.1319 69.7479" stroke="#BD47FB" stroke-width="3" stroke-linecap="round" stroke-linejoin="round"/>
<path fill-rule="evenodd" clip-rule="evenodd" d="M47.7506 58.8384C60.738 58.8384 71.8333 60.8037 71.8333 68.6687C71.8333 76.53 60.8113 78.5687 47.7506 78.5687C34.7596 78.5687 23.668 76.6034 23.668 68.7384C23.668 60.8734 34.69 58.8384 47.7506 58.8384Z" stroke="#BD47FB" stroke-width="3" stroke-linecap="round" stroke-linejoin="round"/>
<path fill-rule="evenodd" clip-rule="evenodd" d="M47.7494 47.6197C39.1841 47.6197 32.3164 40.752 32.3164 32.183C32.3164 23.6177 39.1841 16.75 47.7494 16.75C56.3147 16.75 63.1824 23.6177 63.1824 32.183C63.1824 40.752 56.3147 47.6197 47.7494 47.6197Z" stroke="#BD47FB" stroke-width="3" stroke-linecap="round" stroke-linejoin="round"/>
</g>
<defs>
<filter id="filter0_d_1525_1374" x="-5" y="-5" width="106" height="106" filterUnits="userSpaceOnUse" color-interpolation-filters="sRGB">
<feFlood flood-opacity="0" result="BackgroundImageFix"/>
<feColorMatrix in="SourceAlpha" type="matrix" values="0 0 0 0 0 0 0 0 0 0 0 0 0 0 0 0 0 0 127 0" result="hardAlpha"/>
<feOffset/>
<feGaussianBlur stdDeviation="2.5"/>
<feColorMatrix type="matrix" values="0 0 0 0 0.741176 0 0 0 0 0.278431 0 0 0 0 0.984314 0 0 0 1 0"/>
<feBlend mode="normal" in2="BackgroundImageFix" result="effect1_dropShadow_1525_1374"/>
<feBlend mode="normal" in="SourceGraphic" in2="effect1_dropShadow_1525_1374" result="shape"/>
</filter>
</defs>
</svg>
