<svg width="45" height="44" viewBox="0 0 45 44" fill="none" xmlns="http://www.w3.org/2000/svg">
<path d="M32.7578 20.0412C35.6954 20.0412 38.0785 17.6599 38.0785 14.7223C38.0785 11.7847 35.6954 9.40332 32.7578 9.40332" stroke="#BD47FB" stroke-width="1.5" stroke-linecap="round" stroke-linejoin="round"/>
<path d="M35.2031 25.8213C36.0804 25.8818 36.9526 26.0062 37.8113 26.1994C39.0045 26.433 40.4397 26.9221 40.9506 27.9926C41.2766 28.6782 41.2766 29.4765 40.9506 30.1638C40.4414 31.2344 39.0045 31.7217 37.8113 31.9671" stroke="#BD47FB" stroke-width="1.5" stroke-linecap="round" stroke-linejoin="round"/>
<path d="M12.0316 20.0412C9.09396 20.0412 6.71094 17.6599 6.71094 14.7223C6.71094 11.7847 9.09396 9.40332 12.0316 9.40332" stroke="#BD47FB" stroke-width="1.5" stroke-linecap="round" stroke-linejoin="round"/>
<path d="M9.58535 25.8213C8.7081 25.8818 7.83589 26.0062 6.97713 26.1994C5.78393 26.433 4.34874 26.9221 3.83953 27.9926C3.51182 28.6782 3.51182 29.4765 3.83953 30.1638C4.34706 31.2344 5.78393 31.7217 6.97713 31.9671" stroke="#BD47FB" stroke-width="1.5" stroke-linecap="round" stroke-linejoin="round"/>
<path fill-rule="evenodd" clip-rule="evenodd" d="M22.3855 26.9668C28.3381 26.9668 33.4234 27.8676 33.4234 31.4724C33.4234 35.0755 28.3717 36.0099 22.3855 36.0099C16.4313 36.0099 11.3477 35.1091 11.3477 31.5043C11.3477 27.8995 16.3994 26.9668 22.3855 26.9668Z" stroke="#BD47FB" stroke-width="1.5" stroke-linecap="round" stroke-linejoin="round"/>
<path fill-rule="evenodd" clip-rule="evenodd" d="M22.386 21.8254C18.4602 21.8254 15.3125 18.6777 15.3125 14.7502C15.3125 10.8244 18.4602 7.67676 22.386 7.67676C26.3117 7.67676 29.4594 10.8244 29.4594 14.7502C29.4594 18.6777 26.3117 21.8254 22.386 21.8254Z" stroke="#BD47FB" stroke-width="1.5" stroke-linecap="round" stroke-linejoin="round"/>
</svg>
