<svg width="44" height="44" viewBox="0 0 44 44" fill="none" xmlns="http://www.w3.org/2000/svg">
<g clip-path="url(#clip0_1259_3212)">
<circle cx="22" cy="22" r="22" fill="#7F6EE9"/>
<path d="M22.4878 5.54686V5.56248C22.5034 5.64058 22.5034 5.7343 22.5034 5.82801V17.0898C22.4878 17.1523 22.4409 17.1679 22.3941 17.1992C22.0661 17.3553 21.7537 17.4959 21.4256 17.6365C20.9727 17.8396 20.5041 18.0582 20.0511 18.2613L18.411 19.011C17.9581 19.2141 17.5051 19.4171 17.0678 19.6202C16.5367 19.8701 15.99 20.1044 15.4589 20.3543C15.006 20.5574 14.553 20.7761 14.0844 20.9791C13.7095 21.1509 13.3346 21.3071 12.9754 21.4789C12.9442 21.4946 12.9129 21.5102 12.8817 21.5102C12.8661 21.5102 12.8661 21.5102 12.8504 21.4946L13.2722 20.7917C14.0844 19.4484 14.881 18.1207 15.6932 16.7774C16.5523 15.3404 17.427 13.9034 18.2861 12.4664C19.0827 11.1387 19.8949 9.81104 20.6915 8.48336C21.2695 7.51494 21.863 6.54652 22.4409 5.5781C22.4565 5.54686 22.4722 5.53124 22.4722 5.5H22.4878C22.4722 5.51562 22.4878 5.53124 22.4878 5.54686Z" fill="#F3F3F3"/>
<path d="M32.0767 21.4944L32.0923 21.51L29.7962 22.869L22.5799 27.1331C22.5487 27.1488 22.5174 27.1644 22.5018 27.18C22.455 27.18 22.455 27.1331 22.455 27.1175V26.9769V17.324C22.455 17.2771 22.455 17.2146 22.4706 17.1678C22.4862 17.1053 22.5331 17.1209 22.5799 17.1365C22.783 17.2302 23.0016 17.324 23.2047 17.4177C23.8139 17.6988 24.423 17.98 25.0322 18.2455C25.5633 18.4798 26.0787 18.7297 26.6098 18.964C27.1409 19.1983 27.6719 19.4482 28.203 19.6825C28.656 19.8856 29.1246 20.1043 29.5775 20.3073C30.0305 20.5104 30.4991 20.7291 30.9521 20.9321C31.3113 21.0883 31.6706 21.2601 32.0298 21.4163C32.0298 21.4632 32.0454 21.4788 32.0767 21.4944Z" fill="#8A8DA7"/>
<path d="M22.4866 36.8802C22.4866 36.8958 22.471 36.9114 22.471 36.927H22.4554C22.4554 36.8958 22.4241 36.8802 22.4085 36.8489C21.4401 35.49 20.4717 34.1155 19.5033 32.7566C18.5192 31.3664 17.5196 29.9607 16.5355 28.5705C15.5827 27.2272 14.6143 25.8683 13.6615 24.525C13.4116 24.1657 13.1617 23.8221 12.9118 23.4629C12.8961 23.4316 12.8805 23.416 12.8493 23.3691C12.8961 23.3691 12.9274 23.4004 12.943 23.416C14.3019 24.2126 15.6452 25.0092 17.0041 25.8058C18.5661 26.7274 20.1124 27.6489 21.6744 28.5705L22.471 29.0391C22.5022 29.0703 22.5022 29.1016 22.5022 29.1328V36.6615C22.5022 36.7396 22.5022 36.8177 22.4866 36.8802Z" fill="#F3F3F3"/>
<path d="M12.8334 21.5258V21.5102C13.3332 21.2916 13.8174 21.0573 14.3173 20.8386C14.9577 20.5418 15.5981 20.2607 16.2385 19.9639C16.7227 19.7452 17.2225 19.5109 17.7067 19.2922C18.4253 18.9642 19.1281 18.6518 19.8466 18.3238C20.3309 18.1051 20.8151 17.8865 21.3149 17.6522C21.6585 17.496 22.0178 17.3398 22.3614 17.1836C22.3927 17.168 22.4395 17.1523 22.4551 17.1211C22.4708 17.1211 22.4708 17.1367 22.4551 17.1523V27.0708C22.4551 27.1177 22.4395 27.1646 22.4708 27.1958C22.4395 27.2427 22.4083 27.1958 22.3927 27.1802C22.2521 27.1021 22.1115 27.024 21.9709 26.9303C18.9563 25.1496 15.9261 23.3534 12.9115 21.5727C12.8959 21.5571 12.8646 21.5415 12.8334 21.5258Z" fill="#C5C8D9"/>
<path d="M32.0457 23.3691H32.0613C32.0613 23.4004 32.0301 23.4316 32.0145 23.4629C29.1405 27.5084 26.2664 31.5695 23.3924 35.615C23.0956 36.0367 22.7832 36.4584 22.4865 36.8802C22.4709 36.8646 22.4709 36.8489 22.4709 36.8333V36.7396V29.164V29.0235C23.1269 28.633 23.7673 28.2581 24.4233 27.8676C26.9537 26.3681 29.4841 24.8843 31.9989 23.3848C32.0145 23.4004 32.0301 23.3848 32.0457 23.3691Z" fill="#C5C8D9"/>
<path d="M22.4708 17.1523V17.1211V17.0274V5.68746C22.4708 5.6406 22.4552 5.60936 22.4864 5.5625C25.6572 10.8263 28.828 16.0746 31.9832 21.3384C32.0144 21.3853 32.0613 21.4477 32.0769 21.5102C31.8583 21.4321 31.6552 21.3228 31.4521 21.2291C31.2022 21.1197 30.9367 20.9948 30.6868 20.8854C30.5306 20.8073 30.3588 20.7448 30.2026 20.6667C29.937 20.5418 29.6715 20.4325 29.406 20.3075C29.2498 20.245 29.0936 20.1669 28.9374 20.0888L27.9065 19.6202C27.7347 19.5421 27.5628 19.464 27.3754 19.3859L26.6257 19.0579C26.4695 18.9954 26.3133 18.9173 26.1571 18.8392L25.1262 18.3707C24.9543 18.2926 24.7825 18.2145 24.5951 18.1364L23.8453 17.8083C23.6735 17.7302 23.5173 17.6521 23.3455 17.574C23.0487 17.4335 22.752 17.2929 22.4396 17.1679C22.4864 17.1523 22.4708 17.1523 22.4708 17.1523Z" fill="#C5C8D9"/>
</g>
<defs>
<clipPath id="clip0_1259_3212">
<rect width="44" height="44" fill="white"/>
</clipPath>
</defs>
</svg>
