<svg width="96" height="96" viewBox="0 0 96 96" fill="none" xmlns="http://www.w3.org/2000/svg">
<g filter="url(#filter0_d_1525_1358)">
<path fill-rule="evenodd" clip-rule="evenodd" d="M60.6455 48.2125C60.6455 55.1965 54.9815 60.8565 47.9975 60.8565C41.0135 60.8565 35.3535 55.1965 35.3535 48.2125C35.3535 41.2245 41.0135 35.5645 47.9975 35.5645C54.9815 35.5645 60.6455 41.2245 60.6455 48.2125Z" stroke="#F27F16" stroke-width="3" stroke-linecap="round" stroke-linejoin="round"/>
<path fill-rule="evenodd" clip-rule="evenodd" d="M47.992 77.4194C63.224 77.4194 77.156 66.4674 85 48.2114C77.156 29.9554 63.224 19.0034 47.992 19.0034H48.008C32.776 19.0034 18.844 29.9554 11 48.2114C18.844 66.4674 32.776 77.4194 48.008 77.4194H47.992Z" stroke="#F27F16" stroke-width="3" stroke-linecap="round" stroke-linejoin="round"/>
</g>
<defs>
<filter id="filter0_d_1525_1358" x="-5" y="-5" width="106" height="106" filterUnits="userSpaceOnUse" color-interpolation-filters="sRGB">
<feFlood flood-opacity="0" result="BackgroundImageFix"/>
<feColorMatrix in="SourceAlpha" type="matrix" values="0 0 0 0 0 0 0 0 0 0 0 0 0 0 0 0 0 0 127 0" result="hardAlpha"/>
<feOffset/>
<feGaussianBlur stdDeviation="2.5"/>
<feColorMatrix type="matrix" values="0 0 0 0 0.968627 0 0 0 0 0.576471 0 0 0 0 0.101961 0 0 0 1 0"/>
<feBlend mode="normal" in2="BackgroundImageFix" result="effect1_dropShadow_1525_1358"/>
<feBlend mode="normal" in="SourceGraphic" in2="effect1_dropShadow_1525_1358" result="shape"/>
</filter>
</defs>
</svg>
