<svg width="16" height="16" viewBox="0 0 16 16" fill="none" xmlns="http://www.w3.org/2000/svg">
<path d="M4.39324 7.90568C4.4774 8.06168 4.63743 8.15893 4.81149 8.15893H7.52179V13.5105C7.52179 13.7807 7.73601 14 7.99996 14C8.26392 14 8.47814 13.7807 8.47814 13.5105V8.15893H11.1884C11.3631 8.15893 11.5232 8.06168 11.6067 7.90568C11.6915 7.74969 11.6857 7.5591 11.5933 7.40832L8.40482 2.22845C8.31683 2.08616 8.16445 2 7.99996 2C7.83547 2 7.68309 2.08616 7.59511 2.22845L4.40663 7.40832C4.35818 7.48795 4.33331 7.57868 4.33331 7.6694C4.33331 7.75034 4.35372 7.83193 4.39324 7.90568Z" fill="#11CABE"/>
</svg>
