<svg width="48" height="48" viewBox="0 0 48 48" fill="none" xmlns="http://www.w3.org/2000/svg">
<path d="M34.1732 45.1839C30.5804 46.9092 26.6079 47.6925 22.6292 47.46C18.6505 47.2275 14.7962 45.9869 11.4289 43.8549C8.06156 41.7229 5.29179 38.7695 3.38003 35.2724C1.46827 31.7753 0.477329 27.8495 0.500394 23.864C0.523458 19.8785 1.55977 15.9644 3.51188 12.4897C5.46398 9.01499 8.26775 6.09383 11.6595 4.00093C15.0513 1.90803 18.9197 0.712139 22.9008 0.525721C26.882 0.339302 30.8451 1.16848 34.4177 2.93528L29.3343 13.2138C27.505 12.3091 25.4757 11.8846 23.4372 11.98C21.3986 12.0755 19.4178 12.6878 17.6811 13.7595C15.9443 14.8312 14.5087 16.3269 13.5091 18.1062C12.5095 19.8854 11.9789 21.8896 11.9671 23.9304C11.9552 25.9711 12.4627 27.9813 13.4416 29.772C14.4205 31.5627 15.8387 33.075 17.563 34.1667C19.2872 35.2584 21.2608 35.8936 23.2981 36.0127C25.3354 36.1317 27.3695 35.7306 29.2092 34.8472L34.1732 45.1839Z" fill="url(#paint0_linear_1051_1180)"/>
<ellipse cx="23.7205" cy="23.72" rx="8.1131" ry="8.1131" fill="#11CABE"/>
<defs>
<linearGradient id="paint0_linear_1051_1180" x1="48.5967" y1="12.8474" x2="-1.18006" y2="16.7148" gradientUnits="userSpaceOnUse">
<stop stop-color="#246CF9"/>
<stop offset="0.0001" stop-color="#1E68F6"/>
<stop offset="1" stop-color="#0047D0"/>
</linearGradient>
</defs>
</svg>
