<svg width="44" height="44" viewBox="0 0 44 44" fill="none" xmlns="http://www.w3.org/2000/svg">
<g clip-path="url(#clip0_1123_2070)">
<circle cx="22" cy="22" r="22" fill="#25292C"/>
<path d="M31.0727 9.1665H34.7823L27.0623 18.3968C24.2665 21.7377 19.7337 21.7377 16.936 18.3968L9.21289 9.1665H12.9255L18.7908 16.1782C19.6453 17.1953 20.797 17.7654 21.9968 17.7654C23.1967 17.7654 24.3484 17.1953 25.2029 16.1782L31.0727 9.1665Z" fill="white"/>
<path d="M12.8782 34.833H9.16602L16.9362 25.5457C19.732 22.2048 24.2647 22.2048 27.0625 25.5457L34.8327 34.833H31.123L25.2077 27.7643C24.3531 26.7473 23.2015 26.1771 22.0016 26.1771C20.8018 26.1771 19.6501 26.7473 18.7955 27.7643L12.8782 34.833Z" fill="white"/>
</g>
<defs>
<clipPath id="clip0_1123_2070">
<rect width="44" height="44" fill="white"/>
</clipPath>
</defs>
</svg>
