<svg width="44" height="44" viewBox="0 0 44 44" fill="none" xmlns="http://www.w3.org/2000/svg">
<g clip-path="url(#clip0_1123_2049)">
<path d="M22 0C34.1503 0 44 9.84971 44 22C44 34.1503 34.1503 44 22 44C9.84971 44 0 34.1503 0 22C0 9.84971 9.84971 0 22 0Z" fill="#1A82FF"/>
<path d="M30.0433 31.0589C28.1388 33.3921 25.4602 34.5588 22.0077 34.5588C18.5551 34.5588 15.8762 33.3921 13.9708 31.0589C12.0649 28.7244 11.1124 25.7068 11.1133 22.0062C11.1141 18.3056 12.0662 15.2884 13.9695 12.9548C15.8741 10.6202 18.5531 9.45319 22.0064 9.45361C25.4598 9.45403 28.1383 10.6211 30.0421 12.9548C31.9467 15.288 32.8991 18.3052 32.8996 22.0062C32.9 25.7072 31.9479 28.7248 30.0433 31.0589Z" fill="white"/>
<path d="M21.9683 29.6798C22.8772 29.6798 23.6499 29.4321 24.2864 28.9368C24.923 28.4415 25.3839 27.7697 25.6693 26.9216C25.9543 26.073 26.1554 25.2597 26.2727 24.4815C26.3901 23.7033 26.4483 22.8782 26.4475 22.0062C26.4475 20.9326 26.3825 19.9717 26.2526 19.1235L18.4219 27.2837C19.146 28.8802 20.3281 29.6789 21.9683 29.6798Z" fill="#1A82FF"/>
<path d="M22.0456 14.3325C21.1367 14.3325 20.364 14.5802 19.7274 15.0755C19.0909 15.5708 18.63 16.2425 18.3446 17.0906C18.058 17.9392 17.8568 18.7525 17.7412 19.5307C17.6238 20.3088 17.5656 21.1339 17.5664 22.0059C17.5664 22.5804 17.5849 23.1227 17.6217 23.6326L25.0904 15.8511C24.365 14.8391 23.3501 14.3329 22.0456 14.3325Z" fill="#1A82FF"/>
<path d="M11.7215 29.7854L10.7598 28.8626L18.0525 21.2607L19.0142 22.1834L11.7215 29.7854ZM25.4621 21.8528L24.5003 20.9301L31.793 13.3281L32.7547 14.2509L25.4621 21.8528Z" fill="#1A82FF"/>
</g>
<defs>
<clipPath id="clip0_1123_2049">
<rect width="44" height="44" fill="white"/>
</clipPath>
</defs>
</svg>
