<svg width="44" height="44" viewBox="0 0 44 44" fill="none" xmlns="http://www.w3.org/2000/svg">
<g clip-path="url(#clip0_1123_1971)">
<path d="M43.3419 27.3207C40.4025 39.1127 28.4553 46.2809 16.6801 43.3413C4.88776 40.4019 -2.28046 28.4552 0.659117 16.6802C3.59852 4.88825 15.5284 -2.27997 27.3207 0.659607C39.0959 3.58183 46.2814 15.5285 43.3419 27.3207Z" fill="url(#paint0_linear_1123_1971)"/>
<path d="M32.4758 19.2584C32.9055 16.3365 30.6883 14.7553 27.6289 13.7068L28.6258 9.73652L26.2195 9.13496L25.257 13.0021C24.6211 12.8475 23.968 12.6928 23.3148 12.5553L24.2773 8.6709L21.8711 8.06934L20.8914 12.0225C20.3586 11.9021 19.843 11.7818 19.3445 11.6615V11.6443L16.0102 10.8193L15.3742 13.3975C15.3742 13.3975 17.1617 13.81 17.1273 13.8271C18.107 14.0678 18.2789 14.7209 18.2445 15.2365L17.1102 19.7568C17.1789 19.774 17.2648 19.7912 17.368 19.8428C17.282 19.8256 17.1961 19.8084 17.1102 19.774L15.5289 26.099C15.4086 26.3912 15.0992 26.8381 14.4289 26.6662C14.4461 26.7006 12.6758 26.2365 12.6758 26.2365L11.4727 29.0037L14.618 29.7943C15.2023 29.949 15.7695 30.0865 16.3367 30.2412L15.3398 34.2459L17.7461 34.8475L18.743 30.8772C19.3961 31.049 20.0492 31.2209 20.668 31.3756L19.6883 35.3287L22.0945 35.9303L23.0914 31.9256C27.2164 32.699 30.3102 32.3897 31.5992 28.66C32.6477 25.6693 31.5477 23.9334 29.382 22.799C30.9805 22.4381 32.1664 21.3897 32.4758 19.2584ZM26.9586 26.9928C26.2195 29.9834 21.1664 28.3678 19.5336 27.9553L20.857 22.6443C22.4898 23.0568 27.7492 23.8647 26.9586 26.9928ZM27.7148 19.2068C27.0273 21.9397 22.8336 20.5475 21.4758 20.2037L22.6789 15.3912C24.0367 15.735 28.4195 16.3709 27.7148 19.2068Z" fill="white"/>
</g>
<defs>
<linearGradient id="paint0_linear_1123_1971" x1="21.9881" y1="-0.0100717" x2="21.9881" y2="43.996" gradientUnits="userSpaceOnUse">
<stop stop-color="#F9AA4B"/>
<stop offset="1" stop-color="#F7931A"/>
</linearGradient>
<clipPath id="clip0_1123_1971">
<rect width="44" height="44" fill="white"/>
</clipPath>
</defs>
</svg>
