<svg width="44" height="44" viewBox="0 0 44 44" fill="none" xmlns="http://www.w3.org/2000/svg">
<g clip-path="url(#clip0_1123_2106)">
<path d="M22 44C34.1503 44 44 34.1503 44 22C44 9.84974 34.1503 0 22 0C9.84974 0 0 9.84974 0 22C0 34.1503 9.84974 44 22 44Z" fill="#102044"/>
<path d="M33.341 26.6063C33.9598 26.8441 34.3695 27.4326 34.375 28.0913C34.3753 28.3672 34.3034 28.6384 34.1664 28.878C34.0293 29.1175 33.832 29.317 33.594 29.4566C33.3551 29.597 33.0841 29.6733 32.807 29.6781C32.53 29.6829 32.2564 29.6161 32.0128 29.4841L23.7215 34.0079C23.742 34.2266 23.7171 34.4471 23.6483 34.6557C23.5795 34.8642 23.4684 35.0564 23.3219 35.2199C23.1753 35.3835 22.9965 35.515 22.7968 35.6063C22.597 35.6975 22.3805 35.7464 22.1609 35.75C21.7381 35.7604 21.3285 35.6023 21.0221 35.3107C20.7158 35.0191 20.5379 34.6177 20.5274 34.1949L16.4849 31.8808H16.3928V31.8326L12.133 29.3975C11.867 29.5809 11.5514 29.6788 11.2283 29.678C10.8436 29.68 10.4712 29.543 10.1796 29.292C9.88799 29.0411 9.69691 28.6933 9.64153 28.3126C9.58839 27.9322 9.67504 27.5454 9.88542 27.224C10.0958 26.9027 10.4156 26.6685 10.7855 26.565V17.468C10.4743 17.3807 10.1971 17.2006 9.99072 16.9518C9.78438 16.7029 9.65874 16.3972 9.63053 16.0751C9.57553 15.4179 9.93441 14.795 10.5353 14.5104C10.8284 14.3712 11.1567 14.3239 11.4772 14.3747C11.7977 14.4255 12.0953 14.572 12.331 14.795L20.5398 10.0925C20.504 9.86445 20.5181 9.63133 20.5811 9.40925C20.6442 9.18717 20.7547 8.98143 20.9051 8.80624C21.0554 8.63105 21.242 8.49059 21.452 8.39456C21.6619 8.29852 21.8902 8.2492 22.121 8.25001C22.3586 8.24962 22.5932 8.30231 22.8078 8.40422C23.0224 8.50613 23.2116 8.65469 23.3614 8.83905C23.5112 9.0234 23.618 9.2389 23.6739 9.4698C23.7298 9.7007 23.7334 9.94117 23.6844 10.1736L31.6979 14.7634C31.9908 14.4994 32.3717 14.3536 32.769 14.355C32.9858 14.274 33.2176 14.2415 33.4482 14.2596C33.6788 14.2777 33.9027 14.3461 34.1041 14.46C34.3055 14.5738 34.4796 14.7304 34.614 14.9186C34.7485 15.1069 34.8401 15.3223 34.8825 15.5497C34.9249 15.7772 34.9169 16.0111 34.8593 16.2352C34.8016 16.4592 34.6956 16.668 34.5487 16.8467C34.4019 17.0254 34.2176 17.1699 34.009 17.2698C33.8004 17.3698 33.5724 17.4229 33.341 17.4254V26.6076V26.6063ZM27.6788 23.0244V30.8385L31.3528 28.8351C31.2383 28.616 31.1763 28.3733 31.1717 28.1261C31.1671 27.8789 31.22 27.634 31.3263 27.4108C31.4326 27.1875 31.5893 26.9921 31.7841 26.8398C31.9789 26.6875 32.2064 26.5826 32.4487 26.5334V17.4996C32.0875 17.4282 31.7621 17.2341 31.5278 16.9501C31.2935 16.6662 31.1646 16.3099 31.163 15.9418C31.163 15.796 31.1837 15.6503 31.2235 15.5086L27.7407 13.5121V20.7776H27.7352L27.7214 21.2534L27.5248 21.3455L26.2694 22.0963L27.4698 22.8113L27.6609 22.902L27.6664 22.9873L27.6733 23.0244H27.6788ZM22.1238 11.4249C21.6673 11.4249 21.2328 11.2324 20.9289 10.8928L17.2852 12.9814V20.6979L18.7812 21.5889L20.6704 20.4779C20.6314 20.2735 20.6382 20.0631 20.6902 19.8616C20.7422 19.6602 20.8381 19.4727 20.9712 19.3127C21.1042 19.1528 21.271 19.0242 21.4596 18.9364C21.6482 18.8485 21.8539 18.8035 22.0619 18.8045C22.2649 18.804 22.4656 18.8475 22.6503 18.9318C22.835 19.0161 22.9993 19.1393 23.132 19.2929C23.2646 19.4466 23.3625 19.6272 23.419 19.8222C23.4754 20.0172 23.489 20.2221 23.4589 20.4229L25.41 21.5834L26.8565 20.7171V13.0048L23.2623 10.9464C23.1139 11.0978 22.9367 11.2179 22.7412 11.2999C22.5457 11.3818 22.3358 11.4238 22.1238 11.4235V11.4249ZM23.0588 23.0051L24.5479 22.1086L23.0519 21.2163C22.792 21.4688 22.4456 21.6126 22.0833 21.6185C21.721 21.6244 21.3701 21.4918 21.1022 21.2479L19.6309 22.1018L21.0953 22.9749C21.3638 22.7267 21.7175 22.5915 22.0831 22.5971C22.4487 22.6027 22.798 22.7488 23.0588 23.0051ZM12.7078 28.7073L16.3928 30.8193V23.2678L16.3997 23.0244L16.4615 22.9625L16.7695 22.7796L17.9135 22.1086L16.8795 21.4981L16.3997 21.2534V20.9605H16.3942V13.4874L12.7807 15.5581C12.9938 16.3831 12.5057 17.2274 11.6807 17.4625V26.5705C12.1165 26.697 12.4782 27.0036 12.6748 27.4106C12.8714 27.819 12.8838 28.2906 12.7078 28.7073ZM22.1238 32.5476C22.6257 32.5476 23.0973 32.7814 23.397 33.1829L26.7933 31.3266V23.4396L25.41 22.6146L23.4575 23.7875C23.4713 23.8563 23.4768 23.925 23.4768 23.9938C23.4768 24.7706 22.8443 25.399 22.0605 25.399C21.8547 25.3991 21.6513 25.3541 21.4646 25.2672C21.278 25.1803 21.1127 25.0535 20.9803 24.8959C20.848 24.7382 20.7517 24.5534 20.6984 24.3546C20.6451 24.1557 20.636 23.9476 20.6718 23.7449L18.7564 22.6091L17.2797 23.4699V31.3266L20.7515 33.3163C21.0403 32.8378 21.5614 32.5463 22.1238 32.5476Z" fill="white"/>
</g>
<defs>
<clipPath id="clip0_1123_2106">
<rect width="44" height="44" fill="white"/>
</clipPath>
</defs>
</svg>
