<svg width="28" height="28" viewBox="0 0 28 28" fill="none" xmlns="http://www.w3.org/2000/svg">
<g clip-path="url(#clip0_1255_4008)">
<path d="M14 0C21.732 0 28 6.268 28 14C28 21.732 21.732 28 14 28C6.268 28 0 21.732 0 14C0 6.268 6.268 0 14 0Z" fill="#1A82FF"/>
<path d="M19.1182 19.7649C17.9062 21.2497 16.2016 21.9921 14.0046 21.9921C11.8075 21.9921 10.1027 21.2497 8.89018 19.7649C7.67738 18.2793 7.07124 16.359 7.07178 14.0041C7.07231 11.6492 7.67818 9.72918 8.88938 8.24411C10.1014 6.75851 11.8062 6.01585 14.0038 6.01611C16.2014 6.01638 17.9059 6.75905 19.1174 8.24411C20.3294 9.72891 20.9355 11.6489 20.9358 14.0041C20.936 16.3593 20.3302 18.2796 19.1182 19.7649Z" fill="white"/>
<path d="M13.9795 18.8873C14.5579 18.8873 15.0496 18.7297 15.4547 18.4145C15.8597 18.0993 16.1531 17.6718 16.3347 17.1321C16.516 16.5921 16.644 16.0745 16.7187 15.5793C16.7933 15.0841 16.8304 14.559 16.8299 14.0041C16.8299 13.3209 16.7885 12.7094 16.7059 12.1697L11.7227 17.3625C12.1835 18.3785 12.9357 18.8867 13.9795 18.8873Z" fill="#1A82FF"/>
<path d="M14.0291 9.12085C13.4507 9.12085 12.959 9.27845 12.5539 9.59364C12.1488 9.90883 11.8555 10.3363 11.6739 10.876C11.4915 11.416 11.3635 11.9336 11.2899 12.4288C11.2152 12.924 11.1782 13.449 11.1787 14.0039C11.1787 14.3695 11.1904 14.7146 11.2139 15.0391L15.9667 10.0872C15.5051 9.44324 14.8592 9.12112 14.0291 9.12085Z" fill="#1A82FF"/>
<path d="M7.45917 18.9545L6.84717 18.3673L11.488 13.5297L12.1 14.1169L7.45917 18.9545ZM16.2032 13.9065L15.5912 13.3193L20.232 8.48169L20.844 9.06889L16.2032 13.9065Z" fill="#1A82FF"/>
</g>
<defs>
<clipPath id="clip0_1255_4008">
<rect width="28" height="28" fill="white"/>
</clipPath>
</defs>
</svg>
