<svg width="20" height="21" viewBox="0 0 20 21" fill="none" xmlns="http://www.w3.org/2000/svg">
<path d="M14.5084 10.6179C14.4032 10.4229 14.2032 10.3013 13.9856 10.3013H10.5977V3.61191C10.5977 3.27414 10.33 3 10 3C9.67008 3 9.4023 3.27414 9.4023 3.61191V10.3013H6.01443C5.79606 10.3013 5.59603 10.4229 5.49162 10.6179C5.38563 10.8129 5.3928 11.0511 5.50836 11.2396L9.49395 17.7144C9.60393 17.8923 9.79441 18 10 18C10.2056 18 10.3961 17.8923 10.5061 17.7144L14.4917 11.2396C14.5523 11.1401 14.5833 11.0267 14.5833 10.9132C14.5833 10.8121 14.5578 10.7101 14.5084 10.6179Z" fill="#FA2256"/>
</svg>
