<svg width="96" height="96" viewBox="0 0 96 96" fill="none" xmlns="http://www.w3.org/2000/svg">
<g filter="url(#filter0_d_1525_1366)">
<path fill-rule="evenodd" clip-rule="evenodd" d="M75.46 20.4951C77.208 21.1071 78.376 22.7551 78.376 24.6071V51.6991C78.376 59.2711 75.624 66.4991 70.764 72.0991C68.32 74.9191 65.228 77.1151 61.944 78.8911L47.712 86.5791L33.456 78.8871C30.168 77.1111 27.072 74.9191 24.624 72.0951C19.76 66.4951 17 59.2631 17 51.6831V24.6071C17 22.7551 18.168 21.1071 19.916 20.4951L46.244 11.2431C47.18 10.9151 48.2 10.9151 49.132 11.2431L75.46 20.4951Z" stroke="#30E0A1" stroke-width="3" stroke-linecap="round" stroke-linejoin="round"/>
<path d="M37.2891 47.6709L44.8571 55.2429L60.4491 39.6509" stroke="#30E0A1" stroke-width="3" stroke-linecap="round" stroke-linejoin="round"/>
</g>
<defs>
<filter id="filter0_d_1525_1366" x="-5" y="-5" width="106" height="106" filterUnits="userSpaceOnUse" color-interpolation-filters="sRGB">
<feFlood flood-opacity="0" result="BackgroundImageFix"/>
<feColorMatrix in="SourceAlpha" type="matrix" values="0 0 0 0 0 0 0 0 0 0 0 0 0 0 0 0 0 0 127 0" result="hardAlpha"/>
<feOffset/>
<feGaussianBlur stdDeviation="2.5"/>
<feColorMatrix type="matrix" values="0 0 0 0 0.188235 0 0 0 0 0.878431 0 0 0 0 0.631373 0 0 0 1 0"/>
<feBlend mode="normal" in2="BackgroundImageFix" result="effect1_dropShadow_1525_1366"/>
<feBlend mode="normal" in="SourceGraphic" in2="effect1_dropShadow_1525_1366" result="shape"/>
</filter>
</defs>
</svg>
