<svg width="26" height="26" viewBox="0 0 26 26" fill="none" xmlns="http://www.w3.org/2000/svg">
<path d="M7.3052 12.8511C7.43808 13.0974 7.69076 13.251 7.96559 13.251H12.245V21.7008C12.245 22.1275 12.5832 22.4737 13 22.4737C13.4168 22.4737 13.755 22.1275 13.755 21.7008V13.251H18.0344C18.3103 13.251 18.563 13.0974 18.6948 12.8511C18.8287 12.6048 18.8197 12.3039 18.6737 12.0658L13.6393 3.88707C13.5003 3.6624 13.2597 3.52637 13 3.52637C12.7403 3.52637 12.4997 3.6624 12.3608 3.88707L7.32634 12.0658C7.24983 12.1916 7.21057 12.3348 7.21057 12.4781C7.21057 12.6059 7.24279 12.7347 7.3052 12.8511Z" fill="#FA2256"/>
</svg>
