<svg width="26" height="26" viewBox="0 0 26 26" fill="none" xmlns="http://www.w3.org/2000/svg">
<path d="M18.6949 13.149C18.562 12.9027 18.3093 12.7491 18.0345 12.7491H13.7551V4.29931C13.7551 3.87264 13.4168 3.52637 13.0001 3.52637C12.5833 3.52637 12.2451 3.87264 12.2451 4.29931V12.7491H7.96564C7.68981 12.7491 7.43713 12.9027 7.30525 13.149C7.17136 13.3953 7.18042 13.6962 7.32639 13.9343L12.3608 22.113C12.4997 22.3377 12.7403 22.4737 13.0001 22.4737C13.2598 22.4737 13.5004 22.3377 13.6393 22.113L18.6737 13.9343C18.7503 13.8085 18.7895 13.6653 18.7895 13.522C18.7895 13.3943 18.7573 13.2654 18.6949 13.149Z" fill="#11CABE"/>
</svg>
