<svg width="140" height="37" viewBox="0 0 140 37" fill="none" xmlns="http://www.w3.org/2000/svg">
<path d="M135.783 29.5935L139 27.1386V35.5C139 36.0523 138.552 36.5 138 36.5H2C1.44771 36.5 1 36.0523 1 35.5V5.27108L6.28773 9.11251C6.70348 9.41454 7.28046 9.35231 7.62222 8.96858L12.5247 3.4644C12.8282 3.12368 13.3238 3.03158 13.7294 3.24053L14.6726 3.7264C15.0754 3.93391 15.5674 3.84463 15.8716 3.5088L18.0574 1.096C18.3727 0.747959 18.8877 0.666203 19.2953 0.899492L21.1844 1.98078C21.3105 2.05297 21.4508 2.0968 21.5956 2.10923L30.0313 2.83349C30.4037 2.86547 30.7272 3.10244 30.87 3.44787L34.941 13.298C35.2605 14.0712 36.3316 14.1336 36.7388 13.4027L40.5395 6.57963C40.7161 6.26272 41.0504 6.06627 41.4131 6.06627H45.1453C45.6011 6.06627 45.9992 6.37446 46.1134 6.81569L47.5778 12.4735C47.692 12.9147 48.0902 13.2229 48.5459 13.2229H50.8291C50.951 13.2229 51.0718 13.2006 51.1856 13.1572L54.3879 11.9353C54.8454 11.7607 55.3621 11.9431 55.6085 12.3663L59.6708 19.3417C59.9852 19.8817 60.7123 20.0042 61.1864 19.5972L62.1848 18.7399C62.6445 18.3453 63.3467 18.4468 63.6758 18.9554L64.5663 20.3316C64.9508 20.9257 65.8138 20.9435 66.2224 20.3657L72.2644 11.8216C72.7037 11.2004 73.6483 11.2779 73.9806 11.9624L75.2289 14.5347C75.4233 14.9352 75.859 15.159 76.2978 15.0836L79.4708 14.5388C79.8983 14.4654 80.3244 14.676 80.5257 15.0602L84.0954 21.8708C84.2571 22.1793 84.5677 22.3815 84.9152 22.4044L89.9088 22.7342C90.2047 22.7538 90.4768 22.9037 90.6513 23.1435L93.9801 27.7162C94.4347 28.3408 95.3957 28.2359 95.7049 27.5279L97.2216 24.0556C97.4971 23.4247 98.313 23.2545 98.8179 23.7226L108.411 32.618C108.892 33.0638 109.665 32.9341 109.973 32.3557L113.644 25.48C114.006 24.8022 114.965 24.7687 115.373 25.4196L117.504 28.8177C117.629 29.0171 117.821 29.1661 118.045 29.2382L120.542 30.0421C121.031 30.1995 121.559 29.9611 121.765 29.4905L123.919 24.5576C124.078 24.1933 124.438 23.9578 124.836 23.9578H126.47C126.779 23.9578 127.071 23.8151 127.26 23.5711L128.775 21.6202C129.224 21.0422 130.121 21.1262 130.455 21.7774L134.287 29.2546C134.571 29.8093 135.288 29.9716 135.783 29.5935Z" fill="url(#paint0_linear_1487_1597)"/>
<path d="M139 27.1386L135.783 29.5935C135.288 29.9716 134.571 29.8093 134.287 29.2546L130.455 21.7774C130.121 21.1262 129.224 21.0422 128.775 21.6202L127.26 23.5711C127.071 23.8151 126.779 23.9578 126.47 23.9578H124.836C124.438 23.9578 124.078 24.1933 123.919 24.5576L121.765 29.4905C121.559 29.9611 121.031 30.1995 120.542 30.0421L118.045 29.2382C117.821 29.1661 117.629 29.0171 117.504 28.8177L115.373 25.4196C114.965 24.7687 114.006 24.8022 113.644 25.48L109.973 32.3557C109.665 32.9341 108.892 33.0638 108.411 32.618L98.8179 23.7226C98.313 23.2545 97.4971 23.4247 97.2216 24.0556L95.7049 27.5279C95.3957 28.2359 94.4347 28.3408 93.9801 27.7162L90.6513 23.1435C90.4768 22.9037 90.2047 22.7538 89.9088 22.7342L84.9152 22.4044C84.5677 22.3815 84.2571 22.1793 84.0954 21.8708L80.5257 15.0602C80.3244 14.676 79.8983 14.4654 79.4708 14.5388L76.2978 15.0836C75.859 15.159 75.4233 14.9352 75.2289 14.5347L73.9805 11.9624C73.6483 11.2779 72.7037 11.2004 72.2644 11.8216L66.2224 20.3657C65.8138 20.9435 64.9508 20.9257 64.5663 20.3316L63.6758 18.9554C63.3467 18.4468 62.6445 18.3453 62.1848 18.7399L61.1864 19.5972C60.7123 20.0042 59.9852 19.8817 59.6708 19.3417L55.6085 12.3663C55.3621 11.9431 54.8454 11.7607 54.3879 11.9353L51.1856 13.1572C51.0718 13.2006 50.951 13.2229 50.8291 13.2229H48.5459C48.0902 13.2229 47.692 12.9147 47.5778 12.4735L46.1134 6.81569C45.9992 6.37446 45.6011 6.06627 45.1453 6.06627H41.4131C41.0504 6.06627 40.7161 6.26272 40.5395 6.57963L36.7388 13.4027C36.3316 14.1336 35.2605 14.0712 34.941 13.298L30.87 3.44787C30.7272 3.10244 30.4037 2.86547 30.0313 2.83349L21.5956 2.10923C21.4508 2.0968 21.3105 2.05297 21.1844 1.98078L19.2953 0.899492C18.8877 0.666203 18.3727 0.747959 18.0574 1.096L15.8716 3.5088C15.5674 3.84463 15.0754 3.93391 14.6726 3.7264L13.7294 3.24053C13.3238 3.03158 12.8282 3.12368 12.5247 3.4644L7.62223 8.96858C7.28045 9.35231 6.70347 9.41454 6.28773 9.11251L0.999996 5.27108" stroke="#FA2256" stroke-linecap="round"/>
<defs>
<linearGradient id="paint0_linear_1487_1597" x1="70" y1="0.5" x2="70" y2="36.5" gradientUnits="userSpaceOnUse">
<stop offset="0.104167" stop-color="#FCE2ED" stop-opacity="0.38"/>
<stop offset="1" stop-color="#2C2C2C" stop-opacity="0"/>
</linearGradient>
</defs>
</svg>
