<svg width="140" height="37" viewBox="0 0 140 37" fill="none" xmlns="http://www.w3.org/2000/svg">
<path d="M4.21678 29.5935L1 27.1386V35.5C1 36.0523 1.44772 36.5 2 36.5H138C138.552 36.5 139 36.0523 139 35.5V5.27108L133.712 9.11251C133.297 9.41454 132.72 9.35231 132.378 8.96858L127.475 3.4644C127.172 3.12368 126.676 3.03158 126.271 3.24053L125.327 3.7264C124.925 3.93391 124.433 3.84463 124.128 3.5088L121.943 1.096C121.627 0.747959 121.112 0.666203 120.705 0.899492L118.816 1.98078C118.689 2.05297 118.549 2.0968 118.404 2.10923L109.969 2.83349C109.596 2.86547 109.273 3.10244 109.13 3.44787L105.059 13.298C104.739 14.0712 103.668 14.1336 103.261 13.4027L99.4605 6.57963C99.2839 6.26272 98.9496 6.06627 98.5869 6.06627H94.8547C94.3989 6.06627 94.0008 6.37446 93.8866 6.81569L92.4222 12.4735C92.308 12.9147 91.9098 13.2229 91.4541 13.2229H89.1709C89.049 13.2229 88.9282 13.2006 88.8144 13.1572L85.6121 11.9353C85.1546 11.7607 84.6379 11.9431 84.3915 12.3663L80.3292 19.3417C80.0148 19.8817 79.2877 20.0042 78.8136 19.5972L77.8152 18.7399C77.3555 18.3453 76.6533 18.4468 76.3242 18.9554L75.4337 20.3316C75.0492 20.9257 74.1862 20.9435 73.7776 20.3657L67.7356 11.8216C67.2963 11.2004 66.3517 11.2779 66.0194 11.9624L64.7711 14.5347C64.5767 14.9352 64.141 15.159 63.7022 15.0836L60.5292 14.5388C60.1017 14.4654 59.6756 14.676 59.4743 15.0602L55.9046 21.8708C55.7429 22.1793 55.4323 22.3815 55.0848 22.4044L50.0912 22.7342C49.7953 22.7538 49.5232 22.9037 49.3487 23.1435L46.0199 27.7162C45.5653 28.3408 44.6043 28.2359 44.2951 27.5279L42.7784 24.0556C42.5029 23.4247 41.687 23.2545 41.1821 23.7226L31.5888 32.618C31.108 33.0638 30.3355 32.9341 30.0267 32.3557L26.3562 25.48C25.9944 24.8022 25.0351 24.7687 24.6269 25.4196L22.4957 28.8177C22.3706 29.0171 22.1791 29.1661 21.955 29.2382L19.4582 30.0421C18.9694 30.1995 18.4409 29.9611 18.2353 29.4905L16.0807 24.5576C15.9216 24.1933 15.5619 23.9578 15.1643 23.9578H13.5299C13.221 23.9578 12.9294 23.8151 12.74 23.5711L11.2251 21.6202C10.7763 21.0422 9.87908 21.1262 9.54534 21.7774L5.7134 29.2546C5.42914 29.8093 4.71225 29.9716 4.21678 29.5935Z" fill="url(#paint0_linear_1487_1560)"/>
<path d="M1 27.1386L4.21678 29.5935C4.71225 29.9716 5.42914 29.8093 5.7134 29.2546L9.54534 21.7774C9.87908 21.1262 10.7763 21.0422 11.2251 21.6202L12.74 23.5711C12.9294 23.8151 13.221 23.9578 13.5299 23.9578H15.1643C15.5619 23.9578 15.9216 24.1933 16.0807 24.5576L18.2353 29.4905C18.4409 29.9611 18.9694 30.1995 19.4582 30.0421L21.955 29.2382C22.1791 29.1661 22.3706 29.0171 22.4957 28.8177L24.6269 25.4196C25.0351 24.7687 25.9944 24.8022 26.3562 25.48L30.0267 32.3557C30.3355 32.9341 31.108 33.0638 31.5888 32.618L41.1821 23.7226C41.687 23.2545 42.5029 23.4247 42.7784 24.0556L44.2951 27.5279C44.6043 28.2359 45.5653 28.3408 46.0199 27.7162L49.3487 23.1435C49.5232 22.9037 49.7953 22.7538 50.0912 22.7342L55.0848 22.4044C55.4323 22.3815 55.7429 22.1793 55.9046 21.8708L59.4743 15.0602C59.6756 14.676 60.1017 14.4654 60.5292 14.5388L63.7022 15.0836C64.141 15.159 64.5767 14.9352 64.7711 14.5347L66.0195 11.9624C66.3517 11.2779 67.2963 11.2004 67.7356 11.8216L73.7776 20.3657C74.1862 20.9435 75.0492 20.9257 75.4337 20.3316L76.3242 18.9554C76.6533 18.4468 77.3555 18.3453 77.8152 18.7399L78.8136 19.5972C79.2877 20.0042 80.0148 19.8817 80.3292 19.3417L84.3915 12.3663C84.6379 11.9431 85.1546 11.7607 85.6121 11.9353L88.8144 13.1572C88.9282 13.2006 89.049 13.2229 89.1709 13.2229H91.4541C91.9098 13.2229 92.308 12.9147 92.4222 12.4735L93.8866 6.81569C94.0008 6.37446 94.3989 6.06627 94.8547 6.06627H98.5869C98.9496 6.06627 99.2839 6.26272 99.4605 6.57963L103.261 13.4027C103.668 14.1336 104.739 14.0712 105.059 13.298L109.13 3.44787C109.273 3.10244 109.596 2.86547 109.969 2.83349L118.404 2.10923C118.549 2.0968 118.689 2.05297 118.816 1.98078L120.705 0.899492C121.112 0.666203 121.627 0.747959 121.943 1.096L124.128 3.5088C124.433 3.84463 124.925 3.93391 125.327 3.7264L126.271 3.24053C126.676 3.03158 127.172 3.12368 127.475 3.4644L132.378 8.96858C132.72 9.35231 133.297 9.41454 133.712 9.11251L139 5.27108" stroke="#11CABE" stroke-linecap="round"/>
<defs>
<linearGradient id="paint0_linear_1487_1560" x1="70" y1="0.5" x2="70" y2="36.5" gradientUnits="userSpaceOnUse">
<stop offset="0.260417" stop-color="#BCFBFF" stop-opacity="0.4"/>
<stop offset="1" stop-opacity="0"/>
</linearGradient>
</defs>
</svg>
