<svg width="139" height="35" viewBox="0 0 139 35" fill="none" xmlns="http://www.w3.org/2000/svg">
<path d="M133.605 31.413H138V34C138 34.5523 137.552 35 137 35H1C0.447708 35 0 34.5523 0 34V8.5L5.47685 20.2621C5.87921 21.1262 7.14757 20.9909 7.35858 20.0613L8.93156 13.1318C9.07951 12.48 9.81287 12.154 10.3958 12.4809L13.0518 13.97C13.5002 14.2215 14.0663 14.0919 14.3607 13.6704L16.5712 10.5054C16.9077 10.0237 17.585 9.93453 18.0347 10.3127L25.977 16.9923C26.254 17.2253 26.6352 17.2904 26.9739 17.1625L28.5355 16.5728C29.0074 16.3946 29.5382 16.5959 29.7734 17.0422L33.8631 24.803C34.2507 25.5387 35.3146 25.5074 35.6583 24.7502L38.9685 17.459C38.9955 17.3995 39.0283 17.3428 39.0663 17.2898L43.3215 11.3538C43.6925 10.8361 44.4464 10.7926 44.8746 11.2641L46.8592 13.4498C47.1741 13.7967 47.6877 13.8784 48.0948 13.6463L53.42 10.6104C53.984 10.2889 54.7001 10.5816 54.8773 11.2062L56.5715 17.1771C56.6076 17.3042 56.6684 17.4228 56.7506 17.5262L58.8724 20.1968C59.2413 20.6612 59.931 20.7042 60.3549 20.2893L63.0906 17.6112C63.2505 17.4546 63.4583 17.3563 63.6807 17.3318L66.0904 17.0664C66.4608 17.0256 66.7777 16.7823 66.9129 16.435L71.1275 5.60443C71.4 4.90418 72.3185 4.74337 72.8127 5.3094L74.8231 7.61205C75.32 8.1812 76.2443 8.01489 76.5117 7.30823L78.5229 1.99222C78.8226 1.20003 79.9098 1.11588 80.3279 1.85252L84.0226 8.36312C84.2003 8.67615 84.5324 8.86957 84.8923 8.86957H90.51C90.8311 8.86957 91.1326 9.02375 91.3206 9.28405L93.1468 11.8124C93.5459 12.365 94.3689 12.365 94.7681 11.8124L95.7158 10.5002C96.1996 9.83049 97.2407 10.003 97.4827 10.7929L103.879 31.6774C103.971 31.9765 104.197 32.2155 104.49 32.3233L108.262 33.7078C108.721 33.8764 109.235 33.6881 109.476 33.2626L112.27 28.3393C112.568 27.814 113.261 27.6708 113.743 28.0348L120.66 33.2591C121.166 33.6413 121.896 33.4619 122.167 32.8886L123.68 29.6894C123.719 29.607 123.769 29.5303 123.829 29.4615L128.179 24.4486C128.655 23.9011 129.536 24.0254 129.842 24.683L132.698 30.8342C132.862 31.1872 133.216 31.413 133.605 31.413Z" fill="url(#paint0_linear_1487_1542)"/>
<path d="M138 31.413H133.605C133.216 31.413 132.862 31.1872 132.698 30.8342L129.842 24.683C129.536 24.0254 128.655 23.9011 128.179 24.4486L123.829 29.4615C123.769 29.5303 123.719 29.607 123.68 29.6894L122.167 32.8886C121.896 33.4619 121.166 33.6413 120.66 33.2591L113.743 28.0348C113.261 27.6708 112.568 27.814 112.27 28.3393L109.476 33.2626C109.235 33.6881 108.721 33.8764 108.262 33.7078L104.49 32.3233C104.197 32.2155 103.971 31.9765 103.879 31.6774L97.4827 10.7929C97.2407 10.003 96.1996 9.83049 95.7158 10.5002L94.7681 11.8124C94.3689 12.365 93.5459 12.365 93.1468 11.8124L91.3206 9.28405C91.1326 9.02375 90.8311 8.86957 90.51 8.86957H84.8923C84.5324 8.86957 84.2003 8.67615 84.0226 8.36312L80.3279 1.85252C79.9098 1.11588 78.8226 1.20003 78.5229 1.99222L76.5117 7.30822C76.2443 8.01489 75.32 8.1812 74.8231 7.61205L72.8127 5.3094C72.3185 4.74337 71.4 4.90418 71.1275 5.60443L66.9129 16.435C66.7777 16.7823 66.4608 17.0256 66.0904 17.0664L63.6807 17.3318C63.4583 17.3563 63.2505 17.4546 63.0906 17.6112L60.3549 20.2893C59.931 20.7042 59.2413 20.6612 58.8724 20.1968L56.7506 17.5262C56.6684 17.4228 56.6076 17.3042 56.5715 17.1771L54.8773 11.2062C54.7001 10.5816 53.984 10.2889 53.42 10.6104L48.0948 13.6464C47.6877 13.8784 47.1741 13.7967 46.8592 13.4498L44.8746 11.2641C44.4464 10.7926 43.6925 10.8361 43.3215 11.3538L39.0663 17.2898C39.0283 17.3428 38.9955 17.3995 38.9685 17.459L35.6583 24.7502C35.3146 25.5074 34.2507 25.5387 33.8631 24.803L29.7734 17.0422C29.5382 16.5959 29.0074 16.3946 28.5355 16.5728L26.9739 17.1625C26.6352 17.2904 26.254 17.2253 25.977 16.9923L18.0347 10.3127C17.585 9.93453 16.9077 10.0237 16.5712 10.5054L14.3607 13.6704C14.0663 14.0919 13.5002 14.2215 13.0518 13.97L10.3958 12.4809C9.81286 12.154 9.07952 12.48 8.93157 13.1318L7.41297 19.8217C7.19659 20.7749 5.88186 20.8834 5.51209 19.9786L0.821424 8.5" stroke="#FA2256" stroke-linecap="round"/>
<defs>
<linearGradient id="paint0_linear_1487_1542" x1="69" y1="0" x2="69" y2="35" gradientUnits="userSpaceOnUse">
<stop offset="0.104167" stop-color="#FCE2ED" stop-opacity="0.38"/>
<stop offset="1" stop-color="#2C2C2C" stop-opacity="0"/>
</linearGradient>
</defs>
</svg>
