<svg width="139" height="35" viewBox="0 0 139 35" fill="none" xmlns="http://www.w3.org/2000/svg">
<path d="M5.39521 31.413H1V34C1 34.5523 1.44772 35 2 35H138C138.552 35 139 34.5523 139 34V8.5L133.523 20.2621C133.121 21.1262 131.852 20.9909 131.641 20.0613L130.068 13.1318C129.92 12.48 129.187 12.154 128.604 12.4809L125.948 13.97C125.5 14.2215 124.934 14.0919 124.639 13.6704L122.429 10.5054C122.092 10.0237 121.415 9.93453 120.965 10.3127L113.023 16.9923C112.746 17.2253 112.365 17.2904 112.026 17.1625L110.465 16.5728C109.993 16.3946 109.462 16.5959 109.227 17.0422L105.137 24.803C104.749 25.5387 103.685 25.5074 103.342 24.7502L100.031 17.459C100.004 17.3995 99.9717 17.3428 99.9337 17.2898L95.6785 11.3538C95.3075 10.8361 94.5536 10.7926 94.1254 11.2641L92.1408 13.4498C91.8259 13.7967 91.3123 13.8784 90.9052 13.6463L85.58 10.6104C85.016 10.2889 84.2999 10.5816 84.1227 11.2062L82.4285 17.1771C82.3924 17.3042 82.3316 17.4228 82.2494 17.5262L80.1276 20.1968C79.7587 20.6612 79.069 20.7042 78.6451 20.2893L75.9094 17.6112C75.7495 17.4546 75.5417 17.3563 75.3193 17.3318L72.9096 17.0664C72.5392 17.0256 72.2223 16.7823 72.0871 16.435L67.8725 5.60443C67.6 4.90418 66.6815 4.74337 66.1873 5.3094L64.1769 7.61205C63.68 8.1812 62.7557 8.01489 62.4883 7.30823L60.4771 1.99222C60.1774 1.20003 59.0902 1.11588 58.6721 1.85252L54.9774 8.36312C54.7997 8.67615 54.4676 8.86957 54.1077 8.86957H48.49C48.1689 8.86957 47.8674 9.02375 47.6794 9.28405L45.8532 11.8124C45.4541 12.365 44.6311 12.365 44.2319 11.8124L43.2842 10.5002C42.8004 9.83049 41.7593 10.003 41.5173 10.7929L35.1211 31.6774C35.0295 31.9765 34.8032 32.2155 34.5096 32.3233L30.7381 33.7078C30.279 33.8764 29.7652 33.6881 29.5238 33.2626L26.7298 28.3393C26.4317 27.814 25.7395 27.6708 25.2575 28.0348L18.3397 33.2591C17.8337 33.6413 17.1042 33.4619 16.8331 32.8886L15.3201 29.6894C15.2812 29.607 15.2311 29.5303 15.1713 29.4615L10.8205 24.4486C10.3453 23.9011 9.46362 24.0254 9.15831 24.683L6.30221 30.8342C6.1383 31.1872 5.78444 31.413 5.39521 31.413Z" fill="url(#paint0_linear_1487_1613)"/>
<path d="M1 31.413H5.39521C5.78444 31.413 6.1383 31.1872 6.30221 30.8342L9.15831 24.683C9.46362 24.0254 10.3453 23.9011 10.8205 24.4486L15.1713 29.4615C15.2311 29.5303 15.2812 29.607 15.3201 29.6894L16.8331 32.8886C17.1042 33.4619 17.8337 33.6413 18.3397 33.2591L25.2575 28.0348C25.7395 27.6708 26.4317 27.814 26.7298 28.3393L29.5238 33.2626C29.7652 33.6881 30.279 33.8764 30.7381 33.7078L34.5096 32.3233C34.8032 32.2155 35.0295 31.9765 35.1211 31.6774L41.5173 10.7929C41.7593 10.003 42.8004 9.83049 43.2842 10.5002L44.2319 11.8124C44.6311 12.365 45.4541 12.365 45.8532 11.8124L47.6794 9.28405C47.8674 9.02375 48.1689 8.86957 48.49 8.86957H54.1077C54.4676 8.86957 54.7997 8.67615 54.9774 8.36312L58.6721 1.85252C59.0902 1.11588 60.1774 1.20003 60.4771 1.99222L62.4883 7.30822C62.7557 8.01489 63.68 8.1812 64.1769 7.61205L66.1873 5.3094C66.6815 4.74337 67.6 4.90418 67.8725 5.60443L72.0871 16.435C72.2223 16.7823 72.5392 17.0256 72.9096 17.0664L75.3193 17.3318C75.5417 17.3563 75.7495 17.4546 75.9094 17.6112L78.6451 20.2893C79.069 20.7042 79.7587 20.6612 80.1276 20.1968L82.2494 17.5262C82.3316 17.4228 82.3924 17.3042 82.4285 17.1771L84.1227 11.2062C84.2999 10.5816 85.016 10.2889 85.58 10.6104L90.9052 13.6464C91.3123 13.8784 91.8259 13.7967 92.1408 13.4498L94.1254 11.2641C94.5536 10.7926 95.3075 10.8361 95.6785 11.3538L99.9337 17.2898C99.9717 17.3428 100.004 17.3995 100.031 17.459L103.342 24.7502C103.685 25.5074 104.749 25.5387 105.137 24.803L109.227 17.0422C109.462 16.5959 109.993 16.3946 110.465 16.5728L112.026 17.1625C112.365 17.2904 112.746 17.2253 113.023 16.9923L120.965 10.3127C121.415 9.93453 122.092 10.0237 122.429 10.5054L124.639 13.6704C124.934 14.0919 125.5 14.2215 125.948 13.97L128.604 12.4809C129.187 12.154 129.92 12.48 130.068 13.1318L131.587 19.8217C131.803 20.7749 133.118 20.8834 133.488 19.9786L138.179 8.5" stroke="#11CABE" stroke-linecap="round"/>
<defs>
<linearGradient id="paint0_linear_1487_1613" x1="70" y1="0" x2="70" y2="35" gradientUnits="userSpaceOnUse">
<stop offset="0.260417" stop-color="#BCFBFF" stop-opacity="0.4"/>
<stop offset="1" stop-opacity="0"/>
</linearGradient>
</defs>
</svg>
