<svg width="139" height="35" viewBox="0 0 139 35" fill="none" xmlns="http://www.w3.org/2000/svg">
<path d="M4.59174 31.8749L1 29.8571V34C1 34.5523 1.44772 35 2 35H138C138.552 35 139 34.5523 139 34V18.0714L136.824 22.4718C136.724 22.675 136.557 22.8381 136.352 22.9342L133.407 24.3129C132.896 24.5521 132.288 24.3215 132.065 23.8035L129.004 16.7109C128.846 16.3445 128.485 16.1071 128.086 16.1071H125.693C125.283 16.1071 124.914 15.8565 124.763 15.475L123.246 11.639C122.98 10.9677 122.113 10.7903 121.605 11.3037L120.645 12.2746C120.457 12.4645 120.201 12.5714 119.934 12.5714H113.215C113.005 12.5714 112.8 12.5052 112.63 12.3821L110.478 10.8281C110.016 10.4939 109.367 10.6142 109.055 11.0922L105.541 16.476C105.101 17.1509 104.084 17.0541 103.778 16.3081L99.9792 7.0239C99.888 6.80118 99.7196 6.6188 99.5049 6.51022L95.4555 4.46289C95.2733 4.37079 95.0673 4.33664 94.8652 4.36503L90.1367 5.02912C89.7916 5.07758 89.4462 4.9429 89.2249 4.67364L86.1503 0.931366C85.7528 0.44745 85.0133 0.443922 84.6111 0.924022L80.6049 5.70648C80.1897 6.20214 79.4203 6.17938 79.0351 5.66005L78.2872 4.65177C77.8803 4.10306 77.0551 4.11492 76.6641 4.67509L73.72 8.89254C73.2953 9.50088 72.3794 9.45122 72.023 8.80052L68.1611 1.74976C67.7657 1.02783 66.7161 1.0661 66.3743 1.81492L62.8075 9.62951C62.6449 9.98574 62.2893 10.2143 61.8977 10.2143H59.9051C59.5211 10.2143 59.171 10.4341 59.0043 10.78L53.3091 22.5931C53.2479 22.7201 53.1605 22.8327 53.0527 22.9235L46.3598 28.5632C46.0062 28.8613 45.4943 28.8779 45.122 28.6034L42.4104 26.6041C42.1679 26.4253 41.8576 26.3653 41.566 26.441L36.5628 27.7382C36.197 27.833 35.9159 28.1259 35.8362 28.4953L35.204 31.4252C35.1047 31.8856 34.6975 32.2143 34.2265 32.2143H30.3349C30.0607 32.2143 29.7985 32.1017 29.6097 31.9028L25.0014 27.0488C24.6203 26.6474 23.9857 26.6319 23.5855 27.0141L17.9225 32.4223C17.5724 32.7567 17.033 32.7922 16.6421 32.5067L10.9582 28.3558C10.5861 28.084 10.0764 28.1017 9.72408 28.3987L5.7259 31.7677C5.40713 32.0363 4.95517 32.079 4.59174 31.8749Z" fill="url(#paint0_linear_1487_1633)"/>
<path d="M1 29.8571L4.59174 31.8749C4.95517 32.079 5.40713 32.0363 5.7259 31.7677L9.72408 28.3987C10.0764 28.1017 10.5861 28.084 10.9582 28.3558L16.6421 32.5067C17.033 32.7922 17.5724 32.7567 17.9225 32.4223L23.5855 27.0141C23.9857 26.6319 24.6203 26.6474 25.0014 27.0488L29.6097 31.9028C29.7985 32.1017 30.0607 32.2143 30.3349 32.2143H34.2265C34.6975 32.2143 35.1047 31.8856 35.204 31.4252L35.8362 28.4953C35.9159 28.1259 36.197 27.833 36.5628 27.7382L41.566 26.441C41.8576 26.3653 42.1679 26.4253 42.4104 26.6041L45.122 28.6034C45.4943 28.8779 46.0062 28.8613 46.3598 28.5632L53.0527 22.9235C53.1605 22.8327 53.2479 22.7201 53.3091 22.5931L59.0043 10.78C59.171 10.4341 59.5211 10.2143 59.9051 10.2143H61.8977C62.2893 10.2143 62.6449 9.98574 62.8075 9.62951L66.3743 1.81492C66.7161 1.0661 67.7657 1.02783 68.1611 1.74976L72.023 8.80052C72.3794 9.45122 73.2953 9.50088 73.72 8.89254L76.6641 4.67509C77.0551 4.11492 77.8803 4.10306 78.2872 4.65177L79.0351 5.66005C79.4203 6.17938 80.1897 6.20214 80.6049 5.70648L84.6111 0.924022C85.0133 0.443922 85.7528 0.44745 86.1503 0.931366L89.2249 4.67364C89.4462 4.9429 89.7916 5.07758 90.1367 5.02911L94.8652 4.36503C95.0673 4.33664 95.2733 4.37079 95.4555 4.46289L99.5049 6.51022C99.7196 6.6188 99.888 6.80118 99.9792 7.0239L103.778 16.3081C104.084 17.0541 105.101 17.1509 105.541 16.476L109.055 11.0922C109.367 10.6142 110.016 10.4939 110.478 10.8281L112.63 12.3821C112.8 12.5052 113.005 12.5714 113.215 12.5714H119.934C120.201 12.5714 120.457 12.4645 120.645 12.2746L121.605 11.3037C122.113 10.7903 122.98 10.9677 123.246 11.639L124.763 15.475C124.914 15.8565 125.283 16.1071 125.693 16.1071H128.086C128.485 16.1071 128.846 16.3445 129.004 16.7109L132.065 23.8035C132.288 24.3215 132.896 24.5521 133.407 24.3129L136.271 22.9719C136.525 22.8532 136.717 22.6339 136.801 22.367L138.179 18" stroke="#D31335" stroke-linecap="round"/>
<defs>
<linearGradient id="paint0_linear_1487_1633" x1="70" y1="0" x2="70" y2="35" gradientUnits="userSpaceOnUse">
<stop offset="0.104167" stop-color="#FBD5DC" stop-opacity="0.38"/>
<stop offset="1" stop-color="#2D2D2D" stop-opacity="0"/>
</linearGradient>
</defs>
</svg>
