<svg width="141" height="271" viewBox="0 0 141 271" fill="none" xmlns="http://www.w3.org/2000/svg">
<g opacity="0.24">
<mask id="mask0_2192_13528" style="mask-type:alpha" maskUnits="userSpaceOnUse" x="0" y="0" width="521" height="510">
<path d="M70.3237 185.349C64.5259 192.231 59.0367 199.072 53.8875 205.839C25.6099 242.999 8.3267 276.629 2.51789 305.796C-3.42525 335.638 2.9184 360.082 21.3735 378.451C77.4038 434.219 118.058 461.742 144.959 479.955C157.067 488.152 166.631 494.627 173.232 500.807L173.45 500.283L173.232 500.807C184.215 511.09 208.977 512.659 237.855 504.901C268.932 496.553 297.906 479.442 317.348 457.955C344.164 428.319 378.467 405.938 402.522 392.382C430.542 376.592 461.306 363.507 484.815 357.379C499.991 353.424 511.02 340.811 516.71 320.903C526.561 286.431 519.167 234.603 497.413 185.643C487.102 162.436 476.44 138.44 465.251 116.348C452.881 91.9236 441.175 72.5349 429.463 57.0739C415.479 38.6113 401.123 25.1099 385.576 15.7983C368.217 5.40076 349.766 0.411102 329.167 0.54538C293.986 0.774353 219.528 44.5044 148.1 106.89C118.882 132.41 92.3734 159.175 70.3237 185.349ZM504.353 343.511C498.992 349.875 492.378 354.154 484.674 356.162C461.118 362.302 430.299 375.41 402.233 391.226C378.129 404.809 343.752 427.24 316.86 456.96C297.516 478.338 268.667 495.369 237.71 503.685C209.024 511.39 184.485 509.886 173.668 499.759C167.02 493.534 157.434 487.045 145.298 478.828C118.42 460.632 77.8033 433.134 21.8286 377.421C3.71051 359.388 -2.5209 335.409 3.30608 306.15C9.06999 277.209 26.2705 243.772 54.4294 206.768C79.1235 174.317 111.658 140.149 148.514 107.958C219.83 45.6701 294.119 2.00854 329.171 1.78067C349.662 1.64746 368.012 6.60812 385.271 16.9458C400.729 26.2044 415.007 39.6341 428.92 58.0021C455.022 92.4613 476.224 140.181 496.729 186.329C518.33 234.945 525.696 286.324 515.953 320.416C513.264 329.827 509.353 337.576 504.353 343.511Z" fill="url(#paint0_linear_2192_13528)"/>
</mask>
<g mask="url(#mask0_2192_13528)">
<path d="M70.3237 185.349C64.5259 192.231 59.0367 199.072 53.8875 205.839C25.6099 242.999 8.3267 276.629 2.51789 305.796C-3.42525 335.638 2.9184 360.082 21.3735 378.451C77.4038 434.219 118.058 461.742 144.959 479.955C157.067 488.152 166.631 494.627 173.232 500.807L173.45 500.283L173.232 500.807C184.215 511.09 208.977 512.659 237.855 504.901C268.932 496.553 297.906 479.442 317.348 457.955C344.164 428.319 378.467 405.938 402.522 392.382C430.542 376.592 461.306 363.507 484.815 357.379C499.991 353.424 511.02 340.811 516.71 320.903C526.561 286.431 519.167 234.603 497.413 185.643C487.102 162.436 476.44 138.44 465.251 116.348C452.881 91.9236 441.175 72.5349 429.463 57.0739C415.479 38.6113 401.123 25.1099 385.576 15.7983C368.217 5.40076 349.766 0.411102 329.167 0.54538C293.986 0.774353 219.528 44.5044 148.1 106.89C118.882 132.41 92.3734 159.175 70.3237 185.349ZM504.353 343.511C498.992 349.875 492.378 354.154 484.674 356.162C461.118 362.302 430.299 375.41 402.233 391.226C378.129 404.809 343.752 427.24 316.86 456.96C297.516 478.338 268.667 495.369 237.71 503.685C209.024 511.39 184.485 509.886 173.668 499.759C167.02 493.534 157.434 487.045 145.298 478.828C118.42 460.632 77.8033 433.134 21.8286 377.421C3.71051 359.388 -2.5209 335.409 3.30608 306.15C9.06999 277.209 26.2705 243.772 54.4294 206.768C79.1235 174.317 111.658 140.149 148.514 107.958C219.83 45.6701 294.119 2.00854 329.171 1.78067C349.662 1.64746 368.012 6.60812 385.271 16.9458C400.729 26.2044 415.007 39.6341 428.92 58.0021C455.022 92.4613 476.224 140.181 496.729 186.329C518.33 234.945 525.696 286.324 515.953 320.416C513.264 329.827 509.353 337.576 504.353 343.511Z" fill="white"/>
</g>
<mask id="mask1_2192_13528" style="mask-type:alpha" maskUnits="userSpaceOnUse" x="19" y="27" width="482" height="471">
<path d="M82.5058 197.402C77.921 202.844 73.5532 208.256 69.4194 213.62C43.3486 247.449 27.3745 278.071 21.942 304.636C16.4493 331.493 21.9919 353.532 38.4156 370.142C87.7762 420.859 125.836 448.219 151.021 466.323C162.844 474.822 172.182 481.535 178.831 487.835C189.581 498.01 212.899 500.148 239.686 493.416C268.369 486.208 295.47 470.561 314.041 450.489C338.869 423.328 370.338 402.482 392.366 389.777C418.242 374.851 445.6 362.687 467.424 356.404C481.195 352.435 491.188 340.61 496.324 322.206C505.238 290.259 498.424 242.582 478.542 197.782L478.542 197.783C459.811 155.488 440.442 111.751 415.962 79.5158C403.068 62.5366 389.83 50.0949 375.492 41.4788C359.497 31.8676 342.509 27.1995 323.556 27.207C291.018 27.0599 222.23 66.6686 156.278 123.528C128.45 147.52 103.264 172.762 82.5058 197.402ZM484.671 343.754C479.896 349.423 474.054 353.312 467.278 355.265C445.411 361.56 418.006 373.744 392.088 388.694C370.017 401.424 338.482 422.316 313.587 449.55C295.111 469.519 268.128 485.092 239.559 492.272C212.951 498.959 189.84 496.884 179.243 486.855C172.557 480.518 163.2 473.792 151.355 465.277C126.191 447.188 88.1643 419.852 38.85 369.182C22.7395 352.889 17.3002 331.288 22.681 304.977C28.0704 278.624 43.9657 248.182 69.9254 214.498C92.7366 184.896 122.731 153.788 156.662 124.535C222.509 67.7664 291.138 28.2208 323.555 28.3674C342.408 28.3599 359.303 33.0012 375.205 42.5562C389.46 51.122 402.625 63.4968 415.452 80.3883C439.854 112.523 459.195 156.193 477.898 198.425V198.426C497.638 242.907 504.425 290.165 495.61 321.758C493.104 330.74 489.413 338.125 484.671 343.754Z" fill="url(#paint1_linear_2192_13528)"/>
</mask>
<g mask="url(#mask1_2192_13528)">
<path d="M82.5058 197.402C77.921 202.844 73.5532 208.256 69.4194 213.62C43.3486 247.449 27.3745 278.071 21.942 304.636C16.4493 331.493 21.9919 353.532 38.4156 370.142C87.7762 420.859 125.836 448.219 151.021 466.323C162.844 474.822 172.182 481.535 178.831 487.835C189.581 498.01 212.899 500.148 239.686 493.416C268.369 486.208 295.47 470.561 314.041 450.489C338.869 423.328 370.338 402.482 392.366 389.777C418.242 374.851 445.6 362.687 467.424 356.404C481.195 352.435 491.188 340.61 496.324 322.206C505.238 290.259 498.424 242.582 478.542 197.782L478.542 197.783C459.811 155.488 440.442 111.751 415.962 79.5158C403.068 62.5366 389.83 50.0949 375.492 41.4788C359.497 31.8676 342.509 27.1995 323.556 27.207C291.018 27.0599 222.23 66.6686 156.278 123.528C128.45 147.52 103.264 172.762 82.5058 197.402ZM484.671 343.754C479.896 349.423 474.054 353.312 467.278 355.265C445.411 361.56 418.006 373.744 392.088 388.694C370.017 401.424 338.482 422.316 313.587 449.55C295.111 469.519 268.128 485.092 239.559 492.272C212.951 498.959 189.84 496.884 179.243 486.855C172.557 480.518 163.2 473.792 151.355 465.277C126.191 447.188 88.1643 419.852 38.85 369.182C22.7395 352.889 17.3002 331.288 22.681 304.977C28.0704 278.624 43.9657 248.182 69.9254 214.498C92.7366 184.896 122.731 153.788 156.662 124.535C222.509 67.7664 291.138 28.2208 323.555 28.3674C342.408 28.3599 359.303 33.0012 375.205 42.5562C389.46 51.122 402.625 63.4968 415.452 80.3883C439.854 112.523 459.195 156.193 477.898 198.425V198.426C497.638 242.907 504.425 290.165 495.61 321.758C493.104 330.74 489.413 338.125 484.671 343.754Z" fill="white"/>
</g>
<mask id="mask2_2192_13528" style="mask-type:alpha" maskUnits="userSpaceOnUse" x="39" y="53" width="441" height="432">
<path d="M94.7091 209.377C91.313 213.408 88.0558 217.415 84.9387 221.398C61.0735 251.898 46.4093 279.512 41.3534 303.474C36.316 327.347 41.0616 346.982 55.4581 361.832C98.4673 407.823 132.624 433.952 157.565 453.03C168.883 461.689 177.823 468.527 184.431 474.865C195.112 485.086 216.453 487.728 241.518 481.932C267.811 475.851 293.039 461.669 310.734 443.023C352.132 398.281 416.721 366.126 450.034 355.429C462.403 351.447 471.362 340.406 475.942 323.499C483.913 294.075 477.678 250.554 459.67 209.92C443.527 173.327 425.23 131.85 402.46 101.956C390.657 86.4612 378.537 75.0783 365.408 67.1587C350.777 58.3334 335.252 53.9857 317.944 53.8675C302.943 53.607 279.981 62.0027 251.543 78.1463C224.225 93.6549 193.293 115.679 164.445 140.164C138.013 162.597 114.154 186.296 94.7091 209.377ZM464.986 344.027C460.8 348.995 455.731 352.485 449.883 354.367C416.51 365.085 351.8 397.303 310.314 442.138C292.712 460.688 267.595 474.802 241.408 480.858C216.512 486.616 195.357 484.033 184.819 473.949C178.182 467.584 169.228 460.734 157.893 452.063C132.973 433 98.8432 406.891 55.8722 360.943C41.7639 346.391 37.1128 327.167 42.0425 303.802C47.0567 280.037 61.6468 252.591 85.4072 222.225C106.338 195.478 133.792 167.427 164.8 141.109C193.617 116.651 224.514 94.6521 251.798 79.1628C280.153 63.0662 303.024 54.6951 317.938 54.954C335.155 55.0723 350.593 59.3942 365.138 68.1671C378.19 76.0402 390.243 87.3605 401.984 102.774C424.68 132.572 442.949 173.985 459.067 210.522L459.068 210.522C476.944 250.861 483.153 293.995 475.271 323.091C472.95 331.662 469.477 338.696 464.986 344.027Z" fill="url(#paint2_linear_2192_13528)"/>
</mask>
<g mask="url(#mask2_2192_13528)">
<path d="M94.7081 209.377C91.312 213.408 88.0548 217.415 84.9377 221.398C61.0725 251.898 46.4083 279.512 41.3524 303.474C36.315 327.347 41.0606 346.982 55.4572 361.832C98.4663 407.823 132.623 433.952 157.564 453.03C168.882 461.689 177.822 468.527 184.43 474.865C195.111 485.086 216.452 487.728 241.517 481.932C267.81 475.851 293.038 461.669 310.733 443.023C352.131 398.281 416.72 366.126 450.033 355.429C462.402 351.447 471.361 340.406 475.941 323.499C483.912 294.075 477.677 250.554 459.669 209.92C443.526 173.327 425.229 131.85 402.459 101.956C390.656 86.4612 378.536 75.0783 365.407 67.1587C350.776 58.3334 335.251 53.9857 317.943 53.8675C302.942 53.607 279.98 62.0027 251.542 78.1463C224.224 93.6549 193.292 115.679 164.444 140.164C138.012 162.597 114.153 186.296 94.7081 209.377ZM464.985 344.027C460.799 348.995 455.73 352.485 449.882 354.367C416.509 365.085 351.799 397.303 310.314 442.138C292.711 460.688 267.594 474.802 241.407 480.858C216.511 486.616 195.356 484.033 184.818 473.949C178.181 467.584 169.227 460.734 157.892 452.063C132.972 433 98.8422 406.891 55.8712 360.943C41.7629 346.391 37.1118 327.167 42.0415 303.802C47.0557 280.037 61.6458 252.591 85.4063 222.225C106.337 195.478 133.791 167.427 164.799 141.109C193.616 116.651 224.513 94.6521 251.798 79.1628C280.152 63.0662 303.023 54.6951 317.937 54.954C335.154 55.0723 350.592 59.3942 365.137 68.1671C378.189 76.0402 390.242 87.3605 401.983 102.774C424.679 132.572 442.948 173.985 459.066 210.522L459.067 210.522C476.943 250.861 483.152 293.995 475.27 323.091C472.949 331.662 469.476 338.696 464.985 344.027Z" fill="white"/>
</g>
<mask id="mask3_2192_13528" style="mask-type:alpha" maskUnits="userSpaceOnUse" x="58" y="80" width="401" height="393">
<path d="M106.935 221.254C104.701 223.906 102.535 226.546 100.439 229.177C78.7786 256.346 65.4243 280.952 60.7457 302.31C56.1694 323.204 60.1236 340.435 72.4991 353.524C109.545 395.233 141.524 421.327 164.874 440.379C174.936 448.588 183.625 455.679 190.029 461.895C200.486 472.014 220.418 475.211 243.349 470.448C267.26 465.481 290.615 452.764 307.425 435.558C323.918 417.991 346.264 400.36 372.052 384.565C392.751 371.888 414.835 360.913 432.644 354.454C443.615 350.463 451.542 340.201 455.565 324.781C462.585 297.879 456.926 258.519 440.798 222.061C423.953 183.696 408.425 149.865 388.958 124.4C378.246 110.387 367.244 100.065 355.323 92.8412C342.057 84.8028 327.994 80.7756 312.332 80.5306C298.571 80.0828 277.61 87.4017 251.718 101.698C226.949 115.374 198.85 134.942 172.598 156.798C147.564 177.639 125.041 199.762 106.935 221.254ZM445.294 344.34C441.704 348.603 437.408 351.68 432.485 353.472C414.646 359.942 392.526 370.934 371.797 383.629C345.963 399.452 323.57 417.122 307.04 434.728C290.318 451.844 267.068 464.501 243.256 469.447C220.48 474.178 200.719 471.037 190.394 461.045C183.969 454.809 175.269 447.71 165.195 439.491C141.863 420.453 109.909 394.38 72.8946 352.707C60.7817 339.894 56.912 323.048 61.385 302.626C66.0236 281.45 79.3081 256.999 100.87 229.953C119.923 206.058 144.837 181.066 172.923 157.682C199.147 135.851 227.212 116.305 251.95 102.647C277.763 88.394 298.639 81.096 312.321 81.5417C327.901 81.7856 341.883 85.7882 355.07 93.7784C366.921 100.96 377.861 111.225 388.515 125.162C407.918 150.543 423.418 184.315 440.236 222.619L440.237 222.62C456.246 258.808 461.879 297.813 454.938 324.412C452.802 332.596 449.543 339.297 445.294 344.34Z" fill="url(#paint3_linear_2192_13528)"/>
</mask>
<g mask="url(#mask3_2192_13528)">
<path d="M106.935 221.254C104.7 223.906 102.535 226.546 100.438 229.177C78.7781 256.346 65.4238 280.952 60.7452 302.31C56.1689 323.204 60.1231 340.435 72.4986 353.524C109.545 395.233 141.524 421.327 164.874 440.379C174.935 448.588 183.625 455.679 190.029 461.895C200.485 472.014 220.418 475.211 243.348 470.448C267.26 465.481 290.615 452.764 307.425 435.558C323.918 417.991 346.264 400.36 372.051 384.565C392.75 371.888 414.835 360.913 432.643 354.454C443.614 350.463 451.541 340.201 455.565 324.781C462.584 297.879 456.926 258.519 440.797 222.061C423.952 183.696 408.424 149.865 388.957 124.4C378.246 110.387 367.243 100.065 355.322 92.8412C342.057 84.8028 327.994 80.7756 312.332 80.5306C298.57 80.0828 277.609 87.4017 251.718 101.698C226.949 115.374 198.85 134.942 172.597 156.798C147.563 177.639 125.04 199.762 106.935 221.254ZM445.294 344.34C441.704 348.603 437.408 351.68 432.485 353.472C414.645 359.942 392.525 370.934 371.797 383.629C345.962 399.452 323.57 417.122 307.04 434.728C290.318 451.844 267.068 464.501 243.256 469.447C220.48 474.178 200.718 471.037 190.393 461.045C183.968 454.809 175.268 447.71 165.195 439.491C141.863 420.453 109.909 394.38 72.8941 352.707C60.7812 339.894 56.9115 323.048 61.3845 302.626C66.0231 281.45 79.3076 256.999 100.87 229.953C119.923 206.058 144.836 181.066 172.923 157.682C199.146 135.851 227.212 116.305 251.95 102.647C277.762 88.394 298.638 81.096 312.32 81.5417C327.901 81.7856 341.883 85.7882 355.07 93.7784C366.92 100.96 377.86 111.225 388.515 125.162C407.917 150.543 423.418 184.315 440.236 222.619L440.237 222.62C456.245 258.808 461.878 297.813 454.937 324.412C452.802 332.596 449.543 339.297 445.294 344.34Z" fill="white"/>
</g>
<mask id="mask4_2192_13528" style="mask-type:alpha" maskUnits="userSpaceOnUse" x="78" y="107" width="360" height="354">
<path d="M119.19 232.997C118.078 234.317 116.986 235.633 115.914 236.947C96.4587 260.786 84.4131 282.383 80.1123 301.138C76.0035 319.056 79.1748 333.886 89.5381 345.214C121.07 383.263 151.315 409.636 173.4 428.893C182.157 436.529 189.72 443.123 195.626 448.926C206.018 459.096 224.079 462.755 245.178 458.964C266.719 455.094 288.201 443.841 304.116 428.092C335.051 395.725 383.41 366.727 415.253 353.478C424.834 349.475 431.73 339.987 435.196 326.039C441.253 301.661 436.168 266.47 421.925 234.2L421.925 234.202C407.618 201.425 393.298 170.078 375.454 146.842C365.833 134.314 355.949 125.051 345.236 118.522C333.335 111.271 320.736 107.565 306.718 107.193C294.193 106.557 275.23 112.798 251.883 125.243C229.659 137.09 204.39 154.202 180.731 173.426C157.101 192.626 135.922 213.137 119.19 232.997ZM425.595 344.711C422.607 348.258 419.086 350.905 415.086 352.577C383.194 365.845 334.754 394.894 303.766 427.318C287.936 442.983 266.552 454.181 245.104 458.035C224.148 461.8 206.238 458.194 195.967 448.141C190.047 442.327 182.478 435.726 173.713 428.083C151.646 408.841 121.424 382.489 89.9169 344.471C79.7887 333.399 76.6923 318.927 80.7016 301.443C84.9644 282.855 96.944 261.399 116.308 237.672C133.485 216.637 155.861 194.697 181.027 174.249C204.659 155.047 229.897 137.957 252.092 126.125C275.365 113.719 294.249 107.496 306.702 108.128C320.646 108.498 333.173 112.181 345.001 119.389C355.65 125.878 365.477 135.089 375.045 147.548C392.828 170.706 407.121 201.994 421.403 234.715L421.404 234.717C435.539 266.742 440.6 301.608 434.611 325.711C432.665 333.544 429.613 339.941 425.595 344.711Z" fill="url(#paint4_linear_2192_13528)"/>
</mask>
<g mask="url(#mask4_2192_13528)">
<path d="M119.191 232.997C118.078 234.316 116.987 235.633 115.915 236.947C96.4592 260.786 84.4136 282.382 80.1128 301.138C76.004 319.056 79.1753 333.885 89.5386 345.214C121.071 383.263 151.316 409.635 173.4 428.892C182.157 436.528 189.72 443.123 195.627 448.925C206.018 459.096 224.079 462.754 245.178 458.964C266.719 455.093 288.201 443.841 304.116 428.091C335.051 395.724 383.41 366.726 415.253 353.478C424.835 349.475 431.73 339.986 435.196 326.038C441.254 301.66 436.169 266.469 421.925 234.2L421.926 234.202C407.618 201.424 393.298 170.078 375.454 146.841C365.834 134.314 355.95 125.05 345.237 118.522C333.336 111.27 320.736 107.564 306.719 107.192C294.193 106.556 275.23 112.798 251.884 125.243C229.659 137.089 204.39 154.201 180.731 173.425C157.102 192.626 135.922 213.136 119.191 232.997ZM425.595 344.711C422.608 348.257 419.086 350.905 415.086 352.576C383.194 365.845 334.754 394.893 303.766 427.317C287.936 442.982 266.552 454.181 245.104 458.034C224.148 461.8 206.239 458.193 195.968 448.141C190.048 442.326 182.478 435.726 173.713 428.083C151.646 408.841 121.424 382.489 89.9174 344.471C79.7892 333.399 76.6928 318.926 80.7021 301.442C84.9649 282.854 96.9445 261.399 116.309 237.672C133.485 216.636 155.862 194.697 181.028 174.249C204.659 155.047 229.897 137.956 252.092 126.125C275.366 113.719 294.25 107.496 306.703 108.128C320.647 108.498 333.173 112.181 345.002 119.389C355.65 125.877 365.478 135.088 375.045 147.548C392.829 170.706 407.121 201.994 421.404 234.714L421.405 234.717C435.54 266.741 440.6 301.608 434.611 325.711C432.666 333.544 429.614 339.941 425.595 344.711Z" fill="white"/>
</g>
<mask id="mask5_2192_13528" style="mask-type:alpha" maskUnits="userSpaceOnUse" x="97" y="133" width="320" height="316">
<path d="M131.485 244.557C131.443 244.606 131.403 244.654 131.362 244.703C114.109 265.211 103.371 283.799 99.4469 299.95C95.8138 314.901 98.2137 327.334 106.58 336.903C133.039 372.134 162.398 399.482 183.836 419.45C190.548 425.702 196.346 431.103 201.227 435.954C211.408 446.034 228.095 450.234 247.009 447.478C266.195 444.682 285.804 434.895 300.809 420.624C314.283 406.837 331.416 392.954 351.739 379.352C367.027 369.119 383.839 359.332 397.866 352.5C406.066 348.484 411.935 339.757 414.84 327.261C419.92 305.408 415.404 274.4 403.054 246.338C391.152 218.866 378.173 190.285 361.953 169.282C353.425 158.238 344.658 150.035 335.153 144.202C324.617 137.737 313.481 134.352 301.108 133.853C278.726 132.219 233.609 154.799 188.845 190.042C166.627 207.535 146.796 226.382 131.485 244.557ZM405.889 345.165C403.515 347.983 400.77 350.172 397.689 351.682C383.644 358.523 366.811 368.322 351.505 378.566C331.151 392.189 313.988 406.098 300.494 419.906C285.571 434.098 266.053 443.839 246.954 446.622C228.168 449.359 211.617 445.209 201.543 435.235C196.656 430.377 190.855 424.974 184.138 418.718C162.718 398.766 133.383 371.441 106.944 336.238C98.7842 326.904 96.4485 314.801 99.9857 300.245C103.873 284.246 114.549 265.786 131.717 245.378C131.758 245.331 131.8 245.281 131.84 245.233C147.124 227.09 166.922 208.274 189.111 190.805C233.792 155.627 278.791 133.086 301.087 134.715C313.395 135.211 324.465 138.575 334.936 145C344.382 150.796 353.097 158.953 361.578 169.935C377.741 190.864 390.693 219.389 402.574 246.811L402.575 246.814C414.828 274.656 419.32 305.374 414.298 326.977C412.547 334.511 409.695 340.647 405.889 345.165Z" fill="url(#paint5_linear_2192_13528)"/>
</mask>
<g mask="url(#mask5_2192_13528)">
<path d="M131.484 244.557C131.443 244.606 131.403 244.654 131.361 244.703C114.108 265.211 103.371 283.799 99.4464 299.95C95.8134 314.901 98.2132 327.334 106.579 336.903C133.038 372.134 162.398 399.482 183.835 419.45C190.548 425.702 196.346 431.103 201.227 435.954C211.408 446.034 228.095 450.234 247.009 447.478C266.195 444.682 285.804 434.895 300.808 420.624C314.283 406.837 331.415 392.954 351.738 379.352C367.026 369.119 383.839 359.332 397.866 352.5C406.065 348.484 411.935 339.757 414.84 327.261C419.92 305.408 415.404 274.4 403.054 246.338C391.151 218.866 378.172 190.285 361.953 169.282C353.424 158.238 344.658 150.035 335.152 144.202C324.617 137.737 313.481 134.352 301.108 133.853C278.726 132.219 233.608 154.799 188.844 190.042C166.627 207.535 146.795 226.382 131.484 244.557ZM405.888 345.165C403.514 347.983 400.77 350.172 397.689 351.682C383.644 358.523 366.811 368.322 351.505 378.566C331.151 392.189 313.988 406.098 300.493 419.906C285.571 434.098 266.053 443.839 246.954 446.622C228.168 449.359 211.616 445.209 201.543 435.235C196.655 430.377 190.854 424.974 184.137 418.718C162.718 398.766 133.382 371.441 106.943 336.238C98.7837 326.904 96.448 314.801 99.9852 300.245C103.873 284.246 114.549 265.786 131.717 245.378C131.757 245.331 131.799 245.281 131.84 245.233C147.123 227.09 166.922 208.274 189.111 190.805C233.791 155.627 278.791 133.086 301.086 134.715C313.395 135.211 324.464 138.575 334.935 145C344.382 150.796 353.097 158.953 361.578 169.935C377.74 190.864 390.693 219.389 402.574 246.811L402.575 246.814C414.828 274.656 419.32 305.374 414.298 326.977C412.547 334.511 409.695 340.647 405.888 345.165Z" fill="white"/>
</g>
<mask id="mask6_2192_13528" style="mask-type:alpha" maskUnits="userSpaceOnUse" x="117" y="160" width="280" height="277">
<path d="M143.756 255.932C130.449 271.727 122.037 286.109 118.727 298.729C115.581 310.725 117.223 320.766 123.607 328.575C145.258 362.125 175.298 391.793 197.232 413.456C200.674 416.855 203.925 420.067 206.827 422.984C216.959 433.134 231.879 437.753 248.839 435.993C265.941 434.218 283.222 426.109 297.501 413.159C307.074 403.641 334.304 378.601 380.479 351.521C387.311 347.488 392.159 339.503 394.498 328.427C398.579 309.109 394.626 282.306 384.183 258.481C374.545 236.017 363.041 210.479 348.45 191.724C333.031 171.903 315.71 161.694 295.497 160.515C285.428 159.499 270.446 163.578 252.178 172.309C234.779 180.626 215.673 192.496 196.927 206.637C177.569 221.24 160.224 237.075 146.765 252.431C145.736 253.605 144.733 254.773 143.756 255.932ZM386.166 345.749C384.423 347.819 382.458 349.508 380.288 350.789C372.901 355.121 358.02 364.162 341.358 376.035C323.868 388.498 309.017 400.765 297.22 412.495C283.02 425.373 265.822 433.443 248.803 435.21C231.957 436.958 217.153 432.384 207.117 422.331C204.214 419.412 200.962 416.2 197.519 412.8C175.602 391.153 145.584 361.507 123.972 328.012L123.949 327.98C117.753 320.41 116.16 310.665 119.215 299.016C122.682 285.796 132.317 269.904 147.082 253.057C160.515 237.73 177.833 221.921 197.162 207.34C215.884 193.217 234.963 181.363 252.337 173.059C270.543 164.357 285.458 160.291 295.469 161.301C315.567 162.473 332.784 172.62 348.11 192.321C362.647 211.007 374.125 236.489 383.743 258.908L383.745 258.911C394.104 282.545 398.033 309.091 393.999 328.19C392.452 335.509 389.789 341.449 386.166 345.749Z" fill="url(#paint6_linear_2192_13528)"/>
</mask>
<g mask="url(#mask6_2192_13528)">
<path d="M143.756 255.932C130.449 271.727 122.036 286.109 118.727 298.729C115.581 310.725 117.222 320.766 123.606 328.575C145.257 362.125 175.297 391.793 197.231 413.456C200.673 416.855 203.925 420.067 206.826 422.984C216.958 433.134 231.879 437.753 248.839 435.993C265.94 434.218 283.222 426.109 297.5 413.159C307.073 403.641 334.303 378.601 380.479 351.521C387.31 347.488 392.158 339.503 394.497 328.427C398.578 309.109 394.625 282.306 384.183 258.481C374.545 236.017 363.041 210.479 348.45 191.724C333.031 171.903 315.709 161.694 295.496 160.515C285.427 159.499 270.446 163.578 252.178 172.309C234.778 180.626 215.672 192.496 196.927 206.637C177.569 221.24 160.223 237.075 146.765 252.431C145.736 253.605 144.732 254.773 143.756 255.932ZM386.166 345.749C384.423 347.819 382.457 349.508 380.287 350.789C372.901 355.121 358.019 364.162 341.358 376.035C323.867 388.498 309.017 400.765 297.22 412.495C283.02 425.373 265.822 433.443 248.802 435.21C231.957 436.958 217.153 432.384 207.117 422.331C204.214 419.412 200.962 416.2 197.519 412.8C175.601 391.153 145.583 361.507 123.971 328.012L123.949 327.98C117.752 320.41 116.16 310.665 119.214 299.016C122.681 285.796 132.317 269.904 147.082 253.057C160.515 237.73 177.832 221.921 197.162 207.34C215.884 193.217 234.963 181.363 252.337 173.059C270.542 164.357 285.457 160.291 295.468 161.301C315.566 162.473 332.783 172.62 348.109 192.321C362.646 211.007 374.125 236.489 383.743 258.908L383.744 258.911C394.103 282.545 398.033 309.091 393.998 328.19C392.452 335.509 389.789 341.449 386.166 345.749Z" fill="white"/>
</g>
<mask id="mask7_2192_13528" style="mask-type:alpha" maskUnits="userSpaceOnUse" x="136" y="186" width="240" height="239">
<path d="M156.324 266.628C146.875 277.843 140.566 288.384 137.925 297.432C135.274 306.514 136.187 314.19 140.636 320.248C157.182 353.812 195.892 393.194 212.425 410.014C233.106 430.979 266.73 429.201 294.191 405.691C315.252 385.541 342.199 365.828 358.299 354.05C360.009 352.799 361.612 351.626 363.093 350.538C368.576 346.478 372.408 339.197 374.174 329.487C377.224 312.723 373.826 290.165 365.31 270.619C356.821 250.566 347.267 229.846 334.946 214.165C321.798 197.43 307.058 188.602 289.884 187.177C272.491 184.8 239.158 198.935 204.973 223.187C188.535 234.848 173.715 247.611 162.114 260.094C160.071 262.293 158.139 264.474 156.324 266.628ZM366.424 346.547C365.338 347.836 364.157 348.957 362.884 349.899C361.404 350.987 359.801 352.16 358.092 353.41C341.982 365.196 315.02 384.92 293.946 405.082C266.646 428.454 233.228 430.244 212.69 409.425C196.173 392.622 157.493 353.27 141.003 319.797L140.989 319.769L140.971 319.745C136.674 313.911 135.795 306.5 138.359 297.718C141.472 287.05 149.783 274.238 162.39 260.673C173.968 248.214 188.763 235.474 205.175 223.831C239.29 199.629 272.527 185.52 289.85 187.887C327.99 191.052 347.843 230.682 364.91 271.003L364.912 271.007C373.358 290.389 376.732 312.726 373.717 329.301C372.399 336.549 369.908 342.412 366.424 346.547Z" fill="url(#paint7_linear_2192_13528)"/>
</mask>
<g mask="url(#mask7_2192_13528)">
<path d="M156.324 266.628C146.876 277.844 140.566 288.385 137.926 297.432C135.275 306.515 136.187 314.191 140.637 320.249C157.183 353.813 195.893 393.195 212.425 410.014C233.107 430.979 266.73 429.201 294.191 405.691C315.252 385.542 342.2 365.828 358.299 354.05C360.009 352.799 361.613 351.626 363.093 350.538C368.577 346.478 372.408 339.198 374.175 329.487C377.224 312.724 373.827 290.166 365.31 270.619C356.822 250.566 347.268 229.846 334.947 214.165C321.799 197.43 307.058 188.602 289.885 187.177C272.492 184.801 239.159 198.936 204.973 223.188C188.536 234.849 173.715 247.611 162.114 260.094C160.072 262.293 158.139 264.475 156.324 266.628ZM366.425 346.548C365.339 347.836 364.157 348.957 362.884 349.9C361.405 350.987 359.802 352.16 358.092 353.411C341.983 365.196 315.021 384.921 293.946 405.083C266.646 428.455 233.228 430.244 212.69 409.425C196.173 392.622 157.493 353.271 141.003 319.798L140.989 319.77L140.972 319.746C136.675 313.912 135.796 306.501 138.359 297.718C141.473 287.05 149.783 274.239 162.39 260.673C173.968 248.214 188.763 235.474 205.176 223.831C239.29 199.63 272.527 185.52 289.85 187.887C327.99 191.052 347.844 230.683 364.911 271.003L364.913 271.008C373.359 290.39 376.733 312.727 373.718 329.301C372.399 336.549 369.908 342.412 366.425 346.548Z" fill="white"/>
</g>
</g>
<defs>
<linearGradient id="paint0_linear_2192_13528" x1="260.68" y1="509.786" x2="260.68" y2="0.54286" gradientUnits="userSpaceOnUse">
<stop stop-color="white"/>
<stop offset="0.0436" stop-color="#B4B4B4"/>
<stop offset="0.1507"/>
<stop offset="0.1714" stop-color="#171717"/>
<stop offset="0.3859" stop-color="white"/>
<stop offset="0.6326" stop-color="#E6E6E6"/>
<stop offset="0.8567" stop-color="#1A1A1A"/>
<stop offset="0.9987"/>
</linearGradient>
<linearGradient id="paint1_linear_2192_13528" x1="260.032" y1="497.296" x2="260.032" y2="27.2068" gradientUnits="userSpaceOnUse">
<stop stop-color="white"/>
<stop offset="0.0436" stop-color="#B4B4B4"/>
<stop offset="0.1507"/>
<stop offset="0.1714" stop-color="#171717"/>
<stop offset="0.3859" stop-color="white"/>
<stop offset="0.6326" stop-color="#E6E6E6"/>
<stop offset="0.8567" stop-color="#1A1A1A"/>
<stop offset="0.9987"/>
</linearGradient>
<linearGradient id="paint2_linear_2192_13528" x1="259.379" y1="484.954" x2="259.379" y2="53.8623" gradientUnits="userSpaceOnUse">
<stop stop-color="white"/>
<stop offset="0.0436" stop-color="#B4B4B4"/>
<stop offset="0.1507"/>
<stop offset="0.1714" stop-color="#171717"/>
<stop offset="0.3859" stop-color="white"/>
<stop offset="0.6326" stop-color="#E6E6E6"/>
<stop offset="0.8567" stop-color="#1A1A1A"/>
<stop offset="0.9987"/>
</linearGradient>
<linearGradient id="paint3_linear_2192_13528" x1="258.715" y1="472.614" x2="258.715" y2="80.5109" gradientUnits="userSpaceOnUse">
<stop stop-color="white"/>
<stop offset="0.0436" stop-color="#B4B4B4"/>
<stop offset="0.1507"/>
<stop offset="0.1714" stop-color="#171717"/>
<stop offset="0.3859" stop-color="white"/>
<stop offset="0.6326" stop-color="#E6E6E6"/>
<stop offset="0.8567" stop-color="#1A1A1A"/>
<stop offset="0.9987"/>
</linearGradient>
<linearGradient id="paint4_linear_2192_13528" x1="258.039" y1="460.427" x2="258.039" y2="107.149" gradientUnits="userSpaceOnUse">
<stop stop-color="white"/>
<stop offset="0.0436" stop-color="#B4B4B4"/>
<stop offset="0.1507"/>
<stop offset="0.1714" stop-color="#171717"/>
<stop offset="0.3859" stop-color="white"/>
<stop offset="0.6326" stop-color="#E6E6E6"/>
<stop offset="0.8567" stop-color="#1A1A1A"/>
<stop offset="0.9987"/>
</linearGradient>
<linearGradient id="paint5_linear_2192_13528" x1="257.348" y1="448.306" x2="257.348" y2="133.77" gradientUnits="userSpaceOnUse">
<stop stop-color="white"/>
<stop offset="0.0436" stop-color="#B4B4B4"/>
<stop offset="0.1507"/>
<stop offset="0.1714" stop-color="#171717"/>
<stop offset="0.3859" stop-color="white"/>
<stop offset="0.6326" stop-color="#E6E6E6"/>
<stop offset="0.8567" stop-color="#1A1A1A"/>
<stop offset="0.9987"/>
</linearGradient>
<linearGradient id="paint6_linear_2192_13528" x1="256.627" y1="436.36" x2="256.627" y2="160.363" gradientUnits="userSpaceOnUse">
<stop stop-color="white"/>
<stop offset="0.0436" stop-color="#B4B4B4"/>
<stop offset="0.1507"/>
<stop offset="0.1714" stop-color="#171717"/>
<stop offset="0.3859" stop-color="white"/>
<stop offset="0.6326" stop-color="#E6E6E6"/>
<stop offset="0.8567" stop-color="#1A1A1A"/>
<stop offset="0.9987"/>
</linearGradient>
<linearGradient id="paint7_linear_2192_13528" x1="255.859" y1="424.609" x2="255.859" y2="186.918" gradientUnits="userSpaceOnUse">
<stop stop-color="white"/>
<stop offset="0.0436" stop-color="#B4B4B4"/>
<stop offset="0.1507"/>
<stop offset="0.1714" stop-color="#171717"/>
<stop offset="0.3859" stop-color="white"/>
<stop offset="0.6326" stop-color="#E6E6E6"/>
<stop offset="0.8567" stop-color="#1A1A1A"/>
<stop offset="0.9987"/>
</linearGradient>
</defs>
</svg>
