<svg width="309" height="270" viewBox="0 0 309 270" fill="none" xmlns="http://www.w3.org/2000/svg">
<g opacity="0.24">
<mask id="mask0_2046_12544" style="mask-type:alpha" maskUnits="userSpaceOnUse" x="0" y="-222" width="870" height="852">
<path d="M116.825 87.5872C107.144 99.0783 97.9787 110.501 89.3805 121.801C42.163 183.849 13.3037 240.005 3.60427 288.708C-6.31952 338.537 4.27303 379.354 35.0892 410.026C128.648 503.147 196.532 549.104 241.451 579.516C261.669 593.204 277.638 604.015 288.661 614.335L289.025 613.46L288.661 614.335C307 631.505 348.347 634.125 396.567 621.171C448.46 607.232 496.84 578.659 529.304 542.781C574.081 493.294 631.36 455.924 671.526 433.289C718.314 406.922 769.683 385.072 808.937 374.841C834.278 368.236 852.695 347.175 862.195 313.933C878.645 256.373 866.299 169.83 829.974 88.0775C812.757 49.3272 794.954 9.25846 776.271 -27.6303C755.615 -68.4137 736.068 -100.789 716.513 -126.605C693.162 -157.434 669.191 -179.978 643.23 -195.527C614.245 -212.889 583.434 -221.22 549.039 -220.996C490.294 -220.614 365.965 -147.594 246.696 -43.4225C197.907 -0.809672 153.644 43.8819 116.825 87.5872ZM841.562 351.684C832.61 362.311 821.567 369.455 808.702 372.808C769.368 383.061 717.907 404.948 671.044 431.357C630.796 454.038 573.393 491.493 528.49 541.119C496.189 576.817 448.017 605.255 396.325 619.14C348.426 632.007 307.45 629.495 289.388 612.584C278.287 602.191 262.281 591.355 242.016 577.635C197.137 547.251 129.315 501.335 35.849 408.306C5.59568 378.196 -4.80944 338.156 4.92038 289.299C14.5449 240.973 43.2661 185.141 90.2855 123.352C131.519 69.166 185.845 12.1125 247.387 -41.6395C366.469 -145.647 490.516 -218.553 549.046 -218.933C583.261 -219.156 613.902 -210.872 642.721 -193.611C668.533 -178.151 692.373 -155.726 715.605 -125.055C759.189 -67.5159 794.593 12.1652 828.831 89.2228C864.901 170.402 877.201 256.193 860.933 313.12C856.441 328.835 849.911 341.774 841.562 351.684Z" fill="url(#paint0_linear_2046_12544)"/>
</mask>
<g mask="url(#mask0_2046_12544)">
<path d="M116.825 87.5872C107.144 99.0783 97.9787 110.501 89.3805 121.801C42.163 183.849 13.3037 240.005 3.60427 288.708C-6.31952 338.537 4.27303 379.354 35.0892 410.026C128.648 503.147 196.532 549.104 241.451 579.516C261.669 593.204 277.638 604.015 288.661 614.335L289.025 613.46L288.661 614.335C307 631.505 348.347 634.125 396.567 621.171C448.46 607.232 496.84 578.659 529.304 542.781C574.081 493.294 631.36 455.924 671.526 433.289C718.314 406.922 769.683 385.072 808.937 374.841C834.278 368.236 852.695 347.175 862.195 313.933C878.645 256.373 866.299 169.83 829.974 88.0775C812.757 49.3272 794.954 9.25846 776.271 -27.6303C755.615 -68.4137 736.068 -100.789 716.513 -126.605C693.162 -157.434 669.191 -179.978 643.23 -195.527C614.245 -212.889 583.434 -221.22 549.039 -220.996C490.294 -220.614 365.965 -147.594 246.696 -43.4225C197.907 -0.809672 153.644 43.8819 116.825 87.5872ZM841.562 351.684C832.61 362.311 821.567 369.455 808.702 372.808C769.368 383.061 717.907 404.948 671.044 431.357C630.796 454.038 573.393 491.493 528.49 541.119C496.189 576.817 448.017 605.255 396.325 619.14C348.426 632.007 307.45 629.495 289.388 612.584C278.287 602.191 262.281 591.355 242.016 577.635C197.137 547.251 129.315 501.335 35.849 408.306C5.59568 378.196 -4.80944 338.156 4.92038 289.299C14.5449 240.973 43.2661 185.141 90.2855 123.352C131.519 69.166 185.845 12.1125 247.387 -41.6395C366.469 -145.647 490.516 -218.553 549.046 -218.933C583.261 -219.156 613.902 -210.872 642.721 -193.611C668.533 -178.151 692.373 -155.726 715.605 -125.055C759.189 -67.5159 794.593 12.1652 828.831 89.2228C864.901 170.402 877.201 256.193 860.933 313.12C856.441 328.835 849.911 341.774 841.562 351.684Z" fill="white"/>
</g>
<mask id="mask1_2046_12544" style="mask-type:alpha" maskUnits="userSpaceOnUse" x="32" y="-177" width="803" height="786">
<path d="M137.167 107.713C129.511 116.801 122.218 125.838 115.315 134.794C71.7826 191.282 45.1093 242.414 36.0382 286.771C26.8665 331.616 36.1215 368.418 63.5456 396.152C145.967 480.839 209.519 526.524 251.572 556.754C271.314 570.946 286.907 582.154 298.009 592.675C315.96 609.665 354.896 613.235 399.625 601.994C447.518 589.957 492.771 563.831 523.781 530.314C565.24 484.962 617.786 450.153 654.567 428.938C697.775 404.015 743.457 383.703 779.899 373.213C802.893 366.585 819.58 346.84 828.155 316.11C843.039 262.764 831.662 183.155 798.463 108.348L798.464 108.349C767.186 37.7251 734.844 -35.3056 693.968 -89.1317C672.438 -117.483 650.333 -138.258 626.392 -152.645C599.684 -168.694 571.316 -176.489 539.669 -176.476C485.338 -176.722 370.477 -110.584 260.351 -15.6401C213.883 24.4206 171.828 66.5689 137.167 107.713ZM808.698 352.09C800.723 361.556 790.969 368.05 779.655 371.311C743.142 381.822 697.38 402.167 654.103 427.13C617.25 448.387 564.593 483.272 523.024 528.746C492.172 562.091 447.116 588.095 399.412 600.084C354.983 611.25 316.392 607.784 298.698 591.038C287.533 580.457 271.909 569.226 252.13 555.008C210.112 524.803 146.615 479.157 64.2709 394.549C37.3698 367.344 28.2873 331.275 37.2722 287.34C46.2714 243.337 72.8131 192.506 116.16 136.26C154.25 86.8311 204.334 34.8871 260.993 -13.9598C370.943 -108.751 485.538 -174.783 539.667 -174.539C571.149 -174.551 599.359 -166.801 625.912 -150.846C649.715 -136.543 671.698 -115.88 693.116 -87.6748C733.863 -34.0175 766.157 38.9024 797.388 109.422V109.423C830.35 183.696 841.683 262.608 826.963 315.361C822.778 330.36 816.616 342.691 808.698 352.09Z" fill="url(#paint1_linear_2046_12544)"/>
</mask>
<g mask="url(#mask1_2046_12544)">
<path d="M137.167 107.713C129.511 116.801 122.218 125.838 115.315 134.794C71.7826 191.282 45.1093 242.414 36.0382 286.771C26.8665 331.616 36.1215 368.418 63.5456 396.152C145.967 480.839 209.519 526.524 251.572 556.754C271.314 570.946 286.907 582.154 298.009 592.675C315.96 609.665 354.896 613.235 399.625 601.994C447.518 589.957 492.771 563.831 523.781 530.314C565.24 484.962 617.786 450.153 654.567 428.938C697.775 404.015 743.457 383.703 779.899 373.213C802.893 366.585 819.58 346.84 828.155 316.11C843.039 262.764 831.662 183.155 798.463 108.348L798.464 108.349C767.186 37.7251 734.844 -35.3056 693.968 -89.1317C672.438 -117.483 650.333 -138.258 626.392 -152.645C599.684 -168.694 571.316 -176.489 539.669 -176.476C485.338 -176.722 370.477 -110.584 260.351 -15.6401C213.883 24.4206 171.828 66.5689 137.167 107.713ZM808.698 352.09C800.723 361.556 790.969 368.05 779.655 371.311C743.142 381.822 697.38 402.167 654.103 427.13C617.25 448.387 564.593 483.272 523.024 528.746C492.172 562.091 447.116 588.095 399.412 600.084C354.983 611.25 316.392 607.784 298.698 591.038C287.533 580.457 271.909 569.226 252.13 555.008C210.112 524.803 146.615 479.157 64.2709 394.549C37.3698 367.344 28.2873 331.275 37.2722 287.34C46.2714 243.337 72.8131 192.506 116.16 136.26C154.25 86.8311 204.334 34.8871 260.993 -13.9598C370.943 -108.751 485.538 -174.783 539.667 -174.539C571.149 -174.551 599.359 -166.801 625.912 -150.846C649.715 -136.543 671.698 -115.88 693.116 -87.6748C733.863 -34.0175 766.157 38.9024 797.388 109.422V109.423C830.35 183.696 841.683 262.608 826.963 315.361C822.778 330.36 816.616 342.691 808.698 352.09Z" fill="white"/>
</g>
<mask id="mask2_2046_12544" style="mask-type:alpha" maskUnits="userSpaceOnUse" x="65" y="-132" width="735" height="720">
<path d="M157.544 127.708C151.873 134.439 146.434 141.131 141.23 147.782C101.38 198.709 76.8936 244.819 68.4513 284.83C60.04 324.694 67.964 357.48 92.0033 382.277C163.819 459.071 220.854 502.701 262.5 534.558C281.399 549.016 296.326 560.434 307.36 571.017C325.196 588.085 360.831 592.496 402.684 582.817C446.588 572.664 488.713 548.983 518.259 517.847C587.386 443.139 695.235 389.447 750.862 371.584C771.515 364.936 786.474 346.5 794.122 318.269C807.432 269.137 797.02 196.466 766.952 128.616C739.996 67.5131 709.443 -1.74524 671.423 -51.6606C651.715 -77.5344 631.477 -96.5414 609.553 -109.766C585.124 -124.502 559.199 -131.762 530.299 -131.959C505.251 -132.394 466.909 -118.375 419.423 -91.4185C373.807 -65.5225 322.158 -28.7463 273.988 12.1372C229.852 49.5967 190.012 89.1688 157.544 127.708ZM775.828 352.545C768.838 360.842 760.375 366.669 750.608 369.812C694.883 387.708 586.831 441.505 517.559 516.37C488.166 547.344 446.226 570.913 402.5 581.025C360.928 590.64 325.605 586.326 308.008 569.489C296.926 558.86 281.975 547.422 263.048 532.943C221.436 501.111 164.447 457.516 92.6947 380.792C69.1367 356.492 61.3704 324.392 69.602 285.378C77.9747 245.696 102.337 199.867 142.012 149.163C176.962 104.501 222.803 57.6612 274.582 13.7164C322.699 -27.1232 374.29 -63.8574 419.85 -89.7213C467.197 -116.599 505.386 -130.577 530.289 -130.145C559.038 -129.947 584.817 -122.731 609.102 -108.082C630.898 -94.9354 651.023 -76.0328 670.627 -50.2948C708.526 -0.539307 739.031 68.611 765.945 129.62L765.945 129.621C795.796 196.978 806.163 269.003 793.002 317.587C789.125 331.899 783.326 343.643 775.828 352.545Z" fill="url(#paint2_linear_2046_12544)"/>
</mask>
<g mask="url(#mask2_2046_12544)">
<path d="M157.544 127.708C151.873 134.439 146.434 141.131 141.229 147.782C101.379 198.709 76.8931 244.819 68.4508 284.83C60.0395 324.694 67.9635 357.48 92.0028 382.277C163.819 459.071 220.854 502.701 262.499 534.558C281.398 549.016 296.325 560.434 307.359 571.017C325.195 588.085 360.83 592.496 402.684 582.817C446.588 572.664 488.713 548.983 518.258 517.847C587.385 443.139 695.234 389.447 750.861 371.584C771.514 364.936 786.473 346.5 794.121 318.269C807.431 269.137 797.02 196.466 766.951 128.616C739.996 67.5131 709.443 -1.74524 671.422 -51.6606C651.714 -77.5344 631.476 -96.5414 609.553 -109.766C585.123 -124.502 559.199 -131.762 530.299 -131.959C505.25 -132.394 466.909 -118.375 419.423 -91.4185C373.807 -65.5225 322.157 -28.7463 273.987 12.1372C229.852 49.5967 190.012 89.1688 157.544 127.708ZM775.827 352.545C768.838 360.842 760.374 366.669 750.608 369.812C694.882 387.708 586.831 441.505 517.559 516.37C488.166 547.344 446.226 570.913 402.499 581.025C360.928 590.64 325.604 586.326 308.008 569.489C296.926 558.86 281.975 547.422 263.047 532.943C221.436 501.111 164.447 457.516 92.6942 380.792C69.1363 356.492 61.3699 324.392 69.6015 285.378C77.9742 245.696 102.337 199.867 142.011 149.163C176.962 104.501 222.803 57.6612 274.581 13.7164C322.699 -27.1232 374.29 -63.8574 419.849 -89.7213C467.196 -116.599 505.385 -130.577 530.289 -130.145C559.038 -129.947 584.816 -122.731 609.102 -108.082C630.897 -94.9354 651.022 -76.0328 670.627 -50.2948C708.525 -0.539307 739.03 68.611 765.944 129.62L765.945 129.621C795.795 196.978 806.162 269.003 793.001 317.587C789.125 331.899 783.326 343.643 775.827 352.545Z" fill="white"/>
</g>
<mask id="mask3_2046_12544" style="mask-type:alpha" maskUnits="userSpaceOnUse" x="97" y="-88" width="669" height="656">
<path d="M177.96 147.54C174.229 151.969 170.613 156.377 167.113 160.77C130.945 206.136 108.646 247.223 100.833 282.887C93.192 317.775 99.7946 346.547 120.459 368.404C182.318 438.049 235.716 481.619 274.706 513.432C291.506 527.141 306.016 538.98 316.709 549.36C334.169 566.256 367.452 571.595 405.742 563.642C445.669 555.348 484.667 534.113 512.736 505.382C540.276 476.049 577.589 446.609 620.648 420.236C655.211 399.067 692.088 380.741 721.824 369.956C740.144 363.291 753.38 346.157 760.098 320.408C771.819 275.489 762.371 209.766 735.44 148.888C707.312 84.826 681.383 28.3353 648.878 -14.1855C630.992 -37.5831 612.62 -54.8197 592.714 -66.8817C570.564 -80.304 547.082 -87.0286 520.929 -87.4377C497.951 -88.1854 462.95 -75.9645 419.717 -52.0934C378.358 -29.2568 331.438 3.41827 287.602 39.9131C245.801 74.7133 208.192 111.654 177.96 147.54ZM742.948 353.069C736.953 360.185 729.78 365.325 721.559 368.316C691.771 379.119 654.836 397.474 620.224 418.673C577.085 445.094 539.694 474.598 512.093 503.997C484.171 532.577 445.348 553.711 405.587 561.969C367.556 569.869 334.558 564.625 317.318 547.941C306.589 537.528 292.062 525.674 275.242 511.949C236.283 480.16 182.926 436.624 121.119 367.039C100.894 345.645 94.4319 317.515 101.901 283.415C109.646 248.054 131.829 207.227 167.832 162.066C199.647 122.167 241.247 80.4347 288.146 41.3896C331.933 4.93506 378.797 -27.7017 420.104 -50.5088C463.206 -74.3074 498.064 -86.4935 520.91 -85.7494C546.927 -85.3421 570.273 -78.6586 592.292 -65.3166C612.081 -53.3253 630.348 -36.1842 648.138 -12.9126C680.537 29.468 706.419 85.8596 734.502 149.82L734.503 149.822C761.234 210.248 770.64 275.377 759.051 319.792C755.485 333.458 750.043 344.647 742.948 353.069Z" fill="url(#paint3_linear_2046_12544)"/>
</mask>
<g mask="url(#mask3_2046_12544)">
<path d="M177.959 147.54C174.228 151.969 170.612 156.377 167.112 160.77C130.944 206.136 108.645 247.223 100.832 282.887C93.191 317.775 99.7936 346.547 120.458 368.404C182.317 438.049 235.715 481.619 274.705 513.432C291.505 527.141 306.015 538.98 316.709 549.36C334.168 566.256 367.451 571.595 405.741 563.642C445.668 555.348 484.666 534.113 512.735 505.382C540.275 476.049 577.588 446.609 620.647 420.236C655.21 399.067 692.087 380.741 721.823 369.956C740.143 363.291 753.379 346.157 760.097 320.408C771.818 275.489 762.37 209.766 735.439 148.888C707.311 84.826 681.382 28.3353 648.877 -14.1855C630.991 -37.5831 612.619 -54.8197 592.713 -66.8817C570.563 -80.304 547.081 -87.0286 520.928 -87.4377C497.95 -88.1854 462.949 -75.9645 419.716 -52.0934C378.357 -29.2568 331.437 3.41827 287.601 39.9131C245.8 74.7133 208.191 111.654 177.959 147.54ZM742.947 353.069C736.952 360.185 729.779 365.325 721.558 368.316C691.77 379.119 654.835 397.474 620.223 418.673C577.084 445.094 539.693 474.598 512.092 503.997C484.17 532.577 445.347 553.711 405.586 561.969C367.555 569.869 334.557 564.625 317.317 547.941C306.588 537.528 292.061 525.674 275.241 511.949C236.282 480.16 182.925 436.624 121.119 367.039C100.893 345.645 94.431 317.515 101.9 283.415C109.645 248.054 131.828 207.227 167.832 162.066C199.646 122.167 241.246 80.4347 288.145 41.3896C331.932 4.93506 378.796 -27.7017 420.104 -50.5088C463.205 -74.3074 498.063 -86.4935 520.909 -85.7494C546.926 -85.3421 570.272 -78.6586 592.292 -65.3166C612.08 -53.3253 630.347 -36.1842 648.138 -12.9126C680.536 29.468 706.418 85.8596 734.501 149.82L734.502 149.822C761.233 210.248 770.639 275.377 759.05 319.792C755.484 333.458 750.042 344.647 742.947 353.069Z" fill="white"/>
</g>
<mask id="mask4_2046_12544" style="mask-type:alpha" maskUnits="userSpaceOnUse" x="130" y="-43" width="601" height="590">
<path d="M198.422 167.149C196.565 169.353 194.742 171.551 192.952 173.745C160.465 213.551 140.352 249.613 133.17 280.93C126.309 310.849 131.605 335.612 148.909 354.528C201.561 418.061 252.064 462.098 288.94 494.253C303.563 507.004 316.192 518.015 326.054 527.704C343.406 544.687 373.563 550.796 408.794 544.466C444.763 538.003 480.634 519.214 507.208 492.916C558.863 438.869 639.613 390.449 692.784 368.327C708.782 361.643 720.297 345.799 726.084 322.508C736.199 281.803 727.708 223.041 703.924 169.158L703.925 169.162C680.035 114.43 656.123 62.0882 626.328 23.2879C610.264 2.36914 593.759 -13.0988 575.871 -23.9995C555.999 -36.1078 534.96 -42.2964 511.554 -42.9172C490.639 -43.9794 458.975 -33.5575 419.991 -12.7772C382.881 7.00439 340.687 35.5775 301.182 67.6774C261.725 99.738 226.36 133.986 198.422 167.149ZM710.053 353.688C705.064 359.61 699.184 364.031 692.505 366.821C639.252 388.977 558.367 437.482 506.624 491.623C480.191 517.78 444.484 536.479 408.67 542.914C373.679 549.201 343.773 543.18 326.624 526.394C316.738 516.685 304.099 505.664 289.463 492.902C252.616 460.771 202.152 416.769 149.542 353.287C132.63 334.799 127.459 310.633 134.154 281.438C141.272 250.401 161.275 214.575 193.609 174.955C222.291 139.831 259.655 103.197 301.677 69.0522C341.136 36.9889 383.278 8.45148 420.339 -11.3042C459.201 -32.0193 490.733 -42.4108 511.527 -41.3558C534.811 -40.7377 555.727 -34.5875 575.479 -22.5524C593.259 -11.7178 609.669 3.6626 625.645 24.4679C655.339 63.1369 679.205 115.381 703.054 170.017L703.055 170.021C726.658 223.495 735.107 281.715 725.107 321.962C721.858 335.041 716.763 345.723 710.053 353.688Z" fill="url(#paint4_linear_2046_12544)"/>
</mask>
<g mask="url(#mask4_2046_12544)">
<path d="M198.422 167.149C196.565 169.353 194.742 171.551 192.952 173.745C160.466 213.551 140.352 249.613 133.171 280.93C126.31 310.849 131.605 335.612 148.91 354.528C201.561 418.061 252.064 462.098 288.941 494.253C303.564 507.004 316.192 518.015 326.055 527.704C343.406 544.687 373.564 550.796 408.795 544.466C444.764 538.003 480.635 519.214 507.208 492.916C558.863 438.869 639.613 390.449 692.784 368.327C708.783 361.643 720.298 345.799 726.084 322.508C736.199 281.803 727.708 223.041 703.925 169.158L703.926 169.162C680.035 114.43 656.123 62.0882 626.328 23.2879C610.264 2.36914 593.76 -13.0988 575.871 -23.9995C555.999 -36.1078 534.961 -42.2964 511.555 -42.9172C490.64 -43.9794 458.975 -33.5575 419.992 -12.7772C382.882 7.00439 340.688 35.5775 301.182 67.6774C261.726 99.738 226.36 133.986 198.422 167.149ZM710.053 353.688C705.065 359.61 699.184 364.031 692.505 366.821C639.252 388.977 558.368 437.482 506.624 491.623C480.191 517.78 444.485 536.479 408.671 542.914C373.679 549.201 343.774 543.18 326.624 526.394C316.739 516.685 304.1 505.664 289.464 492.902C252.617 460.771 202.152 416.769 149.542 353.287C132.63 334.799 127.46 310.633 134.155 281.438C141.273 250.401 161.276 214.575 193.61 174.955C222.291 139.831 259.655 103.197 301.677 69.0522C341.137 36.9889 383.279 8.45148 420.34 -11.3042C459.201 -32.0193 490.734 -42.4108 511.527 -41.3558C534.812 -40.7377 555.728 -34.5875 575.479 -22.5524C593.26 -11.7178 609.669 3.6626 625.645 24.4679C655.34 63.1369 679.205 115.381 703.054 170.017L703.055 170.021C726.658 223.495 735.108 281.715 725.107 321.962C721.859 335.041 716.763 345.723 710.053 353.688Z" fill="white"/>
</g>
<mask id="mask5_2046_12544" style="mask-type:alpha" maskUnits="userSpaceOnUse" x="162" y="1" width="534" height="526">
<path d="M218.951 186.452C218.882 186.534 218.815 186.614 218.746 186.696C189.937 220.94 172.008 251.978 165.455 278.946C159.388 303.912 163.396 324.672 177.365 340.65C221.546 399.478 270.571 445.143 306.366 478.486C317.575 488.926 327.256 497.944 335.406 506.044C352.406 522.876 380.27 529.889 411.853 525.287C443.889 520.619 476.632 504.275 501.687 480.447C524.186 457.426 552.794 434.243 586.729 411.53C612.257 394.444 640.33 378.102 663.752 366.693C677.443 359.987 687.244 345.415 692.094 324.549C700.577 288.061 693.036 236.284 672.415 189.426C652.54 143.554 630.868 95.8286 603.785 60.7586C589.544 42.3178 574.906 28.6194 559.034 18.8801C541.441 8.08484 522.847 2.43304 502.186 1.60052C464.813 -1.12933 389.476 36.5749 314.731 95.423C277.631 124.632 244.517 156.104 218.951 186.452ZM677.148 354.446C673.184 359.152 668.601 362.806 663.456 365.327C640.004 376.75 611.897 393.113 586.339 410.218C552.352 432.966 523.693 456.19 501.161 479.247C476.243 502.945 443.652 519.21 411.76 523.857C380.392 528.428 352.754 521.499 335.934 504.844C327.773 496.733 318.086 487.711 306.871 477.264C271.104 443.948 222.121 398.321 177.973 339.539C164.348 323.954 160.448 303.745 166.355 279.439C172.846 252.724 190.673 221.9 219.34 187.823C219.407 187.744 219.477 187.66 219.545 187.581C245.065 157.285 278.125 125.867 315.175 96.6969C389.782 37.9577 464.922 0.318665 502.15 3.0387C522.703 3.86676 541.187 9.48456 558.671 20.2128C574.445 29.8915 588.997 43.5112 603.159 61.8493C630.147 96.796 651.775 144.426 671.613 190.216L671.615 190.22C692.075 236.712 699.576 288.003 691.189 324.077C688.266 336.657 683.503 346.902 677.148 354.446Z" fill="url(#paint5_linear_2046_12544)"/>
</mask>
<g mask="url(#mask5_2046_12544)">
<path d="M218.951 186.452C218.882 186.534 218.815 186.614 218.746 186.696C189.937 220.94 172.008 251.978 165.454 278.946C159.388 303.912 163.395 324.672 177.365 340.65C221.546 399.478 270.57 445.143 306.366 478.486C317.575 488.926 327.256 497.944 335.406 506.044C352.406 522.876 380.27 529.889 411.852 525.287C443.889 520.619 476.632 504.275 501.686 480.447C524.185 457.426 552.793 434.243 586.728 411.53C612.256 394.444 640.329 378.102 663.751 366.693C677.443 359.987 687.244 345.415 692.094 324.549C700.577 288.061 693.036 236.284 672.414 189.426C652.54 143.554 630.867 95.8286 603.784 60.7586C589.543 42.3178 574.905 28.6194 559.033 18.8801C541.441 8.08484 522.846 2.43304 502.186 1.60052C464.812 -1.12933 389.476 36.5749 314.73 95.423C277.631 124.632 244.517 156.104 218.951 186.452ZM677.147 354.446C673.183 359.152 668.6 362.806 663.455 365.327C640.004 376.75 611.896 393.113 586.339 410.218C552.351 432.966 523.693 456.19 501.16 479.247C476.242 502.945 443.652 519.21 411.76 523.857C380.392 528.428 352.754 521.499 335.934 504.844C327.772 496.733 318.086 487.711 306.87 477.264C271.104 443.948 222.12 398.321 177.972 339.539C164.348 323.954 160.448 303.745 166.354 279.439C172.845 252.724 190.672 221.9 219.339 187.823C219.407 187.744 219.477 187.66 219.544 187.581C245.065 157.285 278.124 125.867 315.175 96.6969C389.782 37.9577 464.921 0.318665 502.15 3.0387C522.702 3.86676 541.187 9.48456 558.671 20.2128C574.445 29.8915 588.997 43.5112 603.158 61.8493C630.146 96.796 651.774 144.426 671.613 190.216L671.614 190.22C692.074 236.712 699.575 288.003 691.189 324.077C688.266 336.657 683.503 346.902 677.147 354.446Z" fill="white"/>
</g>
<mask id="mask6_2046_12544" style="mask-type:alpha" maskUnits="userSpaceOnUse" x="195" y="45" width="466" height="462">
<path d="M239.443 205.446C217.223 231.82 203.176 255.834 197.65 276.907C192.397 296.938 195.137 313.704 205.797 326.744C241.95 382.764 292.11 432.305 328.736 468.477C334.483 474.153 339.912 479.515 344.757 484.387C361.675 501.334 386.589 509.049 414.909 506.11C443.464 503.146 472.321 489.605 496.164 467.98C512.149 452.088 557.617 410.277 634.72 365.059C646.127 358.324 654.222 344.991 658.128 326.496C664.942 294.239 658.342 249.485 640.905 209.701C624.812 172.192 605.602 129.548 581.238 98.231C555.492 65.1342 526.569 48.0888 492.817 46.1191C476.004 44.4236 450.988 51.2331 420.484 65.8131C391.431 79.7 359.528 99.5209 328.227 123.134C295.904 147.518 266.94 173.958 244.467 199.6C242.749 201.56 241.073 203.51 239.443 205.446ZM644.216 355.421C641.305 358.876 638.023 361.697 634.4 363.837C622.066 371.07 597.217 386.166 569.396 405.992C540.19 426.803 515.394 447.286 495.695 466.872C471.984 488.377 443.267 501.852 414.848 504.801C386.72 507.72 362 500.083 345.242 483.296C340.395 478.422 334.965 473.06 329.216 467.381C292.618 431.236 242.494 381.733 206.407 325.803L206.369 325.75C196.023 313.11 193.363 296.838 198.463 277.387C204.252 255.312 220.342 228.776 244.997 200.645C267.427 175.052 296.343 148.655 328.62 124.307C359.881 100.725 391.739 80.9318 420.75 67.0646C451.149 52.5346 476.054 45.7448 492.77 47.4313C526.33 49.3894 555.078 66.3321 580.67 99.2288C604.943 130.431 624.11 172.98 640.17 210.414L640.172 210.419C657.47 249.883 664.031 294.21 657.294 326.1C654.712 338.322 650.265 348.241 644.216 355.421Z" fill="url(#paint6_linear_2046_12544)"/>
</mask>
<g mask="url(#mask6_2046_12544)">
<path d="M239.442 205.446C217.223 231.82 203.175 255.834 197.649 276.907C192.396 296.938 195.137 313.704 205.797 326.744C241.949 382.764 292.109 432.305 328.735 468.477C334.482 474.153 339.911 479.515 344.756 484.387C361.675 501.334 386.589 509.049 414.909 506.11C443.464 503.146 472.321 489.605 496.163 467.98C512.148 452.088 557.616 410.277 634.719 365.059C646.127 358.324 654.221 344.991 658.127 326.496C664.941 294.239 658.341 249.485 640.904 209.701C624.811 172.192 605.601 129.548 581.238 98.231C555.491 65.1342 526.568 48.0888 492.816 46.1191C476.004 44.4236 450.988 51.2331 420.484 65.8131C391.43 79.7 359.527 99.5209 328.226 123.134C295.903 147.518 266.939 173.958 244.467 199.6C242.748 201.56 241.073 203.51 239.442 205.446ZM644.216 355.421C641.305 358.876 638.023 361.697 634.399 363.837C622.065 371.07 597.217 386.166 569.395 405.992C540.19 426.803 515.393 447.286 495.694 466.872C471.983 488.377 443.266 501.852 414.848 504.801C386.72 507.72 362 500.083 345.242 483.296C340.394 478.422 334.964 473.06 329.215 467.381C292.617 431.236 242.494 381.733 206.406 325.803L206.368 325.75C196.022 313.11 193.363 296.838 198.463 277.387C204.252 255.312 220.342 228.776 244.996 200.645C267.426 175.052 296.343 148.655 328.619 124.307C359.88 100.725 391.738 80.9318 420.749 67.0646C451.149 52.5346 476.054 45.7448 492.77 47.4313C526.33 49.3894 555.078 66.3321 580.669 99.2288C604.943 130.431 624.11 172.98 640.17 210.414L640.172 210.419C657.469 249.883 664.03 294.21 657.294 326.1C654.712 338.322 650.265 348.241 644.216 355.421Z" fill="white"/>
</g>
<mask id="mask7_2046_12544" style="mask-type:alpha" maskUnits="userSpaceOnUse" x="227" y="90" width="400" height="398">
<path d="M260.427 223.305C244.65 242.033 234.114 259.634 229.705 274.741C225.279 289.907 226.802 302.724 234.232 312.84C261.861 368.884 326.498 434.644 354.103 462.729C388.638 497.736 444.782 494.767 490.636 455.51C525.803 421.865 570.799 388.948 597.683 369.281C600.537 367.192 603.215 365.233 605.687 363.416C614.844 356.637 621.242 344.481 624.191 328.266C629.283 300.274 623.61 262.607 609.389 229.969C595.215 196.484 579.262 161.887 558.689 135.702C536.734 107.759 512.121 93.018 483.445 90.6383C454.402 86.6704 398.743 110.273 341.66 150.768C314.214 170.24 289.466 191.55 270.095 212.395C266.684 216.066 263.458 219.709 260.427 223.305ZM611.25 356.753C609.437 358.905 607.464 360.777 605.338 362.351C602.868 364.167 600.191 366.125 597.336 368.213C570.438 387.892 525.417 420.828 490.227 454.495C444.641 493.521 388.84 496.509 354.547 461.745C326.967 433.688 262.379 367.979 234.844 312.087L234.82 312.039L234.791 311.999C227.617 302.258 226.149 289.884 230.429 275.219C235.628 257.405 249.505 236.013 270.556 213.361C289.889 192.558 314.593 171.284 341.998 151.843C398.963 111.431 454.461 87.8718 483.387 91.8237C547.072 97.1092 580.224 163.283 608.723 230.61L608.726 230.617C622.829 262.982 628.462 300.279 623.428 327.955C621.226 340.058 617.067 349.848 611.25 356.753Z" fill="url(#paint7_linear_2046_12544)"/>
</mask>
<g mask="url(#mask7_2046_12544)">
<path d="M260.427 223.305C244.651 242.033 234.115 259.634 229.706 274.741C225.28 289.907 226.803 302.724 234.232 312.84C261.861 368.884 326.498 434.644 354.104 462.729C388.638 497.736 444.782 494.767 490.636 455.51C525.804 421.865 570.8 388.948 597.683 369.281C600.538 367.192 603.216 365.233 605.687 363.416C614.844 356.637 621.242 344.481 624.192 328.266C629.283 300.274 623.611 262.607 609.389 229.969C595.216 196.484 579.262 161.887 558.689 135.702C536.734 107.759 512.122 93.018 483.445 90.6383C454.403 86.6704 398.744 110.273 341.661 150.768C314.214 170.24 289.467 191.55 270.096 212.395C266.685 216.066 263.458 219.709 260.427 223.305ZM611.251 356.753C609.438 358.905 607.465 360.777 605.339 362.351C602.868 364.167 600.192 366.125 597.337 368.213C570.438 387.892 525.417 420.828 490.227 454.495C444.642 493.521 388.841 496.509 354.547 461.745C326.967 433.688 262.379 367.979 234.845 312.087L234.821 312.039L234.792 311.999C227.617 302.258 226.15 289.884 230.43 275.219C235.629 257.405 249.505 236.013 270.556 213.361C289.889 192.558 314.594 171.284 341.999 151.843C398.963 111.431 454.461 87.8718 483.387 91.8237C547.073 97.1092 580.224 163.283 608.723 230.61L608.726 230.617C622.829 262.982 628.463 300.279 623.429 327.955C621.227 340.058 617.067 349.848 611.251 356.753Z" fill="white"/>
</g>
<mask id="mask8_2046_12544" style="mask-type:alpha" maskUnits="userSpaceOnUse" x="259" y="134" width="333" height="334">
<path d="M281.365 240.212C271.72 251.66 264.896 262.563 261.549 272.26C257.944 282.704 258.317 291.669 262.655 298.907C267.386 317.467 281.323 342.153 304.081 372.283C320.66 394.232 342.3 419.306 363.453 441.075C397.43 475.934 442.91 476.671 485.112 443.045C499.327 430.163 514.329 417.146 528.838 404.558C547.601 388.278 565.324 372.901 576.663 361.768C586.182 352.349 591.392 335.221 591.337 313.552C591.285 293.013 586.38 269.94 577.877 250.246C558.92 204.571 545.615 185.067 536.142 173.179C517.99 150.4 497.688 137.964 474.076 135.163C449.059 130.554 403.451 147.054 355.065 178.225C324.156 198.136 298.377 220.02 281.365 240.212ZM578.251 358.734C577.615 359.49 576.957 360.203 576.275 360.88C564.953 371.996 547.239 387.365 528.484 403.637C513.973 416.228 498.968 429.247 484.763 442.12C442.814 475.543 397.609 474.83 363.854 440.198C342.724 418.453 321.109 393.408 304.55 371.486C281.841 341.421 267.96 316.844 263.294 298.435L263.27 298.341L263.225 298.267C259.064 291.379 258.711 282.793 262.178 272.749C271.356 246.156 307.055 210.311 355.344 179.201C403.622 148.099 449.09 131.628 474.005 136.218C497.481 139.003 517.653 151.359 535.689 173.993C553.646 196.528 567.348 226.882 577.279 250.809L577.282 250.817C585.714 270.345 590.579 293.212 590.63 313.556C590.679 333.294 586.303 349.176 578.251 358.734Z" fill="url(#paint8_linear_2046_12544)"/>
</mask>
<g mask="url(#mask8_2046_12544)">
<path d="M281.365 240.212C271.721 251.66 264.896 262.563 261.549 272.26C257.945 282.704 258.317 291.669 262.656 298.907C267.386 317.467 281.323 342.153 304.082 372.283C320.661 394.232 342.301 419.306 363.454 441.075C397.431 475.934 442.91 476.671 485.112 443.045C499.327 430.163 514.329 417.146 528.838 404.558C547.602 388.278 565.324 372.901 576.664 361.768C586.183 352.349 591.392 335.221 591.337 313.552C591.286 293.013 586.38 269.94 577.878 250.246C558.92 204.571 545.616 185.067 536.143 173.179C517.99 150.4 497.689 137.964 474.077 135.163C449.06 130.554 403.451 147.054 355.066 178.225C324.157 198.136 298.377 220.02 281.365 240.212ZM578.252 358.734C577.616 359.49 576.957 360.203 576.276 360.88C564.954 371.996 547.239 387.365 528.485 403.637C513.973 416.228 498.968 429.247 484.764 442.12C442.815 475.543 397.609 474.83 363.854 440.198C342.725 418.453 321.109 393.408 304.551 371.486C281.841 341.421 267.961 316.844 263.294 298.435L263.271 298.341L263.226 298.267C259.064 291.379 258.711 282.793 262.178 272.749C271.356 246.156 307.056 210.311 355.345 179.201C403.623 148.099 449.091 131.628 474.006 136.218C497.482 139.003 517.654 151.359 535.689 173.993C553.646 196.528 567.348 226.882 577.279 250.809L577.283 250.817C585.714 270.345 590.579 293.212 590.63 313.556C590.679 333.294 586.304 349.176 578.252 358.734Z" fill="white"/>
</g>
<mask id="mask9_2046_12544" style="mask-type:alpha" maskUnits="userSpaceOnUse" x="290" y="178" width="267" height="271">
<path d="M302.275 255.193C298.287 259.928 295.206 264.468 293.184 268.69C290.226 274.864 289.515 280.304 291.07 284.863C288.247 301.79 303.659 329.59 317.112 349.965C332.281 372.94 353.101 398.903 372.807 419.417C389.779 437.045 406.547 446.581 424.068 448.572C441.962 450.604 460.123 444.716 479.59 430.573C507.906 406.933 534.615 379.273 547.646 360.092C553.966 350.702 557.163 335.954 556.65 318.561C556.171 302.29 552.423 284.777 546.367 270.514C530.946 232.173 507.728 187.201 464.711 179.679C443.882 174.454 408.035 183.953 368.837 205.092C340.193 220.541 315.929 238.988 302.275 255.193ZM535.305 374.908C520.991 391.899 500.602 411.961 479.303 429.742C459.954 443.8 441.897 449.657 424.116 447.637C406.708 445.659 390.041 436.176 373.163 418.647C336.331 380.304 286.708 313.466 291.705 284.924L291.736 284.746L291.678 284.585C290.171 280.335 290.848 275.171 293.691 269.237C302.569 250.707 332.148 225.876 369.049 205.977C408.152 184.888 443.881 175.405 464.625 180.609C507.39 188.087 530.488 232.846 545.835 271.004L545.84 271.014C551.839 285.144 555.553 302.49 556.028 318.603C556.532 335.728 553.4 350.225 547.209 359.425C544.009 364.134 539.981 369.358 535.305 374.908Z" fill="url(#paint9_linear_2046_12544)"/>
</mask>
<g mask="url(#mask9_2046_12544)">
<path d="M302.275 255.193C298.287 259.928 295.206 264.468 293.184 268.69C290.226 274.864 289.515 280.304 291.07 284.863C288.247 301.79 303.659 329.59 317.112 349.965C332.281 372.94 353.101 398.903 372.807 419.417C389.779 437.045 406.547 446.581 424.068 448.572C441.962 450.604 460.123 444.716 479.59 430.573C507.906 406.933 534.615 379.273 547.646 360.092C553.966 350.702 557.163 335.954 556.65 318.561C556.171 302.29 552.423 284.777 546.367 270.514C530.946 232.173 507.728 187.201 464.711 179.679C443.882 174.454 408.035 183.953 368.837 205.092C340.193 220.541 315.929 238.988 302.275 255.193ZM535.305 374.908C520.991 391.899 500.602 411.961 479.303 429.742C459.954 443.8 441.897 449.657 424.116 447.637C406.708 445.659 390.041 436.176 373.163 418.647C336.331 380.304 286.708 313.466 291.705 284.924L291.736 284.746L291.678 284.585C290.171 280.335 290.848 275.171 293.691 269.237C302.569 250.707 332.148 225.876 369.049 205.977C408.152 184.888 443.881 175.405 464.625 180.609C507.39 188.087 530.488 232.846 545.835 271.004L545.84 271.014C551.839 285.144 555.553 302.49 556.028 318.603C556.532 335.728 553.4 350.225 547.209 359.425C544.009 364.134 539.981 369.358 535.305 374.908Z" fill="white"/>
</g>
</g>
<defs>
<linearGradient id="paint0_linear_2046_12544" x1="434.68" y1="629.327" x2="434.68" y2="-221" gradientUnits="userSpaceOnUse">
<stop stop-color="white"/>
<stop offset="0.0436" stop-color="#B4B4B4"/>
<stop offset="0.1507"/>
<stop offset="0.1714" stop-color="#171717"/>
<stop offset="0.3859" stop-color="white"/>
<stop offset="0.6326" stop-color="#E6E6E6"/>
<stop offset="0.8567" stop-color="#1A1A1A"/>
<stop offset="0.9987"/>
</linearGradient>
<linearGradient id="paint1_linear_2046_12544" x1="433.598" y1="608.472" x2="433.598" y2="-176.477" gradientUnits="userSpaceOnUse">
<stop stop-color="white"/>
<stop offset="0.0436" stop-color="#B4B4B4"/>
<stop offset="0.1507"/>
<stop offset="0.1714" stop-color="#171717"/>
<stop offset="0.3859" stop-color="white"/>
<stop offset="0.6326" stop-color="#E6E6E6"/>
<stop offset="0.8567" stop-color="#1A1A1A"/>
<stop offset="0.9987"/>
</linearGradient>
<linearGradient id="paint2_linear_2046_12544" x1="432.507" y1="587.864" x2="432.507" y2="-131.968" gradientUnits="userSpaceOnUse">
<stop stop-color="white"/>
<stop offset="0.0436" stop-color="#B4B4B4"/>
<stop offset="0.1507"/>
<stop offset="0.1714" stop-color="#171717"/>
<stop offset="0.3859" stop-color="white"/>
<stop offset="0.6326" stop-color="#E6E6E6"/>
<stop offset="0.8567" stop-color="#1A1A1A"/>
<stop offset="0.9987"/>
</linearGradient>
<linearGradient id="paint3_linear_2046_12544" x1="431.401" y1="567.258" x2="431.401" y2="-87.4706" gradientUnits="userSpaceOnUse">
<stop stop-color="white"/>
<stop offset="0.0436" stop-color="#B4B4B4"/>
<stop offset="0.1507"/>
<stop offset="0.1714" stop-color="#171717"/>
<stop offset="0.3859" stop-color="white"/>
<stop offset="0.6326" stop-color="#E6E6E6"/>
<stop offset="0.8567" stop-color="#1A1A1A"/>
<stop offset="0.9987"/>
</linearGradient>
<linearGradient id="paint4_linear_2046_12544" x1="430.269" y1="546.908" x2="430.269" y2="-42.9911" gradientUnits="userSpaceOnUse">
<stop stop-color="white"/>
<stop offset="0.0436" stop-color="#B4B4B4"/>
<stop offset="0.1507"/>
<stop offset="0.1714" stop-color="#171717"/>
<stop offset="0.3859" stop-color="white"/>
<stop offset="0.6326" stop-color="#E6E6E6"/>
<stop offset="0.8567" stop-color="#1A1A1A"/>
<stop offset="0.9987"/>
</linearGradient>
<linearGradient id="paint5_linear_2046_12544" x1="429.116" y1="526.669" x2="429.116" y2="1.46177" gradientUnits="userSpaceOnUse">
<stop stop-color="white"/>
<stop offset="0.0436" stop-color="#B4B4B4"/>
<stop offset="0.1507"/>
<stop offset="0.1714" stop-color="#171717"/>
<stop offset="0.3859" stop-color="white"/>
<stop offset="0.6326" stop-color="#E6E6E6"/>
<stop offset="0.8567" stop-color="#1A1A1A"/>
<stop offset="0.9987"/>
</linearGradient>
<linearGradient id="paint6_linear_2046_12544" x1="427.912" y1="506.722" x2="427.912" y2="45.8653" gradientUnits="userSpaceOnUse">
<stop stop-color="white"/>
<stop offset="0.0436" stop-color="#B4B4B4"/>
<stop offset="0.1507"/>
<stop offset="0.1714" stop-color="#171717"/>
<stop offset="0.3859" stop-color="white"/>
<stop offset="0.6326" stop-color="#E6E6E6"/>
<stop offset="0.8567" stop-color="#1A1A1A"/>
<stop offset="0.9987"/>
</linearGradient>
<linearGradient id="paint7_linear_2046_12544" x1="426.63" y1="487.1" x2="426.63" y2="90.2066" gradientUnits="userSpaceOnUse">
<stop stop-color="white"/>
<stop offset="0.0436" stop-color="#B4B4B4"/>
<stop offset="0.1507"/>
<stop offset="0.1714" stop-color="#171717"/>
<stop offset="0.3859" stop-color="white"/>
<stop offset="0.6326" stop-color="#E6E6E6"/>
<stop offset="0.8567" stop-color="#1A1A1A"/>
<stop offset="0.9987"/>
</linearGradient>
<linearGradient id="paint8_linear_2046_12544" x1="425.218" y1="467.751" x2="425.218" y2="134.398" gradientUnits="userSpaceOnUse">
<stop stop-color="white"/>
<stop offset="0.0436" stop-color="#B4B4B4"/>
<stop offset="0.1507"/>
<stop offset="0.1714" stop-color="#171717"/>
<stop offset="0.3859" stop-color="white"/>
<stop offset="0.6326" stop-color="#E6E6E6"/>
<stop offset="0.8567" stop-color="#1A1A1A"/>
<stop offset="0.9987"/>
</linearGradient>
<linearGradient id="paint9_linear_2046_12544" x1="423.487" y1="448.963" x2="423.487" y2="178.272" gradientUnits="userSpaceOnUse">
<stop stop-color="white"/>
<stop offset="0.0436" stop-color="#B4B4B4"/>
<stop offset="0.1507"/>
<stop offset="0.1714" stop-color="#171717"/>
<stop offset="0.3859" stop-color="white"/>
<stop offset="0.6326" stop-color="#E6E6E6"/>
<stop offset="0.8567" stop-color="#1A1A1A"/>
<stop offset="0.9987"/>
</linearGradient>
</defs>
</svg>
