<svg width="945" height="2724" viewBox="0 0 945 2724" fill="none" xmlns="http://www.w3.org/2000/svg">
<mask id="mask0_2010_15234" style="mask-type:alpha" maskUnits="userSpaceOnUse" x="240" y="342" width="1134" height="1859">
<path d="M945.664 2152.52C965.287 2160.77 984.441 2168.01 1003.03 2174.18C1105.11 2208.1 1186.86 2209.64 1246 2178.75C1306.51 2147.14 1341.72 2081.9 1350.65 1984.83C1377.77 1690.12 1374.51 1499.03 1372.35 1372.59C1371.38 1315.68 1370.61 1270.73 1373.11 1236.69L1371.9 1236.85L1373.11 1236.69C1377.28 1180.07 1348.35 1090.4 1297.63 1002.68C1243.04 908.274 1175.6 836.663 1112.62 806.199C1025.75 764.183 942.151 683.13 887.32 622.533C823.45 551.946 760.863 466.974 719.9 395.234C693.456 348.921 656.975 332.384 614.399 347.417C540.677 373.445 458.267 490.519 399.33 652.953C371.394 729.944 342.507 809.556 317.671 887.669C290.213 974.029 270.831 1049.21 258.419 1117.49C243.596 1199.04 238.043 1273.16 241.443 1344.1C245.238 1423.31 260.019 1496.85 286.631 1568.91C332.084 1691.99 504.942 1876.45 706.992 2017.47C789.643 2075.16 871.032 2121.14 945.664 2152.52ZM670.299 351.038C688.445 358.667 704.498 374.357 717.923 397.868C758.969 469.754 821.666 554.88 885.64 625.581C940.582 686.301 1024.36 767.526 1111.48 809.661C1174.15 839.971 1241.28 911.286 1295.66 1005.32C1346.05 1092.46 1374.8 1181.24 1370.7 1237.01C1368.18 1271.29 1368.95 1316.34 1369.92 1373.39C1372.08 1499.71 1375.34 1690.62 1348.25 1985.04C1339.48 2080.34 1304.95 2144.37 1245.62 2175.36C1186.93 2206.01 1105.64 2204.43 1003.98 2170.65C914.84 2141.03 812.612 2086.91 708.355 2014.14C506.622 1873.34 334.101 1689.36 288.816 1566.73C262.343 1495.04 247.641 1421.91 243.868 1343.16C240.488 1272.62 246.013 1198.9 260.76 1117.77C288.425 965.571 345.869 807.253 401.422 654.149C459.947 492.856 541.593 376.668 614.504 350.926C634.632 343.821 653.376 343.923 670.299 351.038Z" fill="url(#paint0_linear_2010_15234)"/>
</mask>
<g mask="url(#mask0_2010_15234)">
<path d="M945.671 2152.52C965.294 2160.77 984.448 2168.01 1003.04 2174.19C1105.12 2208.11 1186.86 2209.65 1246.01 2178.76C1306.52 2147.16 1341.73 2081.91 1350.66 1984.84C1377.77 1690.13 1374.51 1499.05 1372.35 1372.61C1371.37 1315.7 1370.61 1270.75 1373.11 1236.71L1371.9 1236.87L1373.11 1236.71C1377.27 1180.08 1348.35 1090.41 1297.62 1002.69C1243.03 908.284 1175.6 836.67 1112.61 806.205C1025.74 764.187 942.143 683.131 887.312 622.533C823.442 551.944 760.855 466.97 719.891 395.229C693.447 348.915 656.966 332.377 614.39 347.408C540.669 373.435 458.261 490.507 399.325 652.939C371.39 729.93 342.504 809.542 317.669 887.655C290.212 974.014 270.831 1049.19 258.42 1117.48C243.597 1199.02 238.045 1273.15 241.446 1344.09C245.242 1423.3 260.023 1496.83 286.636 1568.9C332.09 1691.98 504.949 1876.44 706.999 2017.47C789.651 2075.16 871.039 2121.15 945.671 2152.52ZM670.29 351.031C688.436 358.66 704.489 374.351 717.914 397.863C758.96 469.75 821.658 554.878 885.632 625.58C940.574 686.302 1024.35 767.529 1111.47 809.667C1174.14 839.979 1241.27 911.296 1295.65 1005.33C1346.04 1092.47 1374.79 1181.25 1370.69 1237.02C1368.17 1271.3 1368.94 1316.36 1369.92 1373.4C1372.07 1499.73 1375.34 1690.64 1348.25 1985.06C1339.48 2080.35 1304.95 2144.38 1245.62 2175.37C1186.94 2206.02 1105.64 2204.43 1003.99 2170.65C914.847 2141.03 812.619 2086.91 708.362 2014.14C506.629 1873.33 334.107 1689.34 288.821 1566.71C262.348 1495.02 247.645 1421.89 243.871 1343.14C240.49 1272.61 246.015 1198.88 260.761 1117.75C288.424 965.556 345.866 807.239 401.418 654.136C459.94 492.844 541.585 376.658 614.495 350.918C634.623 343.813 653.367 343.916 670.29 351.031Z" fill="url(#paint1_linear_2010_15234)"/>
</g>
<mask id="mask1_2010_15234" style="mask-type:alpha" maskUnits="userSpaceOnUse" x="297" y="413" width="1046" height="1721">
<path d="M950.32 2090.49C965.838 2097.01 981.024 2102.82 995.825 2107.9C1089.17 2139.93 1163.91 2142.16 1217.95 2114.52C1272.59 2086.59 1304.56 2028.38 1312.98 1941.54C1339.68 1679.13 1339.45 1497.44 1339.3 1377.22C1339.23 1320.78 1339.17 1276.21 1341.82 1241.79C1346.1 1186.17 1320.03 1100.57 1273.8 1018.39C1224.3 930.393 1161.86 862.783 1102.5 832.891C1022.57 793.499 945.323 719.698 894.597 664.724C835.007 600.144 778.416 525.508 739.336 459.955C714.669 418.6 680.912 404.316 641.714 418.647C573.669 443.527 497.88 551.261 443.922 699.807L443.922 699.805C392.93 839.907 340.201 984.784 314.402 1127.37C300.813 1202.48 295.708 1270.82 298.792 1336.29C302.234 1409.33 315.712 1477.16 339.991 1543.67C381.391 1658.13 539.677 1829.92 724.913 1961.44C803.072 2016.93 880.064 2060.95 950.32 2090.49ZM694.831 421.662C710.994 428.456 725.367 442.122 737.505 462.47C776.661 528.152 833.349 602.919 893.033 667.602C943.859 722.685 1021.27 796.637 1101.42 836.134C1160.48 865.873 1222.63 933.2 1271.94 1020.85C1317.86 1102.48 1343.77 1187.24 1339.56 1242.07C1336.89 1276.68 1336.94 1321.34 1337.02 1377.89C1337.17 1498.01 1337.4 1679.54 1310.72 1941.7C1302.47 2026.89 1271.14 2083.96 1217.61 2111.33C1164 2138.75 1089.68 2136.48 996.733 2104.58C915.053 2076.56 821.506 2025.98 726.204 1958.32C541.266 1827.01 383.296 1655.67 342.05 1541.63C317.897 1475.47 304.493 1408.01 301.071 1335.4C298.002 1270.31 303.082 1202.35 316.602 1127.63C342.32 985.488 394.97 840.831 445.886 700.936L445.887 700.936C499.46 553.449 574.543 446.543 641.833 421.94C660.965 414.946 678.781 414.914 694.831 421.662Z" fill="url(#paint2_linear_2010_15234)"/>
</mask>
<g mask="url(#mask1_2010_15234)">
<path d="M950.327 2090.49C965.844 2097.01 981.031 2102.83 995.831 2107.91C1089.18 2139.94 1163.91 2142.17 1217.96 2114.54C1272.6 2086.6 1304.57 2028.4 1312.98 1941.55C1339.68 1679.14 1339.45 1497.46 1339.3 1377.23C1339.22 1320.8 1339.17 1276.22 1341.82 1241.8C1346.09 1186.19 1320.03 1100.58 1273.79 1018.4C1224.29 930.402 1161.86 862.789 1102.5 832.897C1022.56 793.502 945.316 719.699 894.59 664.724C835 600.141 778.408 525.504 739.328 459.95C714.661 418.593 680.904 404.309 641.706 418.639C573.662 443.517 497.874 551.25 443.918 699.794L443.918 699.792C392.928 839.893 340.2 984.769 314.403 1127.36C300.815 1202.47 295.71 1270.8 298.796 1336.27C302.238 1409.31 315.716 1477.14 339.996 1543.65C381.397 1658.11 539.684 1829.91 724.92 1961.43C803.079 2016.93 880.07 2060.95 950.327 2090.49ZM694.822 421.655C710.986 428.45 725.358 442.116 737.496 462.465C776.653 528.148 833.341 602.916 893.026 667.601C943.852 722.685 1021.26 796.639 1101.41 836.139C1160.47 865.88 1222.62 933.208 1271.93 1020.86C1317.85 1102.49 1343.76 1187.26 1339.55 1242.08C1336.88 1276.69 1336.94 1321.35 1337.01 1377.9C1337.17 1498.02 1337.4 1679.55 1310.72 1941.72C1302.47 2026.9 1271.15 2083.97 1217.62 2111.34C1164 2138.76 1089.69 2136.48 996.739 2104.59C915.06 2076.57 821.512 2025.98 726.211 1958.32C541.273 1827.01 383.302 1655.65 342.055 1541.62C317.901 1475.46 304.497 1408 301.074 1335.39C298.005 1270.3 303.084 1202.33 316.603 1127.62C342.32 985.473 394.967 840.817 445.882 700.924L445.883 700.923C499.454 553.437 574.536 446.533 641.825 421.932C660.956 414.938 678.773 414.907 694.822 421.655Z" fill="url(#paint3_linear_2010_15234)"/>
</g>
<mask id="mask2_2010_15234" style="mask-type:alpha" maskUnits="userSpaceOnUse" x="355" y="484" width="957" height="1583">
<path d="M954.8 2028.53C966.293 2033.36 977.566 2037.74 988.618 2041.68C1073.23 2071.82 1140.96 2074.74 1189.9 2050.36C1238.67 2026.07 1267.4 1974.9 1275.29 1898.26C1301.74 1666.47 1304.33 1500.65 1306.21 1379.58C1307.07 1324.64 1307.75 1281.24 1310.52 1246.91C1314.96 1191.45 1292.32 1111.91 1249.96 1034.13C1205.52 952.538 1148.08 888.93 1092.37 859.611C960.066 792.974 820.378 622.822 758.765 524.71C735.872 488.301 704.832 476.269 669 489.917C606.639 513.67 537.479 612.063 488.508 746.698C444.313 867.684 394.219 1004.82 370.384 1137.28C358.029 1205.95 353.369 1268.5 356.141 1328.5C359.229 1395.36 371.4 1457.49 393.349 1518.44C412.093 1571.55 456.372 1637.38 521.397 1708.8C583.861 1777.42 662.502 1847.26 742.835 1905.46C816.44 1958.78 888.994 2000.86 954.8 2028.53ZM719.412 492.281C733.578 498.237 746.254 509.89 757.078 527.108C818.802 625.393 958.757 795.859 1091.34 862.637C1146.76 891.805 1203.93 955.143 1248.2 1036.4C1290.28 1113.66 1312.78 1192.44 1308.4 1247.15C1305.61 1281.64 1304.94 1325.1 1304.08 1380.13C1302.19 1501.1 1299.61 1666.78 1273.18 1898.37C1265.45 1973.47 1237.33 2023.59 1189.6 2047.36C1141.06 2071.55 1073.73 2068.59 989.484 2038.58C915.276 2012.15 830.406 1965.11 744.057 1902.55C663.81 1844.41 585.259 1774.65 522.871 1706.12C458.037 1634.9 413.918 1569.35 395.283 1516.56C373.449 1455.92 361.345 1394.14 358.274 1327.67C355.518 1268.02 360.154 1205.82 372.444 1137.52C396.203 1005.48 446.219 868.558 490.346 747.757L490.347 747.755C538.962 614.098 607.47 516.477 669.134 492.989C687.299 486.069 704.213 485.892 719.412 492.281Z" fill="url(#paint4_linear_2010_15234)"/>
</mask>
<g mask="url(#mask2_2010_15234)">
<path d="M954.806 2028.53C966.299 2033.36 977.572 2037.75 988.624 2041.69C1073.24 2071.83 1140.96 2074.75 1189.91 2050.37C1238.67 2026.08 1267.4 1974.91 1275.29 1898.27C1301.74 1666.48 1304.32 1500.66 1306.21 1379.59C1307.07 1324.65 1307.74 1281.25 1310.51 1246.92C1314.96 1191.46 1292.32 1111.92 1249.95 1034.14C1205.51 952.546 1148.07 888.936 1092.37 859.615C960.06 792.975 820.371 622.819 758.757 524.705C735.864 488.296 704.824 476.263 668.993 489.91C606.633 513.661 537.474 612.052 488.505 746.686C444.311 867.672 394.219 1004.81 370.385 1137.27C358.031 1205.94 353.372 1268.48 356.144 1328.49C359.232 1395.35 371.403 1457.48 393.353 1518.43C412.097 1571.54 456.377 1637.37 521.402 1708.8C583.867 1777.41 662.508 1847.25 742.841 1905.46C816.446 1958.78 889 2000.86 954.806 2028.53ZM719.404 492.275C733.57 498.231 746.246 509.885 757.07 527.103C818.795 625.39 958.751 795.86 1091.34 862.642C1146.75 891.811 1203.93 955.15 1248.19 1036.41C1290.27 1113.67 1312.78 1192.45 1308.4 1247.16C1305.61 1281.65 1304.93 1325.11 1304.07 1380.14C1302.19 1501.11 1299.61 1666.8 1273.18 1898.38C1265.45 1973.48 1237.33 2023.6 1189.6 2047.37C1141.06 2071.55 1073.73 2068.6 989.49 2038.59C915.282 2012.15 830.412 1965.11 744.062 1902.55C663.816 1844.4 585.265 1774.64 522.876 1706.11C458.042 1634.89 413.922 1569.34 395.287 1516.54C373.453 1455.91 361.348 1394.13 358.277 1327.66C355.52 1268.01 360.155 1205.81 372.444 1137.51C396.202 1005.47 446.217 868.546 490.342 747.745L490.343 747.743C538.956 614.087 607.463 516.468 669.127 492.982C687.291 486.062 704.205 485.886 719.404 492.275Z" fill="url(#paint5_linear_2010_15234)"/>
</g>
<mask id="mask3_2010_15234" style="mask-type:alpha" maskUnits="userSpaceOnUse" x="412" y="555" width="868" height="1445">
<path d="M959.075 1966.65C966.637 1969.83 974.088 1972.79 981.434 1975.53C1057.32 2003.78 1118.03 2007.39 1161.87 1986.26C1204.76 1965.59 1230.24 1921.43 1237.6 1854.99C1264.1 1651.66 1269.41 1493.56 1273.28 1378.12C1274.95 1328.38 1276.4 1285.42 1279.21 1252.02C1283.76 1197.54 1263.91 1121.96 1226.12 1049.87C1186.7 974.682 1134.26 915.076 1082.25 886.331C1029.99 859.331 970.139 811.904 909.132 749.171C860.164 698.816 812.438 640.606 778.193 589.463C757.073 557.977 728.739 548.197 696.256 561.187C639.59 583.842 577.071 672.891 533.099 793.582C486.664 920.14 446.581 1034.11 426.368 1147.19C415.245 1209.41 411.034 1266.17 413.492 1320.7C416.227 1381.39 427.092 1437.82 446.709 1493.22C463.532 1542.3 503.338 1602.99 561.822 1668.72C617.771 1731.61 688.427 1795.82 760.773 1849.53C829.76 1900.74 897.804 1940.9 959.075 1966.65ZM744.073 562.846C756.223 567.954 767.177 577.619 776.655 591.746C810.96 642.978 858.761 701.282 907.798 751.709C968.917 814.557 1028.9 862.08 1081.27 889.14C1133.01 917.735 1185.21 977.08 1224.46 1051.95C1262 1123.56 1281.73 1198.44 1277.24 1252.23C1274.41 1285.75 1272.97 1328.76 1271.3 1378.56C1267.42 1493.9 1262.12 1651.88 1235.64 1855.03C1228.44 1920.07 1203.53 1963.26 1161.61 1983.46C1118.14 2004.41 1057.8 2000.77 982.258 1972.65C915.515 1947.79 839.324 1904.29 761.923 1846.83C689.657 1793.18 619.086 1729.05 563.207 1666.24C504.901 1600.71 465.241 1540.28 448.515 1491.48C429.002 1436.37 418.197 1380.27 415.477 1319.94C413.034 1265.73 417.224 1209.29 428.286 1147.4C448.432 1034.69 488.446 920.929 534.807 794.572L534.808 794.568C578.455 674.772 640.375 586.437 696.406 564.035C713.645 557.143 729.694 556.801 744.073 562.846Z" fill="url(#paint6_linear_2010_15234)"/>
</mask>
<g mask="url(#mask3_2010_15234)">
<path d="M959.08 1966.66C966.642 1969.84 974.093 1972.8 981.44 1975.53C1057.32 2003.78 1118.03 2007.4 1161.88 1986.27C1204.77 1965.6 1230.24 1921.44 1237.6 1855C1264.1 1651.67 1269.41 1493.57 1273.28 1378.13C1274.95 1328.39 1276.39 1285.43 1279.21 1252.03C1283.76 1197.55 1263.91 1121.97 1226.11 1049.87C1186.7 974.689 1134.26 915.082 1082.24 886.335C1029.99 859.334 970.133 811.906 909.126 749.17C860.157 698.814 812.432 640.603 778.186 589.459C757.066 557.972 728.732 548.192 696.249 561.18C639.583 583.834 577.066 672.881 533.096 793.571C486.663 920.129 446.58 1034.09 426.369 1147.18C415.247 1209.4 411.036 1266.16 413.495 1320.69C416.231 1381.38 427.096 1437.81 446.713 1493.21C463.537 1542.29 503.343 1602.98 561.827 1668.72C617.777 1731.6 688.433 1795.81 760.779 1849.53C829.766 1900.74 897.81 1940.9 959.08 1966.66ZM744.066 562.841C756.216 567.948 767.17 577.614 776.648 591.742C810.954 642.975 858.755 701.28 907.792 751.709C968.911 814.558 1028.89 862.083 1081.26 889.144C1133.01 917.741 1185.2 977.087 1224.45 1051.96C1262 1123.57 1281.73 1198.45 1277.24 1252.24C1274.41 1285.76 1272.97 1328.77 1271.3 1378.57C1267.42 1493.91 1262.12 1651.89 1235.65 1855.04C1228.44 1920.08 1203.54 1963.27 1161.62 1983.47C1118.15 2004.42 1057.8 2000.78 982.263 1972.65C915.521 1947.79 839.33 1904.29 761.929 1846.83C689.663 1793.18 619.091 1729.04 563.212 1666.23C504.906 1600.7 465.245 1540.27 448.52 1491.47C429.005 1436.36 418.2 1380.26 415.479 1319.93C413.036 1265.72 417.225 1209.28 428.287 1147.39C448.431 1034.68 488.444 920.918 534.804 794.562L534.805 794.557C578.45 674.762 640.369 586.429 696.399 564.029C713.638 557.137 729.687 556.796 744.066 562.841Z" fill="url(#paint7_linear_2010_15234)"/>
</g>
<mask id="mask4_2010_15234" style="mask-type:alpha" maskUnits="userSpaceOnUse" x="470" y="626" width="779" height="1308">
<path d="M963.062 1904.92C966.825 1906.51 970.555 1908.02 974.256 1909.48C1041.41 1935.84 1095.1 1940.15 1133.84 1922.27C1170.86 1905.2 1193.08 1868 1199.89 1811.72C1226.96 1634.2 1234.98 1481.71 1240.84 1370.36C1243.17 1326.21 1245.17 1288.08 1247.89 1257.16C1252.62 1202.81 1235.98 1133.01 1202.26 1065.63C1167.82 996.847 1120.39 941.245 1072.1 913.083C975.142 861.425 861.85 742.7 797.611 654.249C778.252 627.665 752.609 620.145 723.454 632.502C672.497 654.096 616.64 733.797 577.683 840.499L577.686 840.493C537.91 948.314 500.688 1053.66 482.348 1157.12C472.461 1212.9 468.696 1263.87 470.84 1312.94C473.222 1367.44 482.782 1418.17 500.066 1468.01C514.971 1513.08 550.306 1568.65 602.246 1628.7C651.689 1685.87 714.36 1744.46 778.714 1793.69C842.988 1842.85 906.448 1881.12 963.062 1904.92ZM768.835 633.369C778.944 637.618 788.144 645.322 796.226 656.421C860.564 745.009 974.05 863.926 1071.18 915.672C1119.2 943.685 1166.42 999.038 1200.71 1067.53C1234.2 1134.44 1250.74 1203.63 1246.07 1257.34C1243.34 1288.33 1241.33 1326.5 1239.01 1370.69C1233.15 1481.94 1225.14 1634.32 1198.09 1811.7C1191.43 1866.7 1169.75 1903.01 1133.63 1919.67C1095.23 1937.39 1041.87 1933.06 975.036 1906.82C915.77 1883.52 848.246 1843.56 779.793 1791.2C715.514 1742.03 652.92 1683.51 603.542 1626.42C551.766 1566.56 516.564 1511.23 501.744 1466.42C484.55 1416.84 475.044 1366.41 472.676 1312.24C470.545 1263.47 474.29 1212.79 484.124 1157.32C502.402 1054.21 539.556 949.057 579.262 841.424L579.265 841.417C617.926 735.526 673.24 656.481 723.622 635.13C739.994 628.189 755.238 627.652 768.835 633.369Z" fill="url(#paint8_linear_2010_15234)"/>
</mask>
<g mask="url(#mask4_2010_15234)">
<path d="M963.067 1904.93C966.83 1906.51 970.561 1908.03 974.261 1909.48C1041.41 1935.85 1095.11 1940.16 1133.85 1922.28C1170.86 1905.21 1193.08 1868.01 1199.89 1811.73C1226.96 1634.21 1234.98 1481.72 1240.84 1370.37C1243.16 1326.22 1245.17 1288.09 1247.89 1257.17C1252.61 1202.82 1235.98 1133.02 1202.25 1065.64C1167.82 996.854 1120.38 941.25 1072.1 913.087C975.137 861.426 861.844 742.698 797.605 654.245C778.246 627.66 752.603 620.14 723.448 632.495C672.492 654.088 616.635 733.788 577.68 840.489L577.683 840.483C537.909 948.303 500.688 1053.65 482.349 1157.11C472.462 1212.89 468.698 1263.86 470.842 1312.92C473.225 1367.43 482.785 1418.16 500.069 1468C514.976 1513.07 550.311 1568.65 602.251 1628.7C651.694 1685.86 714.366 1744.45 778.719 1793.68C842.993 1842.85 906.453 1881.12 963.067 1904.93ZM768.829 633.364C778.938 637.614 788.138 645.317 796.22 656.417C860.559 745.006 974.045 863.927 1071.17 915.675C1119.2 943.69 1166.42 999.044 1200.7 1067.53C1234.2 1134.45 1250.73 1203.64 1246.07 1257.35C1243.34 1288.34 1241.33 1326.5 1239.01 1370.7C1233.15 1481.95 1225.14 1634.33 1198.09 1811.71C1191.44 1866.71 1169.75 1903.02 1133.63 1919.68C1095.24 1937.39 1041.88 1933.07 975.042 1906.82C915.776 1883.52 848.252 1843.56 779.799 1791.2C715.519 1742.02 652.925 1683.5 603.547 1626.41C551.77 1566.55 516.568 1511.22 501.748 1466.41C484.554 1416.83 475.047 1366.4 472.679 1312.23C470.547 1263.45 474.291 1212.78 484.125 1157.3C502.402 1054.2 539.555 949.046 579.259 841.414L579.262 841.408C617.922 735.517 673.235 656.473 723.616 635.124C739.988 628.183 755.231 627.647 768.829 633.364Z" fill="url(#paint9_linear_2010_15234)"/>
</g>
<mask id="mask5_2010_15234" style="mask-type:alpha" maskUnits="userSpaceOnUse" x="527" y="697" width="691" height="1170">
<path d="M966.679 1843.39C966.818 1843.45 966.955 1843.51 967.095 1843.56C1025.52 1868.05 1072.19 1873.06 1105.84 1858.44C1136.98 1844.91 1155.94 1814.64 1162.19 1768.47C1190.75 1613.71 1201.64 1462.64 1209.58 1352.33C1212.07 1317.79 1214.22 1287.95 1216.57 1262.3C1221.4 1208.86 1207.49 1142.93 1178.4 1081.42C1148.89 1019.01 1106.45 967.416 1061.96 939.852C1020.28 916.808 973.754 881.097 923.641 833.699C885.943 798.043 847.083 756.256 817.024 719.05C799.414 697.339 776.438 692.083 750.577 703.854C705.354 724.436 656.189 794.78 622.269 887.431C588.823 977.475 554.788 1073.25 538.33 1167.07C529.676 1216.4 526.359 1261.58 528.189 1305.18C530.217 1353.51 538.472 1398.53 553.424 1442.82C579.173 1524.22 676.927 1642.83 796.667 1737.95C856.099 1785.16 914.878 1821.61 966.679 1843.39ZM793.76 703.792C801.792 707.168 809.183 712.952 815.802 721.109C845.899 758.362 884.806 800.201 922.547 835.899C972.738 883.37 1019.35 919.142 1061.09 942.221C1105.33 969.635 1147.57 1020.99 1176.95 1083.12C1205.84 1144.22 1219.67 1209.58 1214.89 1262.46C1212.54 1288.14 1210.39 1317.99 1207.9 1352.55C1199.96 1462.77 1189.08 1613.72 1160.54 1768.36C1154.45 1813.39 1135.99 1842.86 1105.67 1856.03C1072.34 1870.51 1025.97 1865.5 967.836 1841.13C967.7 1841.07 967.557 1841.01 967.421 1840.95C915.711 1819.22 857.031 1782.82 797.678 1735.67C678.16 1640.73 580.626 1522.47 554.978 1441.38C540.104 1397.32 531.897 1352.57 529.882 1304.54C528.062 1261.21 531.361 1216.29 539.968 1167.24C556.367 1073.74 590.336 978.165 623.721 888.284L623.725 888.275C657.38 796.35 706.061 726.601 750.77 706.253C766.36 699.154 780.883 698.379 793.76 703.792Z" fill="url(#paint10_linear_2010_15234)"/>
</mask>
<g mask="url(#mask5_2010_15234)">
<path d="M966.684 1843.39C966.823 1843.45 966.96 1843.51 967.1 1843.57C1025.52 1868.06 1072.2 1873.06 1105.84 1858.45C1136.98 1844.92 1155.94 1814.65 1162.19 1768.48C1190.75 1613.72 1201.64 1462.65 1209.58 1352.34C1212.07 1317.79 1214.22 1287.96 1216.57 1262.31C1221.4 1208.87 1207.48 1142.94 1178.39 1081.42C1148.88 1019.02 1106.44 967.42 1061.95 939.855C1020.28 916.81 973.75 881.097 923.636 833.698C885.939 798.041 847.078 756.253 817.019 719.046C799.409 697.334 776.433 692.078 750.573 703.848C705.35 724.43 656.185 794.772 622.267 887.422C588.822 977.465 554.788 1073.24 538.332 1167.06C529.678 1216.39 526.361 1261.57 528.192 1305.17C530.22 1353.5 538.475 1398.52 553.428 1442.81C579.177 1524.21 676.932 1642.83 796.672 1737.95C856.105 1785.16 914.883 1821.61 966.684 1843.39ZM793.755 703.788C801.787 707.164 809.178 712.948 815.797 721.105C845.894 758.359 884.801 800.199 922.542 835.898C972.733 883.371 1019.34 919.144 1061.08 942.224C1105.33 969.639 1147.57 1021 1176.95 1083.12C1205.84 1144.22 1219.67 1209.59 1214.89 1262.46C1212.54 1288.15 1210.39 1318 1207.9 1352.56C1199.96 1462.78 1189.09 1613.73 1160.55 1768.37C1154.45 1813.4 1135.99 1842.87 1105.67 1856.04C1072.35 1870.52 1025.98 1865.5 967.841 1841.13C967.705 1841.07 967.563 1841.02 967.427 1840.96C915.716 1819.22 857.037 1782.82 797.683 1735.67C678.165 1640.73 580.63 1522.46 554.982 1441.37C540.107 1397.31 531.901 1352.56 529.884 1304.53C528.064 1261.2 531.363 1216.28 539.969 1167.22C556.368 1073.73 590.335 978.156 623.719 888.275L623.723 888.267C657.376 796.342 706.057 726.594 750.765 706.248C766.355 699.149 780.878 698.374 793.755 703.788Z" fill="url(#paint11_linear_2010_15234)"/>
</g>
<mask id="mask6_2010_15234" style="mask-type:alpha" maskUnits="userSpaceOnUse" x="585" y="768" width="602" height="1033">
<path d="M969.982 1782.26C1014.99 1801.19 1051.23 1805.43 1077.83 1794.86C1103.1 1784.81 1118.79 1761.41 1124.46 1725.3C1156.19 1590.39 1170.32 1432.88 1180.63 1317.87C1182.25 1299.82 1183.77 1282.77 1185.23 1267.47C1190.25 1214.09 1179.34 1153.63 1154.52 1097.23C1129.49 1040.36 1093.01 993.984 1051.8 966.652C1022.69 949.795 943.487 898.276 836.429 783.881C820.543 767.004 800.194 764.03 777.577 775.288C738.132 794.92 695.707 855.884 666.859 934.383C639.394 1007.67 608.871 1092.9 594.314 1177.04C578.929 1265.96 583.007 1344.66 606.781 1417.64C617.866 1454.74 644.26 1500.13 683.104 1548.87C720.102 1595.3 765.578 1641.46 814.617 1682.37C865.256 1724.61 915.504 1757.63 959.93 1777.86C963.326 1779.41 966.679 1780.88 969.982 1782.26ZM818.927 774.074C824.823 776.553 830.331 780.479 835.378 785.84C852.503 804.14 887.561 840.455 929.916 878.039C974.376 917.494 1015.11 948.032 1050.98 968.804C1091.97 995.985 1128.27 1042.13 1153.18 1098.73C1177.83 1154.75 1188.67 1214.72 1183.7 1267.59C1182.24 1282.91 1180.72 1299.96 1179.1 1318.01C1168.79 1432.94 1154.68 1590.33 1122.99 1725.01L1122.97 1725.14C1117.48 1760.18 1102.26 1782.89 1077.71 1792.65C1049.86 1803.72 1009.37 1797.84 960.633 1775.65C916.291 1755.46 866.126 1722.49 815.561 1680.31C766.585 1639.45 721.173 1593.35 684.229 1547C645.518 1498.42 619.229 1453.25 608.209 1416.36C584.57 1343.79 580.517 1265.57 595.808 1177.19C610.312 1093.35 640.769 1008.31 668.178 935.176L668.182 935.165C696.798 857.295 738.799 796.864 777.796 777.455C792.742 770.018 806.674 768.922 818.927 774.074Z" fill="url(#paint12_linear_2010_15234)"/>
</mask>
<g mask="url(#mask6_2010_15234)">
<path d="M969.987 1782.27C1015 1801.19 1051.24 1805.43 1077.83 1794.87C1103.11 1784.82 1118.8 1761.42 1124.46 1725.3C1156.19 1590.4 1170.32 1432.89 1180.63 1317.88C1182.24 1299.83 1183.77 1282.78 1185.23 1267.47C1190.24 1214.1 1179.34 1153.64 1154.52 1097.23C1129.49 1040.36 1093.01 993.989 1051.8 966.656C1022.69 949.799 943.484 898.277 836.425 783.879C820.538 767.002 800.189 764.027 777.573 775.284C738.128 794.915 695.704 855.878 666.857 934.376C639.393 1007.66 608.871 1092.89 594.315 1177.03C578.931 1265.95 583.01 1344.65 606.785 1417.63C617.87 1454.74 644.264 1500.13 683.109 1548.87C720.106 1595.29 765.583 1641.46 814.621 1682.37C865.261 1724.61 915.509 1757.64 959.935 1777.86C963.331 1779.41 966.684 1780.88 969.987 1782.27ZM818.923 774.072C824.819 776.55 830.327 780.477 835.373 785.838C852.499 804.138 887.557 840.454 929.912 878.039C974.372 917.496 1015.11 948.035 1050.98 968.808C1091.97 995.99 1128.27 1042.14 1153.18 1098.74C1177.83 1154.76 1188.67 1214.73 1183.7 1267.6C1182.24 1282.92 1180.71 1299.97 1179.1 1318.02C1168.79 1432.94 1154.68 1590.34 1123 1725.01L1122.97 1725.15C1117.49 1760.19 1102.26 1782.9 1077.72 1792.65C1049.86 1803.72 1009.38 1797.84 960.638 1775.65C916.296 1755.46 866.131 1722.49 815.566 1680.31C766.59 1639.45 721.177 1593.35 684.233 1546.99C645.522 1498.42 619.233 1453.24 608.213 1416.35C584.573 1343.79 580.519 1265.56 595.809 1177.18C610.312 1093.35 640.768 1008.3 668.176 935.17L668.18 935.159C696.795 857.29 738.795 796.86 777.792 777.452C792.738 770.015 806.669 768.919 818.923 774.072Z" fill="url(#paint13_linear_2010_15234)"/>
</g>
<mask id="mask7_2010_15234" style="mask-type:alpha" maskUnits="userSpaceOnUse" x="642" y="839" width="514" height="896">
<path d="M971.696 1721.31C1003.64 1734.74 1030.38 1738.35 1049.79 1731.71C1069.26 1725.05 1081.69 1708.37 1086.73 1682.12C1125.01 1565.13 1145.24 1360.19 1153.88 1272.66C1164.56 1163.3 1118.4 1048.51 1041.64 993.506C979.01 955.043 909.627 895.174 868.174 859.404C863.772 855.606 859.642 852.042 855.822 848.763C841.617 836.664 823.822 836.016 804.365 846.882C770.775 865.638 735.169 917.181 711.445 981.389C686.787 1046.39 662.312 1116.29 650.299 1187.05C637.48 1262.56 640.699 1329.76 660.142 1392.49C678.182 1457.67 745.852 1549.73 832.532 1627.01C874.21 1664.17 915.769 1693.73 952.717 1712.48C959.224 1715.78 965.56 1718.73 971.696 1721.31ZM844.493 844.089C848.164 845.633 851.661 847.807 854.959 850.616C858.777 853.894 862.905 857.456 867.307 861.254C908.785 897.044 978.206 956.947 1040.87 995.433C1117.19 1050.11 1163.1 1164.17 1152.5 1272.77C1143.87 1360.21 1123.65 1564.99 1085.46 1681.63L1085.43 1681.73L1085.41 1681.83C1080.57 1707.15 1068.57 1723.25 1049.74 1729.69C1026.86 1737.51 993.541 1730.88 953.39 1710.5C916.515 1691.78 875.026 1662.28 833.413 1625.17C746.913 1548.05 679.411 1456.28 661.444 1391.37C618.264 1252.05 663.056 1112.8 712.636 982.114L712.641 982.1C736.165 918.43 771.409 867.355 804.619 848.811C819.143 840.702 832.714 839.138 844.493 844.089Z" fill="url(#paint14_linear_2010_15234)"/>
</mask>
<g mask="url(#mask7_2010_15234)">
<path d="M971.7 1721.31C1003.65 1734.74 1030.39 1738.35 1049.79 1731.72C1069.26 1725.06 1081.69 1708.37 1086.73 1682.13C1125.01 1565.14 1145.24 1360.2 1153.88 1272.67C1164.55 1163.31 1118.4 1048.51 1041.63 993.509C979.006 955.045 909.623 895.173 868.169 859.402C863.767 855.604 859.638 852.04 855.818 848.761C841.613 836.661 823.818 836.013 804.361 846.878C770.771 865.633 735.166 917.176 711.443 981.383C686.786 1046.38 662.312 1116.29 650.3 1187.04C637.481 1262.55 640.701 1329.76 660.145 1392.49C678.185 1457.66 745.855 1549.73 832.535 1627.01C874.213 1664.17 915.773 1693.73 952.721 1712.48C959.228 1715.78 965.564 1718.73 971.7 1721.31ZM844.489 844.086C848.16 845.63 851.657 847.805 854.955 850.614C858.773 853.892 862.901 857.454 867.303 861.252C908.781 897.043 978.202 956.948 1040.87 995.436C1117.18 1050.12 1163.1 1164.17 1152.5 1272.77C1143.87 1360.22 1123.65 1565 1085.46 1681.63L1085.43 1681.73L1085.41 1681.84C1080.57 1707.15 1068.57 1723.26 1049.74 1729.7C1026.86 1737.52 993.545 1730.88 953.394 1710.5C916.518 1691.78 875.03 1662.28 833.416 1625.17C746.916 1548.05 679.414 1456.27 661.446 1391.36C618.265 1252.04 663.056 1112.8 712.634 982.108L712.639 982.094C736.162 918.424 771.405 867.351 804.615 848.807C819.139 840.699 832.71 839.135 844.489 844.086Z" fill="url(#paint15_linear_2010_15234)"/>
</g>
<mask id="mask8_2010_15234" style="mask-type:alpha" maskUnits="userSpaceOnUse" x="700" y="909" width="425" height="762">
<path d="M972.442 1661.47C991.963 1669.68 1008.75 1672.54 1021.59 1669.37C1035.42 1665.95 1044.64 1655.74 1048.99 1639.02C1065.05 1609.57 1080.55 1554.35 1095.07 1474.88C1105.64 1416.99 1115.66 1345.19 1122.54 1277.88C1133.48 1169.89 1099.44 1073.63 1031.48 1020.4C1006.94 1004.1 981.649 986.298 957.194 969.077C925.568 946.807 895.695 925.771 875.21 913.674C857.935 903.597 835.788 910.674 812.856 933.579C791.121 955.289 770.414 989.853 756.045 1028.42C722.137 1116.25 711.646 1164.7 706.296 1197.09C696.044 1259.16 698.405 1314.86 713.514 1367.37C727.783 1424.74 780.197 1503.14 850.293 1571.94C895.069 1615.89 938.008 1646.99 972.442 1661.47ZM870.777 913.532C872.065 914.072 873.326 914.705 874.565 915.424C895.019 927.502 924.877 948.528 956.489 970.788C980.948 988.012 1006.24 1005.82 1030.76 1022.1C1098.32 1075.02 1132.17 1170.68 1121.3 1277.96C1114.43 1345.19 1104.43 1416.91 1093.86 1474.73C1079.38 1554.03 1063.95 1609.02 1048.01 1638.18L1047.92 1638.32L1047.88 1638.5C1043.76 1654.48 1034.93 1664.25 1021.63 1667.53C986.407 1676.23 921.07 1638.99 851.113 1570.33C781.174 1501.68 728.898 1423.55 714.687 1366.41C699.665 1314.2 697.319 1258.85 707.506 1197.18C717.648 1135.79 739.338 1075.1 757.101 1029.08L757.107 1029.07C771.355 990.826 791.873 956.562 813.401 935.059C834.29 914.198 854.479 906.68 870.777 913.532Z" fill="url(#paint16_linear_2010_15234)"/>
</mask>
<g mask="url(#mask8_2010_15234)">
<path d="M972.445 1661.47C991.966 1669.68 1008.75 1672.54 1021.59 1669.37C1035.43 1665.96 1044.65 1655.74 1049 1639.02C1065.05 1609.57 1080.55 1554.35 1095.07 1474.88C1105.64 1416.99 1115.66 1345.19 1122.54 1277.89C1133.48 1169.89 1099.44 1073.64 1031.47 1020.4C1006.93 1004.1 981.646 986.297 957.191 969.076C925.565 946.805 895.692 925.768 875.207 913.671C857.932 903.592 835.785 910.669 812.854 933.574C791.119 955.283 770.413 989.847 756.044 1028.41C722.137 1116.25 711.646 1164.69 706.297 1197.08C696.046 1259.15 698.407 1314.85 713.517 1367.37C727.785 1424.74 780.2 1503.14 850.296 1571.94C895.072 1615.89 938.012 1646.99 972.445 1661.47ZM870.774 913.528C872.062 914.069 873.323 914.701 874.562 915.42C895.016 927.499 924.874 948.525 956.485 970.786C980.945 988.011 1006.24 1005.82 1030.76 1022.1C1098.32 1075.02 1132.17 1170.68 1121.3 1277.97C1114.43 1345.2 1104.43 1416.92 1093.87 1474.74C1079.38 1554.03 1063.95 1609.02 1048.01 1638.18L1047.93 1638.33L1047.88 1638.5C1043.77 1654.48 1034.93 1664.25 1021.63 1667.54C986.41 1676.24 921.073 1638.99 851.117 1570.32C781.177 1501.68 728.901 1423.54 714.689 1366.41C699.667 1314.19 697.321 1258.85 707.506 1197.18C717.648 1135.78 739.337 1075.09 757.1 1029.07L757.106 1029.06C771.353 990.82 791.871 956.556 813.399 935.054C834.287 914.193 854.475 906.676 870.774 913.528Z" fill="url(#paint17_linear_2010_15234)"/>
</g>
<mask id="mask9_2010_15234" style="mask-type:alpha" maskUnits="userSpaceOnUse" x="757" y="977" width="338" height="632">
<path d="M971.197 1603.76C979.265 1607.15 986.432 1608.84 992.453 1608.65C1001.26 1608.37 1007.57 1604.14 1011.2 1596.08C1031.3 1584.21 1048.96 1522.66 1060.25 1473.01C1072.99 1417.04 1084.57 1346.06 1091.22 1283.16C1096.91 1229.02 1094.19 1183.81 1082.89 1144.96C1071.35 1105.28 1051.22 1073.36 1021.34 1047.38C974.629 1012.82 924.888 985.856 894.596 978.678C879.813 975.287 861.74 984.082 843.705 1003.44C826.833 1021.55 811.146 1047.82 800.668 1075.52C771.846 1148.18 741.964 1244.16 766.908 1342.32C777.309 1391.52 814.8 1456.75 867.188 1516.77C905.472 1560.63 943.581 1592.15 971.197 1603.76ZM919.735 988.997C948.69 1001.17 985.545 1022.86 1020.68 1048.86C1050.38 1074.68 1070.4 1106.41 1081.86 1145.84C1093.09 1184.44 1095.79 1229.38 1090.13 1283.22C1077.69 1400.8 1044.85 1575.17 1010.78 1594.69L1010.57 1594.81L1010.45 1595.1C1007.1 1602.73 1001.11 1606.74 992.645 1607.01C966.22 1607.86 917.28 1571.9 867.963 1515.39C815.702 1455.52 778.317 1390.52 767.959 1341.53C743.161 1243.94 772.91 1148.43 801.595 1076.12L801.602 1076.1C811.982 1048.66 827.518 1022.64 844.227 1004.7C861.985 985.643 879.74 976.976 894.224 980.296C901.661 982.061 910.278 985.021 919.735 988.997Z" fill="url(#paint18_linear_2010_15234)"/>
</mask>
<g mask="url(#mask9_2010_15234)">
<path d="M971.2 1603.76C979.267 1607.15 986.435 1608.84 992.455 1608.65C1001.26 1608.37 1007.57 1604.14 1011.21 1596.09C1031.3 1584.22 1048.96 1522.66 1060.26 1473.02C1072.99 1417.04 1084.57 1346.07 1091.22 1283.16C1096.91 1229.02 1094.19 1183.81 1082.89 1144.96C1071.35 1105.28 1051.22 1073.36 1021.34 1047.38C974.626 1012.82 924.885 985.854 894.593 978.675C879.81 975.284 861.737 984.078 843.702 1003.44C826.831 1021.54 811.144 1047.82 800.667 1075.51C771.846 1148.17 741.965 1244.16 766.909 1342.32C777.31 1391.51 814.802 1456.74 867.191 1516.77C905.475 1560.63 943.583 1592.15 971.2 1603.76ZM919.732 988.994C948.687 1001.17 985.541 1022.86 1020.68 1048.86C1050.37 1074.68 1070.4 1106.41 1081.86 1145.84C1093.09 1184.44 1095.79 1229.38 1090.13 1283.22C1077.69 1400.8 1044.85 1575.17 1010.79 1594.69L1010.57 1594.81L1010.45 1595.1C1007.1 1602.73 1001.11 1606.74 992.647 1607.01C966.222 1607.86 917.283 1571.9 867.965 1515.39C815.704 1455.51 778.319 1390.52 767.961 1341.52C743.162 1243.93 772.909 1148.42 801.594 1076.11L801.601 1076.1C811.98 1048.65 827.516 1022.63 844.225 1004.7C861.982 985.639 879.737 976.972 894.221 980.293C901.658 982.058 910.275 985.018 919.732 988.994Z" fill="url(#paint19_linear_2010_15234)"/>
</g>
<mask id="mask10_2010_15234" style="mask-type:alpha" maskUnits="userSpaceOnUse" x="815" y="1041" width="250" height="516">
<path d="M964.966 1552.55C968.446 1554.01 971.376 1554.44 973.64 1553.73C979.039 1557.52 984.777 1556.7 990.692 1551.31C1008 1535.55 1023.32 1484.52 1033.12 1444.49C1044.78 1396.86 1055 1338.69 1060.44 1288.89C1066.58 1232.56 1066.31 1193.2 1059.55 1161.27C1052.34 1127.21 1037.12 1099.67 1011.65 1074.6C981.77 1048.6 943.546 1036.54 914.252 1043.88C887.944 1050.63 858.636 1089.33 845.497 1122.86C816.904 1191.53 808.484 1257.1 820.473 1317.76C824.365 1342.15 833.585 1369.76 847.871 1399.8C860.24 1425.8 876.117 1452.84 893.785 1477.99C921.448 1517.37 948.99 1545.83 964.966 1552.55ZM973.923 1552.24L973.765 1552.29C971.585 1553.04 968.735 1552.64 965.344 1551.21C930.177 1536.44 836.471 1411.6 821.401 1317.16C809.483 1256.86 817.858 1191.68 846.288 1123.41L846.297 1123.39C859.291 1090.23 888.254 1051.94 914.228 1045.28C943.325 1038 981.329 1049.99 1011.04 1075.85C1036.35 1100.76 1051.48 1128.12 1058.63 1161.93C1065.35 1193.65 1065.62 1232.83 1059.5 1288.94C1054.07 1338.64 1043.87 1396.7 1032.23 1444.25C1022.49 1484.01 1007.32 1534.65 990.318 1550.14C984.677 1555.28 979.202 1556.01 974.052 1552.33L973.923 1552.24Z" fill="url(#paint20_linear_2010_15234)"/>
</mask>
<g mask="url(#mask10_2010_15234)">
<path d="M964.968 1552.55C968.448 1554.01 971.378 1554.44 973.642 1553.73C979.041 1557.52 984.779 1556.7 990.694 1551.31C1008 1535.55 1023.32 1484.52 1033.12 1444.49C1044.78 1396.86 1055 1338.69 1060.44 1288.89C1066.58 1232.56 1066.3 1193.2 1059.55 1161.27C1052.34 1127.21 1037.12 1099.67 1011.65 1074.6C981.767 1048.6 943.544 1036.54 914.25 1043.88C887.941 1050.62 858.635 1089.33 845.496 1122.85C816.904 1191.52 808.485 1257.1 820.474 1317.76C824.366 1342.15 833.586 1369.76 847.872 1399.79C860.241 1425.8 876.118 1452.84 893.787 1477.99C921.45 1517.37 948.993 1545.83 964.968 1552.55ZM973.925 1552.24L973.767 1552.29C971.587 1553.04 968.737 1552.64 965.346 1551.21C930.179 1536.43 836.473 1411.6 821.401 1317.15C809.483 1256.85 817.858 1191.68 846.287 1123.4L846.296 1123.38C859.29 1090.22 888.252 1051.94 914.226 1045.28C943.322 1037.99 981.326 1049.99 1011.04 1075.85C1036.35 1100.77 1051.48 1128.12 1058.63 1161.93C1065.34 1193.66 1065.61 1232.83 1059.5 1288.94C1054.07 1338.65 1043.87 1396.71 1032.23 1444.25C1022.49 1484.01 1007.32 1534.65 990.32 1550.14C984.679 1555.28 979.204 1556.01 974.055 1552.33L973.925 1552.24Z" fill="url(#paint21_linear_2010_15234)"/>
</g>
<mask id="mask11_2010_15234" style="mask-type:alpha" maskUnits="userSpaceOnUse" x="873" y="1087" width="165" height="440">
<path d="M950.021 1525.7C953.501 1527.16 957.12 1526.82 960.861 1524.65C970.241 1519.21 985.152 1499.29 1002.91 1435.3C1014.82 1392.4 1024.99 1339.65 1030.13 1294.18C1036.19 1240.46 1039.66 1205.78 1036.67 1177.28C1033.57 1147.81 1023.67 1125.88 1002.48 1101.6C990.803 1088.21 977.013 1084.45 961.5 1090.41C927.954 1103.29 896.911 1157.23 891.023 1169.89C880.028 1193.54 874.131 1222.5 873.496 1255.96C872.951 1284.76 876.281 1316.98 883.394 1351.71C896.253 1414.5 919.46 1474.77 936.891 1510.24C940.993 1518.59 945.385 1523.75 950.021 1525.7ZM986.978 1091.27C992.278 1093.49 997.264 1097.28 1001.91 1102.6C1022.96 1126.73 1032.8 1148.48 1035.87 1177.69C1038.84 1206.02 1035.38 1240.61 1029.33 1294.22C1019.97 1377.11 990.15 1506.46 960.702 1523.54C952.344 1528.39 944.562 1523.64 937.574 1509.42C920.173 1474.01 897.006 1413.84 884.171 1351.17C877.079 1316.54 873.76 1284.44 874.304 1255.76C874.933 1222.56 880.772 1193.85 891.659 1170.44C897.501 1157.87 928.301 1104.34 961.551 1091.57C970.655 1088.07 979.159 1087.98 986.978 1091.27Z" fill="url(#paint22_linear_2010_15234)"/>
</mask>
<g mask="url(#mask11_2010_15234)">
<path d="M950.023 1525.7C953.504 1527.16 957.123 1526.82 960.864 1524.65C970.244 1519.21 985.154 1499.29 1002.92 1435.3C1014.82 1392.4 1024.99 1339.65 1030.13 1294.19C1036.19 1240.46 1039.66 1205.78 1036.66 1177.29C1033.57 1147.81 1023.67 1125.88 1002.48 1101.6C990.8 1088.21 977.011 1084.45 961.498 1090.41C927.953 1103.29 896.91 1157.23 891.023 1169.89C880.028 1193.54 874.131 1222.5 873.497 1255.96C872.951 1284.76 876.282 1316.98 883.396 1351.71C896.254 1414.5 919.462 1474.77 936.894 1510.24C940.996 1518.59 945.387 1523.75 950.023 1525.7ZM986.976 1091.27C992.276 1093.49 997.262 1097.27 1001.91 1102.6C1022.96 1126.73 1032.8 1148.48 1035.86 1177.69C1038.84 1206.02 1035.38 1240.61 1029.33 1294.22C1019.97 1377.11 990.152 1506.46 960.705 1523.54C952.347 1528.39 944.564 1523.64 937.576 1509.42C920.175 1474.01 897.008 1413.84 884.173 1351.17C877.08 1316.54 873.76 1284.44 874.304 1255.76C874.933 1222.55 880.771 1193.85 891.658 1170.43C897.5 1157.87 928.3 1104.34 961.549 1091.57C970.653 1088.07 979.157 1087.98 986.976 1091.27Z" fill="url(#paint23_linear_2010_15234)"/>
</g>
<defs>
<linearGradient id="paint0_linear_2010_15234" x1="1277.06" y1="913.976" x2="192.091" y2="1309.77" gradientUnits="userSpaceOnUse">
<stop stop-color="white"/>
<stop offset="0.0436" stop-color="#B4B4B4"/>
<stop offset="0.1507"/>
<stop offset="0.1714" stop-color="#171717"/>
<stop offset="0.3859" stop-color="white"/>
<stop offset="0.6326" stop-color="#E6E6E6"/>
<stop offset="0.8567" stop-color="#1A1A1A"/>
<stop offset="0.9987"/>
</linearGradient>
<linearGradient id="paint1_linear_2010_15234" x1="1277.05" y1="913.986" x2="192.103" y2="1309.78" gradientUnits="userSpaceOnUse">
<stop stop-color="#0522AC"/>
<stop offset="1" stop-color="#34384C" stop-opacity="0"/>
</linearGradient>
<linearGradient id="paint2_linear_2010_15234" x1="1254.63" y1="940.16" x2="253.112" y2="1305.51" gradientUnits="userSpaceOnUse">
<stop stop-color="white"/>
<stop offset="0.0436" stop-color="#B4B4B4"/>
<stop offset="0.1507"/>
<stop offset="0.1714" stop-color="#171717"/>
<stop offset="0.3859" stop-color="white"/>
<stop offset="0.6326" stop-color="#E6E6E6"/>
<stop offset="0.8567" stop-color="#1A1A1A"/>
<stop offset="0.9987"/>
</linearGradient>
<linearGradient id="paint3_linear_2010_15234" x1="1254.62" y1="940.169" x2="253.123" y2="1305.52" gradientUnits="userSpaceOnUse">
<stop stop-color="#0522AC"/>
<stop offset="1" stop-color="#34384C" stop-opacity="0"/>
</linearGradient>
<linearGradient id="paint4_linear_2010_15234" x1="1232.45" y1="966.131" x2="314.069" y2="1301.15" gradientUnits="userSpaceOnUse">
<stop stop-color="white"/>
<stop offset="0.0436" stop-color="#B4B4B4"/>
<stop offset="0.1507"/>
<stop offset="0.1714" stop-color="#171717"/>
<stop offset="0.3859" stop-color="white"/>
<stop offset="0.6326" stop-color="#E6E6E6"/>
<stop offset="0.8567" stop-color="#1A1A1A"/>
<stop offset="0.9987"/>
</linearGradient>
<linearGradient id="paint5_linear_2010_15234" x1="1232.44" y1="966.139" x2="314.077" y2="1301.16" gradientUnits="userSpaceOnUse">
<stop stop-color="#0522AC"/>
<stop offset="1" stop-color="#34384C" stop-opacity="0"/>
</linearGradient>
<linearGradient id="paint6_linear_2010_15234" x1="1210.28" y1="992.131" x2="375.02" y2="1296.83" gradientUnits="userSpaceOnUse">
<stop stop-color="white"/>
<stop offset="0.0436" stop-color="#B4B4B4"/>
<stop offset="0.1507"/>
<stop offset="0.1714" stop-color="#171717"/>
<stop offset="0.3859" stop-color="white"/>
<stop offset="0.6326" stop-color="#E6E6E6"/>
<stop offset="0.8567" stop-color="#1A1A1A"/>
<stop offset="0.9987"/>
</linearGradient>
<linearGradient id="paint7_linear_2010_15234" x1="1210.28" y1="992.138" x2="375.03" y2="1296.83" gradientUnits="userSpaceOnUse">
<stop stop-color="#0522AC"/>
<stop offset="1" stop-color="#34384C" stop-opacity="0"/>
</linearGradient>
<linearGradient id="paint8_linear_2010_15234" x1="1188.39" y1="1017.93" x2="435.908" y2="1292.42" gradientUnits="userSpaceOnUse">
<stop stop-color="white"/>
<stop offset="0.0436" stop-color="#B4B4B4"/>
<stop offset="0.1507"/>
<stop offset="0.1714" stop-color="#171717"/>
<stop offset="0.3859" stop-color="white"/>
<stop offset="0.6326" stop-color="#E6E6E6"/>
<stop offset="0.8567" stop-color="#1A1A1A"/>
<stop offset="0.9987"/>
</linearGradient>
<linearGradient id="paint9_linear_2010_15234" x1="1188.38" y1="1017.94" x2="435.916" y2="1292.43" gradientUnits="userSpaceOnUse">
<stop stop-color="#0522AC"/>
<stop offset="1" stop-color="#34384C" stop-opacity="0"/>
</linearGradient>
<linearGradient id="paint10_linear_2010_15234" x1="1166.63" y1="1043.69" x2="496.765" y2="1288.04" gradientUnits="userSpaceOnUse">
<stop stop-color="white"/>
<stop offset="0.0436" stop-color="#B4B4B4"/>
<stop offset="0.1507"/>
<stop offset="0.1714" stop-color="#171717"/>
<stop offset="0.3859" stop-color="white"/>
<stop offset="0.6326" stop-color="#E6E6E6"/>
<stop offset="0.8567" stop-color="#1A1A1A"/>
<stop offset="0.9987"/>
</linearGradient>
<linearGradient id="paint11_linear_2010_15234" x1="1166.63" y1="1043.7" x2="496.773" y2="1288.04" gradientUnits="userSpaceOnUse">
<stop stop-color="#0522AC"/>
<stop offset="1" stop-color="#34384C" stop-opacity="0"/>
</linearGradient>
<linearGradient id="paint12_linear_2010_15234" x1="1145.21" y1="1069.27" x2="557.532" y2="1283.63" gradientUnits="userSpaceOnUse">
<stop stop-color="white"/>
<stop offset="0.0436" stop-color="#B4B4B4"/>
<stop offset="0.1507"/>
<stop offset="0.1714" stop-color="#171717"/>
<stop offset="0.3859" stop-color="white"/>
<stop offset="0.6326" stop-color="#E6E6E6"/>
<stop offset="0.8567" stop-color="#1A1A1A"/>
<stop offset="0.9987"/>
</linearGradient>
<linearGradient id="paint13_linear_2010_15234" x1="1145.2" y1="1069.27" x2="557.538" y2="1283.63" gradientUnits="userSpaceOnUse">
<stop stop-color="#0522AC"/>
<stop offset="1" stop-color="#34384C" stop-opacity="0"/>
</linearGradient>
<linearGradient id="paint14_linear_2010_15234" x1="1124.17" y1="1094.7" x2="618.211" y2="1279.24" gradientUnits="userSpaceOnUse">
<stop stop-color="white"/>
<stop offset="0.0436" stop-color="#B4B4B4"/>
<stop offset="0.1507"/>
<stop offset="0.1714" stop-color="#171717"/>
<stop offset="0.3859" stop-color="white"/>
<stop offset="0.6326" stop-color="#E6E6E6"/>
<stop offset="0.8567" stop-color="#1A1A1A"/>
<stop offset="0.9987"/>
</linearGradient>
<linearGradient id="paint15_linear_2010_15234" x1="1124.17" y1="1094.7" x2="618.216" y2="1279.24" gradientUnits="userSpaceOnUse">
<stop stop-color="#0522AC"/>
<stop offset="1" stop-color="#34384C" stop-opacity="0"/>
</linearGradient>
<linearGradient id="paint16_linear_2010_15234" x1="1103.53" y1="1120.16" x2="678.749" y2="1275.08" gradientUnits="userSpaceOnUse">
<stop stop-color="white"/>
<stop offset="0.0436" stop-color="#B4B4B4"/>
<stop offset="0.1507"/>
<stop offset="0.1714" stop-color="#171717"/>
<stop offset="0.3859" stop-color="white"/>
<stop offset="0.6326" stop-color="#E6E6E6"/>
<stop offset="0.8567" stop-color="#1A1A1A"/>
<stop offset="0.9987"/>
</linearGradient>
<linearGradient id="paint17_linear_2010_15234" x1="1103.53" y1="1120.16" x2="678.756" y2="1275.08" gradientUnits="userSpaceOnUse">
<stop stop-color="#0522AC"/>
<stop offset="1" stop-color="#34384C" stop-opacity="0"/>
</linearGradient>
<linearGradient id="paint18_linear_2010_15234" x1="1083.75" y1="1145.77" x2="739.04" y2="1271.47" gradientUnits="userSpaceOnUse">
<stop stop-color="white"/>
<stop offset="0.0436" stop-color="#B4B4B4"/>
<stop offset="0.1507"/>
<stop offset="0.1714" stop-color="#171717"/>
<stop offset="0.3859" stop-color="white"/>
<stop offset="0.6326" stop-color="#E6E6E6"/>
<stop offset="0.8567" stop-color="#1A1A1A"/>
<stop offset="0.9987"/>
</linearGradient>
<linearGradient id="paint19_linear_2010_15234" x1="1083.75" y1="1145.77" x2="739.042" y2="1271.47" gradientUnits="userSpaceOnUse">
<stop stop-color="#0522AC"/>
<stop offset="1" stop-color="#34384C" stop-opacity="0"/>
</linearGradient>
<linearGradient id="paint20_linear_2010_15234" x1="1067.64" y1="1178.11" x2="800.553" y2="1275.51" gradientUnits="userSpaceOnUse">
<stop stop-color="white"/>
<stop offset="0.0436" stop-color="#B4B4B4"/>
<stop offset="0.1507"/>
<stop offset="0.1714" stop-color="#171717"/>
<stop offset="0.3859" stop-color="white"/>
<stop offset="0.6326" stop-color="#E6E6E6"/>
<stop offset="0.8567" stop-color="#1A1A1A"/>
<stop offset="0.9987"/>
</linearGradient>
<linearGradient id="paint21_linear_2010_15234" x1="1067.64" y1="1178.11" x2="800.555" y2="1275.51" gradientUnits="userSpaceOnUse">
<stop stop-color="#0522AC"/>
<stop offset="1" stop-color="#34384C" stop-opacity="0"/>
</linearGradient>
<linearGradient id="paint22_linear_2010_15234" x1="1053.86" y1="1211.98" x2="851.659" y2="1285.71" gradientUnits="userSpaceOnUse">
<stop stop-color="white"/>
<stop offset="0.0436" stop-color="#B4B4B4"/>
<stop offset="0.1507"/>
<stop offset="0.1714" stop-color="#171717"/>
<stop offset="0.3859" stop-color="white"/>
<stop offset="0.6326" stop-color="#E6E6E6"/>
<stop offset="0.8567" stop-color="#1A1A1A"/>
<stop offset="0.9987"/>
</linearGradient>
<linearGradient id="paint23_linear_2010_15234" x1="1053.86" y1="1211.98" x2="851.662" y2="1285.71" gradientUnits="userSpaceOnUse">
<stop stop-color="#0522AC"/>
<stop offset="1" stop-color="#34384C" stop-opacity="0"/>
</linearGradient>
</defs>
</svg>
