<svg width="791" height="1855" viewBox="0 0 791 1855" fill="none" xmlns="http://www.w3.org/2000/svg">
<mask id="mask0_2010_15404" style="mask-type:alpha" maskUnits="userSpaceOnUse" x="-324" y="239" width="801" height="1340">
<path d="M476.004 634.857C476.327 612.388 476.26 590.626 475.794 569.684C473.241 454.684 459.136 367.967 433.871 311.941C408.022 254.62 370.933 231.092 323.632 242.013C180.026 275.17 90.6968 318.7 31.5863 347.504C4.98096 360.469 -16.0329 370.708 -32.5045 375.202L-32.2112 376.446L-32.5045 375.202C-59.9079 382.677 -96.8599 432.056 -128.939 504.068C-163.461 581.564 -184.93 667.851 -187.841 740.806C-191.857 841.431 -214.836 946.782 -233.407 1017.44C-255.04 1099.75 -283.675 1183.72 -310.005 1242.06C-327.002 1279.72 -328.167 1321.74 -313.371 1363.59C-287.75 1436.04 -217.709 1498.58 -130.579 1526.8C-89.2807 1540.17 -46.5768 1554 -5.31276 1563.87C40.3077 1574.77 79.2004 1579.49 113.588 1578.28C154.65 1576.84 190.539 1567.16 223.306 1548.69C259.893 1528.06 291.818 1497.02 320.902 1453.78C370.579 1379.92 426.028 1158.55 455.744 915.427C467.899 815.976 474.777 720.314 476.004 634.857ZM-321.806 1303.75C-321.507 1282.97 -317.036 1262.72 -308.407 1243.6C-282.023 1185.14 -253.335 1101.02 -231.668 1018.58C-213.059 947.776 -190.032 842.194 -186.006 741.284C-183.109 668.697 -161.725 582.791 -127.336 505.595C-95.4699 434.063 -58.9079 385.052 -31.918 377.69C-15.3297 373.164 5.73327 362.9 32.4002 349.906C91.4577 321.128 180.706 277.638 324.17 244.514C370.606 233.791 407.001 256.853 432.346 313.055C457.414 368.647 471.414 454.9 473.957 569.418C476.188 669.844 469.262 789.237 453.929 914.685C424.26 1157.42 368.972 1378.34 319.478 1451.93C290.544 1494.94 258.797 1525.82 222.421 1546.33C189.841 1564.69 154.145 1574.32 113.293 1575.75C36.6518 1578.44 -48.2703 1550.93 -130.396 1524.34C-216.914 1496.32 -286.4 1434.4 -311.738 1362.74C-318.733 1342.96 -322.085 1323.13 -321.806 1303.75Z" fill="url(#paint0_linear_2010_15404)"/>
</mask>
<g mask="url(#mask0_2010_15404)">
<path d="M476.328 635.374C476.646 612.908 476.573 591.147 476.102 570.207C473.517 455.216 459.375 368.488 434.068 312.433C408.176 255.082 371.039 231.505 323.688 242.36C179.928 275.314 90.5097 318.716 31.3398 347.434C4.70769 360.361 -16.3273 370.57 -32.8164 375.041L-32.5224 376.285L-32.8164 375.041C-60.2487 382.477 -97.2302 431.799 -129.328 503.759C-163.87 581.199 -185.342 667.448 -188.238 740.391C-192.234 841 -215.214 946.308 -233.788 1016.93C-255.425 1099.2 -284.071 1183.12 -310.416 1241.42C-327.424 1279.06 -328.58 1321.07 -313.757 1362.93C-288.09 1435.42 -217.954 1498.04 -130.72 1526.38C-89.3715 1539.81 -46.6162 1553.7 -5.30341 1563.62C40.3711 1574.59 79.3087 1579.35 113.734 1578.2C154.843 1576.82 190.77 1567.19 223.569 1548.76C260.192 1528.19 292.145 1497.19 321.252 1453.99C370.966 1380.22 426.423 1158.94 456.113 915.886C468.257 816.462 475.119 720.82 476.328 635.374ZM-322.216 1303.09C-321.922 1282.31 -317.45 1262.07 -308.816 1242.96C-282.417 1184.54 -253.718 1100.48 -232.047 1018.07C-213.434 947.304 -190.407 841.766 -186.401 740.872C-183.518 668.296 -162.131 582.429 -127.722 505.289C-95.8381 433.809 -59.2469 384.853 -32.2285 377.529C-15.6227 373.027 5.46145 362.793 32.1552 349.838C91.2721 321.144 180.61 277.782 324.227 244.861C370.712 234.204 407.154 257.314 432.541 313.545C457.652 369.166 471.689 455.429 474.262 569.938C476.52 670.358 469.615 789.728 454.296 915.142C424.653 1157.81 369.356 1378.63 319.825 1452.14C290.869 1495.11 259.094 1525.94 222.682 1546.4C190.07 1564.72 154.336 1574.29 113.438 1575.66C36.7119 1578.24 -48.3123 1550.63 -130.537 1523.92C-217.159 1495.78 -286.738 1433.77 -312.123 1362.09C-319.13 1342.3 -322.49 1322.46 -322.216 1303.09Z" fill="url(#paint1_linear_2010_15404)"/>
</g>
<mask id="mask1_2010_15404" style="mask-type:alpha" maskUnits="userSpaceOnUse" x="-296" y="288" width="742" height="1229">
<path d="M444.922 642.26C445.177 624.491 445.159 607.221 444.865 590.513C443.005 485.135 430.498 405.681 407.689 354.358C384.63 302.469 351.441 280.887 309.046 290.21C180.71 317.031 95.2513 355.386 38.7022 380.766C12.1554 392.681 -8.81224 402.092 -25.4894 406.504C-52.4388 413.656 -87.9951 459.161 -118.284 525.261C-150.716 596.038 -171.209 676.208 -174.509 745.214C-178.548 837.962 -199.267 935.081 -215.937 1000.22C-235.52 1076.75 -260.379 1152.22 -284.14 1207.27C-299.127 1242.02 -299.726 1280.69 -285.872 1319.11C-261.821 1385.81 -197.373 1443.31 -117.68 1469.18L-117.681 1469.18C-42.4994 1493.69 35.2441 1519.03 107.028 1516.38C144.838 1514.99 177.923 1506.05 208.175 1489.06C241.921 1470.1 271.4 1441.63 298.294 1402.02C344.649 1334.25 396.786 1130.92 425.078 907.562C437.015 813.316 443.766 722.71 444.922 642.26ZM-294.088 1262.34C-293.822 1243.83 -289.998 1225.78 -282.624 1208.68C-258.816 1153.52 -233.913 1077.92 -214.299 1001.27C-197.597 936.002 -176.836 838.675 -172.787 745.679C-169.503 677.025 -149.093 597.213 -116.789 526.715C-86.7033 461.058 -51.5122 415.891 -24.9485 408.841C-8.17654 404.405 12.8323 394.976 39.4294 383.038C95.9314 357.68 181.316 319.358 309.532 292.562C351.119 283.416 383.657 304.554 406.249 355.389C428.875 406.304 441.287 485.322 443.138 590.249C444.767 682.454 437.932 791.935 423.376 906.851C395.129 1129.85 343.146 1332.76 296.963 1400.27C270.209 1439.67 240.895 1467.99 207.345 1486.84C177.268 1503.73 144.363 1512.62 106.749 1514.01C35.1914 1516.64 -42.4345 1491.34 -117.505 1466.87L-117.506 1466.87C-196.631 1441.19 -260.56 1384.25 -284.344 1318.3C-291.106 1299.54 -294.352 1280.72 -294.088 1262.34Z" fill="url(#paint2_linear_2010_15404)"/>
</mask>
<g mask="url(#mask1_2010_15404)">
<path d="M445.223 642.741C445.474 624.975 445.452 607.707 445.153 591C443.265 485.631 430.725 406.168 407.878 354.818C384.781 302.903 351.549 281.277 309.108 290.54C180.635 317.181 95.0894 355.413 38.4829 380.712C11.9092 392.589 -9.07967 401.97 -25.7745 406.358C-52.7524 413.472 -88.3376 458.923 -118.645 524.974C-151.096 595.699 -171.592 675.832 -174.879 744.826C-178.9 837.558 -199.619 934.639 -216.291 999.752C-235.877 1076.24 -260.746 1151.67 -284.52 1206.68C-299.516 1241.4 -300.106 1280.07 -286.227 1318.51C-262.132 1385.23 -197.598 1442.82 -117.809 1468.8L-117.81 1468.8C-42.5379 1493.4 35.2991 1518.85 107.163 1516.31C145.015 1514.97 178.135 1506.07 208.417 1489.12C242.196 1470.22 271.701 1441.79 298.616 1402.22C345.007 1334.52 397.152 1131.29 425.421 907.988C437.349 813.768 444.085 723.181 445.223 642.741ZM-294.466 1261.73C-294.204 1243.23 -290.38 1225.18 -283.002 1208.09C-259.181 1152.97 -234.269 1077.42 -214.651 1000.8C-197.946 935.562 -177.185 838.273 -173.154 745.293C-169.884 676.651 -149.47 596.876 -117.148 526.43C-87.0438 460.822 -51.8242 415.708 -25.2324 408.696C-8.4427 404.283 12.5874 394.884 39.2115 382.985C95.7709 357.707 181.242 319.508 309.595 292.893C351.227 283.805 383.807 304.986 406.436 355.847C429.101 406.788 441.546 485.815 443.424 590.734C445.078 682.932 438.262 792.391 423.717 907.275C395.493 1130.22 343.502 1333.02 297.283 1400.47C270.508 1439.83 241.168 1468.1 207.585 1486.9C177.479 1503.75 144.539 1512.6 106.884 1513.93C35.2457 1516.46 -42.4735 1491.06 -117.634 1466.49L-117.635 1466.48C-196.855 1440.69 -260.871 1383.68 -284.697 1317.7C-291.471 1298.94 -294.726 1280.11 -294.466 1261.73Z" fill="url(#paint3_linear_2010_15404)"/>
</g>
<mask id="mask2_2010_15404" style="mask-type:alpha" maskUnits="userSpaceOnUse" x="-269" y="336" width="684" height="1119">
<path d="M413.901 649.822C414.09 636.661 414.109 623.825 413.958 611.318C412.793 515.56 401.882 443.369 381.529 396.749C361.251 350.3 331.956 330.671 294.46 338.407C180.571 359.069 102.066 391.12 44.7444 414.524C18.7307 425.145 -1.81536 433.533 -18.4767 437.804C-45.3825 444.742 -78.7104 485.357 -107.63 546.451C-137.967 610.538 -157.483 684.59 -161.177 749.619C-168.538 903.442 -223.276 1086.78 -258.274 1172.48C-271.256 1204.32 -271.288 1239.65 -258.365 1274.66C-235.874 1335.59 -177.022 1388.05 -104.776 1411.57C-39.8199 1432.9 33.8066 1457.08 100.472 1454.49C135.028 1453.14 165.31 1444.95 193.046 1429.43C223.953 1412.14 250.986 1386.24 275.689 1350.26C297.282 1319.3 320.23 1258.69 342.05 1174.98C363.01 1094.57 381.613 996.795 394.432 899.677C406.177 810.693 412.817 725.181 413.901 649.822ZM-266.397 1220.88C-266.164 1204.66 -262.979 1188.82 -256.839 1173.76C-221.78 1087.91 -166.942 904.221 -159.565 750.075C-155.891 685.383 -136.454 611.664 -106.24 547.835C-77.5162 487.152 -44.5197 446.838 -17.9764 439.993C-1.24211 435.704 19.3371 427.302 45.3898 416.665C102.665 393.281 181.107 361.256 294.893 340.61C331.639 333.029 360.328 352.237 380.174 397.696C400.36 443.932 411.182 515.715 412.342 611.053C413.361 695.034 406.62 794.605 392.84 898.997C380.036 996.01 361.454 1093.67 340.52 1173.99C318.764 1257.45 295.917 1317.84 274.45 1348.61C249.874 1384.41 222.995 1410.16 192.271 1427.35C164.697 1442.77 134.583 1450.92 100.208 1452.26C33.7568 1454.85 -39.7543 1430.7 -104.611 1409.4L-104.612 1409.4C-176.334 1386.06 -234.703 1334.12 -256.943 1273.87C-263.496 1256.13 -266.647 1238.29 -266.397 1220.88Z" fill="url(#paint4_linear_2010_15404)"/>
</mask>
<g mask="url(#mask2_2010_15404)">
<path d="M414.18 650.27C414.366 637.11 414.383 624.276 414.228 611.77C413.038 516.021 402.098 443.822 381.71 397.179C361.398 350.707 332.066 331.039 294.529 338.722C180.517 359.224 101.932 391.163 44.5515 414.485C18.5112 425.069 -2.05586 433.428 -18.7349 437.675C-45.6691 444.575 -79.0246 485.14 -107.962 546.187C-138.317 610.225 -157.837 684.242 -161.519 749.259C-168.851 903.056 -223.606 1086.3 -258.622 1171.95C-271.611 1203.76 -271.634 1239.09 -258.688 1274.11C-236.157 1335.07 -177.226 1387.6 -104.893 1411.22C-39.8589 1432.64 33.8562 1456.92 100.596 1454.41C135.19 1453.12 165.504 1444.96 193.268 1429.49C224.205 1412.24 251.262 1386.39 275.985 1350.44C297.594 1319.52 320.553 1258.95 342.377 1175.28C363.341 1094.9 381.941 997.162 394.75 900.072C406.487 811.113 413.113 725.619 414.18 650.27ZM-266.742 1220.33C-266.513 1204.11 -263.328 1188.27 -257.185 1173.23C-222.108 1087.43 -167.253 903.836 -159.906 749.718C-156.243 685.037 -136.802 611.353 -106.57 547.573C-77.8286 486.936 -44.805 446.672 -18.2335 439.864C-1.48143 435.599 19.1188 427.227 45.1982 416.627C102.533 393.325 181.055 361.411 294.963 340.925C331.749 333.396 360.474 352.642 380.354 398.123C400.574 444.383 411.426 516.173 412.61 611.503C413.651 695.476 406.927 795.028 393.157 899.389C380.362 996.375 361.783 1094 340.845 1174.28C319.085 1257.71 296.227 1318.05 274.743 1348.79C250.149 1384.55 223.246 1410.26 192.491 1427.41C164.89 1442.79 134.745 1450.9 100.331 1452.19C33.8058 1454.68 -39.7938 1430.44 -104.729 1409.05L-104.73 1409.05C-176.537 1385.61 -234.986 1333.6 -257.265 1273.33C-263.829 1255.57 -266.988 1237.73 -266.742 1220.33Z" fill="url(#paint5_linear_2010_15404)"/>
</g>
<mask id="mask3_2010_15404" style="mask-type:alpha" maskUnits="userSpaceOnUse" x="-241" y="385" width="625" height="1008">
<path d="M382.958 657.584C383.083 648.923 383.124 640.427 383.077 632.088C382.609 545.949 373.295 481.021 355.398 439.107C337.889 398.106 312.479 380.44 279.874 386.602C179.369 401.246 103.997 428.801 48.9636 448.921C25.2496 457.591 4.76923 465.077 -11.4632 469.105C-37.9312 475.727 -69.8982 512.563 -96.9748 567.642C-125.21 625.077 -143.751 693.011 -147.844 754.025C-151.072 814.92 -162.535 888.14 -180.994 965.787C-195.81 1028.11 -214.549 1090.77 -232.407 1137.7C-243.395 1166.63 -242.857 1198.63 -230.851 1230.24C-209.908 1285.39 -156.656 1332.79 -91.8753 1353.95C-23.8865 1376.48 37.0239 1394.94 93.9133 1392.59C125.217 1391.29 152.694 1383.84 177.915 1369.8C205.98 1354.17 230.568 1330.85 253.082 1298.49C273.13 1270.41 294.475 1215.61 314.802 1140C334.249 1067.66 351.652 979.508 363.806 891.768C375.397 808.101 381.95 727.752 382.958 657.584ZM-238.745 1179.35C-238.545 1165.43 -235.983 1151.83 -231.053 1138.85C-213.164 1091.84 -194.395 1029.08 -179.557 966.664C-161.065 888.875 -149.58 815.5 -146.344 754.47C-142.273 693.775 -123.811 626.151 -95.6927 568.955C-68.7988 514.247 -37.1397 477.683 -11.0046 471.145C5.28106 467.104 25.7865 459.608 49.5282 450.928C104.519 430.824 179.832 403.291 280.252 388.658C312.166 382.628 337.014 399.892 354.127 439.967C371.872 481.524 381.107 546.072 381.574 631.821C381.981 707.586 375.331 797.247 362.328 891.118C350.188 978.76 332.805 1066.81 313.383 1139.05C293.117 1214.43 271.869 1269.03 251.937 1296.95C229.54 1329.14 205.095 1352.33 177.196 1367.86C152.124 1381.81 124.801 1389.22 93.6658 1390.52C36.9639 1392.87 -23.8383 1374.43 -91.7192 1351.94L-91.7215 1351.94C-156.022 1330.93 -208.83 1284.01 -229.538 1229.49C-235.909 1212.71 -238.981 1195.82 -238.745 1179.35Z" fill="url(#paint6_linear_2010_15404)"/>
</mask>
<g mask="url(#mask3_2010_15404)">
<path d="M383.215 657.995C383.338 649.335 383.376 640.84 383.328 632.502C382.838 546.371 373.498 481.438 355.57 439.504C338.032 398.483 312.589 380.783 279.949 386.899C179.335 401.403 103.885 428.851 48.7947 448.892C25.0562 457.528 4.55465 464.986 -11.695 468.99C-38.1911 475.575 -70.185 512.363 -97.2785 567.398C-125.532 624.788 -144.077 692.689 -148.159 753.691C-151.377 814.575 -162.835 887.771 -181.295 965.384C-196.113 1027.68 -214.857 1090.31 -232.724 1137.21C-243.717 1166.12 -243.171 1198.12 -231.144 1229.74C-210.164 1284.91 -156.841 1332.38 -91.9821 1353.63C-23.9116 1376.25 37.0716 1394.8 94.0243 1392.52C125.362 1391.27 152.868 1383.85 178.114 1369.85C206.207 1354.27 230.818 1330.98 253.349 1298.66C273.412 1270.61 294.768 1215.83 315.1 1140.26C334.55 1067.96 351.952 979.841 364.098 892.127C375.681 808.485 382.223 728.154 383.215 657.995ZM-239.059 1178.84C-238.862 1164.93 -236.301 1151.33 -231.369 1138.35C-213.471 1091.38 -194.696 1028.65 -179.856 966.263C-161.363 888.508 -149.882 815.157 -146.658 754.138C-142.596 693.455 -124.131 625.864 -95.9947 568.713C-69.0839 514.049 -37.3982 477.532 -11.2354 471.031C5.06754 467.013 25.5941 459.546 49.3603 450.9C104.408 430.875 179.799 403.449 280.328 388.956C312.276 382.971 337.156 400.267 354.298 440.362C372.074 481.939 381.334 546.493 381.822 632.233C382.249 707.99 375.613 797.633 362.618 891.475C350.485 979.091 333.105 1067.11 313.678 1139.32C293.408 1214.66 272.15 1269.22 252.201 1297.11C229.788 1329.26 205.321 1352.42 177.395 1367.91C152.298 1381.83 124.946 1389.2 93.7759 1390.45C37.011 1392.72 -23.8639 1374.21 -91.8263 1351.62L-91.8286 1351.62C-156.206 1330.53 -209.085 1283.54 -229.829 1228.99C-236.212 1212.2 -239.291 1195.31 -239.059 1178.84Z" fill="url(#paint7_linear_2010_15404)"/>
</g>
<mask id="mask4_2010_15404" style="mask-type:alpha" maskUnits="userSpaceOnUse" x="-213" y="434" width="566" height="897">
<path d="M352.128 665.61C352.19 661.301 352.227 657.038 352.239 652.822C352.467 576.3 344.753 518.635 329.31 481.428C314.556 445.881 293.017 430.193 265.291 434.8C176.819 443.431 103.588 466.942 50.1155 484.109C28.9117 490.916 10.6 496.796 -4.45008 500.406C-30.8855 506.814 -60.7252 539.045 -86.3192 588.834C-112.449 639.666 -130.014 701.483 -134.51 758.433C-141.234 871.773 -176.562 1016.45 -206.541 1102.92C-215.542 1128.96 -214.429 1157.65 -203.323 1185.88C-183.914 1235.21 -136.265 1277.54 -78.9731 1296.34L-78.9766 1296.34C-21.0094 1315.76 35.3313 1333.01 87.3562 1330.69C115.405 1329.44 140.078 1322.73 162.785 1310.17C188.009 1296.21 210.151 1275.46 230.475 1246.73C248.986 1221.52 268.732 1172.51 287.574 1105C305.509 1040.74 321.718 962.192 333.214 883.832C344.696 805.569 351.195 730.454 352.128 665.61ZM-211.149 1137.72C-210.982 1126.14 -209.026 1114.8 -205.268 1103.93C-175.243 1017.32 -139.858 872.403 -133.124 758.867C-128.651 702.22 -111.164 640.69 -85.1464 590.077C-59.7262 540.626 -30.1612 508.632 -4.03308 502.299C11.0503 498.679 29.3779 492.795 50.6008 485.981C104.031 468.828 177.206 445.335 265.607 436.71C292.704 432.208 313.727 447.515 328.123 482.201C343.428 519.077 351.073 576.392 350.847 652.554C350.633 720.095 344.077 799.861 331.848 883.213C320.365 961.482 304.176 1039.93 286.264 1104.11C267.482 1171.4 247.826 1220.22 229.424 1245.29C209.206 1273.87 187.193 1294.5 162.123 1308.37C139.553 1320.86 115.021 1327.53 87.1249 1328.77C35.2758 1331.08 -20.9584 1313.87 -78.8244 1294.47L-78.8279 1294.47C-135.685 1275.82 -182.926 1233.93 -202.117 1185.15C-208.354 1169.29 -211.372 1153.29 -211.149 1137.72Z" fill="url(#paint8_linear_2010_15404)"/>
</mask>
<g mask="url(#mask4_2010_15404)">
<path d="M352.362 665.987C352.424 661.678 352.46 657.416 352.471 653.2C352.68 576.687 344.944 519.018 329.474 481.793C314.695 446.23 293.128 430.513 265.373 435.082C176.803 443.589 103.496 466.996 49.968 484.087C28.7421 490.865 10.4113 496.718 -4.65475 500.307C-31.1182 506.678 -60.9836 538.864 -86.5941 588.612C-112.741 639.403 -130.311 701.189 -134.798 758.127C-141.502 871.445 -176.835 1016.06 -206.826 1102.47C-215.831 1128.5 -214.709 1157.19 -203.584 1185.43C-184.142 1234.79 -136.429 1277.18 -79.068 1296.05L-79.0715 1296.05C-21.0347 1315.55 35.3734 1332.88 87.4559 1330.63C115.536 1329.42 140.235 1322.74 162.964 1310.21C188.213 1296.29 210.375 1275.58 230.715 1246.88C249.24 1221.69 268.997 1172.71 287.843 1105.24C305.783 1041.01 321.991 962.495 333.481 884.16C344.957 805.921 351.445 730.822 352.362 665.987ZM-211.43 1137.26C-211.267 1125.69 -209.31 1114.35 -205.551 1103.48C-175.513 1016.93 -140.124 872.077 -133.41 758.562C-128.946 701.928 -111.454 640.429 -85.4197 589.857C-59.9831 540.447 -30.3927 508.497 -4.23684 502.2C10.8626 498.602 29.2093 492.744 50.4544 485.96C103.94 468.883 177.191 445.493 265.69 436.991C292.816 432.528 313.866 447.862 328.287 482.564C343.618 519.458 351.286 576.777 351.078 652.93C350.88 720.464 344.335 800.213 332.113 883.538C320.636 961.784 304.449 1040.2 286.532 1104.35C267.745 1171.61 248.079 1220.4 229.663 1245.44C209.428 1273.98 187.396 1294.58 162.301 1308.42C139.709 1320.87 115.151 1327.51 87.224 1328.71C35.3174 1330.95 -20.984 1313.66 -78.9196 1294.19L-78.9231 1294.18C-135.848 1275.45 -183.153 1233.5 -202.377 1184.7C-208.625 1168.84 -211.65 1152.84 -211.43 1137.26Z" fill="url(#paint9_linear_2010_15404)"/>
</g>
<mask id="mask5_2010_15404" style="mask-type:alpha" maskUnits="userSpaceOnUse" x="-185" y="482" width="507" height="788">
<path d="M321.454 673.987C321.457 673.827 321.459 673.671 321.461 673.51C322.389 606.604 316.275 556.2 303.29 523.698C291.269 493.609 273.578 479.915 250.71 482.997C172.676 485.268 99.5821 505.461 46.2121 520.206C29.5 524.823 15.0658 528.81 2.56429 531.709C-23.4681 537.813 -51.9798 566.359 -75.6607 610.025C-99.6821 654.319 -116.271 710.018 -121.174 762.841C-124.46 811.739 -132.828 868.427 -146.048 931.357C-155.993 978.697 -168.613 1028.55 -180.673 1068.14C-187.698 1091.31 -186.003 1116.71 -175.769 1141.58C-157.874 1185.08 -115.839 1222.3 -66.0689 1238.72C-17.6118 1255.19 33.6484 1271.08 80.8009 1268.79C105.595 1267.59 127.463 1261.62 147.657 1250.54C170.039 1238.25 189.735 1220.08 207.87 1194.97C241.519 1150.67 279.618 1022.42 302.667 875.865C314.107 803.121 320.602 733.325 321.454 673.987ZM-183.634 1095.94C-183.503 1086.74 -182.121 1077.71 -179.482 1069C-167.406 1029.36 -154.77 979.446 -144.814 932.052C-131.574 869.025 -123.192 812.237 -119.901 763.264C-115.025 710.729 -98.5115 655.292 -74.5983 611.199C-51.0779 567.829 -22.8163 539.49 2.9411 533.451C15.4602 530.548 29.902 526.558 46.6239 521.938C99.9508 507.206 172.984 487.029 250.958 484.758C273.263 481.754 290.483 495.085 302.186 524.379C315.049 556.576 321.103 606.659 320.18 673.237C320.178 673.393 320.176 673.557 320.173 673.712C319.324 732.947 312.838 802.626 301.413 875.273C278.407 1021.56 240.43 1149.5 206.912 1193.63C188.871 1218.6 169.292 1236.67 147.048 1248.88C126.98 1259.9 105.238 1265.83 80.5826 1267.03C33.5958 1269.3 -17.5614 1253.45 -65.9309 1237.01L-65.9355 1237.01C-115.316 1220.71 -156.984 1183.88 -174.675 1140.88C-180.846 1125.88 -183.846 1110.69 -183.634 1095.94Z" fill="url(#paint10_linear_2010_15404)"/>
</mask>
<g mask="url(#mask5_2010_15404)">
<path d="M321.667 674.33C321.669 674.17 321.671 674.013 321.673 673.853C322.586 606.955 316.453 556.548 303.446 524.032C291.404 493.93 273.69 480.213 250.797 483.263C172.677 485.426 99.5057 505.516 46.0795 520.185C29.3499 524.779 14.9006 528.746 2.38572 531.627C-23.6744 537.694 -52.211 566.198 -75.9079 609.826C-99.9454 654.082 -116.54 709.752 -121.435 762.562C-124.713 811.45 -133.077 868.12 -146.296 931.026C-156.241 978.346 -168.863 1028.18 -180.927 1067.75C-187.954 1090.91 -186.251 1116.3 -176 1141.19C-158.075 1184.7 -115.983 1221.98 -66.1533 1238.47C-17.6381 1255 33.6833 1270.96 80.8881 1268.74C105.71 1267.57 127.601 1261.63 147.814 1250.57C170.219 1238.32 189.932 1220.18 208.082 1195.1C241.757 1150.85 279.868 1022.67 302.908 876.159C314.342 803.439 320.828 733.66 321.667 674.33ZM-183.885 1095.54C-183.755 1086.34 -182.374 1077.31 -179.734 1068.61C-167.655 1028.99 -155.017 979.098 -145.061 931.722C-131.821 868.72 -123.443 811.95 -120.161 762.988C-115.292 710.465 -98.7733 655.057 -74.844 611.001C-51.3078 567.668 -23.0214 539.372 2.76337 533.369C15.2958 530.484 29.7528 526.514 46.4923 521.918C99.8752 507.261 172.985 487.188 251.046 485.024C273.375 482.051 290.618 495.405 302.341 524.712C315.226 556.923 321.299 607.008 320.391 673.578C320.389 673.734 320.387 673.898 320.385 674.053C319.548 733.28 313.072 802.942 301.652 875.566C278.655 1021.81 240.667 1149.68 207.122 1193.76C189.067 1218.7 169.471 1236.74 147.205 1248.92C127.116 1259.91 105.352 1265.81 80.6691 1266.97C33.6302 1269.18 -17.588 1253.26 -66.0156 1236.75L-66.0202 1236.75C-115.46 1220.39 -157.183 1183.5 -174.905 1140.48C-181.086 1125.48 -184.093 1110.29 -183.885 1095.54Z" fill="url(#paint11_linear_2010_15404)"/>
</g>
<mask id="mask6_2010_15404" style="mask-type:alpha" maskUnits="userSpaceOnUse" x="-158" y="530" width="450" height="678">
<path d="M291.025 682.601C291.766 631.031 287.185 591.814 277.383 565.91C268.066 541.286 254.201 529.607 236.168 531.195C166.891 525.95 90.166 544.072 34.1439 557.304C25.3534 559.38 17.0487 561.342 9.57805 563.014C-16.4641 568.912 -42.9502 593.134 -65.002 631.219C-87.2363 669.62 -102.449 717.93 -107.838 767.25C-110.492 801.573 -120.375 896.144 -154.805 1033.37C-159.868 1053.71 -157.576 1075.85 -148.171 1097.41C-131.768 1135 -95.3651 1167.07 -53.1698 1181.11C-13.6814 1194.77 31.9884 1209.16 74.2466 1206.9C118.905 1204.5 155.219 1183.67 185.265 1143.22C200.724 1123.71 217.304 1086.27 233.202 1034.96C248.345 986.093 261.826 928.313 272.188 867.868C282.887 805.45 289.316 745.381 290.776 694.155C290.889 690.239 290.971 686.385 291.025 682.601ZM-156.246 1053.94C-156.149 1047.18 -155.3 1040.53 -153.692 1034.07C-148.184 1012.12 -137.448 967.422 -127.44 914.743C-116.932 859.446 -109.946 809.961 -106.677 767.663C-101.318 718.615 -86.1778 670.539 -64.0495 632.321C-42.1475 594.495 -15.8792 570.446 9.9158 564.604C17.3903 562.932 25.696 560.969 34.4899 558.893C90.4697 545.669 167.138 527.56 236.297 532.806L236.365 532.806C253.857 531.25 267.314 542.585 276.361 566.495C286.629 593.632 291.21 637.677 289.607 693.876C288.149 745.006 281.731 804.975 271.046 867.302C260.698 927.669 247.235 985.369 232.116 1034.17C216.271 1085.3 199.772 1122.58 184.402 1141.98C154.527 1182.2 118.432 1202.91 74.0436 1205.29C31.9411 1207.54 -13.6278 1193.18 -53.0356 1179.54L-53.0414 1179.54C-94.8982 1165.62 -130.974 1133.89 -147.19 1096.72C-153.404 1082.48 -156.448 1067.97 -156.246 1053.94Z" fill="url(#paint12_linear_2010_15404)"/>
</mask>
<g mask="url(#mask6_2010_15404)">
<path d="M291.217 682.909C291.946 631.346 287.35 592.127 277.532 566.213C268.198 541.578 254.315 529.881 236.262 531.445C166.907 526.104 90.1002 544.118 34.0188 557.272C25.219 559.336 16.9054 561.286 9.42689 562.947C-16.6429 568.809 -43.1527 592.992 -65.22 631.042C-87.4699 669.408 -102.688 717.692 -108.071 766.999C-110.72 801.314 -120.591 895.86 -155.027 1033.02C-160.091 1053.35 -157.79 1075.5 -148.369 1097.06C-131.94 1134.68 -95.4882 1166.79 -53.2425 1180.88C-13.7067 1194.6 32.0175 1209.05 74.3223 1206.85C119.03 1204.52 155.38 1183.74 185.45 1143.33C200.921 1123.84 217.51 1086.43 233.414 1035.15C248.562 986.308 262.044 928.553 272.403 868.129C283.099 805.733 289.52 745.68 290.97 694.462C291.082 690.546 291.164 686.693 291.217 682.909ZM-156.465 1053.58C-156.369 1046.83 -155.521 1040.18 -153.912 1033.72C-148.403 1011.78 -137.666 967.107 -127.659 914.448C-117.153 859.171 -110.171 809.701 -106.909 767.412C-101.555 718.378 -86.41 670.329 -64.2661 632.146C-42.3488 594.354 -16.0569 570.344 9.76539 564.538C17.2478 562.876 25.5623 560.925 34.3655 558.861C90.4046 545.716 167.154 527.715 236.391 533.055L236.46 533.055C253.971 531.524 267.445 542.876 276.509 566.796C286.794 593.944 291.391 637.99 289.8 694.181C288.353 745.303 281.942 805.257 271.26 867.561C260.915 927.908 247.451 985.582 232.326 1034.35C216.476 1085.46 199.968 1122.71 184.585 1142.08C154.686 1182.27 118.556 1202.92 74.1187 1205.23C31.9697 1207.43 -13.6534 1193.01 -53.1085 1179.32L-53.1143 1179.32C-95.0212 1165.34 -131.145 1133.56 -147.387 1096.38C-153.612 1082.13 -156.663 1067.62 -156.465 1053.58Z" fill="url(#paint13_linear_2010_15404)"/>
</g>
<mask id="mask7_2010_15404" style="mask-type:alpha" maskUnits="userSpaceOnUse" x="-131" y="573" width="393" height="573">
<path d="M260.954 692.857C261.48 656.24 258.326 627.196 251.679 608.067C245.007 588.862 234.893 579.217 221.618 579.398C159.572 563.466 59.3818 585.085 16.5926 594.318C-36.8494 605.983 -82.5314 678.909 -94.499 771.659C-101.244 845.981 -116.844 931.945 -126.164 983.305C-127.154 988.759 -128.083 993.875 -128.933 998.605C-132.053 1016.17 -129.127 1035.13 -120.478 1053.43C-105.547 1085.03 -74.8088 1111.87 -40.2635 1123.49C-5.17667 1135.93 32.1887 1147.14 67.6925 1145C105.581 1142.71 136.645 1125.19 162.659 1091.46C190.077 1058.69 221.15 967.782 241.81 859.865C251.744 807.976 258.118 757.808 260.242 714.786C260.616 707.21 260.852 699.89 260.954 692.857ZM-129.078 1011.57C-129.018 1007.36 -128.628 1003.21 -127.904 999.129C-127.053 994.402 -126.125 989.288 -125.135 983.834C-115.81 932.444 -100.202 846.432 -93.4527 772.063C-81.5547 679.856 -36.1774 607.343 16.8925 595.759C59.6415 586.533 159.754 564.93 221.615 580.843L221.668 580.856L221.721 580.856C234.521 580.657 244.283 589.971 250.735 608.542C258.572 631.099 261.495 667.739 259.186 714.492C257.066 757.428 250.703 807.51 240.783 859.319C220.166 967.012 189.2 1057.68 161.893 1090.32C104.121 1165.24 30.4102 1147.09 -40.1384 1122.08L-40.1458 1122.08C-74.4018 1110.56 -104.853 1084 -119.616 1052.76C-126.071 1039.1 -129.271 1025.07 -129.078 1011.57Z" fill="url(#paint14_linear_2010_15404)"/>
</mask>
<g mask="url(#mask7_2010_15404)">
<path d="M261.127 693.131C261.644 656.519 258.48 627.474 251.821 608.338C245.137 589.126 235.009 579.469 221.719 579.631C159.6 563.616 59.3045 585.094 16.4699 594.268C-37.0287 605.858 -82.7441 678.712 -94.7029 771.435C-101.438 845.739 -117.035 931.672 -126.353 983.013C-127.342 988.465 -128.271 993.579 -129.122 998.308C-132.24 1015.87 -129.307 1034.83 -120.644 1053.14C-105.688 1084.75 -74.9098 1111.64 -40.3233 1123.3C-5.19443 1135.79 32.2152 1147.05 67.7579 1144.95C105.688 1142.72 136.783 1125.25 162.817 1091.55C190.258 1058.83 221.343 967.969 242.001 860.093C251.934 808.224 258.303 758.07 260.419 715.057C260.791 707.482 261.026 700.163 261.127 693.131ZM-129.263 1011.27C-129.204 1007.06 -128.815 1002.91 -128.091 998.833C-127.24 994.107 -126.312 988.995 -125.323 983.543C-115.999 932.172 -100.394 846.191 -93.6554 771.84C-81.766 679.661 -36.3556 607.218 16.7705 595.709C59.5648 586.543 159.783 565.08 221.717 581.076L221.77 581.089L221.823 581.089C234.638 580.907 244.413 590.234 250.876 608.812C258.727 631.377 261.662 668.017 259.361 714.761C257.249 757.69 250.891 807.756 240.973 859.546C220.358 967.198 189.38 1057.82 162.05 1090.41C104.231 1165.24 30.4347 1146.99 -40.1983 1121.89L-40.2058 1121.89C-74.5025 1110.32 -104.994 1083.72 -119.78 1052.47C-126.246 1038.8 -129.454 1024.77 -129.263 1011.27Z" fill="url(#paint15_linear_2010_15404)"/>
</g>
<mask id="mask8_2010_15404" style="mask-type:alpha" maskUnits="userSpaceOnUse" x="-104" y="613" width="336" height="471">
<path d="M231.584 703.912C231.906 681.529 230.205 663.165 226.378 650.239C222.256 636.319 215.771 628.706 207.103 627.612C190.313 616.806 161.482 611.999 121.406 613.325C92.2123 614.29 56.566 618.771 23.6078 625.622C-29.257 636.722 -68.4218 692.963 -81.1587 776.067C-84.3789 805.462 -88.1748 835.962 -91.8466 865.459C-96.5948 903.606 -101.08 939.638 -103.059 963.858C-104.669 984.256 -97.3126 1006.21 -82.3572 1025.67C-68.1817 1044.11 -48.1373 1058.76 -27.3596 1065.87C20.1802 1083.31 44.9084 1084.24 61.1395 1083.1C92.2422 1080.91 118.055 1066.72 140.053 1039.7C164.489 1012.55 191.905 940.615 211.586 851.985C224.16 795.369 231.016 743.394 231.584 703.912ZM-102.321 968.579C-102.3 967.102 -102.231 965.635 -102.117 964.173C-100.142 939.99 -95.6587 903.976 -90.9125 865.847C-87.2401 836.344 -83.4434 805.837 -80.2267 776.465C-67.5653 693.86 -28.6485 637.941 23.871 626.913C56.7928 620.07 92.3976 615.593 121.555 614.629C161.544 613.307 190.253 618.087 206.885 628.836L206.97 628.891L207.059 628.902C215.336 629.902 221.543 637.197 225.507 650.586C236.002 686.033 230.319 763.001 210.678 851.455C191.04 939.888 163.723 1011.62 139.387 1038.66C117.516 1065.52 91.8684 1079.63 60.965 1081.8C30.197 1083.96 -2.33454 1073.75 -27.2386 1064.61L-27.2471 1064.61C-47.8498 1057.56 -67.7184 1043.05 -81.7588 1024.78C-95.3805 1007.05 -102.589 987.267 -102.321 968.579Z" fill="url(#paint16_linear_2010_15404)"/>
</mask>
<g mask="url(#mask8_2010_15404)">
<path d="M231.736 704.152C232.053 681.772 230.346 663.408 226.512 650.478C222.382 636.554 215.889 628.934 207.211 627.828C190.399 617 161.535 612.154 121.415 613.425C92.1893 614.35 56.5046 618.782 23.5116 625.587C-29.4092 636.613 -68.6041 692.794 -81.3356 775.87C-84.5525 805.257 -88.3455 835.748 -92.0143 865.236C-96.7589 903.372 -101.24 939.393 -103.216 963.607C-104.823 984.001 -97.4534 1005.96 -82.4769 1025.44C-68.2814 1043.9 -48.2113 1058.58 -27.4089 1065.71C20.1876 1083.21 44.9433 1084.18 61.1921 1083.06C92.3288 1080.92 118.166 1066.76 140.182 1039.77C164.639 1012.66 192.068 940.771 211.751 852.179C224.325 795.587 231.177 743.628 231.736 704.152ZM-102.476 968.329C-102.455 966.852 -102.387 965.385 -102.273 963.924C-100.301 939.747 -95.8216 903.743 -91.0792 865.625C-87.4096 836.131 -83.6159 805.633 -80.4025 776.269C-67.7464 693.691 -28.7997 637.832 23.7753 626.878C56.732 620.081 92.3751 615.653 121.565 614.729C161.598 613.462 190.339 618.28 206.993 629.051L207.077 629.106L207.167 629.117C215.453 630.128 221.669 637.431 225.64 650.824C236.155 686.281 230.484 763.232 210.841 851.648C191.203 940.043 163.872 1011.73 139.516 1038.73C117.627 1065.56 91.9543 1079.63 61.0171 1081.76C30.2156 1083.88 -2.35433 1073.62 -27.2881 1064.46L-27.2967 1064.45C-47.9238 1057.38 -67.8178 1042.83 -81.878 1024.55C-95.5189 1006.81 -102.74 987.014 -102.476 968.329Z" fill="url(#paint17_linear_2010_15404)"/>
</g>
<mask id="mask9_2010_15404" style="mask-type:alpha" maskUnits="userSpaceOnUse" x="-78" y="649" width="282" height="373">
<path d="M203.564 716.664C203.696 707.408 203.191 699.461 202.005 693.127C200.272 683.862 197.133 678.071 192.675 675.909C183.428 657.124 151.202 651.356 125.748 649.827C97.0481 648.104 61.4882 650.758 30.6251 656.928C4.07052 662.278 -16.7432 674.664 -33.0051 694.793C-49.6124 715.349 -60.9984 743.377 -67.8139 780.478C-75.6174 837.207 -79.2887 895.549 -77.1675 929.137C-76.0794 945.505 -68.6497 962.796 -56.2471 977.827C-44.6447 991.889 -29.4102 1002.98 -14.4497 1008.26C25.0375 1023.51 75.7139 1034.99 117.452 987.943C138.751 966.591 162.685 913.181 181.458 845.089C195.175 795.33 203.108 748.35 203.564 716.664ZM-76.8718 900.346C-76.3953 867.125 -72.8675 823.538 -66.9981 780.867C-60.2237 743.991 -48.9053 716.12 -32.4026 695.694C-16.2454 675.696 4.4454 663.388 30.8525 658.067C88.539 646.536 176.703 644.677 192.093 676.648L192.189 676.847L192.349 676.92C196.555 678.864 199.531 684.364 201.198 693.268C206.401 721.073 198.344 780.457 180.669 844.558C161.942 912.484 138.098 965.732 116.885 986.997C75.3914 1033.76 24.963 1022.33 -14.3351 1007.15L-14.3454 1007.14C-29.1667 1001.92 -44.257 990.935 -55.7471 977.009C-67.9582 962.209 -75.2702 945.227 -76.3373 929.19C-76.857 920.944 -77.0274 911.197 -76.8718 900.346Z" fill="url(#paint18_linear_2010_15404)"/>
</mask>
<g mask="url(#mask9_2010_15404)">
<path d="M203.698 716.872C203.828 707.617 203.321 699.671 202.132 693.336C200.395 684.07 197.252 678.275 192.788 676.107C183.526 657.312 151.264 651.501 125.782 649.938C97.0497 648.176 61.4515 650.782 30.5559 656.908C3.97345 662.222 -16.8602 674.578 -33.1353 694.682C-49.7562 715.213 -61.1482 743.222 -67.9627 780.308C-75.7616 837.02 -79.4235 895.349 -77.2923 928.935C-76.1992 945.303 -68.7573 962.601 -56.3377 977.647C-44.7194 991.723 -29.4655 1002.83 -14.4875 1008.13C25.0466 1023.44 75.7812 1034.98 117.554 987.998C138.872 966.678 162.819 913.308 181.598 845.25C195.319 795.516 203.249 748.553 203.698 716.872ZM-77.0029 900.149C-76.5335 866.932 -73.0119 823.356 -67.1458 780.698C-60.3725 743.837 -49.0481 715.985 -32.532 695.584C-16.3617 675.61 4.34899 663.333 30.7838 658.047C88.5309 646.596 176.791 644.858 192.205 676.845L192.302 677.044L192.462 677.118C196.672 679.068 199.654 684.571 201.324 693.476C206.539 721.284 198.487 780.649 180.808 844.718C162.076 912.61 138.218 965.818 116.987 987.051C75.458 1033.76 24.9717 1022.26 -14.3729 1007.02L-14.3833 1007.02C-29.222 1001.77 -44.3314 990.77 -55.8374 976.83C-68.0653 962.015 -75.3892 945.026 -76.4611 928.99C-76.9833 920.744 -77.1561 910.998 -77.0029 900.149Z" fill="url(#paint19_linear_2010_15404)"/>
</g>
<mask id="mask10_2010_15404" style="mask-type:alpha" maskUnits="userSpaceOnUse" x="-59" y="683" width="239" height="277">
<path d="M179.259 733.892C179.316 729.901 178.987 726.708 178.24 724.461C179.044 717.95 177.616 712.047 174.002 706.918C163.43 691.907 136.601 686.411 115.956 684.443C91.3908 682.101 62.1244 683.507 37.6695 688.203C10.0069 693.54 -8.49068 702.099 -22.3078 715.959C-37.0482 730.744 -47.261 752.64 -54.4483 784.868C-61.2743 821.967 -60.0103 864.963 -51.2326 894.434C-43.2739 920.867 -19.7104 943.761 -1.52525 950.628C36.029 966.472 68.4611 961.609 94.8675 936.175C105.655 926.932 116.992 911.371 128.549 889.939C138.555 871.382 148.413 848.895 157.056 824.907C170.586 787.351 178.996 752.215 179.259 733.892ZM177.487 724.475L177.541 724.631C178.289 726.781 178.618 729.882 178.562 733.772C177.986 774.104 136.181 899.527 94.4145 935.32C68.1639 960.604 35.929 965.429 -1.40858 949.675L-1.42012 949.67C-19.4079 942.88 -42.7109 920.262 -50.5679 894.165C-59.2864 864.892 -60.5367 822.141 -53.7488 785.254C-46.6064 753.228 -36.4632 731.468 -21.8324 716.792C-8.10068 703.02 10.3097 694.507 37.8628 689.191C62.2731 684.504 91.4855 683.1 116.004 685.437C136.509 687.391 163.132 692.817 173.517 707.56C176.964 712.452 178.306 718.093 177.508 724.318L177.487 724.475Z" fill="url(#paint20_linear_2010_15404)"/>
</mask>
<g mask="url(#mask10_2010_15404)">
<path d="M179.379 734.069C179.435 730.079 179.105 726.886 178.357 724.639C179.16 718.13 177.729 712.225 174.11 707.091C163.522 692.068 136.663 686.536 115.995 684.54C91.4017 682.165 62.1034 683.531 37.6226 688.193C9.93072 693.492 -8.58526 702.025 -22.4144 715.863C-37.1676 730.627 -47.3866 752.506 -54.5742 784.72C-61.3992 821.805 -60.1237 864.797 -51.3295 894.277C-43.3558 920.717 -19.761 943.641 -1.55422 950.531C36.0452 966.425 68.5119 961.607 94.9415 936.212C105.738 926.985 117.084 911.441 128.649 890.028C138.662 871.487 148.525 849.016 157.173 825.043C170.709 787.51 179.119 752.39 179.379 734.069ZM177.603 724.651L177.657 724.807C178.407 726.958 178.736 730.06 178.681 733.949C178.114 774.275 136.292 899.625 94.4878 935.357C68.2141 960.601 35.9448 965.382 -1.43765 949.579L-1.4492 949.574C-19.4584 942.76 -42.7924 920.113 -50.6641 894.009C-59.3991 864.728 -60.6607 821.98 -53.8739 785.107C-46.7311 753.095 -36.5818 731.351 -21.9382 716.697C-8.19461 702.945 10.2341 694.458 37.8164 689.181C62.2525 684.528 91.4968 683.164 116.043 685.535C136.571 687.516 163.225 692.977 173.625 707.733C177.076 712.629 178.422 718.272 177.623 724.494L177.603 724.651Z" fill="url(#paint21_linear_2010_15404)"/>
</g>
<mask id="mask11_2010_15404" style="mask-type:alpha" maskUnits="userSpaceOnUse" x="-44" y="716" width="213" height="183">
<path d="M168.44 755.641C168.497 751.646 167.676 747.885 165.973 744.378C161.703 735.583 149.6 723.973 116.194 718.607C93.801 715.01 67.0764 715.323 44.7056 719.443C18.2682 724.313 1.28536 727.93 -11.6074 737.089C-24.9449 746.563 -33.4842 761.667 -41.0819 789.218C-45.2708 804.404 -44.538 819.804 -38.9093 834.988C-26.7355 867.82 4.34286 889.37 11.3835 892.946C24.5352 899.624 39.2618 899.784 55.1561 893.422C68.8366 887.945 83.423 877.644 98.5091 862.806C125.779 835.984 149.981 798.726 163.538 772.801C166.729 766.7 168.364 760.963 168.44 755.641ZM-43.1361 807.815C-43.0491 801.73 -42.1726 795.653 -40.5054 789.609C-32.9561 762.235 -24.4867 747.239 -11.2709 737.852C1.54586 728.747 18.487 725.14 44.8666 720.282C85.6534 712.77 152.073 717.17 165.479 744.779C169.284 752.616 168.459 761.859 163.024 772.252C149.49 798.131 125.33 835.324 98.11 862.097C83.0709 876.891 68.5378 887.156 54.9138 892.609C39.1437 898.922 24.5456 898.771 11.5246 892.159C4.53673 888.611 -26.3047 867.232 -38.3711 834.69C-41.6745 825.78 -43.2649 816.79 -43.1361 807.815Z" fill="url(#paint22_linear_2010_15404)"/>
</mask>
<g mask="url(#mask11_2010_15404)">
<path d="M168.557 755.797C168.613 751.803 167.791 748.041 166.085 744.532C161.808 735.732 149.689 724.108 116.245 718.697C93.8265 715.071 67.0725 715.347 44.6779 719.436C18.2125 724.27 1.21177 727.863 -11.6931 737.003C-25.0432 746.458 -33.5885 761.548 -41.1883 789.085C-45.3783 804.263 -44.6412 819.662 -39.0028 834.851C-26.8081 867.695 4.30937 889.284 11.3586 892.87C24.5263 899.564 39.2692 899.744 55.1796 893.404C68.8739 887.947 83.474 877.668 98.5733 862.851C125.867 836.07 150.087 798.85 163.653 772.948C166.846 766.852 168.482 761.118 168.557 755.797ZM-43.2405 807.676C-43.1548 801.593 -42.2787 795.518 -40.611 789.477C-33.0596 762.117 -24.5843 747.135 -11.356 737.766C1.47274 728.68 18.4317 725.097 44.8393 720.275C85.6694 712.819 152.163 717.309 165.59 744.932C169.401 752.773 168.577 762.014 163.138 772.398C149.596 798.255 125.418 835.41 98.1736 862.143C83.1213 876.913 68.5746 887.157 54.9368 892.591C39.1508 898.882 24.5365 898.711 11.4996 892.083C4.50328 888.526 -26.377 867.108 -38.4641 834.554C-41.7732 825.641 -43.3674 816.65 -43.2405 807.676Z" fill="url(#paint23_linear_2010_15404)"/>
</g>
<defs>
<linearGradient id="paint0_linear_2010_15404" x1="-166.95" y1="544.409" x2="589.55" y2="1058.34" gradientUnits="userSpaceOnUse">
<stop stop-color="white"/>
<stop offset="0.0436" stop-color="#B4B4B4"/>
<stop offset="0.1507"/>
<stop offset="0.1714" stop-color="#171717"/>
<stop offset="0.3859" stop-color="white"/>
<stop offset="0.6326" stop-color="#E6E6E6"/>
<stop offset="0.8567" stop-color="#1A1A1A"/>
<stop offset="0.9987"/>
</linearGradient>
<linearGradient id="paint1_linear_2010_15404" x1="-167.371" y1="544.044" x2="589.825" y2="1059.38" gradientUnits="userSpaceOnUse">
<stop stop-color="#0522AC"/>
<stop offset="1" stop-color="#34384C" stop-opacity="0"/>
</linearGradient>
<linearGradient id="paint2_linear_2010_15404" x1="-151.622" y1="561.934" x2="546.712" y2="1036.35" gradientUnits="userSpaceOnUse">
<stop stop-color="white"/>
<stop offset="0.0436" stop-color="#B4B4B4"/>
<stop offset="0.1507"/>
<stop offset="0.1714" stop-color="#171717"/>
<stop offset="0.3859" stop-color="white"/>
<stop offset="0.6326" stop-color="#E6E6E6"/>
<stop offset="0.8567" stop-color="#1A1A1A"/>
<stop offset="0.9987"/>
</linearGradient>
<linearGradient id="paint3_linear_2010_15404" x1="-152.01" y1="561.599" x2="546.965" y2="1037.31" gradientUnits="userSpaceOnUse">
<stop stop-color="#0522AC"/>
<stop offset="1" stop-color="#34384C" stop-opacity="0"/>
</linearGradient>
<linearGradient id="paint4_linear_2010_15404" x1="-136.455" y1="579.222" x2="503.947" y2="1014.28" gradientUnits="userSpaceOnUse">
<stop stop-color="white"/>
<stop offset="0.0436" stop-color="#B4B4B4"/>
<stop offset="0.1507"/>
<stop offset="0.1714" stop-color="#171717"/>
<stop offset="0.3859" stop-color="white"/>
<stop offset="0.6326" stop-color="#E6E6E6"/>
<stop offset="0.8567" stop-color="#1A1A1A"/>
<stop offset="0.9987"/>
</linearGradient>
<linearGradient id="paint5_linear_2010_15404" x1="-136.811" y1="578.915" x2="504.18" y2="1015.17" gradientUnits="userSpaceOnUse">
<stop stop-color="#0522AC"/>
<stop offset="1" stop-color="#34384C" stop-opacity="0"/>
</linearGradient>
<linearGradient id="paint6_linear_2010_15404" x1="-121.276" y1="596.491" x2="461.206" y2="992.203" gradientUnits="userSpaceOnUse">
<stop stop-color="white"/>
<stop offset="0.0436" stop-color="#B4B4B4"/>
<stop offset="0.1507"/>
<stop offset="0.1714" stop-color="#171717"/>
<stop offset="0.3859" stop-color="white"/>
<stop offset="0.6326" stop-color="#E6E6E6"/>
<stop offset="0.8567" stop-color="#1A1A1A"/>
<stop offset="0.9987"/>
</linearGradient>
<linearGradient id="paint7_linear_2010_15404" x1="-121.6" y1="596.21" x2="461.415" y2="993.003" gradientUnits="userSpaceOnUse">
<stop stop-color="#0522AC"/>
<stop offset="1" stop-color="#34384C" stop-opacity="0"/>
</linearGradient>
<linearGradient id="paint8_linear_2010_15404" x1="-106.255" y1="613.506" x2="418.549" y2="970.034" gradientUnits="userSpaceOnUse">
<stop stop-color="white"/>
<stop offset="0.0436" stop-color="#B4B4B4"/>
<stop offset="0.1507"/>
<stop offset="0.1714" stop-color="#171717"/>
<stop offset="0.3859" stop-color="white"/>
<stop offset="0.6326" stop-color="#E6E6E6"/>
<stop offset="0.8567" stop-color="#1A1A1A"/>
<stop offset="0.9987"/>
</linearGradient>
<linearGradient id="paint9_linear_2010_15404" x1="-106.547" y1="613.254" x2="418.738" y2="970.756" gradientUnits="userSpaceOnUse">
<stop stop-color="#0522AC"/>
<stop offset="1" stop-color="#34384C" stop-opacity="0"/>
</linearGradient>
<linearGradient id="paint10_linear_2010_15404" x1="-91.2864" y1="630.381" x2="375.963" y2="947.81" gradientUnits="userSpaceOnUse">
<stop stop-color="white"/>
<stop offset="0.0436" stop-color="#B4B4B4"/>
<stop offset="0.1507"/>
<stop offset="0.1714" stop-color="#171717"/>
<stop offset="0.3859" stop-color="white"/>
<stop offset="0.6326" stop-color="#E6E6E6"/>
<stop offset="0.8567" stop-color="#1A1A1A"/>
<stop offset="0.9987"/>
</linearGradient>
<linearGradient id="paint11_linear_2010_15404" x1="-91.5459" y1="630.158" x2="376.13" y2="948.453" gradientUnits="userSpaceOnUse">
<stop stop-color="#0522AC"/>
<stop offset="1" stop-color="#34384C" stop-opacity="0"/>
</linearGradient>
<linearGradient id="paint12_linear_2010_15404" x1="-76.4762" y1="646.938" x2="333.521" y2="925.472" gradientUnits="userSpaceOnUse">
<stop stop-color="white"/>
<stop offset="0.0436" stop-color="#B4B4B4"/>
<stop offset="0.1507"/>
<stop offset="0.1714" stop-color="#171717"/>
<stop offset="0.3859" stop-color="white"/>
<stop offset="0.6326" stop-color="#E6E6E6"/>
<stop offset="0.8567" stop-color="#1A1A1A"/>
<stop offset="0.9987"/>
</linearGradient>
<linearGradient id="paint13_linear_2010_15404" x1="-76.7038" y1="646.744" x2="333.666" y2="926.036" gradientUnits="userSpaceOnUse">
<stop stop-color="#0522AC"/>
<stop offset="1" stop-color="#34384C" stop-opacity="0"/>
</linearGradient>
<linearGradient id="paint14_linear_2010_15404" x1="-61.8267" y1="663.106" x2="291.263" y2="902.98" gradientUnits="userSpaceOnUse">
<stop stop-color="white"/>
<stop offset="0.0436" stop-color="#B4B4B4"/>
<stop offset="0.1507"/>
<stop offset="0.1714" stop-color="#171717"/>
<stop offset="0.3859" stop-color="white"/>
<stop offset="0.6326" stop-color="#E6E6E6"/>
<stop offset="0.8567" stop-color="#1A1A1A"/>
<stop offset="0.9987"/>
</linearGradient>
<linearGradient id="paint15_linear_2010_15404" x1="-62.0202" y1="662.941" x2="291.388" y2="903.466" gradientUnits="userSpaceOnUse">
<stop stop-color="#0522AC"/>
<stop offset="1" stop-color="#34384C" stop-opacity="0"/>
</linearGradient>
<linearGradient id="paint16_linear_2010_15404" x1="-47.2465" y1="678.864" x2="249.313" y2="880.333" gradientUnits="userSpaceOnUse">
<stop stop-color="white"/>
<stop offset="0.0436" stop-color="#B4B4B4"/>
<stop offset="0.1507"/>
<stop offset="0.1714" stop-color="#171717"/>
<stop offset="0.3859" stop-color="white"/>
<stop offset="0.6326" stop-color="#E6E6E6"/>
<stop offset="0.8567" stop-color="#1A1A1A"/>
<stop offset="0.9987"/>
</linearGradient>
<linearGradient id="paint17_linear_2010_15404" x1="-47.4091" y1="678.724" x2="249.413" y2="880.737" gradientUnits="userSpaceOnUse">
<stop stop-color="#0522AC"/>
<stop offset="1" stop-color="#34384C" stop-opacity="0"/>
</linearGradient>
<linearGradient id="paint18_linear_2010_15404" x1="-32.7798" y1="693.712" x2="208.029" y2="857.306" gradientUnits="userSpaceOnUse">
<stop stop-color="white"/>
<stop offset="0.0436" stop-color="#B4B4B4"/>
<stop offset="0.1507"/>
<stop offset="0.1714" stop-color="#171717"/>
<stop offset="0.3859" stop-color="white"/>
<stop offset="0.6326" stop-color="#E6E6E6"/>
<stop offset="0.8567" stop-color="#1A1A1A"/>
<stop offset="0.9987"/>
</linearGradient>
<linearGradient id="paint19_linear_2010_15404" x1="-32.909" y1="693.602" x2="208.111" y2="857.637" gradientUnits="userSpaceOnUse">
<stop stop-color="#0522AC"/>
<stop offset="1" stop-color="#34384C" stop-opacity="0"/>
</linearGradient>
<linearGradient id="paint20_linear_2010_15404" x1="-15.8435" y1="703.856" x2="170.677" y2="830.57" gradientUnits="userSpaceOnUse">
<stop stop-color="white"/>
<stop offset="0.0436" stop-color="#B4B4B4"/>
<stop offset="0.1507"/>
<stop offset="0.1714" stop-color="#171717"/>
<stop offset="0.3859" stop-color="white"/>
<stop offset="0.6326" stop-color="#E6E6E6"/>
<stop offset="0.8567" stop-color="#1A1A1A"/>
<stop offset="0.9987"/>
</linearGradient>
<linearGradient id="paint21_linear_2010_15404" x1="-15.9453" y1="703.772" x2="170.74" y2="830.828" gradientUnits="userSpaceOnUse">
<stop stop-color="#0522AC"/>
<stop offset="1" stop-color="#34384C" stop-opacity="0"/>
</linearGradient>
<linearGradient id="paint22_linear_2010_15404" x1="1.62753" y1="711.581" x2="142.939" y2="807.58" gradientUnits="userSpaceOnUse">
<stop stop-color="white"/>
<stop offset="0.0436" stop-color="#B4B4B4"/>
<stop offset="0.1507"/>
<stop offset="0.1714" stop-color="#171717"/>
<stop offset="0.3859" stop-color="white"/>
<stop offset="0.6326" stop-color="#E6E6E6"/>
<stop offset="0.8567" stop-color="#1A1A1A"/>
<stop offset="0.9987"/>
</linearGradient>
<linearGradient id="paint23_linear_2010_15404" x1="1.55057" y1="711.516" x2="142.984" y2="807.774" gradientUnits="userSpaceOnUse">
<stop stop-color="#0522AC"/>
<stop offset="1" stop-color="#34384C" stop-opacity="0"/>
</linearGradient>
</defs>
</svg>
