<svg width="720" height="800" viewBox="0 0 720 800" fill="none" xmlns="http://www.w3.org/2000/svg">
<g clip-path="url(#clip0_2004_14867)">
<mask id="mask0_2004_14867" style="mask-type:alpha" maskUnits="userSpaceOnUse" x="-810" y="-183" width="1462" height="818">
<path d="M-613.65 338.217C-629.921 327.173 -645.326 316.194 -659.777 305.333C-739.136 245.695 -787.64 191.721 -803.942 144.911C-820.621 97.0179 -802.818 57.7864 -751.025 28.3066C-593.78 -61.1967 -479.687 -105.368 -404.191 -134.598C-370.21 -147.754 -343.371 -158.145 -324.844 -168.065L-324.233 -167.223L-324.844 -168.065C-294.022 -184.567 -224.529 -187.085 -143.485 -174.635C-56.2693 -161.237 25.0437 -133.775 79.6067 -99.2906C154.864 -51.7267 251.133 -15.8084 318.641 5.94771C397.278 31.2901 483.614 52.2907 549.589 62.1247C592.18 68.473 623.133 88.7155 639.1 120.666C666.747 175.99 645.997 259.17 584.946 337.746C556.009 374.991 526.087 413.503 494.686 448.958C459.97 488.157 427.117 519.274 394.25 544.088C355.004 573.719 314.716 595.387 271.084 610.331C222.367 627.019 170.584 635.027 112.776 634.811C14.0417 634.444 -194.918 564.261 -395.376 464.137C-477.375 423.18 -551.769 380.225 -613.65 338.217ZM604.422 84.3814C589.376 74.1679 570.816 67.3011 549.194 64.078C483.085 54.2242 396.594 33.1875 317.83 7.80392C250.185 -13.996 153.708 -49.995 78.2377 -97.6936C23.9496 -132.004 -57.0133 -159.337 -143.892 -172.683C-224.396 -185.05 -293.265 -182.635 -323.622 -166.382C-342.28 -156.392 -369.182 -145.977 -403.241 -132.79C-478.67 -103.587 -592.659 -59.4547 -749.748 29.9593C-800.595 58.8999 -818.083 97.3845 -801.73 144.343C-785.554 190.791 -737.282 244.454 -658.256 303.842C-588.954 355.923 -497.649 410.76 -394.214 462.423C-194.071 562.39 14.4156 632.463 112.787 632.828C170.293 633.042 221.792 625.081 270.228 608.49C313.61 593.631 353.679 572.077 392.725 542.598C465.977 487.294 525.481 410.709 583.025 336.645C643.647 258.62 664.321 176.162 636.978 121.448C629.429 106.343 618.454 93.9064 604.422 84.3814Z" fill="url(#paint0_linear_2004_14867)"/>
</mask>
<g mask="url(#mask0_2004_14867)">
<path d="M-613.65 338.217C-629.921 327.173 -645.326 316.194 -659.777 305.333C-739.136 245.695 -787.64 191.721 -803.942 144.911C-820.621 97.0179 -802.818 57.7864 -751.025 28.3066C-593.78 -61.1967 -479.687 -105.368 -404.191 -134.598C-370.21 -147.754 -343.371 -158.145 -324.844 -168.065L-324.233 -167.223L-324.844 -168.065C-294.022 -184.567 -224.529 -187.085 -143.485 -174.635C-56.2693 -161.237 25.0437 -133.775 79.6067 -99.2906C154.864 -51.7267 251.133 -15.8084 318.641 5.94771C397.278 31.2901 483.614 52.2907 549.589 62.1247C592.18 68.473 623.133 88.7155 639.1 120.666C666.747 175.99 645.997 259.17 584.946 337.746C556.009 374.991 526.087 413.503 494.686 448.958C459.97 488.157 427.117 519.274 394.25 544.088C355.004 573.719 314.716 595.387 271.084 610.331C222.367 627.019 170.584 635.027 112.776 634.811C14.0417 634.444 -194.918 564.261 -395.376 464.137C-477.375 423.18 -551.769 380.225 -613.65 338.217ZM604.422 84.3814C589.376 74.1679 570.816 67.3011 549.194 64.078C483.085 54.2242 396.594 33.1875 317.83 7.80392C250.185 -13.996 153.708 -49.995 78.2377 -97.6936C23.9496 -132.004 -57.0133 -159.337 -143.892 -172.683C-224.396 -185.05 -293.265 -182.635 -323.622 -166.382C-342.28 -156.392 -369.182 -145.977 -403.241 -132.79C-478.67 -103.587 -592.659 -59.4547 -749.748 29.9593C-800.595 58.8999 -818.083 97.3845 -801.73 144.343C-785.554 190.791 -737.282 244.454 -658.256 303.842C-588.954 355.923 -497.649 410.76 -394.214 462.423C-194.071 562.39 14.4156 632.463 112.787 632.828C170.293 633.042 221.792 625.081 270.228 608.49C313.61 593.631 353.679 572.077 392.725 542.598C465.977 487.294 525.481 410.709 583.025 336.645C643.647 258.62 664.321 176.162 636.978 121.448C629.429 106.343 618.454 93.9064 604.422 84.3814Z" fill="url(#paint1_linear_2004_14867)"/>
</g>
<mask id="mask1_2004_14867" style="mask-type:alpha" maskUnits="userSpaceOnUse" x="-756" y="-163" width="1349" height="756">
<path d="M-579.462 318.874C-592.329 310.139 -604.587 301.453 -616.188 292.845C-689.354 238.552 -734.184 189.407 -749.43 146.773C-764.845 103.67 -749.29 68.2985 -703.198 41.6416C-564.671 -39.755 -457.859 -83.6648 -387.18 -112.721C-354 -126.361 -327.793 -137.134 -309.133 -147.246C-278.963 -163.575 -213.522 -167.007 -138.346 -156.203C-57.8513 -144.634 18.2057 -119.522 70.3237 -87.3077C140.004 -43.7173 228.319 -10.2615 290.137 10.1295C362.758 34.0845 439.536 53.6066 500.784 63.6897C539.431 70.0594 567.476 89.0381 581.888 118.574C606.905 169.847 587.783 246.363 531.985 318.263L531.986 318.262C479.418 386.142 425.059 456.336 356.359 508.07C320.173 535.32 283.022 555.288 242.783 569.116C197.895 584.541 150.217 592.033 97.0277 592.021C5.71271 592.257 -187.335 528.689 -372.426 437.434C-450.524 398.93 -521.206 358.419 -579.462 318.874ZM549.186 83.9914C535.784 74.8931 519.39 68.6522 500.374 65.5176C439.006 55.4148 362.094 35.86 289.358 11.8673C227.418 -8.56406 138.917 -42.0937 69.0507 -85.8009C17.1987 -117.85 -58.5273 -142.843 -138.704 -154.367C-213.376 -165.099 -278.237 -161.768 -307.975 -145.672C-326.741 -135.503 -352.999 -124.708 -386.242 -111.042C-456.862 -82.0104 -563.582 -38.1383 -701.979 43.1819C-747.192 69.3305 -762.457 103.998 -747.356 146.226C-732.231 188.52 -687.622 237.376 -614.768 291.436C-550.75 338.944 -466.574 388.87 -371.347 435.819C-186.553 526.927 6.04767 590.394 97.0237 590.159C149.936 590.171 197.349 582.722 241.976 567.387C281.983 553.64 318.93 533.779 354.927 506.67C423.411 455.098 477.688 385.011 530.178 317.231V317.23C585.578 245.843 604.625 169.997 579.885 119.293C572.851 104.878 562.494 93.0253 549.186 83.9914Z" fill="url(#paint2_linear_2004_14867)"/>
</mask>
<g mask="url(#mask1_2004_14867)">
<path d="M-579.462 318.874C-592.329 310.139 -604.587 301.453 -616.188 292.845C-689.354 238.552 -734.184 189.407 -749.43 146.773C-764.845 103.67 -749.29 68.2985 -703.198 41.6416C-564.671 -39.755 -457.859 -83.6648 -387.18 -112.721C-354 -126.361 -327.793 -137.134 -309.133 -147.246C-278.963 -163.575 -213.522 -167.007 -138.346 -156.203C-57.8513 -144.634 18.2057 -119.522 70.3237 -87.3077C140.004 -43.7173 228.319 -10.2615 290.137 10.1295C362.758 34.0845 439.536 53.6066 500.784 63.6897C539.431 70.0594 567.476 89.0381 581.888 118.574C606.905 169.847 587.783 246.363 531.985 318.263L531.986 318.262C479.418 386.142 425.059 456.336 356.359 508.07C320.173 535.32 283.022 555.288 242.783 569.116C197.895 584.541 150.217 592.033 97.0277 592.021C5.71271 592.257 -187.335 528.689 -372.426 437.434C-450.524 398.93 -521.206 358.419 -579.462 318.874ZM549.186 83.9914C535.784 74.8931 519.39 68.6522 500.374 65.5176C439.006 55.4148 362.094 35.86 289.358 11.8673C227.418 -8.56406 138.917 -42.0937 69.0507 -85.8009C17.1987 -117.85 -58.5273 -142.843 -138.704 -154.367C-213.376 -165.099 -278.237 -161.768 -307.975 -145.672C-326.741 -135.503 -352.999 -124.708 -386.242 -111.042C-456.862 -82.0104 -563.582 -38.1383 -701.979 43.1819C-747.192 69.3305 -762.457 103.998 -747.356 146.226C-732.231 188.52 -687.622 237.376 -614.768 291.436C-550.75 338.944 -466.574 388.87 -371.347 435.819C-186.553 526.927 6.04767 590.394 97.0237 590.159C149.936 590.171 197.349 582.722 241.976 567.387C281.983 553.64 318.93 533.779 354.927 506.67C423.411 455.098 477.688 385.011 530.178 317.231V317.23C585.578 245.843 604.625 169.997 579.885 119.293C572.851 104.878 562.494 93.0253 549.186 83.9914Z" fill="url(#paint3_linear_2004_14867)"/>
</g>
<mask id="mask2_2004_14867" style="mask-type:alpha" maskUnits="userSpaceOnUse" x="-701" y="-143" width="1236" height="693">
<path d="M-545.217 299.655C-554.748 293.185 -563.889 286.754 -572.637 280.361C-639.613 231.412 -680.767 187.094 -694.956 148.638C-709.093 110.322 -695.775 78.8102 -655.372 54.9771C-534.67 -18.8332 -438.811 -60.7682 -368.817 -91.3874C-337.053 -105.283 -311.965 -116.258 -293.42 -126.43C-263.443 -142.835 -203.551 -147.074 -133.208 -137.772C-59.4183 -128.013 11.3817 -105.252 61.0397 -75.3261C177.222 -3.52058 358.485 48.0854 451.978 65.2542C486.689 71.6445 511.831 89.3637 524.685 116.498C547.055 163.721 529.557 233.568 479.02 298.782C433.716 357.511 382.365 424.078 318.464 472.055C285.34 496.923 251.326 515.192 214.479 527.902C173.42 542.066 129.849 549.043 81.2758 549.233C39.1768 549.651 -25.2642 536.177 -105.074 510.268C-181.741 485.378 -268.549 450.03 -349.509 410.735C-423.688 374.731 -490.647 336.697 -545.217 299.655ZM493.938 83.5538C482.191 75.5794 467.966 69.9781 451.552 66.9576C357.893 49.757 176.29 -1.95027 59.8638 -73.9061C10.4628 -103.677 -60.0262 -126.329 -133.518 -136.049C-203.387 -145.29 -262.756 -141.144 -292.33 -124.961C-310.956 -114.745 -336.084 -103.752 -367.896 -89.8351C-437.833 -59.24 -533.615 -17.3384 -654.21 56.4041C-693.804 79.7597 -706.857 110.612 -693.022 148.111C-678.95 186.251 -638.004 230.299 -571.322 279.034C-512.581 321.96 -435.535 366.98 -348.511 409.218C-267.639 448.47 -180.93 483.777 -104.357 508.636C-24.7812 534.47 39.4037 547.905 81.2587 547.489C129.578 547.299 172.904 540.363 213.721 526.283C250.353 513.648 284.177 495.48 317.127 470.742C380.823 422.919 432.093 356.456 477.328 297.817L477.329 297.816C527.499 233.076 544.923 163.85 522.803 117.154C516.288 103.398 506.541 92.1094 493.938 83.5538Z" fill="url(#paint4_linear_2004_14867)"/>
</mask>
<g mask="url(#mask2_2004_14867)">
<path d="M-545.217 299.655C-554.748 293.185 -563.889 286.754 -572.637 280.361C-639.613 231.412 -680.767 187.094 -694.956 148.638C-709.093 110.322 -695.775 78.8102 -655.372 54.9771C-534.67 -18.8332 -438.811 -60.7682 -368.817 -91.3874C-337.053 -105.283 -311.965 -116.258 -293.42 -126.43C-263.443 -142.835 -203.551 -147.074 -133.208 -137.772C-59.4183 -128.013 11.3817 -105.252 61.0397 -75.3261C177.222 -3.52058 358.485 48.0854 451.978 65.2542C486.689 71.6445 511.831 89.3637 524.685 116.498C547.055 163.721 529.557 233.568 479.02 298.782C433.716 357.511 382.365 424.078 318.464 472.055C285.34 496.923 251.326 515.192 214.479 527.902C173.42 542.066 129.849 549.043 81.2758 549.233C39.1768 549.651 -25.2642 536.177 -105.074 510.268C-181.741 485.378 -268.549 450.03 -349.509 410.735C-423.688 374.731 -490.647 336.697 -545.217 299.655ZM493.938 83.5538C482.191 75.5794 467.966 69.9781 451.552 66.9576C357.893 49.757 176.29 -1.95027 59.8638 -73.9061C10.4628 -103.677 -60.0262 -126.329 -133.518 -136.049C-203.387 -145.29 -262.756 -141.144 -292.33 -124.961C-310.956 -114.745 -336.084 -103.752 -367.896 -89.8351C-437.833 -59.24 -533.615 -17.3384 -654.21 56.4041C-693.804 79.7597 -706.857 110.612 -693.022 148.111C-678.95 186.251 -638.004 230.299 -571.322 279.034C-512.581 321.96 -435.535 366.98 -348.511 409.218C-267.639 448.47 -180.93 483.777 -104.357 508.636C-24.7812 534.47 39.4037 547.905 81.2587 547.489C129.578 547.299 172.904 540.363 213.721 526.283C250.353 513.648 284.177 495.48 317.127 470.742C380.823 422.919 432.093 356.456 477.328 297.817L477.329 297.816C527.499 233.076 544.923 163.85 522.803 117.154C516.288 103.398 506.541 92.1094 493.938 83.5538Z" fill="url(#paint5_linear_2004_14867)"/>
</g>
<mask id="mask3_2004_14867" style="mask-type:alpha" maskUnits="userSpaceOnUse" x="-646" y="-123" width="1122" height="630">
<path d="M-510.904 280.594C-517.176 276.337 -523.252 272.1 -529.136 267.878C-589.924 224.274 -627.402 184.784 -640.532 150.506C-653.375 116.974 -642.278 89.319 -607.547 68.3116C-503.58 1.37238 -413.833 -40.5052 -348.303 -71.0823C-320.066 -84.2579 -295.68 -95.6373 -277.707 -105.614C-248.362 -121.854 -192.423 -126.985 -128.07 -119.341C-60.9642 -111.37 4.57971 -90.9598 51.7557 -63.3448C98.0427 -35.1511 160.755 -6.85529 233.126 18.4931C291.216 38.8395 353.195 56.4539 403.173 66.8194C433.963 73.2251 456.209 89.6934 467.5 114.442C487.2 157.616 471.32 220.786 426.057 279.298C378.783 340.871 335.204 395.167 280.571 436.036C250.51 458.524 219.633 475.091 186.177 486.684C148.948 499.585 109.482 506.049 65.5267 506.442C26.9067 507.161 -31.9193 495.414 -104.581 472.471C-174.094 450.522 -252.952 419.116 -326.628 384.039C-396.884 350.591 -460.093 315.086 -510.904 280.594ZM438.676 83.0506C428.6 76.2104 416.544 71.271 402.728 68.3957C352.663 58.0122 290.585 40.3703 232.412 19.9956C159.909 -5.39915 97.0658 -33.7568 50.6758 -62.0132C3.74677 -89.4831 -61.5032 -109.796 -128.33 -117.733C-192.249 -125.327 -247.708 -120.286 -276.684 -104.251C-294.716 -94.2413 -319.132 -82.8481 -347.402 -69.657C-412.881 -39.1031 -502.558 2.74178 -606.437 69.6234C-640.431 90.1862 -651.291 117.223 -638.738 149.998C-625.72 183.985 -588.438 223.226 -527.926 266.632C-474.455 304.981 -404.537 345.092 -325.714 382.62C-252.12 417.658 -173.356 449.027 -103.93 470.948C-31.4893 493.822 27.0978 505.534 65.4948 504.819C109.221 504.428 148.46 498.004 185.468 485.18C218.726 473.655 249.428 457.18 279.329 434.812C333.782 394.078 377.282 339.878 424.481 278.403L424.483 278.401C469.41 220.322 485.219 157.724 465.74 115.034C459.747 101.9 450.6 91.1452 438.676 83.0506Z" fill="url(#paint6_linear_2004_14867)"/>
</mask>
<g mask="url(#mask3_2004_14867)">
<path d="M-510.904 280.594C-517.176 276.337 -523.252 272.1 -529.136 267.878C-589.924 224.274 -627.402 184.784 -640.532 150.506C-653.375 116.974 -642.278 89.319 -607.547 68.3116C-503.58 1.37238 -413.833 -40.5052 -348.303 -71.0823C-320.066 -84.2579 -295.68 -95.6373 -277.707 -105.614C-248.362 -121.854 -192.423 -126.985 -128.07 -119.341C-60.9642 -111.37 4.57971 -90.9598 51.7557 -63.3448C98.0427 -35.1511 160.755 -6.85529 233.126 18.4931C291.216 38.8395 353.195 56.4539 403.173 66.8194C433.963 73.2251 456.209 89.6934 467.5 114.442C487.2 157.616 471.32 220.786 426.057 279.298C378.783 340.871 335.204 395.167 280.571 436.036C250.51 458.524 219.633 475.091 186.177 486.684C148.948 499.585 109.482 506.049 65.5267 506.442C26.9067 507.161 -31.9193 495.414 -104.581 472.471C-174.094 450.522 -252.952 419.116 -326.628 384.039C-396.884 350.591 -460.093 315.086 -510.904 280.594ZM438.676 83.0506C428.6 76.2104 416.544 71.271 402.728 68.3957C352.663 58.0122 290.585 40.3703 232.412 19.9956C159.909 -5.39915 97.0658 -33.7568 50.6758 -62.0132C3.74677 -89.4831 -61.5032 -109.796 -128.33 -117.733C-192.249 -125.327 -247.708 -120.286 -276.684 -104.251C-294.716 -94.2413 -319.132 -82.8481 -347.402 -69.657C-412.881 -39.1031 -502.558 2.74178 -606.437 69.6234C-640.431 90.1862 -651.291 117.223 -638.738 149.998C-625.72 183.985 -588.438 223.226 -527.926 266.632C-474.455 304.981 -404.537 345.092 -325.714 382.62C-252.12 417.658 -173.356 449.027 -103.93 470.948C-31.4893 493.822 27.0978 505.534 65.4948 504.819C109.221 504.428 148.46 498.004 185.468 485.18C218.726 473.655 249.428 457.18 279.329 434.812C333.782 394.078 377.282 339.878 424.481 278.403L424.483 278.401C469.41 220.322 485.219 157.724 465.74 115.034C459.747 101.9 450.6 91.1452 438.676 83.0506Z" fill="url(#paint7_linear_2004_14867)"/>
</g>
<mask id="mask4_2004_14867" style="mask-type:alpha" maskUnits="userSpaceOnUse" x="-592" y="-104" width="1010" height="568">
<path d="M-476.508 261.748C-479.629 259.63 -482.693 257.517 -485.701 255.408C-540.302 217.149 -574.107 182.488 -586.177 152.388C-597.708 123.631 -588.808 99.8304 -559.724 81.6493C-471.232 20.5844 -386.351 -21.7413 -324.373 -52.6472C-299.796 -64.9024 -278.571 -75.486 -261.995 -84.798C-232.832 -101.121 -182.146 -106.993 -122.933 -100.909C-62.4793 -94.6973 -2.19131 -76.6382 42.4717 -51.3619C129.289 0.584953 265.006 47.1237 354.371 68.3861C381.26 74.8108 400.613 90.0392 410.339 112.425C427.339 151.549 413.068 208.027 373.095 259.817L373.097 259.814C332.944 312.419 292.755 362.727 242.678 400.02C215.679 420.125 187.94 434.992 157.874 445.47C124.475 457.107 89.1157 463.056 49.7767 463.652C14.6247 464.673 -38.5943 454.656 -104.114 434.683C-166.485 415.67 -237.401 388.207 -303.798 357.355C-370.113 326.54 -429.552 293.622 -476.508 261.748ZM383.395 82.4564C375.011 76.7649 365.128 72.5158 353.902 69.8336C264.399 48.5386 128.456 1.9183 41.4897 -50.1196C-2.93631 -75.2602 -62.9483 -93.2326 -123.141 -99.4177C-181.952 -105.46 -232.214 -99.6727 -261.038 -83.5394C-277.652 -74.2076 -298.895 -63.6145 -323.494 -51.3482C-385.423 -20.4663 -470.239 21.8268 -558.661 82.8418C-587.085 100.612 -595.775 123.838 -584.523 151.899C-572.56 181.731 -538.94 216.165 -484.596 254.245C-436.391 288.005 -373.593 323.215 -302.966 356.033C-236.646 386.851 -165.818 414.279 -103.529 433.268C-38.2143 453.178 14.7827 463.166 49.7307 462.152C88.8647 461.557 124.019 455.646 157.215 444.079C187.099 433.665 214.679 418.882 241.53 398.885C291.438 361.719 331.549 311.504 371.632 258.991L371.634 258.988C411.303 207.591 425.505 151.633 408.697 112.95C403.237 100.379 394.673 90.1122 383.395 82.4564Z" fill="url(#paint8_linear_2004_14867)"/>
</mask>
<g mask="url(#mask4_2004_14867)">
<path d="M-476.508 261.748C-479.629 259.63 -482.693 257.517 -485.701 255.408C-540.302 217.149 -574.107 182.488 -586.177 152.388C-597.708 123.631 -588.808 99.8304 -559.724 81.6493C-471.232 20.5844 -386.351 -21.7413 -324.373 -52.6472C-299.796 -64.9024 -278.571 -75.486 -261.995 -84.798C-232.832 -101.121 -182.146 -106.993 -122.933 -100.909C-62.4793 -94.6973 -2.19131 -76.6382 42.4717 -51.3619C129.289 0.584953 265.006 47.1237 354.371 68.3861C381.26 74.8108 400.613 90.0392 410.339 112.425C427.339 151.549 413.068 208.027 373.095 259.817L373.097 259.814C332.944 312.419 292.755 362.727 242.678 400.02C215.679 420.125 187.94 434.992 157.874 445.47C124.475 457.107 89.1157 463.056 49.7767 463.652C14.6247 464.673 -38.5943 454.656 -104.114 434.683C-166.485 415.67 -237.401 388.207 -303.798 357.355C-370.113 326.54 -429.552 293.622 -476.508 261.748ZM383.395 82.4564C375.011 76.7649 365.128 72.5158 353.902 69.8336C264.399 48.5386 128.456 1.9183 41.4897 -50.1196C-2.93631 -75.2602 -62.9483 -93.2326 -123.141 -99.4177C-181.952 -105.46 -232.214 -99.6727 -261.038 -83.5394C-277.652 -74.2076 -298.895 -63.6145 -323.494 -51.3482C-385.423 -20.4663 -470.239 21.8268 -558.661 82.8418C-587.085 100.612 -595.775 123.838 -584.523 151.899C-572.56 181.731 -538.94 216.165 -484.596 254.245C-436.391 288.005 -373.593 323.215 -302.966 356.033C-236.646 386.851 -165.818 414.279 -103.529 433.268C-38.2143 453.178 14.7827 463.166 49.7307 462.152C88.8647 461.557 124.019 455.646 157.215 444.079C187.099 433.665 214.679 418.882 241.53 398.885C291.438 361.719 331.549 311.504 371.632 258.991L371.634 258.988C411.303 207.591 425.505 151.633 408.697 112.95C403.237 100.379 394.673 90.1122 383.395 82.4564Z" fill="url(#paint9_linear_2004_14867)"/>
</g>
<mask id="mask5_2004_14867" style="mask-type:alpha" maskUnits="userSpaceOnUse" x="-537" y="-84" width="896" height="505">
<path d="M-442.009 243.193C-442.125 243.115 -442.238 243.038 -442.354 242.959C-490.773 210.046 -520.907 180.214 -531.921 154.294C-542.117 130.298 -535.382 110.344 -511.903 94.9872C-437.648 38.4444 -355.252 -5.44654 -295.09 -37.4935C-276.251 -47.5284 -259.98 -56.1957 -246.282 -63.9812C-217.71 -80.1592 -170.879 -86.8998 -117.798 -82.4765C-63.9543 -77.9896 -8.9223 -62.2812 33.1867 -39.3789C71.0007 -17.2518 119.083 5.02973 176.118 26.8606C219.023 43.2824 266.206 58.9899 305.571 69.9556C328.583 76.4008 345.055 90.4066 353.207 110.462C367.464 145.533 354.79 195.298 320.131 240.335C286.728 284.425 250.303 330.296 204.784 364.003C180.849 381.728 156.247 394.894 129.571 404.255C100.003 414.631 68.7507 420.063 34.0267 420.863C-28.7873 423.487 -155.406 387.247 -281.032 330.686C-343.385 302.611 -399.04 272.362 -442.009 243.193ZM328.086 81.7265C321.424 77.2036 313.721 73.6912 305.074 71.2683C265.659 60.2889 218.418 44.5625 175.463 28.1218C118.34 6.25748 70.1736 -16.0645 32.3027 -38.225C-9.57733 -61.0028 -64.3523 -76.6356 -117.953 -81.1019C-170.674 -85.4952 -217.125 -78.8353 -245.395 -62.8281C-259.112 -55.0315 -275.392 -46.3599 -294.242 -36.319C-354.355 -4.29776 -436.682 39.5562 -510.882 96.0543C-533.781 111.034 -540.336 130.458 -530.409 153.82C-519.499 179.497 -489.537 209.123 -441.356 241.875C-441.243 241.952 -441.125 242.033 -441.012 242.109C-398.119 271.227 -342.556 301.425 -280.285 329.461C-154.892 385.918 -28.6043 422.095 33.9657 419.481C68.5087 418.685 99.5757 413.285 128.961 402.974C155.473 393.671 179.931 380.581 203.732 362.955C249.091 329.366 285.441 283.586 318.784 239.576L318.787 239.572C353.174 194.887 365.781 145.588 351.686 110.916C346.773 98.825 338.768 88.978 328.086 81.7265Z" fill="url(#paint10_linear_2004_14867)"/>
</mask>
<g mask="url(#mask5_2004_14867)">
<path d="M-442.009 243.193C-442.125 243.115 -442.238 243.038 -442.354 242.959C-490.773 210.046 -520.907 180.214 -531.921 154.294C-542.117 130.298 -535.382 110.344 -511.903 94.9872C-437.648 38.4444 -355.252 -5.44654 -295.09 -37.4935C-276.251 -47.5284 -259.98 -56.1957 -246.282 -63.9812C-217.71 -80.1592 -170.879 -86.8998 -117.798 -82.4765C-63.9543 -77.9896 -8.9223 -62.2812 33.1867 -39.3789C71.0007 -17.2518 119.083 5.02973 176.118 26.8606C219.023 43.2824 266.206 58.9899 305.571 69.9556C328.583 76.4008 345.055 90.4066 353.207 110.462C367.464 145.533 354.79 195.298 320.131 240.335C286.728 284.425 250.303 330.296 204.784 364.003C180.849 381.728 156.247 394.894 129.571 404.255C100.003 414.631 68.7507 420.063 34.0267 420.863C-28.7873 423.487 -155.406 387.247 -281.032 330.686C-343.385 302.611 -399.04 272.362 -442.009 243.193ZM328.086 81.7265C321.424 77.2036 313.721 73.6912 305.074 71.2683C265.659 60.2889 218.418 44.5625 175.463 28.1218C118.34 6.25748 70.1736 -16.0645 32.3027 -38.225C-9.57733 -61.0028 -64.3523 -76.6356 -117.953 -81.1019C-170.674 -85.4952 -217.125 -78.8353 -245.395 -62.8281C-259.112 -55.0315 -275.392 -46.3599 -294.242 -36.319C-354.355 -4.29776 -436.682 39.5562 -510.882 96.0543C-533.781 111.034 -540.336 130.458 -530.409 153.82C-519.499 179.497 -489.537 209.123 -441.356 241.875C-441.243 241.952 -441.125 242.033 -441.012 242.109C-398.119 271.227 -342.556 301.425 -280.285 329.461C-154.892 385.918 -28.6043 422.095 33.9657 419.481C68.5087 418.685 99.5757 413.285 128.961 402.974C155.473 393.671 179.931 380.581 203.732 362.955C249.091 329.366 285.441 283.586 318.784 239.576L318.787 239.572C353.174 194.887 365.781 145.588 351.686 110.916C346.773 98.825 338.768 88.978 328.086 81.7265Z" fill="url(#paint11_linear_2004_14867)"/>
</g>
<mask id="mask6_2004_14867" style="mask-type:alpha" maskUnits="userSpaceOnUse" x="-483" y="-65" width="784" height="444">
<path d="M-407.568 224.938C-444.913 199.588 -468.523 176.507 -477.81 156.253C-486.639 137 -482.033 120.885 -464.117 108.353C-403.355 54.5082 -319.05 6.89282 -257.493 -27.8741C-247.834 -33.3294 -238.709 -38.4834 -230.566 -43.1661C-202.131 -59.4548 -160.258 -66.8694 -112.66 -64.0447C-64.6672 -61.196 -16.1672 -48.181 23.9048 -27.3967C50.7708 -12.1219 127.19 28.0651 256.778 71.5259C275.95 77.9987 289.555 90.8137 296.12 108.59C307.572 139.594 296.479 182.609 267.173 220.847C240.125 256.9 207.839 297.886 166.891 327.987C123.618 359.797 75.0067 376.181 18.2798 378.074C-9.97723 379.703 -52.0222 373.158 -103.29 359.145C-152.121 345.798 -205.74 326.747 -258.348 304.051C-312.674 280.615 -361.354 255.201 -399.124 230.556C-402.012 228.672 -404.828 226.798 -407.568 224.938ZM272.738 80.789C267.846 77.4681 262.33 74.7567 256.24 72.7004C235.51 65.7486 193.747 51.2388 146.987 32.1828C97.9007 12.1807 56.2247 -7.50624 23.1167 -26.3312C-16.7343 -47.0004 -64.9993 -59.952 -112.763 -62.7869C-160.038 -65.5928 -201.585 -58.252 -229.75 -42.1177C-237.897 -37.4325 -247.024 -32.2786 -256.686 -26.8206C-318.197 7.91966 -402.44 55.4999 -463.092 109.257L-463.156 109.307C-480.545 121.456 -485.015 137.096 -476.443 155.791C-466.713 177.009 -439.671 202.514 -398.234 229.552C-360.535 254.15 -311.935 279.522 -257.688 302.923C-205.147 325.589 -151.603 344.614 -102.844 357.942C-51.7513 371.908 -9.89325 378.434 18.2018 376.813C74.6057 374.931 122.923 358.646 165.935 327.028C206.732 297.038 238.946 256.142 265.938 220.162L265.942 220.157C295.014 182.226 306.041 139.622 294.719 108.971C290.379 97.2238 282.905 87.6902 272.738 80.789Z" fill="url(#paint12_linear_2004_14867)"/>
</mask>
<g mask="url(#mask6_2004_14867)">
<path d="M-407.568 224.938C-444.913 199.588 -468.523 176.507 -477.81 156.253C-486.639 137 -482.033 120.885 -464.117 108.353C-403.355 54.5082 -319.05 6.89282 -257.493 -27.8741C-247.834 -33.3294 -238.709 -38.4834 -230.566 -43.1661C-202.131 -59.4548 -160.258 -66.8694 -112.66 -64.0447C-64.6672 -61.196 -16.1672 -48.181 23.9048 -27.3967C50.7708 -12.1219 127.19 28.0651 256.778 71.5259C275.95 77.9987 289.555 90.8137 296.12 108.59C307.572 139.594 296.479 182.609 267.173 220.847C240.125 256.9 207.839 297.886 166.891 327.987C123.618 359.797 75.0067 376.181 18.2798 378.074C-9.97723 379.703 -52.0222 373.158 -103.29 359.145C-152.121 345.798 -205.74 326.747 -258.348 304.051C-312.674 280.615 -361.354 255.201 -399.124 230.556C-402.012 228.672 -404.828 226.798 -407.568 224.938ZM272.738 80.789C267.846 77.4681 262.33 74.7567 256.24 72.7004C235.51 65.7486 193.747 51.2388 146.987 32.1828C97.9007 12.1807 56.2247 -7.50624 23.1167 -26.3312C-16.7343 -47.0004 -64.9993 -59.952 -112.763 -62.7869C-160.038 -65.5928 -201.585 -58.252 -229.75 -42.1177C-237.897 -37.4325 -247.024 -32.2786 -256.686 -26.8206C-318.197 7.91966 -402.44 55.4999 -463.092 109.257L-463.156 109.307C-480.545 121.456 -485.015 137.096 -476.443 155.791C-466.713 177.009 -439.671 202.514 -398.234 229.552C-360.535 254.15 -311.935 279.522 -257.688 302.923C-205.147 325.589 -151.603 344.614 -102.844 357.942C-51.7513 371.908 -9.89325 378.434 18.2018 376.813C74.6057 374.931 122.923 358.646 165.935 327.028C206.732 297.038 238.946 256.142 265.938 220.162L265.942 220.157C295.014 182.226 306.041 139.622 294.719 108.971C290.379 97.2238 282.905 87.6902 272.738 80.789Z" fill="url(#paint13_linear_2004_14867)"/>
</g>
<mask id="mask7_2004_14867" style="mask-type:alpha" maskUnits="userSpaceOnUse" x="-429" y="-46" width="672" height="382">
<path d="M-372.295 207.771C-398.811 189.771 -416.519 172.854 -423.929 158.334C-431.368 143.757 -428.808 131.438 -416.321 121.715C-369.885 67.8487 -261.249 4.64338 -214.852 -22.35C-156.81 -55.9974 -62.4482 -53.1435 14.6187 -15.4119C73.7257 16.9261 149.351 48.5643 194.534 67.4675C199.332 69.4748 203.833 71.3576 207.987 73.104C223.377 79.6196 234.13 91.3039 239.087 106.889C247.645 133.793 238.111 169.996 214.209 201.366C190.387 233.55 163.574 266.803 128.997 291.97C92.0967 318.828 50.7297 332.996 2.53275 335.283C-46.2793 339.097 -139.825 316.412 -235.765 277.49C-281.895 258.775 -323.488 238.293 -356.045 218.258C-361.778 214.729 -367.201 211.228 -372.295 207.771ZM217.337 79.508C214.29 77.4397 210.974 75.641 207.401 74.1282C203.249 72.3828 198.75 70.5008 193.952 68.4935C148.743 49.5792 73.0757 17.9229 13.9317 -14.4358C-62.6843 -51.9458 -156.469 -54.8177 -214.107 -21.4047C-260.461 5.56292 -369.014 68.7184 -415.292 122.439L-415.332 122.485L-415.381 122.523C-427.439 131.886 -429.906 143.78 -422.712 157.875C-413.974 174.996 -390.652 195.557 -355.271 217.329C-322.778 237.324 -281.257 257.771 -235.197 276.457C-139.456 315.299 -46.1803 337.942 2.4357 334.144C109.473 329.064 165.191 265.461 213.089 200.75L213.094 200.743C236.797 169.636 246.266 133.788 237.805 107.187C234.104 95.5547 227.113 86.1448 217.337 79.508Z" fill="url(#paint14_linear_2004_14867)"/>
</mask>
<g mask="url(#mask7_2004_14867)">
<path d="M-372.295 207.771C-398.811 189.771 -416.519 172.854 -423.929 158.334C-431.368 143.757 -428.808 131.438 -416.321 121.715C-369.885 67.8487 -261.249 4.64338 -214.852 -22.35C-156.81 -55.9974 -62.4482 -53.1435 14.6187 -15.4119C73.7257 16.9261 149.351 48.5643 194.534 67.4675C199.332 69.4748 203.833 71.3576 207.987 73.104C223.377 79.6196 234.13 91.3039 239.087 106.889C247.645 133.793 238.111 169.996 214.209 201.366C190.387 233.55 163.574 266.803 128.997 291.97C92.0967 318.828 50.7297 332.996 2.53275 335.283C-46.2793 339.097 -139.825 316.412 -235.765 277.49C-281.895 258.775 -323.488 238.293 -356.045 218.258C-361.778 214.729 -367.201 211.228 -372.295 207.771ZM217.337 79.508C214.29 77.4397 210.974 75.641 207.401 74.1282C203.249 72.3828 198.75 70.5008 193.952 68.4935C148.743 49.5792 73.0757 17.9229 13.9317 -14.4358C-62.6843 -51.9458 -156.469 -54.8177 -214.107 -21.4047C-260.461 5.56292 -369.014 68.7184 -415.292 122.439L-415.332 122.485L-415.381 122.523C-427.439 131.886 -429.906 143.78 -422.712 157.875C-413.974 174.996 -390.652 195.557 -355.271 217.329C-322.778 237.324 -281.257 257.771 -235.197 276.457C-139.456 315.299 -46.1803 337.942 2.4357 334.144C109.473 329.064 165.191 265.461 213.089 200.75L213.094 200.743C236.797 169.636 246.266 133.788 237.805 107.187C234.104 95.5547 227.113 86.1448 217.337 79.508Z" fill="url(#paint15_linear_2004_14867)"/>
</g>
<mask id="mask8_2004_14867" style="mask-type:alpha" maskUnits="userSpaceOnUse" x="-375" y="-28" width="559" height="322">
<path d="M-337.104 191.523C-353.314 180.52 -364.784 170.041 -370.409 160.72C-376.467 150.683 -375.841 142.066 -368.549 135.109C-360.599 117.27 -337.175 93.5432 -298.924 64.5836C-271.06 43.4877 -234.689 19.3877 -199.137 -1.5356C-142.032 -35.0404 -65.5942 -35.7479 5.33475 -3.42876C29.2267 8.95266 54.4407 21.4637 78.8257 33.5627C110.362 49.2101 140.149 63.9895 159.207 74.6899C175.206 83.7435 183.961 100.206 183.869 121.033C183.782 140.774 175.538 162.951 161.247 181.88C129.385 225.78 107.024 244.526 91.1028 255.952C60.5938 277.846 26.4727 289.798 -13.2122 292.491C-55.2582 296.921 -131.913 281.062 -213.235 251.102C-265.184 231.964 -308.512 210.931 -337.104 191.523ZM161.876 77.6064C160.807 76.8801 159.7 76.1941 158.555 75.5441C139.526 64.8601 109.753 50.0876 78.2317 34.4479C53.8417 22.3463 28.6227 9.8327 4.74973 -2.54014C-65.7543 -34.6644 -141.732 -33.9784 -198.464 -0.692492C-233.977 20.2077 -270.306 44.2793 -298.136 65.3495C-336.304 94.2463 -359.633 117.869 -367.476 135.562L-367.516 135.653L-367.591 135.724C-374.586 142.344 -375.179 150.597 -369.352 160.251C-353.926 185.81 -293.926 220.263 -212.766 250.164C-131.625 280.058 -55.2063 295.888 -13.3313 291.477C26.1247 288.8 60.0277 276.924 90.3407 255.17C120.521 233.511 143.55 204.335 160.241 181.338L160.247 181.33C174.418 162.561 182.595 140.582 182.681 121.029C182.763 102.058 175.409 86.7931 161.876 77.6064Z" fill="url(#paint16_linear_2004_14867)"/>
</mask>
<g mask="url(#mask8_2004_14867)">
<path d="M-337.104 191.523C-353.314 180.52 -364.784 170.041 -370.409 160.72C-376.467 150.683 -375.841 142.066 -368.549 135.109C-360.599 117.27 -337.175 93.5432 -298.924 64.5836C-271.06 43.4877 -234.689 19.3877 -199.137 -1.5356C-142.032 -35.0404 -65.5942 -35.7479 5.33475 -3.42876C29.2267 8.95266 54.4407 21.4637 78.8257 33.5627C110.362 49.2101 140.149 63.9895 159.207 74.6899C175.206 83.7435 183.961 100.206 183.869 121.033C183.782 140.774 175.538 162.951 161.247 181.88C129.385 225.78 107.024 244.526 91.1028 255.952C60.5938 277.846 26.4727 289.798 -13.2122 292.491C-55.2582 296.921 -131.913 281.062 -213.235 251.102C-265.184 231.964 -308.512 210.931 -337.104 191.523ZM161.876 77.6064C160.807 76.8801 159.7 76.1941 158.555 75.5441C139.526 64.8601 109.753 50.0876 78.2317 34.4479C53.8417 22.3463 28.6227 9.8327 4.74973 -2.54014C-65.7543 -34.6644 -141.732 -33.9784 -198.464 -0.692492C-233.977 20.2077 -270.306 44.2793 -298.136 65.3495C-336.304 94.2463 -359.633 117.869 -367.476 135.562L-367.516 135.653L-367.591 135.724C-374.586 142.344 -375.179 150.597 -369.352 160.251C-353.926 185.81 -293.926 220.263 -212.766 250.164C-131.625 280.058 -55.2063 295.888 -13.3313 291.477C26.1247 288.8 60.0277 276.924 90.3407 255.17C120.521 233.511 143.55 204.335 160.241 181.338L160.247 181.33C174.418 162.561 182.595 140.582 182.681 121.029C182.763 102.058 175.409 86.7931 161.876 77.6064Z" fill="url(#paint17_linear_2004_14867)"/>
</g>
<mask id="mask9_2004_14867" style="mask-type:alpha" maskUnits="userSpaceOnUse" x="-323" y="-10" width="449" height="262">
<path d="M-301.963 177.123C-308.666 172.573 -313.844 168.209 -317.243 164.151C-322.215 158.217 -323.41 152.988 -320.796 148.607C-325.54 132.337 -299.638 105.617 -277.027 86.0334C-251.532 63.9518 -216.539 38.9975 -183.42 19.2805C-154.894 2.3375 -126.712 -6.82859 -97.2643 -8.74148C-67.1903 -10.6947 -36.6663 -5.03591 -3.94827 8.55782C43.6427 31.279 88.5327 57.8646 110.434 76.3006C121.056 85.3251 126.43 99.5009 125.568 116.218C124.762 131.857 118.463 148.689 108.285 162.398C82.3657 199.249 43.3427 242.474 -28.9553 249.703C-63.9633 254.726 -124.211 245.596 -190.092 225.278C-238.234 210.429 -279.015 192.699 -301.963 177.123ZM89.6927 62.0604C65.6337 45.7287 31.3657 26.447 -4.4313 9.35631C-36.9513 -4.15499 -67.3003 -9.78465 -97.1843 -7.84342C-126.442 -5.94255 -154.454 3.17203 -182.822 20.0206C-244.725 56.8738 -328.127 121.115 -319.729 148.548L-319.677 148.718L-319.774 148.874C-322.307 152.959 -321.169 157.921 -316.391 163.625C-301.47 181.435 -251.756 205.301 -189.735 224.428C-124.015 244.697 -63.9652 253.812 -29.1003 248.81C42.7747 241.622 81.5967 198.602 107.391 161.927L107.398 161.917C117.482 148.336 123.723 131.665 124.521 116.177C125.369 99.7172 120.105 85.7835 109.699 76.9411C104.321 72.4156 97.5507 67.3947 89.6927 62.0604Z" fill="url(#paint18_linear_2004_14867)"/>
</mask>
<g mask="url(#mask9_2004_14867)">
<path d="M-301.963 177.123C-308.666 172.573 -313.844 168.209 -317.243 164.151C-322.215 158.217 -323.41 152.988 -320.796 148.607C-325.54 132.337 -299.638 105.617 -277.027 86.0334C-251.532 63.9518 -216.539 38.9975 -183.42 19.2805C-154.894 2.3375 -126.712 -6.82859 -97.2643 -8.74148C-67.1903 -10.6947 -36.6663 -5.03591 -3.94827 8.55782C43.6427 31.279 88.5327 57.8646 110.434 76.3006C121.056 85.3251 126.43 99.5009 125.568 116.218C124.762 131.857 118.463 148.689 108.285 162.398C82.3657 199.249 43.3427 242.474 -28.9553 249.703C-63.9633 254.726 -124.211 245.596 -190.092 225.278C-238.234 210.429 -279.015 192.699 -301.963 177.123ZM89.6927 62.0604C65.6337 45.7287 31.3657 26.447 -4.4313 9.35631C-36.9513 -4.15499 -67.3003 -9.78465 -97.1843 -7.84342C-126.442 -5.94255 -154.454 3.17203 -182.822 20.0206C-244.725 56.8738 -328.127 121.115 -319.729 148.548L-319.677 148.718L-319.774 148.874C-322.307 152.959 -321.169 157.921 -316.391 163.625C-301.47 181.435 -251.756 205.301 -189.735 224.428C-124.015 244.697 -63.9652 253.812 -29.1003 248.81C42.7747 241.622 81.5967 198.602 107.391 161.927L107.398 161.917C117.482 148.336 123.723 131.665 124.521 116.177C125.369 99.7172 120.105 85.7835 109.699 76.9411C104.321 72.4156 97.5507 67.3947 89.6927 62.0604Z" fill="url(#paint19_linear_2004_14867)"/>
</g>
<mask id="mask10_2004_14867" style="mask-type:alpha" maskUnits="userSpaceOnUse" x="-282" y="8" width="350" height="202">
<path d="M-267.043 167.707C-269.933 165.746 -271.896 163.899 -272.798 162.219C-278.174 159.542 -281.041 155.523 -281.323 150.275C-282.15 134.921 -261.08 112.328 -243.259 96.0788C-222.054 76.7429 -193.808 55.8144 -167.703 40.0949C-138.156 22.3259 -114.851 12.9504 -92.1363 9.69641C-67.9033 6.22522 -42.8314 9.67152 -13.2314 20.5436C19.4947 34.1287 48.8807 56.6558 61.6577 77.9449C73.0377 97.103 67.3747 126.02 55.3257 142.911C31.6256 178.629 -2.02435 200.162 -44.6873 206.91C-61.3004 210.242 -82.9163 210.808 -108.91 208.588C-131.416 206.666 -156.578 202.66 -181.676 197.003C-220.968 188.144 -253.773 176.715 -267.043 167.707ZM-272.087 161.668L-272.027 161.787C-271.195 163.42 -269.296 165.22 -266.479 167.132C-237.274 186.962 -109.2 219.046 -44.8733 206.146C-2.46231 199.438 30.9776 178.032 54.5396 142.519L54.5467 142.508C66.4667 125.801 72.0837 97.2155 60.8477 78.3012C48.1567 57.1555 18.9317 34.7615 -13.6083 21.2544C-43.0223 10.4511 -67.9334 7.02111 -91.9864 10.4666C-114.56 13.7008 -137.751 23.0351 -167.181 40.7337C-193.238 56.4249 -221.432 77.3147 -242.597 96.6136C-260.298 112.753 -281.227 135.158 -280.415 150.239C-280.146 155.244 -277.386 159.069 -272.218 161.605L-272.087 161.668Z" fill="url(#paint20_linear_2004_14867)"/>
</mask>
<g mask="url(#mask10_2004_14867)">
<path d="M-267.043 167.707C-269.933 165.746 -271.896 163.899 -272.798 162.219C-278.174 159.542 -281.041 155.523 -281.323 150.275C-282.15 134.921 -261.08 112.328 -243.259 96.0788C-222.054 76.7429 -193.808 55.8144 -167.703 40.0949C-138.156 22.3259 -114.851 12.9504 -92.1363 9.69641C-67.9033 6.22522 -42.8314 9.67152 -13.2314 20.5436C19.4947 34.1287 48.8807 56.6558 61.6577 77.9449C73.0377 97.103 67.3747 126.02 55.3257 142.911C31.6256 178.629 -2.02435 200.162 -44.6873 206.91C-61.3004 210.242 -82.9163 210.808 -108.91 208.588C-131.416 206.666 -156.578 202.66 -181.676 197.003C-220.968 188.144 -253.773 176.715 -267.043 167.707ZM-272.087 161.668L-272.027 161.787C-271.195 163.42 -269.296 165.22 -266.479 167.132C-237.274 186.962 -109.2 219.046 -44.8733 206.146C-2.46231 199.438 30.9776 178.032 54.5396 142.519L54.5467 142.508C66.4667 125.801 72.0837 97.2155 60.8477 78.3012C48.1567 57.1555 18.9317 34.7615 -13.6083 21.2544C-43.0223 10.4511 -67.9334 7.02111 -91.9864 10.4666C-114.56 13.7008 -137.751 23.0351 -167.181 40.7337C-193.238 56.4249 -221.432 77.3147 -242.597 96.6136C-260.298 112.753 -281.227 135.158 -280.415 150.239C-280.146 155.244 -277.386 159.069 -272.218 161.605L-272.087 161.668Z" fill="url(#paint21_linear_2004_14867)"/>
</g>
<mask id="mask11_2004_14867" style="mask-type:alpha" maskUnits="userSpaceOnUse" x="-248" y="25" width="261" height="153">
<path d="M-241.456 170.558C-244.349 168.594 -246.258 166.098 -247.166 163.078C-249.442 155.504 -246.427 140.727 -219.139 113.336C-200.847 94.9751 -175.743 75.3757 -151.986 60.9071C-123.91 43.8087 -105.527 33.0705 -87.0133 28.1389C-67.8603 23.0373 -49.1732 24.3097 -22.5143 32.5296C-7.81924 37.0595 2.44576 45.3352 7.99875 57.1216C20.0038 82.61 6.38773 116.408 2.37473 123.408C-5.12328 136.484 -18.7203 147.452 -38.0413 156.006C-54.6713 163.37 -75.5743 168.979 -100.168 172.68C-144.624 179.369 -193.642 178.549 -224.693 175.552C-232.001 174.847 -237.602 173.174 -241.456 170.558ZM-7.38229 40.3503C-11.7883 37.3591 -16.9243 34.9551 -22.7733 33.1521C-49.2613 24.9854 -67.8063 23.7156 -86.7843 28.7708C-105.189 33.6732 -123.526 44.3856 -151.54 61.4471C-194.854 87.8266 -253.565 139.138 -246.42 162.914C-244.392 169.662 -237.053 173.695 -224.605 174.896C-193.608 177.888 -144.675 178.706 -100.3 172.029C-75.7823 168.341 -54.9543 162.752 -38.3933 155.419C-19.2233 146.931 -5.73926 136.064 1.68375 123.117C5.66774 116.17 19.1847 82.6331 7.28574 57.3697C4.02774 50.4531 -0.882294 44.7625 -7.38229 40.3503Z" fill="url(#paint22_linear_2004_14867)"/>
</mask>
<g mask="url(#mask11_2004_14867)">
<path d="M-241.456 170.558C-244.349 168.594 -246.258 166.098 -247.166 163.078C-249.442 155.504 -246.427 140.727 -219.139 113.336C-200.847 94.9751 -175.743 75.3757 -151.986 60.9071C-123.91 43.8087 -105.527 33.0705 -87.0133 28.1389C-67.8603 23.0373 -49.1732 24.3097 -22.5143 32.5296C-7.81924 37.0595 2.44576 45.3352 7.99875 57.1216C20.0038 82.61 6.38773 116.408 2.37473 123.408C-5.12328 136.484 -18.7203 147.452 -38.0413 156.006C-54.6713 163.37 -75.5743 168.979 -100.168 172.68C-144.624 179.369 -193.642 178.549 -224.693 175.552C-232.001 174.847 -237.602 173.174 -241.456 170.558ZM-7.38229 40.3503C-11.7883 37.3591 -16.9243 34.9551 -22.7733 33.1521C-49.2613 24.9854 -67.8063 23.7156 -86.7843 28.7708C-105.189 33.6732 -123.526 44.3856 -151.54 61.4471C-194.854 87.8266 -253.565 139.138 -246.42 162.914C-244.392 169.662 -237.053 173.695 -224.605 174.896C-193.608 177.888 -144.675 178.706 -100.3 172.029C-75.7823 168.341 -54.9543 162.752 -38.3933 155.419C-19.2233 146.931 -5.73926 136.064 1.68375 123.117C5.66774 116.17 19.1847 82.6331 7.28574 57.3697C4.02774 50.4531 -0.882294 44.7625 -7.38229 40.3503Z" fill="url(#paint23_linear_2004_14867)"/>
</g>
<g filter="url(#filter0_f_2004_14867)">
<ellipse cx="692" cy="1356.5" rx="800" ry="1176.5" fill="url(#paint24_radial_2004_14867)" fill-opacity="0.9"/>
</g>
<g filter="url(#filter1_f_2004_14867)">
<ellipse cx="-245" cy="-86.5" rx="800" ry="1176.5" fill="url(#paint25_radial_2004_14867)" fill-opacity="0.9"/>
</g>
</g>
<defs>
<filter id="filter0_f_2004_14867" x="-132" y="156" width="1648" height="2401" filterUnits="userSpaceOnUse" color-interpolation-filters="sRGB">
<feFlood flood-opacity="0" result="BackgroundImageFix"/>
<feBlend mode="normal" in="SourceGraphic" in2="BackgroundImageFix" result="shape"/>
<feGaussianBlur stdDeviation="12" result="effect1_foregroundBlur_2004_14867"/>
</filter>
<filter id="filter1_f_2004_14867" x="-1069" y="-1287" width="1648" height="2401" filterUnits="userSpaceOnUse" color-interpolation-filters="sRGB">
<feFlood flood-opacity="0" result="BackgroundImageFix"/>
<feBlend mode="normal" in="SourceGraphic" in2="BackgroundImageFix" result="shape"/>
<feGaussianBlur stdDeviation="12" result="effect1_foregroundBlur_2004_14867"/>
</filter>
<linearGradient id="paint0_linear_2004_14867" x1="-79.4299" y1="-182.474" x2="-79.4299" y2="634.815" gradientUnits="userSpaceOnUse">
<stop stop-color="white"/>
<stop offset="0.0436" stop-color="#B4B4B4"/>
<stop offset="0.1507"/>
<stop offset="0.1714" stop-color="#171717"/>
<stop offset="0.3859" stop-color="white"/>
<stop offset="0.6326" stop-color="#E6E6E6"/>
<stop offset="0.8567" stop-color="#1A1A1A"/>
<stop offset="0.9987"/>
</linearGradient>
<linearGradient id="paint1_linear_2004_14867" x1="-79.4297" y1="-182.474" x2="-79.4297" y2="634.815" gradientUnits="userSpaceOnUse">
<stop stop-color="#0522AC"/>
<stop offset="1" stop-color="#34384C" stop-opacity="0"/>
</linearGradient>
<linearGradient id="paint2_linear_2004_14867" x1="-81.2476" y1="-162.429" x2="-81.2476" y2="592.022" gradientUnits="userSpaceOnUse">
<stop stop-color="white"/>
<stop offset="0.0436" stop-color="#B4B4B4"/>
<stop offset="0.1507"/>
<stop offset="0.1714" stop-color="#171717"/>
<stop offset="0.3859" stop-color="white"/>
<stop offset="0.6326" stop-color="#E6E6E6"/>
<stop offset="0.8567" stop-color="#1A1A1A"/>
<stop offset="0.9987"/>
</linearGradient>
<linearGradient id="paint3_linear_2004_14867" x1="-81.2466" y1="-162.428" x2="-81.2466" y2="592.022" gradientUnits="userSpaceOnUse">
<stop stop-color="#0522AC"/>
<stop offset="1" stop-color="#34384C" stop-opacity="0"/>
</linearGradient>
<linearGradient id="paint4_linear_2004_14867" x1="-83.0839" y1="-142.622" x2="-83.0839" y2="549.241" gradientUnits="userSpaceOnUse">
<stop stop-color="white"/>
<stop offset="0.0436" stop-color="#B4B4B4"/>
<stop offset="0.1507"/>
<stop offset="0.1714" stop-color="#171717"/>
<stop offset="0.3859" stop-color="white"/>
<stop offset="0.6326" stop-color="#E6E6E6"/>
<stop offset="0.8567" stop-color="#1A1A1A"/>
<stop offset="0.9987"/>
</linearGradient>
<linearGradient id="paint5_linear_2004_14867" x1="-83.0835" y1="-142.622" x2="-83.0835" y2="549.242" gradientUnits="userSpaceOnUse">
<stop stop-color="#0522AC"/>
<stop offset="1" stop-color="#34384C" stop-opacity="0"/>
</linearGradient>
<linearGradient id="paint6_linear_2004_14867" x1="-84.9446" y1="-122.817" x2="-84.9446" y2="506.474" gradientUnits="userSpaceOnUse">
<stop stop-color="white"/>
<stop offset="0.0436" stop-color="#B4B4B4"/>
<stop offset="0.1507"/>
<stop offset="0.1714" stop-color="#171717"/>
<stop offset="0.3859" stop-color="white"/>
<stop offset="0.6326" stop-color="#E6E6E6"/>
<stop offset="0.8567" stop-color="#1A1A1A"/>
<stop offset="0.9987"/>
</linearGradient>
<linearGradient id="paint7_linear_2004_14867" x1="-84.9443" y1="-122.817" x2="-84.9443" y2="506.473" gradientUnits="userSpaceOnUse">
<stop stop-color="#0522AC"/>
<stop offset="1" stop-color="#34384C" stop-opacity="0"/>
</linearGradient>
<linearGradient id="paint8_linear_2004_14867" x1="-86.8395" y1="-103.256" x2="-86.8395" y2="463.723" gradientUnits="userSpaceOnUse">
<stop stop-color="white"/>
<stop offset="0.0436" stop-color="#B4B4B4"/>
<stop offset="0.1507"/>
<stop offset="0.1714" stop-color="#171717"/>
<stop offset="0.3859" stop-color="white"/>
<stop offset="0.6326" stop-color="#E6E6E6"/>
<stop offset="0.8567" stop-color="#1A1A1A"/>
<stop offset="0.9987"/>
</linearGradient>
<linearGradient id="paint9_linear_2004_14867" x1="-86.8388" y1="-103.256" x2="-86.8388" y2="463.723" gradientUnits="userSpaceOnUse">
<stop stop-color="#0522AC"/>
<stop offset="1" stop-color="#34384C" stop-opacity="0"/>
</linearGradient>
<linearGradient id="paint10_linear_2004_14867" x1="-88.7842" y1="-83.8048" x2="-88.7842" y2="420.996" gradientUnits="userSpaceOnUse">
<stop stop-color="white"/>
<stop offset="0.0436" stop-color="#B4B4B4"/>
<stop offset="0.1507"/>
<stop offset="0.1714" stop-color="#171717"/>
<stop offset="0.3859" stop-color="white"/>
<stop offset="0.6326" stop-color="#E6E6E6"/>
<stop offset="0.8567" stop-color="#1A1A1A"/>
<stop offset="0.9987"/>
</linearGradient>
<linearGradient id="paint11_linear_2004_14867" x1="-88.7845" y1="-83.8047" x2="-88.7845" y2="420.997" gradientUnits="userSpaceOnUse">
<stop stop-color="#0522AC"/>
<stop offset="1" stop-color="#34384C" stop-opacity="0"/>
</linearGradient>
<linearGradient id="paint12_linear_2004_14867" x1="-90.806" y1="-64.6328" x2="-90.806" y2="378.318" gradientUnits="userSpaceOnUse">
<stop stop-color="white"/>
<stop offset="0.0436" stop-color="#B4B4B4"/>
<stop offset="0.1507"/>
<stop offset="0.1714" stop-color="#171717"/>
<stop offset="0.3859" stop-color="white"/>
<stop offset="0.6326" stop-color="#E6E6E6"/>
<stop offset="0.8567" stop-color="#1A1A1A"/>
<stop offset="0.9987"/>
</linearGradient>
<linearGradient id="paint13_linear_2004_14867" x1="-90.805" y1="-64.6328" x2="-90.805" y2="378.318" gradientUnits="userSpaceOnUse">
<stop stop-color="#0522AC"/>
<stop offset="1" stop-color="#34384C" stop-opacity="0"/>
</linearGradient>
<linearGradient id="paint14_linear_2004_14867" x1="-92.9554" y1="-45.7742" x2="-92.9554" y2="335.698" gradientUnits="userSpaceOnUse">
<stop stop-color="white"/>
<stop offset="0.0436" stop-color="#B4B4B4"/>
<stop offset="0.1507"/>
<stop offset="0.1714" stop-color="#171717"/>
<stop offset="0.3859" stop-color="white"/>
<stop offset="0.6326" stop-color="#E6E6E6"/>
<stop offset="0.8567" stop-color="#1A1A1A"/>
<stop offset="0.9987"/>
</linearGradient>
<linearGradient id="paint15_linear_2004_14867" x1="-92.9549" y1="-45.7739" x2="-92.9549" y2="335.699" gradientUnits="userSpaceOnUse">
<stop stop-color="#0522AC"/>
<stop offset="1" stop-color="#34384C" stop-opacity="0"/>
</linearGradient>
<linearGradient id="paint16_linear_2004_14867" x1="-95.3295" y1="-27.175" x2="-95.3295" y2="293.227" gradientUnits="userSpaceOnUse">
<stop stop-color="white"/>
<stop offset="0.0436" stop-color="#B4B4B4"/>
<stop offset="0.1507"/>
<stop offset="0.1714" stop-color="#171717"/>
<stop offset="0.3859" stop-color="white"/>
<stop offset="0.6326" stop-color="#E6E6E6"/>
<stop offset="0.8567" stop-color="#1A1A1A"/>
<stop offset="0.9987"/>
</linearGradient>
<linearGradient id="paint17_linear_2004_14867" x1="-95.3297" y1="-27.1758" x2="-95.3297" y2="293.225" gradientUnits="userSpaceOnUse">
<stop stop-color="#0522AC"/>
<stop offset="1" stop-color="#34384C" stop-opacity="0"/>
</linearGradient>
<linearGradient id="paint18_linear_2004_14867" x1="-98.2423" y1="-9.1177" x2="-98.2423" y2="251.056" gradientUnits="userSpaceOnUse">
<stop stop-color="white"/>
<stop offset="0.0436" stop-color="#B4B4B4"/>
<stop offset="0.1507"/>
<stop offset="0.1714" stop-color="#171717"/>
<stop offset="0.3859" stop-color="white"/>
<stop offset="0.6326" stop-color="#E6E6E6"/>
<stop offset="0.8567" stop-color="#1A1A1A"/>
<stop offset="0.9987"/>
</linearGradient>
<linearGradient id="paint19_linear_2004_14867" x1="-98.2428" y1="-9.1167" x2="-98.2428" y2="251.057" gradientUnits="userSpaceOnUse">
<stop stop-color="#0522AC"/>
<stop offset="1" stop-color="#34384C" stop-opacity="0"/>
</linearGradient>
<linearGradient id="paint20_linear_2004_14867" x1="-106.757" y1="8.39706" x2="-106.757" y2="209.915" gradientUnits="userSpaceOnUse">
<stop stop-color="white"/>
<stop offset="0.0436" stop-color="#B4B4B4"/>
<stop offset="0.1507"/>
<stop offset="0.1714" stop-color="#171717"/>
<stop offset="0.3859" stop-color="white"/>
<stop offset="0.6326" stop-color="#E6E6E6"/>
<stop offset="0.8567" stop-color="#1A1A1A"/>
<stop offset="0.9987"/>
</linearGradient>
<linearGradient id="paint21_linear_2004_14867" x1="-106.757" y1="8.39795" x2="-106.757" y2="209.916" gradientUnits="userSpaceOnUse">
<stop stop-color="#0522AC"/>
<stop offset="1" stop-color="#34384C" stop-opacity="0"/>
</linearGradient>
<linearGradient id="paint22_linear_2004_14867" x1="-117.468" y1="25.1126" x2="-117.468" y2="177.79" gradientUnits="userSpaceOnUse">
<stop stop-color="white"/>
<stop offset="0.0436" stop-color="#B4B4B4"/>
<stop offset="0.1507"/>
<stop offset="0.1714" stop-color="#171717"/>
<stop offset="0.3859" stop-color="white"/>
<stop offset="0.6326" stop-color="#E6E6E6"/>
<stop offset="0.8567" stop-color="#1A1A1A"/>
<stop offset="0.9987"/>
</linearGradient>
<linearGradient id="paint23_linear_2004_14867" x1="-117.468" y1="25.1123" x2="-117.468" y2="177.79" gradientUnits="userSpaceOnUse">
<stop stop-color="#0522AC"/>
<stop offset="1" stop-color="#34384C" stop-opacity="0"/>
</linearGradient>
<radialGradient id="paint24_radial_2004_14867" cx="0" cy="0" r="1" gradientUnits="userSpaceOnUse" gradientTransform="translate(692 1266.17) rotate(90) scale(951.833 647.23)">
<stop offset="0.03125" stop-color="#010950"/>
<stop offset="1" stop-color="#0E1120" stop-opacity="0"/>
</radialGradient>
<radialGradient id="paint25_radial_2004_14867" cx="0" cy="0" r="1" gradientUnits="userSpaceOnUse" gradientTransform="translate(-245 -176.833) rotate(90) scale(951.833 647.23)">
<stop offset="0.03125" stop-color="#010950"/>
<stop offset="1" stop-color="#0E1120" stop-opacity="0"/>
</radialGradient>
<clipPath id="clip0_2004_14867">
<rect width="720" height="800" fill="white"/>
</clipPath>
</defs>
</svg>
