<svg width="914" height="1916" viewBox="0 0 914 1916" fill="none" xmlns="http://www.w3.org/2000/svg">
<mask id="mask0_257_484" style="mask-type:alpha" maskUnits="userSpaceOnUse" x="222" y="217" width="1118" height="1367">
<path d="M948.846 1530.39C968.307 1537.93 987.265 1544.71 1005.62 1550.69C1106.44 1583.53 1185.95 1591.61 1241.96 1574.71C1299.26 1557.41 1330.38 1514.04 1334.45 1445.8C1346.8 1238.63 1334.55 1102.52 1326.45 1012.45C1322.8 971.914 1319.92 939.895 1320.73 915.914L1319.57 915.923L1320.73 915.914C1322.09 876.017 1289.72 809.802 1236.26 743.11C1178.73 671.338 1109.79 614.669 1047.14 587.631C960.723 550.338 875.635 485.575 819.473 437.813C754.052 382.177 689.194 316.425 645.979 261.927C618.081 226.745 581.844 211.872 541.183 218.918C470.777 231.118 396.254 307.296 346.695 417.724C323.203 470.065 298.913 524.188 278.488 577.591C255.907 636.633 240.643 688.416 231.825 735.898C221.293 792.596 219.418 844.813 226.092 895.531C233.542 952.162 251.399 1005.7 280.684 1059.2C330.701 1150.58 507.444 1296.47 710.493 1413.99C793.552 1462.06 874.829 1501.71 948.846 1530.39ZM595.678 226.27C613.675 233.244 630.02 245.77 644.183 263.63C687.486 318.239 752.458 384.11 817.985 439.836C874.261 487.695 959.535 552.595 1046.2 589.994C1108.54 616.897 1177.16 673.329 1234.47 744.823C1287.58 811.072 1319.74 876.637 1318.4 915.932C1317.58 940.083 1320.47 972.176 1324.12 1012.81C1332.22 1102.79 1344.46 1238.78 1332.12 1445.75C1328.12 1512.74 1297.61 1555.31 1241.42 1572.26C1185.85 1589.04 1106.77 1580.96 1006.38 1548.26C918.346 1519.59 816.431 1472.38 711.659 1411.74C508.929 1294.41 332.536 1148.87 282.703 1057.83C253.572 1004.61 235.81 951.369 228.403 895.065C221.768 844.637 223.636 792.702 234.113 736.294C253.768 630.468 302.071 522.838 348.785 418.753C397.996 309.101 471.821 233.488 541.452 221.422C560.675 218.091 578.895 219.766 595.678 226.27Z" fill="url(#paint0_linear_257_484)"/>
</mask>
<g mask="url(#mask0_257_484)">
<path d="M948.849 1530.39C968.311 1537.93 987.269 1544.72 1005.63 1550.69C1106.44 1583.53 1185.95 1591.61 1241.96 1574.71C1299.26 1557.41 1330.38 1514.05 1334.45 1445.81C1346.8 1238.63 1334.55 1102.52 1326.45 1012.45C1322.8 971.916 1319.92 939.897 1320.74 915.916L1319.57 915.925L1320.74 915.916C1322.09 876.019 1289.73 809.804 1236.26 743.111C1178.73 671.34 1109.8 614.67 1047.14 587.631C960.723 550.338 875.636 485.575 819.473 437.813C754.052 382.177 689.195 316.424 645.979 261.926C618.081 226.744 581.844 211.871 541.183 218.917C470.778 231.117 396.254 307.294 346.696 417.722C323.205 470.063 298.915 524.186 278.49 577.589C255.909 636.631 240.645 688.414 231.827 735.895C221.295 792.594 219.42 844.81 226.094 895.529C233.545 952.159 251.402 1005.7 280.687 1059.2C330.704 1150.57 507.447 1296.47 710.496 1413.99C793.556 1462.06 874.832 1501.71 948.849 1530.39ZM595.678 226.269C613.675 233.243 630.02 245.769 644.183 263.629C687.486 318.238 752.458 384.11 817.985 439.836C874.261 487.696 959.536 552.596 1046.2 589.995C1108.54 616.898 1177.16 673.33 1234.47 744.825C1287.58 811.073 1319.74 876.639 1318.4 915.933C1317.58 940.085 1320.47 972.178 1324.12 1012.81C1332.22 1102.79 1344.46 1238.78 1332.12 1445.75C1328.12 1512.74 1297.61 1555.31 1241.43 1572.27C1185.85 1589.04 1106.78 1580.96 1006.39 1548.26C918.349 1519.59 816.435 1472.38 711.662 1411.74C508.932 1294.4 332.539 1148.87 282.706 1057.83C253.575 1004.61 235.813 951.367 228.406 895.063C221.77 844.635 223.638 792.7 234.115 736.291C253.77 630.466 302.073 522.836 348.786 418.751C397.997 309.099 471.821 233.487 541.452 221.42C560.675 218.09 578.895 219.765 595.678 226.269Z" fill="url(#paint1_linear_257_484)"/>
</g>
<mask id="mask1_257_484" style="mask-type:alpha" maskUnits="userSpaceOnUse" x="278" y="269" width="1026" height="1265">
<path d="M951.166 1485.71C966.556 1491.68 981.591 1497.11 996.215 1501.99C1088.45 1532.73 1161.19 1540.71 1212.4 1525.68C1264.17 1510.49 1292.48 1471.85 1296.53 1410.84C1310.01 1226.58 1301.16 1097.41 1295.3 1011.93C1292.55 971.804 1290.38 940.111 1291.32 915.874C1292.83 876.701 1263.43 813.622 1214.6 751.25C1162.31 684.465 1098.43 631.065 1039.32 604.742C959.767 569.906 881.194 510.841 829.287 467.425C768.308 416.423 709.767 358.53 668.675 308.59C642.738 277.083 609.254 264.043 571.842 270.88C506.896 282.75 438.36 352.856 392.979 453.839L392.979 453.838C350.08 549.073 305.719 647.553 287.42 746.711C277.782 798.94 276.067 847.082 282.175 893.887C288.989 946.1 305.308 995.473 332.063 1044.83C377.733 1129.73 539.719 1265.39 725.981 1374.71C804.574 1420.84 881.487 1458.71 951.166 1485.71ZM623.604 277.564C639.635 283.775 654.251 294.719 667.014 310.221C708.187 360.259 766.829 418.254 827.904 469.337C879.913 512.838 958.655 572.026 1038.42 606.955C1097.23 633.143 1160.83 686.317 1212.91 752.838C1261.41 814.792 1290.62 877.264 1289.13 915.876C1288.18 940.251 1290.36 972.006 1293.11 1012.21C1298.97 1097.61 1307.82 1226.67 1294.34 1410.76C1290.37 1470.61 1262.64 1508.5 1211.91 1523.38C1161.11 1538.29 1088.78 1530.32 996.94 1499.7C916.231 1472.8 822.918 1428.85 727.088 1372.6C541.125 1263.45 379.468 1128.15 333.967 1043.56C307.352 994.46 291.122 945.362 284.346 893.453C278.273 846.918 279.981 799.039 289.571 747.082C307.812 648.235 352.106 549.904 394.942 454.81L394.942 454.809C440 354.546 507.889 284.968 572.114 273.231C590.373 269.894 607.686 271.395 623.604 277.564Z" fill="url(#paint2_linear_257_484)"/>
</mask>
<g mask="url(#mask1_257_484)">
<path d="M951.168 1485.71C966.558 1491.68 981.592 1497.11 996.217 1501.99C1088.46 1532.73 1161.19 1540.71 1212.4 1525.68C1264.17 1510.49 1292.48 1471.85 1296.53 1410.84C1310.01 1226.58 1301.16 1097.41 1295.3 1011.93C1292.55 971.806 1290.37 940.113 1291.32 915.876C1292.83 876.703 1263.43 813.623 1214.6 751.251C1162.31 684.465 1098.43 631.066 1039.32 604.743C959.765 569.906 881.192 510.841 829.285 467.425C768.307 416.423 709.765 358.529 668.673 308.589C642.736 277.082 609.252 264.042 571.84 270.879C506.894 282.748 438.359 352.854 392.978 453.837L392.979 453.836C350.08 549.071 305.719 647.551 287.421 746.709C277.782 798.938 276.067 847.079 282.175 893.885C288.99 946.098 305.309 995.471 332.064 1044.82C377.734 1129.73 539.72 1265.38 725.983 1374.71C804.575 1420.84 881.488 1458.71 951.168 1485.71ZM623.602 277.562C639.633 283.774 654.25 294.718 667.012 310.22C708.185 360.258 766.827 418.254 827.902 469.337C879.912 512.838 958.654 572.026 1038.42 606.955C1097.22 633.144 1160.82 686.318 1212.91 752.839C1261.41 814.793 1290.62 877.266 1289.13 915.878C1288.18 940.253 1290.36 972.008 1293.11 1012.21C1298.97 1097.61 1307.82 1226.68 1294.34 1410.76C1290.37 1470.61 1262.64 1508.5 1211.91 1523.38C1161.11 1538.29 1088.79 1530.32 996.942 1499.7C916.233 1472.8 822.919 1428.85 727.09 1372.6C541.126 1263.45 379.469 1128.14 333.968 1043.55C307.353 994.458 291.122 945.359 284.347 893.45C278.273 846.915 279.981 799.037 289.571 747.079C307.812 648.233 352.105 549.902 394.941 454.808L394.942 454.807C439.999 354.544 507.887 284.967 572.112 273.23C590.372 269.893 607.684 271.394 623.602 277.562Z" fill="url(#paint3_linear_257_484)"/>
</g>
<mask id="mask2_257_484" style="mask-type:alpha" maskUnits="userSpaceOnUse" x="335" y="320" width="934" height="1163">
<path d="M953.329 1441.07C964.728 1445.49 975.893 1449.57 986.821 1453.32C1070.49 1481.98 1136.44 1489.84 1182.85 1476.7C1229.09 1463.6 1254.58 1429.67 1258.61 1375.87C1273.31 1213.35 1267.94 1095.69 1264.03 1009.78C1262.25 970.798 1260.84 940.005 1261.91 915.835C1263.59 876.79 1237.81 818.308 1192.94 759.394C1145.88 697.593 1087.03 647.464 1031.5 621.859C899.752 563.175 755.911 430.273 691.37 355.258C667.392 327.419 636.654 316.212 602.478 322.851C543.001 334.405 480.461 398.44 439.264 489.965C402.06 572.196 359.89 665.402 343.018 757.533C334.272 805.29 332.715 849.357 338.259 892.25C344.437 940.045 359.216 985.255 383.444 1030.46C404.183 1069.82 450.344 1120.4 516.932 1176.73C580.899 1230.85 660.645 1287.22 741.482 1335.47C815.55 1379.67 888.061 1415.78 953.329 1441.07ZM651.584 328.841C665.635 334.286 678.507 343.654 689.845 356.819C754.501 431.967 898.617 565.115 1030.64 623.922C1085.89 649.395 1144.46 699.309 1191.34 760.86C1235.91 819.376 1261.52 877.309 1259.86 915.828C1258.79 940.105 1260.2 970.946 1261.98 1009.99C1265.89 1095.83 1271.25 1213.39 1256.57 1375.77C1252.62 1428.49 1227.67 1461.72 1182.42 1474.54C1136.39 1487.58 1070.81 1479.72 987.515 1451.19C914.139 1426.05 829.422 1385.36 742.531 1333.5C661.78 1285.31 582.125 1229 518.237 1174.95C451.844 1118.78 405.852 1068.41 385.233 1029.28C361.134 984.313 346.435 939.359 340.293 891.846C334.781 849.204 336.331 805.382 345.031 757.876C361.849 666.04 403.953 572.98 441.1 490.875L441.1 490.873C481.998 400.013 543.941 336.472 602.755 325.046C620.08 321.679 636.51 323 651.584 328.841Z" fill="url(#paint4_linear_257_484)"/>
</mask>
<g mask="url(#mask2_257_484)">
<path d="M953.329 1441.07C964.728 1445.49 975.892 1449.58 986.82 1453.32C1070.49 1481.98 1136.44 1489.84 1182.85 1476.7C1229.09 1463.6 1254.58 1429.67 1258.61 1375.87C1273.31 1213.35 1267.94 1095.69 1264.02 1009.79C1262.25 970.799 1260.84 940.006 1261.91 915.836C1263.59 876.791 1237.81 818.309 1192.94 759.394C1145.87 697.593 1087.03 647.464 1031.5 621.859C899.749 563.175 755.908 430.272 691.367 355.257C667.389 327.417 636.651 316.21 602.475 322.849C542.998 334.403 480.458 398.438 439.262 489.963C402.058 572.194 359.888 665.4 343.016 757.531C334.271 805.288 332.714 849.355 338.258 892.247C344.436 940.043 359.216 985.253 383.443 1030.46C404.182 1069.81 450.343 1120.4 516.931 1176.73C580.898 1230.85 660.644 1287.22 741.482 1335.47C815.549 1379.67 888.06 1415.78 953.329 1441.07ZM651.581 328.84C665.632 334.284 678.504 343.652 689.842 356.818C754.498 431.966 898.614 565.114 1030.64 623.922C1085.88 649.395 1144.46 699.31 1191.34 760.861C1235.9 819.377 1261.52 877.31 1259.86 915.829C1258.79 940.106 1260.19 970.947 1261.97 1009.99C1265.89 1095.83 1271.25 1213.39 1256.57 1375.77C1252.62 1428.49 1227.67 1461.72 1182.42 1474.54C1136.39 1487.58 1070.81 1479.72 987.515 1451.19C914.139 1426.05 829.422 1385.36 742.53 1333.5C661.78 1285.31 582.125 1229 518.237 1174.95C451.844 1118.78 405.852 1068.41 385.233 1029.28C361.133 984.311 346.434 939.357 340.293 891.843C334.78 849.202 336.33 805.38 345.029 757.874C361.847 666.038 403.951 572.978 441.098 490.873L441.098 490.871C481.996 400.011 543.938 336.47 602.752 325.044C620.077 321.677 636.506 322.998 651.581 328.84Z" fill="url(#paint5_linear_257_484)"/>
</g>
<mask id="mask3_257_484" style="mask-type:alpha" maskUnits="userSpaceOnUse" x="391" y="372" width="843" height="1061">
<path d="M955.294 1396.48C962.794 1399.39 970.177 1402.13 977.446 1404.7C1052.54 1431.27 1111.72 1439.03 1153.33 1427.76C1194.03 1416.73 1216.7 1387.51 1220.69 1340.9C1236.79 1198.62 1234.43 1086.67 1232.72 1004.94C1231.98 969.718 1231.34 939.301 1232.49 915.795C1234.32 877.45 1211.44 822.027 1171.28 767.538C1129.4 710.717 1075.6 663.858 1023.68 638.975C971.615 615.313 911.186 576.478 848.912 526.663C798.927 486.678 749.776 441.214 714.063 401.927C692.04 377.737 664.036 368.362 633.083 374.819C579.084 386.081 522.552 444.043 485.549 526.087C446.43 612.091 412.887 689.687 398.614 768.352C390.76 811.638 389.363 851.629 394.343 890.609C399.885 933.986 413.126 975.033 434.823 1016.09C453.506 1052.42 495.078 1098.98 555.042 1150.71C612.408 1200.2 684.13 1251.89 756.996 1296.26C826.479 1338.57 894.52 1372.93 955.294 1396.48ZM679.636 380.087C691.688 384.757 702.794 392.565 712.676 403.419C748.452 442.774 797.681 488.311 847.737 528.354C910.125 578.26 970.682 617.174 1022.86 640.889C1074.51 665.642 1128.06 712.294 1169.77 768.879C1209.66 823 1232.4 877.916 1230.59 915.779C1229.43 939.362 1230.07 969.816 1230.81 1005.08C1232.52 1086.75 1234.87 1198.6 1218.79 1340.77C1214.88 1386.39 1192.73 1414.97 1152.94 1425.75C1111.69 1436.92 1052.87 1429.18 978.11 1402.72C912.061 1379.34 835.943 1341.91 757.986 1294.44C685.2 1250.12 613.563 1198.49 556.27 1149.06C496.488 1097.49 455.07 1051.13 436.496 1015.01C414.912 974.166 401.745 933.356 396.236 890.238C391.286 851.487 392.677 811.722 400.488 768.668C414.714 690.261 448.2 612.804 487.256 526.937L487.256 526.934C523.986 445.498 579.971 387.992 633.364 376.857C649.791 373.431 665.374 374.56 679.636 380.087Z" fill="url(#paint6_linear_257_484)"/>
</mask>
<g mask="url(#mask3_257_484)">
<path d="M955.297 1396.48C962.798 1399.39 970.18 1402.13 977.45 1404.7C1052.55 1431.27 1111.72 1439.03 1153.33 1427.76C1194.03 1416.73 1216.7 1387.51 1220.69 1340.91C1236.79 1198.62 1234.44 1086.68 1232.72 1004.94C1231.98 969.719 1231.34 939.302 1232.49 915.796C1234.33 877.451 1211.44 822.028 1171.28 767.539C1129.4 710.718 1075.6 663.859 1023.68 638.975C971.616 615.313 911.187 576.478 848.913 526.663C798.927 486.677 749.777 441.213 714.063 401.926C692.041 377.736 664.037 368.36 633.084 374.818C579.085 386.079 522.553 444.041 485.55 526.085C446.432 612.089 412.889 689.685 398.616 768.35C390.762 811.636 389.366 851.626 394.346 890.607C399.888 933.984 413.129 975.031 434.826 1016.09C453.509 1052.42 495.081 1098.98 555.045 1150.71C612.411 1200.2 684.133 1251.89 756.999 1296.26C826.482 1338.57 894.524 1372.93 955.297 1396.48ZM679.636 380.086C691.688 384.756 702.794 392.564 712.677 403.418C748.453 442.773 797.681 488.31 847.737 528.353C910.125 578.26 970.683 617.174 1022.86 640.889C1074.51 665.642 1128.07 712.295 1169.77 768.88C1209.66 823.001 1232.4 877.917 1230.59 915.78C1229.43 939.363 1230.07 969.817 1230.81 1005.08C1232.53 1086.75 1234.88 1198.61 1218.79 1340.77C1214.88 1386.39 1192.73 1414.97 1152.95 1425.75C1111.69 1436.92 1052.87 1429.18 978.114 1402.72C912.064 1379.34 835.946 1341.91 757.989 1294.44C685.203 1250.12 613.566 1198.49 556.273 1149.06C496.491 1097.49 455.073 1051.13 436.499 1015.01C414.915 974.164 401.748 933.354 396.239 890.236C391.289 851.485 392.679 811.72 400.49 768.666C414.716 690.259 448.201 612.802 487.257 526.935L487.258 526.932C523.987 445.497 579.971 387.991 633.364 376.856C649.792 373.43 665.374 374.559 679.636 380.086Z" fill="url(#paint7_linear_257_484)"/>
</g>
<mask id="mask4_257_484" style="mask-type:alpha" maskUnits="userSpaceOnUse" x="447" y="424" width="757" height="959">
<path d="M956.999 1351.96C960.732 1353.4 964.43 1354.8 968.096 1356.15C1034.62 1380.64 1087.01 1388.29 1123.82 1378.9C1158.99 1369.92 1178.82 1345.37 1182.77 1305.94C1200.65 1182.04 1201.2 1074.31 1201.6 995.645C1201.76 964.452 1201.9 937.514 1203.08 915.759C1205.09 877.527 1185.6 826.473 1149.62 775.687C1112.88 723.837 1064.13 680.248 1015.86 656.097C919.16 611.078 803.399 516.979 736.756 448.599C716.676 428.043 691.393 420.504 663.641 426.796C615.137 437.792 564.631 489.682 531.835 562.214L531.837 562.21C498.298 635.468 467.124 707.187 454.213 779.177C447.253 817.99 446.015 853.904 450.43 888.974C455.336 927.932 467.038 964.814 486.206 1001.73C502.836 1035.05 539.822 1077.58 593.16 1124.72C643.935 1169.58 707.636 1216.6 772.527 1257.11C837.338 1297.56 900.839 1330.19 956.999 1351.96ZM707.794 431.293C717.822 435.179 727.13 441.443 735.513 450.025C802.259 518.511 918.217 612.763 1015.09 657.859C1063.1 681.882 1111.62 725.275 1148.2 776.901C1183.94 827.342 1203.3 877.945 1201.31 915.733C1200.13 937.536 1200 964.497 1199.84 995.719C1199.43 1074.32 1198.88 1181.97 1181.02 1305.77C1177.16 1344.31 1157.81 1368.27 1123.49 1377.03C1087.01 1386.34 1034.94 1378.7 968.728 1354.33C910.015 1332.7 842.482 1298.51 773.458 1255.43C708.642 1214.97 645.02 1168.01 594.312 1123.2C541.141 1076.22 504.296 1033.87 487.762 1000.74C468.694 964.022 457.058 927.355 452.182 888.634C447.793 853.776 449.025 818.067 455.949 779.466C468.816 707.72 499.934 636.137 533.414 563.007L533.416 563.003C565.964 491.021 615.973 439.551 663.93 428.679C679.514 425.144 694.305 426.066 707.794 431.293Z" fill="url(#paint8_linear_257_484)"/>
</mask>
<g mask="url(#mask4_257_484)">
<path d="M956.999 1351.96C960.731 1353.4 964.429 1354.8 968.095 1356.15C1034.62 1380.64 1087.01 1388.29 1123.82 1378.9C1158.99 1369.92 1178.82 1345.38 1182.77 1305.95C1200.64 1182.04 1201.2 1074.31 1201.6 995.647C1201.76 964.453 1201.9 937.515 1203.08 915.761C1205.09 877.528 1185.6 826.474 1149.62 775.688C1112.88 723.838 1064.13 680.249 1015.86 656.098C919.157 611.078 803.396 516.979 736.752 448.598C716.672 428.042 691.39 420.503 663.638 426.795C615.134 437.79 564.628 489.68 531.832 562.213L531.835 562.209C498.296 635.467 467.122 707.186 454.212 779.175C447.251 817.988 446.014 853.902 450.429 888.972C455.335 927.93 467.037 964.813 486.205 1001.73C502.835 1035.05 539.821 1077.58 593.16 1124.71C643.934 1169.58 707.635 1216.6 772.526 1257.11C837.337 1297.56 900.838 1330.19 956.999 1351.96ZM707.791 431.292C717.818 435.178 727.127 441.442 735.51 450.024C802.256 518.51 918.214 612.763 1015.08 657.859C1063.09 681.883 1111.62 725.275 1148.2 776.902C1183.94 827.343 1203.3 877.946 1201.31 915.734C1200.13 937.537 1199.99 964.499 1199.83 995.72C1199.43 1074.32 1198.88 1181.97 1181.02 1305.77C1177.16 1344.31 1157.81 1368.27 1123.49 1377.03C1087.01 1386.34 1034.94 1378.7 968.728 1354.33C910.014 1332.7 842.482 1298.51 773.457 1255.43C708.641 1214.97 645.02 1168.01 594.311 1123.2C541.14 1076.21 504.295 1033.87 487.761 1000.74C468.693 964.021 457.056 927.353 452.181 888.632C447.792 853.774 449.024 818.065 455.947 779.464C468.814 707.718 499.931 636.135 533.411 563.005L533.414 563.001C565.961 491.02 615.97 439.55 663.927 428.678C679.511 425.143 694.302 426.065 707.791 431.292Z" fill="url(#paint9_linear_257_484)"/>
</g>
<mask id="mask5_257_484" style="mask-type:alpha" maskUnits="userSpaceOnUse" x="504" y="476" width="670" height="857">
<path d="M958.35 1307.54C958.488 1307.59 958.624 1307.64 958.763 1307.7C1016.72 1330.11 1062.33 1337.66 1094.34 1330.14C1123.97 1323.18 1140.97 1303.28 1144.85 1270.99C1165.26 1163.39 1168.66 1056.9 1171.14 979.14C1171.92 954.792 1172.59 933.763 1173.66 915.724C1175.82 878.14 1159.16 830.071 1127.95 783.84C1096.3 736.945 1052.59 696.626 1008.03 673.222C966.427 653.272 919.499 623.9 868.531 585.912C830.19 557.335 790.428 524.298 759.439 495.272C741.288 478.328 718.703 472.627 694.123 478.785C651.139 489.552 606.688 535.366 578.117 598.345C549.882 659.51 521.348 724.699 509.808 790.003C503.739 824.342 502.661 856.181 506.512 887.34C510.781 921.878 520.944 954.596 537.584 987.366C566.483 1047.45 667.148 1140.15 788.069 1218.02C848.087 1256.68 906.959 1287.62 958.35 1307.54ZM736.099 482.434C744.067 485.521 751.527 490.266 758.348 496.632C789.376 525.695 829.187 558.772 867.572 587.383C918.619 625.43 965.63 654.852 1007.3 674.832C1051.62 698.109 1095.12 738.241 1126.63 784.925C1157.62 830.842 1174.17 878.503 1172.03 915.69C1170.97 933.754 1170.3 954.795 1169.52 979.157C1167.04 1056.85 1163.64 1163.25 1143.24 1270.77C1139.46 1302.27 1122.91 1321.64 1094.07 1328.41C1062.36 1335.86 1017.04 1328.33 959.367 1306.03C959.233 1305.98 959.091 1305.92 958.956 1305.87C907.655 1285.99 848.882 1255.09 788.944 1216.49C668.247 1138.76 567.812 1046.33 539.026 986.476C522.473 953.877 512.369 921.354 508.127 887.03C504.299 856.062 505.372 824.409 511.407 790.262C522.907 725.187 551.386 660.131 579.569 599.075L579.572 599.07C607.92 536.584 651.929 491.152 694.424 480.507C709.242 476.793 723.323 477.483 736.099 482.434Z" fill="url(#paint10_linear_257_484)"/>
</mask>
<g mask="url(#mask5_257_484)">
<path d="M958.351 1307.54C958.489 1307.59 958.625 1307.64 958.764 1307.7C1016.72 1330.11 1062.33 1337.66 1094.34 1330.14C1123.97 1323.18 1140.97 1303.28 1144.85 1270.99C1165.26 1163.39 1168.66 1056.9 1171.14 979.141C1171.92 954.793 1172.59 933.763 1173.66 915.725C1175.82 878.141 1159.16 830.071 1127.95 783.841C1096.3 736.946 1052.59 696.627 1008.03 673.222C966.426 653.272 919.498 623.9 868.53 585.912C830.189 557.334 790.427 524.298 759.438 495.272C741.287 478.328 718.702 472.626 694.122 478.784C651.139 489.551 606.687 535.364 578.117 598.343C549.882 659.509 521.348 724.697 509.808 790.001C503.74 824.34 502.662 856.179 506.513 887.339C510.781 921.876 520.945 954.594 537.585 987.364C566.484 1047.45 667.149 1140.15 788.07 1218.02C848.088 1256.67 906.96 1287.62 958.351 1307.54ZM736.098 482.433C744.066 485.52 751.526 490.265 758.347 496.631C789.375 525.694 829.186 558.771 867.571 587.382C918.618 625.43 965.629 654.852 1007.3 674.832C1051.62 698.109 1095.12 738.242 1126.63 784.925C1157.62 830.842 1174.17 878.504 1172.03 915.691C1170.97 933.755 1170.3 954.795 1169.52 979.158C1167.04 1056.85 1163.64 1163.25 1143.24 1270.77C1139.46 1302.27 1122.92 1321.64 1094.07 1328.42C1062.36 1335.86 1017.04 1328.33 959.369 1306.03C959.234 1305.98 959.092 1305.92 958.957 1305.87C907.656 1285.99 848.883 1255.09 788.945 1216.49C668.248 1138.76 567.813 1046.33 539.027 986.475C522.474 953.876 512.37 921.352 508.128 887.028C504.3 856.061 505.373 824.407 511.407 790.26C522.907 725.186 551.386 660.129 579.569 599.074L579.572 599.068C607.919 536.582 651.928 491.151 694.423 480.506C709.241 476.792 723.322 477.482 736.098 482.433Z" fill="url(#paint11_linear_257_484)"/>
</g>
<mask id="mask6_257_484" style="mask-type:alpha" maskUnits="userSpaceOnUse" x="560" y="528" width="585" height="756">
<path d="M959.426 1263.38C1004.09 1280.69 1039.53 1286.8 1064.88 1281.56C1088.98 1276.58 1103.12 1261.28 1106.91 1236.08C1131.35 1142.86 1137.6 1032.05 1142.16 951.138C1142.87 938.443 1143.55 926.449 1144.24 915.689C1146.58 878.158 1133.1 834.23 1106.29 791.995C1079.25 749.41 1041.58 713.311 1000.21 690.349C971.105 675.871 891.649 632.457 782.121 541.946C765.874 528.585 745.947 524.729 724.493 530.801C687.075 541.388 648.723 581.114 624.406 634.471C601.186 684.238 575.561 742.241 565.406 800.833C554.674 862.753 562.381 919.07 588.964 973.004C601.505 1000.34 629.325 1034.88 669.409 1072.86C707.587 1109.04 753.996 1145.76 803.62 1179.05C854.863 1213.42 905.288 1241.2 949.443 1259.39C952.819 1260.78 956.148 1262.11 959.426 1263.38ZM764.639 533.475C770.489 535.742 776.031 539.005 781.192 543.249C798.713 557.728 834.525 586.553 877.492 616.904C922.594 648.766 963.65 673.968 999.518 691.809C1040.66 714.645 1078.15 750.57 1105.05 792.951C1131.69 834.899 1145.07 878.474 1142.76 915.649C1142.07 926.414 1141.39 938.41 1140.68 951.11C1136.12 1031.96 1129.88 1142.69 1105.47 1235.75L1105.45 1235.84C1101.79 1260.29 1088.06 1275.14 1064.66 1279.98C1038.1 1285.47 998.464 1277.82 950.022 1257.87C905.949 1239.72 855.608 1211.99 804.44 1177.66C754.88 1144.42 708.535 1107.75 670.413 1071.62C630.466 1033.77 602.76 999.393 590.291 972.213C563.859 918.587 556.199 862.61 566.866 801.064C576.984 742.687 602.553 684.813 625.727 635.148L625.73 635.141C649.851 582.211 687.815 542.828 724.809 532.361C738.987 528.35 752.48 528.762 764.639 533.475Z" fill="url(#paint12_linear_257_484)"/>
</mask>
<g mask="url(#mask6_257_484)">
<path d="M959.425 1263.38C1004.09 1280.69 1039.53 1286.8 1064.88 1281.56C1088.98 1276.58 1103.12 1261.28 1106.91 1236.08C1131.35 1142.86 1137.6 1032.05 1142.16 951.139C1142.87 938.444 1143.55 926.45 1144.24 915.69C1146.57 878.159 1133.1 834.23 1106.28 791.996C1079.25 749.411 1041.58 713.312 1000.21 690.349C971.102 675.871 891.646 632.457 782.118 541.946C765.87 528.584 745.944 524.728 724.49 530.8C687.072 541.387 648.721 581.112 624.404 634.47C601.184 684.236 575.559 742.239 565.405 800.832C554.673 862.752 562.379 919.069 588.963 973.003C601.504 1000.34 629.324 1034.87 669.407 1072.86C707.586 1109.04 753.995 1145.76 803.619 1179.05C854.862 1213.42 905.287 1241.2 949.442 1259.39C952.818 1260.78 956.147 1262.11 959.425 1263.38ZM764.636 533.474C770.486 535.741 776.028 539.004 781.189 543.248C798.71 557.728 834.522 586.553 877.489 616.904C922.591 648.766 963.647 673.968 999.515 691.809C1040.66 714.646 1078.15 750.57 1105.05 792.952C1131.68 834.9 1145.07 878.475 1142.75 915.65C1142.07 926.415 1141.39 938.411 1140.67 951.111C1136.12 1031.96 1129.88 1142.69 1105.47 1235.75L1105.45 1235.84C1101.79 1260.29 1088.06 1275.14 1064.66 1279.98C1038.1 1285.47 998.463 1277.82 950.021 1257.87C905.948 1239.72 855.607 1211.99 804.439 1177.66C754.879 1144.42 708.534 1107.75 670.412 1071.62C630.465 1033.77 602.758 999.391 590.29 972.212C563.857 918.586 556.198 862.609 566.864 801.063C576.981 742.686 602.551 684.811 625.724 635.147L625.728 635.14C649.848 582.21 687.812 542.827 724.806 532.36C738.984 528.35 752.477 528.762 764.636 533.474Z" fill="url(#paint13_linear_257_484)"/>
</g>
<mask id="mask7_257_484" style="mask-type:alpha" maskUnits="userSpaceOnUse" x="617" y="579" width="499" height="656">
<path d="M958.968 1219.19C990.677 1231.48 1016.85 1236.34 1035.41 1233.28C1054.03 1230.21 1065.32 1219.4 1068.97 1201.17C1100.64 1121.22 1110.57 977.18 1114.81 915.66C1120 838.784 1069.65 753.181 992.381 707.488C929.648 674.77 859.326 626.247 817.311 597.257C812.849 594.178 808.664 591.29 804.793 588.63C790.403 578.809 773.067 576.825 754.661 582.889C722.886 593.356 690.709 626.972 670.69 670.614C649.801 714.737 629.322 762.368 621.004 811.67C612.127 864.284 618.453 912.361 640.344 958.647C660.986 1006.55 731.174 1077.82 819.145 1140.21C861.444 1170.21 903.267 1194.79 940.091 1211.29C946.576 1214.2 952.877 1216.83 958.968 1219.19ZM793.553 584.336C797.197 585.749 800.701 587.595 804.042 589.875C807.911 592.533 812.094 595.42 816.556 598.499C858.595 627.506 928.957 676.056 991.729 708.794C1068.55 754.219 1118.62 839.275 1113.47 915.616C1109.24 977.078 1099.31 1121.01 1067.72 1200.71L1067.69 1200.77L1067.68 1200.85C1064.18 1218.44 1053.27 1228.87 1035.26 1231.84C1013.39 1235.44 980.667 1227.87 940.65 1209.94C903.899 1193.47 862.149 1168.93 819.915 1138.98C732.125 1076.72 662.116 1005.67 641.556 957.957C592.94 855.165 629.88 759.949 671.883 671.231L671.887 671.222C691.737 627.946 723.584 594.632 755 584.283C768.739 579.758 781.862 579.806 793.553 584.336Z" fill="url(#paint14_linear_257_484)"/>
</mask>
<g mask="url(#mask7_257_484)">
<path d="M958.968 1219.2C990.678 1231.48 1016.85 1236.34 1035.41 1233.28C1054.03 1230.21 1065.32 1219.41 1068.97 1201.17C1100.64 1121.23 1110.57 977.18 1114.81 915.661C1120 838.785 1069.65 753.182 992.38 707.489C929.647 674.771 859.325 626.247 817.31 597.256C812.849 594.178 808.663 591.29 804.792 588.63C790.403 578.808 773.066 576.825 754.66 582.889C722.885 593.355 690.709 626.972 670.69 670.613C649.801 714.736 629.322 762.367 621.004 811.669C612.127 864.283 618.453 912.36 640.345 958.646C660.987 1006.55 731.174 1077.82 819.146 1140.21C861.445 1170.21 903.268 1194.79 940.092 1211.29C946.577 1214.2 952.878 1216.83 958.968 1219.2ZM793.553 584.336C797.196 585.748 800.7 587.594 804.041 589.875C807.91 592.533 812.093 595.42 816.555 598.498C858.595 627.505 928.956 676.056 991.729 708.794C1068.54 754.22 1118.62 839.275 1113.47 915.617C1109.24 977.078 1099.31 1121.01 1067.72 1200.71L1067.69 1200.78L1067.68 1200.85C1064.18 1218.44 1053.27 1228.87 1035.26 1231.84C1013.39 1235.44 980.668 1227.87 940.651 1209.94C903.9 1193.47 862.149 1168.93 819.915 1138.98C732.126 1076.72 662.116 1005.66 641.557 957.957C592.94 855.164 629.88 759.948 671.883 671.23L671.887 671.221C691.737 627.945 723.584 594.631 754.999 584.282C768.738 579.757 781.861 579.806 793.553 584.336Z" fill="url(#paint15_linear_257_484)"/>
</g>
<mask id="mask8_257_484" style="mask-type:alpha" maskUnits="userSpaceOnUse" x="673" y="630" width="413" height="556">
<path d="M957.616 1175.72C976.997 1183.23 993.463 1186.7 1005.81 1185.54C1019.1 1184.3 1027.58 1177.82 1031.02 1166.3C1045.24 1146.72 1057.69 1108.75 1068.04 1053.45C1075.57 1013.17 1081.9 962.933 1085.39 915.634C1090.9 839.731 1053.21 768.328 984.556 724.632C959.905 710.936 934.458 696.102 909.848 681.755C878.02 663.202 847.958 645.677 827.454 635.316C810.168 626.666 788.959 629.805 767.74 644.139C747.627 657.726 729.127 680.547 716.982 706.756C688.172 766.351 680.271 799.922 676.607 822.51C669.586 865.795 674.532 905.629 691.729 944.29C708.339 986.331 763.059 1046.6 834.524 1101.55C880.175 1136.66 923.429 1162.47 957.616 1175.72ZM823.134 634.835C824.413 635.33 825.67 635.887 826.909 636.505C847.383 646.85 877.43 664.367 909.242 682.912C933.857 697.262 959.31 712.098 983.942 725.783C1052.18 769.218 1089.67 840.179 1084.19 915.586C1080.7 962.834 1074.39 1013.01 1066.86 1053.24C1056.54 1108.42 1044.14 1146.23 1030.02 1165.61L1029.95 1165.71L1029.91 1165.83C1026.67 1176.85 1018.54 1183.04 1005.76 1184.24C971.904 1187.42 906.569 1155.32 835.246 1100.48C763.94 1045.65 709.367 985.576 692.824 943.707C675.726 905.269 670.812 865.689 677.788 822.682C684.734 779.864 702.949 738.538 718.041 707.318L718.046 707.308C730.088 681.319 748.419 658.696 768.34 645.239C787.669 632.184 806.952 628.564 823.134 634.835Z" fill="url(#paint16_linear_257_484)"/>
</mask>
<g mask="url(#mask8_257_484)">
<path d="M957.617 1175.72C976.998 1183.23 993.463 1186.7 1005.81 1185.54C1019.1 1184.3 1027.58 1177.82 1031.02 1166.3C1045.24 1146.72 1057.69 1108.75 1068.04 1053.45C1075.57 1013.17 1081.9 962.933 1085.39 915.634C1090.9 839.73 1053.2 768.328 984.555 724.631C959.905 710.935 934.457 696.101 909.847 681.754C878.02 663.2 847.958 645.675 827.454 635.314C810.168 626.664 788.959 629.804 767.74 644.138C747.627 657.724 729.127 680.545 716.983 706.754C688.173 766.349 680.271 799.92 676.607 822.508C669.586 865.793 674.533 905.627 691.73 944.289C708.339 986.329 763.06 1046.6 834.525 1101.55C880.176 1136.66 923.429 1162.47 957.617 1175.72ZM823.134 634.833C824.413 635.328 825.67 635.886 826.909 636.503C847.382 646.849 877.43 664.366 909.242 682.911C933.857 697.261 959.31 712.097 983.942 725.782C1052.18 769.217 1089.67 840.178 1084.19 915.586C1080.7 962.833 1074.39 1013.01 1066.86 1053.24C1056.54 1108.42 1044.14 1146.23 1030.02 1165.61L1029.95 1165.71L1029.91 1165.83C1026.67 1176.85 1018.54 1183.04 1005.76 1184.24C971.905 1187.42 906.57 1155.32 835.247 1100.48C763.941 1045.65 709.368 985.575 692.825 943.705C675.727 905.267 670.812 865.688 677.789 822.68C684.735 779.862 702.949 738.536 718.041 707.317L718.046 707.306C730.088 681.317 748.419 658.695 768.34 645.238C787.669 632.183 806.952 628.562 823.134 634.833Z" fill="url(#paint17_linear_257_484)"/>
</g>
<mask id="mask9_257_484" style="mask-type:alpha" maskUnits="userSpaceOnUse" x="729" y="680" width="328" height="459">
<path d="M954.405 1133.56C962.419 1136.66 969.476 1138.48 975.327 1138.86C983.884 1139.41 989.822 1136.94 992.981 1131.52C1011.98 1124.79 1026.24 1082.49 1034.87 1048.11C1044.6 1009.36 1052.49 959.826 1055.97 915.615C1058.94 877.562 1054.13 845.149 1041.28 816.522C1028.17 787.288 1007.05 762.843 976.729 741.79C929.617 713.184 879.917 689.727 850.09 682.022C835.539 678.342 818.366 683.053 801.733 695.289C786.172 706.734 772.154 724.092 763.273 742.911C738.677 792.164 714.159 857.933 743.111 929.946C755.577 965.858 795.174 1015.5 849.024 1062.72C888.377 1097.22 926.971 1122.92 954.405 1133.56ZM875.051 691.522C903.814 702.668 940.72 721.268 976.157 742.784C1006.29 763.71 1027.29 788.012 1040.33 817.063C1053.09 845.504 1057.86 877.725 1054.92 915.567C1048.4 998.202 1024.73 1119.52 992.506 1130.49L992.305 1130.56L992.195 1130.76C989.298 1135.9 983.659 1138.24 975.436 1137.71C949.755 1136.05 900.407 1106.26 849.713 1061.81C795.993 1014.71 756.511 965.234 744.097 929.469C715.314 857.877 739.724 792.435 764.204 743.418L764.21 743.405C773.007 724.76 786.891 707.566 802.301 696.232C818.678 684.186 835.549 679.537 849.805 683.142C857.128 685.035 865.656 687.881 875.051 691.522Z" fill="url(#paint18_linear_257_484)"/>
</mask>
<g mask="url(#mask9_257_484)">
<path d="M954.405 1133.56C962.419 1136.66 969.477 1138.48 975.327 1138.86C983.884 1139.41 989.823 1136.94 992.982 1131.52C1011.98 1124.79 1026.24 1082.49 1034.87 1048.11C1044.6 1009.36 1052.49 959.826 1055.97 915.615C1058.94 877.562 1054.13 845.149 1041.28 816.522C1028.17 787.287 1007.05 762.842 976.729 741.79C929.617 713.184 879.917 689.727 850.09 682.021C835.539 678.341 818.366 683.052 801.733 695.288C786.172 706.733 772.154 724.091 763.273 742.91C738.677 792.163 714.16 857.932 743.112 929.945C755.577 965.857 795.175 1015.5 849.025 1062.72C888.377 1097.22 926.971 1122.92 954.405 1133.56ZM875.05 691.521C903.814 702.668 940.72 721.267 976.157 742.784C1006.29 763.709 1027.29 788.012 1040.33 817.062C1053.09 845.504 1057.86 877.725 1054.92 915.567C1048.4 998.202 1024.73 1119.52 992.506 1130.49L992.306 1130.56L992.196 1130.76C989.298 1135.9 983.66 1138.24 975.436 1137.71C949.756 1136.05 900.407 1106.26 849.713 1061.81C795.994 1014.7 756.512 965.233 744.097 929.468C715.315 857.876 739.724 792.434 764.204 743.417L764.21 743.404C773.007 724.759 786.891 707.565 802.301 696.231C818.678 684.185 835.548 679.537 849.805 683.141C857.128 685.034 865.656 687.88 875.05 691.521Z" fill="url(#paint19_linear_257_484)"/>
</g>
<mask id="mask10_257_484" style="mask-type:alpha" maskUnits="userSpaceOnUse" x="786" y="728" width="243" height="372">
<path d="M946.31 1095.13C949.765 1096.47 952.637 1097.03 954.806 1096.71C960.24 1099.87 965.785 1099.78 971.285 1096.45C987.376 1086.72 999.854 1051.71 1007.49 1024.06C1016.57 991.163 1023.74 950.641 1026.67 915.669C1029.97 876.102 1027.83 848.067 1019.73 824.768C1011.1 799.911 994.977 779.009 969.001 758.985C938.683 737.918 900.914 726.067 872.757 728.777C847.478 731.325 820.801 756.361 809.61 779.095C785.054 825.517 779.981 871.466 794.534 915.662C799.481 933.354 809.767 953.795 825.097 976.392C838.371 995.956 855.107 1016.56 873.496 1035.97C902.288 1066.37 930.444 1088.98 946.31 1095.13ZM955.011 1095.68L954.86 1095.7C952.774 1096.05 949.982 1095.52 946.614 1094.21C911.69 1080.68 814.566 983.815 795.407 915.312C780.941 871.377 785.99 825.71 810.406 779.556L810.414 779.542C821.481 757.054 847.842 732.287 872.801 729.772C900.768 727.08 938.32 738.873 968.464 759.821C994.277 779.719 1010.3 800.483 1018.87 825.155C1026.91 848.31 1029.04 876.211 1025.76 915.622C1022.83 950.53 1015.68 990.978 1006.61 1023.82C999.027 1051.28 986.671 1086.02 970.865 1095.59C965.621 1098.76 960.327 1098.82 955.142 1095.76L955.011 1095.68Z" fill="url(#paint20_linear_257_484)"/>
</mask>
<g mask="url(#mask10_257_484)">
<path d="M946.31 1095.13C949.766 1096.47 952.638 1097.03 954.807 1096.71C960.241 1099.87 965.786 1099.78 971.285 1096.45C987.377 1086.72 999.855 1051.71 1007.49 1024.06C1016.57 991.163 1023.74 950.641 1026.67 915.669C1029.97 876.101 1027.82 848.067 1019.73 824.767C1011.1 799.911 994.977 779.008 969 758.985C938.683 737.918 900.914 726.066 872.757 728.776C847.478 731.325 820.801 756.36 809.61 779.094C785.054 825.516 779.981 871.465 794.534 915.661C799.481 933.353 809.768 953.794 825.098 976.391C838.371 995.956 855.107 1016.56 873.497 1035.97C902.289 1066.37 930.445 1088.98 946.31 1095.13ZM955.011 1095.68L954.86 1095.7C952.775 1096.05 949.982 1095.52 946.614 1094.21C911.691 1080.68 814.567 983.814 795.408 915.311C780.941 871.376 785.99 825.709 810.406 779.555L810.414 779.541C821.48 757.053 847.842 732.287 872.8 729.771C900.768 727.079 938.32 738.873 968.464 759.821C994.277 779.719 1010.3 800.483 1018.87 825.155C1026.91 848.31 1029.04 876.211 1025.76 915.622C1022.83 950.53 1015.68 990.977 1006.61 1023.82C999.028 1051.28 986.671 1086.02 970.866 1095.59C965.621 1098.76 960.328 1098.82 955.142 1095.76L955.011 1095.68Z" fill="url(#paint21_linear_257_484)"/>
</g>
<mask id="mask11_257_484" style="mask-type:alpha" maskUnits="userSpaceOnUse" x="843" y="763" width="158" height="312">
<path d="M930.506 1073.65C933.965 1074.99 937.472 1075.05 941.011 1073.83C949.886 1070.76 963.456 1057.85 977.705 1013.8C987.256 984.278 994.649 947.586 997.481 915.653C1000.83 877.915 1002.55 853.518 998.283 832.971C993.866 811.716 983.177 795.252 961.391 776.146C949.383 765.614 935.777 761.753 920.955 764.664C888.904 770.962 861.246 806.71 856.116 815.221C846.535 831.12 842.172 851.234 843.148 875.008C843.988 895.47 848.765 918.696 857.345 944.04C872.856 989.852 898.323 1034.76 916.985 1061.51C921.377 1067.81 925.899 1071.86 930.506 1073.65ZM945.804 767.459C951.071 769.5 956.106 772.62 960.886 776.812C982.532 795.796 993.147 812.13 997.522 833.191C1001.77 853.616 1000.05 877.953 996.705 915.608C991.542 973.83 968.664 1063.39 940.804 1073.02C932.896 1075.76 925.092 1071.71 917.611 1060.98C898.981 1034.28 873.558 989.446 858.076 943.718C849.521 918.452 844.76 895.31 843.924 874.933C842.956 851.345 847.274 831.404 856.76 815.663C861.85 807.215 889.292 771.738 921.06 765.495C929.758 763.786 938.034 764.448 945.804 767.459Z" fill="url(#paint22_linear_257_484)"/>
</mask>
<g mask="url(#mask11_257_484)">
<path d="M930.507 1073.65C933.965 1074.99 937.472 1075.05 941.012 1073.83C949.887 1070.76 963.457 1057.85 977.705 1013.8C987.256 984.278 994.649 947.586 997.481 915.652C1000.83 877.914 1002.55 853.517 998.282 832.971C993.866 811.715 983.177 795.252 961.391 776.146C949.383 765.613 935.777 761.752 920.955 764.663C888.904 770.962 861.246 806.709 856.116 815.22C846.536 831.119 842.172 851.233 843.148 875.007C843.988 895.469 848.765 918.695 857.346 944.04C872.856 989.852 898.324 1034.76 916.986 1061.51C921.378 1067.81 925.899 1071.86 930.507 1073.65ZM945.804 767.459C951.071 769.5 956.106 772.62 960.885 776.812C982.532 795.796 993.146 812.129 997.522 833.191C1001.77 853.616 1000.04 877.953 996.705 915.608C991.542 973.829 968.665 1063.39 940.804 1073.02C932.897 1075.76 925.092 1071.71 917.611 1060.98C898.982 1034.28 873.558 989.446 858.077 943.717C849.522 918.451 844.761 895.309 843.925 874.932C842.956 851.344 847.274 831.403 856.76 815.662C861.85 807.215 889.292 771.737 921.06 765.494C929.757 763.785 938.034 764.448 945.804 767.459Z" fill="url(#paint23_linear_257_484)"/>
</g>
<defs>
<linearGradient id="paint0_linear_257_484" x1="1212.06" y1="678.3" x2="332.486" y2="1154.83" gradientUnits="userSpaceOnUse">
<stop stop-color="white"/>
<stop offset="0.0436" stop-color="#B4B4B4"/>
<stop offset="0.1507"/>
<stop offset="0.1714" stop-color="#171717"/>
<stop offset="0.3859" stop-color="white"/>
<stop offset="0.6326" stop-color="#E6E6E6"/>
<stop offset="0.8567" stop-color="#1A1A1A"/>
<stop offset="0.9987"/>
</linearGradient>
<linearGradient id="paint1_linear_257_484" x1="1212.06" y1="678.301" x2="332.49" y2="1154.83" gradientUnits="userSpaceOnUse">
<stop stop-color="#0522AC"/>
<stop offset="1" stop-color="#34384C" stop-opacity="0"/>
</linearGradient>
<linearGradient id="paint2_linear_257_484" x1="1192.25" y1="694" x2="380.311" y2="1133.88" gradientUnits="userSpaceOnUse">
<stop stop-color="white"/>
<stop offset="0.0436" stop-color="#B4B4B4"/>
<stop offset="0.1507"/>
<stop offset="0.1714" stop-color="#171717"/>
<stop offset="0.3859" stop-color="white"/>
<stop offset="0.6326" stop-color="#E6E6E6"/>
<stop offset="0.8567" stop-color="#1A1A1A"/>
<stop offset="0.9987"/>
</linearGradient>
<linearGradient id="paint3_linear_257_484" x1="1192.25" y1="694.001" x2="380.313" y2="1133.88" gradientUnits="userSpaceOnUse">
<stop stop-color="#0522AC"/>
<stop offset="1" stop-color="#34384C" stop-opacity="0"/>
</linearGradient>
<linearGradient id="paint4_linear_257_484" x1="1172.7" y1="709.558" x2="428.119" y2="1112.94" gradientUnits="userSpaceOnUse">
<stop stop-color="white"/>
<stop offset="0.0436" stop-color="#B4B4B4"/>
<stop offset="0.1507"/>
<stop offset="0.1714" stop-color="#171717"/>
<stop offset="0.3859" stop-color="white"/>
<stop offset="0.6326" stop-color="#E6E6E6"/>
<stop offset="0.8567" stop-color="#1A1A1A"/>
<stop offset="0.9987"/>
</linearGradient>
<linearGradient id="paint5_linear_257_484" x1="1172.69" y1="709.559" x2="428.118" y2="1112.94" gradientUnits="userSpaceOnUse">
<stop stop-color="#0522AC"/>
<stop offset="1" stop-color="#34384C" stop-opacity="0"/>
</linearGradient>
<linearGradient id="paint6_linear_257_484" x1="1153.15" y1="725.138" x2="475.922" y2="1092.04" gradientUnits="userSpaceOnUse">
<stop stop-color="white"/>
<stop offset="0.0436" stop-color="#B4B4B4"/>
<stop offset="0.1507"/>
<stop offset="0.1714" stop-color="#171717"/>
<stop offset="0.3859" stop-color="white"/>
<stop offset="0.6326" stop-color="#E6E6E6"/>
<stop offset="0.8567" stop-color="#1A1A1A"/>
<stop offset="0.9987"/>
</linearGradient>
<linearGradient id="paint7_linear_257_484" x1="1153.15" y1="725.138" x2="475.926" y2="1092.03" gradientUnits="userSpaceOnUse">
<stop stop-color="#0522AC"/>
<stop offset="1" stop-color="#34384C" stop-opacity="0"/>
</linearGradient>
<linearGradient id="paint8_linear_257_484" x1="1133.87" y1="740.587" x2="523.715" y2="1071.15" gradientUnits="userSpaceOnUse">
<stop stop-color="white"/>
<stop offset="0.0436" stop-color="#B4B4B4"/>
<stop offset="0.1507"/>
<stop offset="0.1714" stop-color="#171717"/>
<stop offset="0.3859" stop-color="white"/>
<stop offset="0.6326" stop-color="#E6E6E6"/>
<stop offset="0.8567" stop-color="#1A1A1A"/>
<stop offset="0.9987"/>
</linearGradient>
<linearGradient id="paint9_linear_257_484" x1="1133.87" y1="740.587" x2="523.714" y2="1071.15" gradientUnits="userSpaceOnUse">
<stop stop-color="#0522AC"/>
<stop offset="1" stop-color="#34384C" stop-opacity="0"/>
</linearGradient>
<linearGradient id="paint10_linear_257_484" x1="1114.72" y1="756.007" x2="571.497" y2="1050.31" gradientUnits="userSpaceOnUse">
<stop stop-color="white"/>
<stop offset="0.0436" stop-color="#B4B4B4"/>
<stop offset="0.1507"/>
<stop offset="0.1714" stop-color="#171717"/>
<stop offset="0.3859" stop-color="white"/>
<stop offset="0.6326" stop-color="#E6E6E6"/>
<stop offset="0.8567" stop-color="#1A1A1A"/>
<stop offset="0.9987"/>
</linearGradient>
<linearGradient id="paint11_linear_257_484" x1="1114.72" y1="756.008" x2="571.498" y2="1050.31" gradientUnits="userSpaceOnUse">
<stop stop-color="#0522AC"/>
<stop offset="1" stop-color="#34384C" stop-opacity="0"/>
</linearGradient>
<linearGradient id="paint12_linear_257_484" x1="1095.9" y1="771.314" x2="619.253" y2="1029.54" gradientUnits="userSpaceOnUse">
<stop stop-color="white"/>
<stop offset="0.0436" stop-color="#B4B4B4"/>
<stop offset="0.1507"/>
<stop offset="0.1714" stop-color="#171717"/>
<stop offset="0.3859" stop-color="white"/>
<stop offset="0.6326" stop-color="#E6E6E6"/>
<stop offset="0.8567" stop-color="#1A1A1A"/>
<stop offset="0.9987"/>
</linearGradient>
<linearGradient id="paint13_linear_257_484" x1="1095.9" y1="771.313" x2="619.251" y2="1029.54" gradientUnits="userSpaceOnUse">
<stop stop-color="#0522AC"/>
<stop offset="1" stop-color="#34384C" stop-opacity="0"/>
</linearGradient>
<linearGradient id="paint14_linear_257_484" x1="1077.46" y1="786.529" x2="666.991" y2="1008.9" gradientUnits="userSpaceOnUse">
<stop stop-color="white"/>
<stop offset="0.0436" stop-color="#B4B4B4"/>
<stop offset="0.1507"/>
<stop offset="0.1714" stop-color="#171717"/>
<stop offset="0.3859" stop-color="white"/>
<stop offset="0.6326" stop-color="#E6E6E6"/>
<stop offset="0.8567" stop-color="#1A1A1A"/>
<stop offset="0.9987"/>
</linearGradient>
<linearGradient id="paint15_linear_257_484" x1="1077.46" y1="786.53" x2="666.991" y2="1008.9" gradientUnits="userSpaceOnUse">
<stop stop-color="#0522AC"/>
<stop offset="1" stop-color="#34384C" stop-opacity="0"/>
</linearGradient>
<linearGradient id="paint16_linear_257_484" x1="1059.4" y1="801.781" x2="714.672" y2="988.532" gradientUnits="userSpaceOnUse">
<stop stop-color="white"/>
<stop offset="0.0436" stop-color="#B4B4B4"/>
<stop offset="0.1507"/>
<stop offset="0.1714" stop-color="#171717"/>
<stop offset="0.3859" stop-color="white"/>
<stop offset="0.6326" stop-color="#E6E6E6"/>
<stop offset="0.8567" stop-color="#1A1A1A"/>
<stop offset="0.9987"/>
</linearGradient>
<linearGradient id="paint17_linear_257_484" x1="1059.4" y1="801.78" x2="714.675" y2="988.529" gradientUnits="userSpaceOnUse">
<stop stop-color="#0522AC"/>
<stop offset="1" stop-color="#34384C" stop-opacity="0"/>
</linearGradient>
<linearGradient id="paint18_linear_257_484" x1="1042.16" y1="817.172" x2="762.273" y2="968.793" gradientUnits="userSpaceOnUse">
<stop stop-color="white"/>
<stop offset="0.0436" stop-color="#B4B4B4"/>
<stop offset="0.1507"/>
<stop offset="0.1714" stop-color="#171717"/>
<stop offset="0.3859" stop-color="white"/>
<stop offset="0.6326" stop-color="#E6E6E6"/>
<stop offset="0.8567" stop-color="#1A1A1A"/>
<stop offset="0.9987"/>
</linearGradient>
<linearGradient id="paint19_linear_257_484" x1="1042.16" y1="817.173" x2="762.273" y2="968.794" gradientUnits="userSpaceOnUse">
<stop stop-color="#0522AC"/>
<stop offset="1" stop-color="#34384C" stop-opacity="0"/>
</linearGradient>
<linearGradient id="paint20_linear_257_484" x1="1028.41" y1="837.443" x2="811.603" y2="954.892" gradientUnits="userSpaceOnUse">
<stop stop-color="white"/>
<stop offset="0.0436" stop-color="#B4B4B4"/>
<stop offset="0.1507"/>
<stop offset="0.1714" stop-color="#171717"/>
<stop offset="0.3859" stop-color="white"/>
<stop offset="0.6326" stop-color="#E6E6E6"/>
<stop offset="0.8567" stop-color="#1A1A1A"/>
<stop offset="0.9987"/>
</linearGradient>
<linearGradient id="paint21_linear_257_484" x1="1028.4" y1="837.443" x2="811.603" y2="954.891" gradientUnits="userSpaceOnUse">
<stop stop-color="#0522AC"/>
<stop offset="1" stop-color="#34384C" stop-opacity="0"/>
</linearGradient>
<linearGradient id="paint22_linear_257_484" x1="1016.67" y1="859.151" x2="852.444" y2="948.116" gradientUnits="userSpaceOnUse">
<stop stop-color="white"/>
<stop offset="0.0436" stop-color="#B4B4B4"/>
<stop offset="0.1507"/>
<stop offset="0.1714" stop-color="#171717"/>
<stop offset="0.3859" stop-color="white"/>
<stop offset="0.6326" stop-color="#E6E6E6"/>
<stop offset="0.8567" stop-color="#1A1A1A"/>
<stop offset="0.9987"/>
</linearGradient>
<linearGradient id="paint23_linear_257_484" x1="1016.68" y1="859.15" x2="852.445" y2="948.116" gradientUnits="userSpaceOnUse">
<stop stop-color="#0522AC"/>
<stop offset="1" stop-color="#34384C" stop-opacity="0"/>
</linearGradient>
</defs>
</svg>
