<svg width="1440" height="1024" viewBox="0 0 1440 1024" fill="none" xmlns="http://www.w3.org/2000/svg">
<mask id="mask0_2267_13053" style="mask-type:alpha" maskUnits="userSpaceOnUse" x="-650" y="266" width="1462" height="1047">
<path d="M-453.65 932.918C-469.921 918.781 -485.326 904.729 -499.777 890.827C-579.136 814.49 -627.64 745.403 -643.942 685.485C-660.621 624.183 -642.818 573.967 -591.025 536.232C-433.78 421.668 -319.687 365.128 -244.191 327.714C-210.21 310.875 -183.371 297.574 -164.844 284.877L-164.233 285.954L-164.844 284.877C-134.022 263.754 -64.5293 260.531 16.5147 276.467C103.731 293.616 185.044 328.768 239.607 372.908C314.864 433.79 411.133 479.765 478.641 507.613C557.278 540.051 643.614 566.932 709.589 579.52C752.18 587.645 783.133 613.556 799.1 654.453C826.747 725.267 805.997 831.737 744.946 932.315C716.009 979.988 686.087 1029.28 654.686 1074.67C619.97 1124.84 587.117 1164.67 554.25 1196.43C515.004 1234.36 474.716 1262.1 431.084 1281.22C382.367 1302.58 330.584 1312.83 272.776 1312.56C174.042 1312.09 -34.9183 1222.25 -235.376 1094.1C-317.375 1041.67 -391.769 986.687 -453.65 932.918ZM764.422 608.008C749.376 594.935 730.816 586.145 709.194 582.02C643.085 569.407 556.594 542.48 477.83 509.989C410.185 482.085 313.708 436.006 238.238 374.952C183.95 331.035 102.987 296.048 16.1077 278.966C-64.3964 263.136 -133.265 266.227 -163.622 287.031C-182.28 299.818 -209.182 313.149 -243.241 330.028C-318.67 367.409 -432.659 423.898 -589.748 538.348C-640.595 575.392 -658.083 624.652 -641.73 684.759C-625.554 744.212 -577.282 812.901 -498.256 888.918C-428.954 955.581 -337.649 1025.77 -234.214 1091.9C-34.0713 1219.86 174.416 1309.55 272.787 1310.02C330.293 1310.29 381.792 1300.1 430.228 1278.87C473.61 1259.85 513.679 1232.26 552.725 1194.53C625.977 1123.74 685.481 1025.71 743.025 930.906C803.647 831.034 824.321 725.488 796.978 655.453C789.429 636.119 778.454 620.2 764.422 608.008Z" fill="url(#paint0_linear_2267_13053)"/>
</mask>
<g mask="url(#mask0_2267_13053)">
<path d="M-453.65 932.918C-469.921 918.781 -485.326 904.729 -499.777 890.827C-579.136 814.49 -627.64 745.403 -643.942 685.485C-660.621 624.183 -642.818 573.967 -591.025 536.232C-433.78 421.668 -319.687 365.128 -244.191 327.714C-210.21 310.875 -183.371 297.574 -164.844 284.877L-164.233 285.954L-164.844 284.877C-134.022 263.754 -64.5293 260.531 16.5147 276.467C103.731 293.616 185.044 328.768 239.607 372.908C314.864 433.79 411.133 479.765 478.641 507.613C557.278 540.051 643.614 566.932 709.589 579.52C752.18 587.645 783.133 613.556 799.1 654.453C826.747 725.267 805.997 831.737 744.946 932.315C716.009 979.988 686.087 1029.28 654.686 1074.67C619.97 1124.84 587.117 1164.67 554.25 1196.43C515.004 1234.36 474.716 1262.1 431.084 1281.22C382.367 1302.58 330.584 1312.83 272.776 1312.56C174.042 1312.09 -34.9183 1222.25 -235.376 1094.1C-317.375 1041.67 -391.769 986.687 -453.65 932.918ZM764.422 608.008C749.376 594.935 730.816 586.145 709.194 582.02C643.085 569.407 556.594 542.48 477.83 509.989C410.185 482.085 313.708 436.006 238.238 374.952C183.95 331.035 102.987 296.048 16.1077 278.966C-64.3964 263.136 -133.265 266.227 -163.622 287.031C-182.28 299.818 -209.182 313.149 -243.241 330.028C-318.67 367.409 -432.659 423.898 -589.748 538.348C-640.595 575.392 -658.083 624.652 -641.73 684.759C-625.554 744.212 -577.282 812.901 -498.256 888.918C-428.954 955.581 -337.649 1025.77 -234.214 1091.9C-34.0713 1219.86 174.416 1309.55 272.787 1310.02C330.293 1310.29 381.792 1300.1 430.228 1278.87C473.61 1259.85 513.679 1232.26 552.725 1194.53C625.977 1123.74 685.481 1025.71 743.025 930.906C803.647 831.034 824.321 725.488 796.978 655.453C789.429 636.119 778.454 620.2 764.422 608.008Z" fill="url(#paint1_linear_2267_13053)"/>
</g>
<mask id="mask1_2267_13053" style="mask-type:alpha" maskUnits="userSpaceOnUse" x="-596" y="292" width="1349" height="966">
<path d="M-419.462 908.158C-432.329 896.979 -444.587 885.86 -456.188 874.842C-529.354 805.347 -574.184 742.441 -589.43 687.869C-604.845 632.698 -589.29 587.422 -543.198 553.302C-404.671 449.114 -297.859 392.909 -227.18 355.718C-194 338.259 -167.793 324.469 -149.133 311.525C-118.963 290.624 -53.5223 286.231 21.6537 300.061C102.149 314.869 178.206 347.012 230.324 388.246C300.004 444.042 388.319 486.866 450.137 512.966C522.758 543.628 599.536 568.617 660.784 581.523C699.431 589.676 727.476 613.969 741.888 651.775C766.905 717.404 747.783 815.345 691.985 907.377L691.986 907.376C639.418 994.263 585.059 1084.11 516.359 1150.33C480.173 1185.21 443.022 1210.77 402.783 1228.47C357.895 1248.21 310.217 1257.8 257.028 1257.79C165.713 1258.09 -27.3352 1176.72 -212.426 1059.92C-290.524 1010.63 -361.206 958.777 -419.462 908.158ZM709.186 607.509C695.784 595.863 679.39 587.875 660.374 583.863C599.006 570.931 522.094 545.901 449.358 515.19C387.418 489.038 298.917 446.12 229.051 390.175C177.199 349.152 101.473 317.161 21.2958 302.41C-53.3762 288.673 -118.237 292.937 -147.975 313.54C-166.741 326.557 -192.999 340.374 -226.242 357.867C-296.862 395.027 -403.582 451.183 -541.979 555.273C-587.192 588.743 -602.457 633.117 -587.356 687.169C-572.231 741.305 -527.622 803.841 -454.768 873.039C-390.75 933.849 -306.574 997.754 -211.347 1057.85C-26.5532 1174.47 166.048 1255.7 257.024 1255.4C309.936 1255.42 357.349 1245.88 401.976 1226.26C441.983 1208.66 478.93 1183.24 514.927 1148.54C583.411 1082.53 637.688 992.814 690.178 906.056V906.055C745.578 814.679 764.625 717.596 739.885 652.696C732.851 634.244 722.494 619.073 709.186 607.509Z" fill="url(#paint2_linear_2267_13053)"/>
</mask>
<g mask="url(#mask1_2267_13053)">
<path d="M-419.462 908.158C-432.329 896.979 -444.587 885.86 -456.188 874.842C-529.354 805.347 -574.184 742.441 -589.43 687.869C-604.845 632.698 -589.29 587.422 -543.198 553.302C-404.671 449.114 -297.859 392.909 -227.18 355.718C-194 338.259 -167.793 324.469 -149.133 311.525C-118.963 290.624 -53.5223 286.231 21.6537 300.061C102.149 314.869 178.206 347.012 230.324 388.246C300.004 444.042 388.319 486.866 450.137 512.966C522.758 543.628 599.536 568.617 660.784 581.523C699.431 589.676 727.476 613.969 741.888 651.775C766.905 717.404 747.783 815.345 691.985 907.377L691.986 907.376C639.418 994.263 585.059 1084.11 516.359 1150.33C480.173 1185.21 443.022 1210.77 402.783 1228.47C357.895 1248.21 310.217 1257.8 257.028 1257.79C165.713 1258.09 -27.3352 1176.72 -212.426 1059.92C-290.524 1010.63 -361.206 958.777 -419.462 908.158ZM709.186 607.509C695.784 595.863 679.39 587.875 660.374 583.863C599.006 570.931 522.094 545.901 449.358 515.19C387.418 489.038 298.917 446.12 229.051 390.175C177.199 349.152 101.473 317.161 21.2958 302.41C-53.3762 288.673 -118.237 292.937 -147.975 313.54C-166.741 326.557 -192.999 340.374 -226.242 357.867C-296.862 395.027 -403.582 451.183 -541.979 555.273C-587.192 588.743 -602.457 633.117 -587.356 687.169C-572.231 741.305 -527.622 803.841 -454.768 873.039C-390.75 933.849 -306.574 997.754 -211.347 1057.85C-26.5532 1174.47 166.048 1255.7 257.024 1255.4C309.936 1255.42 357.349 1245.88 401.976 1226.26C441.983 1208.66 478.93 1183.24 514.927 1148.54C583.411 1082.53 637.688 992.814 690.178 906.056V906.055C745.578 814.679 764.625 717.596 739.885 652.696C732.851 634.244 722.494 619.073 709.186 607.509Z" fill="url(#paint3_linear_2267_13053)"/>
</g>
<mask id="mask2_2267_13053" style="mask-type:alpha" maskUnits="userSpaceOnUse" x="-541" y="317" width="1236" height="887">
<path d="M-385.217 883.558C-394.748 875.277 -403.889 867.045 -412.637 858.862C-479.613 796.208 -520.767 739.48 -534.956 690.256C-549.093 641.212 -535.775 600.877 -495.372 570.371C-374.67 475.894 -278.811 422.217 -208.817 383.024C-177.053 365.237 -151.965 351.189 -133.42 338.17C-103.443 317.172 -43.5513 311.745 26.7917 323.652C100.582 336.143 171.382 365.277 221.04 403.583C337.222 495.494 518.485 561.549 611.978 583.525C646.689 591.705 671.831 614.385 684.685 649.117C707.055 709.563 689.557 798.967 639.02 882.441C593.716 957.614 542.365 1042.82 478.464 1104.23C445.34 1136.06 411.326 1159.45 374.479 1175.71C333.42 1193.84 289.849 1202.78 241.276 1203.02C199.177 1203.55 134.736 1186.31 54.9258 1153.14C-21.7412 1121.28 -108.549 1076.04 -189.509 1025.74C-263.688 979.656 -330.647 930.972 -385.217 883.558ZM653.938 606.949C642.191 596.742 627.966 589.572 611.552 585.706C517.893 563.689 336.29 497.504 219.864 405.4C170.463 367.293 99.9738 338.298 26.4818 325.857C-43.3873 314.029 -102.756 319.336 -132.33 340.05C-150.956 353.127 -176.084 367.198 -207.896 385.011C-277.833 424.173 -373.615 477.807 -494.21 572.197C-533.804 602.092 -546.857 641.584 -533.022 689.582C-518.95 738.402 -478.004 794.783 -411.322 857.163C-352.581 912.109 -275.535 969.735 -188.511 1023.8C-107.639 1074.04 -20.9302 1119.24 55.6428 1151.05C135.219 1184.12 199.404 1201.32 241.259 1200.79C289.578 1200.54 332.904 1191.66 373.721 1173.64C410.353 1157.47 444.177 1134.21 477.127 1102.55C540.823 1041.34 592.093 956.264 637.328 881.206L637.329 881.205C687.499 798.337 704.923 709.728 682.803 649.957C676.288 632.349 666.541 617.9 653.938 606.949Z" fill="url(#paint4_linear_2267_13053)"/>
</mask>
<g mask="url(#mask2_2267_13053)">
<path d="M-385.217 883.558C-394.748 875.277 -403.889 867.045 -412.637 858.862C-479.613 796.208 -520.767 739.48 -534.956 690.256C-549.093 641.212 -535.775 600.877 -495.372 570.371C-374.67 475.894 -278.811 422.217 -208.817 383.024C-177.053 365.237 -151.965 351.189 -133.42 338.17C-103.443 317.172 -43.5513 311.745 26.7917 323.652C100.582 336.143 171.382 365.277 221.04 403.583C337.222 495.494 518.485 561.549 611.978 583.525C646.689 591.705 671.831 614.385 684.685 649.117C707.055 709.563 689.557 798.967 639.02 882.441C593.716 957.614 542.365 1042.82 478.464 1104.23C445.34 1136.06 411.326 1159.45 374.479 1175.71C333.42 1193.84 289.849 1202.78 241.276 1203.02C199.177 1203.55 134.736 1186.31 54.9258 1153.14C-21.7412 1121.28 -108.549 1076.04 -189.509 1025.74C-263.688 979.656 -330.647 930.972 -385.217 883.558ZM653.938 606.949C642.191 596.742 627.966 589.572 611.552 585.706C517.893 563.689 336.29 497.504 219.864 405.4C170.463 367.293 99.9738 338.298 26.4818 325.857C-43.3873 314.029 -102.756 319.336 -132.33 340.05C-150.956 353.127 -176.084 367.198 -207.896 385.011C-277.833 424.173 -373.615 477.807 -494.21 572.197C-533.804 602.092 -546.857 641.584 -533.022 689.582C-518.95 738.402 -478.004 794.783 -411.322 857.163C-352.581 912.109 -275.535 969.735 -188.511 1023.8C-107.639 1074.04 -20.9302 1119.24 55.6428 1151.05C135.219 1184.12 199.404 1201.32 241.259 1200.79C289.578 1200.54 332.904 1191.66 373.721 1173.64C410.353 1157.47 444.177 1134.21 477.127 1102.55C540.823 1041.34 592.093 956.264 637.328 881.206L637.329 881.205C687.499 798.337 704.923 709.728 682.803 649.957C676.288 632.349 666.541 617.9 653.938 606.949Z" fill="url(#paint5_linear_2267_13053)"/>
</g>
<mask id="mask3_2267_13053" style="mask-type:alpha" maskUnits="userSpaceOnUse" x="-486" y="342" width="1122" height="807">
<path d="M-350.904 859.16C-357.176 853.711 -363.252 848.287 -369.136 842.884C-429.924 787.071 -467.402 736.523 -480.532 692.647C-493.375 649.726 -482.278 614.328 -447.547 587.439C-343.58 501.756 -253.833 448.153 -188.303 409.014C-160.066 392.15 -135.68 377.584 -117.707 364.814C-88.3622 344.027 -32.4232 337.458 31.9297 347.244C99.0358 357.446 164.58 383.571 211.756 418.918C258.043 455.006 320.755 491.225 393.126 523.671C451.216 549.714 513.195 572.261 563.173 585.528C593.963 593.728 616.209 614.807 627.5 646.486C647.2 701.749 631.32 782.605 586.057 857.501C538.783 936.315 495.204 1005.81 440.571 1058.13C410.51 1086.91 379.633 1108.12 346.177 1122.96C308.948 1139.47 269.482 1147.74 225.527 1148.25C186.907 1149.17 128.081 1134.13 55.4188 1104.76C-14.0942 1076.67 -92.9523 1036.47 -166.628 991.57C-236.884 948.756 -300.093 903.31 -350.904 859.16ZM598.676 606.304C588.6 597.549 576.544 591.227 562.728 587.546C512.663 574.255 450.585 551.674 392.412 525.594C319.909 493.089 257.066 456.791 210.676 420.623C163.747 385.461 98.4968 359.461 31.6697 349.301C-32.2493 339.582 -87.7083 346.034 -116.684 366.559C-134.716 379.371 -159.132 393.954 -187.402 410.839C-252.881 449.948 -342.558 503.509 -446.437 589.118C-480.431 615.438 -491.291 650.046 -478.738 691.998C-465.72 735.5 -428.438 785.729 -367.926 841.289C-314.455 890.376 -244.537 941.717 -165.714 989.753C-92.1203 1034.6 -13.3562 1074.75 56.0698 1102.81C128.511 1132.09 187.098 1147.08 225.495 1146.17C269.221 1145.67 308.46 1137.44 345.468 1121.03C378.726 1106.28 409.428 1085.19 439.329 1056.56C493.782 1004.42 537.282 935.043 584.481 856.355L584.483 856.353C629.41 782.012 645.219 701.886 625.74 647.243C619.747 630.431 610.6 616.666 598.676 606.304Z" fill="url(#paint6_linear_2267_13053)"/>
</mask>
<g mask="url(#mask3_2267_13053)">
<path d="M-350.904 859.16C-357.176 853.711 -363.252 848.287 -369.136 842.884C-429.924 787.071 -467.402 736.523 -480.532 692.647C-493.375 649.726 -482.278 614.328 -447.547 587.439C-343.58 501.756 -253.833 448.153 -188.303 409.014C-160.066 392.15 -135.68 377.584 -117.707 364.814C-88.3622 344.027 -32.4232 337.458 31.9297 347.244C99.0358 357.446 164.58 383.571 211.756 418.918C258.043 455.006 320.755 491.225 393.126 523.671C451.216 549.714 513.195 572.261 563.173 585.528C593.963 593.728 616.209 614.807 627.5 646.486C647.2 701.749 631.32 782.605 586.057 857.501C538.783 936.315 495.204 1005.81 440.571 1058.13C410.51 1086.91 379.633 1108.12 346.177 1122.96C308.948 1139.47 269.482 1147.74 225.527 1148.25C186.907 1149.17 128.081 1134.13 55.4188 1104.76C-14.0942 1076.67 -92.9523 1036.47 -166.628 991.57C-236.884 948.756 -300.093 903.31 -350.904 859.16ZM598.676 606.304C588.6 597.549 576.544 591.227 562.728 587.546C512.663 574.255 450.585 551.674 392.412 525.594C319.909 493.089 257.066 456.791 210.676 420.623C163.747 385.461 98.4968 359.461 31.6697 349.301C-32.2493 339.582 -87.7083 346.034 -116.684 366.559C-134.716 379.371 -159.132 393.954 -187.402 410.839C-252.881 449.948 -342.558 503.509 -446.437 589.118C-480.431 615.438 -491.291 650.046 -478.738 691.998C-465.72 735.5 -428.438 785.729 -367.926 841.289C-314.455 890.376 -244.537 941.717 -165.714 989.753C-92.1203 1034.6 -13.3562 1074.75 56.0698 1102.81C128.511 1132.09 187.098 1147.08 225.495 1146.17C269.221 1145.67 308.46 1137.44 345.468 1121.03C378.726 1106.28 409.428 1085.19 439.329 1056.56C493.782 1004.42 537.282 935.043 584.481 856.355L584.483 856.353C629.41 782.012 645.219 701.886 625.74 647.243C619.747 630.431 610.6 616.666 598.676 606.304Z" fill="url(#paint7_linear_2267_13053)"/>
</g>
<mask id="mask4_2267_13053" style="mask-type:alpha" maskUnits="userSpaceOnUse" x="-432" y="367" width="1010" height="727">
<path d="M-316.508 835.037C-319.629 832.326 -322.693 829.622 -325.701 826.923C-380.302 777.95 -414.107 733.585 -426.177 695.056C-437.708 658.247 -428.808 627.783 -399.724 604.511C-311.232 526.348 -226.351 472.171 -164.373 432.612C-139.796 416.925 -118.571 403.378 -101.995 391.459C-72.8323 370.565 -22.1463 363.049 37.0667 370.837C97.5207 378.788 157.809 401.903 202.472 434.257C289.289 500.749 425.006 560.318 514.371 587.534C541.26 595.758 560.613 615.25 570.339 643.904C587.339 693.983 573.068 766.275 533.095 832.566L533.097 832.561C492.944 899.896 452.755 964.29 402.678 1012.03C375.679 1037.76 347.94 1056.79 317.874 1070.2C284.475 1085.1 249.116 1092.71 209.777 1093.48C174.625 1094.78 121.406 1081.96 55.8857 1056.39C-6.48532 1032.06 -77.4013 996.906 -143.798 957.414C-210.113 917.971 -269.552 875.837 -316.508 835.037ZM543.395 605.544C535.011 598.259 525.128 592.82 513.902 589.387C424.399 562.13 288.456 502.456 201.49 435.847C157.064 403.667 97.0517 380.662 36.8587 372.745C-21.9523 365.011 -72.2143 372.419 -101.038 393.07C-117.652 405.014 -138.895 418.574 -163.494 434.275C-225.423 473.803 -310.239 527.938 -398.661 606.038C-427.085 628.783 -435.775 658.513 -424.523 694.431C-412.56 732.616 -378.94 776.691 -324.596 825.434C-276.391 868.646 -213.593 913.716 -142.966 955.723C-76.6463 995.169 -5.8183 1030.28 56.4707 1054.58C121.786 1080.07 174.783 1092.85 209.731 1091.55C248.865 1090.79 284.019 1083.23 317.215 1068.42C347.099 1055.09 374.679 1036.17 401.53 1010.57C451.438 963 491.549 898.726 531.632 831.509L531.634 831.504C571.303 765.717 585.505 694.09 568.697 644.576C563.237 628.485 554.673 615.344 543.395 605.544Z" fill="url(#paint8_linear_2267_13053)"/>
</mask>
<g mask="url(#mask4_2267_13053)">
<path d="M-316.508 835.037C-319.629 832.326 -322.693 829.622 -325.701 826.923C-380.302 777.95 -414.107 733.585 -426.177 695.056C-437.708 658.247 -428.808 627.783 -399.724 604.511C-311.232 526.348 -226.351 472.171 -164.373 432.612C-139.796 416.925 -118.571 403.378 -101.995 391.459C-72.8323 370.565 -22.1463 363.049 37.0667 370.837C97.5207 378.788 157.809 401.903 202.472 434.257C289.289 500.749 425.006 560.318 514.371 587.534C541.26 595.758 560.613 615.25 570.339 643.904C587.339 693.983 573.068 766.275 533.095 832.566L533.097 832.561C492.944 899.896 452.755 964.29 402.678 1012.03C375.679 1037.76 347.94 1056.79 317.874 1070.2C284.475 1085.1 249.116 1092.71 209.777 1093.48C174.625 1094.78 121.406 1081.96 55.8857 1056.39C-6.48532 1032.06 -77.4013 996.906 -143.798 957.414C-210.113 917.971 -269.552 875.837 -316.508 835.037ZM543.395 605.544C535.011 598.259 525.128 592.82 513.902 589.387C424.399 562.13 288.456 502.456 201.49 435.847C157.064 403.667 97.0517 380.662 36.8587 372.745C-21.9523 365.011 -72.2143 372.419 -101.038 393.07C-117.652 405.014 -138.895 418.574 -163.494 434.275C-225.423 473.803 -310.239 527.938 -398.661 606.038C-427.085 628.783 -435.775 658.513 -424.523 694.431C-412.56 732.616 -378.94 776.691 -324.596 825.434C-276.391 868.646 -213.593 913.716 -142.966 955.723C-76.6463 995.169 -5.8183 1030.28 56.4707 1054.58C121.786 1080.07 174.783 1092.85 209.731 1091.55C248.865 1090.79 284.019 1083.23 317.215 1068.42C347.099 1055.09 374.679 1036.17 401.53 1010.57C451.438 963 491.549 898.726 531.632 831.509L531.634 831.504C571.303 765.717 585.505 694.09 568.697 644.576C563.237 628.485 554.673 615.344 543.395 605.544Z" fill="url(#paint9_linear_2267_13053)"/>
</g>
<mask id="mask5_2267_13053" style="mask-type:alpha" maskUnits="userSpaceOnUse" x="-377" y="392" width="896" height="647">
<path d="M-282.009 811.287C-282.125 811.187 -282.238 811.089 -282.354 810.987C-330.773 768.858 -360.907 730.674 -371.921 697.496C-382.117 666.781 -375.382 641.24 -351.903 621.584C-277.648 549.209 -195.252 493.028 -135.09 452.008C-116.251 439.164 -99.9803 428.07 -86.2823 418.104C-57.7103 397.396 -10.8792 388.768 42.2018 394.43C96.0457 400.173 151.078 420.28 193.187 449.595C231.001 477.918 279.083 506.438 336.118 534.382C379.023 555.401 426.206 575.507 465.571 589.543C488.583 597.793 505.055 615.72 513.207 641.391C527.464 686.282 514.79 749.981 480.131 807.629C446.728 864.064 410.303 922.779 364.784 965.924C340.849 988.611 316.247 1005.46 289.571 1017.45C260.003 1030.73 228.751 1037.68 194.027 1038.7C131.213 1042.06 4.59372 995.677 -121.032 923.278C-183.385 887.343 -239.04 848.624 -282.009 811.287ZM488.086 604.61C481.424 598.821 473.721 594.325 465.074 591.223C425.659 577.17 378.418 557.04 335.463 535.996C278.34 508.01 230.174 479.437 192.303 451.072C150.423 421.916 95.6477 401.906 42.0467 396.19C-10.6743 390.566 -57.1253 399.091 -85.3953 419.58C-99.1123 429.56 -115.392 440.659 -134.242 453.512C-194.355 494.499 -276.682 550.632 -350.882 622.95C-373.781 642.123 -380.336 666.986 -370.409 696.889C-359.499 729.756 -329.537 767.677 -281.356 809.601C-281.243 809.698 -281.125 809.802 -281.012 809.899C-238.119 847.171 -182.556 885.824 -120.285 921.711C5.10776 993.976 131.396 1040.28 193.966 1036.94C228.509 1035.92 259.576 1029.01 288.961 1015.81C315.473 1003.9 339.931 987.143 363.732 964.583C409.091 921.589 445.441 862.991 478.784 806.658L478.787 806.652C513.174 749.455 525.781 686.352 511.686 641.973C506.773 626.496 498.768 613.892 488.086 604.61Z" fill="url(#paint10_linear_2267_13053)"/>
</mask>
<g mask="url(#mask5_2267_13053)">
<path d="M-282.009 811.287C-282.125 811.187 -282.238 811.089 -282.354 810.987C-330.773 768.858 -360.907 730.674 -371.921 697.496C-382.117 666.781 -375.382 641.24 -351.903 621.584C-277.648 549.209 -195.252 493.028 -135.09 452.008C-116.251 439.164 -99.9803 428.07 -86.2823 418.104C-57.7103 397.396 -10.8792 388.768 42.2018 394.43C96.0457 400.173 151.078 420.28 193.187 449.595C231.001 477.918 279.083 506.438 336.118 534.382C379.023 555.401 426.206 575.507 465.571 589.543C488.583 597.793 505.055 615.72 513.207 641.391C527.464 686.282 514.79 749.981 480.131 807.629C446.728 864.064 410.303 922.779 364.784 965.924C340.849 988.611 316.247 1005.46 289.571 1017.45C260.003 1030.73 228.751 1037.68 194.027 1038.7C131.213 1042.06 4.59372 995.677 -121.032 923.278C-183.385 887.343 -239.04 848.624 -282.009 811.287ZM488.086 604.61C481.424 598.821 473.721 594.325 465.074 591.223C425.659 577.17 378.418 557.04 335.463 535.996C278.34 508.01 230.174 479.437 192.303 451.072C150.423 421.916 95.6477 401.906 42.0467 396.19C-10.6743 390.566 -57.1253 399.091 -85.3953 419.58C-99.1123 429.56 -115.392 440.659 -134.242 453.512C-194.355 494.499 -276.682 550.632 -350.882 622.95C-373.781 642.123 -380.336 666.986 -370.409 696.889C-359.499 729.756 -329.537 767.677 -281.356 809.601C-281.243 809.698 -281.125 809.802 -281.012 809.899C-238.119 847.171 -182.556 885.824 -120.285 921.711C5.10776 993.976 131.396 1040.28 193.966 1036.94C228.509 1035.92 259.576 1029.01 288.961 1015.81C315.473 1003.9 339.931 987.143 363.732 964.583C409.091 921.589 445.441 862.991 478.784 806.658L478.787 806.652C513.174 749.455 525.781 686.352 511.686 641.973C506.773 626.496 498.768 613.892 488.086 604.61Z" fill="url(#paint11_linear_2267_13053)"/>
</g>
<mask id="mask6_2267_13053" style="mask-type:alpha" maskUnits="userSpaceOnUse" x="-323" y="417" width="784" height="568">
<path d="M-247.568 787.92C-284.913 755.472 -308.523 725.929 -317.81 700.004C-326.639 675.359 -322.033 654.733 -304.117 638.691C-243.355 569.771 -159.05 508.823 -97.4932 464.321C-87.8342 457.338 -78.7092 450.741 -70.5662 444.747C-42.1312 423.898 -0.258209 414.407 47.3398 418.023C95.3328 421.669 143.833 438.328 183.905 464.932C210.771 484.484 287.19 535.923 416.778 591.553C435.95 599.838 449.555 616.242 456.12 638.996C467.572 678.681 456.479 733.74 427.173 782.685C400.125 828.832 367.839 881.294 326.891 919.823C283.618 960.541 235.007 981.511 178.28 983.934C150.023 986.02 107.978 977.643 56.7098 959.706C7.87878 942.621 -45.7403 918.236 -98.3483 889.186C-152.674 859.187 -201.354 826.658 -239.124 795.112C-242.012 792.701 -244.828 790.302 -247.568 787.92ZM432.738 603.41C427.846 599.159 422.33 595.689 416.24 593.057C395.51 584.158 353.747 565.586 306.987 541.194C257.901 515.591 216.225 490.392 183.117 466.296C143.266 439.839 95.0008 423.262 47.2368 419.633C-0.0382385 416.041 -41.5852 425.437 -69.7502 446.089C-77.8972 452.086 -87.0242 458.683 -96.6862 465.67C-158.197 510.137 -242.44 571.04 -303.092 639.848L-303.156 639.913C-320.545 655.464 -325.015 675.483 -316.443 699.413C-306.713 726.571 -279.671 759.217 -238.234 793.826C-200.535 825.313 -151.935 857.788 -97.6882 887.742C-45.1472 916.755 8.39676 941.105 57.1558 958.166C108.249 976.042 150.107 984.395 178.202 982.32C234.606 979.911 282.923 959.067 325.935 918.595C366.732 880.208 398.946 827.861 425.938 781.808L425.942 781.801C455.014 733.25 466.041 678.717 454.719 639.483C450.379 624.446 442.905 612.243 432.738 603.41Z" fill="url(#paint12_linear_2267_13053)"/>
</mask>
<g mask="url(#mask6_2267_13053)">
<path d="M-247.568 787.92C-284.913 755.472 -308.523 725.929 -317.81 700.004C-326.639 675.359 -322.033 654.733 -304.117 638.691C-243.355 569.771 -159.05 508.823 -97.4932 464.321C-87.8342 457.338 -78.7092 450.741 -70.5662 444.747C-42.1312 423.898 -0.258209 414.407 47.3398 418.023C95.3328 421.669 143.833 438.328 183.905 464.932C210.771 484.484 287.19 535.923 416.778 591.553C435.95 599.838 449.555 616.242 456.12 638.996C467.572 678.681 456.479 733.74 427.173 782.685C400.125 828.832 367.839 881.294 326.891 919.823C283.618 960.541 235.007 981.511 178.28 983.934C150.023 986.02 107.978 977.643 56.7098 959.706C7.87878 942.621 -45.7403 918.236 -98.3483 889.186C-152.674 859.187 -201.354 826.658 -239.124 795.112C-242.012 792.701 -244.828 790.302 -247.568 787.92ZM432.738 603.41C427.846 599.159 422.33 595.689 416.24 593.057C395.51 584.158 353.747 565.586 306.987 541.194C257.901 515.591 216.225 490.392 183.117 466.296C143.266 439.839 95.0008 423.262 47.2368 419.633C-0.0382385 416.041 -41.5852 425.437 -69.7502 446.089C-77.8972 452.086 -87.0242 458.683 -96.6862 465.67C-158.197 510.137 -242.44 571.04 -303.092 639.848L-303.156 639.913C-320.545 655.464 -325.015 675.483 -316.443 699.413C-306.713 726.571 -279.671 759.217 -238.234 793.826C-200.535 825.313 -151.935 857.788 -97.6882 887.742C-45.1472 916.755 8.39676 941.105 57.1558 958.166C108.249 976.042 150.107 984.395 178.202 982.32C234.606 979.911 282.923 959.067 325.935 918.595C366.732 880.208 398.946 827.861 425.938 781.808L425.942 781.801C455.014 733.25 466.041 678.717 454.719 639.483C450.379 624.446 442.905 612.243 432.738 603.41Z" fill="url(#paint13_linear_2267_13053)"/>
</g>
<mask id="mask7_2267_13053" style="mask-type:alpha" maskUnits="userSpaceOnUse" x="-269" y="441" width="672" height="489">
<path d="M-212.295 765.948C-238.811 742.908 -256.519 721.254 -263.929 702.668C-271.368 684.01 -268.808 668.241 -256.321 655.796C-209.885 586.847 -101.249 505.944 -54.8523 471.392C3.18973 428.324 97.5518 431.977 174.619 480.273C233.726 521.666 309.351 562.163 354.534 586.359C359.332 588.928 363.833 591.338 367.987 593.573C383.377 601.913 394.13 616.869 399.087 636.818C407.645 671.255 398.111 717.595 374.209 757.749C350.387 798.944 323.574 841.508 288.997 873.722C252.097 908.1 210.73 926.235 162.533 929.163C113.721 934.045 20.1747 905.008 -75.7653 855.187C-121.895 831.232 -163.488 805.015 -196.045 779.37C-201.778 774.854 -207.201 770.372 -212.295 765.948ZM377.337 601.771C374.29 599.123 370.974 596.821 367.401 594.884C363.249 592.65 358.75 590.241 353.952 587.672C308.743 563.462 233.076 522.942 173.932 481.523C97.3157 433.51 3.53073 429.834 -54.1073 472.602C-100.461 507.121 -209.014 587.96 -255.292 656.722L-255.332 656.781L-255.381 656.83C-267.439 668.814 -269.906 684.038 -262.712 702.08C-253.974 723.996 -230.652 750.314 -195.271 778.181C-162.778 803.775 -121.257 829.947 -75.1973 853.865C20.5437 903.582 113.82 932.567 162.436 927.705C269.473 921.202 325.191 839.791 373.089 756.96L373.094 756.951C396.797 717.135 406.266 671.248 397.805 637.2C394.104 622.31 387.113 610.266 377.337 601.771Z" fill="url(#paint14_linear_2267_13053)"/>
</mask>
<g mask="url(#mask7_2267_13053)">
<path d="M-212.295 765.948C-238.811 742.908 -256.519 721.254 -263.929 702.668C-271.368 684.01 -268.808 668.241 -256.321 655.796C-209.885 586.847 -101.249 505.944 -54.8523 471.392C3.18973 428.324 97.5518 431.977 174.619 480.273C233.726 521.666 309.351 562.163 354.534 586.359C359.332 588.928 363.833 591.338 367.987 593.573C383.377 601.913 394.13 616.869 399.087 636.818C407.645 671.255 398.111 717.595 374.209 757.749C350.387 798.944 323.574 841.508 288.997 873.722C252.097 908.1 210.73 926.235 162.533 929.163C113.721 934.045 20.1747 905.008 -75.7653 855.187C-121.895 831.232 -163.488 805.015 -196.045 779.37C-201.778 774.854 -207.201 770.372 -212.295 765.948ZM377.337 601.771C374.29 599.123 370.974 596.821 367.401 594.884C363.249 592.65 358.75 590.241 353.952 587.672C308.743 563.462 233.076 522.942 173.932 481.523C97.3157 433.51 3.53073 429.834 -54.1073 472.602C-100.461 507.121 -209.014 587.96 -255.292 656.722L-255.332 656.781L-255.381 656.83C-267.439 668.814 -269.906 684.038 -262.712 702.08C-253.974 723.996 -230.652 750.314 -195.271 778.181C-162.778 803.775 -121.257 829.947 -75.1973 853.865C20.5437 903.582 113.82 932.567 162.436 927.705C269.473 921.202 325.191 839.791 373.089 756.96L373.094 756.951C396.797 717.135 406.266 671.248 397.805 637.2C394.104 622.31 387.113 610.266 377.337 601.771Z" fill="url(#paint15_linear_2267_13053)"/>
</g>
<mask id="mask8_2267_13053" style="mask-type:alpha" maskUnits="userSpaceOnUse" x="-215" y="465" width="559" height="411">
<path d="M-177.104 745.149C-193.314 731.066 -204.784 717.652 -210.409 705.722C-216.467 692.874 -215.841 681.844 -208.549 672.939C-200.599 650.105 -177.175 619.735 -138.924 582.667C-111.06 555.664 -74.6893 524.816 -39.1373 498.034C17.9677 455.148 94.4058 454.243 165.335 495.611C189.227 511.459 214.441 527.473 238.826 542.96C270.362 562.989 300.149 581.906 319.207 595.603C335.206 607.191 343.961 628.263 343.869 654.922C343.782 680.19 335.538 708.577 321.247 732.806C289.385 788.998 267.024 812.993 251.103 827.618C220.594 855.643 186.473 870.942 146.788 874.388C104.742 880.059 28.0867 859.76 -53.2353 821.41C-105.184 796.914 -148.512 769.992 -177.104 745.149ZM321.876 599.336C320.807 598.406 319.7 597.528 318.555 596.696C299.526 583.021 269.753 564.112 238.232 544.093C213.842 528.603 188.623 512.586 164.75 496.748C94.2457 455.629 18.2677 456.508 -38.4643 499.113C-73.9773 525.866 -110.306 556.677 -138.136 583.647C-176.304 620.635 -199.633 650.872 -207.476 673.52L-207.516 673.635L-207.591 673.726C-214.586 682.2 -215.179 692.764 -209.352 705.121C-193.926 737.837 -133.926 781.936 -52.7663 820.21C28.3747 858.474 104.794 878.737 146.669 873.09C186.125 869.664 220.028 854.463 250.341 826.617C280.521 798.893 303.55 761.549 320.241 732.112L320.247 732.102C334.418 708.078 342.595 679.945 342.681 654.918C342.763 630.635 335.409 611.095 321.876 599.336Z" fill="url(#paint16_linear_2267_13053)"/>
</mask>
<g mask="url(#mask8_2267_13053)">
<path d="M-177.104 745.149C-193.314 731.066 -204.784 717.652 -210.409 705.722C-216.467 692.874 -215.841 681.844 -208.549 672.939C-200.599 650.105 -177.175 619.735 -138.924 582.667C-111.06 555.664 -74.6893 524.816 -39.1373 498.034C17.9677 455.148 94.4058 454.243 165.335 495.611C189.227 511.459 214.441 527.473 238.826 542.96C270.362 562.989 300.149 581.906 319.207 595.603C335.206 607.191 343.961 628.263 343.869 654.922C343.782 680.19 335.538 708.577 321.247 732.806C289.385 788.998 267.024 812.993 251.103 827.618C220.594 855.643 186.473 870.942 146.788 874.388C104.742 880.059 28.0867 859.76 -53.2353 821.41C-105.184 796.914 -148.512 769.992 -177.104 745.149ZM321.876 599.336C320.807 598.406 319.7 597.528 318.555 596.696C299.526 583.021 269.753 564.112 238.232 544.093C213.842 528.603 188.623 512.586 164.75 496.748C94.2457 455.629 18.2677 456.508 -38.4643 499.113C-73.9773 525.866 -110.306 556.677 -138.136 583.647C-176.304 620.635 -199.633 650.872 -207.476 673.52L-207.516 673.635L-207.591 673.726C-214.586 682.2 -215.179 692.764 -209.352 705.121C-193.926 737.837 -133.926 781.936 -52.7663 820.21C28.3747 858.474 104.794 878.737 146.669 873.09C186.125 869.664 220.028 854.463 250.341 826.617C280.521 798.893 303.55 761.549 320.241 732.112L320.247 732.102C334.418 708.078 342.595 679.945 342.681 654.918C342.763 630.635 335.409 611.095 321.876 599.336Z" fill="url(#paint17_linear_2267_13053)"/>
</g>
<mask id="mask9_2267_13053" style="mask-type:alpha" maskUnits="userSpaceOnUse" x="-163" y="488" width="449" height="334">
<path d="M-141.963 726.718C-148.666 720.893 -153.844 715.307 -157.243 710.113C-162.215 702.517 -163.41 695.825 -160.796 690.217C-165.54 669.391 -139.638 635.19 -117.027 610.123C-91.5323 581.858 -56.5393 549.917 -23.4203 524.679C5.10573 502.992 33.2877 491.259 62.7357 488.811C92.8097 486.311 123.334 493.554 156.052 510.954C203.643 540.037 248.533 574.067 270.434 597.665C281.056 609.216 286.43 627.361 285.568 648.759C284.762 668.777 278.463 690.322 268.285 707.869C242.366 755.039 203.343 810.367 131.045 819.62C96.0367 826.049 35.7887 814.363 -30.0923 788.356C-78.2343 769.349 -119.015 746.655 -141.963 726.718ZM249.693 579.437C225.634 558.533 191.366 533.852 155.569 511.976C123.049 494.682 92.6997 487.476 62.8157 489.96C33.5577 492.393 5.54568 504.06 -22.8223 525.626C-84.7253 572.798 -168.127 655.026 -159.729 690.141L-159.677 690.359L-159.774 690.558C-162.307 695.787 -161.169 702.139 -156.391 709.44C-141.47 732.237 -91.7563 762.786 -29.7353 787.268C35.9847 813.212 96.0348 824.879 130.9 818.476C202.775 809.277 241.597 754.211 267.391 707.266L267.398 707.254C277.482 689.87 283.723 668.531 284.521 648.706C285.369 627.638 280.105 609.803 269.699 598.485C264.321 592.692 257.551 586.265 249.693 579.437Z" fill="url(#paint18_linear_2267_13053)"/>
</mask>
<g mask="url(#mask9_2267_13053)">
<path d="M-141.963 726.718C-148.666 720.893 -153.844 715.307 -157.243 710.113C-162.215 702.517 -163.41 695.825 -160.796 690.217C-165.54 669.391 -139.638 635.19 -117.027 610.123C-91.5323 581.858 -56.5393 549.917 -23.4203 524.679C5.10573 502.992 33.2877 491.259 62.7357 488.811C92.8097 486.311 123.334 493.554 156.052 510.954C203.643 540.037 248.533 574.067 270.434 597.665C281.056 609.216 286.43 627.361 285.568 648.759C284.762 668.777 278.463 690.322 268.285 707.869C242.366 755.039 203.343 810.367 131.045 819.62C96.0367 826.049 35.7887 814.363 -30.0923 788.356C-78.2343 769.349 -119.015 746.655 -141.963 726.718ZM249.693 579.437C225.634 558.533 191.366 533.852 155.569 511.976C123.049 494.682 92.6997 487.476 62.8157 489.96C33.5577 492.393 5.54568 504.06 -22.8223 525.626C-84.7253 572.798 -168.127 655.026 -159.729 690.141L-159.677 690.359L-159.774 690.558C-162.307 695.787 -161.169 702.139 -156.391 709.44C-141.47 732.237 -91.7563 762.786 -29.7353 787.268C35.9847 813.212 96.0348 824.879 130.9 818.476C202.775 809.277 241.597 754.211 267.391 707.266L267.398 707.254C277.482 689.87 283.723 668.531 284.521 648.706C285.369 627.638 280.105 609.803 269.699 598.485C264.321 592.692 257.551 586.265 249.693 579.437Z" fill="url(#paint19_linear_2267_13053)"/>
</g>
<mask id="mask10_2267_13053" style="mask-type:alpha" maskUnits="userSpaceOnUse" x="-122" y="510" width="350" height="259">
<path d="M-107.043 714.665C-109.933 712.154 -111.896 709.79 -112.798 707.639C-118.174 704.214 -121.041 699.069 -121.323 692.352C-122.15 672.699 -101.08 643.78 -83.2593 622.98C-62.0543 598.231 -33.8083 571.442 -7.70333 551.321C21.8437 528.577 45.1487 516.576 67.8637 512.411C92.0967 507.968 117.169 512.379 146.769 526.295C179.495 543.684 208.881 572.519 221.658 599.769C233.038 624.292 227.375 661.305 215.326 682.926C191.626 728.645 157.976 756.207 115.313 764.844C98.6996 769.109 77.0837 769.833 51.0897 766.993C28.5837 764.532 3.42165 759.404 -21.6764 752.163C-60.9684 740.824 -93.7734 726.194 -107.043 714.665ZM-112.087 706.935L-112.027 707.087C-111.195 709.177 -109.296 711.481 -106.479 713.929C-77.2743 739.311 50.7997 780.378 115.127 763.866C157.538 755.28 190.978 727.88 214.54 682.424L214.547 682.409C226.467 661.025 232.084 624.435 220.848 600.225C208.157 573.159 178.932 544.494 146.392 527.205C116.978 513.377 92.0666 508.987 68.0136 513.397C45.4396 517.537 22.2486 529.485 -7.18136 552.139C-33.2384 572.223 -61.4323 598.962 -82.5973 623.665C-100.298 644.324 -121.227 673.002 -120.415 692.306C-120.146 698.711 -117.386 703.608 -112.218 706.854L-112.087 706.935Z" fill="url(#paint20_linear_2267_13053)"/>
</mask>
<g mask="url(#mask10_2267_13053)">
<path d="M-107.043 714.665C-109.933 712.154 -111.896 709.79 -112.798 707.639C-118.174 704.214 -121.041 699.069 -121.323 692.352C-122.15 672.699 -101.08 643.78 -83.2593 622.98C-62.0543 598.231 -33.8083 571.442 -7.70333 551.321C21.8437 528.577 45.1487 516.576 67.8637 512.411C92.0967 507.968 117.169 512.379 146.769 526.295C179.495 543.684 208.881 572.519 221.658 599.769C233.038 624.292 227.375 661.305 215.326 682.926C191.626 728.645 157.976 756.207 115.313 764.844C98.6996 769.109 77.0837 769.833 51.0897 766.993C28.5837 764.532 3.42165 759.404 -21.6764 752.163C-60.9684 740.824 -93.7734 726.194 -107.043 714.665ZM-112.087 706.935L-112.027 707.087C-111.195 709.177 -109.296 711.481 -106.479 713.929C-77.2743 739.311 50.7997 780.378 115.127 763.866C157.538 755.28 190.978 727.88 214.54 682.424L214.547 682.409C226.467 661.025 232.084 624.435 220.848 600.225C208.157 573.159 178.932 544.494 146.392 527.205C116.978 513.377 92.0666 508.987 68.0136 513.397C45.4396 517.537 22.2486 529.485 -7.18136 552.139C-33.2384 572.223 -61.4323 598.962 -82.5973 623.665C-100.298 644.324 -121.227 673.002 -120.415 692.306C-120.146 698.711 -117.386 703.608 -112.218 706.854L-112.087 706.935Z" fill="url(#paint21_linear_2267_13053)"/>
</g>
<mask id="mask11_2267_13053" style="mask-type:alpha" maskUnits="userSpaceOnUse" x="-88" y="532" width="261" height="196">
<path d="M-81.4563 718.315C-84.3493 715.801 -86.2583 712.606 -87.1663 708.74C-89.4423 699.046 -86.4273 680.13 -59.1393 645.07C-40.8473 621.568 -15.7433 596.481 8.0137 577.961C36.0897 556.075 54.4727 542.331 72.9867 536.018C92.1397 529.488 110.827 531.117 137.486 541.638C152.181 547.436 162.446 558.029 167.999 573.116C180.004 605.741 166.388 649.002 162.375 657.963C154.877 674.7 141.28 688.738 121.959 699.689C105.329 709.113 84.4257 716.294 59.8317 721.031C15.3757 729.593 -33.6423 728.543 -64.6933 724.707C-72.0013 723.804 -77.6023 721.664 -81.4563 718.315ZM152.618 551.649C148.212 547.82 143.076 544.743 137.227 542.435C110.739 531.982 92.1937 530.356 73.2157 536.827C54.8107 543.102 36.4737 556.814 8.45975 578.653C-34.8543 612.418 -93.5653 678.097 -86.4203 708.53C-84.3923 717.168 -77.0533 722.329 -64.6053 723.867C-33.6083 727.697 15.3247 728.744 59.6997 720.198C84.2177 715.476 105.046 708.323 121.607 698.937C140.777 688.072 154.261 674.162 161.684 657.59C165.668 648.698 179.185 605.771 167.286 573.434C164.028 564.58 159.118 557.296 152.618 551.649Z" fill="url(#paint22_linear_2267_13053)"/>
</mask>
<g mask="url(#mask11_2267_13053)">
<path d="M-81.4563 718.315C-84.3493 715.801 -86.2583 712.606 -87.1663 708.74C-89.4423 699.046 -86.4273 680.13 -59.1393 645.07C-40.8473 621.568 -15.7433 596.481 8.0137 577.961C36.0897 556.075 54.4727 542.331 72.9867 536.018C92.1397 529.488 110.827 531.117 137.486 541.638C152.181 547.436 162.446 558.029 167.999 573.116C180.004 605.741 166.388 649.002 162.375 657.963C154.877 674.7 141.28 688.738 121.959 699.689C105.329 709.113 84.4257 716.294 59.8317 721.031C15.3757 729.593 -33.6423 728.543 -64.6933 724.707C-72.0013 723.804 -77.6023 721.664 -81.4563 718.315ZM152.618 551.649C148.212 547.82 143.076 544.743 137.227 542.435C110.739 531.982 92.1937 530.356 73.2157 536.827C54.8107 543.102 36.4737 556.814 8.45975 578.653C-34.8543 612.418 -93.5653 678.097 -86.4203 708.53C-84.3923 717.168 -77.0533 722.329 -64.6053 723.867C-33.6083 727.697 15.3247 728.744 59.6997 720.198C84.2177 715.476 105.046 708.323 121.607 698.937C140.777 688.072 154.261 674.162 161.684 657.59C165.668 648.698 179.185 605.771 167.286 573.434C164.028 564.58 159.118 557.296 152.618 551.649Z" fill="url(#paint23_linear_2267_13053)"/>
</g>
<g filter="url(#filter0_f_2267_13053)">
<ellipse cx="1132" cy="1076.5" rx="800" ry="1176.5" fill="url(#paint24_radial_2267_13053)" fill-opacity="0.9"/>
</g>
<g filter="url(#filter1_f_2267_13053)">
<ellipse cx="522" cy="166.5" rx="800" ry="1176.5" fill="url(#paint25_radial_2267_13053)" fill-opacity="0.9"/>
</g>
<defs>
<filter id="filter0_f_2267_13053" x="308" y="-124" width="1648" height="2401" filterUnits="userSpaceOnUse" color-interpolation-filters="sRGB">
<feFlood flood-opacity="0" result="BackgroundImageFix"/>
<feBlend mode="normal" in="SourceGraphic" in2="BackgroundImageFix" result="shape"/>
<feGaussianBlur stdDeviation="12" result="effect1_foregroundBlur_2267_13053"/>
</filter>
<filter id="filter1_f_2267_13053" x="-302" y="-1034" width="1648" height="2401" filterUnits="userSpaceOnUse" color-interpolation-filters="sRGB">
<feFlood flood-opacity="0" result="BackgroundImageFix"/>
<feBlend mode="normal" in="SourceGraphic" in2="BackgroundImageFix" result="shape"/>
<feGaussianBlur stdDeviation="12" result="effect1_foregroundBlur_2267_13053"/>
</filter>
<linearGradient id="paint0_linear_2267_13053" x1="80.5701" y1="266.433" x2="80.5701" y2="1312.56" gradientUnits="userSpaceOnUse">
<stop stop-color="white"/>
<stop offset="0.0436" stop-color="#B4B4B4"/>
<stop offset="0.1507"/>
<stop offset="0.1714" stop-color="#171717"/>
<stop offset="0.3859" stop-color="white"/>
<stop offset="0.6326" stop-color="#E6E6E6"/>
<stop offset="0.8567" stop-color="#1A1A1A"/>
<stop offset="0.9987"/>
</linearGradient>
<linearGradient id="paint1_linear_2267_13053" x1="80.5703" y1="266.433" x2="80.5703" y2="1312.56" gradientUnits="userSpaceOnUse">
<stop stop-color="#0522AC"/>
<stop offset="1" stop-color="#34384C" stop-opacity="0"/>
</linearGradient>
<linearGradient id="paint2_linear_2267_13053" x1="78.7524" y1="292.091" x2="78.7524" y2="1257.79" gradientUnits="userSpaceOnUse">
<stop stop-color="white"/>
<stop offset="0.0436" stop-color="#B4B4B4"/>
<stop offset="0.1507"/>
<stop offset="0.1714" stop-color="#171717"/>
<stop offset="0.3859" stop-color="white"/>
<stop offset="0.6326" stop-color="#E6E6E6"/>
<stop offset="0.8567" stop-color="#1A1A1A"/>
<stop offset="0.9987"/>
</linearGradient>
<linearGradient id="paint3_linear_2267_13053" x1="78.7534" y1="292.093" x2="78.7534" y2="1257.79" gradientUnits="userSpaceOnUse">
<stop stop-color="#0522AC"/>
<stop offset="1" stop-color="#34384C" stop-opacity="0"/>
</linearGradient>
<linearGradient id="paint4_linear_2267_13053" x1="76.9161" y1="317.444" x2="76.9161" y2="1203.03" gradientUnits="userSpaceOnUse">
<stop stop-color="white"/>
<stop offset="0.0436" stop-color="#B4B4B4"/>
<stop offset="0.1507"/>
<stop offset="0.1714" stop-color="#171717"/>
<stop offset="0.3859" stop-color="white"/>
<stop offset="0.6326" stop-color="#E6E6E6"/>
<stop offset="0.8567" stop-color="#1A1A1A"/>
<stop offset="0.9987"/>
</linearGradient>
<linearGradient id="paint5_linear_2267_13053" x1="76.9165" y1="317.444" x2="76.9165" y2="1203.03" gradientUnits="userSpaceOnUse">
<stop stop-color="#0522AC"/>
<stop offset="1" stop-color="#34384C" stop-opacity="0"/>
</linearGradient>
<linearGradient id="paint6_linear_2267_13053" x1="75.0554" y1="342.794" x2="75.0554" y2="1148.29" gradientUnits="userSpaceOnUse">
<stop stop-color="white"/>
<stop offset="0.0436" stop-color="#B4B4B4"/>
<stop offset="0.1507"/>
<stop offset="0.1714" stop-color="#171717"/>
<stop offset="0.3859" stop-color="white"/>
<stop offset="0.6326" stop-color="#E6E6E6"/>
<stop offset="0.8567" stop-color="#1A1A1A"/>
<stop offset="0.9987"/>
</linearGradient>
<linearGradient id="paint7_linear_2267_13053" x1="75.0557" y1="342.793" x2="75.0557" y2="1148.29" gradientUnits="userSpaceOnUse">
<stop stop-color="#0522AC"/>
<stop offset="1" stop-color="#34384C" stop-opacity="0"/>
</linearGradient>
<linearGradient id="paint8_linear_2267_13053" x1="73.1605" y1="367.833" x2="73.1605" y2="1093.57" gradientUnits="userSpaceOnUse">
<stop stop-color="white"/>
<stop offset="0.0436" stop-color="#B4B4B4"/>
<stop offset="0.1507"/>
<stop offset="0.1714" stop-color="#171717"/>
<stop offset="0.3859" stop-color="white"/>
<stop offset="0.6326" stop-color="#E6E6E6"/>
<stop offset="0.8567" stop-color="#1A1A1A"/>
<stop offset="0.9987"/>
</linearGradient>
<linearGradient id="paint9_linear_2267_13053" x1="73.1611" y1="367.832" x2="73.1611" y2="1093.57" gradientUnits="userSpaceOnUse">
<stop stop-color="#0522AC"/>
<stop offset="1" stop-color="#34384C" stop-opacity="0"/>
</linearGradient>
<linearGradient id="paint10_linear_2267_13053" x1="71.2158" y1="392.73" x2="71.2158" y2="1038.88" gradientUnits="userSpaceOnUse">
<stop stop-color="white"/>
<stop offset="0.0436" stop-color="#B4B4B4"/>
<stop offset="0.1507"/>
<stop offset="0.1714" stop-color="#171717"/>
<stop offset="0.3859" stop-color="white"/>
<stop offset="0.6326" stop-color="#E6E6E6"/>
<stop offset="0.8567" stop-color="#1A1A1A"/>
<stop offset="0.9987"/>
</linearGradient>
<linearGradient id="paint11_linear_2267_13053" x1="71.2155" y1="392.73" x2="71.2155" y2="1038.88" gradientUnits="userSpaceOnUse">
<stop stop-color="#0522AC"/>
<stop offset="1" stop-color="#34384C" stop-opacity="0"/>
</linearGradient>
<linearGradient id="paint12_linear_2267_13053" x1="69.194" y1="417.27" x2="69.194" y2="984.247" gradientUnits="userSpaceOnUse">
<stop stop-color="white"/>
<stop offset="0.0436" stop-color="#B4B4B4"/>
<stop offset="0.1507"/>
<stop offset="0.1714" stop-color="#171717"/>
<stop offset="0.3859" stop-color="white"/>
<stop offset="0.6326" stop-color="#E6E6E6"/>
<stop offset="0.8567" stop-color="#1A1A1A"/>
<stop offset="0.9987"/>
</linearGradient>
<linearGradient id="paint13_linear_2267_13053" x1="69.195" y1="417.27" x2="69.195" y2="984.247" gradientUnits="userSpaceOnUse">
<stop stop-color="#0522AC"/>
<stop offset="1" stop-color="#34384C" stop-opacity="0"/>
</linearGradient>
<linearGradient id="paint14_linear_2267_13053" x1="67.0446" y1="441.409" x2="67.0446" y2="929.694" gradientUnits="userSpaceOnUse">
<stop stop-color="white"/>
<stop offset="0.0436" stop-color="#B4B4B4"/>
<stop offset="0.1507"/>
<stop offset="0.1714" stop-color="#171717"/>
<stop offset="0.3859" stop-color="white"/>
<stop offset="0.6326" stop-color="#E6E6E6"/>
<stop offset="0.8567" stop-color="#1A1A1A"/>
<stop offset="0.9987"/>
</linearGradient>
<linearGradient id="paint15_linear_2267_13053" x1="67.0451" y1="441.41" x2="67.0451" y2="929.695" gradientUnits="userSpaceOnUse">
<stop stop-color="#0522AC"/>
<stop offset="1" stop-color="#34384C" stop-opacity="0"/>
</linearGradient>
<linearGradient id="paint16_linear_2267_13053" x1="64.6705" y1="465.216" x2="64.6705" y2="875.33" gradientUnits="userSpaceOnUse">
<stop stop-color="white"/>
<stop offset="0.0436" stop-color="#B4B4B4"/>
<stop offset="0.1507"/>
<stop offset="0.1714" stop-color="#171717"/>
<stop offset="0.3859" stop-color="white"/>
<stop offset="0.6326" stop-color="#E6E6E6"/>
<stop offset="0.8567" stop-color="#1A1A1A"/>
<stop offset="0.9987"/>
</linearGradient>
<linearGradient id="paint17_linear_2267_13053" x1="64.6703" y1="465.215" x2="64.6703" y2="875.327" gradientUnits="userSpaceOnUse">
<stop stop-color="#0522AC"/>
<stop offset="1" stop-color="#34384C" stop-opacity="0"/>
</linearGradient>
<linearGradient id="paint18_linear_2267_13053" x1="61.7577" y1="488.329" x2="61.7577" y2="821.351" gradientUnits="userSpaceOnUse">
<stop stop-color="white"/>
<stop offset="0.0436" stop-color="#B4B4B4"/>
<stop offset="0.1507"/>
<stop offset="0.1714" stop-color="#171717"/>
<stop offset="0.3859" stop-color="white"/>
<stop offset="0.6326" stop-color="#E6E6E6"/>
<stop offset="0.8567" stop-color="#1A1A1A"/>
<stop offset="0.9987"/>
</linearGradient>
<linearGradient id="paint19_linear_2267_13053" x1="61.7572" y1="488.331" x2="61.7572" y2="821.353" gradientUnits="userSpaceOnUse">
<stop stop-color="#0522AC"/>
<stop offset="1" stop-color="#34384C" stop-opacity="0"/>
</linearGradient>
<linearGradient id="paint20_linear_2267_13053" x1="53.2426" y1="510.748" x2="53.2426" y2="768.691" gradientUnits="userSpaceOnUse">
<stop stop-color="white"/>
<stop offset="0.0436" stop-color="#B4B4B4"/>
<stop offset="0.1507"/>
<stop offset="0.1714" stop-color="#171717"/>
<stop offset="0.3859" stop-color="white"/>
<stop offset="0.6326" stop-color="#E6E6E6"/>
<stop offset="0.8567" stop-color="#1A1A1A"/>
<stop offset="0.9987"/>
</linearGradient>
<linearGradient id="paint21_linear_2267_13053" x1="53.2429" y1="510.749" x2="53.2429" y2="768.692" gradientUnits="userSpaceOnUse">
<stop stop-color="#0522AC"/>
<stop offset="1" stop-color="#34384C" stop-opacity="0"/>
</linearGradient>
<linearGradient id="paint22_linear_2267_13053" x1="42.5319" y1="532.144" x2="42.5319" y2="727.571" gradientUnits="userSpaceOnUse">
<stop stop-color="white"/>
<stop offset="0.0436" stop-color="#B4B4B4"/>
<stop offset="0.1507"/>
<stop offset="0.1714" stop-color="#171717"/>
<stop offset="0.3859" stop-color="white"/>
<stop offset="0.6326" stop-color="#E6E6E6"/>
<stop offset="0.8567" stop-color="#1A1A1A"/>
<stop offset="0.9987"/>
</linearGradient>
<linearGradient id="paint23_linear_2267_13053" x1="42.5315" y1="532.144" x2="42.5315" y2="727.571" gradientUnits="userSpaceOnUse">
<stop stop-color="#0522AC"/>
<stop offset="1" stop-color="#34384C" stop-opacity="0"/>
</linearGradient>
<radialGradient id="paint24_radial_2267_13053" cx="0" cy="0" r="1" gradientUnits="userSpaceOnUse" gradientTransform="translate(1132 986.167) rotate(90) scale(951.833 647.23)">
<stop offset="0.03125" stop-color="#010950"/>
<stop offset="1" stop-color="#0E1120" stop-opacity="0"/>
</radialGradient>
<radialGradient id="paint25_radial_2267_13053" cx="0" cy="0" r="1" gradientUnits="userSpaceOnUse" gradientTransform="translate(522 76.167) rotate(90) scale(951.833 647.23)">
<stop offset="0.03125" stop-color="#010950"/>
<stop offset="1" stop-color="#0E1120" stop-opacity="0"/>
</radialGradient>
</defs>
</svg>
