<svg width="1462" height="1047" viewBox="0 0 1462 1047" fill="none" xmlns="http://www.w3.org/2000/svg">
<mask id="mask0_2267_12968" style="mask-type:alpha" maskUnits="userSpaceOnUse" x="0" y="0" width="1462" height="1047">
<path d="M196.35 666.918C180.079 652.781 164.674 638.729 150.223 624.827C70.8637 548.49 22.3597 479.403 6.05772 419.485C-10.6213 358.183 7.18172 307.967 58.9747 270.232C216.22 155.668 330.313 99.1284 405.809 61.7141C439.79 44.8746 466.629 31.5737 485.156 18.8774L485.767 19.9544L485.156 18.8774C515.978 -2.24591 585.471 -5.46919 666.515 10.467C753.731 27.6164 835.044 62.768 889.607 106.908C964.864 167.79 1061.13 213.765 1128.64 241.613C1207.28 274.051 1293.61 300.932 1359.59 313.52C1402.18 321.645 1433.13 347.556 1449.1 388.453C1476.75 459.267 1456 565.737 1394.95 666.315C1366.01 713.988 1336.09 763.283 1304.69 808.666C1269.97 858.841 1237.12 898.671 1204.25 930.432C1165 968.36 1124.72 996.095 1081.08 1015.22C1032.37 1036.58 980.584 1046.83 922.776 1046.56C824.042 1046.09 615.082 956.254 414.624 828.095C332.625 775.67 258.231 720.687 196.35 666.918ZM1414.42 342.008C1399.38 328.935 1380.82 320.145 1359.19 316.02C1293.08 303.407 1206.59 276.48 1127.83 243.989C1060.18 216.085 963.708 170.006 888.238 108.952C833.95 65.0351 752.987 30.0484 666.108 12.966C585.604 -2.86353 516.735 0.226776 486.378 21.0313C467.72 33.8178 440.818 47.1494 406.759 64.0285C331.33 101.409 217.341 157.898 60.2517 272.348C9.40472 309.392 -8.08328 358.652 8.26972 418.759C24.4457 478.212 72.7177 546.901 151.744 622.918C221.046 689.581 312.351 759.772 415.786 825.902C615.929 953.859 824.416 1043.55 922.787 1044.02C980.293 1044.29 1031.79 1034.1 1080.23 1012.87C1123.61 993.847 1163.68 966.259 1202.72 928.525C1275.98 857.737 1335.48 759.707 1393.02 664.906C1453.65 565.034 1474.32 459.488 1446.98 389.453C1439.43 370.119 1428.45 354.2 1414.42 342.008Z" fill="url(#paint0_linear_2267_12968)"/>
</mask>
<g mask="url(#mask0_2267_12968)">
<path d="M196.35 666.918C180.079 652.781 164.674 638.729 150.223 624.827C70.8637 548.49 22.3597 479.403 6.05772 419.485C-10.6213 358.183 7.18172 307.967 58.9747 270.232C216.22 155.668 330.313 99.1284 405.809 61.7141C439.79 44.8746 466.629 31.5737 485.156 18.8774L485.767 19.9544L485.156 18.8774C515.978 -2.24591 585.471 -5.46919 666.515 10.467C753.731 27.6164 835.044 62.768 889.607 106.908C964.864 167.79 1061.13 213.765 1128.64 241.613C1207.28 274.051 1293.61 300.932 1359.59 313.52C1402.18 321.645 1433.13 347.556 1449.1 388.453C1476.75 459.267 1456 565.737 1394.95 666.315C1366.01 713.988 1336.09 763.283 1304.69 808.666C1269.97 858.841 1237.12 898.671 1204.25 930.432C1165 968.36 1124.72 996.095 1081.08 1015.22C1032.37 1036.58 980.584 1046.83 922.776 1046.56C824.042 1046.09 615.082 956.254 414.624 828.095C332.625 775.67 258.231 720.687 196.35 666.918ZM1414.42 342.008C1399.38 328.935 1380.82 320.145 1359.19 316.02C1293.08 303.407 1206.59 276.48 1127.83 243.989C1060.18 216.085 963.708 170.006 888.238 108.952C833.95 65.0351 752.987 30.0484 666.108 12.966C585.604 -2.86353 516.735 0.226776 486.378 21.0313C467.72 33.8178 440.818 47.1494 406.759 64.0285C331.33 101.409 217.341 157.898 60.2517 272.348C9.40472 309.392 -8.08328 358.652 8.26972 418.759C24.4457 478.212 72.7177 546.901 151.744 622.918C221.046 689.581 312.351 759.772 415.786 825.902C615.929 953.859 824.416 1043.55 922.787 1044.02C980.293 1044.29 1031.79 1034.1 1080.23 1012.87C1123.61 993.847 1163.68 966.259 1202.72 928.525C1275.98 857.737 1335.48 759.707 1393.02 664.906C1453.65 565.034 1474.32 459.488 1446.98 389.453C1439.43 370.119 1428.45 354.2 1414.42 342.008Z" fill="url(#paint1_linear_2267_12968)"/>
</g>
<mask id="mask1_2267_12968" style="mask-type:alpha" maskUnits="userSpaceOnUse" x="54" y="26" width="1349" height="966">
<path d="M230.538 642.158C217.671 630.979 205.413 619.86 193.812 608.842C120.646 539.347 75.8158 476.441 60.5698 421.869C45.1548 366.698 60.7098 321.422 106.802 287.302C245.329 183.114 352.141 126.909 422.82 89.718C456 72.2587 482.207 58.4689 500.867 45.5252C531.037 24.6239 596.478 20.2314 671.654 34.0608C752.149 48.8694 828.206 81.012 880.324 122.246C950.004 178.042 1038.32 220.866 1100.14 246.966C1172.76 277.628 1249.54 302.617 1310.78 315.523C1349.43 323.676 1377.48 347.969 1391.89 385.775C1416.9 451.404 1397.78 549.345 1341.98 641.377L1341.99 641.376C1289.42 728.263 1235.06 818.11 1166.36 884.33C1130.17 919.211 1093.02 944.769 1052.78 962.469C1007.89 982.213 960.217 991.803 907.028 991.788C815.713 992.09 622.665 910.722 437.574 793.916C359.476 744.631 288.794 692.777 230.538 642.158ZM1359.19 341.509C1345.78 329.864 1329.39 321.875 1310.37 317.863C1249.01 304.931 1172.09 279.901 1099.36 249.19C1037.42 223.038 948.917 180.12 879.051 124.175C827.199 83.1517 751.473 51.1607 671.296 36.4104C596.624 22.6733 531.763 26.9373 502.025 47.5396C483.259 60.5569 457.001 74.3742 423.758 91.8665C353.138 129.027 246.418 185.183 108.021 289.273C62.8078 322.743 47.5428 367.117 62.6438 421.169C77.7688 475.305 122.378 537.841 195.232 607.039C259.25 667.849 343.426 731.754 438.653 791.849C623.447 908.467 816.048 989.705 907.024 989.404C959.936 989.419 1007.35 979.885 1051.98 960.256C1091.98 942.659 1128.93 917.238 1164.93 882.538C1233.41 816.525 1287.69 726.814 1340.18 640.056V640.055C1395.58 548.679 1414.62 451.596 1389.88 386.696C1382.85 368.244 1372.49 353.073 1359.19 341.509Z" fill="url(#paint2_linear_2267_12968)"/>
</mask>
<g mask="url(#mask1_2267_12968)">
<path d="M230.538 642.158C217.671 630.979 205.413 619.86 193.812 608.842C120.646 539.347 75.8158 476.441 60.5698 421.869C45.1548 366.698 60.7098 321.422 106.802 287.302C245.329 183.114 352.141 126.909 422.82 89.718C456 72.2587 482.207 58.4689 500.867 45.5252C531.037 24.6239 596.478 20.2314 671.654 34.0608C752.149 48.8694 828.206 81.012 880.324 122.246C950.004 178.042 1038.32 220.866 1100.14 246.966C1172.76 277.628 1249.54 302.617 1310.78 315.523C1349.43 323.676 1377.48 347.969 1391.89 385.775C1416.9 451.404 1397.78 549.345 1341.98 641.377L1341.99 641.376C1289.42 728.263 1235.06 818.11 1166.36 884.33C1130.17 919.211 1093.02 944.769 1052.78 962.469C1007.89 982.213 960.217 991.803 907.028 991.788C815.713 992.09 622.665 910.722 437.574 793.916C359.476 744.631 288.794 692.777 230.538 642.158ZM1359.19 341.509C1345.78 329.864 1329.39 321.875 1310.37 317.863C1249.01 304.931 1172.09 279.901 1099.36 249.19C1037.42 223.038 948.917 180.12 879.051 124.175C827.199 83.1517 751.473 51.1607 671.296 36.4104C596.624 22.6733 531.763 26.9373 502.025 47.5396C483.259 60.5569 457.001 74.3742 423.758 91.8665C353.138 129.027 246.418 185.183 108.021 289.273C62.8078 322.743 47.5428 367.117 62.6438 421.169C77.7688 475.305 122.378 537.841 195.232 607.039C259.25 667.849 343.426 731.754 438.653 791.849C623.447 908.467 816.048 989.705 907.024 989.404C959.936 989.419 1007.35 979.885 1051.98 960.256C1091.98 942.659 1128.93 917.238 1164.93 882.538C1233.41 816.525 1287.69 726.814 1340.18 640.056V640.055C1395.58 548.679 1414.62 451.596 1389.88 386.696C1382.85 368.244 1372.49 353.073 1359.19 341.509Z" fill="url(#paint3_linear_2267_12968)"/>
</g>
<mask id="mask2_2267_12968" style="mask-type:alpha" maskUnits="userSpaceOnUse" x="109" y="51" width="1236" height="887">
<path d="M264.783 617.558C255.252 609.277 246.111 601.045 237.363 592.862C170.387 530.208 129.233 473.48 115.044 424.256C100.907 375.212 114.225 334.877 154.628 304.371C275.33 209.894 371.189 156.217 441.183 117.024C472.947 99.2373 498.035 85.1892 516.58 72.1697C546.557 51.1717 606.449 45.745 676.792 57.6523C750.582 70.1432 821.382 99.2769 871.04 137.583C987.222 229.494 1168.48 295.549 1261.98 317.525C1296.69 325.705 1321.83 348.386 1334.68 383.117C1357.05 443.563 1339.56 532.967 1289.02 616.441C1243.72 691.614 1192.36 776.821 1128.46 838.23C1095.34 870.061 1061.33 893.445 1024.48 909.714C983.42 927.844 939.849 936.775 891.276 937.018C849.177 937.553 784.736 920.306 704.926 887.143C628.259 855.284 541.451 810.039 460.491 759.741C386.312 713.656 319.353 664.972 264.783 617.558ZM1303.94 340.949C1292.19 330.742 1277.97 323.572 1261.55 319.706C1167.89 297.689 986.29 231.504 869.864 139.4C820.463 101.293 749.974 72.2983 676.482 59.8569C606.613 48.0287 547.244 53.3356 517.67 74.0501C499.044 87.1267 473.916 101.198 442.104 119.011C372.167 158.173 276.385 211.807 155.79 306.197C116.196 336.092 103.143 375.584 116.978 423.582C131.05 472.402 171.996 528.783 238.678 591.163C297.419 646.109 374.465 703.735 461.489 757.798C542.361 808.042 629.07 853.235 705.643 885.055C785.219 918.121 849.404 935.318 891.259 934.786C939.578 934.543 982.904 925.665 1023.72 907.643C1060.35 891.469 1094.18 868.214 1127.13 836.549C1190.82 775.337 1242.09 690.264 1287.33 615.206L1287.33 615.205C1337.5 532.337 1354.92 443.728 1332.8 383.957C1326.29 366.349 1316.54 351.9 1303.94 340.949Z" fill="url(#paint4_linear_2267_12968)"/>
</mask>
<g mask="url(#mask2_2267_12968)">
<path d="M264.783 617.558C255.252 609.277 246.111 601.045 237.363 592.862C170.387 530.208 129.233 473.48 115.044 424.256C100.907 375.212 114.225 334.877 154.628 304.371C275.33 209.894 371.189 156.217 441.183 117.024C472.947 99.2373 498.035 85.1892 516.58 72.1697C546.557 51.1717 606.449 45.745 676.792 57.6523C750.582 70.1432 821.382 99.2769 871.04 137.583C987.222 229.494 1168.48 295.549 1261.98 317.525C1296.69 325.705 1321.83 348.386 1334.68 383.117C1357.05 443.563 1339.56 532.967 1289.02 616.441C1243.72 691.614 1192.36 776.821 1128.46 838.23C1095.34 870.061 1061.33 893.445 1024.48 909.714C983.42 927.844 939.849 936.775 891.276 937.018C849.177 937.553 784.736 920.306 704.926 887.143C628.259 855.284 541.451 810.039 460.491 759.741C386.312 713.656 319.353 664.972 264.783 617.558ZM1303.94 340.949C1292.19 330.742 1277.97 323.572 1261.55 319.706C1167.89 297.689 986.29 231.504 869.864 139.4C820.463 101.293 749.974 72.2983 676.482 59.8569C606.613 48.0287 547.244 53.3356 517.67 74.0501C499.044 87.1267 473.916 101.198 442.104 119.011C372.167 158.173 276.385 211.807 155.79 306.197C116.196 336.092 103.143 375.584 116.978 423.582C131.05 472.402 171.996 528.783 238.678 591.163C297.419 646.109 374.465 703.735 461.489 757.798C542.361 808.042 629.07 853.235 705.643 885.055C785.219 918.121 849.404 935.318 891.259 934.786C939.578 934.543 982.904 925.665 1023.72 907.643C1060.35 891.469 1094.18 868.214 1127.13 836.549C1190.82 775.337 1242.09 690.264 1287.33 615.206L1287.33 615.205C1337.5 532.337 1354.92 443.728 1332.8 383.957C1326.29 366.349 1316.54 351.9 1303.94 340.949Z" fill="url(#paint5_linear_2267_12968)"/>
</g>
<mask id="mask3_2267_12968" style="mask-type:alpha" maskUnits="userSpaceOnUse" x="164" y="76" width="1122" height="807">
<path d="M299.096 593.16C292.824 587.711 286.748 582.287 280.864 576.884C220.076 521.071 182.598 470.523 169.468 426.647C156.625 383.726 167.722 348.328 202.453 321.439C306.42 235.756 396.167 182.153 461.697 143.014C489.934 126.15 514.32 111.584 532.293 98.8139C561.638 78.0269 617.577 71.4584 681.93 81.2436C749.036 91.4464 814.58 117.571 861.756 152.918C908.043 189.006 970.755 225.225 1043.13 257.671C1101.22 283.714 1163.19 306.261 1213.17 319.528C1243.96 327.728 1266.21 348.807 1277.5 380.486C1297.2 435.749 1281.32 516.605 1236.06 591.501C1188.78 670.315 1145.2 739.813 1090.57 792.125C1060.51 820.911 1029.63 842.116 996.177 856.956C958.948 873.469 919.482 881.742 875.527 882.245C836.907 883.165 778.081 868.13 705.419 838.762C635.906 810.667 557.048 770.468 483.372 725.57C413.116 682.756 349.907 637.309 299.096 593.16ZM1248.68 340.304C1238.6 331.549 1226.54 325.227 1212.73 321.546C1162.66 308.255 1100.58 285.674 1042.41 259.594C969.909 227.089 907.066 190.791 860.676 154.623C813.747 119.461 748.497 93.4608 681.67 83.3009C617.751 73.5816 562.292 80.0336 533.316 100.559C515.284 113.371 490.868 127.954 462.598 144.839C397.119 183.948 307.442 237.509 203.563 323.118C169.569 349.438 158.709 384.046 171.262 425.998C184.28 469.5 221.562 519.729 282.074 575.289C335.545 624.376 405.463 675.717 484.286 723.753C557.88 768.602 636.644 808.754 706.07 836.813C778.511 866.092 837.098 881.084 875.495 880.168C919.221 879.667 958.46 871.445 995.468 855.03C1028.73 840.278 1059.43 819.19 1089.33 790.559C1143.78 738.42 1187.28 669.043 1234.48 590.355L1234.48 590.353C1279.41 516.012 1295.22 435.886 1275.74 381.243C1269.75 364.431 1260.6 350.666 1248.68 340.304Z" fill="url(#paint6_linear_2267_12968)"/>
</mask>
<g mask="url(#mask3_2267_12968)">
<path d="M299.096 593.16C292.824 587.711 286.748 582.287 280.864 576.884C220.076 521.071 182.598 470.523 169.468 426.647C156.625 383.726 167.722 348.328 202.453 321.439C306.42 235.756 396.167 182.153 461.697 143.014C489.934 126.15 514.32 111.584 532.293 98.8139C561.638 78.0269 617.577 71.4584 681.93 81.2436C749.036 91.4464 814.58 117.571 861.756 152.918C908.043 189.006 970.755 225.225 1043.13 257.671C1101.22 283.714 1163.19 306.261 1213.17 319.528C1243.96 327.728 1266.21 348.807 1277.5 380.486C1297.2 435.749 1281.32 516.605 1236.06 591.501C1188.78 670.315 1145.2 739.813 1090.57 792.125C1060.51 820.911 1029.63 842.116 996.177 856.956C958.948 873.469 919.482 881.742 875.527 882.245C836.907 883.165 778.081 868.13 705.419 838.762C635.906 810.667 557.048 770.468 483.372 725.57C413.116 682.756 349.907 637.309 299.096 593.16ZM1248.68 340.304C1238.6 331.549 1226.54 325.227 1212.73 321.546C1162.66 308.255 1100.58 285.674 1042.41 259.594C969.909 227.089 907.066 190.791 860.676 154.623C813.747 119.461 748.497 93.4608 681.67 83.3009C617.751 73.5816 562.292 80.0336 533.316 100.559C515.284 113.371 490.868 127.954 462.598 144.839C397.119 183.948 307.442 237.509 203.563 323.118C169.569 349.438 158.709 384.046 171.262 425.998C184.28 469.5 221.562 519.729 282.074 575.289C335.545 624.376 405.463 675.717 484.286 723.753C557.88 768.602 636.644 808.754 706.07 836.813C778.511 866.092 837.098 881.084 875.495 880.168C919.221 879.667 958.46 871.445 995.468 855.03C1028.73 840.278 1059.43 819.19 1089.33 790.559C1143.78 738.42 1187.28 669.043 1234.48 590.355L1234.48 590.353C1279.41 516.012 1295.22 435.886 1275.74 381.243C1269.75 364.431 1260.6 350.666 1248.68 340.304Z" fill="url(#paint7_linear_2267_12968)"/>
</g>
<mask id="mask4_2267_12968" style="mask-type:alpha" maskUnits="userSpaceOnUse" x="218" y="101" width="1010" height="727">
<path d="M333.492 569.037C330.371 566.326 327.307 563.622 324.299 560.923C269.698 511.95 235.893 467.585 223.823 429.056C212.292 392.247 221.192 361.783 250.276 338.511C338.768 260.348 423.649 206.171 485.627 166.612C510.204 150.925 531.429 137.378 548.005 125.459C577.168 104.565 627.854 97.0493 687.067 104.837C747.521 112.788 807.809 135.903 852.472 168.257C939.289 234.749 1075.01 294.318 1164.37 321.534C1191.26 329.758 1210.61 349.25 1220.34 377.904C1237.34 427.983 1223.07 500.275 1183.09 566.566L1183.1 566.561C1142.94 633.896 1102.75 698.29 1052.68 746.025C1025.68 771.761 997.94 790.791 967.874 804.201C934.475 819.098 899.116 826.711 859.777 827.475C824.625 828.782 771.406 815.96 705.886 790.395C643.515 766.058 572.599 730.906 506.202 691.414C439.887 651.971 380.448 609.837 333.492 569.037ZM1193.39 339.544C1185.01 332.259 1175.13 326.82 1163.9 323.387C1074.4 296.13 938.456 236.456 851.49 169.847C807.064 137.667 747.052 114.662 686.859 106.745C628.048 99.0109 577.786 106.419 548.962 127.07C532.348 139.014 511.105 152.574 486.506 168.275C424.577 207.803 339.761 261.938 251.339 340.038C222.915 362.783 214.225 392.513 225.477 428.431C237.44 466.616 271.06 510.691 325.404 559.434C373.609 602.646 436.407 647.716 507.034 689.723C573.354 729.169 644.182 764.278 706.471 788.583C771.786 814.068 824.783 826.852 859.731 825.554C898.865 824.794 934.019 817.227 967.215 802.421C997.099 789.092 1024.68 770.17 1051.53 744.573C1101.44 697 1141.55 632.726 1181.63 565.509L1181.63 565.504C1221.3 499.717 1235.5 428.09 1218.7 378.576C1213.24 362.485 1204.67 349.344 1193.39 339.544Z" fill="url(#paint8_linear_2267_12968)"/>
</mask>
<g mask="url(#mask4_2267_12968)">
<path d="M333.492 569.037C330.371 566.326 327.307 563.622 324.299 560.923C269.698 511.95 235.893 467.585 223.823 429.056C212.292 392.247 221.192 361.783 250.276 338.511C338.768 260.348 423.649 206.171 485.627 166.612C510.204 150.925 531.429 137.378 548.005 125.459C577.168 104.565 627.854 97.0493 687.067 104.837C747.521 112.788 807.809 135.903 852.472 168.257C939.289 234.749 1075.01 294.318 1164.37 321.534C1191.26 329.758 1210.61 349.25 1220.34 377.904C1237.34 427.983 1223.07 500.275 1183.09 566.566L1183.1 566.561C1142.94 633.896 1102.75 698.29 1052.68 746.025C1025.68 771.761 997.94 790.791 967.874 804.201C934.475 819.098 899.116 826.711 859.777 827.475C824.625 828.782 771.406 815.96 705.886 790.395C643.515 766.058 572.599 730.906 506.202 691.414C439.887 651.971 380.448 609.837 333.492 569.037ZM1193.39 339.544C1185.01 332.259 1175.13 326.82 1163.9 323.387C1074.4 296.13 938.456 236.456 851.49 169.847C807.064 137.667 747.052 114.662 686.859 106.745C628.048 99.0109 577.786 106.419 548.962 127.07C532.348 139.014 511.105 152.574 486.506 168.275C424.577 207.803 339.761 261.938 251.339 340.038C222.915 362.783 214.225 392.513 225.477 428.431C237.44 466.616 271.06 510.691 325.404 559.434C373.609 602.646 436.407 647.716 507.034 689.723C573.354 729.169 644.182 764.278 706.471 788.583C771.786 814.068 824.783 826.852 859.731 825.554C898.865 824.794 934.019 817.227 967.215 802.421C997.099 789.092 1024.68 770.17 1051.53 744.573C1101.44 697 1141.55 632.726 1181.63 565.509L1181.63 565.504C1221.3 499.717 1235.5 428.09 1218.7 378.576C1213.24 362.485 1204.67 349.344 1193.39 339.544Z" fill="url(#paint9_linear_2267_12968)"/>
</g>
<mask id="mask5_2267_12968" style="mask-type:alpha" maskUnits="userSpaceOnUse" x="273" y="126" width="896" height="647">
<path d="M367.991 545.287C367.875 545.187 367.762 545.089 367.646 544.987C319.227 502.859 289.093 464.674 278.079 431.496C267.883 400.781 274.618 375.24 298.097 355.584C372.352 283.209 454.748 227.028 514.91 186.008C533.749 173.164 550.02 162.07 563.718 152.104C592.29 131.396 639.121 122.768 692.202 128.43C746.046 134.173 801.078 154.28 843.187 183.595C881.001 211.918 929.083 240.438 986.118 268.381C1029.02 289.401 1076.21 309.507 1115.57 323.543C1138.58 331.793 1155.05 349.72 1163.21 375.391C1177.46 420.282 1164.79 483.981 1130.13 541.629C1096.73 598.064 1060.3 656.779 1014.78 699.924C990.849 722.611 966.247 739.464 939.571 751.446C910.003 764.727 878.751 771.68 844.027 772.705C781.213 776.063 654.594 729.677 528.968 657.278C466.615 621.343 410.96 582.624 367.991 545.287ZM1138.09 338.61C1131.42 332.821 1123.72 328.325 1115.07 325.223C1075.66 311.17 1028.42 291.04 985.463 269.996C928.34 242.01 880.174 213.437 842.303 185.072C800.423 155.916 745.648 135.906 692.047 130.19C639.326 124.566 592.875 133.091 564.605 153.58C550.888 163.56 534.608 174.659 515.758 187.512C455.645 228.499 373.318 284.632 299.118 356.95C276.219 376.123 269.664 400.986 279.591 430.889C290.501 463.756 320.463 501.677 368.644 543.601C368.757 543.698 368.875 543.802 368.988 543.899C411.881 581.171 467.444 619.824 529.715 655.711C655.108 727.976 781.396 774.282 843.966 770.935C878.509 769.917 909.576 763.005 938.961 749.806C965.473 737.899 989.931 721.143 1013.73 698.583C1059.09 655.589 1095.44 596.991 1128.78 540.658L1128.79 540.652C1163.17 483.455 1175.78 420.352 1161.69 375.973C1156.77 360.496 1148.77 347.892 1138.09 338.61Z" fill="url(#paint10_linear_2267_12968)"/>
</mask>
<g mask="url(#mask5_2267_12968)">
<path d="M367.991 545.287C367.875 545.187 367.762 545.089 367.646 544.987C319.227 502.859 289.093 464.674 278.079 431.496C267.883 400.781 274.618 375.24 298.097 355.584C372.352 283.209 454.748 227.028 514.91 186.008C533.749 173.164 550.02 162.07 563.718 152.104C592.29 131.396 639.121 122.768 692.202 128.43C746.046 134.173 801.078 154.28 843.187 183.595C881.001 211.918 929.083 240.438 986.118 268.381C1029.02 289.401 1076.21 309.507 1115.57 323.543C1138.58 331.793 1155.05 349.72 1163.21 375.391C1177.46 420.282 1164.79 483.981 1130.13 541.629C1096.73 598.064 1060.3 656.779 1014.78 699.924C990.849 722.611 966.247 739.464 939.571 751.446C910.003 764.727 878.751 771.68 844.027 772.705C781.213 776.063 654.594 729.677 528.968 657.278C466.615 621.343 410.96 582.624 367.991 545.287ZM1138.09 338.61C1131.42 332.821 1123.72 328.325 1115.07 325.223C1075.66 311.17 1028.42 291.04 985.463 269.996C928.34 242.01 880.174 213.437 842.303 185.072C800.423 155.916 745.648 135.906 692.047 130.19C639.326 124.566 592.875 133.091 564.605 153.58C550.888 163.56 534.608 174.659 515.758 187.512C455.645 228.499 373.318 284.632 299.118 356.95C276.219 376.123 269.664 400.986 279.591 430.889C290.501 463.756 320.463 501.677 368.644 543.601C368.757 543.698 368.875 543.802 368.988 543.899C411.881 581.171 467.444 619.824 529.715 655.711C655.108 727.976 781.396 774.282 843.966 770.935C878.509 769.917 909.576 763.005 938.961 749.806C965.473 737.899 989.931 721.143 1013.73 698.583C1059.09 655.589 1095.44 596.991 1128.78 540.658L1128.79 540.652C1163.17 483.455 1175.78 420.352 1161.69 375.973C1156.77 360.496 1148.77 347.892 1138.09 338.61Z" fill="url(#paint11_linear_2267_12968)"/>
</g>
<mask id="mask6_2267_12968" style="mask-type:alpha" maskUnits="userSpaceOnUse" x="327" y="151" width="784" height="568">
<path d="M402.432 521.92C365.087 489.472 341.477 459.929 332.19 434.004C323.361 409.359 327.967 388.733 345.883 372.691C406.645 303.771 490.95 242.823 552.507 198.321C562.166 191.338 571.291 184.741 579.434 178.747C607.869 157.898 649.742 148.407 697.34 152.023C745.333 155.669 793.833 172.328 833.905 198.932C860.771 218.484 937.19 269.923 1066.78 325.553C1085.95 333.838 1099.55 350.242 1106.12 372.996C1117.57 412.681 1106.48 467.74 1077.17 516.685C1050.12 562.832 1017.84 615.294 976.891 653.823C933.618 694.541 885.007 715.511 828.28 717.934C800.023 720.02 757.978 711.643 706.71 693.706C657.879 676.621 604.26 652.236 551.652 623.186C497.326 593.187 448.646 560.658 410.876 529.112C407.988 526.701 405.172 524.302 402.432 521.92ZM1082.74 337.41C1077.85 333.159 1072.33 329.689 1066.24 327.057C1045.51 318.158 1003.75 299.586 956.987 275.194C907.901 249.591 866.225 224.392 833.117 200.296C793.266 173.839 745.001 157.262 697.237 153.633C649.962 150.041 608.415 159.437 580.25 180.089C572.103 186.086 562.976 192.683 553.314 199.67C491.803 244.137 407.56 305.04 346.908 373.848L346.844 373.913C329.455 389.464 324.985 409.483 333.557 433.413C343.287 460.571 370.329 493.217 411.766 527.826C449.465 559.313 498.065 591.788 552.312 621.742C604.853 650.755 658.397 675.105 707.156 692.166C758.249 710.042 800.107 718.395 828.202 716.32C884.606 713.911 932.923 693.067 975.935 652.595C1016.73 614.208 1048.95 561.861 1075.94 515.808L1075.94 515.801C1105.01 467.25 1116.04 412.717 1104.72 373.483C1100.38 358.446 1092.9 346.243 1082.74 337.41Z" fill="url(#paint12_linear_2267_12968)"/>
</mask>
<g mask="url(#mask6_2267_12968)">
<path d="M402.432 521.92C365.087 489.472 341.477 459.929 332.19 434.004C323.361 409.359 327.967 388.733 345.883 372.691C406.645 303.771 490.95 242.823 552.507 198.321C562.166 191.338 571.291 184.741 579.434 178.747C607.869 157.898 649.742 148.407 697.34 152.023C745.333 155.669 793.833 172.328 833.905 198.932C860.771 218.484 937.19 269.923 1066.78 325.553C1085.95 333.838 1099.55 350.242 1106.12 372.996C1117.57 412.681 1106.48 467.74 1077.17 516.685C1050.12 562.832 1017.84 615.294 976.891 653.823C933.618 694.541 885.007 715.511 828.28 717.934C800.023 720.02 757.978 711.643 706.71 693.706C657.879 676.621 604.26 652.236 551.652 623.186C497.326 593.187 448.646 560.658 410.876 529.112C407.988 526.701 405.172 524.302 402.432 521.92ZM1082.74 337.41C1077.85 333.159 1072.33 329.689 1066.24 327.057C1045.51 318.158 1003.75 299.586 956.987 275.194C907.901 249.591 866.225 224.392 833.117 200.296C793.266 173.839 745.001 157.262 697.237 153.633C649.962 150.041 608.415 159.437 580.25 180.089C572.103 186.086 562.976 192.683 553.314 199.67C491.803 244.137 407.56 305.04 346.908 373.848L346.844 373.913C329.455 389.464 324.985 409.483 333.557 433.413C343.287 460.571 370.329 493.217 411.766 527.826C449.465 559.313 498.065 591.788 552.312 621.742C604.853 650.755 658.397 675.105 707.156 692.166C758.249 710.042 800.107 718.395 828.202 716.32C884.606 713.911 932.923 693.067 975.935 652.595C1016.73 614.208 1048.95 561.861 1075.94 515.808L1075.94 515.801C1105.01 467.25 1116.04 412.717 1104.72 373.483C1100.38 358.446 1092.9 346.243 1082.74 337.41Z" fill="url(#paint13_linear_2267_12968)"/>
</g>
<mask id="mask7_2267_12968" style="mask-type:alpha" maskUnits="userSpaceOnUse" x="381" y="175" width="672" height="489">
<path d="M437.705 499.948C411.189 476.908 393.481 455.254 386.071 436.668C378.632 418.01 381.192 402.241 393.679 389.796C440.115 320.847 548.751 239.944 595.148 205.392C653.19 162.324 747.552 165.977 824.619 214.273C883.726 255.666 959.351 296.163 1004.53 320.359C1009.33 322.928 1013.83 325.338 1017.99 327.573C1033.38 335.913 1044.13 350.869 1049.09 370.818C1057.64 405.255 1048.11 451.595 1024.21 491.749C1000.39 532.944 973.574 575.508 938.997 607.722C902.097 642.1 860.73 660.235 812.533 663.163C763.721 668.045 670.175 639.008 574.235 589.187C528.105 565.232 486.512 539.015 453.955 513.37C448.222 508.854 442.799 504.372 437.705 499.948ZM1027.34 335.771C1024.29 333.123 1020.97 330.821 1017.4 328.884C1013.25 326.65 1008.75 324.241 1003.95 321.672C958.743 297.462 883.076 256.942 823.932 215.523C747.316 167.51 653.531 163.834 595.893 206.602C549.539 241.121 440.986 321.96 394.708 390.722L394.668 390.781L394.619 390.83C382.561 402.814 380.094 418.038 387.288 436.08C396.026 457.996 419.348 484.314 454.729 512.181C487.222 537.775 528.743 563.947 574.803 587.865C670.544 637.582 763.82 666.567 812.436 661.705C919.473 655.202 975.191 573.791 1023.09 490.96L1023.09 490.951C1046.8 451.135 1056.27 405.248 1047.8 371.2C1044.1 356.31 1037.11 344.266 1027.34 335.771Z" fill="url(#paint14_linear_2267_12968)"/>
</mask>
<g mask="url(#mask7_2267_12968)">
<path d="M437.705 499.948C411.189 476.908 393.481 455.254 386.071 436.668C378.632 418.01 381.192 402.241 393.679 389.796C440.115 320.847 548.751 239.944 595.148 205.392C653.19 162.324 747.552 165.977 824.619 214.273C883.726 255.666 959.351 296.163 1004.53 320.359C1009.33 322.928 1013.83 325.338 1017.99 327.573C1033.38 335.913 1044.13 350.869 1049.09 370.818C1057.64 405.255 1048.11 451.595 1024.21 491.749C1000.39 532.944 973.574 575.508 938.997 607.722C902.097 642.1 860.73 660.235 812.533 663.163C763.721 668.045 670.175 639.008 574.235 589.187C528.105 565.232 486.512 539.015 453.955 513.37C448.222 508.854 442.799 504.372 437.705 499.948ZM1027.34 335.771C1024.29 333.123 1020.97 330.821 1017.4 328.884C1013.25 326.65 1008.75 324.241 1003.95 321.672C958.743 297.462 883.076 256.942 823.932 215.523C747.316 167.51 653.531 163.834 595.893 206.602C549.539 241.121 440.986 321.96 394.708 390.722L394.668 390.781L394.619 390.83C382.561 402.814 380.094 418.038 387.288 436.08C396.026 457.996 419.348 484.314 454.729 512.181C487.222 537.775 528.743 563.947 574.803 587.865C670.544 637.582 763.82 666.567 812.436 661.705C919.473 655.202 975.191 573.791 1023.09 490.96L1023.09 490.951C1046.8 451.135 1056.27 405.248 1047.8 371.2C1044.1 356.31 1037.11 344.266 1027.34 335.771Z" fill="url(#paint15_linear_2267_12968)"/>
</g>
<mask id="mask8_2267_12968" style="mask-type:alpha" maskUnits="userSpaceOnUse" x="435" y="199" width="559" height="411">
<path d="M472.896 479.149C456.686 465.066 445.216 451.652 439.591 439.722C433.533 426.874 434.159 415.844 441.451 406.939C449.401 384.105 472.825 353.735 511.076 316.667C538.94 289.664 575.311 258.816 610.863 232.034C667.968 189.148 744.406 188.243 815.335 229.611C839.227 245.459 864.441 261.473 888.826 276.96C920.362 296.989 950.149 315.906 969.207 329.603C985.206 341.191 993.961 362.263 993.869 388.922C993.782 414.19 985.538 442.577 971.247 466.806C939.385 522.998 917.024 546.993 901.103 561.618C870.594 589.643 836.473 604.942 796.788 608.388C754.742 614.059 678.087 593.76 596.765 555.41C544.816 530.914 501.488 503.992 472.896 479.149ZM971.876 333.336C970.807 332.406 969.7 331.528 968.555 330.696C949.526 317.021 919.753 298.112 888.232 278.093C863.842 262.603 838.623 246.586 814.75 230.748C744.246 189.629 668.268 190.508 611.536 233.113C576.023 259.866 539.694 290.677 511.864 317.647C473.696 354.635 450.367 384.872 442.524 407.52L442.484 407.635L442.409 407.726C435.414 416.2 434.821 426.764 440.648 439.121C456.074 471.837 516.074 515.936 597.234 554.21C678.375 592.474 754.794 612.737 796.669 607.09C836.125 603.664 870.028 588.463 900.341 560.617C930.521 532.893 953.55 495.549 970.241 466.112L970.247 466.102C984.418 442.078 992.595 413.945 992.681 388.918C992.763 364.635 985.409 345.095 971.876 333.336Z" fill="url(#paint16_linear_2267_12968)"/>
</mask>
<g mask="url(#mask8_2267_12968)">
<path d="M472.896 479.149C456.686 465.066 445.216 451.652 439.591 439.722C433.533 426.874 434.159 415.844 441.451 406.939C449.401 384.105 472.825 353.735 511.076 316.667C538.94 289.664 575.311 258.816 610.863 232.034C667.968 189.148 744.406 188.243 815.335 229.611C839.227 245.459 864.441 261.473 888.826 276.96C920.362 296.989 950.149 315.906 969.207 329.603C985.206 341.191 993.961 362.263 993.869 388.922C993.782 414.19 985.538 442.577 971.247 466.806C939.385 522.998 917.024 546.993 901.103 561.618C870.594 589.643 836.473 604.942 796.788 608.388C754.742 614.059 678.087 593.76 596.765 555.41C544.816 530.914 501.488 503.992 472.896 479.149ZM971.876 333.336C970.807 332.406 969.7 331.528 968.555 330.696C949.526 317.021 919.753 298.112 888.232 278.093C863.842 262.603 838.623 246.586 814.75 230.748C744.246 189.629 668.268 190.508 611.536 233.113C576.023 259.866 539.694 290.677 511.864 317.647C473.696 354.635 450.367 384.872 442.524 407.52L442.484 407.635L442.409 407.726C435.414 416.2 434.821 426.764 440.648 439.121C456.074 471.837 516.074 515.936 597.234 554.21C678.375 592.474 754.794 612.737 796.669 607.09C836.125 603.664 870.028 588.463 900.341 560.617C930.521 532.893 953.55 495.549 970.241 466.112L970.247 466.102C984.418 442.078 992.595 413.945 992.681 388.918C992.763 364.635 985.409 345.095 971.876 333.336Z" fill="url(#paint17_linear_2267_12968)"/>
</g>
<mask id="mask9_2267_12968" style="mask-type:alpha" maskUnits="userSpaceOnUse" x="487" y="222" width="449" height="334">
<path d="M508.037 460.718C501.334 454.893 496.156 449.307 492.757 444.113C487.785 436.517 486.59 429.825 489.204 424.217C484.46 403.391 510.362 369.19 532.973 344.123C558.468 315.858 593.461 283.917 626.58 258.679C655.106 236.992 683.288 225.259 712.736 222.811C742.81 220.311 773.334 227.554 806.052 244.954C853.643 274.037 898.533 308.067 920.434 331.665C931.056 343.216 936.43 361.361 935.568 382.759C934.762 402.777 928.463 424.322 918.285 441.869C892.366 489.039 853.343 544.367 781.045 553.62C746.037 560.049 685.789 548.363 619.908 522.356C571.766 503.349 530.985 480.655 508.037 460.718ZM899.693 313.437C875.634 292.533 841.366 267.852 805.569 245.976C773.049 228.682 742.7 221.476 712.816 223.96C683.558 226.393 655.546 238.06 627.178 259.626C565.275 306.798 481.873 389.026 490.271 424.141L490.323 424.359L490.226 424.558C487.693 429.787 488.831 436.139 493.609 443.44C508.53 466.237 558.244 496.786 620.265 521.268C685.985 547.212 746.035 558.879 780.9 552.476C852.775 543.277 891.597 488.211 917.391 441.266L917.398 441.254C927.482 423.87 933.723 402.531 934.521 382.706C935.369 361.638 930.105 343.803 919.699 332.485C914.321 326.692 907.551 320.265 899.693 313.437Z" fill="url(#paint18_linear_2267_12968)"/>
</mask>
<g mask="url(#mask9_2267_12968)">
<path d="M508.037 460.718C501.334 454.893 496.156 449.307 492.757 444.113C487.785 436.517 486.59 429.825 489.204 424.217C484.46 403.391 510.362 369.19 532.973 344.123C558.468 315.858 593.461 283.917 626.58 258.679C655.106 236.992 683.288 225.259 712.736 222.811C742.81 220.311 773.334 227.554 806.052 244.954C853.643 274.037 898.533 308.067 920.434 331.665C931.056 343.216 936.43 361.361 935.568 382.759C934.762 402.777 928.463 424.322 918.285 441.869C892.366 489.039 853.343 544.367 781.045 553.62C746.037 560.049 685.789 548.363 619.908 522.356C571.766 503.349 530.985 480.655 508.037 460.718ZM899.693 313.437C875.634 292.533 841.366 267.852 805.569 245.976C773.049 228.682 742.7 221.476 712.816 223.96C683.558 226.393 655.546 238.06 627.178 259.626C565.275 306.798 481.873 389.026 490.271 424.141L490.323 424.359L490.226 424.558C487.693 429.787 488.831 436.139 493.609 443.44C508.53 466.237 558.244 496.786 620.265 521.268C685.985 547.212 746.035 558.879 780.9 552.476C852.775 543.277 891.597 488.211 917.391 441.266L917.398 441.254C927.482 423.87 933.723 402.531 934.521 382.706C935.369 361.638 930.105 343.803 919.699 332.485C914.321 326.692 907.551 320.265 899.693 313.437Z" fill="url(#paint19_linear_2267_12968)"/>
</g>
<mask id="mask10_2267_12968" style="mask-type:alpha" maskUnits="userSpaceOnUse" x="528" y="244" width="350" height="259">
<path d="M542.957 448.665C540.067 446.154 538.104 443.79 537.202 441.639C531.826 438.214 528.959 433.069 528.677 426.352C527.85 406.699 548.92 377.78 566.741 356.98C587.946 332.231 616.192 305.442 642.297 285.321C671.844 262.577 695.149 250.576 717.864 246.411C742.097 241.968 767.169 246.379 796.769 260.295C829.495 277.684 858.881 306.519 871.658 333.769C883.038 358.292 877.375 395.305 865.326 416.926C841.626 462.645 807.976 490.207 765.313 498.844C748.7 503.109 727.084 503.833 701.09 500.993C678.584 498.532 653.422 493.404 628.324 486.163C589.032 474.824 556.227 460.194 542.957 448.665ZM537.913 440.935L537.973 441.087C538.805 443.177 540.704 445.481 543.521 447.929C572.726 473.311 700.8 514.378 765.127 497.866C807.538 489.28 840.978 461.88 864.54 416.424L864.547 416.409C876.467 395.025 882.084 358.435 870.848 334.225C858.157 307.159 828.932 278.494 796.392 261.205C766.978 247.377 742.067 242.987 718.014 247.397C695.44 251.537 672.249 263.485 642.819 286.139C616.762 306.223 588.568 332.962 567.403 357.665C549.702 378.324 528.773 407.002 529.585 426.306C529.854 432.711 532.614 437.608 537.782 440.854L537.913 440.935Z" fill="url(#paint20_linear_2267_12968)"/>
</mask>
<g mask="url(#mask10_2267_12968)">
<path d="M542.957 448.665C540.067 446.154 538.104 443.79 537.202 441.639C531.826 438.214 528.959 433.069 528.677 426.352C527.85 406.699 548.92 377.78 566.741 356.98C587.946 332.231 616.192 305.442 642.297 285.321C671.844 262.577 695.149 250.576 717.864 246.411C742.097 241.968 767.169 246.379 796.769 260.295C829.495 277.684 858.881 306.519 871.658 333.769C883.038 358.292 877.375 395.305 865.326 416.926C841.626 462.645 807.976 490.207 765.313 498.844C748.7 503.109 727.084 503.833 701.09 500.993C678.584 498.532 653.422 493.404 628.324 486.163C589.032 474.824 556.227 460.194 542.957 448.665ZM537.913 440.935L537.973 441.087C538.805 443.177 540.704 445.481 543.521 447.929C572.726 473.311 700.8 514.378 765.127 497.866C807.538 489.28 840.978 461.88 864.54 416.424L864.547 416.409C876.467 395.025 882.084 358.435 870.848 334.225C858.157 307.159 828.932 278.494 796.392 261.205C766.978 247.377 742.067 242.987 718.014 247.397C695.44 251.537 672.249 263.485 642.819 286.139C616.762 306.223 588.568 332.962 567.403 357.665C549.702 378.324 528.773 407.002 529.585 426.306C529.854 432.711 532.614 437.608 537.782 440.854L537.913 440.935Z" fill="url(#paint21_linear_2267_12968)"/>
</g>
<mask id="mask11_2267_12968" style="mask-type:alpha" maskUnits="userSpaceOnUse" x="562" y="266" width="261" height="196">
<path d="M568.544 452.315C565.651 449.801 563.742 446.606 562.834 442.74C560.558 433.046 563.573 414.13 590.861 379.07C609.153 355.568 634.257 330.481 658.014 311.961C686.09 290.075 704.473 276.331 722.987 270.018C742.14 263.488 760.827 265.117 787.486 275.638C802.181 281.436 812.446 292.029 817.999 307.116C830.004 339.741 816.388 383.002 812.375 391.963C804.877 408.7 791.28 422.738 771.959 433.689C755.329 443.113 734.426 450.294 709.832 455.031C665.376 463.593 616.358 462.543 585.307 458.707C577.999 457.804 572.398 455.664 568.544 452.315ZM802.618 285.649C798.212 281.82 793.076 278.743 787.227 276.435C760.739 265.982 742.194 264.356 723.216 270.827C704.811 277.102 686.474 290.814 658.46 312.653C615.146 346.418 556.435 412.097 563.58 442.53C565.608 451.168 572.947 456.329 585.395 457.867C616.392 461.697 665.325 462.744 709.7 454.198C734.218 449.476 755.046 442.323 771.607 432.937C790.777 422.072 804.261 408.162 811.684 391.59C815.668 382.698 829.185 339.771 817.286 307.434C814.028 298.58 809.118 291.296 802.618 285.649Z" fill="url(#paint22_linear_2267_12968)"/>
</mask>
<g mask="url(#mask11_2267_12968)">
<path d="M568.544 452.315C565.651 449.801 563.742 446.606 562.834 442.74C560.558 433.046 563.573 414.13 590.861 379.07C609.153 355.568 634.257 330.481 658.014 311.961C686.09 290.075 704.473 276.331 722.987 270.018C742.14 263.488 760.827 265.117 787.486 275.638C802.181 281.436 812.446 292.029 817.999 307.116C830.004 339.741 816.388 383.002 812.375 391.963C804.877 408.7 791.28 422.738 771.959 433.689C755.329 443.113 734.426 450.294 709.832 455.031C665.376 463.593 616.358 462.543 585.307 458.707C577.999 457.804 572.398 455.664 568.544 452.315ZM802.618 285.649C798.212 281.82 793.076 278.743 787.227 276.435C760.739 265.982 742.194 264.356 723.216 270.827C704.811 277.102 686.474 290.814 658.46 312.653C615.146 346.418 556.435 412.097 563.58 442.53C565.608 451.168 572.947 456.329 585.395 457.867C616.392 461.697 665.325 462.744 709.7 454.198C734.218 449.476 755.046 442.323 771.607 432.937C790.777 422.072 804.261 408.162 811.684 391.59C815.668 382.698 829.185 339.771 817.286 307.434C814.028 298.58 809.118 291.296 802.618 285.649Z" fill="url(#paint23_linear_2267_12968)"/>
</g>
<defs>
<linearGradient id="paint0_linear_2267_12968" x1="730.57" y1="0.433264" x2="730.57" y2="1046.56" gradientUnits="userSpaceOnUse">
<stop stop-color="white"/>
<stop offset="0.0436" stop-color="#B4B4B4"/>
<stop offset="0.1507"/>
<stop offset="0.1714" stop-color="#171717"/>
<stop offset="0.3859" stop-color="white"/>
<stop offset="0.6326" stop-color="#E6E6E6"/>
<stop offset="0.8567" stop-color="#1A1A1A"/>
<stop offset="0.9987"/>
</linearGradient>
<linearGradient id="paint1_linear_2267_12968" x1="730.57" y1="0.433105" x2="730.57" y2="1046.56" gradientUnits="userSpaceOnUse">
<stop stop-color="#0522AC"/>
<stop offset="1" stop-color="#34384C" stop-opacity="0"/>
</linearGradient>
<linearGradient id="paint2_linear_2267_12968" x1="728.752" y1="26.0912" x2="728.752" y2="991.788" gradientUnits="userSpaceOnUse">
<stop stop-color="white"/>
<stop offset="0.0436" stop-color="#B4B4B4"/>
<stop offset="0.1507"/>
<stop offset="0.1714" stop-color="#171717"/>
<stop offset="0.3859" stop-color="white"/>
<stop offset="0.6326" stop-color="#E6E6E6"/>
<stop offset="0.8567" stop-color="#1A1A1A"/>
<stop offset="0.9987"/>
</linearGradient>
<linearGradient id="paint3_linear_2267_12968" x1="728.753" y1="26.0928" x2="728.753" y2="991.788" gradientUnits="userSpaceOnUse">
<stop stop-color="#0522AC"/>
<stop offset="1" stop-color="#34384C" stop-opacity="0"/>
</linearGradient>
<linearGradient id="paint4_linear_2267_12968" x1="726.916" y1="51.4435" x2="726.916" y2="937.029" gradientUnits="userSpaceOnUse">
<stop stop-color="white"/>
<stop offset="0.0436" stop-color="#B4B4B4"/>
<stop offset="0.1507"/>
<stop offset="0.1714" stop-color="#171717"/>
<stop offset="0.3859" stop-color="white"/>
<stop offset="0.6326" stop-color="#E6E6E6"/>
<stop offset="0.8567" stop-color="#1A1A1A"/>
<stop offset="0.9987"/>
</linearGradient>
<linearGradient id="paint5_linear_2267_12968" x1="726.917" y1="51.4443" x2="726.917" y2="937.03" gradientUnits="userSpaceOnUse">
<stop stop-color="#0522AC"/>
<stop offset="1" stop-color="#34384C" stop-opacity="0"/>
</linearGradient>
<linearGradient id="paint6_linear_2267_12968" x1="725.055" y1="76.7942" x2="725.055" y2="882.286" gradientUnits="userSpaceOnUse">
<stop stop-color="white"/>
<stop offset="0.0436" stop-color="#B4B4B4"/>
<stop offset="0.1507"/>
<stop offset="0.1714" stop-color="#171717"/>
<stop offset="0.3859" stop-color="white"/>
<stop offset="0.6326" stop-color="#E6E6E6"/>
<stop offset="0.8567" stop-color="#1A1A1A"/>
<stop offset="0.9987"/>
</linearGradient>
<linearGradient id="paint7_linear_2267_12968" x1="725.056" y1="76.7935" x2="725.056" y2="882.285" gradientUnits="userSpaceOnUse">
<stop stop-color="#0522AC"/>
<stop offset="1" stop-color="#34384C" stop-opacity="0"/>
</linearGradient>
<linearGradient id="paint8_linear_2267_12968" x1="723.161" y1="101.833" x2="723.161" y2="827.566" gradientUnits="userSpaceOnUse">
<stop stop-color="white"/>
<stop offset="0.0436" stop-color="#B4B4B4"/>
<stop offset="0.1507"/>
<stop offset="0.1714" stop-color="#171717"/>
<stop offset="0.3859" stop-color="white"/>
<stop offset="0.6326" stop-color="#E6E6E6"/>
<stop offset="0.8567" stop-color="#1A1A1A"/>
<stop offset="0.9987"/>
</linearGradient>
<linearGradient id="paint9_linear_2267_12968" x1="723.161" y1="101.832" x2="723.161" y2="827.566" gradientUnits="userSpaceOnUse">
<stop stop-color="#0522AC"/>
<stop offset="1" stop-color="#34384C" stop-opacity="0"/>
</linearGradient>
<linearGradient id="paint10_linear_2267_12968" x1="721.216" y1="126.73" x2="721.216" y2="772.875" gradientUnits="userSpaceOnUse">
<stop stop-color="white"/>
<stop offset="0.0436" stop-color="#B4B4B4"/>
<stop offset="0.1507"/>
<stop offset="0.1714" stop-color="#171717"/>
<stop offset="0.3859" stop-color="white"/>
<stop offset="0.6326" stop-color="#E6E6E6"/>
<stop offset="0.8567" stop-color="#1A1A1A"/>
<stop offset="0.9987"/>
</linearGradient>
<linearGradient id="paint11_linear_2267_12968" x1="721.216" y1="126.73" x2="721.216" y2="772.876" gradientUnits="userSpaceOnUse">
<stop stop-color="#0522AC"/>
<stop offset="1" stop-color="#34384C" stop-opacity="0"/>
</linearGradient>
<linearGradient id="paint12_linear_2267_12968" x1="719.194" y1="151.27" x2="719.194" y2="718.247" gradientUnits="userSpaceOnUse">
<stop stop-color="white"/>
<stop offset="0.0436" stop-color="#B4B4B4"/>
<stop offset="0.1507"/>
<stop offset="0.1714" stop-color="#171717"/>
<stop offset="0.3859" stop-color="white"/>
<stop offset="0.6326" stop-color="#E6E6E6"/>
<stop offset="0.8567" stop-color="#1A1A1A"/>
<stop offset="0.9987"/>
</linearGradient>
<linearGradient id="paint13_linear_2267_12968" x1="719.195" y1="151.27" x2="719.195" y2="718.247" gradientUnits="userSpaceOnUse">
<stop stop-color="#0522AC"/>
<stop offset="1" stop-color="#34384C" stop-opacity="0"/>
</linearGradient>
<linearGradient id="paint14_linear_2267_12968" x1="717.045" y1="175.409" x2="717.045" y2="663.694" gradientUnits="userSpaceOnUse">
<stop stop-color="white"/>
<stop offset="0.0436" stop-color="#B4B4B4"/>
<stop offset="0.1507"/>
<stop offset="0.1714" stop-color="#171717"/>
<stop offset="0.3859" stop-color="white"/>
<stop offset="0.6326" stop-color="#E6E6E6"/>
<stop offset="0.8567" stop-color="#1A1A1A"/>
<stop offset="0.9987"/>
</linearGradient>
<linearGradient id="paint15_linear_2267_12968" x1="717.045" y1="175.41" x2="717.045" y2="663.695" gradientUnits="userSpaceOnUse">
<stop stop-color="#0522AC"/>
<stop offset="1" stop-color="#34384C" stop-opacity="0"/>
</linearGradient>
<linearGradient id="paint16_linear_2267_12968" x1="714.671" y1="199.216" x2="714.671" y2="609.33" gradientUnits="userSpaceOnUse">
<stop stop-color="white"/>
<stop offset="0.0436" stop-color="#B4B4B4"/>
<stop offset="0.1507"/>
<stop offset="0.1714" stop-color="#171717"/>
<stop offset="0.3859" stop-color="white"/>
<stop offset="0.6326" stop-color="#E6E6E6"/>
<stop offset="0.8567" stop-color="#1A1A1A"/>
<stop offset="0.9987"/>
</linearGradient>
<linearGradient id="paint17_linear_2267_12968" x1="714.67" y1="199.215" x2="714.67" y2="609.327" gradientUnits="userSpaceOnUse">
<stop stop-color="#0522AC"/>
<stop offset="1" stop-color="#34384C" stop-opacity="0"/>
</linearGradient>
<linearGradient id="paint18_linear_2267_12968" x1="711.758" y1="222.329" x2="711.758" y2="555.351" gradientUnits="userSpaceOnUse">
<stop stop-color="white"/>
<stop offset="0.0436" stop-color="#B4B4B4"/>
<stop offset="0.1507"/>
<stop offset="0.1714" stop-color="#171717"/>
<stop offset="0.3859" stop-color="white"/>
<stop offset="0.6326" stop-color="#E6E6E6"/>
<stop offset="0.8567" stop-color="#1A1A1A"/>
<stop offset="0.9987"/>
</linearGradient>
<linearGradient id="paint19_linear_2267_12968" x1="711.757" y1="222.331" x2="711.757" y2="555.353" gradientUnits="userSpaceOnUse">
<stop stop-color="#0522AC"/>
<stop offset="1" stop-color="#34384C" stop-opacity="0"/>
</linearGradient>
<linearGradient id="paint20_linear_2267_12968" x1="703.243" y1="244.748" x2="703.243" y2="502.691" gradientUnits="userSpaceOnUse">
<stop stop-color="white"/>
<stop offset="0.0436" stop-color="#B4B4B4"/>
<stop offset="0.1507"/>
<stop offset="0.1714" stop-color="#171717"/>
<stop offset="0.3859" stop-color="white"/>
<stop offset="0.6326" stop-color="#E6E6E6"/>
<stop offset="0.8567" stop-color="#1A1A1A"/>
<stop offset="0.9987"/>
</linearGradient>
<linearGradient id="paint21_linear_2267_12968" x1="703.243" y1="244.749" x2="703.243" y2="502.692" gradientUnits="userSpaceOnUse">
<stop stop-color="#0522AC"/>
<stop offset="1" stop-color="#34384C" stop-opacity="0"/>
</linearGradient>
<linearGradient id="paint22_linear_2267_12968" x1="692.532" y1="266.144" x2="692.532" y2="461.571" gradientUnits="userSpaceOnUse">
<stop stop-color="white"/>
<stop offset="0.0436" stop-color="#B4B4B4"/>
<stop offset="0.1507"/>
<stop offset="0.1714" stop-color="#171717"/>
<stop offset="0.3859" stop-color="white"/>
<stop offset="0.6326" stop-color="#E6E6E6"/>
<stop offset="0.8567" stop-color="#1A1A1A"/>
<stop offset="0.9987"/>
</linearGradient>
<linearGradient id="paint23_linear_2267_12968" x1="692.532" y1="266.144" x2="692.532" y2="461.571" gradientUnits="userSpaceOnUse">
<stop stop-color="#0522AC"/>
<stop offset="1" stop-color="#34384C" stop-opacity="0"/>
</linearGradient>
</defs>
</svg>
