<svg width="179" height="48" viewBox="0 0 179 48" fill="none" xmlns="http://www.w3.org/2000/svg">
<path d="M5.78027 43.8022L1 40.9469V47C1 47.5523 1.44772 48 2 48H178C178.552 48 179 47.5523 179 47V24.7837L176.141 30.9315C176.045 31.137 175.883 31.304 175.68 31.405L171.547 33.4619C171.026 33.7214 170.394 33.4823 170.175 32.9427L166.024 22.7137C165.87 22.3365 165.504 22.0898 165.097 22.0898H161.654C161.237 22.0898 160.863 21.8301 160.717 21.4385L158.518 15.5276C158.259 14.8302 157.355 14.6504 156.849 15.1953L155.243 16.9219C155.053 17.1253 154.788 17.2408 154.51 17.2408H145.664C145.444 17.2408 145.23 17.1681 145.055 17.0339L141.995 14.6843C141.525 14.3229 140.845 14.4485 140.534 14.9543L135.559 23.0591C135.125 23.7651 134.071 23.6682 133.773 22.8952L128.62 9.50523C128.534 9.28196 128.371 9.09689 128.16 8.98362L122.766 6.08383C122.576 5.98171 122.358 5.94374 122.144 5.97559L115.837 6.91744C115.479 6.97094 115.12 6.82649 114.898 6.53984L110.628 1.01413C110.23 0.499133 109.454 0.495479 109.051 1.00671L103.463 8.10021C103.047 8.62735 102.241 8.60388 101.857 8.05348L100.467 6.06066C100.062 5.48035 99.1991 5.49249 98.8108 6.08396L94.5484 12.576C94.1282 13.216 93.1741 13.1657 92.8235 12.4851L87.3632 1.88541C86.976 1.13383 85.8888 1.172 85.5553 1.94888L80.6383 13.4026C80.4806 13.77 80.1192 14.0082 79.7194 14.0082H76.8135C76.421 14.0082 76.0648 14.2378 75.9027 14.5952L68.4382 31.0575C68.3809 31.1838 68.298 31.2968 68.1947 31.3893L59.3542 39.3099C58.993 39.6336 58.4516 39.6513 58.0699 39.3521L54.3157 36.409C54.0661 36.2134 53.7386 36.1477 53.4329 36.2319L46.6935 38.0898C46.3302 38.19 46.0541 38.4857 45.9792 38.855L45.0612 43.3785C44.9666 43.8446 44.5568 44.1796 44.0812 44.1796H38.7315C38.4466 44.1796 38.1753 44.0581 37.9856 43.8456L31.7778 36.8933C31.3931 36.4626 30.7246 36.4462 30.3194 36.8577L22.671 44.6238C22.3153 44.985 21.7456 45.0229 21.3452 44.712L13.6861 38.7648C13.3044 38.4685 12.7654 38.4874 12.4055 38.8099L6.96035 43.6884C6.63429 43.9806 6.15612 44.0267 5.78027 43.8022Z" fill="url(#paint0_linear_1123_1975)"/>
<path d="M1 40.9469L5.78027 43.8022C6.15612 44.0267 6.63429 43.9806 6.96035 43.6884L12.4055 38.8099C12.7654 38.4874 13.3044 38.4685 13.6861 38.7648L21.3452 44.712C21.7456 45.0229 22.3153 44.985 22.671 44.6238L30.3194 36.8577C30.7246 36.4462 31.3931 36.4626 31.7778 36.8933L37.9856 43.8456C38.1753 44.0581 38.4466 44.1796 38.7315 44.1796H44.0812C44.5568 44.1796 44.9666 43.8446 45.0612 43.3785L45.9792 38.855C46.0541 38.4857 46.3302 38.19 46.6935 38.0898L53.4329 36.2319C53.7386 36.1477 54.0661 36.2134 54.3157 36.409L58.0699 39.3521C58.4516 39.6513 58.993 39.6336 59.3542 39.3099L68.1947 31.3893C68.298 31.2968 68.3809 31.1838 68.4382 31.0575L75.9027 14.5952C76.0648 14.2378 76.421 14.0082 76.8135 14.0082H79.7194C80.1192 14.0082 80.4806 13.77 80.6383 13.4026L85.5553 1.94888C85.8888 1.172 86.976 1.13383 87.3631 1.88541L92.8235 12.4851C93.1741 13.1657 94.1282 13.216 94.5484 12.576L98.8108 6.08396C99.1991 5.49249 100.062 5.48035 100.467 6.06066L101.857 8.05348C102.241 8.60388 103.047 8.62735 103.463 8.10021L109.051 1.00671C109.454 0.49548 110.23 0.499133 110.628 1.01413L114.898 6.53984C115.12 6.82649 115.479 6.97094 115.837 6.91744L122.144 5.97559C122.358 5.94374 122.576 5.98171 122.766 6.08383L128.16 8.98362C128.371 9.09689 128.534 9.28196 128.62 9.50523L133.773 22.8952C134.071 23.6682 135.125 23.7651 135.559 23.0591L140.534 14.9543C140.845 14.4485 141.525 14.3229 141.995 14.6843L145.055 17.0339C145.23 17.1681 145.444 17.2408 145.664 17.2408H154.51C154.788 17.2408 155.053 17.1253 155.243 16.9219L156.849 15.1953C157.355 14.6504 158.259 14.8302 158.518 15.5276L160.717 21.4385C160.863 21.8301 161.237 22.0898 161.654 22.0898H165.097C165.504 22.0898 165.87 22.3365 166.023 22.7137L170.175 32.9427C170.394 33.4823 171.026 33.7214 171.547 33.4619L175.604 31.4428C175.852 31.3192 176.038 31.0979 176.117 30.832L177.94 24.6857" stroke="#11CABE" stroke-linecap="round"/>
<defs>
<linearGradient id="paint0_linear_1123_1975" x1="90" y1="0" x2="90" y2="48" gradientUnits="userSpaceOnUse">
<stop offset="0.260417" stop-color="#BCFFE9" stop-opacity="0.4"/>
<stop offset="1" stop-opacity="0"/>
</linearGradient>
</defs>
</svg>
