<svg width="179" height="48" viewBox="0 0 179 48" fill="none" xmlns="http://www.w3.org/2000/svg">
<path d="M6.8379 43.0807H1V47C1 47.5523 1.44772 48 2 48H178C178.552 48 179 47.5523 179 47V11.6571L171.589 28.5793C171.199 29.4691 169.898 29.3369 169.695 28.3869L167.389 17.5834C167.246 16.9136 166.487 16.5825 165.899 16.9332L161.968 19.2763C161.508 19.5504 160.914 19.4138 160.62 18.9664L157.455 14.1477C157.119 13.6369 156.408 13.5439 155.952 13.9513L145.378 23.4072C145.094 23.6607 144.692 23.7315 144.339 23.5898L141.986 22.6451C141.501 22.4506 140.949 22.6614 140.717 23.129L135.058 34.5477C134.679 35.3126 133.577 35.2814 133.242 34.4964L128.721 23.9086C128.696 23.8504 128.666 23.7947 128.631 23.7423L122.927 15.282C122.557 14.7337 121.767 14.6888 121.337 15.1916L118.415 18.6133C118.097 18.986 117.555 19.0731 117.136 18.819L109.806 14.3759C109.236 14.0302 108.494 14.3289 108.322 14.9732L106.01 23.6348C105.977 23.7579 105.921 23.8735 105.845 23.9756L102.879 27.9452C102.509 28.4398 101.784 28.4846 101.357 28.0394L97.5525 24.0798C97.3918 23.9126 97.178 23.8064 96.9477 23.7794L93.5869 23.3859C93.2121 23.342 92.8939 23.0908 92.7642 22.7363L87.0847 7.21844C86.8188 6.49184 85.8638 6.32956 85.3728 6.92753L82.1951 10.7974C81.7016 11.3984 80.7409 11.2307 80.4802 10.498L77.5034 2.13219C77.2122 1.31391 76.088 1.23033 75.679 1.99656L70.5347 11.6348C70.3609 11.9606 70.0217 12.164 69.6525 12.164H62.1253C61.7941 12.164 61.4843 12.328 61.2982 12.6021L58.6357 16.5214C58.2389 17.1055 57.3781 17.1055 56.9813 16.5214L55.2193 13.9275C54.7431 13.2266 53.6657 13.3984 53.4312 14.2127L44.9605 43.6194C44.8743 43.9188 44.6535 44.1609 44.3632 44.2742L39.1588 46.3056C38.6868 46.4898 38.1516 46.2919 37.913 45.8449L34.0299 38.5696C33.7349 38.0169 33.0101 37.8684 32.5216 38.2607L23.1125 45.8158C22.601 46.2265 21.8393 46.0418 21.5727 45.4424L19.4495 40.6689C19.4134 40.5877 19.3667 40.5117 19.3105 40.4429L13.3974 33.1992C12.9243 32.6196 12.0057 32.7457 11.7063 33.4313L7.75433 42.4809C7.59523 42.8453 7.23545 43.0807 6.8379 43.0807Z" fill="url(#paint0_linear_1123_1998)"/>
<path d="M1 43.0807H6.8379C7.23545 43.0807 7.59523 42.8453 7.75433 42.4809L11.7063 33.4313C12.0057 32.7457 12.9243 32.6196 13.3974 33.1992L19.3105 40.4429C19.3667 40.5117 19.4134 40.5877 19.4495 40.6689L21.5727 45.4424C21.8393 46.0418 22.601 46.2265 23.1125 45.8158L32.5216 38.2607C33.0101 37.8684 33.7349 38.0169 34.0299 38.5696L37.913 45.8449C38.1516 46.2919 38.6868 46.4898 39.1588 46.3056L44.3632 44.2742C44.6534 44.1609 44.8743 43.9188 44.9605 43.6194L53.4312 14.2127C53.6657 13.3984 54.7432 13.2266 55.2193 13.9275L56.9813 16.5214C57.3781 17.1055 58.2389 17.1055 58.6357 16.5214L61.2982 12.6021C61.4843 12.328 61.7941 12.164 62.1253 12.164H69.6525C70.0217 12.164 70.3609 11.9606 70.5347 11.6348L75.679 1.99656C76.088 1.23033 77.2122 1.31391 77.5034 2.13219L80.4802 10.498C80.7409 11.2307 81.7016 11.3984 82.1951 10.7974L85.3728 6.92753C85.8638 6.32956 86.8188 6.49184 87.0847 7.21844L92.7642 22.7363C92.8939 23.0908 93.2121 23.342 93.5869 23.3859L96.9477 23.7794C97.178 23.8064 97.3918 23.9126 97.5525 24.0798L101.357 28.0394C101.784 28.4846 102.509 28.4398 102.879 27.9452L105.845 23.9756C105.921 23.8735 105.977 23.7579 106.01 23.6348L108.322 14.9732C108.494 14.3289 109.236 14.0302 109.806 14.3759L117.136 18.819C117.555 19.0731 118.097 18.986 118.415 18.6133L121.337 15.1916C121.767 14.6888 122.557 14.7337 122.927 15.282L128.631 23.7423C128.666 23.7947 128.696 23.8504 128.721 23.9086L133.242 34.4964C133.577 35.2814 134.679 35.3126 135.058 34.5477L140.717 23.129C140.949 22.6614 141.501 22.4506 141.986 22.6451L144.339 23.5898C144.692 23.7315 145.094 23.6607 145.378 23.4072L155.952 13.9513C156.408 13.5439 157.119 13.6369 157.455 14.1477L160.62 18.9664C160.914 19.4138 161.508 19.5504 161.968 19.2763L165.899 16.9332C166.487 16.5825 167.246 16.9136 167.389 17.5834L169.64 28.13C169.848 29.103 171.195 29.2087 171.552 28.28L177.94 11.6571" stroke="#FA2256" stroke-linecap="round"/>
<defs>
<linearGradient id="paint0_linear_1123_1998" x1="90" y1="0" x2="90" y2="48" gradientUnits="userSpaceOnUse">
<stop offset="0.104167" stop-color="#FCE2ED" stop-opacity="0.38"/>
<stop offset="1" stop-color="#2C2C2C" stop-opacity="0"/>
</linearGradient>
</defs>
</svg>
