<svg width="180" height="49" viewBox="0 0 180 49" fill="none" xmlns="http://www.w3.org/2000/svg">
<path d="M5.40806 39.9956L1 36.5181V48C1 48.5523 1.44772 49 2 49H178C178.552 49 179 48.5523 179 48V7.36145L171.983 12.6313C171.562 12.9473 170.968 12.8831 170.625 12.4844L163.992 4.78642C163.687 4.43226 163.177 4.33678 162.764 4.55651L161.183 5.39852C160.773 5.61677 160.267 5.52417 159.961 5.17495L156.849 1.62417C156.532 1.26226 156.002 1.17757 155.588 1.42262L152.913 3.00507C152.785 3.08105 152.641 3.12733 152.492 3.14052L141.384 4.12641C141.008 4.15972 140.684 4.40129 140.544 4.75125L134.995 18.6283C134.68 19.4161 133.589 19.4784 133.187 18.7314L127.914 8.9473C127.74 8.62355 127.402 8.42169 127.034 8.42169H121.841C121.382 8.42169 120.982 8.7338 120.871 9.1788L118.861 17.2067C118.749 17.6517 118.349 17.9639 117.891 17.9639H114.68C114.554 17.9639 114.43 17.9402 114.313 17.8941L109.925 16.1631C109.46 15.9798 108.932 16.1674 108.686 16.6025L103.152 26.4264C102.839 26.9817 102.094 27.1065 101.617 26.6835L99.8439 25.11C99.3813 24.6994 98.6607 24.8031 98.3325 25.3273L96.7837 27.8016C96.4012 28.4126 95.5176 28.4305 95.1107 27.8356L86.8062 15.6963C86.3694 15.0579 85.4043 15.1358 85.0756 15.836L83.1578 19.9209C82.9657 20.3301 82.5229 20.5596 82.0778 20.4806L77.59 19.684C77.156 19.6069 76.7227 19.8232 76.5233 20.2163L71.7402 29.6499C71.5808 29.9641 71.2679 30.1713 70.9164 30.1953L64.1934 30.6543C63.8927 30.6748 63.6174 30.8298 63.4439 31.0762L58.7824 37.6955C58.3305 38.3372 57.3492 38.232 57.0437 37.5089L54.7261 32.024C54.4534 31.3787 53.6188 31.2065 53.113 31.6913L40.1945 44.0738C39.7121 44.5362 38.9206 44.4044 38.614 43.8107L33.4761 33.8618C33.1177 33.1678 32.1377 33.1342 31.7326 33.8019L28.6671 38.8546C28.5441 39.0574 28.353 39.2098 28.1279 39.2847L24.5751 40.4671C24.0799 40.6319 23.5413 40.3882 23.3382 39.9075L20.3722 32.8879C20.2157 32.5177 19.8529 32.2771 19.451 32.2771H17.0297C16.7152 32.2771 16.4191 32.1292 16.2302 31.8777L13.921 28.8036C13.4738 28.2083 12.5562 28.2929 12.2255 28.96L6.92337 39.6546C6.6412 40.2238 5.9068 40.389 5.40806 39.9956Z" fill="url(#paint0_linear_1123_2077)"/>
<path d="M1 36.5181L5.40807 39.9956C5.9068 40.389 6.6412 40.2238 6.92337 39.6546L12.2255 28.96C12.5562 28.2929 13.4738 28.2083 13.921 28.8036L16.2302 31.8777C16.4191 32.1292 16.7152 32.2771 17.0297 32.2771H19.451C19.8529 32.2771 20.2158 32.5177 20.3722 32.8879L23.3382 39.9075C23.5413 40.3882 24.0799 40.6319 24.5751 40.4671L28.1279 39.2847C28.353 39.2098 28.5441 39.0573 28.6671 38.8546L31.7326 33.8019C32.1377 33.1342 33.1177 33.1678 33.4761 33.8618L38.614 43.8107C38.9206 44.4044 39.7121 44.5362 40.1945 44.0738L53.113 31.6913C53.6188 31.2065 54.4534 31.3787 54.7261 32.024L57.0437 37.5089C57.3492 38.232 58.3305 38.3372 58.7824 37.6955L63.4439 31.0762C63.6174 30.8298 63.8927 30.6748 64.1934 30.6543L70.9164 30.1953C71.2679 30.1713 71.5808 29.9641 71.7402 29.6499L76.5233 20.2163C76.7227 19.8232 77.156 19.6069 77.59 19.684L82.0778 20.4806C82.5229 20.5596 82.9657 20.3301 83.1578 19.9209L85.0756 15.836C85.4043 15.1358 86.3694 15.0579 86.8062 15.6963L95.1107 27.8356C95.5176 28.4305 96.4012 28.4126 96.7837 27.8016L98.3325 25.3273C98.6607 24.8031 99.3813 24.6994 99.8439 25.11L101.617 26.6835C102.094 27.1065 102.839 26.9817 103.152 26.4264L108.686 16.6025C108.932 16.1674 109.46 15.9798 109.925 16.1631L114.313 17.8941C114.43 17.9402 114.554 17.9639 114.68 17.9639H117.891C118.349 17.9639 118.749 17.6517 118.861 17.2067L120.871 9.1788C120.982 8.7338 121.382 8.42169 121.841 8.42169H127.034C127.402 8.42169 127.74 8.62355 127.914 8.9473L133.187 18.7314C133.589 19.4784 134.68 19.4161 134.995 18.6283L140.544 4.75125C140.684 4.40129 141.008 4.15972 141.384 4.12641L152.492 3.14052C152.641 3.12733 152.785 3.08105 152.913 3.00507L155.588 1.42262C156.002 1.17757 156.532 1.26226 156.849 1.62417L159.961 5.17495C160.267 5.52417 160.773 5.61677 161.183 5.39852L162.764 4.55651C163.177 4.33678 163.687 4.43226 163.992 4.78642L170.625 12.4844C170.968 12.8831 171.562 12.9473 171.983 12.6313L179 7.36145" stroke="#FA2256" stroke-linecap="round"/>
<defs>
<linearGradient id="paint0_linear_1123_2077" x1="90" y1="1" x2="90" y2="49" gradientUnits="userSpaceOnUse">
<stop offset="0.104167" stop-color="#FCE2ED" stop-opacity="0.38"/>
<stop offset="1" stop-color="#2C2C2C" stop-opacity="0"/>
</linearGradient>
</defs>
</svg>
